<svg width="24" height="24" viewBox="0 0 24 24" fill="none" xmlns="http://www.w3.org/2000/svg">
<path fill-rule="evenodd" clip-rule="evenodd" d="M23.3815 7.71187L23.3917 7.72244C23.4875 7.82059 24.127 8.49747 23.9775 9.40664C23.8947 9.909 23.6118 10.237 23.4835 10.3818C23.1469 10.7624 22.7638 10.9365 22.5493 11.0149C21.6683 11.3367 20.7868 11.6571 19.9052 11.9775C19.4414 12.146 18.9776 12.3146 18.5138 12.4834C18.3101 12.5575 18.1065 12.6321 17.9029 12.7066C17.3979 12.8915 16.8929 13.0763 16.3859 13.2554C16.2415 13.3062 16.1564 13.3832 16.0952 13.5237C15.8116 14.1761 15.5261 14.8278 15.2406 15.4794C14.8516 16.3673 14.4626 17.2552 14.0784 18.1451C13.951 18.4396 13.7585 18.6187 13.4562 18.7252C12.6124 19.0225 11.7726 19.3314 10.9328 19.6403C10.7796 19.6967 10.6264 19.753 10.4733 19.8093C10.1818 19.9165 9.90613 19.9201 9.66425 19.7014C9.42256 19.4831 9.39977 19.2122 9.47833 18.9087C9.69575 18.069 9.90793 17.2278 10.1201 16.3867C10.1801 16.149 10.2401 15.9112 10.3001 15.6735C10.3097 15.6355 10.3164 15.5968 10.3249 15.547C10.3294 15.5211 10.3344 15.4921 10.3405 15.4588C9.84416 15.6393 9.37978 15.8082 8.9156 15.9773C8.62481 16.0832 8.33419 16.1897 8.04356 16.2962C7.4357 16.5189 6.82782 16.7417 6.21828 16.9593C4.0671 17.7273 1.88953 16.7028 1.1059 14.5578C0.761467 13.615 0.417631 12.6721 0.0759925 11.7283C-0.111718 11.2094 0.0474061 10.8697 0.563561 10.6806C0.728652 10.6202 0.894384 10.5613 1.06012 10.5024C1.3929 10.3841 1.72572 10.2659 2.05345 10.1347C2.40709 9.99316 2.69535 10.0571 2.98022 10.2974C3.48038 10.7194 3.99194 11.1282 4.50629 11.5328C4.57046 11.5834 4.6954 11.6138 4.76837 11.5876C6.13226 11.099 7.49335 10.6026 8.85433 10.1062C8.99163 10.0561 9.12893 10.006 9.26623 9.95598C9.28886 9.94776 9.30991 9.93556 9.33662 9.92009C9.35145 9.9115 9.36802 9.90191 9.38758 9.89141C9.17894 9.74139 8.97183 9.59247 8.76579 9.44433C8.3014 9.11042 7.84241 8.78041 7.38353 8.4503C7.24742 8.35241 7.11158 8.2542 6.97574 8.156C6.66328 7.93009 6.35088 7.70424 6.03557 7.48256C5.77489 7.29944 5.64515 7.06235 5.69653 6.74351C5.7451 6.44085 5.94661 6.27473 6.22208 6.17518C6.30962 6.14353 6.39716 6.11189 6.4847 6.08025C7.41412 5.74433 8.34359 5.40839 9.27023 5.0651C9.53731 4.96615 9.77899 4.97994 10.0335 5.10688C10.7644 5.47125 11.4962 5.83383 12.228 6.19641C13.1769 6.66654 14.1258 7.13668 15.0727 7.61069C15.2696 7.70905 15.4327 7.71684 15.6424 7.64348C15.8494 7.57099 16.0559 7.49607 16.2626 7.4211C16.9347 7.17728 17.6078 6.93311 18.2996 6.77149C19.842 6.41106 21.3499 6.62836 22.7868 7.29504C23.1316 7.45486 23.277 7.60437 23.3815 7.71187ZM7.94486 7.12313C7.93765 7.11799 7.9323 7.11016 7.92265 7.09603L7.92265 7.09603C7.91652 7.08705 7.90866 7.07554 7.89748 7.06056L8.27176 6.92503L8.27181 6.92501C8.68321 6.77591 9.08686 6.62962 9.49193 6.48723C9.5427 6.46924 9.61607 6.47323 9.66445 6.49702C10.7126 7.01228 11.7596 7.53039 12.8314 8.06084L13.5118 8.39752C13.4766 8.41291 13.446 8.42684 13.4182 8.43948C13.3669 8.4628 13.3253 8.48172 13.2825 8.49727L12.9194 8.62935L12.9193 8.6294C12.3323 8.84302 11.7453 9.05662 11.1553 9.26211C11.0764 9.2895 10.9502 9.2781 10.8841 9.23133C10.0452 8.6366 9.2108 8.03533 8.37646 7.43409L8.37628 7.43396L7.94486 7.12313ZM22.0326 9.7111L21.1784 10.0221C19.3068 10.7037 17.4351 11.3852 15.561 12.06C15.268 12.1655 15.0803 12.3407 14.9565 12.6267C14.5905 13.4734 14.2205 14.3183 13.8504 15.1633L13.8504 15.1634L13.8503 15.1636C13.5461 15.858 13.242 16.5525 12.9401 17.2479C12.8753 17.3971 12.785 17.4808 12.6336 17.533C12.2871 17.6524 11.9427 17.7779 11.5843 17.9086L11.5842 17.9086C11.4433 17.96 11.3003 18.0121 11.1541 18.0649C11.1621 18.0274 11.1689 17.9941 11.1751 17.9637C11.187 17.9049 11.1968 17.8568 11.2089 17.8093L11.3793 17.1343L11.3793 17.1343C11.5928 16.2879 11.8062 15.4416 12.0243 14.5966C12.1007 14.3005 12.0703 14.0378 11.8396 13.8247C11.5999 13.6033 11.3227 13.6037 11.0316 13.7098C10.5865 13.872 10.1416 14.0344 9.69657 14.1969C8.38031 14.6773 7.0641 15.1577 5.7461 15.6331C4.56027 16.0609 3.36463 15.6749 2.70655 14.6649L2.68763 14.6362C2.65087 14.5807 2.61356 14.5242 2.5902 14.463C2.3293 13.7789 2.07046 13.094 1.8082 12.4001L1.58368 11.8061C1.64656 11.7831 1.70707 11.76 1.76606 11.7375C1.91562 11.6804 2.0554 11.6271 2.19919 11.5882C2.26196 11.5712 2.35991 11.612 2.41708 11.6576C2.93564 12.0696 3.45339 12.4828 3.96135 12.9076C4.23362 13.1353 4.50909 13.1837 4.84733 13.0601C6.64922 12.4021 8.45205 11.7465 10.2549 11.0909L10.2561 11.0905L10.2569 11.0902C12.6864 10.2067 15.116 9.32324 17.5433 8.4337C19.0692 7.87437 20.5709 7.86917 22.0708 8.50727C22.3444 8.62361 22.5333 8.79693 22.5359 9.11238C22.5381 9.39085 22.3722 9.58756 22.0326 9.7111Z" fill="#0C1E3C"/>
</svg>
