<svg width="24" height="24" viewBox="0 0 24 24" fill="none" xmlns="http://www.w3.org/2000/svg">
<path fill-rule="evenodd" clip-rule="evenodd" d="M23.4938 3.00035H11.9967H0.510446L0.476485 3.00017C0.43069 2.99983 0.384056 2.99947 0.338815 3.00469C0.301882 3.00904 0.264949 3.02207 0.23236 3.03945C0.0455216 3.1307 0.00207071 3.29364 0.00207071 3.487C0.00424325 9.10085 0.00424325 14.7125 0.00424325 20.3264C0.00424325 20.3515 0.00318357 20.3768 0.00212332 20.4021C-0.000211032 20.4579 -0.00254812 20.5138 0.0064158 20.5675C0.0237962 20.6544 0.0498667 20.7479 0.0976627 20.8196C0.193255 20.9716 0.354023 20.9782 0.514791 20.9782H23.3808L23.4039 20.9784L23.4374 20.9793C23.4806 20.9807 23.523 20.982 23.5655 20.976L23.5733 20.9748C23.645 20.9643 23.722 20.953 23.7849 20.9195C23.9544 20.8282 24 20.6675 24 20.485C23.9989 17.6552 23.9989 14.8255 23.9989 11.996C23.9989 9.16657 23.9989 6.33738 23.9978 3.50872C23.9978 3.14808 23.8501 3.00035 23.4938 3.00035ZM21.7384 17.5043C22.0021 17.5065 22.1089 17.5023 22.1779 17.4996C22.2412 17.4971 22.2725 17.4958 22.3641 17.5021C22.4659 17.5091 22.5687 17.5055 22.6715 17.5019H22.6715H22.6715H22.6715H22.6716H22.6716H22.6716H22.6716H22.6716H22.6716H22.6717H22.6717H22.6717H22.6717C22.7926 17.4977 22.9135 17.4935 23.0332 17.5064L23.0336 17.5065C23.0535 17.5087 23.1095 17.5149 23.1462 17.4804C23.183 17.4436 23.1801 17.3843 23.179 17.3627L23.1788 17.3565C23.1755 14.0098 23.1759 10.6643 23.1763 7.31814L23.1766 3.97148C23.1766 3.89506 23.1766 3.8565 23.1573 3.83705C23.1377 3.81722 23.098 3.81722 23.018 3.81722C15.6683 3.81722 8.31857 3.81722 0.968853 3.81505C0.855881 3.81505 0.818948 3.84112 0.818948 3.96061C0.823293 8.42736 0.823293 12.8919 0.818948 17.3565C0.818948 17.4717 0.849363 17.5064 0.968853 17.5064C6.7413 17.5021 12.5138 17.5021 18.2862 17.5021C18.3275 17.5021 18.3666 17.4999 18.4035 17.4977L18.4068 17.4836L18.4091 17.4731C18.4097 17.47 18.41 17.4676 18.41 17.4652C18.4067 17.4535 18.4021 17.4432 18.3972 17.4321L18.3927 17.4217C18.1298 16.8938 18.1254 16.3398 18.2971 15.7923C18.4079 15.4338 18.5665 15.0884 18.7251 14.7451C18.8967 14.378 18.951 14.0021 18.8684 13.6067C18.7837 13.2026 18.6099 12.8355 18.3666 12.5031C18.2688 12.3705 18.2362 12.2228 18.3079 12.0729C18.4578 11.7666 18.8359 11.7448 19.0357 12.0208C19.3529 12.4574 19.5724 12.9332 19.6766 13.4633C19.7766 13.9608 19.7418 14.4431 19.5441 14.9146C19.5014 15.0167 19.4578 15.1184 19.4141 15.22L19.4141 15.22L19.4141 15.2201L19.4141 15.2201L19.4141 15.2201L19.4141 15.2201L19.4141 15.2202L19.4141 15.2202L19.414 15.2204L19.4138 15.2207L19.4138 15.2208L19.4138 15.2208L19.4138 15.2208L19.4138 15.2208L19.4138 15.2208L19.4138 15.2208L19.4138 15.2209L19.4138 15.2209L19.4138 15.2209L19.4138 15.2209L19.4138 15.2209L19.4137 15.2209L19.4137 15.2209C19.2997 15.4864 19.1858 15.7516 19.09 16.0248C18.938 16.4484 18.9771 16.8634 19.24 17.2479C19.3573 17.4195 19.4789 17.5499 19.7092 17.5043C19.7426 17.4982 19.7771 17.4995 19.8119 17.5009C19.8269 17.5015 19.8419 17.5021 19.857 17.5021H20.185L20.1767 17.4765C20.1695 17.4544 20.1655 17.4418 20.1589 17.4304C19.933 16.9611 19.9004 16.4701 20.0134 15.9726C20.1046 15.5729 20.2719 15.1992 20.4522 14.832C20.5848 14.5583 20.6934 14.2759 20.6825 13.9674C20.6608 13.4394 20.4609 12.9745 20.1676 12.5443C20.109 12.4596 20.059 12.3575 20.0438 12.2576C20.0177 12.0903 20.1437 11.8947 20.3002 11.8535C20.487 11.8057 20.6521 11.8122 20.7912 12.0055C21.1301 12.4748 21.369 12.9875 21.4625 13.5654C21.5537 14.1259 21.4494 14.6474 21.2105 15.1579C21.0584 15.4838 20.9324 15.8249 20.8237 16.1703C20.7432 16.4316 20.7621 16.5738 20.7697 16.6308L20.7716 16.6461C20.7998 16.9524 20.9606 17.3478 21.2756 17.4825C21.3168 17.501 21.4456 17.502 21.6954 17.5039L21.7384 17.5043ZM4.58895 18.32H4.58849L4.5851 18.32C3.91405 18.3207 3.42514 18.3211 3.12185 18.3211H0.992751C0.907651 18.3211 0.864746 18.3211 0.843115 18.3426C0.82112 18.3644 0.82112 18.4084 0.82112 18.4971V19.9484L0.820947 19.996C0.820454 20.0826 0.820218 20.124 0.840766 20.1434C0.859598 20.1613 0.895885 20.1608 0.965428 20.1597C0.984294 20.1594 1.00561 20.1591 1.02968 20.1591H22.4097L22.5694 20.1588C22.7299 20.1584 22.8914 20.158 23.0528 20.1613C23.1484 20.1635 23.1788 20.1352 23.1788 20.0374C23.1762 19.7156 23.1759 19.3938 23.1756 19.0715V19.0709C23.1755 18.856 23.1753 18.6409 23.1744 18.4254C23.1744 18.4085 23.1729 18.3907 23.1711 18.3713V18.3712V18.3712V18.3712V18.3712V18.3711C23.17 18.3582 23.1688 18.3445 23.1679 18.3298C23.147 18.3289 23.1268 18.3272 23.1071 18.3256L23.1071 18.3256L23.107 18.3256C23.0797 18.3233 23.0532 18.3211 23.0267 18.3211C22.7485 18.3211 22.4985 18.3196 22.2779 18.3183L22.2776 18.3183H22.2776H22.2775H22.2775H22.2774H22.2774H22.2774H22.2773H22.2773H22.2772H22.2772H22.2771H22.2771H22.2771C21.9055 18.3161 21.6172 18.3143 21.4168 18.3211C21.3265 18.3251 21.3214 18.325 21.0109 18.3239C20.8062 18.3232 20.469 18.322 19.8874 18.3211C12.3018 18.3125 7.14075 18.3175 4.5932 18.32H4.59285H4.59262H4.59216H4.59186H4.59165H4.59121H4.59091H4.59041H4.59008H4.58955H4.58919H4.58895ZM14.0186 9.05231L14.0186 9.0523C14.0818 9.03085 14.1378 9.01188 14.1877 8.98397C14.2605 8.94074 14.3336 8.89781 14.4066 8.85488L14.4066 8.85486L14.4067 8.85485L14.4067 8.85483L14.4067 8.85481L14.4068 8.85479L14.4068 8.85478C14.6714 8.69926 14.9361 8.54371 15.1914 8.37349C15.3935 8.23662 15.5955 8.19968 15.8041 8.30614C15.9692 8.39304 16.1234 8.51036 16.2647 8.63419C16.5384 8.87317 16.8187 9.0926 17.1619 9.22512C17.5508 9.37503 17.9527 9.42934 18.3655 9.43369C18.9673 9.44238 19.5495 9.36417 20.0883 9.08173C20.5619 8.83406 20.9096 8.47125 21.0834 7.95636C21.1007 7.90204 21.0899 7.81949 21.0595 7.76735C20.7662 7.25028 20.349 6.85053 19.8341 6.56158C19.5886 6.42254 19.3345 6.29001 19.052 6.2596C18.6458 6.21615 18.2395 6.17487 17.8267 6.24005C17.3466 6.31609 16.9056 6.47034 16.5275 6.78101C16.4531 6.84172 16.3808 6.90478 16.3084 6.96782C16.197 7.06495 16.0856 7.16201 15.967 7.25028C15.7324 7.42408 15.4217 7.4306 15.2283 7.28939C15.0068 7.12862 14.7786 6.97654 14.544 6.8375C14.412 6.76011 14.2736 6.69544 14.1244 6.62572L14.1244 6.62568L14.1243 6.62567C14.06 6.59559 13.9936 6.56456 13.9248 6.53117C13.7315 7.4067 13.7293 8.23662 13.9227 9.08608C13.9564 9.07342 13.9884 9.06258 14.0186 9.05231ZM15.7222 6.38446L15.7222 6.38449C15.6733 6.42733 15.6246 6.46992 15.576 6.51161C15.5272 6.48087 15.4788 6.45012 15.4306 6.4195L15.4306 6.41947C15.2813 6.32461 15.1339 6.23096 14.9829 6.14228C14.6526 5.94893 14.3137 5.77512 13.927 5.72298C13.6554 5.68605 13.449 5.78381 13.297 6.00758C13.1362 6.23787 13.0775 6.5051 13.0363 6.77015C12.9428 7.3828 12.9276 7.99981 13.0037 8.61681C13.0428 8.93183 13.0906 9.24468 13.2383 9.53145C13.3513 9.75305 13.5533 9.95944 13.8683 9.90947C14.0834 9.87471 14.3072 9.82909 14.5027 9.7335C14.7734 9.60164 15.0343 9.44485 15.2944 9.28857C15.36 9.24914 15.4256 9.20976 15.4912 9.17081C15.5586 9.12953 15.5977 9.12953 15.6563 9.18602C16.2169 9.73567 16.8708 10.0898 17.6573 10.1984C18.4763 10.3114 19.278 10.2766 20.0579 9.98986C20.9009 9.68136 21.5222 9.1317 21.8438 8.27789C21.935 8.03674 21.998 7.78473 21.8655 7.53271C21.8025 7.41105 21.7395 7.28939 21.6656 7.17641C21.0703 6.29436 20.2708 5.69474 19.2302 5.45576C18.6414 5.31889 18.0418 5.36017 17.4509 5.47314C16.9295 5.57308 16.4558 5.78381 16.0409 6.11404C15.9316 6.2012 15.8263 6.29339 15.7222 6.38445L15.7222 6.38446ZM15.2192 14.0291L15.1944 13.8223C15.1602 13.5362 15.1306 13.2894 15.0954 13.0427C15.0715 12.8602 15.0476 12.8537 14.8738 12.9254C14.461 13.0949 14.0982 13.3447 13.7354 13.5989C13.592 13.701 13.4399 13.7292 13.2705 13.6793C13.0901 13.6271 12.9381 13.5294 12.8055 13.399C12.4014 13.0036 11.9452 12.7016 11.3738 12.593C10.6504 12.454 9.94646 12.4605 9.2708 12.8037C8.68421 13.1014 8.22798 13.5315 7.9021 14.1029C7.8782 14.142 7.87385 14.2072 7.88689 14.2507C7.98031 14.5505 8.14977 14.8047 8.37571 15.0219C8.76242 15.3956 9.23821 15.5868 9.75745 15.6802C10.1789 15.7541 10.6004 15.7627 11.0284 15.7193C11.5867 15.6606 12.0864 15.476 12.5166 15.1088L12.576 15.0575L12.576 15.0575C12.7454 14.9108 12.9167 14.7625 13.1053 14.6439C13.3139 14.5135 13.542 14.507 13.7593 14.6678C14.1134 14.9263 14.4806 15.1653 14.8868 15.3348C15.0346 15.3956 15.0737 15.3847 15.0932 15.2261C15.1276 14.9362 15.1568 14.6453 15.1837 14.3774C15.196 14.2558 15.2077 14.1389 15.2192 14.0291ZM14.4072 16.0211C14.5816 16.1148 14.7635 16.2125 15.002 16.2125L15.0082 16.2123C15.0941 16.2101 15.2869 16.2052 15.4734 16.0886C15.758 15.9105 15.8406 15.5889 15.921 15.2696C15.9796 15.0284 15.9927 14.8155 16.0057 14.3419C16.0252 13.7249 16.0122 13.1079 15.7884 12.5191C15.6733 12.2193 15.4495 11.989 15.1019 12.0303C14.9325 12.0499 14.7565 12.0803 14.6044 12.152C14.3679 12.2639 14.1383 12.3919 13.9098 12.5192C13.8233 12.5674 13.7371 12.6154 13.6506 12.6625C13.6217 12.6784 13.5928 12.6999 13.5641 12.7211L13.5641 12.7212C13.5068 12.7636 13.4508 12.8052 13.3986 12.7994C13.3388 12.7945 13.2826 12.7344 13.2282 12.6761C13.2095 12.6561 13.191 12.6363 13.1727 12.6191C12.8381 12.3193 12.4688 12.0694 12.0451 11.9195C11.5998 11.7653 11.1392 11.6979 10.6699 11.6871C10.1029 11.674 9.55323 11.7609 9.03834 11.9977C8.24319 12.3649 7.61749 12.9276 7.18733 13.6923C7.10694 13.8379 7.04394 14.0138 7.04394 14.1768C7.04177 14.3528 7.10694 14.5374 7.17647 14.7047C7.43717 15.3413 7.90427 15.7932 8.49737 16.1169C8.92102 16.3493 9.38377 16.4753 9.85956 16.5297C10.3614 16.5861 10.8698 16.5861 11.3716 16.5014C11.804 16.4275 12.2233 16.3059 12.5904 16.0604C12.7815 15.9314 12.9608 15.785 13.1396 15.639C13.2049 15.5858 13.27 15.5326 13.3356 15.4803L13.3394 15.4773C13.3805 15.4443 13.4047 15.425 13.4616 15.4629C13.5197 15.4995 13.5778 15.5366 13.6359 15.5739L13.6359 15.5739L13.6359 15.5739L13.6359 15.5739L13.6359 15.5739L13.6359 15.5739L13.6359 15.5739L13.636 15.5739L13.636 15.5739C13.8472 15.7092 14.0597 15.8454 14.2829 15.9561C14.3243 15.9766 14.3655 15.9987 14.4071 16.0211L14.4071 16.0211L14.4071 16.0211L14.4072 16.0211ZM6.14581 10.0544C6.51731 10.0739 6.8432 9.76109 6.84754 9.36351C6.84971 8.98984 6.52383 8.6683 6.15233 8.67047C5.77648 8.67047 5.46146 8.98549 5.45711 9.36134C5.45494 9.74371 5.76127 10.0522 6.14581 10.0544ZM4.63806 9.34613C4.62503 10.1999 5.33111 10.893 6.15016 10.8778C6.95834 10.893 7.66442 10.226 7.66442 9.3722C7.66442 8.52274 7.00396 7.86229 6.15884 7.84925C5.33328 7.83404 4.6511 8.52274 4.63806 9.34613ZM3.91808 14.29C3.91808 14.0662 3.74862 13.8989 3.52702 13.9011C3.30108 13.9033 3.14031 14.064 3.14248 14.2921C3.14466 14.5116 3.30977 14.6767 3.52702 14.6789C3.74862 14.6789 3.91808 14.5116 3.91808 14.29ZM4.45687 13.5013C4.27438 13.2863 4.04192 13.1603 3.76166 13.0951C3.67041 13.0799 3.53354 13.0625 3.36843 13.0864L3.36229 13.0875L3.36228 13.0875C3.33594 13.0923 3.23967 13.1097 3.13814 13.1429C2.56024 13.3362 2.21915 13.8924 2.33864 14.5203C2.48203 15.2741 3.24894 15.6956 3.97022 15.424C4.74582 15.1308 4.99349 14.1336 4.45687 13.5013ZM3.11663 5.83009C2.9211 5.83009 2.75382 5.98868 2.74947 6.17987C2.74513 6.37322 2.91676 6.54485 3.11663 6.54703C3.30999 6.54703 3.4751 6.38626 3.47945 6.1929C3.48162 5.99303 3.31868 5.83009 3.11663 5.83009ZM1.93259 6.17987C1.93042 6.84032 2.4779 7.38346 3.11663 7.36173C3.73798 7.38563 4.32891 6.84901 4.29632 6.12338C4.27242 5.552 3.78143 5.00235 3.11446 5.00452C2.48225 5.00452 1.93694 5.51941 1.93259 6.17987ZM18.4806 8.89207C18.4431 8.88661 18.4047 8.88351 18.3664 8.88041C18.2826 8.87364 18.1989 8.86688 18.1244 8.83559C17.9332 8.7552 17.855 8.57271 17.8962 8.38587C17.9397 8.19251 18.0939 8.06868 18.296 8.05347C18.5523 8.03392 18.8065 8.01002 19.0607 7.97743C19.1411 7.96657 19.2258 7.9405 19.2975 7.89922C19.517 7.76887 19.782 7.90791 19.858 8.08606C19.9623 8.32721 19.845 8.56619 19.593 8.6683C19.2367 8.81386 18.863 8.866 18.4806 8.89207ZM9.61167 15.0186C9.97666 15.2207 10.3764 15.2728 10.7827 15.2946C10.8029 15.2946 10.8233 15.2948 10.8438 15.295C10.8851 15.2955 10.9267 15.296 10.9673 15.2946C11.1455 15.2859 11.2932 15.1555 11.3367 14.9709C11.3779 14.7927 11.2997 14.6015 11.1325 14.5298C11.039 14.4907 10.9282 14.4777 10.8239 14.4733C10.4894 14.456 10.1635 14.4277 9.88324 14.2083C9.7594 14.1127 9.54867 14.1344 9.42918 14.2278C9.29013 14.3365 9.23147 14.5081 9.28144 14.6754C9.32924 14.8492 9.46828 14.9383 9.61167 15.0186Z" fill="#0C1E3C"/>
</svg>
