<svg width="24" height="24" viewBox="0 0 24 24" fill="none" xmlns="http://www.w3.org/2000/svg">
<path fill-rule="evenodd" clip-rule="evenodd" d="M3.65229 19.8884C3.36032 19.8814 3.13024 19.9573 2.99951 20.2361V20.5481C3.01265 20.6057 3.02462 20.6636 3.0366 20.7216C3.06036 20.8366 3.08414 20.9517 3.11717 21.0641C3.4222 22.1082 4.28414 22.835 5.35612 22.9597C5.39029 22.9639 5.42402 22.975 5.45763 22.9861C5.47203 22.9908 5.48642 22.9956 5.5008 22.9998H17.2464C17.3495 22.9717 17.4548 22.9484 17.56 22.925C17.7884 22.8743 18.0167 22.8237 18.2225 22.7252C19.1812 22.2668 19.698 21.4903 19.7442 20.4218C19.7599 20.0601 19.5891 19.8971 19.216 19.8928C18.9458 19.89 18.676 19.8907 18.4063 19.8914C18.2445 19.8918 18.0827 19.8922 17.9209 19.8919C17.8775 19.8914 17.8341 19.8889 17.7841 19.8861C17.752 19.8842 17.7171 19.8823 17.6778 19.8806C17.6942 19.852 17.7088 19.8261 17.7224 19.802C17.7499 19.7531 17.7733 19.7116 17.7989 19.6714C18.5615 18.4451 18.9136 17.11 18.8657 15.6693C18.8552 15.3556 18.687 15.2031 18.341 15.2031C17.2468 15.2018 16.1526 15.2019 15.0584 15.2021C14.6937 15.2021 14.3289 15.2022 13.9642 15.2022H13.348C13.3456 15.1806 13.3428 15.1603 13.3401 15.1408C13.3342 15.0979 13.3289 15.059 13.3289 15.02C13.3313 14.7312 13.3323 14.4422 13.3332 14.1531C13.3356 13.4174 13.3379 12.6813 13.3655 11.9462C13.3783 11.6068 13.4366 11.2691 13.495 10.9313C13.5202 10.786 13.5453 10.6406 13.5668 10.4951C13.5807 10.4001 13.5964 10.3042 13.6261 10.2127C13.6689 10.0821 13.6317 9.96186 13.5935 9.83847C13.5532 9.70819 13.5119 9.57442 13.5624 9.42134C13.6399 9.18565 13.5831 8.89136 13.533 8.63152L13.5311 8.62128C13.3707 7.79333 13.2992 6.96276 13.3472 6.12174C13.3518 6.04285 13.3506 5.96357 13.3493 5.87785C13.3487 5.83573 13.348 5.79205 13.348 5.74611H14.1507H15.9147C16.8673 5.74524 17.6787 5.16916 17.9671 4.26015C18.0281 4.06929 18.1179 4.0292 18.2966 4.03704C18.9005 4.06319 19.4662 3.94553 19.9377 3.53504C20.3272 3.19602 20.5713 2.77507 20.6445 2.26087C20.6486 2.23185 20.6596 2.20364 20.6706 2.17542C20.6758 2.1621 20.681 2.14878 20.6854 2.13537V1.33356L20.685 1.3329C20.5893 1.17186 20.4864 0.998895 20.2776 1.00064C20.206 1.0014 20.1344 1.00192 20.0628 1.00245C19.6445 1.0055 19.2246 1.00856 18.8117 1.0599C18.3297 1.11916 17.9593 1.42158 17.6351 1.78327C17.3152 1.40067 16.9326 1.11916 16.4542 1.05641C15.9783 0.993664 15.4911 0.996278 15.01 1.00325C14.7599 1.00674 14.6187 1.20022 14.6135 1.45557C14.61 1.63337 14.6109 1.81203 14.6126 1.98982C14.6222 2.93456 15.2776 3.7599 16.2058 3.96558C16.4016 4.00929 16.604 4.02585 16.8062 4.04239C16.8983 4.04992 16.9903 4.05745 17.0817 4.06754C16.9326 4.53556 16.4716 4.86151 15.9208 4.86586C15.2679 4.87153 14.615 4.86971 13.9622 4.8679C13.8115 4.86748 13.6608 4.86706 13.5101 4.86674C13.4773 4.86674 13.4448 4.86025 13.4102 4.85334C13.3925 4.8498 13.3742 4.84615 13.355 4.8432C13.3977 4.18259 13.5293 3.55421 13.7193 2.9363C13.8405 2.54324 13.6566 2.2844 13.2513 2.28353C12.0085 2.28004 10.7657 2.28004 9.5229 2.28353C9.10544 2.2844 8.93375 2.54673 9.04443 2.95199C9.06606 3.03097 9.08865 3.11011 9.11128 3.18941C9.20901 3.53186 9.3076 3.87729 9.33378 4.22616C9.40176 5.10554 9.44272 5.99014 9.42006 6.87125C9.40922 7.27828 9.34884 7.68396 9.28837 8.09018C9.25161 8.33717 9.21481 8.58437 9.18911 8.83219C9.17319 8.98131 9.18638 9.13402 9.19955 9.28654C9.20585 9.35955 9.21215 9.43251 9.21525 9.50501C9.21874 9.58083 9.21961 9.65753 9.21612 9.73335C9.21295 9.80767 9.20636 9.88228 9.19977 9.95685C9.18641 10.1079 9.17306 10.2588 9.18823 10.407C9.21483 10.66 9.2517 10.9125 9.28855 11.1649C9.3459 11.5576 9.40323 11.9502 9.4218 12.3444C9.45153 12.9767 9.44561 13.6107 9.4397 14.2447C9.43729 14.5029 9.43488 14.7611 9.43488 15.0192C9.43488 15.0554 9.4306 15.0916 9.42593 15.1312C9.42329 15.1536 9.42052 15.177 9.41832 15.2022H9.16209H5.43369C5.33387 15.2022 5.23398 15.2019 5.13406 15.2016C4.88415 15.2009 4.63404 15.2002 4.38437 15.2039C4.08282 15.2083 3.90503 15.38 3.89806 15.6658C3.85971 17.1213 4.21268 18.4704 4.9927 19.7054C5.01428 19.7398 5.03273 19.7765 5.05486 19.8206C5.06579 19.8424 5.07763 19.8659 5.09118 19.8919C4.94109 19.8919 4.7941 19.8927 4.64929 19.8934C4.30893 19.8952 3.98061 19.897 3.65229 19.8884ZM18.1014 3.12629C19.101 3.27358 19.8479 2.71755 19.7773 1.89047C18.7968 1.72923 18.0438 2.2783 18.1014 3.12629ZM15.5164 1.88175C15.431 2.73323 16.2284 3.3189 17.1871 3.12106C17.2612 2.31664 16.5614 1.79111 15.5164 1.88175ZM4.77046 16.0999C4.79181 16.318 4.81183 16.5181 4.83168 16.7165L4.84018 16.8014H17.9358L17.9872 16.0999H4.77046ZM10.3207 13.731C10.3307 12.5127 10.3407 11.2924 10.0179 10.0881H12.7545C12.4327 11.27 12.4442 12.4592 12.4558 13.6503V13.6503V13.6503V13.6504V13.6504C12.4608 14.1622 12.4657 14.6744 12.4443 15.1865H10.3299C10.3128 14.7024 10.3168 14.2169 10.3207 13.731ZM10.0345 9.17993L10.9057 9.18013C11.4759 9.18032 12.0381 9.18051 12.6003 9.17993C12.7473 9.17993 12.733 9.0993 12.7132 8.9874L12.7127 8.98471C12.6894 8.84703 12.6631 8.70936 12.6367 8.57161C12.5652 8.19839 12.4937 7.82466 12.4835 7.44907C12.4795 7.30615 12.4749 7.16315 12.4704 7.02009L12.4704 7.01968V7.01966C12.4295 5.73405 12.3885 4.44469 12.7327 3.1751H10.0624C10.4397 5.17613 10.4302 7.16234 10.0345 9.17993ZM3.99441 20.8926C3.98468 20.8623 3.97444 20.8305 3.96255 20.7965H18.7829C18.7106 21.3683 18.0935 21.9565 17.4477 22.0646C17.2943 22.0899 17.1374 22.1073 16.9823 22.1073C13.2539 22.1099 9.52639 22.1099 5.79799 22.1082C5.00838 22.1082 4.40703 21.7875 4.0558 21.0589C4.03138 21.0077 4.01393 20.9534 3.99441 20.8926ZM5.04325 17.7157C5.28902 18.4983 5.64634 19.1833 6.14834 19.7899C6.19541 19.8474 6.29738 19.8875 6.37407 19.8875C9.71377 19.8928 13.0543 19.8928 16.3949 19.8867C16.4803 19.8858 16.591 19.8239 16.6468 19.7559C17.0686 19.2409 17.3911 18.6674 17.6133 18.0399C17.6362 17.9734 17.6565 17.9063 17.6783 17.8339L17.6784 17.8338C17.6897 17.796 17.7016 17.7569 17.7144 17.7157H5.04325Z" fill="#0C1E3C"/>
</svg>
