<svg width="24" height="24" viewBox="0 0 24 24" fill="none" xmlns="http://www.w3.org/2000/svg">
<path fill-rule="evenodd" clip-rule="evenodd" d="M24 2.28743C23.9584 2.48554 23.8261 2.62251 23.6889 2.75886C23.3726 3.07356 23.0567 3.38897 22.7409 3.70435L22.7407 3.70457L22.7401 3.70517L22.7387 3.70652C22.549 3.89596 22.3593 4.08539 22.1696 4.27464C22.1285 4.31561 22.0863 4.35597 22.041 4.39265C21.8823 4.51922 21.7066 4.54918 21.5204 4.46664C21.4485 4.43467 21.3802 4.39537 21.3085 4.3541C21.2746 4.33459 21.24 4.31464 21.2038 4.29482L21.0601 4.45051L20.8651 4.66169C20.879 4.67366 20.8918 4.68496 20.904 4.69576C20.923 4.71256 20.9406 4.72813 20.9588 4.74301C21.0642 4.82862 21.1566 4.92522 21.2216 5.04507C21.4151 5.40582 21.2118 5.83384 20.8088 5.91272C20.6704 5.93962 20.5418 5.90599 20.4193 5.84301C20.3115 5.78737 20.2221 5.70788 20.145 5.61433C20.133 5.59985 20.1209 5.58554 20.1078 5.56997C20.0959 5.55595 20.0832 5.54092 20.069 5.52383C19.9824 5.61664 19.8979 5.70744 19.8124 5.79947L19.6422 5.98242L19.6587 5.99717L19.6588 5.99722C19.6816 6.01748 19.7025 6.03604 19.7218 6.05579C19.7446 6.07872 19.7683 6.10105 19.792 6.1234L19.792 6.12342L19.792 6.12343L19.792 6.12344C19.848 6.17618 19.9041 6.22901 19.9484 6.28998C20.1952 6.62811 20.0513 7.08792 19.6636 7.21571C19.4438 7.28787 19.2472 7.23039 19.0726 7.09037C19.0314 7.05805 18.995 7.01965 18.9587 6.98141C18.9449 6.96684 18.9311 6.95229 18.9171 6.93812C18.8974 6.91794 18.8784 6.89701 18.8563 6.87265L18.8375 6.8519L18.5047 7.21122L18.5047 7.21123L18.5046 7.21125L18.5046 7.21127C18.2927 7.44005 18.082 7.66762 17.8699 7.89626L17.9423 8.02569L17.9424 8.02594C17.9907 8.1124 18.0381 8.19721 18.0861 8.28147C18.2582 8.58597 18.4027 8.90209 18.4994 9.23839C18.7548 10.1219 18.6758 10.9822 18.3133 11.8212C18.0809 12.3568 17.7998 12.8675 17.5186 13.3785L17.5061 13.4011C17.2808 13.8108 17.0554 14.2211 16.8374 14.6357C16.688 14.9188 16.5716 15.2159 16.4914 15.5265C16.4834 15.5577 16.4724 15.5889 16.4601 15.6189C16.307 16.0041 15.9096 16.1282 15.5679 15.8922C15.5103 15.8522 15.4593 15.8024 15.4084 15.7527C15.3862 15.731 15.364 15.7094 15.3413 15.6886C15.3079 15.6579 15.2748 15.6269 15.2416 15.5959C15.1689 15.5279 15.0961 15.4597 15.0204 15.3951C14.9683 15.351 14.9071 15.3162 14.8465 15.2838C14.5519 15.1248 14.2586 15.1315 13.9793 15.3144C13.8556 15.3951 13.7405 15.4935 13.6351 15.5975C13.2561 15.9704 13.0142 16.4162 12.9486 16.9488C12.9223 17.1658 12.9174 17.3835 12.9566 17.6C13.0031 17.8562 13.1556 18.028 13.4043 18.0958C13.5034 18.1226 13.6065 18.134 13.7098 18.1455L13.7099 18.1455C13.7623 18.1513 13.8147 18.1571 13.8666 18.1649C13.884 18.1675 13.9016 18.17 13.9191 18.1724H13.9191C13.9879 18.1818 14.0571 18.1913 14.122 18.2132C14.4276 18.3154 14.5764 18.5905 14.4974 18.903C14.4778 18.98 14.449 19.0558 14.4129 19.1261C14.1006 19.7339 13.7662 20.3282 13.3485 20.8718C13.2414 21.0118 13.114 21.1176 12.9352 21.1519C12.4918 21.2356 12.1188 20.8174 12.2591 20.3888C12.2811 20.3209 12.3154 20.2549 12.3546 20.195C12.4858 19.9953 12.6186 19.7973 12.7514 19.5993L12.9107 19.3615C12.9239 19.3416 12.9369 19.3214 12.951 19.2997L12.9511 19.2994L12.9878 19.2429L12.9708 19.2357L12.9705 19.2356L12.9699 19.2353C12.9293 19.2182 12.8925 19.2027 12.8562 19.1867C12.3883 18.9837 12.0435 18.6596 11.8586 18.1778C11.7673 17.9411 11.7318 17.6941 11.7232 17.4428C11.6804 16.1808 12.1862 15.1762 13.1685 14.4009C13.5586 14.0933 14.0056 13.9404 14.5066 13.9643C14.8348 13.9796 15.1416 14.0762 15.4313 14.2284C15.4722 14.2499 15.5125 14.2727 15.5539 14.2961C15.5739 14.3075 15.5943 14.319 15.615 14.3305L15.6221 14.3205L15.6256 14.3156L15.6256 14.3156C15.6334 14.3046 15.6407 14.2945 15.6463 14.2835C15.8569 13.8434 16.1063 13.425 16.356 13.0063L16.3824 12.9621C16.642 12.5255 16.9005 12.0877 17.0995 11.6188C17.2336 11.3045 17.3451 10.9835 17.3953 10.6429C17.4682 10.1525 17.4002 9.68108 17.2054 9.22738C17.1676 9.13873 17.1243 9.05255 17.081 8.96644C17.0598 8.92428 17.0386 8.88213 17.018 8.83972L16.9856 8.82872C16.9789 8.83812 16.9726 8.84784 16.9662 8.85757C16.9527 8.8782 16.9392 8.8989 16.9225 8.91677C14.7895 11.2232 12.6559 13.5295 10.5217 15.8353C10.4482 15.9148 10.3716 15.9943 10.2865 16.0609C10.0471 16.2487 9.81191 16.2517 9.56512 16.075C9.50081 16.0285 9.43957 15.9759 9.38323 15.9197C8.96864 15.5076 8.55404 15.0949 8.1419 14.6797C8.06535 14.6026 7.99063 14.5219 7.92817 14.4333C7.7567 14.1936 7.76282 13.9551 7.94348 13.7209C8.00043 13.6469 8.06718 13.5778 8.13577 13.5143C9.54001 12.2131 10.9449 10.9125 12.3497 9.61198L12.3519 9.60994C13.263 8.76682 14.1742 7.9237 15.0847 7.07997C15.1022 7.06363 15.1192 7.04657 15.1382 7.02764L15.1382 7.02758L15.1382 7.02757C15.1497 7.01606 15.1619 7.00386 15.1753 6.9907L15.1712 6.98871C15.1298 6.96893 15.099 6.95419 15.0682 6.94117C15.0226 6.92218 14.977 6.90299 14.9315 6.88379L14.9314 6.88378L14.9314 6.88376L14.9313 6.88373C14.7994 6.82816 14.6675 6.77255 14.5341 6.72166C14.4227 6.67886 14.3082 6.64462 14.193 6.61344C14.0491 6.57553 13.9175 6.51805 13.817 6.40616C13.6553 6.22761 13.6192 6.02216 13.7025 5.79899C13.7846 5.57886 13.9499 5.45596 14.182 5.42294C14.31 5.40521 14.4349 5.42845 14.5599 5.45657C15.0394 5.56602 15.484 5.75741 15.8986 6.01972L16.0939 6.14262L16.5722 5.70089L16.5729 5.70023C16.7683 5.51987 16.9649 5.33827 17.1644 5.15391L17.1016 5.10384L17.0431 5.0573C16.9152 4.95457 16.8178 4.83045 16.7786 4.66842C16.7216 4.43056 16.7866 4.22817 16.9709 4.07042C17.1534 3.91511 17.361 3.88943 17.5833 3.9787C17.7113 4.03067 17.8086 4.123 17.8993 4.22328L17.9482 4.27776L17.9488 4.27847L17.949 4.27873L17.9497 4.27944C17.9722 4.30458 17.9957 4.33083 18.0218 4.35963C18.1743 4.21839 18.3225 4.08142 18.4749 3.94079C18.4551 3.92222 18.4358 3.90452 18.4172 3.88733L18.4168 3.88701C18.3729 3.84658 18.3321 3.80898 18.2931 3.76959C18.1632 3.63812 18.083 3.48526 18.0836 3.2951C18.0861 2.89032 18.4823 2.60844 18.8663 2.74052C18.9789 2.77904 19.0726 2.84569 19.1553 2.92945C19.195 2.97024 19.2338 3.01182 19.2755 3.0564C19.2976 3.07999 19.3204 3.10441 19.3446 3.13001C19.467 3.02235 19.584 2.91287 19.71 2.79496L19.7101 2.79489L19.712 2.7931C19.7026 2.78067 19.6931 2.7685 19.6838 2.75644L19.6837 2.75633C19.6645 2.73166 19.6458 2.70746 19.6281 2.68243C19.5197 2.52773 19.4578 2.36264 19.5074 2.17065C19.535 2.06181 19.5932 1.97131 19.671 1.89244L19.9524 1.60758C20.2339 1.32268 20.5153 1.03778 20.7978 0.753917C20.8669 0.684034 20.9374 0.615615 21.0079 0.54717L21.0079 0.547148C21.0885 0.468877 21.1692 0.390572 21.2479 0.310005C21.3808 0.174263 21.518 0.0476931 21.7096 0H21.8842C22.0305 0.0476931 22.1573 0.12229 22.2669 0.233574C22.7026 0.673667 23.1419 1.1106 23.5811 1.5473L23.6822 1.64786C23.8181 1.78299 23.9516 1.91873 24 2.11317V2.28743ZM22.4439 2.18165L21.6631 2.96125L21.6193 2.91782C21.4236 2.72348 21.2217 2.52306 21.0097 2.31311L21.7978 1.52618L22.059 1.79105C22.1905 1.92443 22.319 2.05472 22.4439 2.18165ZM17.3977 6.58898L17.413 6.60549C14.92 9.29953 12.4269 11.9936 9.93194 14.6888C9.72863 14.4785 9.53266 14.2755 9.32689 14.0621C12.0061 11.5809 14.7019 9.08492 17.3977 6.58898ZM2.43703 22.422L2.44571 22.4132C2.51651 22.3412 2.58631 22.2678 2.6583 22.1922L2.65889 22.1915L2.65909 22.1913L2.7366 22.1099L2.80206 22.1583L2.80211 22.1583L2.80228 22.1585C2.9063 22.2353 3.00733 22.3099 3.1071 22.3857C3.65091 22.7972 4.22902 23.15 4.85918 23.4148C5.57202 23.7138 6.31608 23.8801 7.08281 23.9626C7.7883 24.0385 8.48521 24.0061 9.1662 23.8031C9.51962 23.6983 9.86882 23.579 10.2181 23.4598L10.2181 23.4598L10.2182 23.4598L10.2184 23.4597L10.2186 23.4596C10.3297 23.4217 10.4408 23.3838 10.5521 23.3463C10.6127 23.3255 10.6703 23.2894 10.7217 23.2509C10.9213 23.0993 10.9924 22.8522 10.9115 22.6064C10.8283 22.3533 10.6256 22.2011 10.3696 22.1937C10.2036 22.1894 10.0566 22.2487 9.91027 22.3142C9.28255 22.5954 8.62116 22.7385 7.93772 22.7783C7.30082 22.8162 6.67556 22.7373 6.06377 22.5557C5.23152 22.3093 4.48378 21.8984 3.79422 21.378C2.84193 20.659 2.12726 19.7565 1.69184 18.6406C1.4677 18.0664 1.33236 17.4709 1.26255 16.8582C1.19886 16.3061 1.21233 15.757 1.32318 15.2122C1.52221 14.2284 1.98151 13.3797 2.67536 12.6594C3.28654 12.0253 3.98651 11.5013 4.73241 11.036C4.73721 11.033 4.74334 11.0319 4.75066 11.0305C4.7555 11.0295 4.76086 11.0285 4.76671 11.0268L4.78796 11.0745L4.788 11.0746L4.78809 11.0748C4.80625 11.1157 4.82413 11.156 4.84265 11.1956C5.11517 11.7746 5.55916 12.1348 6.19483 12.2473C6.5788 12.3145 6.96339 12.2968 7.34492 12.2314C8.34497 12.0602 9.11721 11.5337 9.68858 10.7058C9.91884 10.3726 10.0432 10.0026 10.0432 9.59297C10.0425 9.20164 9.92741 8.84333 9.74247 8.50337C9.72348 8.46974 9.7045 8.43611 9.68307 8.39758C9.71208 8.38074 9.73813 8.36538 9.76304 8.35069L9.82269 8.31565L10.2318 8.08126C10.6626 7.83452 11.0934 7.58782 11.5227 7.33794C11.6219 7.27986 11.7199 7.21198 11.8007 7.13066C11.99 6.93989 12.0133 6.64639 11.8706 6.41771C11.7309 6.19209 11.4639 6.08631 11.2086 6.16335C11.1161 6.19148 11.0254 6.23428 10.9409 6.28258C10.7445 6.39457 10.5489 6.50835 10.3533 6.62218L10.3532 6.62225C10.1878 6.71846 10.0224 6.81471 9.85637 6.90993C9.39217 7.17652 8.91328 7.40704 8.39212 7.54461C8.17288 7.60209 8.04244 7.75801 8.0057 7.98424C7.97324 8.18419 8.03387 8.35784 8.16431 8.50703C8.20361 8.5521 8.246 8.59425 8.28839 8.63639C8.32594 8.67372 8.36348 8.71104 8.39886 8.75039C8.41564 8.76921 8.43259 8.78794 8.44956 8.80669L8.44972 8.80687C8.52309 8.88794 8.59665 8.96922 8.65729 9.05856C8.89429 9.4077 8.89123 9.73482 8.64382 10.0791C8.54461 10.2166 8.43315 10.3493 8.30884 10.4649C7.79197 10.9467 7.17038 11.1295 6.47347 11.0647C6.16605 11.036 5.96457 10.8568 5.89353 10.556C5.86516 10.4365 5.85782 10.3112 5.85056 10.1875L5.84882 10.1579C5.84147 10.0326 5.82188 9.91276 5.7637 9.80086C5.66081 9.60397 5.4973 9.50003 5.27439 9.49147C5.14762 9.48658 5.0282 9.51531 4.91552 9.57034L4.91547 9.57037L4.91542 9.5704L4.91537 9.57042C4.74272 9.65478 4.57008 9.73913 4.40111 9.83143C3.4923 10.3279 2.68516 10.9608 1.94476 11.6805C1.35992 12.2485 0.892047 12.8985 0.561963 13.6457C0.34456 14.136 0.209832 14.6497 0.111235 15.1761C0.0242745 15.6384 -0.013082 16.1025 0.00406525 16.5714C0.00651485 16.6259 0.0665302 17.1505 0.0916386 17.3156C0.162677 17.7717 0.262499 18.2205 0.410087 18.6583C0.707102 19.5382 1.15905 20.3319 1.74206 21.0528C1.77432 21.0926 1.80615 21.1328 1.84072 21.1765L1.84077 21.1766C1.8646 21.2067 1.88973 21.2385 1.91721 21.2729C1.90708 21.2805 1.89711 21.2878 1.88737 21.2949L1.88732 21.2949C1.86291 21.3127 1.83996 21.3295 1.81983 21.3487C1.70593 21.4557 1.59263 21.5627 1.48118 21.6721C1.38932 21.7626 1.32012 21.8684 1.28215 21.9932C1.17191 22.3558 1.43708 22.7348 1.81555 22.752C1.98273 22.7599 2.1291 22.6982 2.25648 22.593C2.32008 22.54 2.37867 22.4809 2.43703 22.422ZM9.16583 20.5801L9.17811 20.5726C9.18889 20.5661 9.19973 20.5595 9.20992 20.552C9.52286 20.3202 10.082 20.4584 10.1426 20.9971C10.2002 21.5095 9.83029 22.0207 9.32873 22.1381C9.15971 22.1778 8.98823 22.1766 8.82227 22.1277C8.35685 21.9901 8.01574 21.7186 7.89204 21.2289C7.8308 20.9873 7.85774 20.7464 7.91347 20.5073C7.97961 20.2236 8.08249 19.9528 8.1964 19.6856C8.33381 19.3653 8.47322 19.0459 8.61267 18.7263C8.67769 18.5774 8.74273 18.4284 8.80758 18.2792C8.81675 18.2576 8.82548 18.2358 8.83483 18.2124L8.85473 18.163L8.8218 18.1629H8.82157C8.80345 18.1628 8.78776 18.1627 8.77206 18.163C8.34828 18.1802 8.05065 17.8316 8.13332 17.4152C8.22335 16.9652 8.58405 16.6558 9.04274 16.6356C9.61043 16.6112 10.0728 16.9628 10.183 17.5051C10.2412 17.7937 10.2124 18.0774 10.1059 18.3495C10.02 18.5686 9.92452 18.7836 9.82892 18.9988L9.78436 19.0992C9.68894 19.3148 9.5923 19.5302 9.49565 19.7455L9.49551 19.7458C9.41108 19.9339 9.32664 20.1221 9.24299 20.3105C9.21795 20.367 9.19786 20.4255 9.17774 20.4841L9.17772 20.4842C9.16784 20.5129 9.15795 20.5417 9.14746 20.5703L9.15664 20.5752L9.16583 20.5801ZM5.72886 15.1687C5.77352 15.1485 5.82117 15.1269 5.87534 15.1022C5.87279 15.1181 5.87076 15.1314 5.86899 15.143C5.86565 15.165 5.86323 15.1808 5.86003 15.1964C5.82512 15.3756 5.86615 15.5358 5.98741 15.6715C6.165 15.8708 6.39404 15.9283 6.64206 15.8611C7.02237 15.7577 7.24895 15.4869 7.35184 15.1181C7.48902 14.6272 7.15893 14.1307 6.85824 13.9509C6.73209 13.8751 6.59675 13.8274 6.45038 13.8072C6.22624 13.7766 6.00884 13.8145 5.79266 13.8653C5.55844 13.9201 5.34118 14.0199 5.1245 14.1195C5.08737 14.1365 5.05026 14.1536 5.01308 14.1704C4.92106 14.2121 4.82923 14.2543 4.73739 14.2964C4.35122 14.4737 3.96487 14.6511 3.56414 14.7953C3.53489 14.8059 3.50564 14.816 3.46579 14.8299C3.45725 14.8328 3.44822 14.836 3.43859 14.8393C3.45005 14.8182 3.4596 14.801 3.4679 14.7861C3.47958 14.7651 3.4888 14.7485 3.49739 14.7317C3.66763 14.3936 3.49187 13.9845 3.12933 13.8873C3.0436 13.8641 2.94929 13.8537 2.86049 13.8592C2.17889 13.9026 1.7202 14.5293 1.87207 15.1927C2.00374 15.7681 2.57633 16.2463 3.31428 16.1264C3.61313 16.0781 3.90096 15.9858 4.17776 15.8653C4.52279 15.7155 4.86534 15.56 5.20805 15.4045C5.34772 15.3412 5.48741 15.2778 5.62732 15.2148C5.66047 15.1997 5.69374 15.1846 5.72886 15.1687Z" fill="#0C1E3C"/>
</svg>
