<svg width="24" height="24" viewBox="0 0 24 24" fill="none" xmlns="http://www.w3.org/2000/svg">
<path fill-rule="evenodd" clip-rule="evenodd" d="M19.5554 9.0817V13.8781C21.1679 13.8929 22.4655 15.2109 22.4655 16.8363V17.4735C22.4655 19.1066 21.147 20.4327 19.514 20.4327H4.09629C2.46276 20.4327 1.14429 19.1066 1.14429 17.4735V16.8363C1.14429 15.2114 2.44233 13.8934 4.05493 13.8791V9.0817C4.05493 5.83557 6.06735 3.07302 8.90139 1.9154H8.87535C9.37016 0.793532 10.4946 0 11.8054 0C13.1147 0 14.2396 0.793532 14.7359 1.9154H14.7084C17.5429 3.07302 19.5554 5.83557 19.5554 9.0817ZM11.9004 21.695C11.4056 22.8169 10.2806 23.6104 8.97084 23.6104C7.66054 23.6104 6.53458 22.8174 6.03978 21.695H11.9004Z" fill="#87859A"/>
</svg>
