<svg width="24" height="24" viewBox="0 0 24 24" fill="none" xmlns="http://www.w3.org/2000/svg">
<path fill-rule="evenodd" clip-rule="evenodd" d="M13.2183 0.00785944L13.1982 0H10.8209C10.8143 0.00250263 10.8078 0.00523277 10.8013 0.00796292C10.7882 0.0134232 10.7752 0.0188835 10.7616 0.0225237C10.5848 0.0709837 10.4783 0.202031 10.4674 0.384268C10.453 0.630663 10.5841 0.803344 10.8305 0.827916C10.9709 0.841952 11.1126 0.842602 11.2545 0.843254C11.3127 0.843521 11.3709 0.843788 11.4291 0.844979C11.4571 0.845431 11.4851 0.845285 11.5139 0.845134L11.5588 0.844979V2.23599L11.5214 2.23807C11.4958 2.23957 11.4716 2.24098 11.4475 2.24145C11.3895 2.24145 11.3315 2.2413 11.2734 2.24114C11.1571 2.24084 11.0405 2.24054 10.924 2.24145C10.739 2.24349 10.5541 2.24691 10.3718 2.28854C9.36236 2.51856 8.68118 3.11646 8.34538 4.09931C8.32235 4.1669 8.30667 4.23744 8.29106 4.30768L8.29106 4.30769L8.29105 4.30769L8.29105 4.3077L8.29105 4.30771L8.29104 4.30772L8.29104 4.30773L8.29104 4.30774L8.29104 4.30775L8.29103 4.30775L8.29103 4.30776L8.29103 4.30777L8.29102 4.30778L8.29102 4.30779L8.29102 4.3078L8.29102 4.30781L8.29101 4.30781C8.28535 4.33328 8.2797 4.3587 8.27371 4.38393C8.25119 4.48426 8.18839 4.54023 8.08943 4.56002C8.07509 4.56275 8.06093 4.56599 8.04677 4.56923C8.03261 4.57248 8.01844 4.57572 8.00411 4.57845C7.48606 4.66991 6.99054 4.83303 6.52574 5.07738C4.83851 5.96468 3.76147 7.34681 3.2325 9.16714C3.05095 9.79302 3.00727 10.4387 2.99771 11.0864C2.99163 11.519 2.99316 11.9515 2.99469 12.3837V12.3838V12.3838V12.3838V12.3838V12.3839V12.3839V12.3839V12.384V12.384V12.384V12.384V12.3841V12.3841V12.3841V12.3841V12.3842L2.99566 12.689C2.99566 12.747 3.00385 12.8057 3.0175 12.8617C3.0646 13.0514 3.21885 13.1661 3.41884 13.1647C3.61541 13.1634 3.76488 13.0542 3.81266 12.8672C3.82972 12.801 3.83723 12.7307 3.83791 12.6624C3.83791 12.5687 3.83603 12.4749 3.83415 12.381C3.83122 12.235 3.8283 12.0889 3.83245 11.943C3.84679 11.4386 3.86317 10.9335 3.89252 10.4291C3.90685 10.1909 3.93688 9.95069 3.98671 9.71726C4.1041 9.17123 4.30613 8.65387 4.56345 8.15903C5.12313 7.08404 5.94353 6.28069 7.05812 5.78995C7.69765 5.50806 8.36244 5.32378 9.06818 5.32173C9.08459 5.32173 9.10074 5.32329 9.12142 5.32528C9.1343 5.32652 9.14893 5.32793 9.16647 5.32924C8.33241 6.1203 7.88671 7.07243 7.83825 8.21295L7.77302 8.21279H7.77289C7.7344 8.21264 7.69931 8.21251 7.66421 8.21295C7.60817 8.21398 7.55212 8.21439 7.4961 8.2148H7.49607H7.49603H7.49599H7.49595H7.49592H7.49588H7.49584H7.49581H7.49577H7.49573H7.49569H7.49566H7.49562H7.49558H7.49555H7.49551H7.4955H7.49549H7.49547H7.49546H7.49545H7.49544H7.49543H7.49542H7.49541H7.49539H7.49538H7.49537H7.49536H7.49535H7.49534H7.49533C7.36602 8.21574 7.23681 8.21667 7.10794 8.22524C6.90932 8.23752 6.76804 8.36925 6.73869 8.55081C6.69296 8.83611 6.86428 9.0436 7.15572 9.0511C7.28404 9.05474 7.41236 9.05474 7.54068 9.05474C7.60484 9.05474 7.66899 9.05474 7.73314 9.0552C7.75428 9.0552 7.77541 9.05706 7.79634 9.05889C7.8065 9.05979 7.81661 9.06067 7.82665 9.06134V9.70088L7.81263 9.70161L7.79727 9.70252C7.78179 9.70347 7.76839 9.70429 7.75498 9.70429C7.69998 9.7047 7.64497 9.70462 7.58998 9.70455H7.58997H7.58996H7.58996H7.58995H7.58994H7.58993H7.58992H7.58991H7.5899H7.5899H7.58989H7.58988H7.58987H7.58986H7.58985H7.58984C7.45929 9.70437 7.32883 9.70419 7.19872 9.71043C7.11408 9.71453 7.02535 9.73296 6.94686 9.7664C6.79397 9.83261 6.73186 9.9657 6.73186 10.1275C6.73118 10.2885 6.79056 10.4237 6.94345 10.4906C7.02399 10.5254 7.11681 10.5445 7.20554 10.5493C7.32852 10.5553 7.45149 10.5547 7.57468 10.5541C7.63336 10.5539 7.69209 10.5536 7.75089 10.554C7.77128 10.5545 7.79196 10.5568 7.81455 10.5592H7.81456C7.82599 10.5605 7.83792 10.5618 7.85054 10.5629V10.6906C7.85098 10.7526 7.85071 10.8147 7.85044 10.8768V10.8768C7.84987 11.0072 7.84931 11.1376 7.85532 11.268C7.86897 11.5656 8.13925 11.7444 8.41977 11.6461C8.59519 11.584 8.67641 11.4475 8.68528 11.2707C8.6919 11.1351 8.69262 10.9991 8.69335 10.8631V10.863V10.863V10.863V10.8629V10.8629V10.8629V10.8628V10.8628V10.8627V10.8627V10.8627V10.8626V10.8626V10.8626V10.8625C8.69367 10.8023 8.694 10.742 8.69484 10.6817V10.5595L8.72524 10.5577L8.72528 10.5577C8.75902 10.5557 8.78665 10.554 8.81428 10.554C8.8623 10.5538 8.91033 10.554 8.95835 10.5542C9.04479 10.5545 9.13122 10.5549 9.21766 10.5527C9.30093 10.5513 9.38488 10.5472 9.46678 10.5336C9.68315 10.4974 9.81078 10.3479 9.81351 10.137C9.81692 9.92202 9.69816 9.77323 9.48316 9.72818C9.4231 9.71589 9.36099 9.70975 9.29956 9.70839C9.18013 9.70692 9.06069 9.7072 8.94126 9.70748L8.7979 9.7077C8.78049 9.70728 8.76308 9.7058 8.74484 9.70425L8.74482 9.70424L8.74468 9.70423L8.74463 9.70423C8.73363 9.70329 8.72232 9.70233 8.71053 9.70156V9.0552H8.83339C8.893 9.05478 8.95268 9.05481 9.01238 9.05484C9.14886 9.0549 9.28546 9.05496 9.42174 9.04974C9.6381 9.04155 9.79508 8.88252 9.81283 8.6682C9.83057 8.4573 9.70567 8.28325 9.4975 8.23274C9.45586 8.22251 9.4115 8.21978 9.36782 8.21841C9.26147 8.21677 9.15488 8.21587 9.04819 8.21497H9.04814H9.0481H9.04805H9.04801H9.04796H9.04791H9.04787H9.04782H9.04777H9.04772H9.04767H9.04762H9.04756H9.04751H9.04746H9.04741L9.04705 8.21496L9.04669 8.21496L9.04635 8.21496L9.04601 8.21496L9.04567 8.21495C8.97517 8.21436 8.90462 8.21376 8.83407 8.21295C8.80835 8.21249 8.78231 8.2111 8.75451 8.20962L8.75441 8.20962L8.71258 8.20749C8.71463 7.98771 8.73238 7.78227 8.7822 7.58092C8.9815 6.77758 9.44767 6.1708 10.1466 5.73944C10.5268 5.50397 10.9438 5.37633 11.3902 5.34767C11.4335 5.34487 11.4769 5.34558 11.5216 5.3463H11.5216H11.5216H11.5216H11.5216H11.5216H11.5217H11.5217H11.5217H11.5218H11.5218C11.5424 5.34664 11.5634 5.34698 11.5847 5.34698V5.49373L11.5846 6.06886V6.06893V6.06899V6.06906V6.06912V6.06918V6.06925V6.06931V6.06938V6.06944V6.06951V6.06957V6.06964V6.0697V6.06976V6.06983V6.06989C11.5845 6.64478 11.5844 7.21948 11.5854 7.79456C11.5854 7.86622 11.5915 7.94062 11.6086 8.01024C11.6536 8.19384 11.799 8.30441 11.9888 8.30919C12.1915 8.31465 12.3382 8.21909 12.3935 8.03071C12.4181 7.94813 12.4269 7.8594 12.4276 7.77272C12.4293 7.15629 12.4292 6.53987 12.429 5.92345L12.429 5.46097C12.429 5.43476 12.4306 5.40829 12.4323 5.38036L12.4323 5.3803C12.4333 5.36387 12.4344 5.34693 12.4351 5.32924C12.6181 5.31968 12.7866 5.34084 12.9532 5.37565C13.5975 5.50943 14.1326 5.83431 14.5721 6.31823C14.9107 6.69158 15.1441 7.12226 15.2376 7.62119C15.2956 7.92913 15.302 8.24141 15.3084 8.5533V8.55332L15.3093 8.59858C15.3131 8.77979 15.3136 8.96082 15.314 9.14185V9.14202C15.3144 9.31346 15.3148 9.48491 15.3182 9.65651C15.3195 9.74593 15.3345 9.83807 15.3625 9.9227C15.4178 10.0899 15.5591 10.178 15.7413 10.1766C15.9263 10.1752 16.0635 10.0872 16.1195 9.91997C16.1454 9.84216 16.1584 9.75685 16.1597 9.67494C16.1638 9.21355 16.1645 8.75147 16.1618 8.29008C16.1604 8.13036 16.1543 7.96997 16.1365 7.81162C16.0601 7.14274 15.8185 6.53801 15.4103 6.00358C15.3022 5.86197 15.184 5.72798 15.0658 5.59403L15.0657 5.59402L15.0657 5.59401L15.0657 5.594L15.0657 5.59399L15.0657 5.59398L15.0657 5.59397L15.0657 5.59396L15.0657 5.59395L15.0657 5.59394L15.0657 5.59393L15.0657 5.59392L15.0656 5.59391L15.0656 5.5939L15.0656 5.59389L15.0656 5.59388L15.0656 5.59387C15.0107 5.53162 14.9557 5.46937 14.9018 5.40636C14.8886 5.39086 14.8763 5.37474 14.861 5.35476L14.8356 5.32173C14.852 5.32173 14.8656 5.32144 14.8776 5.32119C14.8977 5.32077 14.9131 5.32045 14.9284 5.32173C15.0131 5.3286 15.098 5.33452 15.1828 5.34043L15.1828 5.34044C15.3844 5.35449 15.5859 5.36855 15.7857 5.39544C16.215 5.45414 16.6293 5.57973 17.0245 5.75651C18.6906 6.50047 19.7035 7.77067 20.0734 9.5555C20.1338 9.84694 20.154 10.143 20.1741 10.4391V10.4392L20.1741 10.4392L20.1751 10.4537C20.1812 10.5356 20.1962 10.6209 20.2276 10.696C20.2952 10.8591 20.431 10.9281 20.6024 10.9233C20.773 10.9192 20.9081 10.8482 20.9661 10.6803C20.9948 10.5964 21.0091 10.5035 21.0112 10.4141C21.018 10.006 20.9743 9.60191 20.8842 9.20331C20.7682 8.68595 20.5682 8.19998 20.328 7.7304C20.0277 7.14342 19.6482 6.61377 19.1745 6.15374C18.4503 5.44936 17.5876 4.98797 16.6211 4.71496C16.427 4.66012 16.2291 4.61629 16.0317 4.57257L15.9017 4.54364C15.8041 4.5218 15.7516 4.4631 15.7304 4.36959L15.714 4.2952C15.4676 3.11509 14.3783 2.2667 13.2235 2.24486C13.0809 2.24223 12.9383 2.24213 12.7959 2.24204C12.7167 2.24199 12.6377 2.24193 12.5587 2.24145C12.5323 2.24098 12.506 2.23921 12.4803 2.23748L12.4803 2.23748L12.4802 2.23748L12.4461 2.2353C12.4249 2.00324 12.4338 0.929614 12.459 0.844979C12.5115 0.844979 12.5641 0.845162 12.6169 0.845346L12.617 0.845346H12.617C12.7407 0.845777 12.8652 0.84621 12.99 0.844297C13.0658 0.842932 13.1429 0.839519 13.2173 0.825868C13.4043 0.793789 13.5326 0.644996 13.5456 0.456616C13.5593 0.248443 13.4542 0.086682 13.2671 0.0259364C13.2507 0.0206153 13.2346 0.0142656 13.2183 0.00785944ZM14.8623 4.43253C14.8636 4.44088 14.865 4.45042 14.867 4.46174H9.13985C9.1447 4.44231 9.14879 4.42385 9.15273 4.40609C9.1593 4.37642 9.16544 4.34871 9.17398 4.32182C9.38761 3.66658 9.83057 3.26798 10.509 3.1383C10.6291 3.11509 10.7534 3.10622 10.8762 3.10008C11.4461 3.07482 12.0161 3.05844 12.5867 3.0912C12.8658 3.1069 13.145 3.12192 13.4241 3.13625C13.7845 3.15468 14.0896 3.30006 14.3496 3.54509C14.5988 3.77988 14.7598 4.06859 14.8554 4.39621C14.8585 4.40668 14.8601 4.41771 14.8623 4.4325L14.8623 4.43251L14.8623 4.43253ZM19.086 19.145L19.0253 19.1452H19.0252C18.9322 19.1457 18.8444 19.1461 18.757 19.1442C18.6918 19.1431 18.6269 19.1387 18.5618 19.1342L18.4956 19.1298C18.4151 19.1251 18.3509 19.0862 18.2943 19.0329C18.2813 19.0208 18.2697 19.0071 18.258 18.9935L18.2507 18.985L18.242 18.9751L18.2356 18.9681C18.009 18.7326 17.5865 18.6759 17.3613 19.0438C17.2664 19.1974 17.205 19.3612 17.1674 19.5373C17.1497 19.6219 17.1258 19.7066 17.093 19.7871C17.0432 19.9093 16.9449 19.9734 16.8139 19.9789C16.764 19.9814 16.7139 19.9805 16.6639 19.9796C16.6194 19.9788 16.5749 19.978 16.5306 19.9796L16.5113 19.9802H16.5113C16.4348 19.9826 16.3565 19.9851 16.2829 20.0021C16.0194 20.0642 15.8256 20.282 15.7942 20.5406C15.7607 20.8171 15.8945 21.071 16.1409 21.2013C16.2603 21.2634 16.388 21.2826 16.5204 21.2832L16.7661 21.2843C17.0111 21.2855 17.2562 21.2866 17.5012 21.2866H17.5019H17.5025H17.5032H17.5039H17.5046H17.5053H17.5059H17.5066H17.5073H17.508H17.5087H17.5094H17.51H17.5107H17.5114H17.5121C18.1487 21.2873 18.7846 21.288 19.4205 21.2866L19.4232 21.2866C20.3014 21.2846 21.1803 21.2825 22.0585 21.2771C22.1561 21.2764 22.2557 21.2669 22.3499 21.2443C22.9103 21.1078 23.2584 20.542 23.1239 19.9803C23.0359 19.6124 22.7997 19.3721 22.4516 19.2363L22.4061 19.2191L22.4061 19.219L22.4061 19.219L22.406 19.219L22.406 19.219L22.406 19.219L22.406 19.219L22.4059 19.219L22.4059 19.219L22.4059 19.219L22.4058 19.2189L22.4058 19.2189L22.4058 19.2189L22.4058 19.2189L22.4057 19.2189L22.4057 19.2189C22.3463 19.1965 22.2869 19.1742 22.2305 19.1448C22.1117 19.0834 22.0387 18.9845 22.01 18.8507C21.8981 18.3176 21.5991 17.9108 21.148 17.616C20.6948 17.3191 20.1938 17.2181 19.6594 17.3006C19.3154 17.3532 18.9905 17.4651 18.7072 17.6767C18.5734 17.7764 18.4526 17.8897 18.3509 18.033C18.8253 18.2466 19.1243 18.5831 19.1529 19.1448L19.086 19.145ZM23.9955 20.5693L23.9881 20.5838L23.9811 20.597C23.9712 20.6153 23.9614 20.6337 23.9546 20.6533C23.872 20.8826 23.7723 21.1037 23.642 21.3105C23.3683 21.7426 22.9724 21.9842 22.4748 22.0722C22.2598 22.1112 22.0421 22.1241 21.8244 22.1241C21.1793 22.1244 20.5343 22.1243 19.8894 22.1241C18.7608 22.1239 17.6324 22.1237 16.504 22.1255C16.0815 22.1262 15.7075 22.0013 15.4051 21.705C14.9881 21.2976 14.8454 20.7986 14.9956 20.2383C15.1458 19.6772 15.5198 19.3223 16.0849 19.1749C16.0988 19.1713 16.1127 19.168 16.1266 19.1647C16.1552 19.158 16.1836 19.1513 16.2112 19.1421C16.3095 19.1107 16.3825 19.05 16.4276 18.9558L16.4326 18.9449L16.4326 18.9448C16.4432 18.922 16.4536 18.8995 16.463 18.8759C16.6057 18.5115 16.8562 18.2425 17.2009 18.0644C17.3258 17.9996 17.4131 17.9136 17.4841 17.7921C17.9141 17.0631 18.5509 16.6283 19.3857 16.4912C19.538 16.4662 19.6925 16.4549 19.8471 16.4436L19.8472 16.4436C19.9171 16.4385 19.9869 16.4334 20.0566 16.427C20.081 16.4251 20.1053 16.4242 20.1335 16.4232L20.1747 16.4215V16.0147L20.1746 15.7665V15.7664V15.7664V15.7663V15.7663V15.7662V15.7661V15.7661V15.766V15.7659V15.7659V15.7658V15.7658V15.7657V15.7656V15.7656C20.1745 15.5178 20.1743 15.2703 20.1754 15.0223C20.176 14.9725 20.1808 14.9206 20.1938 14.8722C20.2498 14.6626 20.4136 14.5466 20.6211 14.5637C20.8381 14.5814 20.9835 14.7213 21.0067 14.937C21.0108 14.9732 21.0128 15.01 21.0128 15.0462C21.0126 15.1712 21.0131 15.2962 21.0135 15.4212V15.4213V15.4213V15.4214V15.4214V15.4215V15.4216C21.0146 15.7287 21.0156 16.0361 21.0074 16.343C21.0019 16.5239 21.0551 16.6236 21.2299 16.6993C21.9104 16.9942 22.3861 17.4999 22.6864 18.175C22.6959 18.1967 22.7051 18.2186 22.7142 18.2404L22.7143 18.2406C22.7261 18.2688 22.7379 18.2971 22.7506 18.3251C22.7861 18.4029 22.8386 18.4616 22.9192 18.5019C23.4529 18.7688 23.7996 19.1892 23.9505 19.7694C23.9557 19.7893 23.9678 19.8072 23.98 19.8252L23.9897 19.8399L23.9955 19.8492V20.5693ZM3.38782 19.2785C3.39106 19.2758 3.39463 19.2728 3.3985 19.2693L3.45466 19.3728L3.45474 19.373L3.45491 19.3733L3.45517 19.3738C3.49931 19.455 3.54292 19.5352 3.58551 19.6161L3.64317 19.7242C3.71632 19.8612 3.78935 19.998 3.85852 20.1368C3.97183 20.3634 4.14587 20.4849 4.40387 20.5081C4.62149 20.5281 4.83815 20.5599 5.0597 20.5923L5.06022 20.5924L5.06084 20.5925L5.06107 20.5925L5.06136 20.5925L5.0617 20.5926C5.16469 20.6077 5.26874 20.6229 5.37444 20.6371C5.3662 20.6473 5.35978 20.6557 5.35436 20.6627C5.34451 20.6756 5.338 20.684 5.33007 20.6911C5.27792 20.7377 5.22591 20.7844 5.17392 20.8312L5.17366 20.8314L5.17355 20.8315C5.0338 20.9572 4.89415 21.0827 4.75196 21.205C4.61 21.3265 4.49738 21.4623 4.46325 21.6521C4.44414 21.7626 4.46257 21.8684 4.48441 21.9756C4.53492 22.2322 4.58406 22.4882 4.6332 22.7448C4.63502 22.7539 4.63563 22.763 4.63644 22.7752L4.63798 22.796C4.62705 22.7924 4.61699 22.7894 4.6076 22.7867C4.59061 22.7817 4.57585 22.7773 4.56222 22.7708C4.4882 22.735 4.41409 22.6995 4.33999 22.6639L4.33986 22.6639C4.12974 22.5631 3.91964 22.4624 3.71178 22.3565C3.49746 22.2472 3.29134 22.2459 3.07702 22.3558C2.88178 22.4558 2.68417 22.5518 2.48658 22.6477C2.40372 22.6879 2.32086 22.7282 2.23819 22.7687C2.22078 22.7769 2.20277 22.7837 2.18001 22.7921L2.17997 22.7921C2.16882 22.7963 2.15654 22.8009 2.14263 22.8062C2.14791 22.7732 2.15284 22.7413 2.15764 22.7103C2.16773 22.645 2.17726 22.5833 2.18836 22.5223C2.19979 22.4606 2.21103 22.3989 2.22227 22.3371L2.22228 22.3371C2.25331 22.1666 2.28433 21.9962 2.31941 21.8268C2.36241 21.6214 2.3003 21.4569 2.14741 21.319C2.01646 21.2015 1.88649 21.0828 1.75662 20.9642C1.6692 20.8844 1.58182 20.8046 1.49422 20.7252C1.47781 20.7102 1.45948 20.6974 1.4412 20.6847L1.44118 20.6847L1.44116 20.6847L1.44109 20.6847L1.44102 20.6846L1.44096 20.6846C1.4327 20.6788 1.42446 20.6731 1.41641 20.6672L1.4287 20.6419C1.46224 20.6363 1.4957 20.6301 1.52916 20.624L1.52956 20.624C1.59675 20.6117 1.66395 20.5994 1.73174 20.5907C1.82845 20.5789 1.92533 20.5685 2.02212 20.5581L2.0222 20.5581L2.0223 20.5581L2.02239 20.5581L2.02249 20.5581L2.0226 20.5581L2.02271 20.5581L2.02281 20.5581L2.02292 20.5581L2.02303 20.558L2.02316 20.558C2.12071 20.5476 2.21818 20.5372 2.31531 20.5252C2.6518 20.4843 2.88659 20.3075 3.00945 19.9908C3.08865 19.7862 3.19733 19.5974 3.30613 19.4084C3.32766 19.3709 3.3492 19.3335 3.37051 19.296C3.37434 19.2897 3.38019 19.2849 3.38781 19.2785L3.38782 19.2785ZM3.841 17.2484L3.84078 16.9337H3.83873L3.83895 16.6126V16.6125C3.83923 16.3451 3.83951 16.0779 3.83805 15.8103C3.83737 15.7454 3.83191 15.6792 3.81689 15.6164C3.76843 15.4117 3.59438 15.3045 3.40805 15.3113C3.20739 15.3188 3.05859 15.4294 3.01491 15.6219C3.00262 15.6744 2.99512 15.7297 2.99512 15.7836L2.9949 15.8424C2.99288 16.39 2.99086 16.9369 3.02447 17.4838C3.0388 17.7132 3.02174 17.9418 2.96782 18.1657C2.91799 18.3725 2.82926 18.5636 2.7262 18.7479C2.62836 18.9231 2.52871 19.0977 2.42905 19.2723C2.37923 19.3595 2.32941 19.4468 2.27982 19.5342C2.22385 19.6338 2.14058 19.6864 2.0266 19.6993C1.83549 19.7212 1.64506 19.7451 1.45395 19.7703C1.14476 19.8113 0.835575 19.8522 0.526386 19.8966C0.437656 19.9096 0.347562 19.9287 0.262245 19.956C0.0636267 20.0208 -0.0947216 20.3143 0.0663568 20.5511C0.114817 20.6221 0.176245 20.687 0.239721 20.745C0.598052 21.0699 0.957066 21.3934 1.31881 21.7142C1.40822 21.794 1.44713 21.878 1.42119 22.0022C1.38313 22.1805 1.35107 22.3603 1.31899 22.5401L1.31898 22.5402L1.31898 22.5402L1.31897 22.5403L1.31897 22.5403L1.31896 22.5403L1.31895 22.5403L1.31895 22.5404L1.31894 22.5404L1.31894 22.5404L1.31893 22.5405L1.31893 22.5405L1.31892 22.5405L1.31891 22.5405L1.31891 22.5406C1.30384 22.6251 1.28878 22.7096 1.27308 22.794C1.25838 22.8735 1.24295 22.9528 1.22752 23.0321L1.22751 23.0321C1.20069 23.17 1.17387 23.3078 1.15091 23.4465C1.11541 23.6594 1.19459 23.8307 1.3584 23.9666L1.36632 23.9732C1.37813 23.9832 1.39124 23.9944 1.40344 23.9939C1.43616 23.9933 1.46898 23.9952 1.50178 23.9971C1.59081 24.0021 1.67977 24.0072 1.76655 23.9638C1.99747 23.8484 2.22899 23.7341 2.46047 23.6198L2.46055 23.6198L2.46067 23.6197L2.46078 23.6197L2.4609 23.6196L2.46101 23.6196L2.46112 23.6195C2.72752 23.488 2.99388 23.3565 3.25926 23.2233C3.35208 23.1762 3.43126 23.1734 3.52545 23.2212C3.75607 23.337 3.98744 23.451 4.21872 23.565L4.21908 23.5651L4.21951 23.5654L4.21961 23.5654C4.48291 23.6951 4.74609 23.8248 5.00791 23.957C5.10089 24.0037 5.19426 23.9998 5.28801 23.9959C5.31882 23.9946 5.34968 23.9933 5.38058 23.9939C5.39773 23.9939 5.41633 23.9766 5.43274 23.9614L5.44201 23.9529C5.63039 23.7905 5.66588 23.5837 5.62151 23.3495C5.5362 22.8998 5.45566 22.45 5.37512 21.9995C5.35533 21.8923 5.38877 21.7988 5.46794 21.7231C5.51777 21.6753 5.56759 21.6275 5.61947 21.5811C5.71096 21.4985 5.80264 21.416 5.89436 21.3334C6.10506 21.1437 6.31595 20.9539 6.52519 20.7627C6.59208 20.7013 6.65965 20.6378 6.70948 20.5634C6.85759 20.3443 6.76749 20.0563 6.52246 19.9573C6.44943 19.9273 6.36957 19.9082 6.29176 19.898C5.78805 19.8304 5.28434 19.7635 4.77995 19.7028C4.64412 19.6864 4.5513 19.6263 4.4885 19.5062C4.30832 19.1581 4.12676 18.8107 3.94316 18.464C3.87149 18.3288 3.83873 18.1875 3.8401 18.0353C3.84156 17.773 3.84128 17.5107 3.841 17.2484ZM17.8646 15.0733L17.8646 15.0733C17.8626 15.0684 17.8617 15.0662 17.86 15.0657L17.8414 15.0585C17.8141 15.0478 17.7868 15.0371 17.759 15.0282C17.3993 14.9088 17.0546 14.7586 16.7447 14.5368C16.1926 14.1416 15.9148 13.5997 15.882 12.9267C15.869 12.6462 15.8888 12.3677 15.9414 12.0919C15.951 12.0411 15.9604 11.9901 15.9699 11.9386L15.97 11.9385L15.97 11.9383C15.9822 11.8724 15.9946 11.8055 16.0076 11.737C15.8622 11.7275 15.7339 11.765 15.609 11.8135C15.235 11.9568 14.9415 12.2052 14.7019 12.5206C14.3845 12.9396 14.2446 13.4113 14.319 13.9334C14.4043 14.5361 14.719 15.0009 15.2268 15.3313C15.7161 15.6493 16.2567 15.7319 16.8246 15.6322C17.1884 15.5688 17.516 15.4173 17.7917 15.1647C17.8107 15.1472 17.829 15.1284 17.8463 15.1106L17.8702 15.0862C17.8676 15.0807 17.8659 15.0765 17.8646 15.0733ZM16.5629 10.8619C16.5159 10.8623 16.4689 10.8627 16.4219 10.8627L16.4218 10.8608C16.4211 10.8513 16.4205 10.8423 16.4205 10.8333C16.3542 10.8395 16.2875 10.8441 16.2209 10.8487L16.2207 10.8487C16.0734 10.8588 15.9261 10.8689 15.7824 10.8961C15.1039 11.0245 14.5401 11.3596 14.1033 11.8926C13.5034 12.625 13.2891 13.455 13.5382 14.3805C13.8917 15.6971 15.0247 16.4124 16.2028 16.5291C16.643 16.5728 17.0723 16.5004 17.4832 16.3346C18.1671 16.0575 18.7009 15.6077 19.0476 14.9497C19.0865 14.8767 19.1179 14.7975 19.137 14.717C19.1868 14.5108 19.0606 14.2986 18.8544 14.244C18.7794 14.2249 18.6954 14.2194 18.6183 14.2283C18.4545 14.2481 18.2927 14.2453 18.1296 14.2269C17.6737 14.1764 17.2996 13.9751 17.0136 13.6181C16.7324 13.2673 16.6273 12.8673 16.7079 12.423C16.7618 12.1295 16.8983 11.8769 17.088 11.6497C17.1304 11.5998 17.1713 11.5486 17.2061 11.494C17.3733 11.2347 17.1754 10.8736 16.8683 10.8634C16.7665 10.8601 16.6647 10.861 16.5629 10.8619ZM8.26846 13.1656C7.48081 13.169 6.82626 13.8256 6.82694 14.6119C6.82831 15.4002 7.49241 16.0588 8.28347 16.0547C9.05815 16.0513 9.71611 15.3852 9.71407 14.6071C9.71202 13.8201 9.05201 13.1622 8.26846 13.1656ZM8.69449 16.914L8.69436 16.8847C8.7475 16.8654 8.79953 16.8474 8.85054 16.8297L8.85062 16.8297C8.96402 16.7904 9.07242 16.7529 9.17691 16.7072C10.2314 16.2472 10.744 15.1497 10.5038 14.0959C10.2464 12.9635 9.10797 12.0701 7.74222 12.3868C6.15533 12.754 5.49804 14.5948 6.3635 15.88C6.69248 16.368 7.15661 16.6677 7.71287 16.8369L7.73253 16.843C7.77029 16.8546 7.80829 16.8663 7.85074 16.8786V17.0048C7.85093 17.088 7.85091 17.1712 7.8509 17.2545C7.85087 17.4834 7.85083 17.7127 7.85484 17.9419C7.85552 18.0129 7.87054 18.0873 7.89716 18.1535C7.96541 18.3208 8.09987 18.3897 8.27733 18.3883C8.45206 18.3876 8.58106 18.3139 8.64522 18.1515C8.67388 18.0791 8.68548 17.9966 8.68685 17.9181C8.69221 17.6757 8.69294 17.4329 8.69367 17.1903L8.69436 16.9919C8.69483 16.9645 8.69465 16.9375 8.69449 16.914ZM11.5846 15.8894L11.5845 15.0443V15.0443V15.0442V15.0441V15.0441V15.044V15.0439V15.0439V15.0438V15.0438C11.5843 14.199 11.5842 13.3545 11.5852 12.5095C11.5852 12.4338 11.5907 12.3566 11.605 12.2829C11.6501 12.0556 11.7893 11.9471 12.02 11.9519C12.233 11.9553 12.3763 12.0816 12.4111 12.3013C12.422 12.3689 12.4282 12.4385 12.4282 12.5075C12.4285 12.9578 12.4285 13.4083 12.4285 13.8588C12.4285 14.3096 12.4285 14.7604 12.4289 15.211C12.4294 15.7531 12.4302 16.2951 12.4309 16.8371C12.4321 17.6503 12.4332 18.4635 12.4336 19.2769C12.4336 19.3669 12.4309 19.4605 12.4091 19.5465C12.3708 19.698 12.2787 19.8133 12.1272 19.8693C11.9879 19.9205 11.8446 19.8816 11.7415 19.7655C11.6412 19.6522 11.5927 19.5178 11.5907 19.3669C11.5873 19.1089 11.5852 18.851 11.5846 18.593C11.5841 17.9923 11.5843 17.3913 11.5844 16.7905L11.5846 15.8894ZM2.99437 14.231C2.99027 14.4658 3.17592 14.6549 3.4114 14.6569C3.64892 14.659 3.83593 14.4781 3.83866 14.2419C3.84139 14.0058 3.65847 13.8181 3.42232 13.814C3.18821 13.8106 2.99778 13.9955 2.99437 14.231ZM11.5847 10.8775C11.584 10.64 11.7669 10.4543 12.0031 10.453C12.2358 10.4509 12.4269 10.6407 12.4283 10.8741C12.4297 11.1089 12.2427 11.2959 12.0065 11.2966C11.769 11.2979 11.5854 11.115 11.5847 10.8775ZM8.27665 19.8872C8.51417 19.8824 8.69094 19.6988 8.6889 19.4585C8.68685 19.219 8.5053 19.0408 8.26504 19.0436C8.02616 19.0456 7.85074 19.2272 7.85211 19.4695C7.85416 19.7056 8.04254 19.8913 8.27665 19.8872ZM12.0142 8.96367C12.2504 8.96708 12.4353 9.15819 12.4285 9.39162C12.4203 9.62846 12.2333 9.8066 11.9958 9.80114C11.7555 9.79637 11.5808 9.61481 11.5849 9.37319C11.5883 9.13499 11.7719 8.96026 12.0142 8.96367ZM12.0079 22.0319C11.7683 22.0305 11.5861 22.2101 11.5847 22.4483C11.5833 22.6858 11.7662 22.8769 12.0017 22.8735C12.2392 22.8701 12.4187 22.7097 12.4269 22.4544C12.4351 22.2203 12.2447 22.0326 12.0079 22.0319ZM12.0038 21.376C11.7635 21.3753 11.5847 21.1965 11.5847 20.9562C11.5847 20.718 11.7669 20.5372 12.0065 20.5378C12.2427 20.5378 12.429 20.7242 12.4283 20.959C12.4269 21.1958 12.2427 21.3767 12.0038 21.376ZM20.1745 11.994C20.1738 12.2363 20.3485 12.4124 20.5908 12.4138C20.8331 12.4151 21.0113 12.2397 21.0119 11.9988C21.0133 11.7572 20.8365 11.5783 20.5956 11.5776C20.3526 11.577 20.1758 11.7517 20.1745 11.994ZM21.0122 13.4842C21.0143 13.7238 20.8354 13.9088 20.5986 13.9129C20.3638 13.9163 20.1768 13.732 20.1747 13.4952C20.1727 13.2529 20.3488 13.0713 20.5877 13.0679C20.8259 13.0652 21.0102 13.2454 21.0122 13.4842ZM7.85225 20.9576C7.85156 21.1985 8.02902 21.376 8.27064 21.376C8.51362 21.376 8.68903 21.2006 8.68903 20.9583C8.68903 20.7167 8.51089 20.5378 8.27132 20.5378C8.03175 20.5372 7.85225 20.7173 7.85225 20.9576Z" fill="#0C1E3C"/>
</svg>
