<svg width="24" height="24" viewBox="0 0 24 24" fill="none" xmlns="http://www.w3.org/2000/svg">
<path fill-rule="evenodd" clip-rule="evenodd" d="M16.2768 5.97931L16.2767 5.97932L16.2767 5.97932C16.1756 5.99728 16.0739 6.01535 15.9714 6.03386C15.9676 5.98177 15.9636 5.92983 15.9597 5.87803C15.9139 5.27837 15.8696 4.69776 16.1259 4.13715C16.3492 3.64806 16.6721 3.23976 17.1506 2.9949C17.5855 2.77243 18.0312 2.57098 18.4914 2.36299L18.4915 2.36298C18.6933 2.27176 18.898 2.17927 19.1057 2.08321C19.1057 2.16231 19.1067 2.23761 19.1077 2.31027C19.1099 2.46142 19.1118 2.60118 19.1038 2.7401C19.0962 2.86812 19.0934 2.99764 19.0907 3.12726C19.0837 3.45445 19.0768 3.78225 18.9912 4.08805C18.714 5.07991 18.0065 5.65103 16.9936 5.84804C16.7568 5.89404 16.5187 5.93634 16.2769 5.97929L16.2768 5.97931ZM13.9646 7.83108L13.9646 7.83113L13.9645 7.83118C13.8179 8.00195 13.6706 8.17347 13.5221 8.3457L13.7089 8.50585L13.7093 8.50613L13.7118 8.50831C13.8288 8.60856 13.9445 8.70775 14.0627 8.80931L14.4497 8.36062C14.8684 7.87507 15.2795 7.39828 15.6942 6.92441C15.7524 6.85792 15.8387 6.79266 15.922 6.77526C16.2535 6.70387 16.5872 6.64384 16.9209 6.58381L16.921 6.58381L17.1137 6.54905C18.7416 6.25261 19.8107 4.98234 19.812 3.34043C19.8124 2.88138 19.8123 2.42232 19.8121 1.96327L19.812 1.27469V1C19.7908 1.00819 19.7731 1.01491 19.7577 1.02075C19.7251 1.03306 19.7029 1.04146 19.6812 1.05158C19.4223 1.16817 19.1628 1.28349 18.9032 1.3988C18.276 1.67748 17.6487 1.95616 17.0305 2.25287C16.0264 2.73513 15.4115 3.53868 15.2588 4.63867C15.2074 5.00904 15.2235 5.39008 15.2395 5.76926L15.2395 5.76933L15.2395 5.7694C15.2439 5.87436 15.2483 5.97917 15.2513 6.08357C15.2563 6.25634 15.2194 6.38498 15.103 6.51735C14.7211 6.95016 14.345 7.38815 13.9646 7.83108ZM23.0001 23H1C1.09009 22.0597 1.259 21.1748 1.74009 20.3631C2.18367 19.6148 2.85893 19.1135 3.54339 18.6052L3.5434 18.6052L3.54366 18.605C3.60434 18.56 3.66509 18.5149 3.72577 18.4695C3.64463 18.3795 3.56508 18.2933 3.48738 18.2092L3.48706 18.2088L3.48694 18.2087C3.32515 18.0335 3.1714 17.867 3.02821 17.6921C1.71882 16.0968 1.05193 14.2691 1.04692 12.2083C1.04379 10.8821 1.04504 9.55588 1.04692 8.22967C1.05005 5.72828 2.88495 3.66129 5.38675 3.33813C5.39557 3.33688 5.40429 3.33502 5.41298 3.33317C5.42588 3.33043 5.43874 3.32769 5.45181 3.32695C5.53576 3.32389 5.62161 3.32648 5.70741 3.32907C5.90036 3.33489 6.09303 3.34071 6.26322 3.2822C6.39198 3.23823 6.50187 3.14374 6.61254 3.04858C6.70835 2.96619 6.80475 2.8833 6.91448 2.83226C7.17411 2.7117 7.46939 2.61413 7.75217 2.60605C8.5017 2.5845 9.25163 2.58881 10.0016 2.59313C10.2031 2.59429 10.4047 2.59545 10.6062 2.59611C11.7429 2.59983 12.7113 3.34062 12.9991 4.42072C13.2907 5.51761 12.8202 6.63313 11.8249 7.20177C11.7823 7.2266 11.7393 7.25098 11.7059 7.26995L11.7056 7.27011L11.7054 7.27023L11.6891 7.27946C11.7371 7.41251 11.7871 7.544 11.8368 7.6748L11.8368 7.67484C11.9522 7.97839 12.0662 8.27829 12.1514 8.58577C12.2584 8.97108 12.3579 9.37441 12.3566 9.76966C12.3547 10.5807 12.5531 11.3482 12.7539 12.12C12.765 12.1628 12.772 12.2066 12.7799 12.2559C12.7836 12.2791 12.7875 12.3035 12.792 12.3295C12.523 12.419 12.2603 12.5066 11.9975 12.5948C11.6885 12.6986 11.6447 12.7639 11.6184 13.0796C11.61 13.1795 11.6021 13.2796 11.5942 13.3797L11.5942 13.38L11.5942 13.3801C11.5647 13.7546 11.5351 14.1295 11.4764 14.4996C11.432 14.7762 11.3225 15.0471 11.2099 15.3069C11.1555 15.4324 11.158 15.5107 11.2312 15.6201C11.9356 16.6648 12.8934 17.3633 14.1039 17.7269C14.2838 17.7808 14.4645 17.8327 14.6452 17.8846L14.6452 17.8846L14.6452 17.8846L14.6453 17.8846L14.6453 17.8846L14.6453 17.8846C15.165 18.0338 15.685 18.1832 16.1853 18.38C17.9414 19.0723 19.1 20.3395 19.6825 22.1256C19.6944 22.1626 19.7082 22.1992 19.7231 22.239L19.7231 22.239L19.7233 22.2397C19.7301 22.2579 19.7372 22.2767 19.7444 22.2965H23.0001V23ZM5.39152 9.6744L5.39152 9.67436L5.39152 9.67434C5.40665 9.54344 5.42247 9.40656 5.42929 9.26938C5.5125 7.62996 6.81876 6.76675 8.03306 6.81149C8.8158 6.83995 9.60012 6.82879 10.3836 6.81764L10.5993 6.8146C11.5971 6.80093 12.3785 6.01788 12.376 5.05462C12.3741 4.0901 11.5921 3.31141 10.5937 3.30022C9.66464 3.28966 8.73499 3.29339 7.80597 3.2996C7.18662 3.30333 6.70678 3.77626 6.71178 4.36044C6.71616 4.93778 7.18912 5.39518 7.79721 5.40947C7.87233 5.41122 7.94745 5.41082 8.02128 5.41042C8.05258 5.41026 8.08365 5.41009 8.11439 5.41009V6.09246C7.53008 6.16393 7.04148 6.04088 6.65298 5.7171C6.11808 5.27151 5.93478 4.68857 6.02362 3.99191C5.9448 3.99903 5.86864 4.00439 5.79448 4.0096C5.63553 4.02078 5.48575 4.03132 5.33858 4.05717C3.21715 4.42569 1.75761 6.15274 1.75323 8.29679C1.75073 9.58633 1.7501 10.8759 1.75386 12.1654C1.75761 13.4599 2.04476 14.6885 2.64534 15.8407C3.00882 16.5386 3.46301 17.1732 4.05421 17.7244L4.05447 17.7218C4.08003 17.4673 4.10541 17.2146 4.07485 16.9681C3.98039 16.2111 3.95536 15.4548 4.24564 14.7376C4.38292 14.3993 4.55804 14.076 4.7346 13.7501C4.8139 13.6037 4.8935 13.4567 4.9701 13.3077L4.9647 13.3055L4.94958 13.2992L4.94929 13.299L4.94926 13.299L4.94924 13.299L4.94919 13.299C4.92162 13.2874 4.87316 13.267 4.8237 13.2492C3.90406 12.9186 3.36166 12.2729 3.19025 11.3196C3.01695 10.3563 3.69949 9.56333 4.65416 9.64164C4.81803 9.65524 4.9781 9.7139 5.14177 9.77387L5.1418 9.77388C5.21743 9.8016 5.29383 9.8296 5.37174 9.85356C5.37752 9.79554 5.38444 9.73562 5.39152 9.6744ZM18.9587 22.2251L18.9587 22.2252C18.9636 22.2446 18.9687 22.2652 18.9749 22.2872H17.9771C17.9675 22.2582 17.9579 22.2285 17.9483 22.1984L17.9483 22.1983L17.9482 22.1983L17.9482 22.1983L17.9482 22.1983C17.9283 22.1363 17.9078 22.0725 17.8851 22.0094C17.4491 20.7789 16.6026 19.966 15.352 19.5764C14.9698 19.4573 14.5855 19.3445 14.2011 19.2317C13.7469 19.0984 13.2925 18.965 12.8415 18.8213C11.5796 18.4192 10.6068 17.6411 9.88861 16.5243L10.1526 16.3633C10.3176 16.2627 10.4823 16.1622 10.6531 16.0583C10.6867 16.1017 10.7206 16.1464 10.7552 16.1917L10.7552 16.1918C10.8313 16.2919 10.91 16.3953 10.9922 16.4958C11.7748 17.4497 12.7727 18.0712 13.9544 18.4285C14.1013 18.4729 14.2489 18.5163 14.3965 18.5598C15.0532 18.7532 15.7124 18.9473 16.3299 19.2283C17.6055 19.8082 18.4538 20.8193 18.9317 22.1312C18.9424 22.1607 18.9501 22.1913 18.9586 22.225L18.9586 22.225L18.9586 22.2251L18.9587 22.2251ZM5.2047 22.2822H1.81767C1.93591 21.3917 2.30877 20.6391 2.93312 20.0101C2.97379 19.9697 3.08327 19.9548 3.13895 19.9784C4.18496 20.4184 4.86687 21.1835 5.2047 22.2822ZM11.5114 22.2977C11.5032 22.2722 11.4967 22.2487 11.4907 22.2268C11.4789 22.1841 11.4689 22.1477 11.4507 22.1157C11.3281 21.8997 11.2043 21.6845 11.0804 21.4693C10.9565 21.2542 10.8327 21.039 10.71 20.823C10.6393 20.6981 10.5511 20.6863 10.4185 20.7242C9.74973 20.9162 9.06907 20.9423 8.38528 20.8211C7.42935 20.6527 6.60731 20.2233 5.91726 19.5459C5.49873 19.1357 5.01514 18.8287 4.63602 18.6709L3.72952 19.4477L3.86965 19.5273C4.89753 20.1114 5.57693 20.9703 5.89537 22.102C5.94166 22.2673 6.00985 22.3009 6.16438 22.3002C7.47898 22.2969 8.79395 22.2972 10.1087 22.2975H10.1107L11.2943 22.2977H11.5114ZM8.48413 16.7021C8.48475 16.6884 8.49226 16.6747 8.4885 16.6866C9.0209 16.5237 9.24924 16.8307 9.50824 17.208C10.3497 18.4353 11.5321 19.2053 12.966 19.6105C13.7154 19.8218 14.463 20.0406 15.205 20.2774C15.8444 20.4818 16.1278 20.7074 16.3943 20.9541C16.896 21.4165 17.12 21.9622 17.2238 22.2971C16.9148 22.294 16.4531 22.2909 15.8894 22.2915C15.6725 22.2921 15.5602 22.2929 15.4449 22.2938L15.4445 22.2938C15.3082 22.2948 15.1677 22.2958 14.8453 22.2965C13.5323 22.3003 13.284 22.2986 13.1843 22.2979C13.155 22.2977 13.1385 22.2976 13.1117 22.2977C12.8934 22.2977 12.6744 22.2984 12.4561 22.299C12.3416 22.2996 12.2734 22.2828 12.2278 22.1561C11.6359 20.526 10.5649 19.301 9.01151 18.5217C8.59048 18.3104 8.4053 18.0693 8.47286 17.602C8.50262 17.3993 8.49611 17.1911 8.4896 16.983V16.9829V16.9829V16.9829V16.9829V16.9829V16.9829V16.9829V16.9829C8.48667 16.8891 8.48374 16.7953 8.48413 16.7021ZM7.2572 15.4464L6.84191 15.282L6.74489 15.5211C6.68921 15.6583 6.63465 15.7927 6.57603 15.9377C6.66984 15.9755 6.76299 16.0138 6.85581 16.0519L6.85615 16.052L6.85622 16.052L6.85654 16.0521C7.10331 16.1534 7.34772 16.2537 7.59576 16.3435C7.73653 16.3951 7.78032 16.4634 7.77844 16.612C7.7735 16.9358 7.77376 17.2596 7.77402 17.5835C7.77426 17.875 7.77449 18.1666 7.77093 18.4583C7.76906 18.5938 7.8141 18.6659 7.93234 18.7305C8.04027 18.7897 8.1488 18.8479 8.25734 18.9061C8.83577 19.2163 9.41446 19.5267 9.90488 19.9741C9.92948 19.9966 9.95409 20.0198 9.98783 20.0517L10.0175 20.0797C9.44318 20.2339 8.89139 20.2078 8.34336 20.0891C7.64519 19.9374 7.02521 19.6211 6.51284 19.1246C6.04301 18.6696 5.52501 18.2912 4.9263 18.0252C4.79242 17.9655 4.7699 17.8953 4.77553 17.7424C4.7918 17.3055 4.78429 16.8649 4.74675 16.4299C4.66855 15.5201 4.8994 14.7041 5.44681 13.977C5.61813 13.7495 5.79763 13.5281 5.98311 13.2993C6.06922 13.1931 6.15661 13.0853 6.24508 12.9745L5.91764 12.8644L5.91758 12.8644C5.64006 12.7709 5.37078 12.6802 5.10085 12.5911C4.40455 12.3605 4.00416 11.8839 3.89155 11.1655C3.83963 10.833 3.96412 10.5539 4.22562 10.416C4.49901 10.2724 4.77303 10.3221 5.02703 10.5732C5.22755 10.7711 5.42502 10.972 5.63691 11.1876C5.72845 11.2808 5.82269 11.3766 5.92102 11.4762C5.92992 11.4041 5.93843 11.3372 5.94648 11.2739L5.94655 11.2733L5.94658 11.2731L5.94661 11.2728L5.94662 11.2728L5.94662 11.2727L5.94664 11.2726L5.94665 11.2725L5.94666 11.2725C5.96511 11.1273 5.98117 11.001 5.99421 10.874C6.01777 10.6456 6.04046 10.4171 6.06315 10.1886C6.09831 9.83452 6.13348 9.48037 6.17189 9.12645C6.27261 8.19052 6.98893 7.53239 7.93359 7.52183C8.89953 7.51126 9.86546 7.51313 10.8314 7.5212C10.9008 7.52183 10.9978 7.60013 11.0341 7.66787C11.3982 8.34837 11.6178 9.07673 11.6472 9.84548C11.6735 10.5216 11.7385 11.1866 11.9569 11.854C11.9164 11.8681 11.8773 11.8809 11.8394 11.8935L11.8394 11.8935L11.8393 11.8935C11.7611 11.9193 11.6877 11.9435 11.6165 11.9727C11.1968 12.143 10.959 12.45 10.9165 12.9025C10.8963 13.1172 10.8745 13.332 10.8521 13.5534L10.8233 13.839C10.3078 13.8862 9.81854 13.88 9.50636 13.3431L9.25241 13.4683L9.25168 13.4686C9.12685 13.5302 9.00163 13.592 8.8695 13.6569C9.27739 14.3989 9.92239 14.6245 10.7132 14.5493C10.6187 15.2056 9.98308 15.801 9.28615 15.9259C8.89515 15.9961 8.52479 15.9489 8.16131 15.8047C7.86349 15.6863 7.56567 15.5684 7.25786 15.4467L7.2572 15.4464ZM22.4526 18.7883C22.7441 18.4689 22.893 18.0855 23 17.679V16.9314L22.9952 16.9227C22.9924 16.9178 22.9894 16.9129 22.9864 16.9081L22.9863 16.908C22.9757 16.8907 22.9651 16.8734 22.9625 16.855C22.7379 15.1932 21.2233 13.8141 19.3565 13.8471C18.1306 13.8687 16.9045 13.8636 15.6785 13.8584H15.6784H15.6784H15.6783H15.6782C15.1411 13.8562 14.604 13.8539 14.067 13.8539H13.8111V14.5556H14.0926L15.6036 14.5553C16.8629 14.5551 18.1222 14.5548 19.3815 14.5562C20.943 14.5587 22.1379 15.6419 22.2849 17.1837C22.3631 18.0034 21.8026 18.6877 20.983 18.7734C20.2505 18.8499 19.5698 18.2812 19.4666 17.5069C19.4147 17.1172 19.6324 16.7897 20.0102 16.6921C20.3318 16.6089 20.6959 16.7947 20.8198 17.1098C20.841 17.1647 20.8553 17.2219 20.8694 17.2781L20.8694 17.2781L20.8694 17.2781L20.8694 17.2781L20.8694 17.2781L20.8806 17.3221L20.8846 17.3373L20.8898 17.3565H21.5736C21.5943 16.6505 20.9931 16.0054 20.2905 15.9669C19.491 15.9228 18.8078 16.484 18.754 17.2291C18.6896 18.1283 19.2176 18.9729 20.0659 19.3253C20.8867 19.6665 21.852 19.4452 22.4526 18.7883ZM20.1811 7.81628L20.4295 7.7883C20.5849 7.77082 20.738 7.7536 20.8911 7.73611C21.2409 7.69509 21.5662 7.5969 21.8321 7.34894C22.2618 6.94809 22.3313 6.44284 22.2794 5.86985C22.1887 5.89238 22.0988 5.91453 22.0096 5.93652L22.0096 5.93653L22.0096 5.93653L22.0096 5.93654C21.7961 5.98917 21.5862 6.04091 21.3766 6.09482C20.4976 6.32166 20.101 6.88346 20.1811 7.81628ZM23.0001 6.64047C22.9681 6.72096 22.9391 6.80316 22.9102 6.88535C22.8468 7.06524 22.7834 7.24506 22.6885 7.40673C22.3169 8.03938 21.7313 8.35695 21.0075 8.43774C20.9361 8.44568 20.8645 8.45307 20.7929 8.46046C20.5787 8.48259 20.3644 8.50472 20.1529 8.54152C20.046 8.56017 19.9315 8.62045 19.852 8.69565C19.6449 8.89005 19.4451 9.09242 19.2461 9.29402L19.246 9.29413C19.1727 9.36833 19.0996 9.44242 19.0262 9.51598L18.8915 9.37087L18.8908 9.37014C18.7753 9.24574 18.6615 9.12316 18.537 8.9896C18.6012 8.92584 18.6677 8.85914 18.736 8.79053L18.7379 8.78867L18.7384 8.78814C18.9187 8.60731 19.112 8.41333 19.3109 8.2252C19.4216 8.12141 19.4623 8.0139 19.4648 7.86226C19.4655 7.81686 19.4659 7.77124 19.4664 7.7255L19.4664 7.72514C19.4688 7.46299 19.4713 7.19713 19.5336 6.94747C19.7094 6.24832 20.1536 5.73562 20.8436 5.51562C21.3326 5.36001 21.8343 5.24357 22.3361 5.1271L22.3362 5.12708C22.5578 5.07563 22.7795 5.02418 23.0001 4.96935V6.64047ZM14.5134 13.1282V12.4464H14.7611H18.8945C18.9126 12.4464 18.9307 12.4467 18.9488 12.4469H18.9489H18.9489C18.9898 12.4474 19.0308 12.448 19.0716 12.4458C19.2955 12.4328 19.4526 12.2917 19.4569 12.1003C19.4613 11.9014 19.2987 11.7523 19.0622 11.7423C18.9984 11.7394 18.9342 11.7401 18.8662 11.7409C18.8335 11.7413 18.7999 11.7417 18.765 11.7417V11.0618C19.4807 10.9586 19.9881 11.2526 20.1414 11.8536C20.2984 12.4682 19.8229 13.1369 19.1892 13.1425C18.0854 13.1523 16.9817 13.1499 15.8777 13.1476H15.8775C15.4416 13.1467 15.0057 13.1458 14.5697 13.1456C14.5614 13.1456 14.5529 13.1424 14.5404 13.1377C14.5331 13.1349 14.5243 13.1316 14.5134 13.1282ZM9.52714 10.3459H8.85211C8.81895 10.8953 9.30129 11.3825 9.87372 11.3894C10.4768 11.3962 10.9673 10.9251 10.9479 10.3466H10.2647C10.2128 10.5243 10.1177 10.6735 9.91063 10.6815C9.68229 10.6909 9.58719 10.5206 9.52714 10.3459Z" fill="#0C1E3C"/>
</svg>
