<svg width="24" height="24" viewBox="0 0 24 24" fill="none" xmlns="http://www.w3.org/2000/svg">
<path fill-rule="evenodd" clip-rule="evenodd" d="M12.412 21.2527C14.3934 20.8878 15.4585 19.5803 16.052 17.7546C17.4148 19.4321 19.4647 19.3956 20.6938 18.5591C21.35 18.1119 21.8167 17.5166 22.044 16.7579C22.3335 15.7889 22.2676 14.8456 21.735 13.9739C21.7404 13.9642 21.7438 13.9568 21.7465 13.9512C21.7505 13.9428 21.7526 13.9382 21.7564 13.9356C21.8311 13.8797 21.9058 13.8244 21.9812 13.7691C22.7229 13.2253 23.3076 12.5514 23.6731 11.7017C24.5341 9.70017 23.6417 7.66787 21.6151 7.01912C20.7157 6.73149 19.79 6.69694 18.9039 7.00216C18.3159 7.20483 17.7483 7.46694 17.1807 7.72906C16.9463 7.83734 16.7118 7.94562 16.4759 8.04971C16.3338 8.11218 16.194 8.18026 16.0468 8.25194L16.0468 8.25194C15.9794 8.28475 15.9105 8.31831 15.8391 8.35242C15.8367 8.32142 15.8342 8.29444 15.832 8.27008L15.832 8.27005C15.8278 8.22436 15.8245 8.18791 15.824 8.15145C15.8052 6.64984 15.1583 5.50809 13.8633 4.74378C13.7365 4.66905 13.7076 4.59117 13.7302 4.45677C13.8671 3.64788 14.2634 2.9985 14.909 2.49419C15.0547 2.38052 15.1734 2.35163 15.3618 2.43579C15.8925 2.67255 16.5205 2.47849 16.8609 2.00936C17.1957 1.54713 17.1768 0.916591 16.8144 0.467552C16.4596 0.0273058 15.8335 -0.12028 15.3135 0.112717C14.7891 0.348227 14.4794 0.906543 14.5868 1.46863C14.6176 1.63066 14.5793 1.71167 14.4518 1.80336C13.722 2.33028 13.2447 3.03681 13.0004 3.90097C12.9724 4.00074 12.9493 4.102 12.9293 4.19003C12.9202 4.23001 12.9118 4.26725 12.9037 4.3004H11.1013C11.1013 4.30011 11.1006 4.29868 11.0996 4.29637C11.0962 4.28865 11.0883 4.27103 11.085 4.25267C10.8878 3.22019 10.3765 2.38554 9.51426 1.77761C9.38866 1.68906 9.40059 1.60114 9.42257 1.47428C9.57518 0.596298 8.76565 -0.171778 7.89898 0.0335861C7.40284 0.151027 7.07438 0.462528 6.95003 0.962437C6.82317 1.47302 6.97138 1.91138 7.37206 2.24361C7.76647 2.57018 8.2155 2.6041 8.69218 2.42762C8.7801 2.39496 8.91701 2.37926 8.98358 2.42448C9.69199 2.90869 10.1147 3.58193 10.2735 4.426C10.3056 4.59494 10.2541 4.67847 10.104 4.76639C9.11986 5.34229 8.49498 6.18887 8.26826 7.31053C8.22261 7.53619 8.20265 7.76717 8.18206 8.00549L8.18206 8.00551L8.18205 8.00559C8.17262 8.11478 8.16305 8.22551 8.15082 8.33798C8.12516 8.32676 8.09935 8.31585 8.07351 8.30492L8.07347 8.3049C8.02409 8.28401 7.97463 8.26309 7.92598 8.24C7.72732 8.1435 7.52888 8.04658 7.33043 7.94966C6.93351 7.7558 6.53659 7.56195 6.13799 7.37144C5.0804 6.86526 3.97758 6.6781 2.81511 6.90545C1.0133 7.2584 -0.195023 8.8316 0.0260423 10.5417C0.203774 11.919 0.934796 12.9521 2.02128 13.7654C2.07557 13.8066 2.13085 13.8465 2.18572 13.8862L2.18575 13.8862L2.18584 13.8863C2.21789 13.9095 2.2498 13.9325 2.28128 13.9557C1.40016 15.3618 1.7751 17.3313 3.02236 18.3424C3.65478 18.8549 4.3745 19.1275 5.18402 19.1256C6.31761 19.1224 7.23013 18.6407 7.94796 17.7389C8.54836 19.5727 9.60784 20.8866 11.5905 21.2527V21.5397C11.5907 21.7021 11.5899 21.8644 11.5891 22.0267L11.5891 22.0272C11.5868 22.4776 11.5846 22.9278 11.6031 23.3773C11.6081 23.5098 11.7224 23.6838 11.838 23.7529C11.934 23.8107 12.1426 23.7893 12.2336 23.7177C12.3335 23.6386 12.4013 23.4621 12.4044 23.3271C12.4165 22.8177 12.4148 22.3083 12.4132 21.7951V21.7951V21.795V21.7947V21.7944C12.4126 21.6144 12.412 21.4338 12.412 21.2527ZM8.15835 0.831179C8.39009 0.821131 8.5986 1.02084 8.60425 1.25824C8.6099 1.49814 8.41584 1.69848 8.17719 1.70037C7.94608 1.70225 7.75579 1.52138 7.74511 1.28964C7.73381 1.0491 7.92096 0.841228 8.15835 0.831179ZM15.8247 0.831179C16.0596 0.826783 16.2611 1.02712 16.2624 1.2664C16.2637 1.50631 16.0658 1.70414 15.8272 1.701C15.598 1.69786 15.4077 1.5107 15.4014 1.28147C15.3951 1.0422 15.5892 0.836204 15.8247 0.831179ZM9.99219 19.5633C11.2351 20.8376 13.1738 20.5543 13.9751 19.5633H9.99219ZM14.7357 13.5971H9.27059C9.94383 12.5847 10.7785 11.897 12.0132 11.9014C13.2372 11.9064 14.0662 12.5891 14.7357 13.5971ZM15.3367 17.0142H8.66957C8.74681 17.6108 8.94904 18.1459 9.2417 18.647C9.26933 18.6948 9.37044 18.7211 9.43764 18.7218C11.1471 18.7236 12.8566 18.7211 14.5661 18.7155C14.6333 18.7155 14.7357 18.6929 14.7633 18.6458C15.0597 18.1459 15.2582 17.6102 15.3367 17.0142ZM15.3862 15.6791L15.3865 15.6809L15.3871 15.6837L15.3873 15.6851L15.3876 15.6863C15.4161 15.8395 15.4451 15.9944 15.4742 16.1519H8.59546C8.57976 15.5936 8.67459 15.0641 8.85232 14.5504C8.87179 14.4945 9.01561 14.4531 9.10228 14.4524C10.4048 14.4477 11.7072 14.4478 13.0101 14.448L13.7208 14.448C13.8396 14.448 13.9585 14.4488 14.0774 14.4496H14.0774H14.0775H14.0776H14.0776H14.0777H14.0778H14.0778H14.0778H14.0778H14.0778H14.0778H14.0778C14.3585 14.4514 14.6392 14.4533 14.9197 14.4449C15.088 14.4399 15.1696 14.497 15.1985 14.6591C15.2587 14.9965 15.3216 15.3334 15.3862 15.6791ZM14.9888 8.07044C14.99 6.42375 13.6498 5.08794 11.9987 5.09045C10.3564 5.09359 9.02691 6.41559 9.01749 8.05411C9.00744 9.71649 10.3483 11.0642 12.0082 11.0605C13.6599 11.0573 14.9875 9.72529 14.9888 8.07044ZM13.9326 11.6129C13.8714 11.5724 13.8076 11.5302 13.7409 11.4844C14.5906 11.0203 15.1872 10.3703 15.5515 9.50673C15.5829 9.43263 15.6733 9.3692 15.7506 9.33089C15.9222 9.24615 16.0937 9.16116 16.2651 9.07618L16.2652 9.07612L16.2654 9.07606L16.2655 9.07599L16.2656 9.07593L16.2657 9.0759L16.2658 9.07587L16.2658 9.07584L16.2659 9.07581C16.9393 8.74205 17.6124 8.40843 18.2934 8.09116C19.3247 7.61135 20.3929 7.46439 21.487 7.86068C22.824 8.34488 23.4596 9.62041 23.0463 10.9801C22.7141 12.071 21.9844 12.839 21.0147 13.3992C20.5769 13.6523 20.5361 13.8665 20.8633 14.2402C21.6948 15.1872 21.5108 16.827 20.4576 17.6893C19.65 18.3506 18.7362 18.495 17.7816 18.073C16.8188 17.6466 16.3265 16.8647 16.2436 15.8153C16.118 14.232 15.5527 12.8629 14.2734 11.8518C14.1679 11.7684 14.0553 11.694 13.9326 11.6129ZM10.2685 11.485C9.41127 11.0178 8.81715 10.3665 8.45164 9.50296C8.41773 9.42258 8.31473 9.35789 8.22932 9.31581C7.39907 8.90571 6.56694 8.49938 5.73166 8.0987C4.97175 7.73319 4.17164 7.58686 3.32883 7.66285C1.32354 7.84498 0.277881 9.67316 1.15021 11.4831C1.56722 12.3486 2.2279 12.9785 3.06066 13.4401C3.39729 13.6266 3.4626 13.8985 3.20511 14.1642C2.72153 14.6635 2.59844 15.2664 2.64491 15.9283C2.73409 17.195 3.79294 18.2401 5.03832 18.2909C6.39548 18.3462 7.53661 17.4243 7.72564 16.1142C7.74436 15.985 7.75771 15.855 7.77106 15.725L7.77107 15.725C7.78549 15.5846 7.79991 15.4442 7.8211 15.3047C8.03086 13.9054 8.61807 12.7141 9.75668 11.8336C9.8587 11.7546 9.96689 11.6839 10.085 11.6066C10.1436 11.5682 10.2046 11.5283 10.2685 11.485ZM11.138 7.66247C11.1329 7.89987 10.9445 8.07697 10.7096 8.06566C10.4735 8.05499 10.3052 7.86721 10.3165 7.62667C10.3272 7.40058 10.5055 7.2329 10.7323 7.23541C10.9684 7.23855 11.1436 7.42257 11.138 7.66247ZM13.2555 8.06548C13.491 8.07866 13.6819 7.9047 13.6901 7.66856C13.6989 7.42803 13.528 7.24276 13.2906 7.23585C13.0551 7.22957 12.8705 7.40856 12.868 7.64595C12.8655 7.8733 13.0306 8.05229 13.2555 8.06548Z" fill="#0C1E3C"/>
</svg>
