<svg width="24" height="24" viewBox="0 0 24 24" fill="none" xmlns="http://www.w3.org/2000/svg">
<path fill-rule="evenodd" clip-rule="evenodd" d="M24.0001 7.01009V4.4576C23.9956 4.42797 23.9916 4.39823 23.9876 4.36851L23.9875 4.36843C23.9792 4.30681 23.971 4.24523 23.9577 4.18476C23.7238 3.1064 23.0832 2.39753 22.0199 2.09388C21.4375 1.92787 20.8603 1.98846 20.3041 2.22487C18.8962 2.82306 17.5958 3.59988 16.413 4.57177C15.4313 5.37871 14.5621 6.29351 13.7964 7.30708C13.7289 7.39652 13.6624 7.48669 13.5949 7.57832L13.5948 7.57848L13.5945 7.57895L13.5943 7.57915L13.5943 7.57919C13.5571 7.62972 13.5195 7.68071 13.4812 7.73226C13.4401 7.68919 13.3989 7.64655 13.3579 7.60406C13.2708 7.51389 13.1845 7.42441 13.1002 7.333C13.0821 7.31333 13.0666 7.29721 13.0533 7.28346L13.0532 7.2834L13.0532 7.28336C13.0199 7.24886 13.001 7.22932 12.9936 7.20612C12.9839 7.17581 12.9938 7.13926 13.0166 7.05496L13.0238 7.0283C13.166 6.49997 13.3081 5.97165 13.4501 5.44332C13.5921 4.915 13.7341 4.38667 13.8763 3.85835C13.911 3.73051 13.9747 3.62159 14.1089 3.57641C14.3334 3.50146 14.5379 3.66397 14.5393 3.91824C14.5396 3.95759 14.5371 3.99712 14.5346 4.03666C14.5312 4.08969 14.5278 4.14271 14.5312 4.19527C14.5477 4.4604 14.7298 4.66808 14.9834 4.72062C15.2625 4.77876 15.515 4.66528 15.6418 4.42257C15.7343 4.24535 15.7584 4.05273 15.7539 3.8566C15.7364 3.1022 15.1673 2.47108 14.4188 2.37231C13.6332 2.26865 12.9426 2.72325 12.7314 3.48885C12.5795 4.03921 12.4299 4.59037 12.2804 5.14147C12.209 5.4047 12.1376 5.66792 12.066 5.93102L12.0568 5.96527L12.0477 5.99862L12.0416 5.98104C12.0357 5.96413 12.0317 5.95266 12.0285 5.94118C11.9706 5.72653 11.9131 5.51179 11.8555 5.29703L11.8555 5.29691L11.8554 5.29679L11.8554 5.29666L11.8554 5.29654C11.7227 4.80154 11.59 4.30649 11.4537 3.81247L11.446 3.78456L11.446 3.78454C11.3911 3.58616 11.3354 3.3846 11.2464 3.20061C11.0065 2.70644 10.5967 2.43641 10.0532 2.37336C9.59367 2.31978 9.18249 2.43886 8.84172 2.75617C8.45891 3.112 8.30516 3.5575 8.3633 4.07584C8.37346 4.16375 8.38642 4.25306 8.41233 4.33747C8.49254 4.59909 8.7356 4.75704 9.01193 4.73463C9.30122 4.71151 9.52012 4.51819 9.55549 4.24325C9.56705 4.15289 9.55899 4.05868 9.54919 3.96727C9.52607 3.75643 9.65145 3.58272 9.85109 3.56065C9.96666 3.54769 10.0598 3.59462 10.1253 3.68533C10.1649 3.73997 10.1996 3.80371 10.2171 3.86851C10.4291 4.65195 10.6392 5.43577 10.8494 6.21969L11.0888 7.11235C11.1014 7.15823 11.0976 7.19571 11.0608 7.23073C10.9255 7.35991 10.7909 7.49011 10.6554 7.62132L10.5291 7.74347L10.507 7.71387L10.5069 7.71381C10.4864 7.68653 10.463 7.65538 10.4405 7.62404C9.93584 6.92393 9.38072 6.26654 8.77377 5.65294C7.62326 4.49052 6.32215 3.53263 4.87149 2.77823C4.43965 2.55338 4.00396 2.33484 3.54691 2.16743C2.04932 1.61932 0.424241 2.5068 0.0663037 4.06113C0.0573207 4.09999 0.0455961 4.13822 0.0338804 4.17643L0.0338796 4.17643C0.0259543 4.20228 0.018033 4.22811 0.0109671 4.25411C0.00501312 4.27653 0.000460103 4.30034 0.000460103 4.32346C-0.000240361 4.90134 -0.000240361 5.47957 0.00116057 6.05781C0.00116057 6.08687 0.00851544 6.1205 0.0246261 6.14396C0.0388024 6.16498 0.0525815 6.18653 0.0663891 6.20812L0.0663917 6.20813C0.110574 6.27723 0.155047 6.34678 0.213751 6.40068C0.406379 6.57825 0.63403 6.5835 0.864483 6.48474C1.09213 6.38702 1.19825 6.2007 1.20106 5.95764C1.20398 5.69602 1.2043 5.43426 1.20463 5.17254C1.2048 5.02713 1.20498 4.88173 1.20561 4.73638C1.20666 4.48071 1.25499 4.23555 1.36496 4.00264C1.60347 3.49726 2.14633 3.18275 2.70355 3.22058C2.97568 3.23914 3.22294 3.33055 3.46776 3.44087C4.83857 4.05833 6.0973 4.85021 7.22575 5.84592C8.05895 6.58175 8.79934 7.402 9.43676 8.31225C9.6123 8.56298 9.77659 8.82146 9.94084 9.07988C10.026 9.21384 10.1111 9.34778 10.1978 9.48062C10.2892 9.62037 10.3327 9.77062 10.3309 9.93838C10.3284 10.1928 10.3289 10.4472 10.3294 10.7039C10.3296 10.8102 10.3299 10.9168 10.3299 11.0241L10.2416 11.0419L10.2413 11.042C10.1631 11.0578 10.0849 11.0736 10.0066 11.0889L9.4423 11.1997L9.44151 11.1998L9.44098 11.1999L9.44045 11.2L9.43992 11.2001C8.85758 11.3145 8.27519 11.4289 7.69261 11.5421C7.00212 11.6764 6.31141 11.8098 5.62066 11.9432L5.61982 11.9434L5.61898 11.9435L5.61668 11.944L5.12085 12.0398C4.93435 12.0756 4.74785 12.111 4.56135 12.1463C4.42143 12.1728 4.28152 12.1994 4.1416 12.2261C4.0579 12.2419 3.9826 12.2222 3.9157 12.1722C3.28739 11.7035 2.75784 11.1411 2.3323 10.483C2.23298 10.3297 2.1427 10.1704 2.0525 10.0114L2.05248 10.0113C2.02628 9.96513 2.00008 9.91893 1.97367 9.87288C1.90012 9.74435 1.81816 9.62352 1.70329 9.5272C1.34115 9.22355 0.825957 9.51214 0.778676 9.86833C0.759063 10.0186 0.777975 10.166 0.84557 10.2984C0.972704 10.5467 1.10369 10.7947 1.25044 11.0318C1.63744 11.6566 2.10991 12.2114 2.65837 12.701C2.65994 12.7024 2.66119 12.704 2.66284 12.7061C2.66413 12.7078 2.66568 12.7098 2.66783 12.7122C2.6457 12.7278 2.62348 12.7432 2.60129 12.7586C2.55815 12.7886 2.51507 12.8185 2.47275 12.8495C1.78839 13.35 1.37372 14.021 1.23713 14.8553C1.09038 15.7526 1.32714 16.5525 1.89171 17.2603C2.06621 17.4788 2.27421 17.6633 2.48205 17.8476C2.51742 17.879 2.55278 17.9104 2.58797 17.9419C3.03282 18.3405 3.47804 18.7387 3.92328 19.137L3.92385 19.1375L3.92416 19.1378L3.92447 19.138L3.92478 19.1383L3.92509 19.1386C4.6101 19.7513 5.29516 20.364 5.97892 20.9784C6.31339 21.2789 6.67448 21.5332 7.10247 21.681C7.91675 21.9622 8.71739 21.9132 9.4914 21.5461C10.4062 21.1122 10.9491 20.3781 11.1578 19.3939C11.1929 19.2283 11.2179 19.0606 11.2429 18.8928L11.2429 18.8928C11.2546 18.8144 11.2663 18.736 11.279 18.6578L11.2802 18.6521L11.2827 18.6421L11.2846 18.6346C11.7588 18.8367 12.2358 18.8441 12.7149 18.6507L12.7526 18.8719L12.7526 18.8722C12.7779 19.0212 12.8029 19.1687 12.8288 19.3158C13.0529 20.5854 13.9884 21.5479 15.2478 21.7969C15.3711 21.8213 15.4973 21.8316 15.6235 21.8419L15.6235 21.842L15.6236 21.842L15.6237 21.842L15.6237 21.842C15.6824 21.8468 15.7411 21.8516 15.7994 21.8578C15.8089 21.859 15.8181 21.8614 15.8274 21.8638L15.8401 21.8669H15.8947L15.9792 21.8603C16.0355 21.856 16.0917 21.8516 16.1479 21.847C16.7226 21.7983 17.2413 21.5979 17.6945 21.2456C17.9004 21.0858 18.0948 20.9107 18.2891 20.7357L18.2891 20.7357L18.2892 20.7357L18.2892 20.7356L18.2892 20.7356L18.2896 20.7353C18.3451 20.6853 18.4006 20.6354 18.4563 20.5858C19.5445 19.6174 20.6326 18.6486 21.719 17.6778C22.2938 17.1644 22.6549 16.5297 22.7641 15.7638C22.9361 14.5583 22.3974 13.3955 21.3713 12.7353C21.3638 12.7306 21.3563 12.7255 21.3535 12.7236C21.3524 12.7228 21.352 12.7226 21.3527 12.7231C21.3758 12.6978 21.3986 12.6721 21.4215 12.6463L21.4215 12.6462L21.4215 12.6462L21.4215 12.6462L21.4215 12.6462C21.469 12.5926 21.5167 12.5388 21.5677 12.4884C22.1747 11.8895 22.686 11.2195 23.0829 10.4637C23.472 9.72368 23.7413 8.94197 23.874 8.11682C23.9123 7.87827 23.9351 7.63725 23.9579 7.39614L23.9579 7.39609L23.9579 7.39605L23.9579 7.39601L23.9579 7.39596C23.9684 7.28456 23.9789 7.17313 23.991 7.06192C23.9922 7.04959 23.9947 7.03744 23.9971 7.02534L23.9971 7.0253L23.9971 7.02526L23.9971 7.02523L24.0001 7.01009ZM12.5111 12.8632H12.5072L12.5072 13.2232V13.2254V13.2254V13.2255C12.5071 13.4646 12.507 13.7037 12.5072 13.9429L12.5087 14.632L12.5087 14.6336C12.5096 15.0159 12.5105 15.3983 12.5107 15.7806C12.5107 16.2075 12.509 16.6348 12.5069 17.0617C12.5062 17.2193 12.4726 17.3689 12.3454 17.4743C12.1822 17.6095 11.9931 17.6141 11.8054 17.5405C11.6233 17.4691 11.5581 17.3083 11.5438 17.1269C11.5355 17.0261 11.536 16.9246 11.5365 16.8231L11.5368 16.7511C11.5364 14.1716 11.5364 11.5922 11.5368 9.01271L11.5367 8.94647C11.5365 8.83047 11.5363 8.71431 11.5413 8.59839C11.5553 8.27197 11.7816 8.10876 12.0842 8.13958C12.3311 8.1648 12.4778 8.32135 12.5013 8.57212C12.5051 8.61345 12.5069 8.65548 12.5069 8.69715C12.5086 9.58044 12.51 10.4641 12.5107 11.3474C12.5113 11.7264 12.5112 12.1052 12.5111 12.4841L12.5111 12.8632ZM13.718 12.2657L13.7166 12.2828L13.7166 12.2828C13.7157 12.2942 13.7148 12.3039 13.7148 12.3137C13.7152 12.4164 13.7158 12.5191 13.7163 12.6219V12.622V12.6221V12.6222C13.7176 12.8427 13.7188 13.0633 13.7176 13.2838C13.7161 13.6337 13.7135 13.9835 13.711 14.3333C13.7085 14.6831 13.7059 15.0329 13.7043 15.3827C13.7033 15.617 13.705 15.8513 13.7117 16.0856C13.7135 16.1485 13.7152 16.2114 13.7168 16.2743L13.7168 16.2744L13.7168 16.2744L13.7168 16.2745C13.7236 16.5349 13.7304 16.7952 13.7513 17.0544C13.7873 17.503 13.8325 17.9513 13.8907 18.3979C13.9281 18.6851 13.9796 18.9726 14.0539 19.2524C14.2076 19.8328 14.5505 20.2632 15.1151 20.4982C15.4825 20.6509 15.86 20.7136 16.2544 20.625C16.5818 20.5515 16.8624 20.389 17.1096 20.168C18.3971 19.0181 19.6835 17.868 20.9696 16.7168C21.1828 16.5255 21.3562 16.3028 21.4686 16.037C21.6294 15.6566 21.6322 15.2679 21.5278 14.8738C21.4361 14.5264 21.2799 14.2158 21.0151 13.9664C20.7433 13.71 20.4141 13.5717 20.053 13.5002C19.6357 13.4179 19.2182 13.3362 18.8007 13.2545L18.1456 13.1262L17.9652 13.0909L17.9649 13.0908L17.9647 13.0908L17.9644 13.0907C17.2873 12.9583 16.6104 12.8258 15.9332 12.694C15.3021 12.571 14.6709 12.4487 14.0398 12.3264L14.0377 12.326L14.0357 12.3256C13.9645 12.3118 13.8932 12.2984 13.821 12.285L13.718 12.2657ZM10.31 12.2621L10.3327 12.2583L10.3326 12.401C10.3325 12.4948 10.3324 12.5878 10.3327 12.6807C10.3337 12.9159 10.3353 13.1512 10.3369 13.3865V13.3866V13.3867V13.3868V13.3869C10.3406 13.9166 10.3442 14.4462 10.3418 14.9758C10.3393 15.5281 10.3327 16.0807 10.3046 16.6317C10.2885 16.9507 10.2468 17.2687 10.2052 17.5861L10.1835 17.7524C10.1533 17.9869 10.1186 18.2208 10.0838 18.4546L10.0838 18.4549C10.0604 18.6125 10.037 18.77 10.015 18.9278C9.95546 19.3568 9.81361 19.7484 9.51066 20.0688C9.21717 20.3791 8.85783 20.5697 8.4365 20.6331C7.84461 20.7224 7.32766 20.5564 6.88217 20.1581C6.36507 19.6959 5.84755 19.2342 5.33002 18.7724L5.32746 18.7701L5.32701 18.7697C4.68916 18.2006 4.05129 17.6315 3.41417 17.0614L3.37869 17.0297L3.37869 17.0296C3.19981 16.8696 3.02024 16.709 2.8573 16.5336C2.61599 16.2737 2.46644 15.9634 2.41811 15.6083C2.37433 15.2875 2.42477 14.9786 2.53054 14.6763C2.65207 14.3303 2.84785 14.0364 3.148 13.8189C3.3774 13.6526 3.63797 13.5643 3.91395 13.51C4.26862 13.4405 4.62291 13.3694 4.97717 13.2984C5.30612 13.2324 5.63505 13.1664 5.96421 13.1017C6.49219 12.9979 7.02036 12.8959 7.54859 12.7938L8.06525 12.694C8.79409 12.5532 9.52292 12.4128 10.2518 12.2723C10.2703 12.2687 10.2889 12.2656 10.31 12.2621ZM13.7131 11.0304L14.3265 11.1505C14.5961 11.2033 14.8641 11.2558 15.1322 11.3081C15.9196 11.4619 16.7072 11.6156 17.4949 11.769L18.2191 11.9099L18.221 11.9103C18.779 12.0188 19.337 12.1273 19.8947 12.2369C19.9581 12.2492 20.0075 12.2359 20.0565 12.1981C20.4256 11.913 20.7696 11.6006 21.082 11.2542C21.9982 10.2385 22.533 9.04844 22.7109 7.69514C22.7775 7.1866 22.7974 6.67456 22.7988 6.16217C22.8002 5.65329 22.796 5.1444 22.7883 4.63551C22.7817 4.21769 22.6342 3.8538 22.3172 3.57746C21.8542 3.174 21.3268 3.10465 20.7675 3.34141C20.405 3.49481 20.0495 3.66642 19.7 3.84714C18.1877 4.62921 16.8522 5.64453 15.701 6.90046C14.9599 7.70845 14.3204 8.59068 13.7691 9.53771C13.7425 9.58289 13.7215 9.63893 13.7205 9.69006C13.7155 9.94039 13.7146 10.1907 13.7138 10.441V10.4412L13.7131 10.6388C13.7126 10.7244 13.7128 10.81 13.7129 10.897L13.7131 11.0304ZM0.720502 8.61898C1.05392 8.61828 1.31485 8.35701 1.3145 8.02429C1.31415 7.68947 1.04727 7.42434 0.711046 7.42469C0.379726 7.42504 0.117753 7.69402 0.118103 8.03339C0.118804 8.36226 0.383929 8.62003 0.720502 8.61898Z" fill="#0C1E3C"/>
</svg>
