<svg width="24" height="24" viewBox="0 0 24 24" fill="none" xmlns="http://www.w3.org/2000/svg">
<path fill-rule="evenodd" clip-rule="evenodd" d="M8.19509 14.4625C8.18032 14.4995 8.16551 14.5367 8.14979 14.5735C8.14885 14.5734 8.14752 14.5734 8.14595 14.5734C8.14177 14.5735 8.13594 14.5735 8.13142 14.5708C8.10627 14.5566 8.08133 14.5419 8.05638 14.5272C8.03428 14.5141 8.01217 14.5011 7.9899 14.4884C7.57452 14.2517 7.13381 14.1152 6.6499 14.1445C6.11658 14.1765 5.66644 14.3997 5.26993 14.7441C4.7813 15.1687 4.43867 15.7022 4.13601 16.2666C4.06301 16.4026 3.97785 16.538 3.87282 16.6492C3.64437 16.8915 3.40275 17.1217 3.16136 17.3516L3.14808 17.3643C3.01872 17.4872 2.97055 17.6329 3.01773 17.7993C3.0654 17.9671 3.18532 18.0863 3.36185 18.0873C3.55402 18.0885 3.75315 18.0739 3.93763 18.0235C4.47144 17.8775 4.93747 17.589 5.38389 17.2719C5.42037 17.246 5.45706 17.2201 5.4938 17.1943C5.72593 17.0308 5.96027 16.8659 6.15705 16.6661C6.66902 16.1469 7.28253 16.0126 7.93825 16.3162C8.11677 16.3989 8.27716 16.4913 8.30969 16.7088C8.31192 16.7237 8.32012 16.7386 8.32856 16.7515C8.37623 16.8215 8.35835 16.8709 8.29876 16.9312C7.9974 17.2367 7.69776 17.5438 7.39814 17.8509C7.2011 18.0528 7.00407 18.2548 6.80657 18.4562C6.64022 18.6258 6.52874 18.8205 6.50142 19.0601C6.46046 19.4178 6.61812 19.682 6.8597 19.9333C7.31257 20.404 7.96979 20.3136 8.34544 19.8891C8.70168 19.4866 9.06844 19.0934 9.43521 18.7002C9.61754 18.5047 9.79986 18.3092 9.9809 18.1126C10.0266 18.0632 10.0676 18.0321 10.1408 18.0468C10.6324 18.1439 11.13 18.1824 11.6305 18.1876C11.726 18.1886 11.8214 18.1883 11.9184 18.1881C11.9629 18.1879 12.0078 18.1878 12.0531 18.1878V20.8954H11.9245C11.4819 20.8954 11.0394 20.8953 10.5968 20.8952C9.60131 20.895 8.60579 20.8948 7.61027 20.8956C7.54652 20.8957 7.48276 20.8957 7.41901 20.8958C6.93574 20.896 6.45235 20.8963 5.96935 20.9068C5.71188 20.9125 5.5207 21.0513 5.43206 21.2921C5.37644 21.4431 5.34019 21.6092 5.33572 21.7698C5.32331 22.2267 5.32331 22.6843 5.33572 23.1411C5.34019 23.3015 5.37396 23.4686 5.43131 23.6186C5.52144 23.8549 5.7007 23.9997 5.96736 23.9997C10.1994 24.0002 14.4317 24.0004 18.6637 23.9975C18.7496 23.9975 18.8425 23.9719 18.9199 23.9337C19.158 23.8162 19.2663 23.5935 19.2735 23.3507C19.2916 22.7543 19.2951 22.1562 19.2732 21.56C19.2606 21.211 19.0483 20.9795 18.7541 20.918C18.656 20.8974 18.5522 20.8964 18.4512 20.8964C16.6519 20.8951 14.8526 20.8954 13.0535 20.8956H13.0467H12.8948C12.8916 20.8849 12.8893 20.8782 12.8879 20.8737C12.886 20.8682 12.8853 20.8662 12.8853 20.8641C12.8852 20.7453 12.885 20.6266 12.8848 20.5078C12.8837 19.7161 12.8825 18.9244 12.8851 18.1327C12.8853 18.1024 12.9295 18.0533 12.9616 18.0451C13.4164 17.9256 13.8509 17.7558 14.2618 17.5271C14.3219 17.4939 14.3579 17.5053 14.4034 17.5505C14.4959 17.6432 14.5908 17.7337 14.6857 17.8241C14.7209 17.8577 14.7561 17.8912 14.7912 17.9249C14.8692 17.9998 14.9471 18.0748 15.0251 18.1497C15.4092 18.5189 15.7932 18.888 16.1769 19.2577C16.4122 19.4841 16.6883 19.6075 17.0166 19.5517C17.4722 19.4742 17.7592 19.1738 17.9151 18.7653C18.0579 18.3917 17.9427 18.0483 17.6584 17.7719C17.1759 17.3021 16.6894 16.8363 16.2029 16.3705C16.1164 16.2877 16.0299 16.2049 15.9435 16.1221C15.9203 16.1 15.8923 16.0829 15.865 16.0663C15.8528 16.0589 15.8407 16.0516 15.8293 16.0439C16.011 15.7616 16.2017 15.5369 16.4545 15.371C16.6352 15.2523 16.8321 15.191 17.0518 15.2022C17.1482 15.2072 17.2028 15.2367 17.2455 15.3313C17.4938 15.881 17.8881 16.2877 18.4561 16.5074C19.4262 16.8828 20.4002 16.351 20.5959 15.331C20.7376 14.5921 20.4846 13.9704 20.0037 13.4138C19.8592 13.2466 19.7345 13.0623 19.6099 12.8781C19.5536 12.7948 19.4972 12.7116 19.4391 12.6299C19.5217 12.6086 19.6025 12.5891 19.6818 12.57C19.8541 12.5284 20.0192 12.4886 20.1795 12.435C20.6127 12.29 20.9837 12.0512 21.2153 11.6423C21.2608 11.5623 21.2876 11.4565 21.2809 11.3657C21.267 11.1812 21.153 11.061 20.9728 11.0106C20.6351 10.9158 20.3324 10.7703 20.1209 10.4718C20.0665 10.395 19.9937 10.3304 19.922 10.2667C19.9086 10.2548 19.8952 10.2429 19.882 10.231C18.874 9.32154 17.6269 9.16338 16.4252 9.79452C15.8541 10.0945 15.3781 10.5146 14.9449 10.9865C14.4066 11.5732 13.9552 12.224 13.5453 12.9043C13.3891 13.163 13.1652 13.3398 12.8896 13.4801V8.75396C13.9848 9.33569 14.9821 9.2262 15.8874 8.36514C15.8849 8.36489 15.8896 8.36415 15.8923 8.36613C15.9045 8.37582 15.9164 8.386 15.9281 8.39618C16.6275 9.0154 17.4295 9.1815 18.302 8.86817C19.0759 8.59009 19.5699 8.03542 19.6817 7.20167C19.7081 7.00448 19.7056 6.80368 19.7032 6.6026C19.7017 6.47455 19.7001 6.34638 19.706 6.21896C19.7135 6.05509 19.6576 5.92946 19.5436 5.82344C19.4856 5.76933 19.428 5.71482 19.3703 5.6603C19.2036 5.50267 19.0369 5.34503 18.8618 5.19726C16.885 3.52978 14.9056 1.86502 12.9256 0.201008C12.5954 -0.0763267 12.2333 -0.0639125 11.9111 0.22112C11.4661 0.614515 11.0208 1.00743 10.5754 1.40034C9.69939 2.17319 8.82339 2.94602 7.95067 3.72245C7.37943 4.23059 6.81301 4.74412 6.24657 5.25766C5.97937 5.4999 5.71218 5.74215 5.44447 5.98383C5.34044 6.07793 5.28805 6.19264 5.28284 6.33342C5.27837 6.45433 5.26918 6.57525 5.25379 6.69517C5.14405 7.55151 5.46806 8.22312 6.15904 8.70753C6.92351 9.24333 7.74782 9.22272 8.57511 8.86246C8.73433 8.79315 8.88118 8.69545 9.02903 8.59709C9.09673 8.55205 9.16465 8.50687 9.23406 8.46421C10.0829 9.20683 11.0267 9.31111 12.0519 8.80113V13.353C12.0203 13.3502 11.9894 13.3478 11.959 13.3454C11.8977 13.3407 11.8384 13.3361 11.7795 13.3286C10.9095 13.2194 10.0589 13.3117 9.22363 13.569C8.84152 13.6867 8.4959 13.859 8.29728 14.2311C8.25776 14.3053 8.22651 14.3837 8.19509 14.4625ZM12.0672 1.93578C12.0551 1.93305 12.0427 1.93007 12.0305 1.92709L9.85701 5.88626H12.0672V1.93578ZM12.9025 5.88303V2.00356L15.1358 5.88303H12.9025ZM13.9823 2.15949L13.9614 2.17414L13.9706 2.19331L13.9706 2.19332C13.977 2.20678 13.9833 2.22029 13.9907 2.23323L14.5307 3.17136C15.0375 4.05163 15.5443 4.93198 16.0497 5.81301C16.086 5.87608 16.128 5.89569 16.1987 5.89544C16.7383 5.89329 17.278 5.89345 17.8176 5.89362L18.2493 5.8937H18.3603C18.3645 5.88402 18.3687 5.87434 18.3727 5.86466L16.9933 4.70059L16.9891 4.69702L16.9848 4.69347L16.9707 4.68157L16.9632 4.67523L16.959 4.67167C15.9668 3.83434 14.9745 2.99697 13.9823 2.15949ZM10.8934 2.22032L10.912 2.24092L10.5978 2.81369L10.3953 3.18292L10.1135 3.69596L10.1133 3.69621C9.73023 4.39345 9.3472 5.0906 8.96641 5.78918C8.9232 5.86838 8.87553 5.89668 8.78466 5.89619C8.31583 5.89284 7.84715 5.89325 7.37839 5.89367H7.37837H7.37835H7.37832H7.3783H7.37828H7.37826L6.90936 5.89395H6.80557L6.80095 5.88718L6.78646 5.86615L8.2101 4.60237L10.8934 2.22032ZM16.2779 6.72223C16.2779 6.78764 16.2774 6.85233 16.2769 6.91648V6.91652C16.2755 7.0786 16.2742 7.23728 16.2816 7.39559C16.2854 7.47529 16.3124 7.56541 16.3586 7.62947C16.8425 8.30208 17.9164 8.37458 18.5197 7.78117C18.8174 7.4882 18.9098 7.13042 18.8666 6.72223H16.2779ZM19.4895 11.0111C19.6715 11.2219 19.857 11.424 20.1264 11.5606C19.7507 11.7406 19.3713 11.7989 18.9631 11.8118C19.1985 11.2751 19.05 10.8301 18.6798 10.4242C18.6893 10.4283 18.6989 10.4322 18.7085 10.4362C18.7286 10.4445 18.7487 10.4528 18.768 10.4624C19.0443 10.5982 19.2894 10.7795 19.4895 11.0111ZM4.95386 16.5784L4.92009 16.5476C4.9559 16.4903 4.99113 16.4326 5.02635 16.3749L5.02653 16.3746L5.02655 16.3746C5.10384 16.2479 5.18111 16.1213 5.26446 15.9989C5.46806 15.7005 5.70418 15.4311 6.00535 15.225C6.4329 14.9321 6.88652 14.8881 7.35851 15.0991C7.52387 15.1729 7.67755 15.2729 7.82528 15.381C7.77203 15.3751 7.71878 15.3681 7.66551 15.361L7.66549 15.361L7.66548 15.361L7.66546 15.361L7.66545 15.361L7.66543 15.361L7.66541 15.361L7.6654 15.361L7.66538 15.361L7.66537 15.361L7.66535 15.361L7.66534 15.361L7.66532 15.361C7.54878 15.3455 7.43216 15.33 7.3153 15.3273C6.63227 15.3114 6.07065 15.5803 5.59046 16.058C5.45742 16.1902 5.30711 16.3053 5.15682 16.4203L5.15679 16.4203C5.0886 16.4725 5.02042 16.5247 4.95386 16.5784ZM9.64218 6.95251C9.64184 6.877 9.64149 6.80076 9.64149 6.72348H12.0509C12.0517 6.73485 12.0527 6.74606 12.0537 6.75716L12.0537 6.75721C12.0558 6.78052 12.0578 6.80332 12.0578 6.82602C12.058 6.891 12.0568 6.95605 12.0556 7.0211L12.0556 7.02121C12.0531 7.1634 12.0505 7.30553 12.0618 7.44673C12.0767 7.63022 12.001 7.75659 11.879 7.87801C11.2869 8.46669 10.2361 8.40685 9.72566 7.75361C9.66806 7.68012 9.63678 7.60564 9.63926 7.50856C9.64387 7.32475 9.64304 7.14095 9.64218 6.95255V6.95251ZM15.441 6.72819H12.8819C12.8819 6.79072 12.8825 6.85239 12.8831 6.91343V6.91353V6.91362V6.91372V6.91382V6.91392V6.91401V6.9141V6.9142V6.91429C12.8846 7.05678 12.886 7.19589 12.8794 7.33476C12.8729 7.46808 12.9154 7.57783 12.9869 7.68409C13.5016 8.44906 14.7381 8.48779 15.2952 7.75312L15.298 7.74945C15.3575 7.67104 15.4274 7.5789 15.4342 7.48894C15.448 7.30882 15.4455 7.12743 15.4429 6.94494L15.4429 6.94483C15.4419 6.87278 15.441 6.80057 15.441 6.72819ZM6.3306 7.75461C6.08728 7.45691 6.00535 7.11304 6.09026 6.72447H8.80328C8.80328 6.7981 8.80345 6.87141 8.80361 6.94447L8.80361 6.94499C8.80411 7.17032 8.80461 7.39326 8.8003 7.61606C8.79958 7.65531 8.765 7.69759 8.73664 7.73227L8.73401 7.73549C8.48076 8.0451 8.13812 8.19258 7.75552 8.25639C7.19067 8.35049 6.70154 8.20822 6.3306 7.75461ZM14.1422 13.491C14.8831 13.4607 15.5311 13.2651 16.1093 12.8586L16.1482 12.8316L16.1735 12.8142L16.1735 12.8142L16.1735 12.8142L16.1735 12.8141L16.1737 12.814L16.1737 12.814C16.2775 12.7425 16.3822 12.6703 16.4686 12.5813C16.7035 12.339 16.8587 12.0462 16.9416 11.7185C16.9549 11.6658 16.9523 11.6087 16.9498 11.5524V11.5524L16.9498 11.5524L16.949 11.5328L16.9483 11.5132C16.9466 11.4533 16.9424 11.3932 16.9381 11.3331L16.9381 11.3331C16.9297 11.2143 16.9214 11.0956 16.9329 10.9788C16.9595 10.7109 17.1124 10.5046 17.35 10.3221L17.3349 10.3253L17.3044 10.3313L17.3043 10.3314L17.3043 10.3314L17.3042 10.3314L17.3042 10.3314C17.2842 10.3353 17.2727 10.3376 17.2616 10.341C16.9418 10.4413 16.6531 10.6022 16.3839 10.7991C15.7873 11.2358 15.3084 11.786 14.8828 12.3834C14.7095 12.6266 14.5458 12.8767 14.3777 13.1334C14.3005 13.2512 14.2225 13.3704 14.1422 13.491ZM18.4601 23.1779H6.16798V21.7311H18.4601V23.1779ZM11.0393 14.1187C10.5304 14.1097 9.86793 14.2155 9.38278 14.3831C9.05877 14.4951 8.91675 14.6736 8.91849 15.0192C8.92047 15.331 8.93984 15.6434 8.97063 15.9537C8.99322 16.1827 9.04809 16.4074 9.19508 16.5973C9.37806 16.8342 9.36788 17.0184 9.16106 17.2309C8.59398 17.8132 8.02615 18.3946 7.45832 18.9761C7.27185 19.1671 7.27136 19.1723 7.46179 19.3533C7.56905 19.4548 7.61225 19.4546 7.71281 19.3461C7.85449 19.1936 7.99558 19.0406 8.13665 18.8876L8.13754 18.8867L8.32533 18.6832L8.74453 18.2295C9.02387 17.9273 9.30322 17.6251 9.58191 17.3223C9.69214 17.2024 9.82076 17.1351 9.98686 17.1612C10.1055 17.1798 10.224 17.2003 10.3424 17.2207L10.3427 17.2207C10.585 17.2625 10.8273 17.3043 11.0714 17.331C11.5655 17.3846 12.0608 17.3816 12.5524 17.2823C13.117 17.1684 13.6389 16.9511 14.1273 16.6485C14.3604 16.5042 14.5315 16.5251 14.7279 16.7142L15.0234 16.9984L15.3195 17.2831L15.6322 17.5838L15.6328 17.5844C16.0014 17.9392 16.37 18.2939 16.7415 18.6457C16.7867 18.6884 16.8693 18.7326 16.921 18.7199C17.1169 18.6725 17.1705 18.45 17.029 18.314C16.7582 18.0533 16.4873 17.7927 16.2164 17.5322L16.2113 17.5273C15.8333 17.1637 15.4553 16.8002 15.0777 16.4364C14.8811 16.247 14.856 16.0923 14.9834 15.8487C15.1956 15.4423 15.4717 15.0857 15.8337 14.8015C16.3606 14.3878 16.9379 14.2401 17.5876 14.4792C17.7743 14.5477 17.8871 14.6629 17.9506 14.8563C18.0849 15.2648 18.3432 15.5736 18.7538 15.7313C19.2472 15.921 19.6802 15.6923 19.7802 15.1749C19.8729 14.6952 19.6941 14.2947 19.3629 13.9528C19.351 13.9406 19.3387 13.9287 19.3263 13.9167C19.2934 13.885 19.2604 13.8531 19.2362 13.8158C18.8499 13.2194 18.4638 12.623 18.0832 12.0231C17.9568 11.824 17.9136 11.6145 18.0604 11.398C18.0906 11.3531 18.106 11.2978 18.1212 11.2434C18.1251 11.2294 18.129 11.2155 18.1331 11.2018C18.1532 11.134 18.12 11.102 18.0527 11.0908C17.8789 11.0618 17.7498 11.2371 17.7878 11.4369C17.8054 11.53 17.8141 11.6323 17.795 11.724C17.6204 12.5609 17.1812 13.2251 16.445 13.6641C15.7473 14.0802 14.9819 14.3354 14.1948 14.5288C13.9877 14.5797 13.7941 14.574 13.5865 14.5162C12.7538 14.2843 11.9081 14.1241 11.0393 14.1187Z" fill="#0C1E3C"/>
</svg>
