<svg width="24" height="24" viewBox="0 0 24 24" fill="none" xmlns="http://www.w3.org/2000/svg">
<path fill-rule="evenodd" clip-rule="evenodd" d="M12.4739 9.95978C12.4216 9.95978 12.3701 9.9585 12.3187 9.95603C11.3753 9.90825 10.5459 9.41488 10.0428 8.603C9.53308 7.78061 9.45905 6.76152 9.84399 5.87721L11.7667 1.46326C11.8892 1.18203 12.1667 1 12.4739 1C12.7806 1 13.0585 1.18203 13.1812 1.46326L15.1038 5.87721C15.4888 6.76152 15.4147 7.78061 14.9051 8.603C14.4019 9.41488 13.5721 9.90793 12.6287 9.95603C12.5777 9.9585 12.5257 9.95978 12.4739 9.95978ZM12.4739 3.70307L11.2585 6.49325C11.0752 6.91344 11.1112 7.39856 11.354 7.79025C11.5867 8.16566 11.9667 8.39333 12.3969 8.41508C12.4484 8.41754 12.4998 8.41754 12.5501 8.41508C12.9808 8.39333 13.3611 8.16566 13.5934 7.79025C13.8366 7.39813 13.8721 6.91344 13.6893 6.49325L12.4739 3.70307ZM7.58593 8.80977C7.45286 8.55607 7.18995 8.39751 6.90336 8.39751C6.61666 8.39751 6.35385 8.55607 6.22036 8.80977L2.57469 15.7419C1.77244 17.2677 1.81219 19.0715 2.68097 20.5668C3.53271 22.032 5.04345 22.9401 6.72208 22.997C6.7824 22.9991 6.84261 23 6.90336 23C6.964 23 7.02431 22.9991 7.0841 22.997C8.76315 22.9401 10.274 22.0316 11.1252 20.5668C11.994 19.0715 12.0337 17.2677 11.2315 15.7419L7.58593 8.80977ZM9.79146 19.7917C9.19963 20.8095 8.19393 21.416 7.03181 21.4549C6.94643 21.4578 6.86061 21.4582 6.77436 21.4549C5.61225 21.416 4.60655 20.8095 4.01526 19.7917C3.41465 18.7584 3.38658 17.513 3.94026 16.46L6.90336 10.8261L9.86592 16.46C10.4196 17.513 10.392 18.7584 9.79146 19.7917ZM21.8941 13.8644L19.9715 9.45088C19.8489 9.16922 19.5714 8.98762 19.2642 8.98762C18.9574 8.98762 18.6796 9.16922 18.5569 9.45088L16.6343 13.8644C16.2493 14.7487 16.3233 15.7678 16.8331 16.5902C17.3362 17.4025 18.1657 17.8954 19.1098 17.9435C19.1609 17.9461 19.2123 17.9474 19.2642 17.9474C19.3161 17.9474 19.3676 17.9461 19.4191 17.9432C20.3628 17.8954 21.1923 17.4025 21.6953 16.5902C22.2051 15.7678 22.2791 14.7487 21.8941 13.8644ZM20.3841 15.7779C20.1514 16.1529 19.7714 16.381 19.3412 16.4027C19.2902 16.4052 19.2379 16.4052 19.1876 16.4027C18.7574 16.381 18.3769 16.1529 18.1447 15.7779C17.9016 15.3856 17.866 14.9006 18.0489 14.4809L19.2642 11.6903L20.4799 14.4809C20.6628 14.9006 20.6268 15.3856 20.3841 15.7779ZM5.88428 18.6898C6.10605 19.0711 6.48146 19.2983 6.91547 19.313C7.34113 19.3272 7.67465 19.6842 7.6604 20.1098C7.64615 20.5266 7.30385 20.8551 6.88998 20.8551H6.88986C6.88111 20.8551 6.87236 20.8551 6.86319 20.8547C5.90185 20.8225 5.03725 20.3027 4.55053 19.4649C4.05502 18.6124 4.03241 17.5837 4.49021 16.7132C4.68863 16.3362 5.15478 16.1913 5.5319 16.3893C5.90892 16.5876 6.05377 17.0543 5.85578 17.4313C5.64654 17.8289 5.65747 18.2994 5.88428 18.6898Z" fill="#0C1E3C"/>
</svg>
