<svg width="24" height="24" viewBox="0 0 24 24" fill="none" xmlns="http://www.w3.org/2000/svg">
<path fill-rule="evenodd" clip-rule="evenodd" d="M11.579 23C11.4636 22.9801 11.3483 22.9604 11.2329 22.9408L11.2307 22.9404C11.1161 22.9209 11.0015 22.9014 10.8868 22.8816C8.57591 22.4878 6.76029 21.304 5.42545 19.3917C4.67649 18.3202 4.2404 17.1195 4.06645 15.8209C3.96618 15.0767 3.99034 14.3374 4.06645 13.5945C4.08336 13.4314 4.15221 13.278 4.31409 13.2599C4.44576 13.2442 4.62575 13.278 4.71756 13.3626C5.04142 13.6607 5.35027 13.9746 5.6589 14.2883L5.65892 14.2884C5.74168 14.3725 5.82442 14.4566 5.90744 14.5404C5.94455 14.5775 5.97573 14.62 6.01429 14.6725C6.03348 14.6987 6.05449 14.7273 6.07897 14.759C6.12421 14.7106 6.16666 14.6664 6.20677 14.6246C6.28768 14.5404 6.35904 14.4661 6.42446 14.387C6.5658 14.2166 6.53802 13.9605 6.38943 13.7902C5.68517 12.9748 5.19472 12.0483 4.98573 10.9876C4.94345 10.775 4.94829 10.5407 4.98936 10.3269C5.10291 9.72769 5.63805 9.42086 6.32178 9.52958C7.17946 9.66488 7.93446 10.0454 8.65443 10.5093C8.73175 10.5588 8.8151 10.5999 8.91899 10.624C7.71098 9.32422 7.2 7.81664 7.60106 6.08315C8.0009 4.3533 9.11227 3.22502 10.7322 2.62465C10.7283 2.5546 10.7205 2.48542 10.7127 2.4174C10.6961 2.27193 10.6801 2.13181 10.7056 2.00011C10.8059 1.48671 11.3048 1.20283 11.8158 1.32242C11.887 1.33813 11.997 1.31155 12.0513 1.26323C12.3533 0.991431 12.7411 0.921367 13.0818 1.09411C13.4345 1.27169 13.6157 1.62322 13.5601 2.03756C13.5458 2.14835 13.5262 2.25862 13.5062 2.37113L13.5062 2.37118L13.5061 2.37129C13.4958 2.42925 13.4854 2.48781 13.4756 2.54734C13.554 2.57864 13.6328 2.60859 13.7115 2.63848L13.7116 2.63849C13.8788 2.70202 14.0454 2.76531 14.2064 2.84088C15.418 3.40985 16.2467 4.32914 16.7058 5.58667C16.7529 5.7123 16.8447 5.83431 16.9449 5.92611C17.1474 6.11112 17.3555 6.28898 17.5637 6.46687C17.6872 6.57241 17.8107 6.67795 17.9331 6.785C18.2387 7.05197 18.2399 7.24525 17.9391 7.5098C17.7972 7.63335 17.6547 7.75608 17.5122 7.87883C17.3077 8.05494 17.1031 8.23109 16.9002 8.40976C16.8386 8.46412 16.771 8.53177 16.7456 8.60667C16.5016 9.33992 16.1054 9.97654 15.5642 10.525C15.5461 10.5443 15.5352 10.5709 15.5437 10.6361C15.565 10.626 15.587 10.6168 15.609 10.6076C15.6555 10.5881 15.702 10.5685 15.743 10.5407C16.3905 10.1118 17.0718 9.74944 17.8364 9.58998C18.1167 9.532 18.4211 9.51992 18.7038 9.56099C19.1616 9.62864 19.4431 9.99225 19.4805 10.4573C19.5204 10.949 19.3996 11.4092 19.2172 11.855C18.9116 12.6003 18.5407 13.307 17.9621 13.8844C17.8811 13.9642 17.9283 14.2819 18.037 14.4075C18.0989 14.4781 18.1613 14.5478 18.2281 14.6222L18.2282 14.6223L18.2288 14.623C18.2634 14.6615 18.2991 14.7014 18.3366 14.7433L18.4102 14.6694C18.7715 14.307 19.111 13.9665 19.4515 13.6259C19.479 13.5981 19.5055 13.5681 19.532 13.538C19.5976 13.4636 19.6634 13.389 19.7451 13.3469C19.8659 13.284 20.0386 13.2309 20.1522 13.2744C20.2537 13.313 20.3479 13.4773 20.372 13.6005C20.4116 13.8086 20.4285 14.0216 20.4454 14.2347L20.4454 14.2347L20.4454 14.2349C20.4523 14.3211 20.4591 14.4073 20.4675 14.4933V15.0936C20.4385 15.334 20.4095 15.5732 20.3793 15.8136C20.2162 17.111 19.7741 18.3117 19.0287 19.382C17.6927 21.2991 15.8759 22.4866 13.5589 22.8828C13.4328 22.904 13.3067 22.9254 13.1808 22.9469L13.1807 22.9469C13.0763 22.9647 12.972 22.9825 12.8679 23H11.579ZM12.7339 2.42774C12.7428 2.37918 12.7522 2.33147 12.7616 2.28435C12.7875 2.15331 12.8126 2.02691 12.8232 1.89985C12.8269 1.85274 12.758 1.77422 12.7049 1.7561C12.6686 1.7416 12.5623 1.80079 12.5599 1.8322C12.5491 1.9702 12.5504 2.10887 12.5517 2.25324V2.25327L12.5517 2.25343C12.5522 2.30236 12.5527 2.35194 12.5527 2.40238C12.5647 2.40419 12.5843 2.4069 12.6137 2.41097L12.6137 2.41097L12.6137 2.41098L12.6138 2.41098L12.6138 2.41098L12.6138 2.41098L12.6138 2.41098L12.7339 2.42774ZM11.8399 2.45553C11.8556 2.42774 11.8713 2.39875 11.8858 2.37097C11.8665 2.34379 11.8483 2.31556 11.8301 2.28737C11.7867 2.22031 11.7435 2.15346 11.6865 2.10158C11.6575 2.07504 11.6051 2.0747 11.5524 2.07435C11.5284 2.07419 11.5043 2.07403 11.4824 2.07138C11.4816 2.09521 11.4779 2.12319 11.4742 2.15111L11.4742 2.15112V2.15112C11.466 2.21239 11.4579 2.27344 11.4812 2.29003C11.5582 2.34431 11.6485 2.37955 11.7384 2.41461C11.7726 2.42793 11.8067 2.44123 11.8399 2.45553ZM8.07626 11.0257C8.13543 11.0622 8.19715 11.1002 8.26304 11.1398C7.64334 11.7233 7.17101 12.3793 6.81344 13.2067C6.74045 13.0865 6.66711 12.9721 6.59571 12.8608C6.43904 12.6166 6.29172 12.3869 6.17803 12.1413C5.99079 11.7366 5.83858 11.309 5.72503 10.8777C5.59457 10.38 5.76489 10.2109 6.27346 10.2822C6.79653 10.3571 7.27248 10.5697 7.73152 10.8209C7.84507 10.8834 7.95535 10.9513 8.07626 11.0257ZM17.6069 13.1548C17.9077 12.8552 18.3438 12.1244 18.5335 11.5482C18.6361 11.2401 18.705 10.9164 18.7437 10.5938C18.7714 10.3546 18.6676 10.2701 18.4235 10.2749C17.5816 10.2955 16.8918 10.7062 16.1791 11.1447C16.7964 11.7294 17.2699 12.3853 17.6069 13.1548ZM11.0321 13.8708C10.7505 14.1533 10.4672 14.4375 10.1801 14.7252L10.1557 14.7007L10.1555 14.7005L10.1552 14.7002L10.1535 14.6985L10.1529 14.6979C9.75528 14.2991 9.36552 13.9082 8.97576 13.5184C8.88164 13.4235 8.78697 13.3291 8.69249 13.2349L8.69237 13.2347L8.69226 13.2346L8.69214 13.2345L8.69202 13.2344L8.55055 13.0932C8.21714 12.7586 8.09271 12.7537 7.70978 13.0412C7.73276 13.0029 7.75546 12.9645 7.77816 12.926L7.7782 12.9259L7.77823 12.9259L7.77827 12.9258L7.77831 12.9257L7.77831 12.9257C7.83792 12.8247 7.89755 12.7236 7.96225 12.6257C8.35122 12.041 8.84409 11.5602 9.43239 11.1725C9.53144 11.1072 9.59667 11.1121 9.69694 11.1713C11.3797 12.1618 13.0648 12.1606 14.7512 11.1773C14.808 11.1447 14.9034 11.1193 14.9554 11.1447C15.5255 11.4261 16.4303 12.4022 16.7021 13.0292C16.6883 13.0227 16.6767 13.0177 16.6668 13.0134C16.6471 13.005 16.634 12.9993 16.6236 12.9905C16.3579 12.7791 16.2093 12.7815 15.9725 13.0171C15.4603 13.5269 14.9493 14.0378 14.4408 14.5512C14.4041 14.5887 14.3763 14.6349 14.3464 14.6844C14.332 14.7083 14.3172 14.733 14.3006 14.7578L14.1738 14.6307C13.6254 14.0812 13.1138 13.5686 12.6022 13.0569C12.3086 12.7634 12.1383 12.7634 11.8448 13.0557C11.5775 13.3236 11.3104 13.5915 11.0419 13.8609L11.0331 13.8698L11.0321 13.8708ZM12.2253 11.1568C14.4456 11.1543 16.2334 9.36046 16.2274 7.14257C16.2201 4.92106 14.4275 3.13563 12.2108 3.14288C10.0014 3.15134 8.22318 4.93435 8.21955 7.1462C8.21714 9.36529 10.0086 11.1592 12.2253 11.1568ZM8.08305 21.002C5.66705 19.4002 4.60401 16.6797 4.77554 14.4159C4.89639 14.5431 5.00971 14.6632 5.1193 14.7794L5.11936 14.7794L5.11962 14.7797C5.24216 14.9096 5.36004 15.0346 5.4786 15.1589C5.54898 15.2323 5.62103 15.3031 5.69336 15.3743L5.69339 15.3743L5.69342 15.3744L5.73711 15.4174C6.01012 15.688 6.17803 15.6904 6.44742 15.4222C6.94874 14.9221 7.45006 14.4208 7.94896 13.9182C7.98517 13.882 8.01779 13.8422 8.05417 13.7979L8.05419 13.7978L8.0542 13.7978C8.07364 13.7741 8.09416 13.7491 8.11687 13.7226C8.15166 13.7557 8.18229 13.7842 8.21041 13.8104L8.21064 13.8106L8.2107 13.8107L8.21071 13.8107C8.24496 13.8426 8.27551 13.871 8.30532 13.9001C8.47404 14.0688 8.64262 14.2377 8.8112 14.4065L8.81143 14.4068L8.81165 14.407C9.14867 14.7445 9.48569 15.0821 9.82378 15.4186C10.0944 15.6892 10.2647 15.6904 10.5341 15.4222C10.9478 15.0094 11.3602 14.5959 11.7796 14.1754L11.7798 14.1751L12.218 13.7358L12.268 13.7827L12.2681 13.7828C12.3119 13.8238 12.3523 13.8616 12.392 13.9013L12.898 14.4076C13.2351 14.745 13.5722 15.0824 13.9104 15.4198C14.1798 15.6892 14.3514 15.6892 14.6195 15.421C14.8975 15.1436 15.1753 14.8659 15.4546 14.5865L15.4559 14.5852C15.7357 14.3054 16.0172 14.0239 16.3023 13.7395C16.3244 13.7599 16.3458 13.7792 16.3665 13.7979L16.3666 13.7979C16.4058 13.8333 16.4427 13.8666 16.4774 13.9013C16.6949 14.1183 16.9119 14.3354 17.1289 14.5525L17.1294 14.5531L17.1295 14.5531C17.4185 14.8424 17.7074 15.1315 17.9971 15.4198C18.2677 15.6892 18.4368 15.6892 18.7062 15.4198L18.7857 15.3408L18.7857 15.3408L18.7858 15.3408C19.0769 15.0516 19.3688 14.7616 19.6811 14.4848C19.7209 17.2137 18.6579 19.4038 16.417 20.9585C13.9817 22.6485 10.7044 22.7391 8.08305 21.002ZM14.5944 6.41656C14.8312 6.41777 15.0148 6.23899 15.016 6.00222C15.0172 5.7727 14.8276 5.57459 14.6029 5.57217C14.3818 5.56975 14.1789 5.76907 14.1752 5.99376C14.1728 6.22087 14.3637 6.41415 14.5944 6.41656Z" fill="#0C1E3C"/>
</svg>
