<svg width="24" height="24" viewBox="0 0 24 24" fill="none" xmlns="http://www.w3.org/2000/svg">
<path fill-rule="evenodd" clip-rule="evenodd" d="M12.2061 1.99988H12.6095C12.6156 2.00109 12.6215 2.00246 12.6275 2.00383L12.6275 2.00383L12.6275 2.00383C12.6387 2.00643 12.6499 2.00901 12.6614 2.01039C12.6947 2.01504 12.7281 2.01909 12.7615 2.02315L12.7615 2.02315C12.8236 2.03069 12.8857 2.03822 12.9472 2.04961C13.4319 2.14138 13.8648 2.35012 14.2655 2.63242L14.3176 2.66929L14.3176 2.66929C14.5005 2.79862 14.6835 2.928 14.8735 3.0457C15.4591 3.40855 15.8016 3.92411 15.843 4.61479C15.8652 4.99254 15.8592 5.3726 15.8532 5.75183L15.8514 5.86725C15.8451 6.27774 15.7981 6.68612 15.7379 7.0924C15.6587 7.62407 15.5453 8.14803 15.3877 8.66219C15.2216 9.20156 15.0451 9.73673 14.7509 10.225C14.7131 10.288 14.6872 10.3595 14.6662 10.4302C14.5996 10.6558 14.6697 10.8386 14.8679 10.9661C14.9176 10.9983 14.9723 11.0263 15.0276 11.0473C15.1771 11.1052 15.3271 11.1621 15.4772 11.2189L15.4775 11.2191C15.7071 11.3061 15.9367 11.3931 16.1645 11.4837C16.3781 11.5692 16.5827 11.5601 16.7942 11.4774C16.9458 11.4178 17.1 11.3642 17.2544 11.3106C17.3105 11.2911 17.3666 11.2717 17.4226 11.2519C17.5907 11.1923 17.693 11.0789 17.7105 10.8988C17.7217 10.7847 17.6881 10.6803 17.6306 10.5822C17.3651 10.1374 17.1718 9.66108 17.0289 9.16443C16.9098 8.74694 16.8201 8.32315 16.7669 7.89235C16.7242 7.54701 16.6857 7.20027 16.6632 6.85283C16.6436 6.54462 16.6702 6.23641 16.7214 5.931C16.8068 5.42034 16.9841 4.94471 17.2881 4.52512C17.9395 3.6278 18.8193 3.20121 19.9303 3.29157C20.4984 3.3385 21.0027 3.56336 21.4475 3.9185C21.5561 4.00537 21.664 4.08802 21.7894 4.14966C21.9533 4.23022 22.0983 4.3402 22.2279 4.46909C22.5928 4.83264 22.7533 5.28375 22.7631 5.7874C22.7694 6.12428 22.7539 6.46173 22.7384 6.79872L22.7336 6.90397C22.7126 7.36139 22.6552 7.8146 22.5711 8.26501C22.4443 8.95079 22.2426 9.61344 21.9407 10.2432C21.9136 10.2994 21.8852 10.355 21.8569 10.4107L21.8569 10.4108C21.8128 10.4973 21.7688 10.5839 21.7291 10.6726C21.6451 10.8617 21.6843 11.0312 21.8342 11.1734C21.8783 11.2162 21.9274 11.2547 21.9764 11.2918C22.0654 11.3588 22.1547 11.4255 22.244 11.4921C22.4225 11.6253 22.601 11.7586 22.7771 11.8949C23.1294 12.1667 23.4061 12.5022 23.5959 12.9064C23.8894 13.532 23.9784 14.1988 23.9875 14.8818C23.9884 14.94 23.9918 14.9985 23.9953 15.0571L23.9953 15.0572C23.997 15.0868 23.9987 15.1163 24.0001 15.1459V15.3854C23.9927 15.4089 23.986 15.4325 23.9793 15.4562L23.9793 15.4562C23.9644 15.509 23.9495 15.5617 23.9273 15.611C23.8348 15.8162 23.6667 15.9479 23.4734 16.0495C22.906 16.3465 22.2979 16.5069 21.6633 16.5594C21.311 16.5889 20.9558 16.5973 20.6021 16.6029C20.3074 16.6069 20.0128 16.6044 19.7184 16.6019L19.7181 16.6019C19.6038 16.6009 19.4897 16.6 19.3755 16.5994L19.3726 16.5994C19.0605 16.598 18.749 16.5966 18.4369 16.5959C18.4229 16.5954 18.4092 16.5956 18.3954 16.5957C18.3885 16.5958 18.3816 16.5959 18.3745 16.5959L18.2891 17.164L18.1294 18.2077C18.1095 18.3387 18.0893 18.4696 18.0692 18.6005L18.0691 18.6014C18.0396 18.7928 18.0102 18.9842 17.9816 19.1758C17.969 19.2607 17.9563 19.3457 17.9436 19.4306L17.9435 19.4313L17.9435 19.4317C17.9058 19.6838 17.8681 19.9359 17.8352 20.1887C17.8015 20.4499 17.6916 20.5732 17.4331 20.6103C17.232 20.6395 17.0309 20.6668 16.8297 20.6942L16.6787 20.7147C16.3922 20.7532 16.1064 20.7911 15.8206 20.8289C15.715 20.8431 15.6093 20.857 15.5036 20.871L15.5033 20.871C15.3482 20.8915 15.193 20.912 15.0381 20.9333C14.9297 20.9482 14.8214 20.9636 14.7131 20.979L14.7126 20.979L14.7122 20.9791C14.5514 21.0019 14.3907 21.0247 14.2298 21.0461L14.1309 21.0593C13.8649 21.0949 13.5993 21.1304 13.3331 21.1609C13.0845 21.1889 12.8344 21.2142 12.585 21.2303C12.2733 21.2513 11.9644 21.2163 11.6562 21.1749L11.2878 21.1251L11.2857 21.1248C11.0407 21.0916 10.7958 21.0583 10.5508 21.0257C10.4092 21.0071 10.2676 20.9889 10.1259 20.9708C9.94884 20.9482 9.77175 20.9255 9.59465 20.9018C9.38844 20.8745 9.18201 20.8465 8.97548 20.8183C8.81509 20.7965 8.65464 20.7747 8.49419 20.7532C8.365 20.7359 8.23571 20.7189 8.10641 20.702L8.10604 20.702L8.10575 20.7019C7.87561 20.6718 7.64538 20.6417 7.41544 20.6089C7.18499 20.5767 7.08832 20.485 7.04699 20.2657C7.02982 20.1782 7.01615 20.0902 7.00252 20.0025L7.00252 20.0025L6.99165 19.933L6.93889 19.584L6.93877 19.5832C6.90056 19.3302 6.86238 19.0773 6.82353 18.8241C6.78706 18.5824 6.74998 18.3411 6.71289 18.0996L6.71285 18.0993L6.65332 17.711L6.60927 17.4205C6.56528 17.13 6.52128 16.8395 6.47609 16.5489C6.47399 16.5349 6.45018 16.5146 6.43547 16.5139C6.34861 16.5097 6.26105 16.5076 6.17419 16.5111C6.03418 16.5168 5.89417 16.5235 5.75413 16.5301L5.75381 16.5301L5.75368 16.5301C5.51482 16.5415 5.27585 16.5528 5.0366 16.5594C4.71508 16.5679 4.39355 16.5658 4.07133 16.5623C3.85908 16.5601 3.64614 16.5552 3.43459 16.537C3.10746 16.5083 2.78034 16.4754 2.45531 16.4306C2.08896 16.3808 1.72261 16.3171 1.37587 16.1854C1.00251 16.0439 0.634755 15.8905 0.267 15.735C0.0869757 15.6586 -0.00478779 15.5059 0.000115602 15.3154C0.00577612 15.1071 0.0247018 14.8992 0.0435857 14.6918C0.0480705 14.6426 0.052553 14.5934 0.0568548 14.5442C0.0820723 14.2605 0.109391 13.9768 0.140213 13.6931L0.14436 13.6558C0.161793 13.4986 0.179258 13.3412 0.212362 13.1873C0.28101 12.8651 0.467339 12.6087 0.7006 12.3853C0.762682 12.3262 0.827455 12.2701 0.892083 12.2142C0.931733 12.1798 0.971328 12.1456 1.01021 12.1107C1.11389 12.0182 1.1405 11.9026 1.11389 11.7688C1.07536 11.5713 1.03823 11.3738 1.00251 11.1755C0.921061 10.7266 0.840317 10.2776 0.759528 9.8284L0.759467 9.82806L0.659972 9.27511C0.578015 8.81909 0.524778 8.35958 0.54159 7.89516C0.549996 7.65069 0.566107 7.40482 0.598329 7.16245C0.682388 6.52431 0.890431 5.92609 1.20915 5.36711C1.41439 5.00706 1.64906 4.66872 1.95447 4.38573C2.58 3.80573 3.31831 3.48 4.1694 3.41626C4.6079 3.38333 5.0401 3.42747 5.44778 3.59208C5.74517 3.71256 6.03466 3.85227 6.32371 3.99177L6.4901 4.07191C7.08972 4.35911 7.51281 4.82213 7.80281 5.41264C8.08651 5.99124 8.23361 6.60837 8.29735 7.24651C8.33098 7.58414 8.34499 7.92388 8.32397 8.26361L8.31887 8.34277L8.31886 8.3428C8.30037 8.6301 8.28192 8.91683 8.25112 9.20296C8.20699 9.62395 8.18878 10.0428 8.25533 10.4631C8.31136 10.8169 8.42134 11.1531 8.60136 11.4648C8.62098 11.4991 8.63919 11.5041 8.67421 11.4914C9.09941 11.3345 9.5246 11.179 9.9505 11.0242C10.0444 10.9899 10.1123 10.9269 10.1564 10.84C10.2566 10.6432 10.2468 10.4484 10.141 10.2565C9.48117 9.06567 9.14564 7.78308 9.06649 6.42974C9.05304 6.19387 9.05214 5.95665 9.05124 5.71988V5.71984C9.05102 5.6606 9.0508 5.60139 9.05037 5.54223C9.04897 5.30757 9.07139 5.0743 9.11692 4.84384C9.28994 3.95843 9.71864 3.22783 10.4366 2.67585C10.8898 2.3277 11.4033 2.11476 11.97 2.0328C12.0484 2.02089 12.1269 2.01039 12.2061 1.99988ZM9.75443 5.87627L9.75821 5.87706C9.76067 5.87758 9.76312 5.87811 9.76557 5.87846L9.77105 5.86716L9.77685 5.85468C9.78361 5.84005 9.79032 5.82554 9.79849 5.81191C9.82251 5.77216 9.84561 5.73154 9.86874 5.69089L9.86874 5.69088L9.86875 5.69087L9.86876 5.69085L9.86879 5.6908L9.86879 5.69079L9.8688 5.69078L9.8688 5.69077L9.86881 5.69076L9.86881 5.69075L9.86883 5.69073C9.9239 5.59391 9.97911 5.49684 10.0472 5.41054C10.2055 5.2081 10.3974 5.15976 10.6342 5.26203C10.763 5.31845 10.8839 5.393 11.0043 5.46731L11.0692 5.5072L11.1021 5.52723C11.2744 5.63211 11.4461 5.73656 11.645 5.7853C11.8761 5.84274 12.1094 5.88406 12.3483 5.89877C12.7076 5.92119 13.0578 5.87706 13.3983 5.75798C13.689 5.65711 13.9503 5.5023 14.1912 5.31177C14.379 5.16397 14.5716 5.17587 14.7376 5.34539C14.9155 5.52612 15.0451 5.73906 15.139 5.97443C15.1442 5.9866 15.1496 5.99878 15.155 6.01096L15.155 6.01098L15.1551 6.0112L15.1552 6.0114C15.1606 6.02359 15.166 6.03579 15.1712 6.04798C15.179 6.02467 15.1781 6.00391 15.1772 5.98396V5.98394L15.1768 5.97373C15.1749 5.90625 15.1731 5.83879 15.1714 5.77135L15.1713 5.77081L15.1713 5.77027L15.1713 5.76973L15.1713 5.76919L15.1713 5.76864L15.1713 5.7681L15.1713 5.76755C15.1608 5.36784 15.1503 4.96864 15.1103 4.56996C15.0893 4.36401 15.0269 4.17838 14.9057 4.01027C14.8065 3.87221 14.6749 3.76998 14.5434 3.66789L14.5036 3.63691C14.1527 3.36162 13.785 3.11085 13.3745 2.93152C12.66 2.61981 11.9455 2.62541 11.245 2.97285C10.7301 3.22783 10.3645 3.63621 10.1032 4.14196C9.89586 4.54404 9.78238 4.97343 9.75226 5.42385C9.74555 5.52641 9.74737 5.62963 9.74918 5.73283V5.73285V5.73286V5.73287V5.73288V5.73289V5.73291V5.73292V5.73293V5.73294V5.73295C9.75002 5.78055 9.75086 5.82814 9.75086 5.87566L9.75443 5.87627ZM22.0595 6.35326L22.0595 6.35283V6.35277V6.35271V6.35266V6.3526V6.35255V6.35249V6.35243V6.35238V6.35232V6.35227V6.35221C22.0616 6.14367 22.0636 5.93735 22.0549 5.73136C22.036 5.25643 21.8048 4.9174 21.3719 4.71426C21.3043 4.68214 21.2425 4.63688 21.1811 4.59199L21.1811 4.59198L21.181 4.5919C21.1647 4.58004 21.1486 4.5682 21.1323 4.55665C21.1052 4.53725 21.0801 4.51536 21.0549 4.49349C21.0319 4.4735 21.0089 4.45352 20.9845 4.43546C20.3947 3.99766 19.7447 3.84495 19.0323 4.0579C18.371 4.25544 17.9234 4.70445 17.6292 5.31667C17.48 5.62769 17.4079 5.95972 17.3784 6.30225C17.3728 6.36688 17.3702 6.43225 17.3676 6.49755L17.3675 6.49824C17.3665 6.5226 17.3656 6.54694 17.3644 6.57124C17.3831 6.55802 17.3934 6.54325 17.404 6.52826L17.4093 6.5208C17.4305 6.49136 17.451 6.46131 17.4716 6.43123L17.4716 6.43121L17.4716 6.43119L17.4716 6.43117L17.4716 6.43115L17.4717 6.43112L17.4717 6.4311L17.4717 6.43108L17.4717 6.43106L17.4717 6.43104C17.5176 6.36389 17.5636 6.29663 17.6173 6.23571C17.7427 6.09281 17.9031 6.05148 18.081 6.12433C18.184 6.16636 18.2849 6.2196 18.3787 6.27984L18.4042 6.29612C18.5546 6.39237 18.7049 6.48852 18.8747 6.54952C19.2753 6.69523 19.6865 6.73025 20.1075 6.67211C20.4837 6.62027 20.8304 6.49349 21.1393 6.26653C21.2024 6.2203 21.2745 6.17967 21.3488 6.15375C21.4174 6.13064 21.4945 6.11733 21.5659 6.12293C21.7102 6.13344 21.8055 6.2294 21.8819 6.34148C21.9246 6.40348 21.9628 6.46878 22.0022 6.53624L22.0024 6.53651L22.0028 6.53722C22.0206 6.56776 22.0387 6.59875 22.0577 6.63008C22.0577 6.53727 22.0586 6.44505 22.0595 6.35326ZM10.7765 11.1645C10.7867 11.1466 10.7968 11.1288 10.8065 11.1111C10.8595 11.1305 10.9115 11.1501 10.9629 11.1696C11.0636 11.2076 11.1621 11.2449 11.2618 11.2778C11.7052 11.4256 12.1619 11.4907 12.6292 11.4662C13.1069 11.441 13.5622 11.3198 13.9986 11.1251C14.0413 11.1055 14.0665 11.1069 14.0911 11.1482C14.1053 11.1714 14.1209 11.1939 14.1365 11.2162C14.1562 11.2445 14.1758 11.2726 14.1926 11.3023C14.2515 11.4074 14.2326 11.4865 14.1359 11.5552C14.1041 11.5777 14.0727 11.601 14.0412 11.6243C13.9187 11.7151 13.7958 11.8062 13.6498 11.8508C13.4529 11.911 13.2498 11.9559 13.0466 11.9902C12.8015 12.0322 12.5528 12.0441 12.3034 12.0336C11.9315 12.0182 11.5665 11.9601 11.2121 11.8501C11.0496 11.7997 10.9032 11.7142 10.7708 11.607C10.665 11.5216 10.644 11.4382 10.6986 11.3135C10.7211 11.262 10.7491 11.2127 10.7765 11.1645ZM21.1071 11.3906C20.7765 11.53 20.4403 11.628 20.0886 11.6687C19.8021 11.7016 19.5156 11.6988 19.2298 11.6589C18.9139 11.614 18.6106 11.5251 18.3164 11.4032C18.3038 11.3983 18.2863 11.3934 18.2765 11.399C18.2078 11.4326 18.1805 11.5545 18.2302 11.614C18.2554 11.6434 18.2884 11.6708 18.3234 11.6869C18.5602 11.7976 18.7983 11.9068 19.0554 11.9594C19.3734 12.0252 19.6956 12.0448 20.02 12.0266C20.3184 12.0098 20.6056 11.9475 20.8753 11.8165C20.9761 11.7674 21.0714 11.7065 21.1646 11.6448C21.2185 11.6091 21.2227 11.5727 21.1912 11.5181C21.173 11.4863 21.1524 11.4564 21.1315 11.4262L21.1315 11.4261C21.1233 11.4144 21.1152 11.4026 21.1071 11.3906ZM6.56381 11.8351C6.85925 11.9297 7.15292 12.0238 7.45397 12.1205C7.34119 12.2774 7.2032 12.3748 7.01617 12.3979C6.86159 12.4169 6.71206 12.39 6.56201 12.363C6.53527 12.3582 6.50851 12.3534 6.4817 12.3488C6.44576 12.343 6.40981 12.336 6.37236 12.3287L6.3353 12.3215C6.35027 12.2377 6.36493 12.1546 6.37964 12.0712L6.37966 12.0711L6.37967 12.0711L6.37971 12.0708C6.39595 11.9788 6.41227 11.8863 6.42916 11.792L6.56381 11.8351ZM17.7098 12.0448C17.8176 12.1695 17.9332 12.2816 18.0803 12.3692C17.95 12.4329 17.8302 12.4224 17.7147 12.3572C17.6537 12.3229 17.5935 12.2844 17.5374 12.2417C17.4798 12.1976 17.4241 12.1511 17.3681 12.1044L17.3681 12.1043C17.3432 12.0836 17.3182 12.0627 17.293 12.042C17.424 11.9194 17.5977 11.9159 17.7098 12.0448ZM5.60819 11.2337C4.93573 11.4879 4.27307 11.4739 3.60761 11.2148C3.59647 11.2604 3.58508 11.3057 3.57375 11.3507L3.57374 11.3508C3.54303 11.4728 3.51277 11.5931 3.48923 11.7149C3.47102 11.8081 3.46191 11.9068 3.47242 12.0007C3.49763 12.2241 3.63843 12.3628 3.84087 12.4392C4.34312 12.629 4.84607 12.6199 5.34341 12.4196C5.59208 12.3194 5.72518 12.0974 5.70276 11.8445C5.69576 11.7667 5.68315 11.6897 5.67054 11.6126C5.65813 11.5346 5.64516 11.4566 5.63181 11.3763L5.60819 11.2337ZM8.04691 12.575C8.04055 12.5723 8.03284 12.569 8.02276 12.5653L8.04391 12.5545L8.04393 12.5545C8.05837 12.5471 8.06894 12.5417 8.0802 12.5373C8.69103 12.2837 9.30255 12.0301 9.91407 11.7772C9.98762 11.7464 10.0254 11.759 10.0696 11.8263C10.3154 12.2024 10.6713 12.4231 11.093 12.5471C11.4187 12.643 11.7521 12.6956 12.0898 12.7103C12.3581 12.7222 12.6284 12.7285 12.8953 12.7082C13.364 12.6739 13.8228 12.5828 14.2452 12.3621C14.4763 12.2417 14.6641 12.0693 14.814 11.8557C14.8322 11.8298 14.8574 11.8074 14.8826 11.787C14.9162 11.7611 14.952 11.7583 14.994 11.7765C15.2977 11.9033 15.6016 12.0298 15.9054 12.1562L15.9066 12.1567L15.9083 12.1575C16.2112 12.2835 16.514 12.4095 16.8166 12.5359C16.8259 12.5393 16.8345 12.5437 16.8468 12.5501L16.8657 12.5597C16.8584 12.5633 16.8523 12.5669 16.847 12.57C16.838 12.5753 16.8311 12.5794 16.8237 12.5807C16.4622 12.6402 16.1001 12.6991 15.7386 12.7572C15.4073 12.8112 15.0759 12.8644 14.7446 12.9162C14.4042 12.9695 14.0637 13.0227 13.7226 13.0731C13.6045 13.0903 13.4859 13.1059 13.3674 13.1216L13.3673 13.1216L13.3671 13.1217L13.367 13.1217L13.3669 13.1217L13.3668 13.1217L13.3667 13.1217L13.3665 13.1217L13.3664 13.1218L13.3663 13.1218L13.3662 13.1218L13.3661 13.1218L13.3659 13.1218C13.1989 13.1439 13.0317 13.166 12.8652 13.1922C12.4912 13.2511 12.1213 13.2349 11.7493 13.1691C11.5149 13.1274 11.2792 13.0918 11.0434 13.0562L11.0432 13.0562C10.9381 13.0403 10.833 13.0244 10.728 13.008L10.5994 12.9882L10.5991 12.9881L10.5988 12.9881L10.5986 12.988L10.5983 12.988L10.598 12.988L10.5977 12.9879L10.5974 12.9879L10.5972 12.9878L10.5969 12.9878L10.5966 12.9877L10.5963 12.9877L10.596 12.9877C10.2763 12.9384 9.95624 12.8891 9.63668 12.8392C9.27803 12.7831 8.91938 12.7271 8.56144 12.6697C8.43707 12.6495 8.31311 12.627 8.18925 12.6045L8.069 12.5828C8.06239 12.5816 8.05603 12.5789 8.04691 12.575ZM2.49594 8.12071C3.75471 8.26081 4.81525 7.82441 5.75109 7.01044C5.77057 7.04786 5.78943 7.08487 5.80807 7.12146L5.80813 7.12156L5.80814 7.1216C5.84917 7.20211 5.88919 7.28064 5.93252 7.35718C6.03549 7.53861 6.14056 7.71863 6.24914 7.89656C6.30448 7.98762 6.38223 8.05837 6.47049 8.11931C6.61619 8.21878 6.66803 8.33646 6.60849 8.49967C6.56381 8.62236 6.52186 8.74619 6.47989 8.87006C6.36133 9.22005 6.24267 9.57031 6.06211 9.89574C5.82534 10.323 5.4681 10.5962 4.98827 10.695C4.42368 10.8113 3.92003 10.674 3.48152 10.3013C3.06193 9.94407 2.80486 9.48385 2.66266 8.95989C2.61403 8.78126 2.5793 8.59866 2.54459 8.41618L2.54459 8.41618L2.54459 8.41616C2.5288 8.33317 2.51302 8.2502 2.49594 8.16764C2.49459 8.15861 2.49498 8.14958 2.49543 8.13923V8.13922C2.49568 8.13352 2.49594 8.12743 2.49594 8.12071ZM17.9216 7.06847C17.9441 7.00885 17.9666 6.94935 17.9886 6.88996C18.0384 6.91546 18.0871 6.94112 18.1353 6.9665C18.2314 7.01708 18.3254 7.06653 18.4215 7.11131C18.8635 7.31515 19.3286 7.41532 19.8161 7.39641C20.3226 7.3768 20.7975 7.236 21.2535 7.02165L21.4223 6.9404C21.4373 6.98177 21.4525 7.02282 21.4677 7.06375L21.4678 7.06387C21.4909 7.12616 21.5138 7.18818 21.5358 7.25071C21.629 7.51409 21.7081 7.78098 21.746 8.05907C21.7782 8.29513 21.7698 8.52979 21.7298 8.76376C21.6395 9.29192 21.4623 9.78786 21.1618 10.2341C21.0553 10.3917 20.9348 10.5402 20.8122 10.6859C20.7043 10.8148 20.5523 10.875 20.394 10.9156C19.8792 11.0452 19.3699 11.027 18.8684 10.8491C18.7052 10.791 18.5749 10.6894 18.4649 10.5549C18.046 10.0442 17.7868 9.46354 17.6677 8.81349C17.576 8.31615 17.6432 7.83912 17.8099 7.36979C17.8458 7.26924 17.8835 7.16924 17.9212 7.06961L17.9212 7.06957L17.9213 7.06931L17.9214 7.06912L17.9214 7.06901L17.9214 7.0689L17.9214 7.06886L17.9215 7.06883L17.9216 7.06847ZM18.4761 15.9178C18.4866 15.9182 18.4946 15.9189 18.5018 15.9196L18.5146 15.9206C18.6249 15.9217 18.7352 15.9233 18.8455 15.9249H18.8455H18.8456H18.8456H18.8456H18.8456H18.8457H18.8457C19.0823 15.9284 19.3191 15.9318 19.5555 15.9304C20.0389 15.9276 20.5222 15.9213 21.0055 15.9073C21.1975 15.9017 21.3908 15.8835 21.5792 15.8492C21.9253 15.7868 22.2692 15.714 22.6118 15.6348C22.7767 15.596 22.9374 15.54 23.0978 15.484L23.0978 15.484L23.1294 15.473C23.2163 15.4429 23.2625 15.3686 23.2786 15.279C23.2863 15.2341 23.2919 15.1886 23.2912 15.1438C23.2905 15.0555 23.2889 14.9674 23.2874 14.8793C23.2858 14.7913 23.2842 14.7032 23.2835 14.6149C23.2814 14.3964 23.259 14.1806 23.217 13.9663C23.0517 13.1222 22.5732 12.5001 21.8594 12.0441C21.7964 12.0042 21.7628 12.0098 21.7095 12.0616C21.7007 12.07 21.6924 12.0791 21.6842 12.0881L21.6717 12.1016C21.4742 12.3124 21.236 12.4595 20.9614 12.5499C20.7219 12.6284 20.4733 12.6456 20.2251 12.6628L20.1664 12.6669C19.9233 12.684 19.6795 12.6964 19.4358 12.7087L19.4357 12.7087C19.3311 12.714 19.2265 12.7193 19.1219 12.725C19.0836 12.7273 19.0454 12.7303 19.0071 12.7332L18.9496 12.7376C18.7913 13.7995 18.6337 14.8573 18.4761 15.9178ZM5.90802 12.8966C5.9135 12.8938 5.91982 12.8905 5.92762 12.8861C5.977 13.2123 6.025 13.5309 6.07299 13.8494L6.07326 13.8513L6.07344 13.8525L6.07402 13.8563L6.1413 14.304L6.14134 14.3042L6.14138 14.3044L6.14158 14.3058L6.14176 14.307L6.14192 14.3081C6.16803 14.4821 6.19412 14.656 6.22042 14.83C6.26595 15.1298 6.31148 15.4296 6.35771 15.7287C6.36402 15.7658 6.35491 15.7868 6.31428 15.791C6.27265 15.7956 6.23102 15.8011 6.18936 15.8066C6.10905 15.8173 6.02864 15.828 5.94793 15.8316C5.73329 15.8421 5.51836 15.8493 5.30351 15.8564C5.18601 15.8604 5.06853 15.8643 4.95114 15.8688C4.4608 15.8884 3.97046 15.8744 3.48082 15.8422C2.91693 15.8057 2.35795 15.7329 1.80667 15.6054C1.47323 15.5276 1.15732 15.4001 0.842798 15.2692C0.763644 15.2362 0.697798 15.1291 0.704103 15.045L0.707977 14.9905C0.743037 14.4966 0.778085 14.0029 0.865914 13.5137C0.926156 13.1775 1.10618 12.9218 1.37517 12.7327C1.64179 12.5454 1.91396 12.3668 2.18631 12.1881L2.18637 12.1881L2.18642 12.188L2.18648 12.188L2.18653 12.1879L2.18659 12.1879L2.18665 12.1879C2.30129 12.1126 2.41596 12.0374 2.53027 11.9615C2.5768 11.9308 2.62413 11.9013 2.67196 11.8715L2.67199 11.8715L2.7187 11.8424C2.73253 11.8958 2.74533 11.949 2.75804 12.0017L2.75805 12.0017C2.78332 12.1065 2.80819 12.2096 2.83988 12.3103C2.97928 12.7509 3.28819 13.0185 3.72249 13.1446C4.09375 13.2525 4.47481 13.2812 4.86008 13.249C5.23203 13.2181 5.57597 13.1012 5.89259 12.905C5.89729 12.9021 5.90218 12.8996 5.90802 12.8966ZM10.4857 5.98563C10.482 5.9929 10.4785 5.99915 10.4753 6.0049C10.4704 6.01357 10.4662 6.02106 10.4633 6.02906C10.4393 6.09113 10.4148 6.15305 10.3903 6.21499L10.3902 6.21523C10.3368 6.35035 10.2834 6.48554 10.2349 6.62238C10.0276 7.20868 9.97572 7.80479 10.1116 8.41702C10.2566 9.06917 10.5284 9.65968 10.941 10.1843C11.0313 10.2992 11.1322 10.4092 11.2429 10.5045C11.4019 10.6418 11.5973 10.6922 11.8054 10.7111C11.8598 10.7159 11.9142 10.7213 11.9686 10.7266L11.9687 10.7266C12.2216 10.7515 12.4745 10.7763 12.7293 10.7503C12.9353 10.7293 13.1405 10.7041 13.3387 10.6418C13.4697 10.6004 13.5846 10.536 13.6743 10.4295C13.7063 10.3917 13.7392 10.3548 13.7721 10.3178C13.8105 10.2747 13.8489 10.2317 13.8858 10.1871C14.3628 9.61064 14.6991 8.9704 14.7852 8.21598C14.8203 7.91267 14.8203 7.60866 14.7621 7.30955C14.7179 7.08108 14.6603 6.85503 14.6027 6.62938L14.5674 6.49068C14.5408 6.38385 14.5094 6.27806 14.478 6.17234L14.4779 6.17215L14.4779 6.17197L14.4778 6.17178L14.4778 6.1716L14.4777 6.17142C14.4645 6.12701 14.4513 6.08262 14.4385 6.03817C14.4012 6.05619 14.3643 6.07421 14.3276 6.09212C14.2402 6.13479 14.1541 6.17683 14.0672 6.21679C13.621 6.41853 13.1559 6.55513 12.6656 6.58875C12.1829 6.62238 11.7136 6.55093 11.2604 6.37931C10.99 6.27704 10.7343 6.14394 10.4857 5.98563ZM7.82376 11.4776L7.83223 11.5069L7.81014 11.5001C7.65015 11.4515 7.49812 11.4052 7.3461 11.3584C7.05229 11.2681 6.75849 11.1772 6.46468 11.0862L6.46349 11.0859C6.45237 11.0825 6.4417 11.0788 6.43077 11.0749L6.42216 11.0719C6.26595 11.0116 6.22672 10.8407 6.3346 10.7132C6.43547 10.5941 6.53634 10.4743 6.6246 10.3462C6.87607 9.9826 7.03858 9.57702 7.14926 9.15182C7.23262 8.8331 7.30127 8.51018 7.36851 8.18726C7.41474 7.9596 7.33069 7.8111 7.11634 7.71513C6.94962 7.64018 6.82424 7.5246 6.73738 7.36209C6.56436 7.04267 6.41795 6.71134 6.27926 6.3758C6.24844 6.30155 6.20501 6.2294 6.15457 6.16706C6.06631 6.05778 5.95003 6.02696 5.82254 6.0844C5.73568 6.12293 5.65303 6.17617 5.57807 6.23431C5.46821 6.31982 5.35991 6.40725 5.25164 6.49466L5.25163 6.49466L5.25162 6.49467L5.25162 6.49467L5.25161 6.49468C5.09823 6.6185 4.9449 6.74229 4.78723 6.86054C4.41457 7.13933 3.99778 7.32496 3.53686 7.40622C3.25317 7.45665 2.96667 7.46996 2.68017 7.43634C2.58401 7.42507 2.48808 7.41103 2.39224 7.39701C2.32123 7.38662 2.25028 7.37623 2.17932 7.36699C2.1415 7.36209 2.10297 7.36419 2.06514 7.36699C1.93205 7.3775 1.83398 7.45175 1.81157 7.58204C1.79195 7.69342 1.78215 7.8104 1.79195 7.92247L1.7957 7.96543C1.8182 8.22379 1.84084 8.48365 1.88862 8.73784C2.01961 9.43692 2.31592 10.0597 2.78384 10.5983C2.83568 10.6579 2.8763 10.7286 2.90993 10.8001C2.95056 10.8855 2.92954 10.9703 2.86019 11.0333C2.80976 11.0789 2.75092 11.1188 2.68998 11.1482C2.49296 11.2434 2.29482 11.3356 2.09665 11.4278L2.09661 11.4278L2.09656 11.4278L2.09652 11.4278L2.09648 11.4279C2.02344 11.4618 1.9504 11.4958 1.87741 11.53C1.87011 11.5336 1.86281 11.5364 1.85376 11.5398L1.85374 11.5398L1.83749 11.5461C1.8305 11.5095 1.82335 11.4734 1.81626 11.4375C1.80203 11.3656 1.788 11.2947 1.77584 11.2232C1.66727 10.5927 1.54398 9.96509 1.39268 9.34306C1.27009 8.83941 1.21476 8.32665 1.24207 7.809C1.2757 7.16245 1.39338 6.53341 1.67848 5.94641C1.99299 5.29776 2.44691 4.7731 3.08155 4.41725C3.41288 4.23162 3.77012 4.13285 4.14979 4.11324C4.68285 4.08522 5.1837 4.20851 5.66423 4.42776C5.98996 4.57556 6.30518 4.74578 6.59097 4.96363C6.94542 5.23472 7.16677 5.60247 7.31738 6.01576C7.45887 6.40242 7.54363 6.8024 7.59267 7.21078C7.64871 7.6682 7.65151 8.12772 7.61438 8.58653C7.60276 8.73041 7.58781 8.87395 7.57286 9.01748L7.57285 9.01749L7.57285 9.01751L7.57285 9.01752L7.57285 9.01753C7.55715 9.16819 7.54146 9.31883 7.52962 9.46984C7.47779 10.1297 7.54503 10.7741 7.79511 11.3934C7.80281 11.4116 7.80912 11.4305 7.81542 11.4494C7.81817 11.4581 7.8207 11.4669 7.82375 11.4776L7.82376 11.4776ZM18.1931 13.097L18.1526 13.0998C18.1117 13.1025 18.0725 13.1051 18.0334 13.111L18.0333 13.111C17.8428 13.1369 17.6523 13.1628 17.4625 13.1915C17.0947 13.2469 16.727 13.3029 16.3599 13.3596C16.1869 13.3863 16.0138 13.4131 15.8408 13.4399C15.6678 13.4666 15.4948 13.4934 15.3218 13.52L14.8474 13.5926L14.8452 13.5929C14.6635 13.6208 14.4818 13.6486 14.2998 13.6763L14.0076 13.7205L14.007 13.7206C13.7533 13.7589 13.4995 13.7972 13.2456 13.8367C13.1293 13.8549 13.0137 13.8759 12.8988 13.9011C12.8232 13.9172 12.7847 13.974 12.7727 14.0489C12.7685 14.079 12.765 14.1099 12.7657 14.1407C12.7661 14.2352 12.767 14.3298 12.7678 14.4243C12.7687 14.5189 12.7696 14.6135 12.7699 14.7081C12.7713 14.9897 12.772 15.2713 12.772 15.5529L12.772 16.6439C12.7718 17.7344 12.7717 18.8251 12.7727 19.9162C12.7727 20.0151 12.7752 20.114 12.7777 20.2129L12.7778 20.213C12.7798 20.2955 12.7819 20.378 12.7826 20.4604C12.7826 20.5074 12.7987 20.5207 12.8435 20.5151C12.9396 20.5025 13.0357 20.491 13.1319 20.4794L13.1324 20.4794C13.2287 20.4678 13.3251 20.4562 13.4214 20.4436C13.607 20.4189 13.7924 20.3937 13.9778 20.3684L14.2739 20.3281C14.5597 20.2895 14.8455 20.251 15.1313 20.2132C15.2763 20.1939 15.4211 20.175 15.566 20.1561C15.7108 20.1372 15.8556 20.1183 16.0006 20.099C16.0793 20.0888 16.1582 20.0789 16.237 20.0691L16.2372 20.069C16.4408 20.0435 16.6445 20.0179 16.8475 19.9876C17.0821 19.9526 17.1599 19.879 17.2019 19.6416C17.2506 19.3643 17.2933 19.0861 17.336 18.8081L17.336 18.8079L17.336 18.8078L17.3361 18.8074L17.3665 18.6098C17.3998 18.3961 17.4318 18.1822 17.4638 17.9683C17.4803 17.8575 17.4969 17.7468 17.5136 17.6361C17.5634 17.3097 17.6124 16.9832 17.6614 16.6568C17.7077 16.3521 17.7532 16.0474 17.7987 15.742C17.8248 15.568 17.8506 15.3937 17.8764 15.2194L17.8769 15.2159L17.9451 14.7571C17.9679 14.605 17.9908 14.4528 18.0137 14.3007C18.0367 14.1481 18.0596 13.9955 18.0824 13.843C18.1156 13.6221 18.1482 13.4013 18.1812 13.1774L18.1815 13.1752L18.1931 13.097ZM6.67306 13.109C6.67334 13.1006 6.67363 13.0918 6.67363 13.0822C7.90865 13.2722 9.1394 13.4618 10.3695 13.6513L12.0688 13.913V20.52C11.9525 20.5053 11.8397 20.4913 11.7269 20.4773L10.9221 20.3722C10.7766 20.3533 10.6311 20.3342 10.4856 20.3152C10.3397 20.2961 10.1938 20.2769 10.0479 20.258L9.17926 20.1424L8.30436 20.0268L8.18366 20.0113C8.10341 20.0008 8.02316 19.9904 7.94291 19.9806C7.73557 19.9547 7.67392 19.891 7.6445 19.6864C7.58774 19.2844 7.52907 18.8824 7.47031 18.4798L7.4703 18.4797L7.47029 18.4796L7.46168 18.4206L7.41183 18.08C7.36206 17.7396 7.31229 17.3993 7.26134 17.0589C7.22464 16.8126 7.18722 16.5663 7.14979 16.3198L7.14976 16.3196C7.1229 16.1428 7.09603 15.9659 7.06941 15.7889C7.03943 15.5896 7.00965 15.39 6.97987 15.1904L6.90199 14.6695C6.86463 14.4197 6.82665 14.1698 6.78866 13.92L6.73177 13.5453C6.71216 13.4164 6.69254 13.2868 6.67433 13.1579C6.67196 13.1423 6.67248 13.1266 6.67306 13.109ZM14.1341 18.1163V18.1976C14.1182 18.1961 14.1032 18.1951 14.0888 18.1941C14.0618 18.1922 14.0369 18.1905 14.0122 18.1864C13.8392 18.157 13.6984 18.2354 13.6472 18.4028C13.6241 18.4799 13.6178 18.5626 13.6122 18.6431C13.6059 18.7342 13.6556 18.7965 13.732 18.8413C13.9547 18.9716 14.2349 18.9429 14.4227 18.7643C14.588 18.6081 14.6587 18.4091 14.6594 18.1864C14.6612 17.7919 14.661 17.3975 14.6608 17.003C14.6607 16.7775 14.6606 16.5521 14.6608 16.3266C14.6608 16.2159 14.6636 16.1053 14.672 15.9946C14.6776 15.9168 14.7127 15.8615 14.796 15.83C15.0316 15.7407 15.2658 15.6479 15.5001 15.555C15.6079 15.5123 15.7157 15.4696 15.8236 15.4272C15.8596 15.4127 15.8962 15.3989 15.9327 15.385C15.951 15.3781 15.9693 15.3712 15.9876 15.3641V17.4593C15.9653 17.4593 15.9435 17.4591 15.922 17.459C15.88 17.4587 15.8392 17.4584 15.7984 17.4593C15.6471 17.4642 15.5329 17.5539 15.5056 17.7024C15.4916 17.7759 15.4874 17.8544 15.4937 17.9293C15.5063 18.0883 15.6107 18.1955 15.7648 18.2179C15.8601 18.2319 15.9532 18.2123 16.0415 18.1773C16.3203 18.0673 16.4975 17.8733 16.5164 17.5658C16.5265 17.3993 16.5258 17.232 16.5252 17.0648C16.525 17.023 16.5248 16.9813 16.5248 16.9395C16.5255 16.2215 16.5241 15.5041 16.5227 14.7868L16.5227 14.7848C16.5227 14.747 16.5192 14.7085 16.5136 14.6714C16.4947 14.5516 16.4198 14.4647 16.3175 14.4626C16.2509 14.4612 16.1788 14.4724 16.1164 14.4962C15.6419 14.6769 15.1688 14.8599 14.6955 15.043C14.5889 15.0842 14.4823 15.1254 14.3757 15.1666C14.2062 15.2325 14.1341 15.3382 14.1341 15.5203V16.1802V18.1163Z" fill="#0C1E3C"/>
</svg>
