<svg width="24" height="24" viewBox="0 0 24 24" fill="none" xmlns="http://www.w3.org/2000/svg">
<path fill-rule="evenodd" clip-rule="evenodd" d="M14.7784 0.0116389C14.7576 0.00794479 14.7368 0.00425072 14.7162 0H14.3691C14.3341 0.0118711 14.2989 0.0232234 14.2637 0.0345729C14.1895 0.0584928 14.1153 0.0824003 14.043 0.111126C13.7393 0.232271 13.4842 0.418999 13.2984 0.691349C13.2592 0.748733 13.2114 0.761941 13.1508 0.756476C13.0752 0.748733 12.9996 0.740535 12.924 0.730516C12.5665 0.684517 12.2076 0.684062 11.8483 0.697725C11.5445 0.708655 11.2421 0.745545 10.942 0.796098C10.9349 0.797192 10.9278 0.798777 10.9207 0.800362C10.9159 0.801418 10.9112 0.802475 10.9065 0.803385C10.7894 0.828434 10.7047 0.790633 10.6332 0.690438C10.3973 0.358426 10.0771 0.150293 9.67725 0.0710477C9.15441 -0.0323358 8.69169 0.102017 8.29911 0.455889C7.91745 0.800197 7.75577 1.23924 7.7954 1.75114C7.80177 1.83221 7.81635 1.91464 7.84003 1.99298C7.88238 2.13325 7.84322 2.23846 7.73482 2.3341C7.3723 2.65381 7.05668 3.01543 6.7939 3.42213C6.44777 3.95772 6.21959 4.54022 6.10984 5.16872C6.10719 5.18249 6.10377 5.19611 6.09976 5.21208C6.09687 5.22358 6.09368 5.23629 6.09025 5.25115C6.07288 5.24225 6.05592 5.23381 6.03932 5.22554C6.00326 5.20758 5.96892 5.19048 5.93586 5.17145C5.65841 5.01178 5.38096 4.85171 5.10351 4.69163C4.9647 4.61154 4.82588 4.53145 4.68706 4.45141C4.48373 4.33459 4.28041 4.21799 4.07693 4.10129C3.99007 4.05149 3.90319 4.00166 3.81627 3.9518C3.71471 3.89396 3.60768 3.85525 3.4879 3.85661C3.257 3.8598 3.07027 4.02877 3.04067 4.25831C3.01516 4.45505 3.08166 4.61081 3.24106 4.72695C3.28068 4.75564 3.32212 4.7816 3.36402 4.80574C3.91732 5.12735 4.47085 5.44848 5.02445 5.76965C5.23913 5.8942 5.45383 6.01876 5.66852 6.14335C5.69985 6.16146 5.73064 6.18065 5.76317 6.20094C5.78218 6.2128 5.80179 6.22502 5.82246 6.23762L4.78042 9.11278C4.77086 9.11337 4.76188 9.11407 4.7533 9.11474C4.73573 9.1161 4.71982 9.11733 4.70391 9.11733L2.84984 9.1146C2.82581 9.1146 2.80175 9.11444 2.77768 9.11428C2.70139 9.11379 2.62496 9.11329 2.5488 9.11779C2.34294 9.13008 2.17625 9.21844 2.05237 9.38604C2.04373 9.39808 2.03089 9.40719 2.01799 9.41635C2.01186 9.4207 2.00572 9.42507 2 9.42976V9.79502C2.00622 9.80053 2.0127 9.80577 2.01915 9.811C2.03351 9.82263 2.04776 9.83417 2.05875 9.8483C2.17807 9.99951 2.33247 10.0897 2.5242 10.1056C2.61215 10.113 2.70118 10.1123 2.79004 10.1115C2.81668 10.1113 2.8433 10.1111 2.86988 10.1111C3.17229 10.1108 3.4747 10.1101 3.7771 10.1094C3.92831 10.109 4.07951 10.1087 4.23072 10.1084C4.29044 10.1081 4.35016 10.1082 4.41275 10.1083C4.44514 10.1083 4.4783 10.1084 4.51263 10.1084C4.51113 10.1231 4.50983 10.1367 4.50861 10.1494C4.50577 10.1791 4.50338 10.204 4.49988 10.2286C4.44568 10.608 4.39148 10.9873 4.33546 11.3667C4.29428 11.6453 4.25284 11.9238 4.21141 12.2023C4.15616 12.5737 4.10092 12.9451 4.04626 13.3164C4.0326 13.4071 3.98751 13.4754 3.91647 13.5282C3.89647 13.5433 3.87459 13.5562 3.85291 13.569C3.84843 13.5716 3.84395 13.5743 3.8395 13.5769C3.72673 13.6427 3.61397 13.7085 3.5012 13.7744C3.20951 13.9446 2.91776 14.1149 2.62577 14.2847C2.54333 14.333 2.4691 14.3899 2.41399 14.4691C2.35843 14.5493 2.32609 14.6386 2.33702 14.7356C2.36025 14.9382 2.47001 15.0862 2.64808 15.1796C2.69955 15.2069 2.76376 15.2165 2.82297 15.2201C2.94958 15.2279 3.05979 15.1737 3.16637 15.1136C3.30398 15.0358 3.4413 14.9579 3.57857 14.8801C3.67935 14.8229 3.7801 14.7658 3.88094 14.7087C3.89935 14.6981 3.91841 14.6885 3.9403 14.6776C3.95036 14.6725 3.96102 14.6672 3.97248 14.6613C3.97248 14.6736 3.97242 14.6834 3.97236 14.6917C3.97227 14.7048 3.9722 14.714 3.97248 14.7233C3.97396 14.854 3.97504 14.9847 3.97612 15.1155C3.97871 15.4292 3.9813 15.743 3.98934 16.0568C4.00254 16.5805 4.05537 17.1015 4.12414 17.6207C4.21569 18.318 4.34822 19.008 4.52265 19.6893C4.88016 21.0839 5.40209 22.4142 6.08706 23.6803C6.12259 23.7468 6.16585 23.8115 6.21686 23.8666C6.31706 23.975 6.44412 24.0091 6.59077 23.9863C6.74425 23.9622 6.86813 23.8843 6.98472 23.7882C7.6492 23.2399 8.2481 22.6264 8.7969 21.9633C9.29468 21.3621 9.74511 20.7268 10.1664 20.0701C10.178 20.0518 10.1901 20.034 10.2029 20.015C10.2096 20.005 10.2166 19.9948 10.2238 19.984C10.2295 19.9885 10.2346 19.9924 10.2392 19.996C10.249 20.0036 10.2567 20.0095 10.2638 20.0163C10.6127 20.3529 11.0331 20.5045 11.5136 20.5036C11.7811 20.5029 12.0484 20.5041 12.3159 20.5054C12.3926 20.5057 12.4693 20.5061 12.546 20.5064C12.7314 20.5068 12.9163 20.5027 13.1003 20.4677C13.4282 20.4053 13.7179 20.27 13.9574 20.0332C13.9678 20.0227 13.979 20.013 13.99 20.0033C13.9968 19.9974 14.0036 19.9914 14.0102 19.9853C14.0131 19.988 14.0157 19.9901 14.018 19.992C14.0217 19.9949 14.0247 19.9973 14.0266 20.0004C14.0336 20.0109 14.0406 20.0214 14.0475 20.032C14.0708 20.067 14.0941 20.1022 14.1168 20.1379C14.7899 21.1945 15.5601 22.1737 16.4591 23.0486C16.662 23.2458 16.8733 23.4344 17.0846 23.6231C17.1437 23.6758 17.2027 23.7285 17.2616 23.7814C17.3591 23.8688 17.4684 23.9385 17.5959 23.9804C17.7175 24.0205 17.8254 23.9977 17.9261 23.9321C17.9789 23.898 18.0272 23.8524 18.0659 23.8028C18.1178 23.7363 18.1629 23.663 18.203 23.5883C18.4475 23.1319 18.6689 22.6647 18.8702 22.1883C19.3425 21.0693 19.6936 19.9134 19.925 18.7206C20.0288 18.1859 20.1144 17.6481 20.1636 17.1052C20.1996 16.708 20.2315 16.3105 20.2511 15.9124C20.2627 15.6741 20.2652 15.4351 20.2677 15.1961C20.2689 15.088 20.27 14.9798 20.272 14.8717C20.2723 14.8522 20.2737 14.8327 20.2753 14.8105C20.276 14.8007 20.2768 14.7904 20.2775 14.7793C20.2895 14.7853 20.3004 14.7907 20.3105 14.7956C20.3333 14.8069 20.3521 14.8161 20.3704 14.8262C20.4231 14.8548 20.4757 14.8838 20.5284 14.9127C20.6409 14.9745 20.7534 15.0364 20.8673 15.0954C20.9424 15.1345 21.0217 15.1687 21.1027 15.1924C21.3436 15.2616 21.5349 15.1773 21.6538 14.9564C21.6643 14.9378 21.6734 14.9186 21.6811 14.8991C21.7494 14.7319 21.7349 14.573 21.6114 14.4395C21.5404 14.3626 21.4552 14.2929 21.365 14.2396C21.0462 14.0497 20.7238 13.8661 20.4 13.6853C20.2916 13.6248 20.2319 13.54 20.2174 13.4198C20.2026 13.2991 20.188 13.1783 20.1734 13.0576C20.1392 12.7735 20.1049 12.4894 20.0675 12.2056C20.0256 11.8859 19.9833 11.5657 19.9277 11.2483C19.8881 11.0225 19.8408 10.7977 19.7936 10.573C19.7714 10.4673 19.7492 10.3617 19.7278 10.2559C19.7211 10.2234 19.7153 10.1908 19.7088 10.1535C19.7064 10.1402 19.704 10.1263 19.7013 10.1115H19.817C20.3071 10.1102 20.7971 10.1088 21.2876 10.1084C21.4493 10.1084 21.6092 10.102 21.7645 10.0473C21.9835 9.97081 22.1243 9.81961 22.1042 9.53269C22.0896 9.32364 21.9348 9.15923 21.7622 9.12006C21.6798 9.10139 21.5946 9.08636 21.5103 9.08591C21.0721 9.08401 20.6337 9.08409 20.1952 9.08416C20.0002 9.08419 19.8052 9.08422 19.6103 9.08408C19.4987 9.08408 19.4805 9.07133 19.4449 8.96704C19.4226 8.90176 19.4013 8.83631 19.38 8.77079C19.3665 8.72935 19.353 8.68788 19.3393 8.64641C19.3032 8.53688 19.2673 8.42724 19.2315 8.31759C18.9973 7.60068 18.763 6.88369 18.4434 6.19754C18.4378 6.18547 18.434 6.17263 18.4297 6.15855C18.4274 6.15084 18.4249 6.14277 18.422 6.13424C18.4762 6.10145 18.5282 6.07002 18.5801 6.03951C18.7438 5.94455 18.9076 5.84963 19.0714 5.75471C19.6365 5.42717 20.2018 5.09956 20.7657 4.76976C20.8463 4.72285 20.9242 4.66546 20.9889 4.59897C21.0927 4.49194 21.1278 4.35896 21.0922 4.21049C21.0472 4.02148 20.8773 3.79559 20.5812 3.82018C20.4811 3.82838 20.395 3.87073 20.3098 3.91946L20.3085 3.92022C19.6522 4.29706 18.9959 4.67391 18.3391 5.05031C18.3056 5.06957 18.2714 5.08756 18.2344 5.10703C18.2172 5.1161 18.1993 5.12549 18.1807 5.13547C18.1717 5.10027 18.163 5.06671 18.1545 5.03416C18.1398 4.97743 18.1258 4.92378 18.1128 4.86995C17.9056 4.02558 17.4948 3.29415 16.8954 2.66657C16.6864 2.44841 16.4623 2.24711 16.2214 2.06494C16.1512 2.01211 16.1203 1.957 16.1376 1.86364C16.179 1.63683 16.1745 1.40775 16.1134 1.18458C15.9413 0.558817 15.5018 0.212688 14.902 0.0382564C14.8616 0.0264152 14.82 0.019027 14.7784 0.0116389ZM14.5964 2.14008C14.2626 2.14099 14.0171 1.89369 14.0171 1.55667C14.0089 1.28296 14.1961 0.971896 14.5964 0.974173C15.0058 0.97645 15.1807 1.30482 15.1762 1.56123C15.1698 1.88732 14.922 2.13917 14.5964 2.14008ZM9.39169 2.17151C9.05923 2.17743 8.81056 1.91692 8.81192 1.5758C8.81329 1.24151 9.05558 1.00287 9.39169 1.00514C9.72416 1.00696 9.97738 1.26155 9.97419 1.58992C9.97191 1.88732 9.73782 2.16559 9.39169 2.17151ZM10.7621 19.0034C10.7834 19.0286 10.804 19.0534 10.8244 19.0778C10.8703 19.1329 10.9146 19.1861 10.9607 19.2375C11.0809 19.3705 11.2316 19.4438 11.4111 19.4447C11.8912 19.4475 12.3713 19.447 12.8518 19.4466H12.852H12.8522H12.8524H12.8526H12.8528H12.853C13.1253 19.4466 13.3107 19.3095 13.4328 19.0745C13.4696 19.0034 13.476 18.9292 13.451 18.8536C13.4396 18.819 13.425 18.7853 13.4104 18.752C13.3429 18.5939 13.2751 18.4361 13.2072 18.2782C13.0782 17.9782 12.9492 17.6782 12.8229 17.3771C12.5775 16.7909 12.332 16.2048 12.1844 15.584C12.1782 15.5587 12.1709 15.5337 12.1635 15.5087L12.1635 15.5086C12.1595 15.495 12.1555 15.4813 12.1516 15.4674C12.1452 15.4674 12.1384 15.467 12.132 15.4665C11.8018 16.6971 11.3437 17.8781 10.7621 19.0034ZM13.226 8.01791C12.7988 8.60269 12.4527 9.23392 12.1493 9.90888L12.0482 9.69391C11.718 8.99527 11.3291 8.33353 10.8422 7.73099C10.4811 7.28375 10.0753 6.88252 9.62032 6.53047C9.60452 6.51821 9.58888 6.50578 9.5734 6.49349L9.54244 6.46898L9.54443 6.46364C9.54527 6.46122 9.54587 6.45946 9.547 6.45805C9.54836 6.45578 9.55109 6.45304 9.55337 6.45304L14.6492 6.45031C14.6724 6.45031 14.6961 6.45031 14.7248 6.45896C14.1533 6.91212 13.6541 7.43131 13.226 8.01791ZM15.627 2.79272L15.6151 2.80115L15.615 2.8012L15.6149 2.80125L15.6149 2.8013C15.5968 2.81404 15.5808 2.82531 15.5651 2.8369C15.1935 3.11198 14.7808 3.21992 14.3254 3.12382C13.7789 3.00814 13.3868 2.69344 13.165 2.1788C13.1277 2.0925 13.1056 1.99956 13.0837 1.9071L13.0837 1.90709L13.0837 1.90708L13.0837 1.90707C13.0775 1.88097 13.0713 1.85489 13.0648 1.82902C13.0397 1.73019 13.0037 1.69148 12.9063 1.68146C12.7614 1.66643 12.6162 1.65186 12.4704 1.64047C12.0123 1.60358 11.5596 1.64776 11.1087 1.72974C11.0053 1.74841 10.9552 1.80215 10.9352 1.89916C10.9056 2.04308 10.8532 2.17925 10.7853 2.30951C10.4538 2.94165 9.7656 3.25908 9.10158 3.12792C8.93626 3.09558 8.78004 3.04002 8.62884 2.9667C8.54276 2.9248 8.51726 2.92935 8.4617 2.9963L8.32993 3.15526C8.1213 3.40683 7.91261 3.65848 7.70795 3.91354C7.42103 4.27106 7.23476 4.67731 7.14139 5.12591C7.12725 5.19285 7.11593 5.26022 7.10443 5.32862L7.10442 5.32869C7.09926 5.3594 7.09406 5.39031 7.08856 5.42148H17.2411C17.0512 4.32617 16.4801 3.47542 15.627 2.79272ZM6.71767 22.659L6.71237 22.6615C6.70847 22.6633 6.70397 22.6656 6.69871 22.6683C6.66857 22.6029 6.63851 22.5382 6.60867 22.474L6.60842 22.4735L6.60834 22.4733C6.54317 22.3331 6.47904 22.1951 6.41725 22.0562C5.90125 20.8953 5.52187 19.6916 5.28368 18.4433C5.19031 17.9559 5.11836 17.4659 5.06598 16.9722C4.9922 16.2845 4.96396 15.5941 4.96988 14.9027C4.97444 14.3849 5.00176 13.8684 5.0464 13.3524C5.24633 11.0374 5.82883 8.82039 6.74243 6.68759L6.74244 6.68758L6.74244 6.68757L6.74245 6.68756C6.76066 6.64567 6.77887 6.60378 6.79936 6.56326C6.84217 6.479 6.85811 6.47035 6.95011 6.48174C7.17692 6.50906 7.39871 6.55916 7.61778 6.62429C8.36059 6.84426 8.99364 7.24641 9.54153 7.78838C10.1204 8.36086 10.5767 9.0226 10.9534 9.74173C11.2207 10.2523 11.4334 10.786 11.6069 11.3353C11.6365 11.4287 11.6497 11.5243 11.6479 11.6227C11.6411 12.0399 11.6165 12.4561 11.5778 12.8715C11.4967 13.74 11.3409 14.5948 11.1096 15.4356C10.6737 17.0182 9.99059 18.4883 9.09293 19.8601C8.45486 20.8347 7.71251 21.7233 6.86904 22.5267C6.83381 22.5604 6.79711 22.5933 6.76059 22.626L6.76051 22.6261L6.73424 22.6496C6.73035 22.653 6.72545 22.6553 6.71767 22.659ZM17.5872 22.6713C17.5963 22.6539 17.6035 22.6403 17.6105 22.6264C18.5195 20.7942 19.0619 18.8577 19.2628 16.8237C19.3197 16.2476 19.3516 15.6701 19.3457 15.0913C19.3411 14.6591 19.3297 14.2268 19.3028 13.7955C19.2778 13.3857 19.2368 12.9767 19.1876 12.5691C19.1157 11.977 19.0095 11.3904 18.8848 10.807C18.5833 9.39241 18.1429 8.02247 17.5649 6.69715C17.5453 6.65298 17.5216 6.60971 17.4952 6.56918C17.4574 6.51225 17.4028 6.48128 17.3331 6.48538C17.2816 6.48857 17.2297 6.49358 17.1792 6.50269C16.3926 6.6425 15.6926 6.97042 15.081 7.48369C14.5349 7.9414 14.0868 8.48473 13.7069 9.08545C13.2601 9.79228 12.9345 10.5538 12.6854 11.3494C12.664 11.4182 12.6535 11.4929 12.6531 11.5648C12.6471 12.1104 12.6845 12.6538 12.7473 13.1957C12.8188 13.8065 12.9295 14.4108 13.0762 15.0079C13.6632 17.4049 14.7772 19.5313 16.378 21.4036C16.6315 21.7001 16.8999 21.984 17.1684 22.2679L17.1684 22.268C17.2912 22.3978 17.414 22.5277 17.5353 22.6587C17.5416 22.6656 17.549 22.6714 17.558 22.6785C17.5633 22.6827 17.5692 22.6873 17.5758 22.6929C17.58 22.685 17.5837 22.6779 17.5872 22.6713Z" fill="#0C1E3C"/>
</svg>
