<svg width="24" height="24" viewBox="0 0 24 24" fill="none" xmlns="http://www.w3.org/2000/svg">
<path fill-rule="evenodd" clip-rule="evenodd" d="M23.6112 21.6759H22.7559V17.1412C22.7559 16.929 22.5819 16.7569 22.3672 16.7569H21.9266V15.9114C21.9266 15.4735 21.5662 15.1172 21.1231 15.1172H19.4384V10.1727C19.4384 9.96042 19.2644 9.78836 19.0497 9.78836H18.5623C18.4181 9.20654 17.9536 8.7479 17.365 8.6052V6.07352C17.365 5.86128 17.1909 5.68922 16.9762 5.68922C16.7615 5.68922 16.5875 5.86128 16.5875 6.07352V8.6052C15.9989 8.7479 15.5345 9.20654 15.3902 9.78836H15.2916V6.48343C15.2916 6.34678 15.2181 6.22037 15.0987 6.15145L10.3153 3.3933V2.38429C10.3153 2.17206 10.1413 2 9.92657 2C9.71186 2 9.5378 2.17206 9.5378 2.38429V8.55862H7.02376C6.80905 8.55862 6.63499 8.73068 6.63499 8.94291V13.5618L1.95323 14.7188C1.78015 14.7616 1.65875 14.9153 1.65875 15.0916V21.6759H0.388769C0.174065 21.6759 0 21.8479 0 22.0602C0 22.2724 0.174065 22.4444 0.388769 22.4444H23.6112C23.8259 22.4444 24 22.2724 24 22.0602C24 21.8479 23.8259 21.6759 23.6112 21.6759ZM17.8056 16.7569C17.5909 16.7569 17.4168 16.929 17.4168 17.1412V19.6263H15.2916V16.2957H18.2462V16.7569H17.8056ZM18.1944 20.0362H21.9784V19.1651H18.1944V20.0362ZM18.347 15.5272H15.2916V12.1966H18.6609V15.2169C18.5292 15.2892 18.4202 15.397 18.347 15.5272ZM17.4168 20.3949H15.2916V21.6759H17.4168V20.3949ZM18.1944 20.8048H21.9784V21.6759H18.1944V20.8048ZM18.1944 18.3965H21.9784V17.5255H18.1944V18.3965ZM21.149 15.9114V16.7569H19.0238V15.9114C19.0238 15.8973 19.0354 15.8858 19.0497 15.8858H21.1231C21.1374 15.8858 21.149 15.8973 21.149 15.9114ZM16.121 10.1727C16.121 10.3849 15.9469 10.5569 15.7322 10.5569H15.2916V11.428H18.6609V10.5569H18.2203C18.0056 10.5569 17.8315 10.3849 17.8315 10.1727C17.8315 9.70648 17.4478 9.32721 16.9762 9.32721C16.5046 9.32721 16.121 9.70648 16.121 10.1727ZM10.3153 4.28312L14.514 6.70417V21.6759H13.6328V7.30326C13.6328 7.09103 13.4588 6.91896 13.2441 6.91896C13.0294 6.91896 12.8553 7.09103 12.8553 7.30326V21.6759H11.9741V8.94291C11.9741 8.73068 11.8 8.55862 11.5853 8.55862H10.3153V4.28312ZM11.1965 18.3965V17.5255H7.41253V18.3965H11.1965ZM11.1965 16.7569H7.41253V15.8858H11.1965V16.7569ZM7.41253 13.4776H11.1965V12.6065H7.41253V13.4776ZM11.1965 14.2462V15.1172H7.41253V14.2462H11.1965ZM11.1965 19.1651H7.41253V20.0362H11.1965V19.1651ZM11.1965 11.8379H7.41253V10.9669H11.1965V11.8379ZM11.1965 20.8048H7.41253V21.6759H11.1965V20.8048ZM11.1965 9.32721V10.1983H7.41253V9.32721H11.1965ZM6.63499 14.3541L2.43629 15.3917V21.6759H3.31749V16.7313C3.31749 16.519 3.49156 16.347 3.70626 16.347C3.92097 16.347 4.09503 16.519 4.09503 16.7313V21.6759H4.97624V16.3214C4.97624 16.1091 5.15031 15.9371 5.36501 15.9371C5.57971 15.9371 5.75378 16.1091 5.75378 16.3214V21.6759H6.63499V14.3541Z" fill="#0C1E3C"/>
</svg>
