<svg width="24" height="24" viewBox="0 0 24 24" fill="none" xmlns="http://www.w3.org/2000/svg">
<path fill-rule="evenodd" clip-rule="evenodd" d="M15.654 6.23256C15.3313 5.85174 15.1226 5.47188 15.0292 5.03339C14.9596 4.70786 15.0487 4.54247 15.3709 4.44477C16.0167 4.24935 16.6463 4.28939 17.2526 4.59633C17.5805 4.76267 17.8569 4.63589 17.958 4.27604C18.0743 3.86139 18.2787 3.49391 18.5747 3.17982C18.7716 2.97106 19.0089 2.94294 19.1834 3.1007C19.375 3.27372 19.3578 3.48915 19.1729 3.73032C19.0584 3.87966 18.958 4.03993 18.8477 4.21601C18.7968 4.29731 18.7438 4.38198 18.6863 4.4705H19.2601C19.3726 3.98817 19.578 3.54968 19.9255 3.18697C20.1285 2.97488 20.3787 2.94437 20.5503 3.10881C20.7276 3.27896 20.6904 3.4963 20.5222 3.74223C20.3711 3.96271 20.2547 4.20705 20.1389 4.44992C20.1188 4.49214 20.0987 4.53431 20.0785 4.57631C20.0575 4.61969 20.0909 4.73407 20.1304 4.75505C20.597 4.99985 20.9826 5.34646 21.3681 5.69286C21.5402 5.84755 21.7123 6.0022 21.8915 6.14772C22.2752 6.45942 22.6491 6.78283 23.023 7.10625L23.0232 7.10647C23.1718 7.235 23.3204 7.36352 23.4696 7.49131C24.0182 7.96126 24.1531 8.66332 23.819 9.30341C23.8038 9.33257 23.7887 9.36186 23.7736 9.39118L23.7735 9.39132C23.7309 9.47409 23.6882 9.55708 23.6421 9.638C23.3781 10.1032 22.9954 10.3434 22.4415 10.331C21.873 10.3183 21.3043 10.321 20.7355 10.3236H20.7355L20.7353 10.3236C20.4716 10.3248 20.2078 10.3261 19.9441 10.3258C19.6395 10.3253 19.4622 10.1766 19.4608 9.9254C19.4589 9.67184 19.6333 9.52075 19.9383 9.52028L20.2318 9.51958H20.2318C20.9814 9.51774 21.731 9.51591 22.4801 9.52266C22.6746 9.52456 22.8104 9.45593 22.9034 9.29388L22.9208 9.26355C22.9961 9.13207 23.0717 9.00018 23.1345 8.86254C23.2489 8.61232 23.1884 8.31491 22.9739 8.13141L22.6706 7.87096C21.8192 7.13971 20.9678 6.40856 20.1047 5.69112C19.7591 5.40372 19.3373 5.27837 18.8812 5.28647C18.721 5.28941 18.5608 5.28878 18.3843 5.28808H18.3843C18.3024 5.28776 18.2171 5.28743 18.1267 5.28743C18.1634 5.35258 18.1973 5.41095 18.2288 5.46507L18.2288 5.46512C18.2927 5.57529 18.3465 5.66785 18.3931 5.76405C18.5213 6.02809 18.4522 6.2664 18.2278 6.37078C18.0061 6.47325 17.8055 6.3827 17.6715 6.12008C17.3188 5.42851 16.6053 5.03244 15.9271 5.1697C16.0272 5.44566 16.2078 5.65204 16.4266 5.8303C16.7307 6.07766 16.7378 6.28737 16.4709 6.57239C15.9705 7.10668 15.3242 7.25538 14.6326 7.28589C14.4571 7.294 14.2811 7.29195 14.0978 7.28982H14.0978H14.0977C14.0117 7.28882 13.9242 7.2878 13.8343 7.2878C13.9925 7.87976 13.9587 8.42787 13.7004 8.9469C13.3415 9.6685 12.7552 10.1017 11.9602 10.2233C11.7777 10.2514 11.7157 10.3143 11.669 10.4773C11.4026 11.4139 10.6409 12.0349 9.651 12.1379C8.77689 12.2284 7.87083 11.7327 7.44093 10.9158C7.13065 10.3267 7.09395 9.70902 7.3089 9.08179C7.35561 8.94595 7.35799 8.86397 7.24551 8.75721C6.83562 8.36781 6.63496 7.87165 6.56299 7.29399C6.44668 7.29399 6.33084 7.29355 6.21535 7.29311H6.21527C5.95077 7.29211 5.68804 7.29111 5.42531 7.29542C5.31442 7.29733 5.20305 7.29686 5.09163 7.29639H5.09159C4.78589 7.29509 4.47975 7.2938 4.18181 7.34165C3.33152 7.47844 2.70048 8.24055 2.69905 9.1018C2.69517 11.8696 2.69573 14.6372 2.69628 17.4049V17.405C2.69647 18.3819 2.69667 19.3588 2.69667 20.3357C2.69667 20.364 2.6987 20.3926 2.70144 20.431C2.70289 20.4514 2.70455 20.4746 2.7062 20.502C2.75213 20.502 2.7978 20.5029 2.84321 20.5037H2.84332H2.84339C2.96094 20.5059 3.07668 20.5081 3.19044 20.4954C3.23715 20.4906 3.30626 20.41 3.31293 20.3576C3.46831 19.1046 3.6194 17.8516 3.76286 16.5976C3.7886 16.3726 3.88726 16.233 4.09554 16.1448C5.42626 15.5833 6.34232 14.6249 6.83705 13.2655C6.93857 12.9877 7.14971 12.8761 7.39088 12.9662C7.6025 13.0453 7.68734 13.2841 7.59344 13.5482C7.16592 14.7516 6.41238 15.6996 5.34762 16.4026C5.30566 16.4304 5.26418 16.4589 5.21892 16.4899L5.16126 16.5294C6.48912 17.0952 8.51713 16.7101 9.58761 15.3998C9.56414 15.3975 9.54224 15.3948 9.5214 15.3923C9.48175 15.3874 9.44593 15.383 9.41031 15.3827C9.27369 15.3819 9.13706 15.382 9.00046 15.3821H9.00006H9.00006C8.74269 15.3824 8.48539 15.3827 8.2283 15.3765C8.00429 15.3708 7.84557 15.2063 7.83414 14.999C7.82365 14.8045 7.96044 14.6311 8.16825 14.5853C8.23259 14.5715 8.30122 14.5705 8.36747 14.5705H8.36795H8.36843C9.89948 14.57 11.4301 14.5696 12.9606 14.5705C13.4082 14.5705 13.5321 14.694 13.5321 15.1363C13.5324 16.2607 13.5323 17.3854 13.5322 18.5102V18.5102L13.5321 20.1975V20.5278C13.5834 20.5249 13.6336 20.5231 13.683 20.5212L13.6833 20.5212C13.8078 20.5165 13.9269 20.5121 14.0435 20.493C14.0874 20.4854 14.1427 20.3943 14.1498 20.3367C14.2636 19.4332 14.3722 18.5289 14.4807 17.6249L14.5082 17.3954C14.5416 17.1152 14.574 16.8349 14.6055 16.5547C14.6274 16.3602 14.7241 16.232 14.9095 16.1543C15.0617 16.0907 15.2099 16.0174 15.3651 15.9406C15.432 15.9074 15.5002 15.8737 15.5706 15.8398C14.7823 14.8103 14.6793 13.7474 15.5139 12.756C16.2331 11.9015 17.1916 11.727 18.264 12.166L18.3598 11.9876C18.4389 11.8407 18.5177 11.6942 18.5947 11.5469C18.6158 11.5065 18.6346 11.4648 18.6533 11.4232C18.6803 11.3632 18.7073 11.3033 18.7411 11.2475C18.8631 11.0459 19.0819 10.9854 19.2796 11.0893C19.4703 11.1889 19.5432 11.3858 19.4393 11.6002C19.1295 12.2413 18.8145 12.88 18.4908 13.5139C18.457 13.5802 18.4233 13.6467 18.3896 13.7133L18.3896 13.7134C18.1989 14.09 18.0076 14.4678 17.7812 14.8222C17.2364 15.6744 16.4838 16.3054 15.5725 16.7406C15.4195 16.814 15.3752 16.906 15.3576 17.0609C15.2117 18.3296 15.0592 19.5974 14.9043 20.8652C14.8638 21.1969 14.736 21.3051 14.4081 21.3066C14.1461 21.3075 13.8838 21.3076 13.6217 21.3077H13.6216L13.228 21.308C12.9406 21.308 12.7185 21.1469 12.7214 20.8018C12.7316 19.5355 12.7301 18.2691 12.7286 17.0027V17.0024C12.7281 16.5521 12.7276 16.1018 12.7276 15.6515V15.3813H12.1985C12.079 15.3814 11.9595 15.381 11.84 15.3807H11.84C11.4987 15.3798 11.1574 15.3789 10.8163 15.3884C10.7301 15.3908 10.6243 15.4504 10.5642 15.5166C10.4445 15.6492 10.3341 15.7908 10.2239 15.9322L10.2239 15.9322L10.2239 15.9323C10.1793 15.9896 10.1347 16.0468 10.0895 16.1033C10.3326 16.4884 10.3473 16.6886 10.1457 16.8473C9.95318 16.9994 9.76444 16.9493 9.45368 16.6638C9.29115 16.756 9.12826 16.8481 8.97053 16.9373L8.97004 16.9376C8.81713 17.0241 8.66908 17.1079 8.53095 17.1862C8.52381 17.2475 8.51844 17.3072 8.51321 17.3656V17.3656C8.50028 17.5096 8.48812 17.645 8.45183 17.7739C8.43324 17.8406 8.30789 17.8959 8.22115 17.9211C7.9857 17.9893 7.85558 17.8773 7.68162 17.4793C7.60232 17.488 7.52288 17.4964 7.44334 17.5049C7.17246 17.5337 6.90052 17.5627 6.62972 17.5999C6.59207 17.6052 6.54536 17.69 6.53773 17.7434C6.4915 18.0594 6.35233 18.2043 6.09639 18.1861C5.85426 18.169 5.72796 17.9993 5.73034 17.6962C5.73034 17.6608 5.72824 17.6251 5.72632 17.5927L5.72631 17.5926C5.7255 17.5788 5.72472 17.5656 5.72415 17.5532C5.47476 17.4809 5.2298 17.4098 4.97918 17.337L4.51258 17.2015C4.50083 17.2924 4.48883 17.3838 4.47677 17.4756L4.4767 17.4762C4.44819 17.6933 4.4194 17.9127 4.39295 18.1323C4.35112 18.4825 4.30985 18.8328 4.26858 19.1831L4.26847 19.184C4.20209 19.7475 4.13569 20.3111 4.06694 20.8743C4.02786 21.1946 3.9006 21.3032 3.58508 21.3051C3.17614 21.307 2.76721 21.3085 2.35874 21.3061C2.03464 21.3042 1.89166 21.166 1.89166 20.8485C1.89109 19.3323 1.89154 17.8161 1.892 16.2999C1.89231 15.2891 1.89261 14.2783 1.89261 13.2674C1.89274 12.9333 1.89404 12.599 1.89534 12.2648V12.2648C1.89881 11.3735 1.90227 10.4821 1.88356 9.59129C1.86687 8.77723 1.98889 8.02274 2.55845 7.38455C2.27343 7.38074 1.85782 7.60379 1.60473 7.89548C1.30303 8.24341 1.12526 8.64187 1.12669 9.11134C1.12834 9.61552 1.12793 10.1197 1.12752 10.6239C1.12734 10.848 1.12716 11.0721 1.12716 11.2962C1.12705 11.4551 1.12673 11.614 1.1264 11.7729C1.12535 12.2892 1.1243 12.8053 1.1305 13.3218C1.13193 13.4123 1.17578 13.521 1.23583 13.5901C1.40551 13.7851 1.48463 14.0019 1.40503 14.2469C1.34164 14.4428 1.2568 14.6368 1.14813 14.8107C1.00277 15.0452 0.701066 15.1015 0.45799 14.9699C0.13532 14.796 -0.144455 14.0663 0.0824152 13.7955C0.370031 13.4523 0.346744 13.0811 0.323633 12.7127C0.316258 12.5951 0.308902 12.4779 0.311669 12.3619C0.324354 11.8586 0.321054 11.3547 0.317756 10.851C0.31337 10.1813 0.308985 9.51177 0.342172 8.84395C0.403179 7.59998 1.54754 6.54856 2.79437 6.49232C2.89722 6.48778 3.00006 6.48789 3.10322 6.488H3.10323L3.15088 6.48803C4.10679 6.48791 5.0627 6.48798 6.0186 6.48805C8.72694 6.48824 11.4353 6.48844 14.1436 6.48422C14.4834 6.48374 14.8247 6.44466 15.1621 6.3989C15.2673 6.38475 15.369 6.34389 15.4818 6.2986C15.5361 6.27679 15.593 6.25394 15.654 6.23256ZM8.01001 8.35304C7.6535 8.099 7.44664 7.75488 7.38564 7.29399H7.64015C8.03681 7.29399 8.43347 7.29417 8.83013 7.29435H8.83015H8.83016H8.83043C10.1338 7.29495 11.4372 7.29555 12.7409 7.2897C12.9225 7.28875 13.0016 7.34547 13.0545 7.51467C13.3467 8.44312 12.6523 9.42066 11.679 9.43925C11.6296 9.44044 11.5799 9.43831 11.5304 9.43619L11.5012 9.43496C11.1204 9.41971 10.9774 9.54697 10.9546 9.93493C10.9369 10.2414 10.8354 10.514 10.649 10.7557C10.1672 11.38 9.29163 11.5197 8.63628 11.0779C7.99333 10.6441 7.79505 9.78194 8.18302 9.10609C8.39797 8.73147 8.36842 8.60803 8.01001 8.35304ZM17.8791 12.9297C17.4679 13.8066 17.0577 14.6814 16.2636 15.3183C15.7217 14.8818 15.5959 14.0114 15.9814 13.4362C16.4142 12.7913 17.2302 12.5592 17.8879 12.9109L17.8791 12.9297ZM20.1815 6.77834C20.1805 6.4714 19.9513 6.25167 19.6367 6.25692C19.3288 6.26216 19.0986 6.49856 19.1091 6.79883C19.1196 7.08862 19.3564 7.31739 19.6453 7.31739C19.9465 7.31692 20.1829 7.07956 20.1815 6.77834Z" fill="#0C1E3C"/>
</svg>
