<svg width="24" height="24" viewBox="0 0 24 24" fill="none" xmlns="http://www.w3.org/2000/svg">
<path fill-rule="evenodd" clip-rule="evenodd" d="M12.1961 6H11.8359C11.8069 6.00431 11.7779 6.00838 11.7488 6.01244C11.6794 6.02216 11.6099 6.03188 11.541 6.04495C10.7195 6.19721 10.0307 6.88772 9.88407 7.71027C9.8616 7.83669 9.85036 7.96648 9.84924 8.09458C9.84721 8.34309 9.84757 8.59161 9.84794 8.84013C9.84828 9.07312 9.84862 9.30611 9.84699 9.5391C9.84362 9.96048 9.94868 10.3498 10.1701 10.7077C10.1932 10.7454 10.2162 10.7836 10.2401 10.8233C10.2551 10.8481 10.2704 10.8735 10.2864 10.8999C10.2537 10.9039 10.2257 10.9072 10.1989 10.9104C10.1921 10.9112 10.1853 10.912 10.1785 10.9128C10.1455 10.9171 10.1125 10.9214 10.0794 10.9256C10.0134 10.9341 9.94737 10.9426 9.88182 10.9516C9.84643 10.9566 9.81946 10.9493 9.7953 10.9201C9.41268 10.4605 8.92556 10.183 8.33674 10.0818C8.31158 10.0774 8.28642 10.0737 8.26137 10.0701C8.24165 10.0672 8.222 10.0643 8.20245 10.0611C8.19606 10.0603 8.18995 10.058 8.18272 10.0554C8.17977 10.0543 8.17665 10.0532 8.17324 10.0521C8.17582 10.0463 8.17812 10.0407 8.18036 10.0352C8.18447 10.0252 8.18838 10.0156 8.19346 10.0066C8.38 9.68799 8.45472 9.34132 8.4536 8.975C8.45192 8.60867 8.45135 8.24178 8.45135 7.87489C8.45135 7.51138 8.3446 7.18045 8.13953 6.88379C7.84399 6.45622 7.43159 6.20732 6.92031 6.13147C6.327 6.04326 5.80054 6.19833 5.35275 6.59893C4.99429 6.91863 4.81843 7.32428 4.80832 7.80185L4.80826 7.80447C4.80154 8.11262 4.79482 8.4202 4.79258 8.72778C4.7909 9.08962 4.81169 9.44976 4.92406 9.81047L4.91643 9.80798C4.8929 9.8003 4.87561 9.79466 4.85832 9.78856C4.53413 9.67282 4.20208 9.60483 3.85542 9.62113C3.05984 9.65821 2.38337 10.2071 2.21313 10.9859C2.17074 11.1803 2.17142 11.3763 2.17211 11.5725C2.17227 11.6156 2.17242 11.6586 2.17211 11.7017C2.17153 11.7857 2.17148 11.8697 2.17144 11.9538C2.17136 12.1113 2.17128 12.2689 2.16762 12.4264C2.15863 12.8063 2.23504 13.1647 2.41933 13.4985C2.42503 13.5088 2.43033 13.5192 2.43654 13.5314C2.44074 13.5397 2.44535 13.5487 2.45079 13.5591C2.42613 13.5634 2.40199 13.5675 2.37824 13.5715C2.32085 13.5812 2.26572 13.5905 2.21088 13.6013C1.7496 13.6945 1.34338 13.8951 1.00796 14.2289C0.782658 14.453 0.615226 14.7182 0.47364 15.0003C0.240472 15.4627 0.0921435 15.9509 0.0359584 16.4661C0.0271755 16.5485 0.0219679 16.6311 0.016765 16.7136C0.0139799 16.7577 0.0111961 16.8019 0.0078659 16.846C0.0070798 16.8546 0.00491884 16.863 0.00272956 16.8715C0.00178938 16.8751 0.000843979 16.8788 0 16.8825V17.7219C0.00131614 17.7552 0.00288396 17.7884 0.00445079 17.8217C0.00756604 17.8878 0.0106774 17.9539 0.0117989 18.0197C0.0129226 18.1227 0.012548 18.2257 0.0121734 18.3287C0.0119861 18.3802 0.0117989 18.4317 0.0117989 18.4832C0.0123607 18.7051 0.170241 18.8551 0.39161 18.8557C0.753962 18.8575 1.11595 18.8622 1.47787 18.8668C1.56827 18.868 1.65865 18.8692 1.74904 18.8703C1.77574 18.8706 1.80255 18.8715 1.82938 18.8725C1.8607 18.8737 1.89204 18.8748 1.92321 18.8748C2.36143 18.875 2.79972 18.8752 3.23802 18.8755C4.11414 18.876 4.99033 18.8765 5.86628 18.8765C6.56731 18.8768 7.26816 18.8762 7.96903 18.8757C8.5298 18.8752 9.09058 18.8748 9.65147 18.8748C10.4313 18.8748 11.2112 18.8759 11.991 18.8782C12.4735 18.8794 12.9559 18.8826 13.4384 18.8858C13.5992 18.8868 13.7601 18.8879 13.921 18.8888C14.102 18.8898 14.283 18.8913 14.4641 18.8928C14.8264 18.8958 15.1888 18.8988 15.5515 18.8973C15.8208 18.8963 16.0902 18.8911 16.3596 18.8858C16.5751 18.8816 16.7906 18.8774 17.0061 18.8754C17.5559 18.8709 18.1053 18.8693 18.6549 18.8676C18.7922 18.8672 18.9296 18.8668 19.067 18.8664C19.194 18.866 19.3211 18.8671 19.4483 18.8681C19.5393 18.8688 19.6304 18.8695 19.7215 18.8697C20.9829 18.8726 22.2442 18.8748 23.5056 18.8765C23.5618 18.8765 23.6185 18.8726 23.6736 18.8613C23.8814 18.8197 23.9961 18.6708 23.9972 18.4337C23.9975 18.3341 23.998 18.2345 23.9985 18.1349C24.0004 17.722 24.0024 17.3089 23.9938 16.8965C23.9803 16.2791 23.8534 15.6841 23.5854 15.1239C23.4359 14.8115 23.2623 14.5148 23.0201 14.2631C22.715 13.9457 22.3437 13.7429 21.9195 13.6344C21.8451 13.6151 21.7699 13.5996 21.6915 13.5833C21.6557 13.5759 21.6192 13.5684 21.5818 13.5603C21.5865 13.5504 21.5909 13.541 21.5951 13.5318C21.6034 13.5138 21.6111 13.4971 21.62 13.481C21.7386 13.2664 21.8279 13.0422 21.8549 12.7967C21.8605 12.7445 21.8633 12.6916 21.8633 12.6388C21.8638 12.567 21.8644 12.4952 21.865 12.4234C21.867 12.1845 21.8691 11.9457 21.8678 11.7073L21.8677 11.6885C21.8666 11.5076 21.8655 11.3263 21.8492 11.1471C21.8206 10.837 21.6936 10.5633 21.5026 10.3201C21.2267 9.96947 20.8733 9.73911 20.4328 9.64922C20.2227 9.60596 20.0103 9.61326 19.7979 9.63742C19.5445 9.66607 19.3007 9.73181 19.0692 9.83575C19.0796 9.79076 19.0904 9.74588 19.1012 9.70103C19.1253 9.60079 19.1494 9.50067 19.1692 9.39976C19.1872 9.30761 19.199 9.21266 19.2007 9.11883C19.2057 8.79408 19.2097 8.46877 19.2052 8.14346C19.2024 7.93726 19.199 7.72881 19.1681 7.52542C19.1203 7.20573 18.954 6.93829 18.7416 6.70007C18.4433 6.36576 18.0669 6.18316 17.6236 6.13035C17.2567 6.08596 16.9016 6.11911 16.5673 6.28373C16.0228 6.55174 15.6891 6.98436 15.5818 7.58386C15.5638 7.6833 15.561 7.78612 15.5599 7.88726C15.5586 7.99308 15.56 8.09908 15.5613 8.20507C15.5624 8.28983 15.5635 8.37458 15.5633 8.45922C15.5628 8.59683 15.5605 8.73413 15.5582 8.87158C15.5574 8.91764 15.5567 8.96372 15.556 9.00983C15.5498 9.36043 15.634 9.68855 15.8026 9.99532C15.8091 10.0071 15.8148 10.0192 15.821 10.0323C15.8239 10.0385 15.8269 10.0448 15.8301 10.0515C15.7926 10.0591 15.7554 10.0662 15.7184 10.0734C15.6403 10.0884 15.5633 10.1032 15.4874 10.1212C14.9935 10.2386 14.5789 10.4892 14.2485 10.8752C14.1991 10.933 14.1541 10.9628 14.0732 10.9432C14.0124 10.9286 13.9496 10.9224 13.8867 10.9162C13.8572 10.9133 13.8277 10.9104 13.7985 10.9066C13.7896 10.9054 13.7813 10.9028 13.7711 10.8995C13.7671 10.8982 13.7628 10.8968 13.758 10.8954L13.88 10.6926C14.1002 10.3234 14.2047 9.92677 14.1946 9.49471C14.1834 9.03512 14.1811 8.57496 14.194 8.11537C14.2182 7.2518 13.6119 6.33936 12.6225 6.07866C12.5372 6.05619 12.4496 6.04301 12.3621 6.02985C12.3205 6.0236 12.2789 6.01735 12.2377 6.01011C12.2279 6.00854 12.218 6.00588 12.2084 6.00327C12.2043 6.00214 12.2002 6.00102 12.1961 6ZM13.3681 7.72061L13.3681 7.72047C13.3448 7.6688 13.3227 7.61967 13.2984 7.5715C13.1473 7.27315 12.936 7.03437 12.622 6.89952C12.404 6.80569 12.1747 6.7821 11.9404 6.78828C11.55 6.79783 11.2213 6.94672 10.96 7.23607C10.7342 7.48553 10.6223 7.78163 10.6167 8.11818L10.6167 8.11993C10.6156 8.20077 10.6156 8.20087 10.6931 8.21481C10.718 8.21925 10.7429 8.22385 10.7677 8.22845C10.8373 8.2413 10.9069 8.25418 10.9769 8.2637C11.2179 8.29741 11.4522 8.28167 11.6814 8.18504C11.8792 8.10132 12.082 8.02603 12.286 7.95805C12.6152 7.84849 12.954 7.79062 13.3029 7.80972C13.3224 7.81082 13.3421 7.80928 13.3655 7.80746C13.3779 7.80649 13.3913 7.80544 13.4063 7.80466C13.393 7.77596 13.3805 7.74818 13.3683 7.7211L13.3682 7.72078L13.3681 7.72061ZM5.56288 7.89849C5.58783 7.90203 5.61223 7.90515 5.63622 7.90822C5.68085 7.91394 5.72408 7.91947 5.76683 7.92715C5.94438 7.95805 6.11855 7.96535 6.28879 7.88669C6.35863 7.85462 6.43141 7.8287 6.50415 7.8028L6.50416 7.80279C6.53207 7.79285 6.55997 7.78292 6.5877 7.77264C6.82592 7.68443 7.06695 7.60577 7.32035 7.57599C7.39916 7.56672 7.47824 7.5609 7.56251 7.5547C7.6008 7.55188 7.64016 7.54899 7.68106 7.54565C7.64873 7.50734 7.61755 7.46965 7.58691 7.43262L7.5869 7.4326C7.5169 7.348 7.44973 7.26681 7.37822 7.18944C7.32316 7.12988 7.25798 7.07763 7.18944 7.03437C6.83266 6.80682 6.33542 6.83884 5.97753 7.10404C5.71233 7.30068 5.5994 7.57487 5.56288 7.89849ZM18.409 7.52711C18.4107 7.52936 18.4102 7.53385 18.409 7.52823C18.3463 7.53862 18.2836 7.54747 18.2211 7.55628C18.0808 7.57605 17.9418 7.59564 17.8073 7.63218C17.5303 7.70803 17.2589 7.80523 16.9887 7.90243C16.8684 7.94513 16.751 7.96254 16.6263 7.94119C16.5353 7.92546 16.4437 7.91198 16.3527 7.89905C16.3246 7.89512 16.3156 7.88108 16.3206 7.85411C16.3566 7.64341 16.4122 7.44058 16.5471 7.26753C16.7117 7.0574 16.9353 6.9529 17.1904 6.90458C17.6505 6.81749 18.0011 6.99504 18.2764 7.35406C18.3048 7.39064 18.3329 7.42745 18.361 7.46435L18.409 7.52711ZM4.95119 10.9363L4.95124 10.9363L4.9513 10.9364L4.95132 10.9364C4.97492 10.9659 4.99823 10.9951 5.02126 11.0235C4.95043 11.0361 4.87982 11.0473 4.80959 11.0585C4.6475 11.0843 4.48749 11.1097 4.33187 11.1505C4.11499 11.2067 3.9043 11.2876 3.69585 11.3713C3.50763 11.4471 3.31997 11.4702 3.12164 11.4269C3.07618 11.4166 3.02961 11.4114 2.98233 11.406L2.98231 11.406L2.98229 11.406L2.98226 11.406L2.98224 11.406L2.98221 11.406C2.96232 11.4037 2.9423 11.4015 2.92218 11.3988L2.93151 11.3544C2.9743 11.1498 3.01566 10.9521 3.15086 10.7881C3.33627 10.5633 3.57393 10.433 3.86104 10.3937C4.25152 10.3403 4.57009 10.4735 4.82068 10.7752C4.86485 10.8283 4.9081 10.8824 4.95044 10.9353L4.95058 10.9355L4.9506 10.9355L4.95068 10.9356L4.95077 10.9357L4.95092 10.9359L4.95096 10.936L4.95102 10.936L4.95107 10.9361L4.95119 10.9363L4.95119 10.9363ZM21.0697 11.0179L21.0969 11.051C21.0764 11.0519 21.0568 11.053 21.0377 11.054L21.0377 11.054C21.0084 11.0556 20.9805 11.0571 20.9525 11.0578C20.5502 11.0685 20.1732 11.1859 19.8114 11.3488C19.5479 11.4674 19.2833 11.4567 19.0125 11.4056C18.9995 11.4033 18.9804 11.3763 18.9816 11.3623C19.0209 10.8763 19.3614 10.4661 19.8271 10.4043C20.0777 10.3712 20.3232 10.3959 20.553 10.5122C20.7059 10.5892 20.8194 10.7117 20.9256 10.8415C20.9716 10.8985 21.0181 10.9551 21.0688 11.0168L21.0695 11.0176L21.0696 11.0178L21.0697 11.0179ZM5.87527 8.71205C5.85355 8.71205 5.83177 8.7122 5.80998 8.71235C5.75906 8.71271 5.70803 8.71306 5.65727 8.71149C5.60895 8.7098 5.58198 8.72273 5.58142 8.77723C5.58142 8.81368 5.57835 8.84989 5.57527 8.88617L5.57527 8.88619L5.57526 8.88621L5.57526 8.88623L5.57526 8.88624L5.57526 8.88626L5.57526 8.88628L5.57526 8.8863L5.57526 8.88632L5.57525 8.88633L5.57525 8.88636L5.57525 8.88638C5.57359 8.90596 5.57192 8.92555 5.57075 8.94522C5.55389 9.25817 5.64154 9.53797 5.86572 9.75878C6.1871 10.0757 6.5759 10.133 6.99447 10.0009C7.38721 9.87677 7.65296 9.52336 7.67038 9.11434C7.67626 8.97052 7.67703 8.82648 7.6778 8.6825V8.68248V8.6824C7.67828 8.59242 7.67877 8.50246 7.68049 8.41259C7.68162 8.35528 7.64678 8.34348 7.60464 8.3446L7.57903 8.34539C7.49871 8.34783 7.41811 8.35028 7.33889 8.36146C7.13213 8.39067 6.93941 8.46596 6.74895 8.54631C6.46914 8.66373 6.17979 8.72891 5.87527 8.71205ZM18.9904 12.322V12.3219V12.3218V12.3217V12.3216C18.9907 12.2825 18.9911 12.2437 18.9911 12.2056C19.0361 12.2081 19.0802 12.2112 19.1237 12.2143C19.2199 12.221 19.3131 12.2276 19.4063 12.2264C19.6653 12.2236 19.9086 12.1438 20.1502 12.0567C20.1865 12.0435 20.2228 12.0298 20.259 12.0162C20.3872 11.968 20.5157 11.9196 20.648 11.8876C20.7371 11.8659 20.8307 11.8625 20.924 11.8591C20.9636 11.8577 21.0032 11.8562 21.0424 11.8534C21.0812 11.8505 21.098 11.8719 21.0975 11.9101C21.0964 11.9867 21.0963 12.0633 21.0962 12.1399C21.0959 12.3067 21.0957 12.4735 21.0857 12.6394C21.057 13.1153 20.6828 13.499 20.2086 13.558C19.8659 13.6007 19.558 13.5271 19.3024 13.2866C19.1063 13.1018 19.0023 12.8709 18.9922 12.6006C18.9887 12.5073 18.9896 12.4137 18.9904 12.3226V12.3225V12.3224V12.3224V12.3223V12.3223V12.3222V12.3222V12.3221V12.3221V12.322ZM16.3298 8.82088V8.82113V8.82151V8.82157V8.82163V8.8217V8.82176V8.82182V8.82188V8.82195V8.82201C16.3294 8.9035 16.3291 8.98532 16.3302 9.06714C16.3358 9.39245 16.4628 9.66102 16.7218 9.85654C17.0038 10.07 17.3247 10.1122 17.6623 10.0279C17.9933 9.94531 18.2315 9.74979 18.3545 9.4256C18.4146 9.26772 18.4326 9.10198 18.4349 8.93454C18.4364 8.84275 18.4361 8.75078 18.4358 8.65884C18.4355 8.58364 18.4352 8.50845 18.436 8.43337C18.4371 8.35584 18.4309 8.34685 18.3517 8.34404C18.0848 8.33393 17.8359 8.40697 17.5938 8.51091C17.31 8.63283 17.0168 8.71823 16.7061 8.72273C16.6212 8.72389 16.536 8.71643 16.4484 8.70874C16.4095 8.70534 16.3702 8.70189 16.3302 8.69913C16.3302 8.73927 16.33 8.77953 16.3298 8.81988V8.82013V8.82038V8.82064V8.82088ZM2.94572 12.2138C2.9465 12.2073 2.94736 12.2002 2.94803 12.1922L3.01633 12.2011L3.01634 12.2011C3.05368 12.2061 3.09019 12.211 3.1267 12.2152C3.41998 12.2511 3.70091 12.2 3.97565 12.1C4.03188 12.0793 4.08796 12.0581 4.14405 12.0369L4.14413 12.0369L4.14421 12.0368L4.14429 12.0368L4.14437 12.0368L4.14446 12.0367C4.27431 11.9876 4.40425 11.9384 4.53638 11.8961C4.68415 11.8494 4.83809 11.8331 4.99373 11.8528C5.03362 11.8573 5.0516 11.8741 5.05103 11.9152C5.04907 12.0135 5.04785 12.112 5.04664 12.2104L5.04664 12.2105L5.04664 12.2106L5.04664 12.2106L5.04663 12.2107L5.04663 12.2108L5.04663 12.2108L5.04663 12.2109L5.04663 12.211C5.04507 12.3373 5.04352 12.4637 5.04036 12.5899C5.028 13.0776 4.67797 13.472 4.1959 13.5468C3.9543 13.5839 3.71664 13.5805 3.49639 13.4602C3.14299 13.267 2.95533 12.9675 2.94466 12.5619C2.94262 12.4842 2.94295 12.4063 2.94328 12.3283L2.94353 12.2405C2.94353 12.232 2.94455 12.2236 2.94572 12.2138L2.94572 12.2138ZM10.6094 9.3093H10.6145L10.6147 9.23609C10.6149 9.17509 10.6151 9.11409 10.6139 9.05309C10.6134 9.0132 10.6235 8.99972 10.6679 9.00534L10.7113 9.01104L10.7113 9.01104C10.8643 9.03115 11.0172 9.05126 11.1707 9.06152C11.4252 9.0795 11.6668 9.01433 11.9045 8.92836L12.0038 8.89198C12.2257 8.81063 12.4476 8.72928 12.6725 8.65643C12.8855 8.58732 13.1057 8.56653 13.3282 8.61541C13.4142 8.63395 13.4277 8.65924 13.4271 8.74857C13.426 8.8654 13.4261 8.98235 13.4262 9.0993C13.4263 9.22928 13.4263 9.35926 13.4249 9.48909C13.4232 9.65596 13.4142 9.82395 13.3557 9.9824C13.1692 10.4909 12.8147 10.8072 12.2753 10.8965C11.9303 10.9544 11.5966 10.91 11.2909 10.733C10.9134 10.5139 10.6999 10.1779 10.637 9.74923C10.6223 9.64944 10.6187 9.54806 10.6152 9.44673V9.44671C10.6136 9.40084 10.612 9.35499 10.6094 9.3093ZM9.0368 11.2145L9.03541 11.2136C8.86058 11.0971 8.6868 10.9812 8.48675 10.9179C8.38393 10.8859 8.27549 10.8572 8.16874 10.8544C7.86387 10.8456 7.559 10.8453 7.25412 10.845L7.11696 10.8448C6.93729 10.8445 6.75781 10.8457 6.5783 10.8468H6.57824H6.57818H6.57812H6.57806H6.578C6.44325 10.8477 6.30848 10.8485 6.17361 10.8488C6.10532 10.8491 6.03704 10.8479 5.96865 10.8468L5.9686 10.8468L5.96849 10.8468C5.91708 10.8459 5.8656 10.8451 5.81403 10.8448C5.80077 10.8448 5.78726 10.847 5.77305 10.8493L5.77304 10.8493L5.77303 10.8493L5.77302 10.8493C5.76556 10.8505 5.7579 10.8517 5.74998 10.8527L5.7702 10.9387C5.81745 11.1447 5.81742 11.3539 5.8174 11.5632V11.5632L5.8174 11.5775C5.8174 11.6563 5.81651 11.7351 5.81563 11.8139C5.81369 11.9859 5.81176 12.1577 5.81908 12.3292C5.83706 12.7489 5.77076 13.1456 5.55501 13.5114C5.54999 13.52 5.54657 13.5293 5.54242 13.5406C5.54006 13.547 5.53748 13.554 5.53423 13.5619C5.54672 13.5644 5.55832 13.5669 5.56943 13.5692L5.56944 13.5692C5.58631 13.5728 5.60202 13.5761 5.61794 13.5788C6.00843 13.6429 6.37419 13.7732 6.68714 14.0199C6.7996 14.1087 6.90462 14.2072 7.00951 14.3055C7.05711 14.3502 7.10469 14.3948 7.15292 14.4384C7.15868 14.4434 7.16497 14.4479 7.17179 14.4527L7.18157 14.4598C7.19198 14.4023 7.2017 14.3453 7.21136 14.2887C7.23193 14.168 7.25221 14.049 7.27821 13.9316C7.40519 13.3636 7.59903 12.8209 7.90973 12.3259C8.11256 12.0022 8.34235 11.7011 8.65699 11.4758C8.74069 11.4161 8.82594 11.3581 8.91238 11.2994C8.95359 11.2714 8.99508 11.2432 9.0368 11.2145ZM18.2062 10.8493H18.277C18.2724 10.8819 18.2671 10.9131 18.262 10.9434C18.2522 11.002 18.2429 11.0573 18.2399 11.1128C18.2298 11.3157 18.2247 11.5191 18.2214 11.7219C18.2197 11.8129 18.2199 11.9039 18.22 11.995C18.2203 12.1163 18.2205 12.2377 18.2163 12.359C18.2023 12.768 18.2731 13.1568 18.4742 13.517C18.479 13.5258 18.483 13.535 18.4881 13.5468L18.4882 13.5469L18.495 13.5625C17.8191 13.6445 17.2707 13.9564 16.8212 14.4682L16.8049 14.3789C16.7916 14.3056 16.7789 14.2359 16.7656 14.1659C16.6375 13.4912 16.4257 12.8473 16.0504 12.2652C15.7756 11.8404 15.4284 11.491 14.9896 11.2353C14.9846 11.2325 14.9798 11.2292 14.974 11.2251L14.974 11.2251L14.9626 11.2173L14.9741 11.2084L14.9742 11.2084C14.984 11.2007 14.993 11.1937 15.002 11.1876C15.2452 11.0229 15.5065 10.896 15.7998 10.86C15.9264 10.8443 16.0551 10.8447 16.1834 10.8451H16.1834H16.1835H16.1835H16.1835C16.2295 10.8453 16.2754 10.8454 16.3212 10.8448C16.4785 10.843 16.6358 10.843 16.793 10.8431H16.7932L16.8875 10.8432C16.909 10.8434 16.9304 10.8447 16.9517 10.8459C16.9755 10.8474 16.9992 10.8488 17.0229 10.8488C17.4174 10.8493 17.8118 10.8493 18.2062 10.8493ZM21.8964 18.1006V18.109H23.123C23.1994 18.109 23.2072 18.0978 23.2072 18.0146C23.2065 17.9091 23.2067 17.8036 23.2069 17.6981C23.2071 17.5457 23.2073 17.3933 23.205 17.2409C23.2042 17.191 23.2036 17.1409 23.2031 17.0909C23.2011 16.8992 23.1991 16.7076 23.1808 16.5173C23.1308 15.9959 22.9493 15.5161 22.669 15.0756C22.374 14.6126 21.947 14.3688 21.3986 14.3412C21.2099 14.3322 21.0211 14.3311 20.8323 14.3311C20.1614 14.3311 19.4906 14.3322 18.8203 14.3345C18.7259 14.335 18.6315 14.3412 18.5377 14.3513C18.0685 14.4019 17.6921 14.6177 17.4258 15.0059C17.0516 15.5503 16.8623 16.1588 16.8437 16.8184C16.837 17.0663 16.8356 17.3142 16.8341 17.5621C16.8335 17.6665 16.8329 17.7709 16.8319 17.8753L16.8316 17.8928V17.893V17.8931C16.8311 17.9274 16.8306 17.9615 16.8325 17.9955C16.8353 18.059 16.8561 18.0792 16.919 18.0826C16.9409 18.0836 16.9629 18.0834 16.9847 18.0832H16.9847C16.9992 18.0831 17.0137 18.0829 17.028 18.0832L17.6542 18.0848C18.2815 18.0863 18.9088 18.0879 19.5361 18.0905C19.7359 18.091 19.9358 18.0933 20.1356 18.0956C20.3173 18.0977 20.4989 18.0998 20.6806 18.1006C20.9505 18.1017 21.2204 18.1013 21.4904 18.1009H21.4906H21.4907H21.4908C21.626 18.1008 21.7612 18.1006 21.8964 18.1006ZM3.63239 14.3336C3.74696 14.3338 3.86156 14.3339 3.97622 14.3339C4.09136 14.3339 4.20645 14.3338 4.32152 14.3336H4.32159H4.32165C4.59004 14.3333 4.85833 14.3329 5.12688 14.3345C5.36286 14.3356 5.59772 14.3468 5.8247 14.4255C6.16743 14.5446 6.42532 14.7666 6.61691 15.0683C6.8939 15.5031 7.06808 15.9762 7.13213 16.4881C7.14955 16.6263 7.15685 16.7667 7.15797 16.9061C7.16038 17.1734 7.15992 17.441 7.15946 17.7084C7.15928 17.8154 7.1591 17.9223 7.1591 18.0292C7.1591 18.1011 7.15348 18.1068 7.08212 18.1068C6.93064 18.1064 6.77916 18.1062 6.62767 18.106C6.32462 18.1056 6.02157 18.1053 5.71851 18.1034C5.5096 18.1021 5.30068 18.0997 5.09177 18.0972L5.09141 18.0972C4.84085 18.0943 4.59029 18.0914 4.33973 18.0905C3.76889 18.0885 3.19805 18.0872 2.62721 18.086C2.05637 18.0847 1.48553 18.0834 0.914692 18.0815C0.898633 18.0814 0.884458 18.0816 0.871947 18.0817H0.871838C0.82703 18.0823 0.803593 18.0826 0.791362 18.071C0.777948 18.0583 0.778015 18.0314 0.778154 17.9749L0.778163 17.9427L0.777734 17.8682C0.776146 17.5953 0.774558 17.3223 0.778163 17.0493C0.785467 16.4982 0.871992 15.9627 1.1119 15.4599C1.24337 15.1851 1.39957 14.9256 1.62824 14.7182C1.86591 14.5025 2.14908 14.3845 2.46652 14.3525C2.58732 14.3401 2.70924 14.3351 2.83116 14.3345C3.09811 14.3329 3.36505 14.3333 3.63218 14.3336H3.63229H3.63239ZM14.0328 18.1118V18.1157H15.9414C16.0442 18.1157 16.0577 18.1011 16.0577 17.9989C16.0574 17.9081 16.0569 17.8175 16.0564 17.7269L16.0563 17.7253C16.0556 17.6038 16.0549 17.4823 16.0549 17.3606C16.0549 17.2128 16.0555 17.065 16.0561 16.9172C16.0569 16.7199 16.0578 16.5226 16.0571 16.3251C16.0566 16.1226 16.0552 15.92 16.0538 15.7174C16.0521 15.4641 16.0504 15.2107 16.0504 14.9576C16.0504 14.6767 16.0262 14.3991 15.9712 14.1244C15.8453 13.4951 15.5958 12.9197 15.1975 12.4158C14.834 11.9562 14.3497 11.7191 13.7642 11.7033C13.4764 11.696 13.1883 11.6958 12.9001 11.6957C12.772 11.6957 12.6439 11.6956 12.5158 11.6949C12.4242 11.6944 12.413 11.7067 12.413 11.7994C12.4135 12.2045 12.4135 12.6096 12.4135 13.0147C12.4141 13.2765 12.4141 13.5383 12.413 13.7996C12.4118 14.0109 12.2562 14.1794 12.0478 14.1985C11.8612 14.2154 11.6758 14.0682 11.6399 13.8715C11.6297 13.8165 11.6264 13.7597 11.6264 13.7035C11.6264 13.3259 11.627 12.9483 11.6276 12.5707L11.6276 12.5689C11.628 12.3167 11.6284 12.0645 11.6286 11.8123C11.6292 11.7028 11.6118 11.687 11.5016 11.6921H11.496C11.4416 11.6923 11.3871 11.6922 11.3327 11.6922C11.1964 11.6922 11.0601 11.6921 10.9241 11.6949C10.8452 11.6968 10.7662 11.6979 10.6871 11.699C10.4645 11.702 10.2418 11.705 10.0212 11.7269C9.58404 11.7708 9.21603 11.9713 8.91207 12.2877C8.67328 12.5366 8.50192 12.831 8.35584 13.1411C8.07491 13.7384 7.9558 14.3733 7.93501 15.0284C7.93003 15.1889 7.93289 15.3499 7.93574 15.511C7.93708 15.5861 7.93841 15.6612 7.93895 15.7363C7.94007 15.8689 7.94119 16.0015 7.94176 16.1341L7.94257 16.4375C7.94319 16.6398 7.94382 16.842 7.94344 17.0443C7.94319 17.1903 7.94235 17.3365 7.94151 17.4827V17.4827L7.94151 17.483C7.94051 17.6583 7.93951 17.8337 7.93951 18.009C7.93951 18.0837 7.95861 18.1028 8.0339 18.1045C8.10547 18.1059 8.17704 18.1056 8.24862 18.1052C8.29335 18.105 8.33808 18.1048 8.38281 18.1051L12.2 18.1118C12.6071 18.1122 13.0142 18.1121 13.4214 18.1119H13.4215L14.0328 18.1118Z" fill="#0C1E3C"/>
</svg>
