<svg width="24" height="24" viewBox="0 0 24 24" fill="none" xmlns="http://www.w3.org/2000/svg">
<path fill-rule="evenodd" clip-rule="evenodd" d="M21.2186 4.03112L20.9947 4.08611C20.2313 4.27358 19.4677 4.46111 18.7051 4.65268C18.5888 4.68197 18.5021 4.67221 18.4041 4.59004C17.9876 4.24224 17.4982 4.05512 16.9613 4.01079C15.082 3.85621 13.7197 5.38976 13.7481 6.89972C13.7624 7.66934 13.465 8.34866 12.9313 8.91001C11.8851 10.0103 10.3101 10.1674 9.00267 9.30336C7.65546 8.41295 6.30956 7.52104 4.9637 6.62916C4.32607 6.20661 3.68845 5.78407 3.05071 5.36169C2.57722 5.04807 2.27254 5.11885 2 5.60372V6.22894C2.00392 6.2396 2.00843 6.25022 2.01295 6.26086L2.01295 6.26087C2.02345 6.28558 2.03401 6.31046 2.03742 6.33633C2.18834 7.45985 2.696 8.3934 3.54657 9.13821L3.83758 9.39307L3.83766 9.39314C4.65115 10.1057 5.46463 10.8183 6.29435 11.5118C6.59658 11.7648 6.7949 12.5616 6.80363 12.6072C7.30681 15.2561 8.84199 16.9984 11.4083 17.8201C11.6631 17.9016 11.9286 17.9493 12.1974 17.9976L12.1974 17.9976L12.1974 17.9976L12.1974 17.9976C12.3227 18.0201 12.4487 18.0428 12.5746 18.069V19.4593C12.38 19.4593 12.1866 19.4591 11.9939 19.4589H11.9938H11.9937H11.9936C11.6104 19.4584 11.2302 19.458 10.8503 19.4593C10.4996 19.4605 10.3079 19.5959 10.3039 19.9266C10.2998 20.2692 10.4915 20.4039 10.8503 20.4051C10.9897 20.4055 11.1292 20.406 11.2686 20.4066H11.2686H11.2686H11.2687C11.8907 20.409 12.5126 20.4115 13.1343 20.3982C13.284 20.3954 13.4581 20.3307 13.5757 20.2371C14.1004 19.8198 14.5946 19.8133 15.106 20.2457C15.3716 20.4702 15.695 20.3278 15.8289 20.2371C15.9628 20.1465 16.0669 19.6565 15.8862 19.4593C15.7054 19.2621 15.3821 19.1025 15.0006 19.0768C14.7773 19.0617 14.5185 19.0554 14.2692 19.0494C14.0926 19.0452 13.9208 19.041 13.7697 19.0339V18.0723C13.9047 18.042 14.0384 18.0147 14.1709 17.9877L14.1709 17.9877C14.454 17.9299 14.731 17.8733 15.0006 17.7924C17.667 16.9919 19.5203 14.443 19.6073 11.6297C19.6277 10.9707 19.6239 10.3111 19.62 9.65143V9.65141V9.6514V9.65138C19.6177 9.25643 19.6154 8.86147 19.6183 8.46662C19.6191 8.35883 19.6566 8.23517 19.7168 8.14568C20.1941 7.43378 20.6752 6.72444 21.1563 6.0152L21.1568 6.01449L21.1583 6.01225L21.1594 6.01064L21.16 6.0098C21.3968 5.66068 21.6335 5.31159 21.8698 4.96224C22.0374 4.7137 22.0415 4.46678 21.8926 4.252C21.7458 4.03967 21.5078 3.96035 21.2186 4.03112ZM19.8315 6.66826C19.7438 6.42622 19.6848 6.15792 19.6266 5.89357C19.5702 5.63768 19.5147 5.38549 19.4349 5.16441L19.6325 5.1199L19.6326 5.11987L19.633 5.11978C20.0852 5.01792 20.5093 4.92238 20.9347 4.82963L19.8315 6.66826ZM14.6878 16.8658C17.1089 16.4203 18.736 13.939 18.795 11.4194C18.8231 10.2236 18.8135 9.02659 18.8038 7.82989V7.82974V7.82953V7.82931C18.8018 7.58845 18.7999 7.3476 18.7983 7.10677C18.7946 6.6284 18.7116 6.15735 18.505 5.71722C18.2837 5.24657 18.023 5.0322 17.3538 4.8939C16.1229 4.63926 14.7163 5.67735 14.6894 6.94487C14.667 8.01876 14.5873 8.53089 13.8844 9.34282C13.7914 9.45061 13.6908 9.55204 13.591 9.65255L13.591 9.65256L13.591 9.65257C13.5459 9.69809 13.5009 9.74341 13.4569 9.78905C13.4582 9.79412 13.459 9.79848 13.4597 9.80215C13.4608 9.80849 13.4616 9.81277 13.4642 9.81509C13.4792 9.82973 13.4943 9.84397 13.5114 9.85536C14.2936 10.3895 14.6361 11.1314 14.6158 12.0564C14.5873 13.3577 13.4073 14.5597 12.0803 14.6045C11.8949 14.611 11.7252 14.6102 11.5503 14.5988C11.5503 14.5988 11.1191 14.5719 10.7144 14.4772C9.45989 14.1835 7.55576 12.4473 7.50858 12.39C7.50817 12.3896 7.50654 12.3871 7.50491 12.3875C7.48126 12.3942 7.64944 13.0743 7.6661 13.1417L7.66722 13.1462C7.77054 13.5578 8.57474 15.7154 10.8437 16.6778C11.207 16.832 12.78 17.2168 14.6878 16.8658ZM3.2846 7.75029C3.06255 7.53368 2.99401 7.18916 2.92514 6.84299C2.88084 6.62034 2.83641 6.397 2.75091 6.20657C2.73182 6.16445 2.71602 6.12058 2.70017 6.07658C2.69306 6.05684 2.68594 6.03707 2.6785 6.01742L2.71755 5.98203L3.28799 6.40533C3.66827 6.68744 4.04854 6.96956 4.42846 7.25239C5.63537 8.15096 6.84146 9.04994 8.04796 9.94933C9.21134 10.8166 10.4691 11.0468 11.8277 10.6974C12.082 10.6319 12.3749 10.6225 12.6254 10.6945C13.6009 10.9736 13.8852 12.3367 13.1652 13.2027C12.8553 13.5757 12.4656 13.7519 12.0165 13.7397C10.6753 13.7039 9.50138 13.1832 8.4885 12.1919C7.67763 11.3982 6.77646 10.6792 5.87538 9.96022C4.98236 9.24772 4.08944 8.53528 3.2846 7.75029ZM16.7995 6.86322C16.7995 7.18845 17.0656 7.45413 17.3904 7.45413C17.7153 7.45413 17.9813 7.18845 17.9813 6.86322C17.9813 6.53841 17.7153 6.27273 17.3904 6.27273C17.0656 6.27273 16.7995 6.53841 16.7995 6.86322Z" fill="#0C1E3C"/>
</svg>
