<svg width="24" height="24" viewBox="0 0 24 24" fill="none" xmlns="http://www.w3.org/2000/svg">
<path fill-rule="evenodd" clip-rule="evenodd" d="M9.64104 3.02241L9.64103 3.0224C9.58453 3.0153 9.52801 3.00819 9.47162 3H8.25406C8.11138 3.01943 7.96855 3.03697 7.82581 3.0545C7.50502 3.09389 7.18462 3.13323 6.86717 3.19395C5.71426 3.41252 4.58597 3.70499 3.61008 4.40535C2.76502 5.01183 2.10313 5.75837 1.77065 6.76352C1.73832 6.86049 1.64135 6.94977 1.55361 7.01134C1.40826 7.11219 1.25877 7.20726 1.10947 7.30222C0.850861 7.46671 0.592784 7.63085 0.357598 7.82407C-0.154979 8.2443 -0.105722 8.87847 0.436101 9.26945C0.920971 9.61886 1.49358 9.67582 2.06465 9.68813C2.37666 9.69445 2.68908 9.68496 3.00149 9.67547C3.29786 9.66647 3.59422 9.65747 3.89022 9.66196C4.27119 9.6679 4.65217 9.69101 5.03314 9.71413H5.03314H5.03315C5.24479 9.72697 5.45644 9.73981 5.66808 9.7497C5.86511 9.75894 5.97901 9.83436 6.06675 10.0283C6.52084 11.0242 7.15348 11.8847 8.06011 12.5188C8.23866 12.6435 8.43261 12.7482 8.62964 12.839C9.31615 13.1576 9.87953 12.9375 10.1812 12.2125L10.2592 12.256C10.3181 12.289 10.3763 12.3216 10.4352 12.3526C11.0063 12.6528 11.6066 12.7682 12.2469 12.6528C12.6302 12.582 12.7887 12.428 12.8749 11.9986C13.1154 12.1592 13.3534 12.3178 13.59 12.4754L13.59 12.4754L13.5901 12.4754L13.5907 12.4759L13.5909 12.476C13.9614 12.7228 14.3282 12.9671 14.6944 13.2131C14.76 13.2573 14.8225 13.3056 14.885 13.3538L14.8851 13.3538L14.8851 13.3538C14.9399 13.396 14.9947 13.4383 15.0515 13.4778C15.2808 13.6394 15.5117 13.6163 15.6503 13.4239C15.7811 13.2423 15.7395 13.0053 15.5225 12.8529C15.4252 12.7848 15.3281 12.7166 15.231 12.6484L15.2305 12.648C14.7343 12.2995 14.2381 11.9509 13.7246 11.6292C13.4212 11.4397 13.1044 11.2728 12.7875 11.1058L12.7875 11.1058L12.7875 11.1058C12.5868 11 12.386 10.8942 12.1884 10.7826C12.073 10.7179 11.9452 10.6225 11.8898 10.5086C11.7287 10.1739 11.5818 9.83248 11.435 9.49118C11.3826 9.36944 11.3302 9.24771 11.2772 9.1263C11.2621 9.09106 11.252 9.05399 11.242 9.01708C11.2336 8.98628 11.2253 8.9556 11.2141 8.92619C11.131 8.69992 10.9462 8.58447 10.7492 8.63373C10.5383 8.68607 10.4106 8.88771 10.466 9.1263C10.5214 9.36796 10.5953 9.60655 10.6784 9.84052C10.9447 10.5948 11.3957 11.2382 11.9098 11.8785C11.5804 11.9539 11.2941 11.8647 11.0186 11.7569C10.4706 11.5414 10.0612 11.1458 9.71021 10.6887C9.11605 9.91286 8.722 9.03394 8.40337 8.11654C8.27253 7.73634 8.10783 7.61319 7.84923 7.69324C7.60294 7.7702 7.5306 7.99955 7.65682 8.3659C7.73039 8.57832 7.81094 8.78796 7.89799 9.01452L7.898 9.01454C7.94026 9.12453 7.98405 9.2385 8.02932 9.35873C6.17743 8.87586 4.31411 8.87087 2.45907 8.8659C2.16163 8.8651 1.8644 8.86431 1.56746 8.86154C1.73939 8.82421 1.91213 8.78964 2.08493 8.75505L2.08494 8.75505C2.4892 8.67414 2.89369 8.59319 3.28837 8.47673C3.6882 8.36011 4.06865 8.16601 4.44293 7.97505L4.46129 7.96569C4.79224 7.79637 4.87228 7.57625 4.74144 7.35152C4.6106 7.12678 4.38125 7.1037 4.06878 7.29303C3.29607 7.76096 2.43715 7.93028 1.55361 8.01956C1.52437 8.02264 1.49358 8.01956 1.44278 7.97338C1.50961 7.93701 1.57765 7.90212 1.64575 7.8672L1.64575 7.8672L1.64575 7.8672C1.80822 7.78388 1.97101 7.70039 2.11852 7.59626C2.25552 7.49929 2.40945 7.35921 2.45255 7.20837C2.76964 6.10009 3.51618 5.35662 4.47207 4.79479C5.30481 4.3053 6.23607 4.09904 7.17503 3.93742C8.00777 3.79426 8.84822 3.74347 9.69327 3.83582C9.77947 3.84506 9.86567 3.84352 9.95187 3.84044C10.1628 3.83121 10.3121 3.69883 10.3367 3.50334C10.3613 3.31401 10.2474 3.137 10.0427 3.08774C9.91038 3.05629 9.77578 3.03936 9.64104 3.02241ZM9.30692 12.1371C9.2161 12.1879 9.04832 12.1617 8.94211 12.1109C7.98776 11.6599 7.3936 10.8626 6.87025 9.89747L7.19065 9.96808C7.62033 10.0626 8.01619 10.1497 8.41106 10.2438C8.46497 10.2573 8.51305 10.3247 8.55105 10.3779L8.55421 10.3823C8.59528 10.4407 8.63667 10.4988 8.67808 10.557C8.83998 10.7847 9.00219 11.0127 9.14683 11.2505C9.24996 11.4198 9.32693 11.6122 9.37311 11.8046C9.39927 11.9093 9.37311 12.0986 9.30692 12.1371ZM23.8711 21.479L23.871 21.4786L23.871 21.4786C23.7764 21.1433 23.6819 20.8081 23.5661 20.4809C23.2706 19.6528 22.9011 18.8493 22.2485 18.2443C21.8806 17.9026 21.6928 17.5778 21.6682 17.0514C21.6082 15.7492 21.1926 14.5177 20.6969 13.3171C20.0258 11.6978 19.1546 10.1862 18.194 8.72393C18.0878 8.56231 18.0093 8.36374 17.9801 8.17287C17.8939 7.58795 17.9308 7.00611 18.1217 6.44119C18.2879 5.95324 18.5773 5.55765 19.016 5.27597C19.1007 5.22055 19.1869 5.16206 19.2577 5.09125C19.6225 4.72183 19.4655 4.11228 18.9575 3.94142C18.3711 3.74285 17.7723 3.77672 17.1735 3.86599C16.3408 3.99067 15.5588 4.27082 14.8123 4.65102C14.666 4.72491 14.5645 4.70797 14.4352 4.62331C13.5886 4.06302 12.6681 3.66743 11.6952 3.39344C11.4182 3.31493 11.2119 3.40729 11.1365 3.63049C11.0626 3.84598 11.1842 4.04301 11.4536 4.13998C11.5182 4.16461 11.586 4.18616 11.6522 4.20617C12.4818 4.44784 13.2884 4.76031 13.9749 5.28058C14.4275 5.62384 14.7799 5.57612 15.2417 5.3283C16.1591 4.83881 17.1427 4.54789 18.2017 4.59253C18.2653 4.59455 18.3283 4.60451 18.4057 4.61677L18.4058 4.61678C18.4464 4.62321 18.4911 4.63028 18.5419 4.63717C18.0632 4.98658 17.7184 5.38218 17.4983 5.87628C17.0904 6.78753 17.0765 7.73418 17.2628 8.69469C17.2807 8.78541 17.3389 8.86978 17.3951 8.9513L17.3951 8.95133C17.4066 8.968 17.4181 8.98454 17.429 9.001C18.3957 10.4495 19.27 11.9502 19.9427 13.5619C20.3552 14.5485 20.6923 15.5598 20.8447 16.6219C20.9016 17.0144 20.9109 17.4162 20.9032 17.8118C20.8985 18.0611 20.9755 18.2243 21.1772 18.3598C22.1546 19.0186 22.581 20.033 22.9658 21.1597C21.4896 20.2608 19.9534 19.7682 18.2171 19.7189C18.2952 19.6445 18.3671 19.5709 18.4364 19.4999C18.5749 19.3581 18.7031 19.2268 18.8498 19.1202C19.1884 18.8723 19.544 18.6445 19.9088 18.4398C20.2751 18.2366 20.3413 18.0304 20.1027 17.6948C19.1299 16.3295 18.0463 15.0626 16.8072 13.9313C16.7925 13.9179 16.7779 13.9044 16.7633 13.8908C16.7089 13.8402 16.6542 13.7894 16.5947 13.7481C16.4285 13.6357 16.2038 13.6604 16.0853 13.8066C15.9575 13.9636 15.9436 14.1345 16.0714 14.2992C16.1283 14.3731 16.1976 14.4377 16.2669 14.5008C17.3259 15.4675 18.271 16.5357 19.1238 17.6856C19.1653 17.7425 19.2054 17.7995 19.2485 17.861C19.1586 17.9252 19.0689 17.9882 18.9797 18.0509L18.9797 18.0509C18.8076 18.1718 18.6374 18.2915 18.4711 18.4152C17.9262 18.8215 17.4937 19.331 17.1166 19.8929C17.018 20.0391 16.9796 20.1915 17.0765 20.3516C17.1704 20.5101 17.3182 20.5548 17.4968 20.5424C19.2485 20.4147 20.8678 20.838 22.3716 21.7246C22.6286 21.8762 22.8737 22.0503 23.1178 22.2237C23.1661 22.258 23.2145 22.2923 23.2629 22.3265C23.6046 22.5666 23.7616 22.545 24.0002 22.211V21.9293C23.9559 21.7797 23.9135 21.6294 23.8711 21.479ZM5.02636 6.05453C5.02944 5.81286 5.23262 5.61738 5.48044 5.61892C5.72981 5.62045 5.92068 5.8144 5.91914 6.06376C5.91606 6.30697 5.71134 6.51169 5.47121 6.50707C5.23878 6.504 5.02328 6.28542 5.02636 6.05453Z" fill="#0C1E3C"/>
</svg>
