<svg width="24" height="24" viewBox="0 0 24 24" fill="none" xmlns="http://www.w3.org/2000/svg">
<path fill-rule="evenodd" clip-rule="evenodd" d="M23.6126 9.4297C20.5579 8.14226 17.2509 7.43545 13.9438 7.2838L13.0853 2.56301C13.0348 2.26012 12.7825 2.05816 12.5048 2.03278C8.38999 1.83095 4.1992 2.56301 0.38723 4.17868C0.134872 4.27975 -0.0418872 4.58264 0.00864758 4.86034L1.04373 10.7929C1.24569 11.9289 1.64965 13.0145 2.28078 13.999C3.46728 15.9176 5.53727 17.0537 7.75891 17.0537C8.13749 17.0537 8.5163 17.0285 8.89488 16.9528C9.22311 16.9023 9.5512 16.8014 9.85423 16.7003C9.86259 16.7506 9.86818 16.801 9.87376 16.8513C9.88497 16.9524 9.89618 17.0535 9.92992 17.1546C10.46 19.78 12.5048 21.7492 15.1051 22.2036C15.4837 22.2793 15.8625 22.3045 16.2411 22.3045C18.4374 22.3045 20.5075 21.1685 21.7192 19.2498C22.3251 18.2652 22.7543 17.1796 22.9563 16.0436L23.9914 10.1111C24.0419 9.83375 23.8651 9.53086 23.6128 9.42979L23.6126 9.4297ZM3.36621 13.3426C4.47694 15.1603 6.57231 16.0943 8.66763 15.7157L8.66768 15.7158C10.763 15.337 12.404 13.7467 12.8332 11.6512C13.0351 10.6667 13.0605 9.6821 12.8837 8.69755L11.9244 3.26991C8.31434 3.16898 4.70433 3.8001 1.34676 5.13807L2.30593 10.591C2.48255 11.5755 2.83598 12.4843 3.36621 13.3426ZM20.6337 18.5682C21.1637 17.7351 21.5172 16.8011 21.694 15.8166L22.6532 10.3888C19.9772 9.32854 17.074 8.72262 14.1709 8.57115C14.3477 9.60623 14.3477 10.6665 14.1458 11.7016C14.2468 11.8782 14.4235 12.0298 14.6255 12.055C14.878 12.1053 15.1557 12.0045 15.3071 11.8025C15.5091 11.5248 15.913 11.4744 16.1908 11.7016C16.4685 11.9036 16.5188 12.3075 16.2917 12.5852C15.9131 13.0647 15.3323 13.3172 14.7517 13.3172C14.6255 13.3172 14.5246 13.3172 14.3983 13.2921C14.1711 13.2415 13.944 13.1658 13.742 13.0395C13.1866 14.3521 12.2524 15.4378 11.0407 16.1446C11.0661 16.3971 11.1164 16.6495 11.167 16.902C11.5961 18.9722 13.237 20.5627 15.3323 20.9413C17.4276 21.3198 19.4977 20.3858 20.6337 18.5682ZM13.4136 16.5993C14.0953 15.7661 15.2061 15.3874 16.2663 15.5642H16.2663C17.3517 15.7408 18.2102 16.473 18.5886 17.4828C18.7149 17.811 18.5383 18.1644 18.2101 18.2907C18.1343 18.3161 18.0586 18.3412 17.9829 18.3412C17.7052 18.3412 17.4779 18.1898 17.377 17.9373C17.1498 17.3315 16.645 16.9022 16.0138 16.8013C15.4081 16.7003 14.777 16.9275 14.373 17.4072C14.171 17.6597 13.7671 17.7101 13.4894 17.4829C13.2368 17.2809 13.1865 16.877 13.4136 16.5993ZM18.8413 14.1C18.9676 14.1252 19.0685 14.1252 19.1947 14.1252C19.7753 14.1252 20.3561 13.8726 20.7347 13.3932C20.9618 13.1154 20.9115 12.7115 20.6338 12.5095C20.356 12.2824 19.9521 12.3327 19.7501 12.6104C19.5987 12.8124 19.321 12.9133 19.0685 12.8629C18.8159 12.8124 18.5888 12.6357 18.5131 12.3832C18.3868 12.055 18.0334 11.8784 17.7052 12.0046C17.3769 12.1309 17.2003 12.4843 17.3265 12.8125C17.5537 13.494 18.1343 13.9737 18.8413 14.1ZM6.69853 7.51099C6.92569 7.76353 6.90049 8.16749 6.6228 8.39465C6.34511 8.62199 5.94132 8.59665 5.71399 8.31896C5.56256 8.11695 5.28482 8.01588 5.03233 8.06642C4.77979 8.09162 4.55263 8.2682 4.47694 8.52074C4.37587 8.79843 4.12351 8.9499 3.87102 8.9499C3.82049 8.9499 3.74475 8.9499 3.66902 8.9247C3.34097 8.79843 3.16416 8.445 3.29043 8.11677C3.54293 7.46045 4.12351 6.9556 4.83037 6.82933C5.51203 6.70306 6.21884 6.9556 6.69853 7.51099ZM9.27351 6.04688C8.56666 6.17314 7.98607 6.678 7.73357 7.33432C7.60731 7.66255 7.78411 8.01597 8.11216 8.14224C8.18789 8.16744 8.26363 8.16744 8.31416 8.16744C8.56666 8.16744 8.81901 8.01597 8.92008 7.73828C8.99582 7.48579 9.22298 7.30916 9.47547 7.28396C9.72801 7.23343 10.0057 7.3345 10.1571 7.5365C10.3843 7.8142 10.7882 7.8394 11.0408 7.61219C11.3185 7.38503 11.3437 6.98107 11.1165 6.72853C10.662 6.17314 9.98037 5.92061 9.27351 6.04688ZM9.32391 10.5909C9.45018 10.2628 9.80361 10.086 10.1318 10.2123V10.2123C10.4601 10.3386 10.6369 10.692 10.5104 11.0199C10.157 12.0298 9.24818 12.787 8.18789 12.9638C8.01109 12.9891 7.83446 13.0143 7.65766 13.0143C6.774 13.0143 5.94092 12.6357 5.36033 11.9289C5.13317 11.6763 5.15837 11.2724 5.43607 11.0452C5.68861 10.8181 6.09257 10.8432 6.31973 11.1209C6.72369 11.6006 7.35481 11.8278 7.98593 11.7268C8.61705 11.6006 9.12195 11.1714 9.32391 10.5909Z" fill="#0C1E3C"/>
</svg>
