<svg width="24" height="24" viewBox="0 0 24 24" fill="none" xmlns="http://www.w3.org/2000/svg">
<path fill-rule="evenodd" clip-rule="evenodd" d="M10.3107 22.9373C10.9464 22.9879 11.5836 23.002 12.2222 23.0006C13.0113 22.9963 13.799 22.9626 14.5838 22.8698C15.2407 22.7924 15.8962 22.6953 16.5446 22.5631C17.4448 22.3803 18.3225 22.1285 19.1609 21.7473C19.7572 21.4772 20.3199 21.1565 20.8023 20.705C21.3931 20.1551 21.7025 19.4911 21.6857 18.6711C21.6726 18.0281 21.6739 17.3851 21.6752 16.742C21.6757 16.4848 21.6762 16.2277 21.6758 15.9705C21.675 15.7847 21.675 15.5989 21.6751 15.4131C21.6752 14.9884 21.6753 14.5638 21.6646 14.1391C21.663 14.0901 21.6654 14.0415 21.6678 13.9929C21.6697 13.955 21.6716 13.9171 21.6716 13.8789C21.6726 13.5812 21.6729 13.2837 21.6732 12.9863C21.6737 12.4657 21.6742 11.9454 21.6786 11.4244C21.6794 11.2986 21.6809 11.1727 21.6825 11.0468C21.687 10.6827 21.6915 10.3182 21.6758 9.95453C21.673 9.88561 21.6674 9.81668 21.6561 9.74776C21.5746 9.2217 21.3228 8.78004 20.9613 8.39604C20.566 7.97828 20.092 7.66602 19.5871 7.40018C19.1355 7.16247 18.6601 6.98383 18.1805 6.81364C18.1003 6.7841 18.0989 6.78269 18.1537 6.71236L18.5251 6.23975C19.0019 5.63492 19.4787 5.02869 19.9542 4.42245C19.9935 4.37236 20.0331 4.32228 20.0728 4.27211C20.1836 4.1321 20.2948 3.99147 20.4015 3.84856C20.4704 3.75637 20.543 3.66698 20.6155 3.57761C20.6791 3.49927 20.7426 3.42095 20.8037 3.34079C21.0077 3.07213 20.988 2.67126 20.7615 2.42792C20.4591 2.103 19.9345 2.13535 19.6686 2.49403C19.6574 2.5095 19.6465 2.52497 19.6356 2.54045C19.6247 2.55592 19.6138 2.57139 19.6025 2.58686C18.7292 3.84405 17.8546 5.10124 16.9799 6.35842L16.9793 6.35931C16.9089 6.45918 16.9089 6.45918 16.7866 6.43245C16.7306 6.42051 16.6746 6.40835 16.6187 6.39618C16.3979 6.34814 16.1772 6.30015 15.9539 6.26648C15.4812 6.19474 15.0058 6.13144 14.5304 6.07518C14.0789 6.02173 13.626 5.98094 13.1716 5.95984C12.6667 5.93734 12.1603 5.93874 11.6539 5.94578C11.1602 5.95281 10.6693 5.98094 10.1784 6.02173C9.78882 6.05268 9.40201 6.09206 9.0152 6.1441C8.6523 6.19333 8.29221 6.25382 7.93354 6.32274C7.85477 6.33821 7.80976 6.31149 7.76756 6.24819C7.67191 6.09769 7.57345 5.95 7.47218 5.8023C7.08878 5.24075 6.69671 4.6857 6.30471 4.13076C6.06537 3.79192 5.82606 3.45313 5.58877 3.11292C5.3538 2.77635 5.12017 2.43887 4.88663 2.10151C4.70635 1.8411 4.52611 1.58075 4.34535 1.32094C4.17234 1.07198 3.88962 0.955229 3.61252 1.01571C3.08927 1.12964 2.86985 1.72041 3.19477 2.1466C3.35398 2.35523 3.51663 2.56129 3.67935 2.76745C3.72508 2.82538 3.77081 2.88331 3.81647 2.94132C4.41623 3.70522 5.01656 4.46854 5.61674 5.23166C5.95259 5.65869 6.28839 6.08566 6.62401 6.51263C6.69971 6.60795 6.69857 6.60827 6.58438 6.6403L6.58322 6.64063C6.06419 6.7855 5.55641 6.95851 5.06552 7.17935C4.44381 7.45785 3.85586 7.7898 3.35793 8.26382C2.77842 8.81661 2.47741 9.48473 2.50132 10.2921C2.50976 10.5917 2.51398 10.8899 2.51398 11.1895C2.51398 12.0642 2.51273 12.9395 2.51148 13.815C2.51086 14.2531 2.51023 14.6912 2.50976 15.1293C2.50836 16.3249 2.50695 17.5205 2.50273 18.7147C2.49992 19.2169 2.6026 19.6881 2.88251 20.1129C3.12022 20.4729 3.41982 20.7739 3.76584 21.0271C4.43678 21.5138 5.17804 21.8669 5.96573 22.1215C7.37794 22.58 8.83375 22.8205 10.3107 22.9373ZM11.9915 13.3191C12.6146 13.3233 13.197 13.2938 13.7807 13.2544C14.1914 13.2276 14.6035 13.1939 15.0114 13.1418C15.6683 13.0589 16.3182 12.9309 16.9596 12.7691C17.7571 12.568 18.5335 12.3063 19.2607 11.9153C19.6841 11.6874 20.0751 11.4188 20.393 11.0531C20.597 10.8168 20.7419 10.5523 20.7798 10.2387C20.8277 9.85466 20.7025 9.52271 20.4802 9.21889C20.2313 8.88272 19.9092 8.63234 19.5575 8.41573C18.9513 8.04158 18.2958 7.78418 17.6178 7.576C17.5152 7.54365 17.4997 7.54646 17.435 7.62945L16.99 8.19429L16.9897 8.19467C16.5051 8.80981 16.0203 9.42519 15.5347 10.0389C15.4883 10.098 15.4798 10.1458 15.5136 10.2147C15.6149 10.4215 15.6585 10.6409 15.6247 10.8702C15.5361 11.4497 15.0508 11.8619 14.4643 11.859C13.716 11.8562 13.1716 11.1572 13.3489 10.4314C13.4909 9.85044 14.0381 9.48192 14.6373 9.5635C14.7104 9.57335 14.7639 9.55225 14.8047 9.49317C14.8122 9.48098 14.8209 9.46879 14.8297 9.4566L14.8427 9.43831C14.9967 9.21695 15.1499 8.99504 15.3031 8.77313L15.3035 8.77248C15.6398 8.28536 15.9761 7.79829 16.321 7.31719C16.3674 7.25249 16.3646 7.24546 16.2816 7.22998C15.9792 7.17372 15.6768 7.12027 15.3729 7.07526C14.8567 6.99649 14.3391 6.93742 13.8187 6.89662C13.415 6.86427 13.0099 6.84599 12.6034 6.83473C11.7974 6.81364 10.9943 6.84599 10.1911 6.9121C9.80288 6.94445 9.41607 6.98805 9.02926 7.04291C8.93431 7.05627 8.83971 7.07069 8.74512 7.08511C8.65053 7.09952 8.55594 7.11394 8.461 7.1273C8.40474 7.13434 8.39911 7.15403 8.43006 7.19763C8.46501 7.24657 8.49926 7.29622 8.5333 7.34557L8.53331 7.34557L8.57494 7.40581L8.74162 7.64412L8.74176 7.64431C8.89191 7.85887 9.04221 8.07363 9.19102 8.28914C9.229 8.3454 9.27682 8.36791 9.34293 8.35947C9.40904 8.35244 9.47655 8.34681 9.54407 8.34822C10.1756 8.35806 10.6806 8.8799 10.6736 9.51146C10.6637 10.2654 9.94776 10.8111 9.21915 10.6184C8.51867 10.4342 8.16421 9.66759 8.47507 9.00368C8.50601 8.93617 8.49898 8.88975 8.45538 8.83349C8.09107 8.37635 7.72958 7.9178 7.36809 7.45785C7.32027 7.39737 7.26682 7.37908 7.19367 7.39737C6.86453 7.48036 6.54102 7.57882 6.22032 7.68712C5.59721 7.89811 4.99941 8.16255 4.45084 8.53107C4.13014 8.74628 3.84179 8.99946 3.63221 9.3272C3.31995 9.81387 3.31573 10.309 3.61533 10.8027C3.74333 11.0137 3.90931 11.1937 4.09638 11.3555C4.41708 11.634 4.78139 11.845 5.15835 12.0349C5.83492 12.3753 6.55509 12.5947 7.2851 12.7846C8.31753 13.0532 9.37247 13.1756 10.433 13.2628C10.9633 13.3064 11.4964 13.3247 11.9915 13.3191ZM13.9748 14.8874C13.3165 14.9254 12.6568 14.9507 12.0422 14.9521C11.3853 14.9493 10.7748 14.938 10.1658 14.8958C8.88579 14.8072 7.61565 14.6441 6.37223 14.322C5.74349 14.1588 5.126 13.9605 4.54368 13.6651C4.26095 13.5216 3.99089 13.3585 3.7574 13.1404C3.673 13.0617 3.60127 12.9745 3.53657 12.8802C3.44232 12.7396 3.39169 12.5862 3.39731 12.4146C3.39919 12.3311 3.39856 12.2475 3.39794 12.1644C3.39762 12.123 3.39731 12.0816 3.39731 12.0405C3.39731 12.0356 3.3968 12.0303 3.39628 12.025C3.39469 12.0086 3.39304 11.9916 3.40575 11.9842C3.42343 11.9743 3.43851 11.9878 3.45234 12.0002L3.45236 12.0002C3.45613 12.0035 3.45981 12.0068 3.46342 12.0095C3.52614 12.0542 3.58854 12.0992 3.65094 12.1443C3.85025 12.2883 4.04959 12.4324 4.25955 12.5609C4.85031 12.9224 5.48749 13.1742 6.14296 13.3838C6.94752 13.6426 7.77037 13.8297 8.60729 13.9492C9.15304 14.028 9.69879 14.0983 10.2474 14.1433C11.0561 14.2122 11.8663 14.2305 12.6793 14.2052C13.1266 14.1911 13.5739 14.1672 14.0212 14.1307C14.5388 14.0885 15.0536 14.0266 15.5656 13.9436C16.1578 13.8494 16.7486 13.7495 17.3295 13.5976C18.1594 13.3796 18.9668 13.0982 19.7165 12.6749C20.0569 12.4822 20.379 12.2613 20.6842 12.018C20.77 11.9491 20.7742 11.9519 20.7925 12.056C20.867 12.4962 20.7447 12.8647 20.4071 13.1615C20.0948 13.4358 19.7376 13.6341 19.3606 13.8001C18.601 14.1321 17.8063 14.3445 16.9961 14.509C16.4518 14.6202 15.9046 14.7088 15.3547 14.7735C14.8961 14.8269 14.4362 14.8607 13.9748 14.8874ZM3.39869 16.1139V16.1139C3.4002 16.4404 3.40171 16.7674 3.39591 17.0943C3.38887 17.408 3.4789 17.6865 3.6519 17.9425C3.69551 18.0072 3.70254 18.0086 3.74193 17.9383L3.77054 17.888C3.95247 17.5685 4.13497 17.2481 4.28065 16.9073C4.31572 16.8256 4.35056 16.7438 4.38541 16.6621L4.38556 16.6617C4.62741 16.0942 4.86935 15.5266 5.18648 14.9943L5.19509 14.9803C5.21574 14.9469 5.22573 14.9307 5.22164 14.9198C5.21782 14.9096 5.20165 14.904 5.17032 14.8932L5.14569 14.8846C4.55352 14.6736 3.98104 14.4232 3.46764 14.0533C3.46362 14.0503 3.45951 14.0465 3.4553 14.0427C3.44188 14.0305 3.42745 14.0173 3.41138 14.0238C3.39136 14.0322 3.39423 14.0525 3.39693 14.0716C3.39783 14.078 3.39872 14.0842 3.39872 14.0899C3.39731 14.6159 3.39731 15.142 3.39731 15.6695C3.39731 15.8175 3.398 15.9657 3.39869 16.1139V16.1139V16.1139ZM20.7925 15.6667V14.1546C20.7925 14.1407 20.7921 14.1265 20.7918 14.1121V14.1121V14.112C20.7914 14.0973 20.7911 14.0823 20.7911 14.0674C20.7897 14.0238 20.7756 14.0111 20.7362 14.0406C20.6786 14.0828 20.6195 14.1222 20.5604 14.1616C20.1525 14.4331 19.7108 14.6314 19.2565 14.8058C19.2188 14.8208 19.2002 14.8281 19.1964 14.8402C19.1928 14.8519 19.2033 14.8681 19.2242 14.9001C19.3704 15.1167 19.497 15.3445 19.6053 15.5837C19.7044 15.8028 19.7993 16.0239 19.8943 16.2452C20.0084 16.511 20.1226 16.7769 20.2439 17.0395C20.3171 17.1961 20.3889 17.3526 20.4608 17.5092L20.5688 17.7442C20.571 17.7485 20.5731 17.7533 20.5752 17.7582C20.5841 17.7789 20.5939 17.8018 20.6167 17.8018C20.6363 17.8018 20.6441 17.7806 20.6512 17.7613C20.6533 17.7557 20.6553 17.7503 20.6575 17.7456C20.7475 17.5655 20.7925 17.3728 20.7925 17.1717V15.6667ZM6.06278 15.3431C6.12186 15.2812 6.18375 15.225 6.27518 15.218C6.33425 15.2165 6.38208 15.2447 6.42568 15.2827C6.47632 15.3263 6.51289 15.3825 6.54946 15.4388C6.74471 15.7393 6.84044 16.0793 6.93596 16.4186L6.94049 16.4346C7.05864 16.8552 7.1557 17.28 7.24712 17.7062L7.26677 17.8C7.36976 18.2919 7.47265 18.7834 7.61283 19.2661C7.67754 19.4926 7.7549 19.7162 7.84351 19.9356C7.84484 19.9388 7.84647 19.9421 7.84814 19.9455C7.85529 19.9599 7.8631 19.9756 7.85055 19.9905C7.84172 19.9993 7.82856 19.996 7.81583 19.9928L7.81351 19.9922C7.8108 19.9916 7.80813 19.991 7.80554 19.9905C6.97425 19.8034 6.15421 19.5812 5.37497 19.2253C5.03035 19.0678 4.69981 18.8835 4.38473 18.6725L4.38262 18.6711C4.35136 18.6508 4.32921 18.6364 4.36223 18.5923C4.7406 18.0916 5.01066 17.529 5.26807 16.9607C5.41435 16.64 5.55501 16.3165 5.68723 15.9916C5.78287 15.7567 5.88555 15.5288 6.06278 15.3431ZM20.0006 18.5094C19.9935 18.4991 19.9869 18.4876 19.9802 18.476C19.9749 18.4668 19.9696 18.4576 19.964 18.4489C19.829 18.2534 19.7122 18.048 19.6096 17.8356C19.4695 17.5451 19.3439 17.2485 19.2183 16.9519C19.1372 16.7601 19.056 16.5684 18.971 16.3784C18.9345 16.2965 18.8996 16.2142 18.8647 16.1319L18.8647 16.1319L18.8646 16.1319L18.8646 16.1318L18.8646 16.1318L18.8646 16.1318L18.8646 16.1318L18.8645 16.1315C18.7837 15.941 18.703 15.7508 18.6039 15.5682C18.5307 15.4318 18.4379 15.3094 18.3197 15.2081C18.2283 15.1307 18.1397 15.1307 18.0468 15.2053C17.9779 15.2587 17.9217 15.3263 17.8738 15.3994C17.7304 15.6146 17.6249 15.8481 17.5545 16.0957C17.4803 16.3582 17.41 16.6214 17.3396 16.8848L17.3396 16.8849C17.3059 17.0109 17.2722 17.137 17.2381 17.2631C17.172 17.5049 17.111 17.7483 17.05 17.9917C16.8863 18.6446 16.7225 19.298 16.4602 19.923C16.4377 19.9764 16.4715 19.9708 16.5052 19.9623C17.2324 19.7893 17.9526 19.5952 18.6418 19.3013C19.1046 19.1029 19.5434 18.8624 19.95 18.5642C19.9538 18.5612 19.958 18.5585 19.9622 18.5556L19.9622 18.5556C19.9781 18.545 19.995 18.5338 20.0006 18.5094ZM15.2745 20.1297C15.2295 20.1705 15.1845 20.2099 15.1057 20.2099C15.0565 20.2113 15.0143 20.1761 14.9735 20.1368C14.8216 19.9834 14.7259 19.795 14.6401 19.6009C14.4805 19.2353 14.3739 18.852 14.2675 18.4694L14.2378 18.3631C14.0803 17.8004 13.9242 17.2392 13.768 16.6766C13.7098 16.4685 13.6268 16.2704 13.5437 16.072L13.5437 16.072L13.5437 16.0719L13.5437 16.0719L13.5437 16.0718L13.5436 16.0718L13.5436 16.0718C13.5183 16.0114 13.493 15.951 13.4684 15.8903C13.4375 15.8172 13.4417 15.8115 13.5191 15.8073C14.1872 15.7792 14.8539 15.7215 15.5178 15.6427C15.9257 15.5949 16.3336 15.5358 16.7401 15.4627C16.7465 15.4613 16.7531 15.4606 16.7598 15.4599C16.7665 15.4592 16.7732 15.4585 16.7795 15.4571C16.833 15.4416 16.8372 15.4627 16.8189 15.5063C16.768 15.6347 16.7266 15.7663 16.6853 15.8981L16.6852 15.8982C16.6718 15.9411 16.6583 15.9839 16.6445 16.0267C16.4888 16.5159 16.3677 17.0138 16.2465 17.5121L16.2465 17.5121L16.2465 17.5122L16.2465 17.5122L16.2465 17.5123L16.2465 17.5123L16.2464 17.5124C16.2056 17.6802 16.1648 17.8481 16.1226 18.0156L16.1138 18.0509L16.1138 18.0509C15.9944 18.5273 15.8748 19.0045 15.6922 19.4616C15.5938 19.7078 15.4812 19.9497 15.2745 20.1297ZM12.0829 20.411C12.7032 20.4068 13.3221 20.3857 13.941 20.3337C14.0001 20.3281 14.0001 20.3126 13.979 20.2662L13.9642 20.2349C13.8975 20.0936 13.8311 19.9531 13.7708 19.809C13.5717 19.3274 13.4383 18.8239 13.3052 18.322L13.287 18.2534C13.2623 18.1604 13.2381 18.0673 13.2139 17.9742C13.104 17.5517 12.994 17.1291 12.8453 16.7188C12.744 16.4389 12.6301 16.166 12.4458 15.9283C12.3657 15.8242 12.2644 15.8101 12.1702 15.8973C12.0126 16.0408 11.886 16.2138 11.8171 16.4107C11.6342 16.9326 11.4514 17.453 11.2615 17.9706L11.1999 18.1381C11.0793 18.4658 10.9588 18.7929 10.8578 19.1282C10.7368 19.5277 10.5596 19.9061 10.3458 20.2662C10.305 20.3365 10.3064 20.3393 10.3796 20.3449C10.9464 20.3899 11.5147 20.4068 12.0829 20.411ZM9.38231 20.1143C9.32746 20.1719 9.26275 20.2141 9.15867 20.2169C9.02926 20.1987 8.93783 20.1016 8.86891 19.9792C8.62979 19.5573 8.47648 19.1015 8.36114 18.6331C8.26995 18.2629 8.19039 17.8895 8.11086 17.5162L8.11086 17.5162C8.0493 17.2273 7.98777 16.9385 7.92088 16.6513C7.83367 16.2799 7.72958 15.9142 7.59736 15.5569C7.57064 15.4866 7.57064 15.4852 7.64378 15.4965C8.14171 15.5766 8.64245 15.6456 9.14601 15.6962C9.6566 15.7468 10.1672 15.7876 10.6792 15.8073C10.7891 15.8113 10.8991 15.8166 11.0103 15.822L11.0266 15.8228C11.1068 15.8256 11.1082 15.8284 11.0744 15.9016C10.8381 16.4107 10.6299 16.9326 10.4626 17.4685C10.4357 17.5538 10.409 17.6392 10.3824 17.7245L10.3822 17.7249C10.2262 18.2246 10.0704 18.7234 9.87462 19.2098C9.79444 19.4096 9.71145 19.6093 9.60737 19.7992C9.54407 19.9131 9.47233 20.02 9.38231 20.1143ZM20.7517 19.0973C20.724 19.0962 20.7076 19.1099 20.6916 19.1234C20.6873 19.127 20.683 19.1306 20.6786 19.1339C20.2791 19.4433 19.8585 19.719 19.4042 19.9412C18.7122 20.2774 17.9836 20.5123 17.2395 20.7036C16.539 20.8851 15.8315 21.0159 15.1141 21.1087C14.6345 21.1706 14.1534 21.2142 13.6696 21.2395C13.2603 21.2606 12.8509 21.2733 12.4402 21.2845C11.668 21.307 10.8972 21.2902 10.1292 21.2226C9.56939 21.1734 9.01238 21.1045 8.45819 21.0131C7.67754 20.8851 6.90532 20.7163 6.14999 20.4757C5.18367 20.1677 4.26517 19.764 3.4789 19.1043C3.47662 19.1026 3.47441 19.1007 3.47216 19.0987L3.47215 19.0987L3.47212 19.0987C3.46324 19.0909 3.4538 19.0827 3.4381 19.0861C3.43019 19.1075 3.43591 19.1281 3.44138 19.1478C3.44272 19.1526 3.44404 19.1573 3.44514 19.162C3.51969 19.4743 3.69129 19.7289 3.91072 19.9539C4.23704 20.2915 4.62245 20.5461 5.03879 20.7585C5.90665 21.2001 6.82937 21.48 7.77881 21.6812C8.56368 21.8486 9.35699 21.9681 10.1573 22.0342C10.6285 22.0722 11.0997 22.0989 11.5724 22.1088C12.1167 22.12 12.6596 22.1158 13.204 22.0863C13.7061 22.0596 14.2083 22.0188 14.709 21.9583C15.297 21.8866 15.8807 21.7909 16.4616 21.6685C17.2184 21.5068 17.961 21.2986 18.6714 20.9835C19.1665 20.7641 19.6433 20.5165 20.0569 20.1607C20.3157 19.937 20.5435 19.6881 20.6757 19.366C20.7109 19.2802 20.7419 19.1929 20.7517 19.0973Z" fill="#0C1E3C"/>
</svg>
