<svg width="24" height="24" viewBox="0 0 24 24" fill="none" xmlns="http://www.w3.org/2000/svg">
<path fill-rule="evenodd" clip-rule="evenodd" d="M2.00037 6.20326V12.4226V13.754L2.00147 20.1893L2.00138 20.9758C2.00124 21.7625 2.0011 22.5493 2.0022 23.3362C2.00257 23.3993 2.00661 23.4669 2.02791 23.5257C2.10869 23.7474 2.27136 23.8558 2.50711 23.8558H18.2711C19.3599 23.8558 20.4486 23.8558 21.5374 23.8554C21.5465 23.8554 21.5559 23.8558 21.5654 23.8563H21.5654C21.5942 23.8576 21.6238 23.8589 21.6475 23.8484C21.8513 23.7577 22.0004 23.6222 22 23.3365C21.9986 22.5946 21.9991 21.8527 21.9995 21.1106V21.1105V21.1104V21.1104V21.1103V21.1102V21.1101V21.11V21.11V21.1099V21.1098C21.9998 20.7386 22 20.3674 22 19.9961C22 19.1243 21.9998 18.2525 21.9995 17.3808L21.9995 17.3627C21.9992 16.4849 21.9989 15.6071 21.9989 14.7293C21.9989 13.7188 21.9992 12.7082 21.9995 11.6977L21.9995 11.6769C21.9998 10.6733 22 9.6697 22 8.66608C22 7.48869 21.9997 6.31114 21.9994 5.13364L21.9989 3.3769V3.37448C21.9986 2.75288 21.9982 2.13128 21.9993 1.50968C21.9997 1.41017 21.9835 1.31616 21.9288 1.23354C21.8286 1.08262 21.6945 0.999635 21.5039 1C16.0944 1.00158 10.6849 1.00153 5.27539 1.00149L2.57063 1.00147L2.53801 1.00144C2.49443 1.00138 2.45071 1.00132 2.40723 1.00221L2.39625 1.00226C2.37956 1.00223 2.3623 1.0022 2.34848 1.00882C2.13623 1.10649 1.99963 1.24933 2 1.524C2.00152 2.59652 2.00112 3.66887 2.00073 4.74129C2.00055 5.22859 2.00037 5.71591 2.00037 6.20326ZM12.0004 4.80752H13.1758H20.9421C21.0416 4.80752 21.0483 4.80091 21.0483 4.70287L21.0492 3.37534L21.0501 2.04726C21.0501 1.96464 21.0347 1.95032 20.948 1.95032L20.7749 1.95077L20.7749 1.95077C20.6591 1.9511 20.5432 1.95142 20.4273 1.95142L18.2675 1.95097H18.2673H18.2672H18.267H18.2668H18.2667H18.2665H18.2664H18.2662H18.266H18.2659H18.2657C16.8265 1.95065 15.3873 1.95032 13.948 1.95032C13.0639 1.95032 12.1799 1.9506 11.2958 1.95087H11.2957H11.2955H11.2954H11.2953H11.2951H11.295H11.2949H11.2947H11.2946H11.2945H11.2943C10.4109 1.95115 9.52748 1.95142 8.64416 1.95142C7.40114 1.95142 6.15796 1.9511 4.91484 1.95077L4.91432 1.95077L3.04983 1.95032C2.96427 1.95032 2.95032 1.96501 2.95069 2.0491L2.95069 2.04953C2.95106 2.93214 2.95142 3.81475 2.95142 4.69736C2.95142 4.80422 2.95399 4.80752 3.06599 4.80752H12.0004ZM12.0074 5.76445H4.30016C3.88338 5.76445 3.46661 5.76445 3.0502 5.76482C2.95987 5.76482 2.95106 5.77473 2.95106 5.86139C2.95106 5.97669 2.95087 6.092 2.95069 6.2073L2.95069 6.20741C2.9505 6.32267 2.95032 6.43794 2.95032 6.5532C2.95008 7.95142 2.95016 9.34964 2.95024 10.748V10.7481V10.7481V10.7482V10.7483V10.7484V10.7485V10.7485V10.7486V10.7487V10.7488V10.7489L2.95032 12.847V19.2C2.95032 20.4052 2.95069 21.6107 2.95106 22.8159C2.95106 22.8941 2.96648 22.9069 3.05791 22.9069C4.48376 22.9062 5.90997 22.9055 7.33582 22.9058C8.4176 22.9058 9.49947 22.906 10.5814 22.9062H10.5815H10.5817H10.5818H10.5819H10.5821H10.5822H10.5823H10.5825H10.5826H10.5828H10.5829C11.6654 22.9064 12.748 22.9066 13.8305 22.9066C14.5579 22.9068 15.2852 22.9066 16.0126 22.9064H16.0127H16.0128H16.0129H16.013H16.0131H16.0132H16.0133H16.0134H16.0135H16.0136H16.0138L17.4684 22.9062C18.6313 22.9062 19.7943 22.9066 20.9572 22.9077C21.0233 22.9077 21.0508 22.8838 21.0505 22.8159C21.0495 22.4094 21.0496 22.0032 21.0497 21.5969V21.5947C21.0498 21.362 21.0499 21.1292 21.0497 20.8965L21.0493 18.9785V18.9784V18.9782V18.978V18.9779V18.9777V18.9776V18.9774V18.9772V18.9771V18.9769V18.9768C21.0489 17.7022 21.0486 16.4277 21.0486 15.1531C21.0486 13.9066 21.0489 12.6602 21.0493 11.4138V11.4136V11.4135V11.4133V11.4131V11.413V11.4128V11.4127V11.4125V11.4123V11.4122V11.412L21.0497 9.53635L21.0495 7.7098L21.0494 5.88379C21.0494 5.76849 21.0468 5.76445 20.9278 5.76445H12.0074ZM4.85757 14.3342V15.6657C4.85757 15.7571 4.86344 15.7611 4.95414 15.7626C5.01874 15.7637 5.08333 15.7643 5.14791 15.7649C5.32379 15.7666 5.49957 15.7682 5.67496 15.7795C5.86003 15.7916 5.99369 15.8911 6.05832 16.0718C6.07791 16.1267 6.09722 16.1818 6.11652 16.2368L6.11652 16.2368C6.16921 16.3871 6.22189 16.5373 6.28048 16.6854C6.43874 17.0842 6.64584 17.4576 6.8882 17.812C7.20987 18.282 7.58955 18.6998 8.02579 19.0663C8.35627 19.3443 8.71172 19.5863 9.09288 19.7879C9.50488 20.0053 9.93487 20.1789 10.3862 20.3012C10.7416 20.3974 11.1015 20.4668 11.4668 20.4973C11.9123 20.5344 12.3577 20.5285 12.8027 20.4701C13.2643 20.4095 13.713 20.2997 14.1482 20.1389C14.548 19.9917 14.9281 19.8026 15.2898 19.5753C15.9144 19.1831 16.452 18.6951 16.9022 18.1123C17.4364 17.4198 17.8077 16.6465 18.0163 15.7967C18.1261 15.3502 18.1833 14.8949 18.1899 14.4355C18.1999 13.7669 18.1055 13.1125 17.9024 12.4736C17.7669 12.0476 17.5885 11.6419 17.367 11.2541C17.005 10.6207 16.5445 10.0695 15.9871 9.59947C15.5902 9.26459 15.158 8.98588 14.6901 8.75932C14.3145 8.57718 13.9267 8.42773 13.5217 8.33483C13.2085 8.26286 12.889 8.21329 12.5703 8.174C11.924 8.09431 11.2829 8.1527 10.6495 8.29077C10.2007 8.38844 9.7689 8.53936 9.35433 8.73692C8.86301 8.97082 8.40988 9.26348 7.99384 9.6149C7.45406 10.0717 7.00791 10.6067 6.65062 11.2152C6.39651 11.6477 6.20373 12.1075 6.05869 12.5878C6.01058 12.7471 5.90263 12.861 5.73335 12.8749C5.53488 12.8918 5.33534 12.8973 5.13587 12.9027H5.13585H5.13584H5.13582H5.1358H5.13579H5.13577H5.13576H5.13574L5.13567 12.9027C5.07539 12.9044 5.01511 12.906 4.95488 12.908L4.95034 12.9081C4.86007 12.9109 4.85794 12.9109 4.85794 13.0027C4.85757 13.4467 4.85757 13.8902 4.85757 14.3342ZM3.90888 13.822L3.90872 14.3331C3.90872 14.5167 3.9091 14.7003 3.90947 14.884L3.90947 14.8841V14.8841C3.91039 15.328 3.9113 15.7718 3.90688 16.2154C3.90394 16.5132 4.1441 16.7221 4.40848 16.7151C4.54915 16.7113 4.68993 16.7122 4.8307 16.7132H4.83078H4.83079H4.83079H4.8308H4.83081H4.83081H4.83082H4.83083H4.83084C4.94541 16.714 5.05997 16.7147 5.17446 16.7129C5.24166 16.7118 5.27581 16.7379 5.29564 16.7963C5.4282 17.1811 5.60409 17.5461 5.80642 17.8979C6.18978 18.5636 6.66788 19.1541 7.24291 19.6638C7.90314 20.2483 8.64379 20.6989 9.47 21.0114C9.93487 21.1876 10.4119 21.318 10.9025 21.3918C11.4081 21.4682 11.9167 21.4976 12.4296 21.4616C13.0131 21.4208 13.5834 21.3191 14.1415 21.1432C14.5506 21.0143 14.9446 20.8513 15.3243 20.6519C15.8589 20.3706 16.3499 20.0276 16.796 19.6201C17.8407 18.6657 18.5417 17.5013 18.9089 16.136C19.0378 15.6561 19.1091 15.1652 19.1318 14.6691C19.1685 13.8627 19.0709 13.0721 18.841 12.2973C18.7279 11.9169 18.5873 11.5478 18.4125 11.192C18.1341 10.6258 17.7893 10.1022 17.3704 9.62995C16.438 8.57828 15.3008 7.85012 13.9466 7.46309C13.5184 7.34081 13.0833 7.25672 12.6408 7.22C11.8318 7.15281 11.0321 7.21156 10.2444 7.41939C9.78138 7.54131 9.33376 7.70214 8.9023 7.91034C8.47084 8.11818 8.06435 8.36641 7.68356 8.6554C7.1423 9.0663 6.66751 9.54403 6.26285 10.0904C5.85856 10.6357 5.53212 11.2236 5.29968 11.8625C5.27765 11.9231 5.24423 11.9521 5.17373 11.951C4.95885 11.9479 4.74371 11.949 4.52875 11.9501H4.52874H4.52873H4.52872H4.52871H4.5287H4.52869H4.52868H4.52852L4.40775 11.9507C4.29061 11.9514 4.18265 11.9811 4.08938 12.055C3.95903 12.1581 3.90762 12.2947 3.90798 12.4585C3.90932 12.9129 3.9091 13.3674 3.90888 13.8216V13.8217V13.8217V13.8218V13.8218V13.8219V13.8219V13.822V13.822ZM6.76316 3.85757L6.05569 3.85777H6.05565H6.05561H6.05557H6.05553H6.05549H6.05545H6.05541C5.50529 3.858 4.95523 3.85823 4.40499 3.8572C4.07928 3.85647 3.87071 3.61044 3.91735 3.28914C3.94342 3.10884 4.11086 2.93259 4.29336 2.91937C4.4616 2.90731 4.63113 2.90775 4.80021 2.90819L4.89521 2.90835C5.45761 2.90821 6.02 2.90829 6.5824 2.90838C7.42602 2.90851 8.26964 2.90865 9.11326 2.90799C9.31118 2.90799 9.46137 2.984 9.56088 3.15805C9.73016 3.45475 9.50984 3.85096 9.16614 3.85573C8.87554 3.85993 8.58512 3.85944 8.29463 3.85896H8.2946C8.1784 3.85876 8.06217 3.85857 7.94592 3.85867C7.68331 3.85892 7.42085 3.85883 7.15834 3.85875H7.1583H7.15826H7.15822H7.15818H7.15814H7.1581H7.15749L6.76316 3.85867V3.85757ZM16.4528 3.85771L17.2364 3.85779H19.4084L19.4674 3.85804C19.5297 3.85845 19.5921 3.85885 19.6541 3.85522C19.8641 3.84384 20.0514 3.66831 20.0845 3.46782C20.1359 3.1557 19.8983 2.90013 19.6034 2.90784C19.4792 2.91123 19.3549 2.90999 19.2306 2.90875C19.1664 2.90811 19.1021 2.90747 19.0379 2.90747L18.11 2.90743H18.1095C17.1817 2.90736 16.2538 2.90729 15.3259 2.90784C15.2921 2.90784 15.2582 2.90767 15.2244 2.90751C15.0697 2.90675 14.9149 2.90599 14.7615 2.92106C14.5265 2.94382 14.3388 3.22069 14.3855 3.45203C14.4361 3.70577 14.6253 3.85816 14.8856 3.85779C15.408 3.85755 15.9304 3.85763 16.4528 3.85771ZM12.9491 3.39416C12.9428 3.93615 12.5003 4.34411 11.9763 4.3331C11.449 4.32208 11.0326 3.87666 11.051 3.35414C11.0693 2.82096 11.5048 2.41373 12.0391 2.42989C12.5459 2.44531 12.9652 2.88926 12.9491 3.39416ZM7.71617 14.3386C7.71727 11.9555 9.63149 10.0486 12.0047 10.0504C14.3706 10.0523 16.2892 11.9713 16.2852 14.3324C16.2808 16.7049 14.3739 18.6165 12.0069 18.618C9.60909 18.6195 7.7147 16.6876 7.71617 14.3386ZM17.234 14.3408C17.2322 17.2314 14.8836 19.5753 11.9944 19.5702C9.10162 19.5654 6.76658 17.2226 6.76511 14.3298C6.76364 11.4447 9.10162 9.09571 12.0021 9.09571C14.9045 9.09571 17.2443 11.4539 17.234 14.3408ZM12.3789 11.7788C12.4196 11.7012 12.4591 11.626 12.4494 11.5456C12.4491 11.3334 12.3587 11.1902 12.1953 11.1021C12.0327 11.0143 11.8667 11.0268 11.7099 11.13C11.5949 11.2053 11.5402 11.323 11.486 11.4397L11.4679 11.4784C11.3401 11.7483 11.2571 12.0318 11.2215 12.33C11.1606 12.8433 11.2696 13.3038 11.6287 13.6894C11.7404 13.8091 11.8179 13.9413 11.8311 14.1076C11.8505 14.3481 11.7973 14.5754 11.7084 14.7958C11.6912 14.8384 11.6714 14.8804 11.6516 14.9222C11.6172 14.9948 11.5829 15.0673 11.5626 15.1435C11.5043 15.3645 11.6379 15.6117 11.838 15.6855C12.0866 15.7773 12.3253 15.6895 12.4458 15.4644C12.6154 15.1475 12.7318 14.8137 12.7766 14.4554C12.8442 13.9167 12.7212 13.4393 12.3367 13.0416C12.2431 12.9451 12.1873 12.8294 12.1722 12.6928C12.1392 12.399 12.221 12.1295 12.336 11.8655C12.3489 11.836 12.364 11.8073 12.3789 11.7789L12.3789 11.7788L12.3789 11.7788ZM13.9284 16.6736C13.5733 16.6732 13.3467 16.3063 13.5046 15.9891C13.6445 15.7074 13.7551 15.4174 13.7404 15.0946C13.7334 14.9437 13.6857 14.8078 13.5795 14.698C13.1506 14.2544 13.0416 13.7246 13.1492 13.133C13.2068 12.8157 13.3137 12.5179 13.4716 12.2374C13.5939 12.02 13.8851 11.933 14.0962 12.0519C14.3389 12.1885 14.4252 12.4695 14.2993 12.7004C14.1781 12.9218 14.0984 13.1583 14.0698 13.4091C14.0441 13.6379 14.0944 13.8424 14.2618 14.0165C14.5923 14.3587 14.719 14.7773 14.694 15.2466C14.6709 15.6751 14.5449 16.0728 14.333 16.4437C14.2442 16.5986 14.1061 16.6725 13.9284 16.6736ZM9.70159 15.9731C9.53084 16.2892 9.75484 16.6708 10.187 16.6733C10.302 16.6715 10.4426 16.5925 10.534 16.428C10.693 16.1424 10.8014 15.8394 10.8553 15.5166C10.9508 14.9478 10.8524 14.4323 10.4411 14.0034C10.3222 13.8793 10.2634 13.7335 10.2579 13.5624C10.2498 13.3112 10.3207 13.0788 10.4173 12.8515C10.4303 12.8206 10.4452 12.7906 10.46 12.7606C10.4997 12.6804 10.5393 12.6004 10.5436 12.5056C10.5528 12.2937 10.4231 12.0866 10.2359 12.0286C10.0012 11.9559 9.78715 12.0293 9.67001 12.2298C9.44418 12.6146 9.3175 13.0311 9.30318 13.4772C9.28959 13.9149 9.40783 14.3115 9.71701 14.6332C9.88776 14.8105 9.95606 15.0165 9.92999 15.2563C9.90282 15.5104 9.8224 15.7491 9.70159 15.9731Z" fill="#0C1E3C"/>
</svg>
