<svg width="24" height="24" viewBox="0 0 24 24" fill="none" xmlns="http://www.w3.org/2000/svg">
<path fill-rule="evenodd" clip-rule="evenodd" d="M5.63888 11.6935C5.70664 11.6933 5.7798 11.693 5.86136 11.693C5.82581 11.733 5.79873 11.7644 5.77646 11.7902L5.77646 11.7902L5.77643 11.7902C5.74212 11.8299 5.71925 11.8564 5.69448 11.8811C5.51655 12.0568 5.33759 12.2316 5.1586 12.4065C4.78362 12.7728 4.4085 13.1392 4.04235 13.5143C2.8477 14.7383 2.32921 16.2178 2.55364 17.9044C2.91158 20.5976 5.10924 22.4868 7.83287 22.4983C9.7368 22.5058 11.6407 22.5034 13.5446 22.501L14.8626 22.4995C16.2155 22.4983 17.5069 22.2175 18.6929 21.5592C21.1834 20.1769 22.6468 18.0725 22.9276 15.2291C23.0232 14.2628 23.0034 13.2831 22.9837 12.3071L22.9837 12.3065L22.9836 12.306C22.9799 12.1187 22.9761 11.9316 22.9731 11.7448C22.9639 11.194 22.6238 10.8142 22.1122 10.6174C21.6795 10.4506 21.2675 10.5265 20.8796 10.7751C20.676 10.9055 20.4736 11.0379 20.2712 11.1702C19.7516 11.5101 19.2321 11.8499 18.6929 12.1551C17.0724 13.0723 15.3667 13.3543 13.5667 12.7248C12.9498 12.509 12.3807 12.2045 11.8081 11.8317C11.8575 11.7924 11.9039 11.756 11.9483 11.7212L11.9484 11.7211C12.0302 11.657 12.105 11.5984 12.1781 11.5376C13.3849 10.5352 14.1151 9.28008 14.2291 7.69183C14.4713 4.32253 11.4462 1.53906 8.10736 2.06387C5.69851 2.4431 3.89848 4.29319 3.59234 6.71701C3.57162 6.87986 3.5135 6.92072 3.36216 6.91784C2.93057 6.91093 2.49897 6.90921 2.06738 6.91841C1.36072 6.9328 0.882519 7.53933 1.02523 8.22988C1.44301 10.2532 3.18434 11.6613 5.30892 11.693C5.41312 11.6944 5.51732 11.694 5.63888 11.6935ZM11.4105 21.653V21.6184C11.8364 21.6184 12.2632 21.6284 12.6901 21.6383C13.6308 21.6602 14.5717 21.682 15.5031 21.5977C18.5525 21.3221 20.6247 19.6705 21.7278 16.8226C22.2076 15.5838 22.1742 14.2967 22.1409 13.0113V13.0113V13.0112V13.0112C22.1304 12.6068 22.12 12.2025 22.1255 11.8C22.1301 11.468 21.7405 11.2902 21.432 11.4438C21.3421 11.4884 21.2576 11.5434 21.173 11.5984L21.173 11.5984C21.1244 11.63 21.0759 11.6616 21.0263 11.6912C20.767 11.8463 20.5099 12.0056 20.2527 12.1649L20.2525 12.165C19.665 12.5288 19.0775 12.8927 18.4644 13.2064C17.2462 13.8291 15.9353 14.0489 14.5686 13.8504C13.2013 13.6518 12.0164 13.0349 10.907 12.2477C10.4828 11.9473 10.4921 11.64 10.934 11.3747C11.6936 10.9184 12.3364 10.3412 12.7916 9.57299C13.7192 8.00545 13.5581 5.97294 12.3951 4.52394C11.2235 3.06459 9.25828 2.47244 7.46976 3.09566C5.73534 3.70047 4.68686 4.94863 4.45265 6.76189C4.20462 8.68104 4.98379 10.1749 6.62039 11.2113C7.03989 11.4777 7.075 11.7148 6.71879 12.0659C6.34186 12.4378 5.96397 12.8086 5.58601 13.1794C5.31077 13.4495 5.03549 13.7196 4.76051 13.9902C3.6637 15.0692 3.16305 16.3778 3.4151 17.8981C3.7926 20.1717 5.59032 21.6472 7.8956 21.6524C8.70677 21.6544 9.51794 21.6539 10.3291 21.6534C10.6896 21.6532 11.05 21.653 11.4105 21.653ZM4.73404 10.7832C4.65576 10.6433 4.57286 10.5054 4.48998 10.3676C4.30174 10.0544 4.11365 9.74151 3.9802 9.40668C3.85494 9.09129 3.7793 8.7566 3.70357 8.42154C3.6631 8.24247 3.62261 8.06329 3.5745 7.88691C3.56069 7.83512 3.47092 7.77009 3.41452 7.76894C2.97488 7.75973 2.53523 7.76031 2.09558 7.76721C1.91086 7.77066 1.81936 7.88058 1.85619 8.0653C2.17327 9.64723 3.56069 10.6796 4.73404 10.7832ZM10.9669 19.4496C12.138 19.3794 13.3959 19.1458 14.6049 18.6883C14.9462 18.5588 15.2788 18.3821 15.5809 18.1767C15.9619 17.9183 15.9912 17.6104 15.6857 17.2634C15.5015 17.0545 15.2869 16.8623 15.0567 16.7064C13.8925 15.9186 12.611 15.4013 11.2368 15.1199C10.4012 14.949 9.65315 15.1423 9.07597 15.7874C8.44757 16.4889 8.31062 17.3089 8.70423 18.1646C9.1174 19.0623 9.86319 19.472 10.9669 19.4496ZM11.0233 20.2915C9.17552 20.3214 7.85543 19.1935 7.66668 17.6007C7.48541 16.0676 8.49764 14.652 10.0358 14.2872C10.5998 14.1531 11.1545 14.2302 11.7064 14.3626C13.0075 14.6745 14.2464 15.1417 15.3611 15.891C15.6943 16.1143 16.0131 16.3784 16.2795 16.677C16.9729 17.4533 16.9004 18.2785 16.043 18.8626C15.5498 19.1987 14.9836 19.4536 14.4174 19.6527C13.2584 20.0607 12.0476 20.2362 11.0233 20.2915ZM6.54656 6.68777C6.5408 6.31603 6.83371 6.01219 7.20258 6.00816C7.5749 6.00413 7.87298 6.29704 7.87471 6.66936C7.87586 7.04513 7.5818 7.34034 7.20833 7.33746C6.8527 7.33516 6.55174 7.03995 6.54656 6.68777ZM8.72235 6.66878C8.72178 5.82516 8.05943 5.16224 7.21581 5.16281C6.35953 5.16281 5.69546 5.83034 5.69833 6.68835C5.70121 7.51873 6.38083 8.18683 7.22099 8.18511C8.05885 8.18338 8.72235 7.51298 8.72235 6.66878Z" fill="#0C1E3C"/>
</svg>
