<svg width="24" height="24" viewBox="0 0 24 24" fill="none" xmlns="http://www.w3.org/2000/svg">
<path fill-rule="evenodd" clip-rule="evenodd" d="M20.5568 7.51222C22.0036 8.64543 22.6921 10.1668 22.8117 11.9807H24C23.9932 11.8908 23.9875 11.8028 23.9819 11.7161C23.971 11.5481 23.9604 11.385 23.9426 11.2225C23.5265 7.49769 20.1815 4.77328 16.4438 5.12888C16.197 5.1524 16.1037 5.07976 15.9993 4.87706C14.8808 2.71233 12.3736 1.82818 10.145 2.80227C8.1265 3.68435 7.0426 6.02203 7.66958 8.15562C8.04424 9.43065 8.84403 10.3535 10.0192 10.9603C10.0994 11.0011 10.2217 11.0772 10.221 11.136C10.2194 11.4201 10.2009 11.7042 10.1818 11.9979C10.1759 12.0889 10.1699 12.1809 10.1643 12.2741C10.1264 12.2626 10.0931 12.2536 10.0631 12.2455C10.0092 12.2309 9.96572 12.2192 9.92448 12.2014C8.16176 11.4411 6.97969 10.1792 6.51033 8.2836C5.97529 6.12372 6.56908 4.27517 8.11682 2.75108C8.96362 1.91743 10.0268 1.41032 11.2358 1.27541C11.4038 1.25658 11.5701 1.22588 11.7417 1.19424C11.8221 1.17939 11.9038 1.16433 11.9872 1.15019C11.9672 0.760695 11.9478 0.391261 11.9278 0.0128323C11.9258 0.0124791 11.9227 0.0115849 11.9186 0.0104374C11.9068 0.00708977 11.8874 0.00158648 11.8683 0.00107126C11.8054 -0.000312391 11.7425 -0.00100422 11.6796 0.00314674C10.7008 0.0619519 9.77862 0.35321 8.8938 0.748934C8.50739 0.921891 8.14102 1.16265 7.80852 1.42692C5.81906 3.00982 4.92595 5.07976 5.13056 7.61461C5.14577 7.80278 5.09669 7.87958 4.93908 7.96398C3.50125 8.73191 2.59431 9.86996 2.46781 11.549C2.41666 12.2312 2.44984 12.887 2.68072 13.5525C3.36369 15.5277 5.59025 16.8456 7.65022 16.4478C9.16132 16.1566 10.2577 15.3195 10.9607 13.9545C10.9973 13.8825 11.0741 13.7788 11.1314 13.7788C11.4089 13.7819 11.6867 13.7986 11.9681 13.8155C12.0625 13.8211 12.1573 13.8268 12.2527 13.832C11.5904 15.9054 9.64659 17.6115 6.94859 17.6848C5.6497 17.7201 4.47179 17.3126 3.44733 16.5115C1.99637 15.3783 1.27469 13.8632 1.20764 12.0409H0C0.0118316 12.1759 0.0202027 12.3099 0.0285125 12.443C0.0459344 12.7221 0.0630867 12.9968 0.111294 13.2661C0.738961 16.7543 3.99758 19.2179 7.54238 18.881C7.78571 18.8582 7.88387 18.9266 7.98617 19.1307C8.86961 20.8956 10.8224 21.8717 12.7649 21.5334C15.6018 21.0388 17.2533 18.028 16.1452 15.3665C15.7097 14.3205 14.97 13.5574 13.9663 13.0413C13.8833 12.9991 13.7679 12.905 13.7679 12.8351C13.7684 12.5706 13.7867 12.3056 13.8051 12.0381C13.8119 11.9398 13.8186 11.8412 13.8246 11.742C15.7359 12.3149 17.6632 14.3371 17.6729 17.0691C17.6777 18.3995 17.2719 19.5991 16.4369 20.6341C15.306 22.0357 13.8405 22.7856 12.0418 22.7939V23.9894C12.4023 24.0322 13.6623 23.8057 14.6908 23.4117C15.4928 23.1044 16.1385 22.6216 16.2088 22.565C18.1685 20.9814 19.054 18.926 18.8611 16.4139C18.8446 16.2036 18.9026 16.1213 19.0796 16.0307C21.1202 14.9825 21.9207 12.9126 21.4326 10.8849C20.8471 8.45103 18.2832 6.98228 15.8749 7.66926C14.6112 8.02901 13.6801 8.81008 13.0642 9.97235C13.0103 10.0727 12.9156 10.2256 12.8375 10.2269C12.5678 10.2321 12.2982 10.2125 12.026 10.1927C11.9312 10.1858 11.836 10.1789 11.7404 10.173C12.3584 8.16807 14.3029 6.38939 17.0604 6.32574C18.3586 6.29599 19.5317 6.71039 20.5568 7.51222ZM14.8967 5.44089C14.4142 4.22397 12.8361 3.42215 11.4494 3.66982C9.88439 3.94863 8.73758 5.27624 8.70855 6.84391C8.68504 8.10511 9.5982 9.59392 10.5314 9.79593C11.3098 7.67964 12.7594 6.22404 14.8967 5.44089ZM12.5637 12.5757H11.3754C11.3983 12.1578 11.4183 11.7939 11.4383 11.4363H12.5637V12.5757ZM12.4538 20.3511C11.036 20.5234 9.46894 19.698 9.09911 18.5683C11.2227 17.7886 12.6826 16.333 13.4589 14.2049C14.2407 14.4498 15.364 15.6619 15.2735 17.2759C15.1864 18.8298 13.9594 20.1685 12.4538 20.3511ZM20.3557 11.3525C20.6059 12.7535 19.7937 14.382 18.5577 14.9175C17.7572 12.7825 16.3194 11.3062 14.1882 10.5369C14.511 9.65757 15.7304 8.63228 17.2726 8.72015C18.7139 8.80247 20.1137 10 20.3557 11.3525ZM5.44647 9.09927C4.23054 9.59046 3.44457 11.1602 3.59734 12.2609C3.85725 14.1378 5.17964 15.1666 6.69282 15.2828C7.99793 15.3831 9.51594 14.4907 9.79383 13.4661C8.77767 13.1084 7.87281 12.5605 7.11242 11.7884C6.35894 11.0232 5.78934 10.1418 5.44647 9.09927Z" fill="#0C1E3C"/>
</svg>
