<svg width="24" height="24" viewBox="0 0 24 24" fill="none" xmlns="http://www.w3.org/2000/svg">
<path d="M11.5508 10.8544C11.3044 11.1287 11.0741 11.3848 10.8445 11.6409C10.2269 11.1398 9.64911 10.6534 9.05244 10.1914C8.19339 9.5257 7.28897 8.93322 6.30988 8.45031C4.72157 7.66592 3.12768 8.34563 2.28816 9.18724C1.14647 10.3324 0.778704 11.7086 1.3014 13.2397C1.82688 14.777 2.96228 15.6445 4.57223 15.872C5.24985 15.9676 5.86884 15.7505 6.4655 15.4588C7.67488 14.8664 8.76004 14.0834 9.77961 13.2152C10.8487 12.3038 11.8711 11.338 12.9332 10.4183C14.1879 9.3317 15.4999 8.31981 16.9954 7.5745C17.6549 7.24581 18.3402 6.99249 19.0904 7.00017C21.6201 7.02459 23.7513 8.99673 23.9788 11.5167C24.2189 14.1755 22.394 16.514 19.7673 16.9355C18.7268 17.1023 17.7861 16.8245 16.8803 16.357C15.4343 15.6117 14.1621 14.6179 12.929 13.5705C12.7629 13.4288 12.601 13.2808 12.4377 13.1357C12.4259 13.1245 12.4196 13.1078 12.4056 13.0854C12.6569 12.8454 12.9088 12.6046 13.1747 12.3506C13.6087 12.7107 14.0547 13.0931 14.5131 13.4588C15.488 14.2355 16.5104 14.9341 17.6235 15.5098C19.8517 16.6633 22.5147 14.9452 22.8685 12.6032C23.1958 10.4413 21.6857 8.38192 19.4428 8.11743C18.9913 8.0637 18.5551 8.12092 18.1287 8.28003C17.0359 8.68688 16.091 9.34356 15.1594 10.0247C13.8369 10.9898 12.6729 12.1378 11.4565 13.2264C10.1509 14.3953 8.77958 15.4819 7.21919 16.3025C6.5004 16.6815 5.75439 16.9899 4.92325 16.9864C2.37888 16.9753 0.222515 14.9717 0.0173465 12.4364C-0.199686 9.76785 1.64264 7.43982 4.26448 7.04623C5.31614 6.88851 6.26034 7.18301 7.17103 7.65824C8.63583 8.4217 9.92197 9.43847 11.1725 10.5048C11.2807 10.5976 11.3875 10.6939 11.4935 10.7895C11.518 10.8111 11.5368 10.8384 11.5508 10.8544" fill="#0C1E3C"/>
</svg>
