<svg width="24" height="24" viewBox="0 0 24 24" fill="none" xmlns="http://www.w3.org/2000/svg">
<path fill-rule="evenodd" clip-rule="evenodd" d="M12.6329 12.3835L12.6329 12.3835C12.7291 12.0759 12.8253 11.7683 12.8998 11.4557C13.2578 9.95488 13.323 8.42963 13.2487 6.8943C13.2037 5.95879 13.0706 5.03494 12.9284 4.11109C12.9088 3.9854 12.9035 3.85547 12.9072 3.72765C12.9178 3.39725 13.2159 3.21959 13.5076 3.37922C13.6587 3.46196 13.7992 3.57174 13.9255 3.68947C15.6644 5.31071 17.2231 7.07727 18.3437 9.19544C19.0379 10.5075 19.5667 11.8795 19.8016 13.3501C19.8609 13.7233 19.8876 14.1019 19.9143 14.4805C19.9263 14.6506 19.9383 14.8207 19.9533 14.9904C19.9571 15.0349 19.96 15.0797 19.9639 15.1382L19.9639 15.1387L19.9692 15.2174C20.0663 15.2174 20.1626 15.217 20.2585 15.2165H20.2587C20.501 15.2153 20.74 15.2141 20.979 15.2206C21.0951 15.2238 21.2224 15.2386 21.3237 15.2895C21.6748 15.4662 21.7951 15.7891 21.6223 16.1429C21.5279 16.3364 21.3905 16.5162 21.2436 16.6764C20.1256 17.8983 18.804 18.8471 17.3239 19.5816C17.159 19.6633 16.9967 19.7499 16.8342 19.8366L16.8342 19.8367C16.7594 19.8766 16.6846 19.9165 16.6095 19.956L16.6122 19.9761L16.6123 19.9761C16.6132 19.9837 16.6142 19.9911 16.6153 19.9984C16.6299 20 16.6444 20.0019 16.659 20.0038H16.659C16.694 20.0085 16.729 20.0131 16.7638 20.0127C17.5625 20.0027 18.3188 19.8324 18.9955 19.3901C19.2363 19.2326 19.4532 19.2798 19.6743 19.4188C20.0705 19.6675 20.5016 19.8271 20.9583 19.9247C21.4457 20.0286 21.9304 20.0297 22.4146 19.9083C22.5965 19.8626 22.7434 19.9067 22.8696 20.0499C23.0701 20.2774 23.043 20.5574 22.7657 20.6852C22.5668 20.777 22.3393 20.8353 22.1208 20.8507C21.1895 20.9159 20.2927 20.7791 19.4632 20.3225C19.3625 20.2668 19.2787 20.2615 19.171 20.315C18.7192 20.5404 18.2567 20.7568 17.7513 20.8082C17.3828 20.846 17.0096 20.8452 16.6374 20.8444C16.5601 20.8443 16.4829 20.8441 16.4058 20.8443C15.7557 20.8459 15.1707 20.6046 14.6006 20.3251C14.4733 20.2625 14.3837 20.2673 14.2527 20.3336C13.7144 20.6041 13.1549 20.8104 12.5418 20.8422C11.6493 20.8889 10.7731 20.847 9.95058 20.445C9.92883 20.4343 9.90586 20.4251 9.88291 20.4159L9.88289 20.4159C9.83648 20.3973 9.7902 20.3788 9.75435 20.3479C9.61965 20.2307 9.49979 20.2678 9.35819 20.34C8.91907 20.5616 8.46457 20.761 7.97348 20.8109C7.5998 20.8483 7.22174 20.8463 6.84475 20.8442H6.84458C6.76791 20.8438 6.69129 20.8433 6.61475 20.8432C5.97358 20.8427 5.39975 20.5972 4.83706 20.3246C4.72304 20.2689 4.63553 20.2636 4.51992 20.3235C4.07072 20.5563 3.60297 20.7685 3.09862 20.8093C2.61216 20.8489 2.12131 20.8385 1.63196 20.8282L1.63103 20.8281C1.55732 20.8266 1.48364 20.825 1.41002 20.8236C1.2313 20.8204 1.09765 20.6979 1.02977 20.5261C0.930065 20.2731 1.08864 20.017 1.35964 20.0058C1.63617 19.995 1.91269 19.991 2.18922 19.9869C2.29295 19.9854 2.39667 19.9839 2.50039 19.982C3.14051 19.9708 3.72813 19.7783 4.26483 19.4421C4.54538 19.2666 4.78615 19.2491 5.07624 19.4357C5.5265 19.7248 6.02449 19.9088 6.59407 19.9671C6.57862 19.9561 6.56612 19.9467 6.55538 19.9387C6.53627 19.9244 6.52276 19.9143 6.50816 19.9061C6.48637 19.894 6.46292 19.8842 6.43939 19.8743L6.42065 19.8664C5.71848 19.5609 5.03011 19.2278 4.38681 18.8094C3.8867 18.4843 3.45871 18.0754 3.10922 17.5928C2.82125 17.1966 2.69715 16.7448 2.7889 16.2537C2.88701 15.7281 3.25082 15.4301 3.71169 15.2264C3.73523 15.2161 3.76448 15.2174 3.79288 15.2187C3.80223 15.2191 3.81148 15.2195 3.82041 15.2195L9.0734 15.1766H9.21712L9.21977 15.1591L9.22243 15.1416L9.14317 15.1147C9.05501 15.0849 8.96678 15.0549 8.87824 15.026L7.56556 14.5931C6.50317 14.2429 5.44074 13.8926 4.37885 13.541C4.20543 13.4837 4.0336 13.418 3.86601 13.3448C3.63214 13.2419 3.56584 12.9205 3.74351 12.7349C3.84109 12.6336 3.95511 12.545 4.07179 12.4655C6.00964 11.145 7.58845 9.46909 8.93127 7.55935C10.0291 5.9975 10.85 4.29353 11.5045 2.5047C11.5405 2.40605 11.5803 2.30741 11.6312 2.21619C11.7394 2.02209 11.9903 1.94625 12.1923 2.03906C12.301 2.08891 12.3626 2.16634 12.3641 2.29468C12.37 2.72872 12.3774 3.16269 12.3848 3.59664L12.3848 3.59692C12.3974 4.34051 12.41 5.08405 12.4151 5.82779C12.4259 7.43708 12.4317 9.04637 12.4375 10.6557L12.4375 10.6566V10.6566C12.44 11.3343 12.4425 12.0121 12.4453 12.6898V12.7954C12.4644 12.7991 12.4834 12.8033 12.5025 12.8076L12.5025 12.8076L12.5026 12.8076C12.5446 12.6659 12.5888 12.5247 12.6329 12.3835ZM11.5391 5.45263C11.5593 8.61046 11.5794 11.7639 11.5405 14.9544C10.3603 14.5723 9.19359 14.1944 8.02711 13.8165L5.06405 12.8569C7.90135 10.7053 9.9999 8.00801 11.5352 4.84614L11.5391 5.45263ZM15.6803 15.1782H12.4384V14.3318L13.4196 14.578L13.4205 14.5782L13.4312 14.5808L13.4346 14.5817C14.1888 14.771 14.9363 14.9585 15.6841 15.1458C15.683 15.157 15.6819 15.1676 15.6803 15.1782ZM13.1109 13.5872L19.0554 15.062C19.0585 15.049 19.0612 15.0389 19.0634 15.0308C19.0672 15.0167 19.0694 15.0084 19.0697 15C19.0703 14.9496 19.0703 14.8992 19.0676 14.8488C19.0194 13.8327 18.8459 12.8404 18.5261 11.8726C18.0308 10.3717 17.292 8.99868 16.3714 7.71951C15.6984 6.78399 14.9453 5.91689 14.1227 5.10971C14.0979 5.08557 14.0698 5.06436 14.0419 5.04326C14.0288 5.03331 14.0156 5.02339 14.0029 5.01319C14.145 6.47003 14.2415 7.91149 14.1259 9.36143C14.0103 10.8177 13.7213 12.2311 13.1109 13.5872ZM20.5352 16.125L20.5441 16.1402C20.4605 16.2205 20.3777 16.3017 20.2949 16.3829L20.2946 16.3831L20.2946 16.3831L20.2946 16.3832C20.1137 16.5605 19.9329 16.7379 19.7438 16.9055C18.3941 18.1014 16.8344 18.9335 15.1474 19.5413C15.0964 19.5593 15.0259 19.5418 14.9713 19.5222C14.933 19.5084 14.8984 19.4845 14.8636 19.4606C14.8449 19.4478 14.8262 19.4349 14.8069 19.4235C14.5454 19.2713 14.3078 19.2512 14.0294 19.4357C13.3962 19.8558 12.6792 20.0016 11.924 19.9926C11.1815 19.9841 10.4952 19.7916 9.86891 19.3928C9.66526 19.2634 9.46691 19.2586 9.26114 19.379C9.21431 19.4062 9.16702 19.4329 9.11969 19.4596L9.11953 19.4597L9.11937 19.4598C9.03121 19.5096 8.94288 19.5594 8.85702 19.6129C8.74406 19.6839 8.63057 19.694 8.50329 19.6574C7.72687 19.4347 6.97645 19.144 6.24352 18.8067C5.62196 18.5209 5.01738 18.2016 4.48916 17.763C4.26536 17.5774 4.058 17.3637 3.88033 17.1341C3.77222 16.9946 3.71657 16.8068 3.66476 16.632L3.66236 16.6239C3.59925 16.4096 3.7207 16.2526 3.88086 16.1301C3.91665 16.1029 3.97832 16.103 4.02988 16.1031L4.03784 16.1031C5.6278 16.1015 7.21828 16.1015 8.80823 16.1015L14.5901 16.1018L20.3712 16.102H20.5213L20.5295 16.1155L20.5352 16.125ZM9.65423 22.0569C10.3765 22.4801 11.1721 22.6021 11.9745 22.6429C12.0184 22.6405 12.0609 22.6384 12.1024 22.6364C12.1963 22.6319 12.2852 22.6276 12.3738 22.6196C13.0404 22.558 13.6885 22.4239 14.2756 22.0844C14.3801 22.024 14.4591 22.0155 14.5636 22.0738C15.5829 22.645 16.6849 22.7028 17.8076 22.5612C18.3035 22.4984 18.7596 22.282 19.2101 22.0682L19.2274 22.0601C19.2761 22.0367 19.3573 22.0304 19.4013 22.0553C20.1252 22.47 20.9165 22.6164 21.7369 22.6344C22.0572 22.6413 22.3786 22.6164 22.682 22.4923C22.9265 22.3926 23.0389 22.1974 22.9774 21.9895C22.9063 21.7498 22.6883 21.6273 22.4322 21.6687C22.3858 21.6762 22.3393 21.6842 22.2927 21.6921C22.0994 21.7253 21.9051 21.7586 21.7115 21.7599C20.9897 21.7647 20.3167 21.5716 19.7004 21.1961C19.4543 21.0466 19.2305 21.0068 18.9595 21.168C17.648 21.9497 16.3089 21.9678 14.9555 21.2704C14.8256 21.203 14.6946 21.1362 14.5593 21.0821C14.4098 21.0227 14.2666 21.0413 14.1292 21.1362C14.0094 21.2195 13.8853 21.3022 13.7527 21.3611C12.4427 21.9402 11.1599 21.9211 9.91515 21.1717C9.68393 21.0323 9.45641 21.0031 9.21935 21.1595C9.11275 21.2301 9.00085 21.2953 8.88471 21.3489C7.56682 21.954 6.27651 21.9185 5.02385 21.167C4.79262 21.0285 4.57783 21.0057 4.34395 21.1564C3.76536 21.5287 3.13531 21.7408 2.44163 21.7456C2.07941 21.7482 1.71719 21.7535 1.3555 21.7689C1.09192 21.78 0.935474 22.0319 1.02722 22.2801C1.08397 22.4334 1.19269 22.5411 1.35338 22.5644C1.57506 22.5968 1.79939 22.6158 2.02267 22.6265C2.90621 22.6694 3.7452 22.4939 4.52957 22.0823C4.63087 22.0293 4.70618 22.0197 4.80535 22.0749C5.82042 22.6413 6.91715 22.7028 8.03617 22.5623C8.54245 22.4994 9.00555 22.279 9.4643 22.0608L9.46914 22.0585C9.52058 22.0335 9.60756 22.0293 9.65423 22.0569Z" fill="#0C1E3C"/>
</svg>
