<svg width="24" height="24" viewBox="0 0 24 24" fill="none" xmlns="http://www.w3.org/2000/svg">
<path fill-rule="evenodd" clip-rule="evenodd" d="M1.52723 23H1.74513C1.7494 22.9981 1.75361 22.996 1.7578 22.9938C1.76659 22.9894 1.77534 22.9849 1.78461 22.9827C2.06426 22.9147 2.21293 22.7254 2.2672 22.4536C2.28037 22.3876 2.28576 22.32 2.29114 22.2523C2.29298 22.2292 2.29482 22.2062 2.29697 22.1832C2.32371 21.8959 2.42112 21.6323 2.56341 21.3838C2.71239 21.1233 2.90514 20.8971 3.11397 20.6835C3.55932 20.2281 4.06595 19.8545 4.62478 19.5509C4.63185 19.547 4.63891 19.5431 4.64597 19.5392C4.66116 19.5309 4.67636 19.5225 4.69179 19.5146C5.06504 19.3232 5.24394 19.0153 5.24219 18.5982C5.24064 18.2575 5.23962 17.9169 5.23861 17.5763C5.23827 17.4629 5.23793 17.3495 5.23757 17.2361C5.23708 17.0885 5.23647 16.9409 5.23586 16.7934C5.23449 16.4614 5.23312 16.1295 5.23312 15.7975C5.23273 14.0766 5.23276 12.3557 5.23278 10.6347C5.23279 10.2051 5.2328 9.7755 5.2328 9.34588V9.20151H6.91248V9.3411V16.6429C6.91248 16.7192 6.91231 16.7955 6.91214 16.8718C6.91169 17.068 6.91124 17.2641 6.91376 17.4602C6.91471 17.543 6.92092 17.6284 6.94257 17.7079C7.03679 18.0531 7.38234 18.243 7.7384 18.144C8.12175 18.0377 8.5045 17.9289 8.88721 17.8201C9.05922 17.7712 9.23123 17.7223 9.40329 17.6736C9.5116 17.6429 9.61995 17.6124 9.72829 17.5818C9.99693 17.506 10.2656 17.4302 10.5337 17.3526C10.6274 17.3255 10.7206 17.2929 10.8094 17.2526C11.0045 17.1645 11.1103 17.0064 11.1342 16.7962C11.147 16.6844 11.1527 16.5716 11.1527 16.4592C11.1535 14.3856 11.1535 12.312 11.1535 10.2384C11.1535 9.94344 11.1535 9.64848 11.1535 9.35352V9.2152C11.2372 9.19069 12.6988 9.18559 12.8311 9.20963V9.32375C12.8311 9.87956 12.8311 10.4354 12.8313 10.9912L12.8313 10.999C12.8317 12.671 12.8322 14.3432 12.8333 16.0151C12.8333 16.0218 12.8333 16.0284 12.8334 16.0351C12.8334 16.0975 12.8334 16.1604 12.8432 16.2216C12.8957 16.5531 13.1256 16.7572 13.4665 16.7591C13.6013 16.7597 13.7367 16.7419 13.8715 16.7242C13.8988 16.7206 13.9261 16.717 13.9534 16.7135C14.264 16.6744 14.5745 16.6338 14.885 16.5933C15.0602 16.5704 15.2354 16.5476 15.4106 16.5249C15.5269 16.5099 15.6433 16.4951 15.7597 16.4804C15.9925 16.4509 16.2253 16.4214 16.4577 16.3893C16.5359 16.3787 16.6155 16.3583 16.6877 16.3269C16.9142 16.2284 17.0336 16.0479 17.0602 15.8049C17.0655 15.757 17.0652 15.7083 17.065 15.6598C17.065 15.6501 17.0649 15.6404 17.0649 15.6307C17.0651 13.7526 17.0651 11.8746 17.0649 9.99639C17.0649 9.87434 17.0646 9.7523 17.0642 9.63028C17.0639 9.52346 17.0636 9.41667 17.0635 9.3099C17.0634 9.2863 17.0647 9.26276 17.0661 9.23747C17.0668 9.22474 17.0675 9.21155 17.0681 9.19769H18.7416C18.7421 9.21364 18.7426 9.22915 18.7432 9.24434C18.7443 9.2769 18.7454 9.30804 18.7454 9.33919C18.7456 10.7922 18.7456 12.2453 18.7456 13.6985C18.7456 13.8393 18.7455 13.9802 18.7455 14.1211C18.7453 14.5722 18.7452 15.0234 18.7465 15.4746C18.7467 15.5432 18.7542 15.6131 18.7698 15.6798C18.8374 15.9707 19.0625 16.1547 19.3706 16.1744C19.4249 16.1778 19.4797 16.1764 19.5339 16.1748C19.6495 16.1713 19.7652 16.1678 19.8808 16.1643C20.6831 16.1401 21.4855 16.116 22.2877 16.0901C22.3669 16.0875 22.4473 16.0762 22.524 16.0567C22.7757 15.9925 22.9202 15.8251 22.964 15.5722C22.9788 15.4867 22.9847 15.3988 22.9848 15.3121C22.9856 13.7049 22.9855 12.0978 22.9855 10.4907C22.9855 10.0889 22.9855 9.68716 22.9855 9.28539V9.19514C23.0012 9.19514 23.0162 9.19543 23.0308 9.1957C23.0613 9.19628 23.0898 9.19682 23.1181 9.19467C23.1513 9.19218 23.1849 9.19058 23.2184 9.18899C23.3049 9.18487 23.3915 9.18075 23.4746 9.16124C23.7375 9.09964 23.911 8.94143 23.9518 8.66162C23.9527 8.65512 23.9573 8.64908 23.962 8.64302C23.9641 8.64032 23.9662 8.63762 23.968 8.63488V5.49595C23.9634 5.48059 23.9592 5.46509 23.955 5.44958C23.9462 5.41719 23.9375 5.38481 23.9252 5.35381C23.8268 5.10647 23.639 4.97452 23.3788 4.95096C23.2932 4.94327 23.2068 4.94516 23.1158 4.94716C23.073 4.94809 23.0291 4.94905 22.9839 4.94905C22.9839 4.93085 22.9839 4.91385 22.9838 4.89763C22.9838 4.86732 22.9838 4.83975 22.9839 4.81217C22.984 4.5275 22.9842 4.24284 22.9844 3.95818C22.9849 3.24747 22.9853 2.5368 22.985 1.82604C22.985 1.73914 22.9818 1.65143 22.97 1.56548C22.9231 1.22359 22.7238 1.03625 22.3792 1.00633C22.3214 1.00124 22.2632 1.00044 22.2051 1.00044L22.205 1.00044C21.3118 0.999965 20.4187 0.999487 19.5255 1.00124C19.4317 1.0014 19.3362 1.00776 19.2444 1.02575C18.9665 1.07987 18.7987 1.26179 18.7615 1.54304C18.7516 1.61849 18.7464 1.69505 18.7462 1.77113C18.7456 2.5733 18.7457 3.37558 18.7457 4.1778C18.7457 4.40719 18.7457 4.63658 18.7457 4.86597C18.7457 4.88036 18.7447 4.89482 18.7435 4.9119C18.743 4.92013 18.7423 4.92897 18.7418 4.93871H17.0676C17.0672 4.92495 17.0665 4.91114 17.0659 4.89729C17.0646 4.86917 17.0633 4.84091 17.0633 4.81265L17.0649 1.78307C17.0649 1.72863 17.0648 1.67404 17.0614 1.6196C17.0395 1.26179 16.8302 1.04342 16.4741 1.00745C16.4165 1.00156 16.3581 1.00044 16.3001 1.00044C15.3997 0.999965 14.4992 0.999965 13.5988 1.00044C13.5335 1.0006 13.4676 1.0014 13.4031 1.00983C13.059 1.05456 12.8647 1.25957 12.8372 1.60766C12.8313 1.68261 12.8313 1.7582 12.8314 1.83351C12.8314 1.84169 12.8314 1.84986 12.8314 1.85803C12.8315 2.64352 12.8321 3.42891 12.8326 4.21428C12.8328 4.4097 12.8329 4.60513 12.833 4.80055V4.93871H11.1506V4.81105C11.1508 4.61443 11.151 4.4178 11.1512 4.22117C11.152 3.43702 11.1528 2.65286 11.1528 1.8687C11.1528 1.77447 11.1501 1.67961 11.1398 1.58602C11.1005 1.23251 10.8988 1.03689 10.5455 1.00617C10.4878 1.00124 10.4294 1.00044 10.3715 1.00044C9.47825 0.999965 8.58501 0.999487 7.69192 1.00124C7.59818 1.0014 7.50283 1.00808 7.41084 1.02575C7.14153 1.07748 6.97551 1.25193 6.93286 1.52283C6.92044 1.60146 6.91344 1.68168 6.91328 1.76126C6.91228 2.51764 6.91236 3.27403 6.91244 4.03049C6.91246 4.23677 6.91248 4.44305 6.91248 4.64934V4.93934H5.2328V4.80564C5.2328 4.5772 5.23283 4.34877 5.23286 4.12033C5.23297 3.32071 5.23308 2.52109 5.23184 1.72147C5.23168 1.6387 5.22532 1.55371 5.20653 1.47333C5.14048 1.19224 4.91494 1.00792 4.62589 1.00601C4.06963 1.00239 3.51336 1.002 2.9571 1.00162C2.80539 1.00151 2.65368 1.00141 2.50197 1.00124C2.36983 1.00109 2.23766 1.00143 2.10548 1.00176C1.95442 1.00215 1.80336 1.00253 1.65234 1.00219C1.52612 1.00203 1.40659 1.02702 1.29899 1.09435C1.10942 1.21309 1.00883 1.38658 1.00294 1.60957C0.997719 1.8113 0.997915 2.01328 0.998112 2.21517C0.998131 2.23487 0.99815 2.25456 0.998164 2.27425C0.998505 2.88139 0.999252 3.48844 0.999999 4.09552C1.0003 4.33848 1.0006 4.58145 1.00087 4.82442V4.94635C0.965331 4.94635 0.93046 4.94621 0.896063 4.94608C0.811684 4.94576 0.730159 4.94545 0.648634 4.94714C0.601839 4.9481 0.554089 4.95303 0.508727 4.96401C0.202012 5.03723 0.0159462 5.27709 0.000666143 5.61564C-4.99996e-05 5.63188 3.93962e-05 5.6482 0.000128914 5.66454C0.000158771 5.66999 0.000188642 5.67545 0.000188642 5.6809C0.000188642 5.88594 0.000141484 6.09098 9.43241e-05 6.29603C-7.07388e-05 7.01373 -0.000235814 7.73148 0.00162114 8.44913C0.00178031 8.53906 0.0121262 8.63122 0.033932 8.71828C0.0988721 8.97836 0.322024 9.15679 0.603908 9.18002C0.689153 9.18701 0.774615 9.19102 0.864561 9.19524C0.907795 9.19727 0.952066 9.19935 0.997846 9.20183V9.33235V11.9914C0.997846 12.6898 0.997836 13.3883 0.997826 14.0867C0.997796 16.1819 0.997767 18.2771 0.998005 20.3722C0.998164 21.0115 0.999597 21.6507 1.00119 22.2901L1.00121 22.3018C1.00131 22.3597 1.00142 22.4184 1.01185 22.4747C1.05833 22.7256 1.20572 22.8905 1.44797 22.9707C1.46672 22.9769 1.48516 22.9839 1.50361 22.991C1.51148 22.994 1.51934 22.9971 1.52723 23ZM15.7728 4.94141H14.1229V2.29351H15.7728V4.94141ZM3.94116 4.943H2.29251V2.29463H3.94116V4.943ZM20.0366 4.93871H21.6964V2.29447H20.0366V4.93871ZM9.86073 2.2959V4.94109H8.2003C8.19927 4.56219 8.19963 4.18329 8.2 3.80375C8.20047 3.30273 8.20095 2.80061 8.19823 2.2959H9.86073ZM20.0352 14.8577L21.6938 14.8179V9.20088H20.0352V14.8577ZM15.7754 9.20024V15.1653L14.1239 15.3727V9.20024H15.7754ZM9.86821 9.20024H8.20476V16.643L8.24486 16.6337C8.27077 16.6278 8.2939 16.6225 8.31681 16.6161L8.65039 16.5234C8.84652 16.4688 9.04268 16.4142 9.23903 16.3604C9.42079 16.3105 9.6032 16.2625 9.78576 16.2157C9.84274 16.201 9.87649 16.1746 9.86853 16.1103C9.86648 16.0933 9.86707 16.076 9.86766 16.0587V16.0587L9.86804 16.0462L9.86821 16.0342L9.8673 15.353V15.3529V15.3529V15.3528C9.86634 14.6721 9.86539 13.9914 9.86551 13.3107C9.86563 12.2505 9.86658 11.1902 9.86752 10.1299L9.86821 9.33442V9.20024ZM2.30508 19.6713C2.28296 19.5924 2.27389 9.32025 2.29617 9.19499H3.94944V9.33633L3.94878 10.8536C3.94823 12.0333 3.94768 13.213 3.94768 14.3927C3.94768 15.2979 3.94823 16.2029 3.94878 17.108L3.94944 18.2723C3.94944 18.2829 3.9492 18.2935 3.94896 18.3042C3.94847 18.3263 3.94798 18.3484 3.94959 18.3703C3.95405 18.4279 3.92986 18.4631 3.87988 18.4929C3.74268 18.5745 3.60754 18.6597 3.47385 18.7471C3.07179 19.01 2.69456 19.3048 2.34678 19.6366C2.3385 19.6445 2.32959 19.6516 2.32015 19.6592L2.30508 19.6713ZM1.3001 7.90526H22.6773V6.24308H1.3001V7.90526Z" fill="#0C1E3C"/>
</svg>
