<svg width="24" height="24" viewBox="0 0 24 24" fill="none" xmlns="http://www.w3.org/2000/svg">
<path fill-rule="evenodd" clip-rule="evenodd" d="M13.3104 2L13.3156 2.00328C13.3197 2.00596 13.3239 2.00873 13.3285 2.00988C13.5302 2.05351 13.6388 2.18192 13.6471 2.38771C13.6483 2.40808 13.6481 2.42846 13.648 2.44883L13.6479 2.4692C13.6487 3.66855 13.6487 4.86873 13.6487 6.06808V6.14792H13.7129L13.9111 6.14782C14.109 6.14767 14.3065 6.14751 14.504 6.14875C14.5641 6.14875 14.625 6.14957 14.6826 6.16192C14.8736 6.20307 14.9864 6.3496 14.9872 6.5521C14.9877 6.75419 14.9875 6.95628 14.9874 7.15814V7.15953L14.9872 7.46251L14.9872 7.99417V7.99423C14.9874 8.70248 14.9875 9.41041 14.9855 10.1189C14.9855 10.1855 15.0061 10.2234 15.0637 10.2563C16.0536 10.8243 17.0422 11.3936 18.0301 11.9625L18.0367 11.9663L18.4379 12.1974C18.47 12.2155 18.5013 12.2344 18.5301 12.2566C18.6675 12.3603 18.7071 12.5019 18.67 12.6633C18.5897 13.0143 18.5072 13.3649 18.4248 13.7154L18.4245 13.7165L18.33 14.1186L17.7497 16.5955L17.7317 16.6749C17.7151 16.7492 17.6983 16.8236 17.6789 16.8976C17.6641 16.9552 17.6789 16.9989 17.7201 17.04L17.7204 17.0403L17.7206 17.0406C17.8431 17.1639 17.9664 17.288 18.0864 17.4137C18.1212 17.45 18.1543 17.488 18.1874 17.526L18.1874 17.5261C18.2271 17.5717 18.2668 17.6172 18.3095 17.6599C18.4313 17.7833 18.577 17.8393 18.7499 17.7924C18.8536 17.7644 18.9342 17.6994 19.0034 17.6204C19.0533 17.5636 19.1024 17.5061 19.1516 17.4484C19.2215 17.3665 19.2914 17.2844 19.3639 17.2047C19.8496 16.6671 20.6621 16.6441 21.1741 17.1561C21.3239 17.3067 21.4688 17.464 21.5972 17.6327C21.7857 17.8788 22.1619 17.8426 22.3125 17.6343C22.3314 17.6084 22.3549 17.5859 22.3786 17.5633C22.3931 17.5494 22.4077 17.5355 22.4212 17.5208C22.4553 17.4821 22.4891 17.443 22.5228 17.4039C22.5566 17.3648 22.5903 17.3257 22.6245 17.287C22.8245 17.0614 23.0476 16.8696 23.3563 16.8186C23.4666 16.8005 23.581 16.798 23.6921 16.8038C23.8329 16.8095 23.9498 16.9256 23.9885 17.0762C23.9903 17.0837 23.9936 17.0911 23.9968 17.0985L24 17.1059V17.2582C23.989 17.2781 23.9787 17.2986 23.9684 17.319L23.9684 17.319C23.9439 17.3675 23.9194 17.4159 23.8864 17.4582C23.8387 17.5199 23.7662 17.552 23.6856 17.5529C23.4905 17.5561 23.3406 17.6483 23.2122 17.7866C23.1728 17.8288 23.1337 17.8712 23.0946 17.9136L23.0943 17.9139L23.0942 17.9141C22.9806 18.0372 22.867 18.1602 22.7471 18.2764C22.2508 18.7588 21.5239 18.6263 21.1346 18.2665C21.0376 18.1769 20.9502 18.0773 20.863 17.9779L20.8629 17.9779C20.8221 17.9313 20.7812 17.8848 20.7394 17.8393C20.7248 17.8236 20.7105 17.8076 20.6961 17.7918L20.6961 17.7917C20.6677 17.7602 20.6395 17.7289 20.6094 17.6994C20.4168 17.515 20.1649 17.5142 19.9788 17.7043C19.8973 17.7871 19.8225 17.8756 19.7474 17.9645L19.7474 17.9645C19.7239 17.9922 19.7004 18.02 19.6767 18.0476C19.5121 18.2377 19.3343 18.4131 19.0931 18.5003C18.6 18.6798 18.0954 18.5868 17.702 18.1645C17.6313 18.0889 17.5644 18.0103 17.4975 17.9316L17.4975 17.9316C17.4397 17.8637 17.3819 17.7958 17.3217 17.7298C17.1184 17.5084 16.8549 17.5035 16.6442 17.7191C16.5745 17.791 16.5099 17.868 16.4454 17.9451C16.4131 17.9836 16.3808 18.0221 16.3479 18.0599C16.1931 18.2386 16.0211 18.3974 15.7996 18.4896C15.351 18.6765 14.8168 18.6007 14.439 18.2163C14.3484 18.1243 14.2644 18.0254 14.1804 17.9265L14.1804 17.9265C14.1277 17.8645 14.075 17.8025 14.0208 17.7422C13.922 17.6319 13.801 17.557 13.6454 17.5636C13.5154 17.5693 13.4075 17.6311 13.3211 17.7233C13.2226 17.8296 13.1291 17.9417 13.036 18.0535L13.019 18.0739C12.8066 18.3299 12.5473 18.5077 12.2156 18.567C11.8246 18.6361 11.4789 18.5308 11.1842 18.2739C11.0968 18.198 11.0209 18.1087 10.9452 18.0194L10.9452 18.0194C10.9068 17.9741 10.8684 17.9289 10.8286 17.8854C10.8135 17.8689 10.7987 17.8521 10.7838 17.8353C10.7344 17.7796 10.6851 17.7238 10.6294 17.6763C10.4359 17.5133 10.2046 17.5224 10.0268 17.7027C9.94556 17.7851 9.87073 17.8744 9.79584 17.9637C9.76677 17.9984 9.73769 18.033 9.70823 18.0673C9.4975 18.311 9.24891 18.497 8.92787 18.5653C8.54757 18.646 8.21007 18.5423 7.90797 18.3077C7.77718 18.2058 7.6723 18.0798 7.56732 17.9536L7.56721 17.9535C7.54669 17.9288 7.52617 17.9041 7.50544 17.8797C7.45688 17.8229 7.40749 17.7669 7.3548 17.7142C7.15148 17.5109 6.89877 17.5101 6.69627 17.7158C6.61136 17.8027 6.53233 17.895 6.45314 17.9874L6.39582 18.0542C6.23613 18.2377 6.06408 18.4089 5.83278 18.4987C5.3644 18.6814 4.93553 18.59 4.55605 18.2764C4.45956 18.1967 4.37744 18.0995 4.29534 18.0024C4.25626 17.9562 4.21718 17.91 4.17657 17.8657C4.16366 17.8514 4.15092 17.837 4.1382 17.8226L4.13815 17.8226C4.09656 17.7755 4.05509 17.7286 4.00782 17.687C3.80944 17.5125 3.57072 17.5183 3.38633 17.7093C3.30637 17.7914 3.23203 17.8796 3.15775 17.9677C3.12192 18.0102 3.08609 18.0527 3.04966 18.0945C2.85375 18.3192 2.62408 18.4913 2.32774 18.5546C1.89229 18.6477 1.50952 18.539 1.18849 18.2328C1.08441 18.1346 0.992733 18.0227 0.901253 17.911L0.867451 17.8698C0.752208 17.7298 0.627911 17.6064 0.441876 17.5685C0.409772 17.5619 0.376846 17.5561 0.344742 17.5561C0.171055 17.5553 0.0434645 17.4269 0.00806843 17.2557C-0.0322666 17.0598 0.0829763 16.8507 0.272304 16.8095C0.355261 16.7911 0.446102 16.7985 0.533458 16.8056H0.533472L0.55218 16.8071C0.92425 16.8375 1.19507 17.0425 1.42556 17.3166L1.43909 17.3328C1.53255 17.4443 1.62632 17.5563 1.72683 17.6607C1.92357 17.8632 2.19357 17.8583 2.38537 17.6508C2.44981 17.5805 2.51219 17.5083 2.57456 17.4361C2.64285 17.357 2.71114 17.2779 2.78213 17.2014C3.28426 16.6597 4.07861 16.6441 4.6005 17.1676C4.68745 17.255 4.77002 17.3468 4.8527 17.4388L4.85274 17.4388C4.92189 17.5157 4.99114 17.5927 5.06312 17.6673C5.25985 17.8706 5.51668 17.8657 5.7093 17.6549C5.77021 17.5887 5.82844 17.5199 5.88668 17.4512L5.88669 17.4512C5.94493 17.3825 6.00317 17.3137 6.06408 17.2475C6.13214 17.1731 6.20932 17.1071 6.28612 17.0414L6.28612 17.0414L6.29539 17.0334C6.33079 17.0022 6.34478 16.975 6.33326 16.9256C6.14405 16.1276 5.95649 15.3289 5.76893 14.5301L5.76857 14.5286L5.76849 14.5282C5.62364 13.911 5.47879 13.2937 5.33641 12.6756C5.28784 12.4624 5.35369 12.3192 5.54384 12.2089C5.84842 12.0327 6.15381 11.8574 6.4592 11.6821L6.71966 11.5323L6.71972 11.5322C7.45045 11.112 8.18183 10.6914 8.91388 10.2728C8.99537 10.2267 9.02171 10.1666 9.02171 10.0785C9.01842 8.9261 9.01677 7.77367 9.01677 6.62124C9.01677 6.56527 9.02171 6.50847 9.03324 6.45414C9.07275 6.27057 9.19211 6.16274 9.37896 6.1578C9.59863 6.15177 9.81875 6.1506 10.0387 6.14943H10.0387L10.039 6.14943C10.1189 6.149 10.1988 6.14858 10.2787 6.14792H10.3544V6.07384C10.3544 4.86873 10.3544 3.66361 10.3552 2.4585C10.3552 2.41158 10.3585 2.36384 10.3659 2.31774C10.3939 2.15311 10.4952 2.04857 10.6582 2.01235C10.6658 2.0107 10.6735 2.00759 10.6812 2.00448C10.6851 2.00293 10.6889 2.00137 10.6927 2H13.3104ZM11.1414 3.10962H12.8601C12.8601 3.08308 12.8599 3.05683 12.8597 3.03079V3.03075V3.03072V3.03068V3.03064V3.0306V3.03057V3.03053C12.8592 2.97027 12.8587 2.91112 12.8609 2.85197C12.8634 2.80258 12.8502 2.78694 12.7984 2.78694C12.371 2.78892 11.9436 2.78879 11.5166 2.78866L11.1965 2.78859H11.1414V3.10962ZM11.1422 4.18962H12.8609V3.91139H11.1422V4.18962ZM12.8577 6.14216H11.1471V4.98891H12.8577V6.14216ZM14.1978 9.7542V6.9431H9.8103V9.74597L9.82563 9.73879C9.83734 9.73337 9.84728 9.72877 9.85722 9.72292C10.1988 9.52783 10.5404 9.33274 10.8812 9.13601C10.9989 9.068 11.1161 8.99958 11.2333 8.9312C11.3997 8.83403 11.566 8.73695 11.7332 8.64129C11.925 8.5318 12.1143 8.54744 12.302 8.6561C12.8239 8.96067 13.3466 9.2636 13.8693 9.56652C13.9288 9.60113 13.9889 9.63521 14.0503 9.67009C14.0985 9.69743 14.1475 9.72526 14.1978 9.7542ZM6.62384 14.3845C6.60079 14.3977 6.57692 14.4108 6.54975 14.4257L6.50703 14.2464L6.50699 14.2462C6.45075 14.0102 6.39503 13.7765 6.33984 13.5432C6.31816 13.4518 6.29683 13.3602 6.2755 13.2686L6.2755 13.2686L6.27549 13.2686L6.27549 13.2685L6.27549 13.2685C6.24095 13.1202 6.2064 12.9718 6.17027 12.8238C6.15875 12.7752 6.17027 12.7472 6.2139 12.7225C7.45441 12.0105 8.69409 11.2976 9.93295 10.5848C10.2022 10.43 10.4712 10.275 10.7402 10.12C11.0091 9.96508 11.2781 9.81015 11.5472 9.65542C11.5577 9.64919 11.5686 9.64351 11.5808 9.6371L11.5808 9.63709C11.5896 9.63249 11.5991 9.62751 11.6097 9.62167V9.68094C11.61 9.87486 11.6101 10.0687 11.6102 10.2625V10.2625V10.2626V10.2626V10.2627C11.6104 10.6504 11.6106 11.038 11.6122 11.426C11.6122 11.496 11.5793 11.5347 11.5225 11.5676C10.7726 11.9965 10.0235 12.427 9.27525 12.8575C8.83321 13.1119 8.39137 13.3665 7.94954 13.621L7.94842 13.6217C7.50696 13.876 7.0655 14.1304 6.62384 14.3845ZM17.4534 14.4257L17.4578 14.4102C17.4617 14.3967 17.465 14.3853 17.4674 14.3738C17.581 13.8939 17.6937 13.414 17.8065 12.9341C17.8129 12.9069 17.8188 12.8842 17.8238 12.8649C17.8379 12.8107 17.8448 12.7839 17.836 12.7641C17.8275 12.7448 17.8042 12.7321 17.7583 12.707C17.7409 12.6975 17.7204 12.6863 17.6962 12.6723C16.4837 11.9739 15.2712 11.276 14.0584 10.5778L12.5119 9.68753C12.4925 9.67629 12.473 9.66528 12.4525 9.65367L12.3934 9.62003V9.6867L12.3933 10.1053C12.3931 10.5239 12.393 10.9424 12.3942 11.361C12.3944 11.3895 12.3935 11.4121 12.3928 11.4305C12.3915 11.4654 12.3908 11.4851 12.3984 11.5008C12.4082 11.5211 12.4321 11.5346 12.4868 11.5655L12.5251 11.5874C14.006 12.4418 15.4868 13.2955 16.9685 14.1483C17.0679 14.2056 17.1679 14.2627 17.2688 14.3202L17.269 14.3203L17.2695 14.3206L17.2698 14.3208L17.4534 14.4257ZM11.572 12.439L11.5721 12.4389C11.583 12.4329 11.5953 12.4262 11.6097 12.418V12.4953V15.113C11.6106 15.2743 11.6657 15.4093 11.8122 15.4908C12.0798 15.6406 12.3917 15.4489 12.3926 15.1336C12.3938 14.8638 12.3936 14.594 12.3935 14.3242L12.3934 14.0544V12.4945V12.4188L12.4007 12.4228L12.4008 12.4228C12.4277 12.4373 12.4487 12.4487 12.4691 12.4608C13.2345 12.9013 13.9999 13.3421 14.7653 13.7828L14.7714 13.7863C15.5342 14.2256 16.2971 14.6649 17.0599 15.1039L17.0901 15.1213C17.132 15.1453 17.174 15.1695 17.2171 15.192C17.255 15.2118 17.2657 15.2398 17.2558 15.2817L17.1705 15.6388C17.0851 15.9956 16.9998 16.3524 16.9159 16.7091C16.9035 16.7618 16.8813 16.7881 16.8228 16.7947C16.4878 16.8318 16.2252 17.0038 16.0046 17.2499C15.9467 17.3148 15.8895 17.3807 15.8323 17.4467L15.8322 17.4468L15.8322 17.4468C15.774 17.5139 15.7157 17.5812 15.6564 17.6475C15.4663 17.8591 15.1946 17.8665 14.9962 17.6607C14.8853 17.546 14.782 17.4237 14.6787 17.3014L14.6505 17.268C14.4225 16.9989 14.1393 16.8276 13.7862 16.7931C13.396 16.7544 13.0569 16.8803 12.7803 17.1544C12.6864 17.2473 12.601 17.3483 12.5156 17.4494C12.4685 17.5052 12.4214 17.561 12.3728 17.6154C12.2872 17.7126 12.1868 17.7883 12.0526 17.8056C11.9102 17.8229 11.7884 17.7735 11.6929 17.6739C11.5945 17.5722 11.5019 17.4643 11.4096 17.3568L11.4096 17.3567L11.3389 17.2746C11.1167 17.0162 10.8442 16.8425 10.5034 16.7955C10.1412 16.7445 9.81524 16.8416 9.54524 17.0853C9.44206 17.1779 9.34972 17.2829 9.25739 17.3879L9.25738 17.3879C9.2127 17.4387 9.16803 17.4895 9.12214 17.5389L9.0906 17.5736L9.09058 17.5737L9.09056 17.5737C9.05592 17.6121 9.0211 17.6507 8.98385 17.6854C8.8011 17.855 8.54675 17.8525 8.37388 17.6722C8.29322 17.5881 8.21643 17.4998 8.13974 17.4116L8.13973 17.4116L8.13971 17.4116L8.13966 17.4115L8.13962 17.4115C8.08879 17.3531 8.038 17.2947 7.98617 17.2376C7.78697 17.0178 7.55154 16.8589 7.25356 16.8062L7.24455 16.8047H7.24455H7.24454C7.20863 16.7986 7.17147 16.7922 7.13502 16.7914C7.09633 16.7906 7.07905 16.7717 7.07164 16.7379L7.0368 16.5808L7.03676 16.5807C6.97267 16.2917 6.90868 16.0031 6.84527 15.7139C6.83498 15.6679 6.82514 15.6218 6.81531 15.5757C6.79523 15.4817 6.77518 15.3877 6.75143 15.2949C6.73743 15.2381 6.75801 15.211 6.80246 15.1854C6.90618 15.1258 7.0099 15.0659 7.11362 15.006C7.21734 14.9461 7.32106 14.8862 7.42477 14.8265C8.79276 14.0383 10.1607 13.2508 11.5287 12.4634L11.5315 12.4618L11.5389 12.4575C11.5493 12.4514 11.5598 12.4456 11.5719 12.439L11.572 12.439ZM23.9764 20.082C23.9841 20.064 23.9918 20.0459 24.0002 20.0284V19.8645C23.9993 19.8629 23.9983 19.8613 23.9974 19.8597C23.994 19.8539 23.9906 19.8479 23.9886 19.8415C23.9442 19.6917 23.8471 19.5921 23.6931 19.5715C23.5894 19.5575 23.4791 19.5624 23.3746 19.5789C23.1202 19.6184 22.9078 19.746 22.7292 19.9271C22.6474 20.01 22.5715 20.0984 22.4956 20.1869C22.4614 20.2266 22.4273 20.2664 22.3925 20.3058C22.3849 20.3143 22.3772 20.3228 22.3696 20.3313C22.3396 20.3649 22.3096 20.3984 22.2781 20.4292C22.0666 20.6359 21.8122 20.6293 21.6081 20.4095C21.5208 20.3148 21.4344 20.2185 21.3545 20.1173C21.1158 19.816 20.8228 19.6102 20.4317 19.5666C20.1099 19.5312 19.8086 19.5888 19.5576 19.8012C19.4594 19.8849 19.372 19.981 19.2847 20.0771C19.2424 20.1236 19.2002 20.1701 19.1567 20.2152C19.1296 20.243 19.1033 20.2717 19.077 20.3004C19.0161 20.3668 18.9552 20.4333 18.885 20.4885C18.7229 20.6161 18.536 20.6095 18.373 20.4827C18.3105 20.4342 18.2553 20.3741 18.2018 20.3156C18.1588 20.268 18.1175 20.2185 18.0761 20.1691C17.9946 20.0717 17.9132 19.9744 17.8199 19.8909C17.4371 19.5476 16.9983 19.4505 16.5127 19.6489C16.2608 19.7518 16.069 19.9337 15.9002 20.1436C15.7891 20.2802 15.6772 20.4169 15.5224 20.5091C15.3512 20.6112 15.1874 20.5988 15.0343 20.4712C15.0038 20.4457 14.975 20.4177 14.9487 20.3881C14.9021 20.3357 14.8565 20.2824 14.8109 20.229C14.7218 20.1248 14.6326 20.0205 14.5363 19.923C14.1724 19.555 13.6505 19.4521 13.1871 19.6489C12.9673 19.7411 12.7961 19.895 12.6422 20.0736C12.6215 20.0975 12.601 20.1215 12.5804 20.1455C12.4958 20.2441 12.4108 20.3431 12.3195 20.4358C12.1326 20.626 11.875 20.6235 11.684 20.4383C11.6428 20.398 11.6033 20.3543 11.5646 20.3107C11.5263 20.2672 11.4887 20.2229 11.4511 20.1785C11.3807 20.0954 11.3102 20.0124 11.2345 19.9345C10.9143 19.6077 10.5233 19.4974 10.078 19.583C9.77672 19.6423 9.54376 19.8176 9.34538 20.0448C9.30697 20.0884 9.2692 20.1327 9.23142 20.177C9.15587 20.2655 9.08032 20.3541 8.99965 20.4375C8.82349 20.6177 8.59054 20.6268 8.40286 20.4679C8.35429 20.4268 8.31149 20.3798 8.26868 20.3321C8.22599 20.2842 8.18432 20.2353 8.14262 20.1864C8.06533 20.0958 7.98797 20.005 7.90402 19.9205C7.58546 19.6011 7.19528 19.5007 6.75818 19.583C6.45196 19.6406 6.21818 19.8234 6.0198 20.0547C5.98106 20.0994 5.9428 20.1445 5.90452 20.1897C5.84193 20.2635 5.77927 20.3375 5.7144 20.4095C5.63209 20.5009 5.53166 20.5642 5.40489 20.5749C5.23697 20.5898 5.1102 20.5107 5.00401 20.3922C4.95398 20.3367 4.90557 20.2796 4.85713 20.2224C4.79638 20.1507 4.73557 20.0789 4.67146 20.0102C4.29362 19.6011 3.83677 19.4645 3.29842 19.6267C3.05065 19.7016 2.86708 19.867 2.70162 20.0563C2.6674 20.0954 2.63374 20.135 2.60008 20.1745C2.52526 20.2624 2.45051 20.3502 2.36989 20.4325C2.18221 20.6243 1.93855 20.6309 1.74511 20.4449C1.65352 20.3567 1.57102 20.2583 1.48864 20.1601C1.4718 20.14 1.45497 20.1199 1.43807 20.1C1.201 19.8193 0.925238 19.6061 0.546582 19.5649C0.403352 19.5493 0.261768 19.5534 0.140762 19.6472C0.0189342 19.7402 -0.0288093 19.9065 0.0172879 20.0654C0.0600924 20.2127 0.197561 20.3247 0.366309 20.3321C0.54082 20.3395 0.672526 20.4144 0.78283 20.5453C0.806636 20.5732 0.830343 20.6014 0.854079 20.6296C0.967411 20.7641 1.08142 20.8994 1.21005 21.0178C1.54014 21.3191 1.92785 21.4351 2.36824 21.3125C2.66047 21.2318 2.88684 21.0507 3.08028 20.8235C3.08951 20.8127 3.09873 20.8018 3.10795 20.7909C3.2057 20.6757 3.3037 20.5601 3.41202 20.4556C3.5964 20.2794 3.84253 20.2877 4.01869 20.4712C4.09628 20.5527 4.17096 20.6368 4.24566 20.7209C4.31439 20.7983 4.38313 20.8758 4.45414 20.9511C4.67969 21.189 4.95545 21.3355 5.28554 21.3561C5.65678 21.3792 5.97535 21.2491 6.23547 20.9882C6.32876 20.8949 6.41601 20.7955 6.50325 20.6962C6.55996 20.6316 6.61667 20.5671 6.67504 20.5041C6.79851 20.3716 6.9475 20.2975 7.13354 20.3461C7.24878 20.3757 7.33357 20.4539 7.41012 20.5404C7.45197 20.5878 7.49305 20.6359 7.53411 20.6839C7.62064 20.7852 7.70707 20.8864 7.8003 20.9808C8.04149 21.2252 8.337 21.3561 8.68356 21.3553C9.02435 21.3545 9.31986 21.2326 9.55858 20.9898C9.65319 20.8931 9.74135 20.7906 9.8296 20.688C9.87879 20.6308 9.92801 20.5736 9.97839 20.5173C10.1916 20.2778 10.4739 20.2704 10.6937 20.5025C10.7655 20.5787 10.8337 20.658 10.9019 20.7373C10.9604 20.8054 11.019 20.8735 11.0798 20.9396C11.3144 21.1956 11.6025 21.3471 11.9548 21.3553C12.3392 21.3635 12.6644 21.2252 12.9253 20.9421C13.0062 20.8543 13.085 20.7642 13.1638 20.674C13.2166 20.6136 13.2694 20.5532 13.3229 20.4934C13.4999 20.2959 13.7699 20.2811 13.9666 20.4597C14.0069 20.4962 14.0433 20.5365 14.0795 20.5766C14.0907 20.589 14.1019 20.6014 14.1131 20.6136C14.1552 20.6594 14.196 20.7067 14.2367 20.7539C14.322 20.8527 14.4072 20.9515 14.5041 21.0367C14.8169 21.3117 15.1833 21.4212 15.5965 21.3248C15.8969 21.2557 16.1307 21.0804 16.3283 20.8499C16.3562 20.8173 16.384 20.7844 16.4117 20.7516C16.4918 20.6568 16.572 20.5619 16.6575 20.472C16.7588 20.3642 16.8897 20.3239 17.0387 20.3412C17.1778 20.3568 17.2741 20.4399 17.3622 20.5362C17.4152 20.5945 17.4674 20.6537 17.5197 20.713C17.6069 20.8118 17.6942 20.9107 17.7853 21.0055C18.2125 21.4483 18.8669 21.4393 19.2917 21.1651C19.4349 21.073 19.5543 20.9536 19.667 20.8268C19.6881 20.8032 19.7091 20.7796 19.7301 20.7559C19.8234 20.6508 19.917 20.5454 20.0144 20.4432C20.0901 20.3642 20.1897 20.3313 20.3009 20.3321C20.4441 20.3337 20.5528 20.4054 20.6449 20.5058C20.7003 20.5661 20.7547 20.6273 20.8089 20.6884C20.908 20.7998 21.0069 20.9112 21.1117 21.017C21.3216 21.2294 21.5842 21.3388 21.8813 21.3569C22.2378 21.3783 22.5456 21.2565 22.7975 21.0046C22.9008 20.9019 22.9983 20.7925 23.0956 20.6833C23.1301 20.6446 23.1645 20.6059 23.1992 20.5675C23.3301 20.4235 23.4849 20.3296 23.6857 20.323C23.7861 20.3198 23.8676 20.2704 23.9236 20.188C23.9452 20.1554 23.9608 20.1188 23.9764 20.082Z" fill="#0C1E3C"/>
</svg>
