<svg width="24" height="24" viewBox="0 0 24 24" fill="none" xmlns="http://www.w3.org/2000/svg">
<path fill-rule="evenodd" clip-rule="evenodd" d="M8.45752 2.63018C8.75952 2.27718 9.25452 2.03518 9.73352 2.00318C9.98352 1.98718 10.1965 2.03018 10.4055 2.13618C10.7085 2.29218 10.9375 2.56118 11.1605 3.02318C11.2305 3.17118 11.2425 3.18818 11.2625 3.18418C11.2708 3.1829 11.307 3.17303 11.3544 3.16006C11.3812 3.15276 11.4115 3.14447 11.4425 3.13618C12.2965 2.89918 13.2405 2.86918 14.1355 3.05218C14.3995 3.10718 14.5735 3.15318 14.8585 3.24218L14.9955 3.28518L15.0985 3.18518C15.2765 3.01318 15.4195 2.90918 15.6195 2.81018C15.9715 2.63418 16.3375 2.56118 16.6635 2.60118C17.0415 2.64718 17.3735 2.83418 17.6025 3.12818C17.8395 3.43418 17.9515 3.77518 17.9355 4.14118C17.9265 4.35718 17.8895 4.52018 17.7585 4.92918C17.7295 5.02218 17.6995 5.12418 17.6945 5.15818C17.6912 5.17535 17.6884 5.18797 17.6883 5.20062C17.688 5.24098 17.7149 5.28156 17.8375 5.47118C18.1175 5.90618 18.2705 6.22418 18.4205 6.68118C18.6615 7.41418 18.7415 8.20518 18.6425 8.89318C18.5585 9.47418 18.3465 9.99218 18.0335 10.3792C17.9485 10.4842 17.7535 10.6802 17.6545 10.7602C17.5865 10.8142 17.5785 10.8242 17.5865 10.8442C17.5925 10.8572 17.6235 10.9852 17.6565 11.1292C17.7745 11.6542 17.8775 11.9212 18.0235 12.0812C18.1105 12.1782 18.2155 12.2212 18.6325 12.3362C19.1545 12.4802 19.3945 12.5972 19.6155 12.8182C19.8635 13.0662 20.0335 13.4612 20.0725 13.8832C20.1015 14.1812 20.0365 14.5632 19.8955 14.9332C19.8755 14.9852 19.8605 15.0302 19.8615 15.0312C19.8635 15.0332 19.9875 15.0592 20.1365 15.0902C21.8675 15.4432 22.9085 15.8122 23.4975 16.2822C23.5995 16.3632 23.7575 16.5152 23.8545 16.6532C23.9305 16.7608 23.9631 16.8602 23.9768 16.9019C23.9782 16.9064 23.9795 16.9101 23.9805 16.9132C24.0235 17.0482 23.9915 17.3162 23.9015 17.5662C23.5135 18.6352 21.9935 19.4942 19.3145 20.1602C17.5995 20.5862 15.3435 20.9232 13.3775 21.0472C10.8475 21.2042 8.29952 21.0872 6.05252 20.7092C5.61752 20.6372 3.98752 20.3262 3.50252 20.2232C1.88852 19.8832 0.946518 19.5432 0.483518 19.1362C0.379518 19.0432 0.330518 18.9632 0.311518 18.8502C0.281518 18.6772 0.380518 18.4822 0.538518 18.4052C0.569518 18.3912 0.689518 18.3562 0.808518 18.3302C1.17852 18.2452 1.46852 18.1662 2.23852 17.9402C3.07252 17.6942 3.51352 17.5862 4.07652 17.4842C4.20052 17.4632 4.30252 17.4412 4.30252 17.4382C4.30252 17.4292 3.62852 17.3352 2.92652 17.2462C1.73952 17.0962 1.33052 17.0402 0.899518 16.9702C0.645518 16.9282 0.367518 16.8772 0.310518 16.8612C0.0585181 16.7942 -0.0704819 16.5102 0.0395181 16.2692C0.0775181 16.1852 0.142518 16.1212 0.280518 16.0312C1.60952 15.1622 3.41652 14.6312 5.88652 14.3802C6.03352 14.3652 6.15352 14.3512 6.15552 14.3502C6.15752 14.3482 6.15052 14.3062 6.14152 14.2572C6.11552 14.1252 6.11552 13.7722 6.14152 13.6432C6.16852 13.5042 6.20952 13.3702 6.25852 13.2542C6.50352 12.6792 6.96152 12.3622 7.64152 12.2932C7.88152 12.2692 8.02352 12.2832 8.40652 12.3712C8.54652 12.4042 8.70152 12.4362 8.75152 12.4432L8.84152 12.4562L8.86952 12.4242C8.93152 12.3552 8.96652 12.2412 9.09752 11.6842C9.12552 11.5702 9.16552 11.4222 9.18752 11.3542C9.21552 11.2682 9.22252 11.2312 9.21452 11.2292C9.21229 11.2281 9.20325 11.2237 9.18896 11.2168C9.15186 11.1989 9.07936 11.1639 8.99852 11.1242C8.54852 10.9022 8.24852 10.6912 7.91852 10.3612C7.71952 10.1612 7.57452 9.98618 7.42552 9.76218C7.13552 9.32518 6.93052 8.82018 6.83252 8.30018C6.77852 8.01218 6.74252 7.46218 6.77152 7.36018C6.78052 7.32818 6.79352 7.25218 6.79952 7.19018C6.85952 6.64518 7.05852 6.10218 7.35252 5.68518C7.56552 5.38218 7.88752 5.06518 8.19852 4.85218L8.26852 4.80518L8.21252 4.68718C7.88252 3.99118 7.97852 3.18718 8.45752 2.63018ZM9.99652 2.89218C10.1635 2.96918 10.3105 3.20018 10.5335 3.73118C10.5775 3.83418 10.6205 3.93118 10.6285 3.94618C10.6825 4.03318 10.7755 4.10718 10.8715 4.13718C10.9845 4.17118 11.0395 4.16618 11.2165 4.10418C11.6875 3.94118 11.9735 3.87318 12.4225 3.82118C12.6495 3.79518 13.1135 3.79018 13.3565 3.81018C13.8915 3.85618 14.3895 3.96618 14.8625 4.14718C15.0915 4.23318 15.1735 4.23718 15.3135 4.17418C15.3845 4.14118 15.4345 4.09418 15.5145 3.98818C15.6845 3.75818 15.9525 3.57218 16.2265 3.49118C16.3395 3.45718 16.5125 3.44518 16.6105 3.46318C16.7765 3.49418 16.9155 3.60818 17.0035 3.78318C17.0655 3.90718 17.0785 3.97318 17.0715 4.12118C17.0655 4.25318 17.0445 4.34018 16.9515 4.62818C16.8585 4.92018 16.8385 5.00818 16.8325 5.16918C16.8205 5.44618 16.8595 5.54518 17.1465 5.98918C17.3415 6.29118 17.4645 6.55218 17.5815 6.90718C17.6455 7.10018 17.7345 7.44118 17.7235 7.45218C17.7205 7.45518 17.6915 7.46218 17.6575 7.46918C17.6165 7.47618 17.5225 7.51818 17.3705 7.59518C17.0275 7.77018 16.7595 7.86818 16.3555 7.96918C15.8105 8.10718 15.2335 8.18318 14.4075 8.22818C14.0705 8.24618 12.7925 8.24618 12.4865 8.22818C11.5545 8.17218 10.8995 8.09218 10.1245 7.93618C9.36552 7.78518 8.53652 7.54718 7.86152 7.28818L7.66952 7.21518L7.67252 7.16218C7.67552 7.09018 7.74252 6.82318 7.78852 6.70018C7.87552 6.46518 8.00552 6.23618 8.15852 6.04418C8.25452 5.92518 8.44952 5.73418 8.56552 5.64618C8.64152 5.58918 9.08652 5.30418 9.11252 5.29018C9.24952 5.21618 9.33852 5.02018 9.30652 4.86018C9.28852 4.76718 9.25352 4.69718 9.18152 4.61718C9.01752 4.43518 8.92352 4.23818 8.89052 4.01018C8.87252 3.89318 8.88352 3.67618 8.91052 3.57718C8.97452 3.34318 9.09752 3.16518 9.28552 3.03718C9.39852 2.96118 9.58952 2.88718 9.73952 2.86318C9.81152 2.85218 9.93852 2.86618 9.99652 2.89218ZM14.0125 9.10218C11.7485 9.16518 9.75752 8.87518 7.85652 8.20518C7.77252 8.17518 7.69852 8.15118 7.69352 8.15118C7.68952 8.15118 7.68752 8.16218 7.69052 8.17418C7.69147 8.18086 7.69447 8.19437 7.69822 8.21122L7.69822 8.21124C7.70233 8.22972 7.70734 8.25222 7.71152 8.27418C7.83052 8.80718 8.12652 9.34818 8.51752 9.74318C8.79352 10.0222 9.03352 10.1872 9.47952 10.4032C10.2085 10.7572 11.0655 10.9652 12.1455 11.0512C12.4245 11.0732 13.2355 11.0762 13.5215 11.0572C14.4835 10.9902 15.3275 10.8352 16.1035 10.5832C16.6155 10.4162 16.8775 10.2932 17.0925 10.1222C17.5255 9.77218 17.7815 9.19218 17.8185 8.46818C17.8215 8.39318 17.8225 8.33218 17.8195 8.33218C17.8165 8.33218 17.7355 8.37018 17.6395 8.41718C16.7255 8.85518 15.6665 9.05618 14.0125 9.10218ZM16.8355 11.4072C16.9505 11.9012 17.0705 12.2162 17.2425 12.4742C17.3855 12.6882 17.5955 12.8762 17.7925 12.9652C17.9015 13.0142 18.1245 13.0882 18.3765 13.1582C18.7495 13.2612 18.8665 13.3072 18.9735 13.3952C19.0635 13.4662 19.1405 13.6102 19.1885 13.7952C19.2215 13.9182 19.2235 14.1502 19.1945 14.2892C19.1395 14.5512 18.9785 14.9212 18.7695 15.2662C18.5835 15.5722 18.2285 16.1072 18.0905 16.2902C18.0045 16.4042 17.8455 16.5912 17.7915 16.6422L17.7585 16.6732L17.7125 16.6542C17.5565 16.5922 17.3885 16.6252 17.2625 16.7442C17.2315 16.7742 17.1945 16.8222 17.1805 16.8512C17.1525 16.9102 17.1445 16.9152 17.1335 16.8822C17.1185 16.8362 16.9965 16.7222 16.9235 16.6852C16.8345 16.6402 16.7005 16.6002 16.5825 16.5842C16.5335 16.5782 16.4925 16.5702 16.4915 16.5692C16.4885 16.5682 16.5245 16.5122 16.5685 16.4442C16.6615 16.3022 16.7995 16.0332 16.8485 15.8962C16.9215 15.6962 16.9445 15.4762 16.9095 15.3412C16.8495 15.1122 16.6355 14.9732 16.4145 15.0192C16.3235 15.0392 16.2645 15.0672 16.2025 15.1252C16.1135 15.2072 16.0725 15.3032 16.0665 15.4482C16.0625 15.5662 16.0305 15.6562 15.9315 15.8322C15.7805 16.1062 15.5555 16.4132 15.3065 16.6912C15.2285 16.7772 15.2115 16.7912 15.2085 16.7722C15.2025 16.7332 15.2295 16.3832 15.2555 16.1682C15.2705 16.0542 15.3035 15.8062 15.3305 15.6182C15.4185 14.9922 15.4445 14.7132 15.4455 14.3532C15.4455 14.1342 15.4435 14.1082 15.4225 14.0522C15.2885 13.6852 14.7925 13.6592 14.6265 14.0102L14.5935 14.0812L14.5865 14.3692C14.5765 14.7552 14.5625 14.8892 14.4565 15.6822C14.4355 15.8352 14.4085 16.0582 14.3965 16.1792C14.3906 16.2337 14.3849 16.2881 14.3802 16.3333C14.3745 16.3876 14.3702 16.4286 14.3685 16.4412L14.3635 16.4862L13.7905 16.4912C13.2835 16.4972 12.9365 16.5112 12.6715 16.5362L12.6545 16.5383C12.6347 16.541 12.622 16.5427 12.6133 16.5376C12.5979 16.5286 12.5948 16.4984 12.5864 16.4148L12.5825 16.3762C12.5325 15.8772 12.3695 15.1462 12.1345 14.3642C12.0585 14.1132 12.0345 14.0622 11.9575 13.9912C11.7225 13.7772 11.3615 13.8692 11.2605 14.1702C11.2265 14.2712 11.2305 14.3492 11.2795 14.5102C11.3985 14.8942 11.5315 15.3982 11.6075 15.7432C11.7135 16.2272 11.7775 16.7692 11.7525 16.9792L11.7455 17.0482L11.6635 16.9472C11.4405 16.6692 11.1905 16.2742 11.0165 15.9272C10.9255 15.7462 10.8965 15.6702 10.9035 15.6352C10.9065 15.6192 10.9045 15.5792 10.8975 15.5432C10.8635 15.3592 10.7375 15.2292 10.5555 15.1902C10.4195 15.1622 10.2845 15.2022 10.1785 15.3022C10.0065 15.4642 9.98652 15.6892 10.1145 16.0182C10.1885 16.2112 10.3445 16.5162 10.4835 16.7442C10.5165 16.7992 10.5285 16.8272 10.5205 16.8312C10.4965 16.8452 10.2625 16.8932 10.1695 16.9052C10.0515 16.9182 9.99752 16.9102 9.94152 16.8672C9.85852 16.8042 9.79352 16.7832 9.68052 16.7822C9.58852 16.7822 9.57252 16.7852 9.50752 16.8162C9.42852 16.8532 9.35152 16.9232 9.31952 16.9862L9.29852 17.0262L9.28652 16.9632C9.23852 16.7202 9.11152 16.5222 8.85252 16.2852C8.73152 16.1732 8.53652 16.0272 8.21652 15.8062C7.89352 15.5832 7.76652 15.4802 7.65252 15.3492C7.28852 14.9322 7.05752 14.5132 6.99552 14.1612C6.97352 14.0282 6.97952 13.8022 7.01052 13.7022C7.09652 13.4162 7.25952 13.2492 7.51452 13.1852C7.74252 13.1292 7.89952 13.1352 8.21852 13.2112C8.72752 13.3322 8.92152 13.3392 9.16152 13.2492C9.35452 13.1762 9.54152 13.0032 9.65352 12.7912C9.75552 12.6002 9.79752 12.4702 9.89952 12.0312C9.96452 11.7492 10.0145 11.5732 10.0325 11.5522C10.0375 11.5482 10.1195 11.5652 10.2165 11.5932C11.5975 11.9822 13.2355 12.0422 14.8655 11.7632C15.4885 11.6572 16.2025 11.4692 16.6855 11.2852C16.7385 11.2652 16.7855 11.2502 16.7905 11.2512C16.7965 11.2522 16.8165 11.3222 16.8355 11.4072ZM6.51252 15.2362C6.70852 15.5682 6.96852 15.8992 7.19852 16.1142C7.32252 16.2282 7.43452 16.3122 7.76552 16.5422C8.15352 16.8112 8.29252 16.9212 8.38552 17.0342C8.44952 17.1132 8.45152 17.1212 8.40852 17.1752C8.35552 17.2412 8.32952 17.2872 8.31052 17.3522C8.26452 17.5082 8.31352 17.6752 8.43752 17.7892C8.55052 17.8942 8.80652 17.9762 9.05652 17.9892C9.32752 18.0042 9.55952 17.9392 9.75452 17.7962L9.82352 17.7452L9.90352 17.7572C10.1375 17.7932 10.3945 17.7602 10.8515 17.6362L11.0695 17.5772L11.1765 17.6892C11.3635 17.8862 11.5155 17.9812 11.6915 18.0102C11.8955 18.0462 12.1195 17.9832 12.2765 17.8452C12.4065 17.7312 12.4765 17.6212 12.5435 17.4272C12.5475 17.4142 12.5695 17.4072 12.6325 17.4032C13.1275 17.3622 13.6035 17.3452 14.0825 17.3512L14.3495 17.3542L14.3715 17.4532C14.4035 17.5932 14.4505 17.6852 14.5365 17.7712C14.6615 17.8992 14.8305 17.9572 15.0045 17.9312C15.2275 17.8992 15.4245 17.7832 15.6835 17.5322L15.8125 17.4072L16.0625 17.4132C16.1995 17.4162 16.3255 17.4222 16.3425 17.4272C16.3695 17.4332 16.3755 17.4432 16.3975 17.5112C16.4285 17.6092 16.4725 17.6782 16.5535 17.7532C16.6715 17.8622 16.7965 17.9082 16.9735 17.9082C17.1475 17.9082 17.4715 17.8542 17.5715 17.8082C17.6345 17.7792 17.7045 17.7192 17.7365 17.6682C17.7545 17.6382 17.7655 17.6332 17.8135 17.6272C17.8885 17.6192 18.0575 17.5332 18.1785 17.4412C18.2325 17.4022 18.3375 17.3072 18.4135 17.2302C18.6685 16.9752 18.9005 16.6632 19.2815 16.0672C19.3595 15.9432 19.4275 15.8392 19.4315 15.8342C19.4405 15.8252 19.9655 15.9292 20.3985 16.0252C21.3535 16.2372 22.0275 16.4462 22.5005 16.6762C22.7315 16.7882 22.8875 16.8892 23.0495 17.0282L23.0579 17.0356L23.058 17.0356C23.0971 17.0698 23.1184 17.0885 23.1258 17.1117C23.1346 17.1395 23.1231 17.1736 23.098 17.2488L23.0925 17.2652C22.8795 17.8992 21.7725 18.5522 20.0245 19.0762C18.5625 19.5152 16.5795 19.8802 14.5515 20.0852C11.5435 20.3892 8.37252 20.2782 5.72752 19.7772C3.74452 19.4012 3.44352 19.3412 2.86252 19.1942C2.42552 19.0832 1.93552 18.9372 1.95252 18.9222C1.95752 18.9182 2.03052 18.8942 2.11552 18.8702C3.56352 18.4502 3.66152 18.4272 4.86852 18.2192C5.68052 18.0792 5.96452 18.0222 6.35152 17.9232C6.63352 17.8502 6.68452 17.8292 6.76252 17.7472C6.84152 17.6652 6.87652 17.5862 6.88252 17.4802C6.89052 17.3432 6.84552 17.2282 6.74752 17.1362C6.68252 17.0752 6.65752 17.0632 6.51052 17.0182C5.77252 16.7952 4.87452 16.6272 3.37952 16.4362C3.15152 16.4062 2.72152 16.3502 2.42452 16.3122C2.12852 16.2752 1.86252 16.2412 1.83252 16.2362C1.74752 16.2272 1.74352 16.2222 1.79552 16.1992C2.07352 16.0732 2.63552 15.8752 3.01152 15.7692C3.94852 15.5042 4.86952 15.3442 6.13252 15.2242L6.18926 15.2188H6.18926H6.18927C6.43092 15.1959 6.47571 15.1917 6.49633 15.212C6.50102 15.2166 6.50446 15.2225 6.50869 15.2297L6.51252 15.2362ZM16.8305 4.26618C16.8305 4.57818 16.5775 4.83118 16.2655 4.83118C15.9525 4.83118 15.6995 4.57818 15.6995 4.26618C15.6995 3.95318 15.9525 3.70018 16.2655 3.70018C16.5775 3.70018 16.8305 3.95318 16.8305 4.26618ZM9.70552 4.43118C10.0175 4.43118 10.2705 4.17818 10.2705 3.86618C10.2705 3.55318 10.0175 3.30018 9.70552 3.30018C9.39252 3.30018 9.13952 3.55318 9.13952 3.86618C9.13952 4.17818 9.39252 4.43118 9.70552 4.43118Z" fill="#0C1E3C"/>
</svg>
