<svg width="24" height="24" viewBox="0 0 24 24" fill="none" xmlns="http://www.w3.org/2000/svg">
<path fill-rule="evenodd" clip-rule="evenodd" d="M11.9535 0H12.3443C12.3535 0.00107949 12.3626 0.00251621 12.3716 0.00394237C12.3829 0.00574837 12.3942 0.00753744 12.4055 0.00856269C12.44 0.0116695 12.4746 0.0144486 12.5091 0.0172264C12.5901 0.0237452 12.6711 0.0302568 12.7517 0.0409786C13.1028 0.0862385 13.4459 0.167584 13.7786 0.287462C14.5878 0.578593 15.2783 1.03914 15.8202 1.71498C16.189 2.17554 16.4575 2.68624 16.6061 3.25872C16.7132 3.67217 16.7584 4.09358 16.7584 4.51988C16.759 9.83303 16.759 15.1462 16.759 20.4587L16.7589 20.4782C16.7587 20.491 16.7586 20.5036 16.759 20.5162C16.7594 20.5241 16.7603 20.5319 16.7612 20.5399L16.7612 20.5399L16.7627 20.5535L16.7704 20.5565C16.7843 20.562 16.7967 20.5668 16.8086 20.5725C16.8216 20.5785 16.8347 20.5843 16.8477 20.5902L16.8479 20.5903L16.848 20.5903L16.848 20.5903L16.848 20.5903C16.8815 20.6053 16.9148 20.6202 16.9468 20.6373C17.0434 20.6905 17.1028 20.7719 17.1174 20.882C17.1254 20.945 17.1315 21.0086 17.1321 21.0722C17.1346 21.2422 17.1339 21.4128 17.1321 21.5829C17.1321 21.6165 17.1431 21.6385 17.1682 21.6593C17.209 21.6929 17.2493 21.7269 17.2896 21.7609L17.2896 21.7609L17.2896 21.7609L17.2896 21.7609C17.3455 21.808 17.4013 21.8551 17.4581 21.9009C17.4911 21.9272 17.5034 21.9554 17.5034 21.9976C17.5021 22.5604 17.5021 23.1239 17.5021 23.6868V23.6881L17.5022 23.6928L17.5025 23.6997C17.5029 23.7086 17.5032 23.7174 17.5015 23.726C17.4991 23.7395 17.496 23.7547 17.4875 23.7651C17.3865 23.8954 17.2599 23.981 17.0905 23.992C17.0823 23.9928 17.0742 23.9947 17.0659 23.9966L17.0544 23.9991L17.0495 24H16.9829C16.9775 23.9993 16.972 23.9984 16.9666 23.9975C16.9536 23.9954 16.9406 23.9933 16.9272 23.9933C16.3009 23.9921 15.6746 23.9914 15.0477 23.9914C13.7009 23.9908 12.3541 23.9902 11.0073 23.9902H10.9965C9.82822 23.9902 8.65998 23.9902 7.49174 23.9896C7.43976 23.9896 7.38716 23.9865 7.33517 23.9798C7.16697 23.9578 7.06606 23.8648 7.0263 23.6991C7.02497 23.6932 7.02399 23.6872 7.023 23.681C7.02172 23.6731 7.02042 23.6651 7.01835 23.6575C7.01468 23.6444 7.01047 23.6314 7.00625 23.6183L7.00625 23.6183L7 23.5988V22.0997L7.0055 22.0765C7.01067 22.0551 7.01581 22.0338 7.01896 22.0122C7.03425 21.9064 7.08318 21.8226 7.17554 21.7676L7.18986 21.7592C7.22622 21.7379 7.26322 21.7162 7.30214 21.7021C7.34801 21.6856 7.36453 21.6557 7.3737 21.6122C7.3937 21.5162 7.38795 21.4206 7.38217 21.3247C7.38089 21.3033 7.3796 21.282 7.37859 21.2605L7.37677 21.2227C7.37286 21.143 7.36895 21.0633 7.3737 20.9841C7.38349 20.8318 7.45321 20.7107 7.58471 20.6294C7.61309 20.6117 7.64328 20.5971 7.67338 20.5826C7.68609 20.5764 7.69878 20.5703 7.71131 20.5639C7.71942 20.5601 7.72778 20.5567 7.73684 20.553L7.73694 20.553L7.73698 20.553L7.75352 20.5462V20.4746C7.75352 15.1346 7.75352 9.7945 7.75413 4.45443C7.75413 4.19572 7.78287 3.93945 7.83425 3.68685C7.94312 3.15107 8.14434 2.65199 8.43058 2.18777C8.91254 1.40856 9.55535 0.804281 10.3798 0.398165C10.8196 0.18104 11.285 0.0574924 11.7737 0.017737C11.808 0.014941 11.8422 0.0113462 11.8765 0.00775136C11.9021 0.00505523 11.9278 0.00235911 11.9535 0ZM15.9645 20.4844V20.5584H8.54679V20.5046V20.0985C8.54679 18.0478 8.54664 15.9971 8.54648 13.9463C8.54633 11.8954 8.54618 9.84442 8.54618 7.79327L8.5459 6.91305C8.54554 6.13062 8.54518 5.34818 8.5474 4.56575C8.54924 3.87829 8.70642 3.22875 9.05138 2.63058C9.47829 1.89113 10.0972 1.37187 10.885 1.05138C11.1761 0.932722 11.4777 0.850153 11.7884 0.804281C12.0685 0.763914 12.3492 0.75841 12.6306 0.790214C13.5034 0.889908 14.2471 1.25933 14.8716 1.87217C15.2734 2.26544 15.5694 2.72844 15.7547 3.26055C15.844 3.51682 15.8997 3.78043 15.926 4.05076C15.9523 4.32355 15.9639 4.59694 15.9639 4.87034C15.9633 5.96391 15.9633 7.05749 15.9633 8.15107C15.9636 10.2063 15.9638 12.2616 15.9639 14.3168V14.317V14.3173V14.3175V14.3177C15.9641 16.3734 15.9642 18.429 15.9645 20.4844ZM8.18593 21.6777H16.3242V21.3853H8.18593V21.6777ZM7.81896 22.5058C7.80856 22.5774 7.81223 23.1437 7.82202 23.1761H16.6979V22.5058H7.81896Z" fill="#0C1E3C"/>
</svg>
