<svg width="24" height="24" viewBox="0 0 24 24" fill="none" xmlns="http://www.w3.org/2000/svg">
<path fill-rule="evenodd" clip-rule="evenodd" d="M23.7893 4.61879L23.7893 4.61895C23.7818 4.64369 23.7744 4.66836 23.7657 4.69235C23.6837 4.91261 23.4245 5.12288 23.1188 5.03747C22.985 5.00051 22.8706 4.92959 22.7657 4.84069C22.7284 4.8089 22.6918 4.77592 22.6528 4.74075L22.6526 4.74061L22.5989 4.69235L22.5637 4.72404L22.5635 4.72425C22.5401 4.74534 22.5167 4.76643 22.491 4.78974L22.5062 4.81092L22.5062 4.81097L22.5063 4.81106C22.5185 4.82826 22.53 4.84435 22.5425 4.85966C22.5629 4.88457 22.5838 4.90919 22.6047 4.93384C22.6462 4.98284 22.6879 5.03191 22.7258 5.08342C22.8846 5.29869 22.8921 5.53943 22.7517 5.76519C22.6074 5.99744 22.3442 6.08235 22.1004 5.95948C22.0184 5.9181 21.9447 5.85946 21.8713 5.80102L21.8713 5.801L21.8713 5.80098C21.8463 5.78114 21.8215 5.76133 21.7963 5.74222C21.7662 5.71923 21.7384 5.69305 21.7092 5.66552C21.6952 5.65236 21.6809 5.63891 21.6659 5.62534C21.6252 5.66218 21.5857 5.69809 21.5469 5.73339C21.491 5.78425 21.4366 5.83383 21.3817 5.88307C21.1455 6.09384 20.8783 6.24667 20.5646 6.30911C20.5052 6.32059 20.4447 6.33008 20.3843 6.33508C20.3233 6.34057 20.2769 6.36655 20.2349 6.4095C20.1546 6.49049 20.0734 6.57072 19.9923 6.65101L19.9922 6.65111L19.9921 6.65121L19.9919 6.65132L19.9919 6.65141L19.9918 6.6515C19.9409 6.70177 19.8901 6.75206 19.8394 6.80258C18.9588 7.68213 18.0783 8.56169 17.1977 9.44174C17.1774 9.46209 17.1576 9.48298 17.1363 9.50544L17.1133 9.52965L17.1361 9.56584C17.1507 9.58892 17.1644 9.61062 17.1777 9.63254C17.2446 9.74059 17.3126 9.84797 17.3806 9.95535L17.3808 9.95563C17.5328 10.1956 17.6849 10.4356 17.8235 10.6829C18.0873 11.1539 18.2581 11.6619 18.339 12.1973C18.5408 13.5308 18.0138 14.8854 16.903 15.6566C16.6758 15.8139 16.4315 15.9393 16.1738 16.0392C16.0365 16.0924 15.8995 16.1464 15.7624 16.2003L15.7622 16.2004L15.7617 16.2006L15.7612 16.2007C15.5531 16.2826 15.345 16.3645 15.1359 16.4442C14.7568 16.5891 14.5306 16.8593 14.4447 17.2538C14.3383 17.7428 14.2304 18.2308 14.1205 18.7188C13.9747 19.3691 13.7969 20.0099 13.4987 20.6082C12.9722 21.6646 12.2335 22.5362 11.2191 23.156C10.6882 23.4802 10.1113 23.6809 9.49249 23.7619C8.95707 23.8323 8.42863 23.7858 7.9052 23.6705C6.93174 23.4562 6.05269 23.0291 5.23506 22.4667C4.58177 22.0172 3.9894 21.4948 3.41702 20.9489C2.66433 20.2306 1.98206 19.4525 1.40568 18.5839C1.0146 17.9945 0.685455 17.3747 0.468188 16.6984C0.297871 16.167 0.200975 15.6216 0.199976 15.0647C0.197479 13.9634 0.563086 12.9899 1.27083 12.1478C2.05348 11.2158 3.03243 10.5695 4.1767 10.167C4.59875 10.0181 5.03428 9.91923 5.47031 9.82233C5.87138 9.73343 6.27295 9.64802 6.67552 9.56661C7.08558 9.4837 7.37527 9.25444 7.53809 8.87035C7.60779 8.70637 7.67409 8.54079 7.74035 8.3753L7.74036 8.37529L7.74037 8.37527L7.74037 8.37525L7.74043 8.3751L7.74049 8.37496L7.74055 8.37481C7.77251 8.295 7.80445 8.21522 7.83677 8.13564C7.97812 7.78752 8.12696 7.44339 8.33723 7.12923C8.84419 6.37254 9.54843 5.90904 10.4365 5.72274C11.4769 5.50447 12.4553 5.68378 13.3718 6.20772C13.6001 6.33833 13.8217 6.48054 14.0433 6.62278C14.1438 6.68723 14.2442 6.75168 14.3453 6.81506C14.3747 6.83342 14.4037 6.85212 14.4362 6.87305L14.4587 6.88749C14.4691 6.87799 14.4793 6.86896 14.4893 6.86013C14.5066 6.84481 14.5232 6.83009 14.5391 6.81456C15.5475 5.80515 16.5564 4.79523 17.5653 3.78632C17.6143 3.73737 17.6527 3.68742 17.6582 3.61251C17.6812 3.29635 17.8061 3.01814 17.9959 2.76841C18.0606 2.68352 18.1318 2.60371 18.2032 2.52376C18.2343 2.48894 18.2654 2.4541 18.296 2.41879C18.3107 2.40192 18.3259 2.38567 18.3423 2.36821C18.3516 2.35827 18.3613 2.34793 18.3714 2.33688L18.3527 2.31542C18.3261 2.28497 18.3015 2.25681 18.2775 2.22799C18.2593 2.20567 18.2406 2.1836 18.2219 2.16152L18.2219 2.16151L18.2219 2.1615L18.2219 2.16146C18.1758 2.107 18.1298 2.05252 18.0893 1.99424C17.9329 1.76949 17.9569 1.53074 18.1507 1.31997C18.3235 1.13267 18.5967 1.08972 18.816 1.22357C18.887 1.26671 18.9541 1.31685 19.021 1.36691L19.0211 1.36692L19.0211 1.36698L19.0212 1.36703L19.0212 1.36705C19.0488 1.38766 19.0764 1.40826 19.1042 1.42835C19.1294 1.44678 19.1537 1.46584 19.1801 1.48658L19.1801 1.48663L19.2001 1.50227C19.2365 1.46981 19.2675 1.44184 19.3044 1.40837C19.2977 1.39915 19.2915 1.39036 19.2856 1.38194C19.2745 1.3662 19.2644 1.35179 19.253 1.33845C19.2299 1.31153 19.2062 1.28514 19.1824 1.25878L19.1824 1.25876C19.1415 1.21323 19.1005 1.16776 19.0632 1.11968C18.9054 0.916902 18.8919 0.664673 19.0227 0.458395C19.1816 0.208164 19.4718 0.128749 19.734 0.2681C19.8024 0.304794 19.8649 0.352812 19.9269 0.400422L19.9269 0.400429L19.9283 0.401456C19.9782 0.439452 20.0262 0.479927 20.0769 0.522704L20.077 0.522746C20.0982 0.540685 20.12 0.55903 20.1425 0.577767C20.174 0.554792 20.205 0.532316 20.2364 0.510339C20.4247 0.375984 20.628 0.273594 20.8563 0.229142C21.2898 0.145232 21.6829 0.241628 22.022 0.521827C22.2228 0.687649 22.4126 0.868454 22.5969 1.05276C22.8357 1.29075 23.0689 1.5344 23.3021 1.77805L23.3021 1.77813L23.3023 1.77824L23.4335 1.91533C23.5973 2.08665 23.7087 2.28843 23.7637 2.51968C23.7734 2.56005 23.7814 2.60091 23.7895 2.64174L23.7895 2.64178L23.7895 2.64196L23.8001 2.69499V2.97419C23.7961 2.99617 23.7924 3.01821 23.7887 3.04025C23.7812 3.08431 23.7738 3.12836 23.7642 3.17198C23.7157 3.38775 23.6203 3.58154 23.4914 3.75935L23.4603 3.80273L23.4602 3.80289L23.46 3.80313C23.4478 3.8203 23.4352 3.83802 23.4215 3.85674L23.4527 3.89445C23.4791 3.92631 23.5035 3.95584 23.5284 3.98511L23.5492 4.0089C23.6589 4.13462 23.7686 4.26025 23.8001 4.43362V4.58346C23.7974 4.59192 23.7949 4.60041 23.7923 4.60889L23.7893 4.61879ZM12.7585 12.2517C12.7824 12.2256 12.8054 12.2 12.828 12.1749C12.8826 12.1144 12.9347 12.0566 12.9897 12.0015C13.328 11.6636 13.6666 11.3262 14.0052 10.9889L14.6155 10.3807L15.25 9.7478C15.8842 9.1153 16.5184 8.4828 17.1518 7.84945C17.4764 7.52485 17.8004 7.1999 18.1245 6.87497C18.5783 6.41994 19.0321 5.96494 19.4872 5.51097C19.5777 5.42056 19.677 5.33665 19.7819 5.26373C19.9478 5.14885 20.1366 5.11189 20.3343 5.15685C20.4267 5.17782 20.4897 5.15235 20.5541 5.08792C21.2154 4.42413 21.8782 3.76185 22.543 3.10155C22.6224 3.02264 22.6434 2.93324 22.6294 2.82835C22.6144 2.71547 22.5485 2.63206 22.472 2.55464C22.3827 2.46488 22.2936 2.37502 22.2044 2.28517L22.204 2.28471L22.2035 2.28425L22.2028 2.28353L22.2018 2.28254L22.2001 2.28078C22.001 2.08012 21.8019 1.87951 21.6015 1.68008C21.5206 1.59967 21.4342 1.52425 21.3458 1.45183C21.1839 1.31947 21.0286 1.32846 20.8773 1.4733C20.8541 1.49575 20.8314 1.51847 20.8087 1.54126L20.8087 1.54133L20.8086 1.54138L20.7859 1.56421L20.4573 1.89467C20.156 2.19783 19.8546 2.50102 19.5517 2.80288C19.4277 2.92687 19.3005 3.04735 19.1732 3.16791L19.0567 3.27836C18.8729 3.45318 18.779 3.65696 18.8439 3.91468C18.8724 4.02806 18.8364 4.12745 18.7615 4.21236C18.7129 4.26709 18.6613 4.31881 18.6097 4.37052L18.6097 4.37054L18.6097 4.37055L18.6097 4.37056L18.6097 4.37057L18.6096 4.3706L18.5752 4.40515C18.0368 4.94758 17.4981 5.48979 16.9594 6.03207L16.9559 6.03556L16.1483 6.84853L15.4663 7.53531L15.4645 7.53721L15.4595 7.54214C14.5577 8.45025 13.6558 9.35848 12.7545 10.2674C12.5388 10.4848 12.325 10.7046 12.1112 10.9245C12.0308 11.0072 11.9504 11.0898 11.8699 11.1724C11.8537 11.1889 11.839 11.2066 11.8221 11.2269L11.8221 11.227C11.8135 11.2373 11.8043 11.2483 11.794 11.2603C12.1881 11.5225 12.5162 11.8402 12.7585 12.2517ZM9.32317 13.399C9.34865 14.1617 9.89855 14.6991 10.6358 14.6686C11.3485 14.6392 11.8914 14.0668 11.8694 13.354C11.8475 12.6523 11.2566 12.0959 10.5538 12.1184C9.8546 12.1403 9.3002 12.7172 9.32317 13.399ZM13.5893 7.69845L13.625 7.72758C13.5593 7.79345 13.4946 7.8585 13.4306 7.92292C13.2805 8.07393 13.1338 8.2214 12.9857 8.3674C12.5321 8.81431 12.0782 9.26067 11.6242 9.7071L11.6238 9.70746L11.6234 9.70782L11.6231 9.70817L11.6227 9.70853L11.1657 10.158C11.0916 10.231 11.0172 10.3037 10.9428 10.3765C10.8127 10.5038 10.6826 10.6311 10.5538 10.7598C10.4155 10.8987 10.2482 10.9781 10.0594 11.022C9.64782 11.1184 9.28072 11.3047 8.96606 11.5874C8.51104 11.996 8.24833 12.5049 8.17491 13.1133C8.02457 14.3659 8.86816 15.5092 10.1188 15.7824C11.3365 16.0486 12.4983 15.3009 12.8958 14.1901C12.9166 14.1325 12.9305 14.0723 12.9444 14.0122L12.9444 14.0122C12.9563 13.9609 12.9681 13.9097 12.9842 13.86C13.0122 13.7726 13.0447 13.6837 13.0926 13.6063C13.1411 13.5278 13.206 13.4589 13.2714 13.3935C13.9217 12.7419 14.5723 12.0913 15.223 11.4406L16.1993 10.4641C16.2153 10.4481 16.2319 10.4328 16.2491 10.4168L16.2492 10.4167L16.2787 10.3892C16.2835 10.3937 16.288 10.3975 16.2921 10.4011C16.3006 10.4083 16.3076 10.4143 16.3127 10.4217C16.5629 10.7883 16.8041 11.1599 16.9794 11.5695C17.1338 11.9286 17.2202 12.3037 17.2282 12.6932C17.2412 13.3146 17.0489 13.8685 16.6558 14.35C16.4665 14.5812 16.2243 14.746 15.9515 14.8634C15.7191 14.9638 15.4851 15.0598 15.251 15.1558C15.1415 15.2007 15.032 15.2456 14.9227 15.291L14.89 15.3046C14.7886 15.3469 14.6876 15.3891 14.587 15.4333C13.9092 15.729 13.4932 16.2404 13.3304 16.9602C13.288 17.1485 13.246 17.3369 13.2041 17.5252L13.2041 17.5254C13.1048 17.9716 13.0055 18.4177 12.8998 18.8626C12.6461 19.933 12.1242 20.8555 11.337 21.6246C10.8805 22.0707 10.3501 22.3888 9.72274 22.5342C9.28172 22.6361 8.83719 22.6416 8.39117 22.5781C7.56506 22.4602 6.81287 22.1456 6.1306 21.6761C4.56479 20.5978 3.22672 19.2912 2.20232 17.6789C1.88866 17.1844 1.63543 16.6615 1.49209 16.0901C1.35174 15.5282 1.31078 14.9613 1.42366 14.3899C1.54253 13.7901 1.81774 13.2661 2.21781 12.8076C2.77421 12.1708 3.45498 11.7093 4.23214 11.3847C4.72861 11.1774 5.24755 11.0485 5.77199 10.9326C6.28444 10.8193 6.79489 10.6954 7.30234 10.5615C7.80231 10.4302 8.1779 10.126 8.41065 9.6655C8.53503 9.41928 8.64561 9.16629 8.75611 8.91348L8.75612 8.91347L8.75616 8.91337C8.79874 8.81596 8.8413 8.71858 8.88464 8.62162C8.92086 8.54059 8.95571 8.45892 8.99055 8.37728C9.04268 8.25512 9.09477 8.13303 9.15136 8.01328C9.46102 7.35748 10.2727 6.86351 10.9055 6.78759C11.2976 6.74064 11.6751 6.79508 12.0482 6.90547C12.5852 7.0638 13.0781 7.31003 13.5252 7.64717C13.546 7.66295 13.5664 7.67964 13.5893 7.69845ZM7.89865 19.1396C8.01403 19.249 8.13889 19.3414 8.27725 19.4223C8.43707 19.3599 8.57443 19.2795 8.68631 19.1586C8.71138 19.1318 8.73863 19.1068 8.76592 19.0818C8.79407 19.056 8.82226 19.0302 8.84813 19.0023L8.90619 18.9393C8.99127 18.8472 9.07643 18.7551 9.15331 18.6566C9.24421 18.5403 9.23622 18.4314 9.14481 18.314C9.11185 18.2716 9.07489 18.2321 9.03793 18.1936C8.94689 18.098 8.85557 18.0027 8.76426 17.9074C8.6156 17.7523 8.46698 17.5972 8.3197 17.4409C7.4856 16.5554 6.60554 15.7168 5.719 14.8852C5.56316 14.7388 5.42331 14.7383 5.26548 14.8827L5.2295 14.9155L5.22949 14.9155C5.12 15.0154 5.01035 15.1155 4.90637 15.2208C4.81647 15.3127 4.73006 15.4091 4.65464 15.5125C4.57023 15.6289 4.57622 15.7543 4.65963 15.8721C4.6926 15.9191 4.72956 15.963 4.76902 16.004C4.94129 16.1797 5.11331 16.3556 5.28534 16.5316C6.14573 17.4116 7.00624 18.2917 7.89865 19.1396ZM19.3419 4.13504C19.0987 4.13554 18.9368 3.91678 19.0138 3.69302C19.0347 3.63059 19.0747 3.57165 19.1171 3.5207C19.3851 3.20007 19.6832 2.90879 19.9815 2.61731C20.0312 2.5687 20.0809 2.52009 20.1306 2.47133L20.1713 2.43132C20.3415 2.26432 20.5117 2.09733 20.687 1.93591C20.7649 1.86349 20.8513 1.79606 20.9437 1.74511C21.145 1.63523 21.3537 1.73263 21.4122 1.95439C21.4362 2.04379 21.4387 2.1292 21.3747 2.20762C21.3481 2.24041 21.3235 2.27515 21.299 2.30984C21.2615 2.36286 21.2241 2.41575 21.1794 2.46134C20.6984 2.95182 20.2145 3.43829 19.73 3.92527C19.68 3.97522 19.6236 4.02067 19.5657 4.06212C19.4977 4.11107 19.4208 4.13854 19.3419 4.13504ZM22.2927 2.87415C22.2647 2.69035 22.1393 2.56898 21.972 2.55499C21.9524 2.56185 21.9319 2.5676 21.9115 2.57334C21.8665 2.586 21.8213 2.59869 21.7842 2.62342C21.6838 2.69035 21.5859 2.76427 21.5 2.84918C21.0575 3.28621 20.6175 3.72573 20.181 4.16876C20.0836 4.26715 19.9937 4.37653 19.9182 4.49241C19.7849 4.69669 19.9157 4.9689 20.1575 5.00536C20.1949 5.01135 20.2389 5.00935 20.2729 4.99537C20.3318 4.9714 20.3917 4.94293 20.4397 4.90247C20.4498 4.89398 20.4599 4.8855 20.4701 4.87701C20.6079 4.76164 20.7462 4.64589 20.8732 4.51888C21.2928 4.09933 21.7078 3.67529 22.1214 3.24975C22.1561 3.2138 22.1831 3.17035 22.2102 3.1268C22.2267 3.10016 22.2433 3.07348 22.2617 3.04846C22.3012 2.99452 22.3017 2.93558 22.2927 2.87415Z" fill="#0C1E3C"/>
</svg>
