<svg width="24" height="24" viewBox="0 0 24 24" fill="none" xmlns="http://www.w3.org/2000/svg">
<path fill-rule="evenodd" clip-rule="evenodd" d="M1.5 9.375C1.5 6.30176 4.02246 3.75 7.125 3.75C9.7002 3.75 11.3584 5.2998 12 5.95312C12.6416 5.2998 14.2998 3.75 16.875 3.75C19.9775 3.75 22.5 6.30176 22.5 9.375C22.5 11.5166 20.6484 13.1484 20.6484 13.1484L12.5391 21.2812L12 21.8203L11.4609 21.2812L3.35156 13.1484C3.35156 13.1484 2.88867 12.7178 2.4375 12.0469C1.98633 11.376 1.5 10.4473 1.5 9.375ZM11.4375 7.42969C11.4375 7.42969 9.36621 5.25 7.125 5.25C4.84277 5.25 3 7.12207 3 9.375C3 9.95508 3.31641 10.6611 3.67969 11.2031C4.04297 11.7451 4.40625 12.0938 4.40625 12.0938L12 19.6875L19.5938 12.0938C19.5938 12.0938 21 10.5322 21 9.375C21 7.12207 19.1572 5.25 16.875 5.25C14.6338 5.25 12.5625 7.42969 12.5625 7.42969L12 8.0625L11.4375 7.42969Z" fill="#0C1E3C"/>
</svg>
