<svg width="24" height="24" viewBox="0 0 24 24" fill="none" xmlns="http://www.w3.org/2000/svg">
<path fill-rule="evenodd" clip-rule="evenodd" d="M22.0614 2.95886C20.8047 1.70214 19.1409 1.01526 17.3652 1.01526C15.5895 1.01526 13.9207 1.70723 12.664 2.96395L12.0076 3.6203L11.3411 2.95378C10.0844 1.69705 8.41042 1 6.63472 1C4.86411 1 3.19526 1.69196 1.94363 2.9436C0.686902 4.20032 -0.0050601 5.86917 2.78602e-05 7.64487C2.78602e-05 9.42057 0.697078 11.0843 1.9538 12.3411L11.509 21.8962C11.6413 22.0285 11.8193 22.0998 11.9923 22.0998C12.1653 22.0998 12.3434 22.0336 12.4757 21.9013L22.0512 12.3614C23.308 11.1047 23.9999 9.43583 23.9999 7.66013C24.005 5.88444 23.3181 4.21559 22.0614 2.95886Z" fill="#0092C9"/>
<mask id="mask0_0_2552" style="mask-type:luminance" maskUnits="userSpaceOnUse" x="0" y="1" width="24" height="22">
<path fill-rule="evenodd" clip-rule="evenodd" d="M22.0614 2.95886C20.8047 1.70214 19.1409 1.01526 17.3652 1.01526C15.5895 1.01526 13.9207 1.70723 12.664 2.96395L12.0076 3.6203L11.3411 2.95378C10.0844 1.69705 8.41042 1 6.63472 1C4.86411 1 3.19526 1.69196 1.94363 2.9436C0.686902 4.20032 -0.0050601 5.86917 2.78602e-05 7.64487C2.78602e-05 9.42057 0.697078 11.0843 1.9538 12.3411L11.509 21.8962C11.6413 22.0285 11.8193 22.0998 11.9923 22.0998C12.1653 22.0998 12.3434 22.0336 12.4757 21.9013L22.0512 12.3614C23.308 11.1047 23.9999 9.43583 23.9999 7.66013C24.005 5.88444 23.3181 4.21559 22.0614 2.95886Z" fill="white"/>
</mask>
<g mask="url(#mask0_0_2552)">
</g>
</svg>
