<svg width="24" height="24" viewBox="0 0 24 24" fill="none" xmlns="http://www.w3.org/2000/svg">
<path fill-rule="evenodd" clip-rule="evenodd" d="M5.65309 12.2355L5.65306 12.2355L5.65302 12.2356C5.54869 12.3889 5.44428 12.5424 5.33609 12.6929C5.20963 12.8701 5.08546 13.0492 4.96129 13.2283L4.96123 13.2284L4.96122 13.2284C4.65075 13.6762 4.34028 14.1241 3.99389 14.542C3.53945 15.0895 2.95048 15.4845 2.21994 15.5729C1.92272 15.6088 1.60985 15.5862 1.31263 15.5361C1.00915 15.4853 0.899643 15.1505 1.10535 14.9197C1.58215 14.3857 1.89309 13.7554 2.20409 13.1249C2.23746 13.0573 2.27084 12.9896 2.30441 12.9221C2.71192 12.1032 3.15932 11.3155 3.92272 10.7649C4.5946 10.2792 5.32827 10.0328 6.16597 10.1962C6.16881 10.1968 6.17185 10.197 6.17488 10.1971C6.18019 10.1974 6.18545 10.1977 6.18944 10.2002C6.57426 10.4512 6.87383 10.2815 7.20547 10.0508C7.62315 9.76058 8.11982 9.67141 8.62901 9.67141C9.0191 9.67141 9.40918 9.67114 9.79927 9.67087C11.0345 9.67001 12.2698 9.66916 13.505 9.67688C13.7233 9.67767 13.8985 9.61431 13.9994 9.44458C14.2027 9.10356 14.4092 8.75627 14.5539 8.38709C14.6956 8.02661 14.823 7.6605 14.9505 7.29435L14.9505 7.29434L14.9505 7.29433C15.0918 6.88827 15.2332 6.48215 15.394 6.08361C15.6098 5.55017 15.961 5.09808 16.4436 4.75862C16.4984 4.72024 16.5242 4.63989 16.5497 4.5608C16.5595 4.5303 16.5692 4.49999 16.5805 4.47235C16.6335 4.3435 16.6834 4.21299 16.7333 4.08245L16.7333 4.08238C16.8403 3.80247 16.9474 3.52245 17.085 3.25843C17.2602 2.92288 17.5754 2.91584 17.7976 3.22714C17.933 3.41562 18.0485 3.61782 18.1641 3.82022L18.1642 3.82024C18.2275 3.93113 18.2909 4.04208 18.3576 4.15088L18.37 4.17115C18.4146 4.24424 18.4649 4.32675 18.5336 4.35893C19.5629 4.85013 20.4843 5.5095 21.3916 6.19077C21.461 6.24279 21.5306 6.29455 21.6003 6.34632C21.8856 6.55839 22.1713 6.77067 22.4397 7.00266C23.0037 7.48916 23.1124 8.11099 22.8981 8.80086C22.7448 9.29284 22.2966 9.50324 21.7913 9.4C21.0694 9.25295 20.3474 9.10981 19.5958 9.2506C19.3844 9.29001 19.161 9.26706 18.9289 9.24321C18.8201 9.23203 18.7093 9.22065 18.5969 9.21541V9.45788C18.5969 9.70664 18.5974 9.95546 18.5978 10.2043V10.2044C18.5991 10.8889 18.6003 11.5737 18.5923 12.258C18.5883 12.5537 18.5664 12.8556 18.4984 13.1419C18.454 13.3308 18.3762 13.5124 18.2912 13.7109C18.252 13.8026 18.2112 13.8979 18.1714 13.9991C18.3089 14.0941 18.4473 14.1908 18.5868 14.2882L18.5868 14.2882C18.9376 14.5333 19.2948 14.7828 19.6591 15.0206C19.8382 15.1372 19.9423 15.2725 19.9618 15.4806C19.967 15.5389 19.9764 15.5976 19.9858 15.6561L19.9858 15.6562C20.0034 15.7664 20.021 15.8763 20.0103 15.9835C19.9485 16.6131 20.1675 17.1255 20.5125 17.6511C21.1671 18.6476 21.6458 19.7379 21.9188 20.908C21.9431 21.0089 21.9571 21.1129 21.9689 21.217C21.9978 21.4853 21.8437 21.6753 21.5739 21.68C21.2092 21.6869 20.8445 21.6858 20.4799 21.6847C20.3455 21.6843 20.2112 21.6839 20.0768 21.6839C19.8148 21.6839 19.6943 21.5306 19.6341 21.2928C19.5434 20.9392 19.4472 20.5868 19.3511 20.2347L19.351 20.2344C19.3162 20.1069 19.2814 19.9795 19.2469 19.8521C19.2405 19.8293 19.2318 19.8074 19.222 19.7825C19.2163 19.7681 19.2102 19.7527 19.2039 19.7355L19.0649 19.932C18.8592 20.2228 18.66 20.5044 18.4593 20.7844C18.0659 21.3327 17.7686 21.3742 17.4221 20.7383C17.2882 20.4935 17.1368 20.2581 16.9855 20.0228C16.9105 19.9063 16.8356 19.7898 16.7628 19.6722C16.5641 19.3515 16.5891 19.2076 16.8848 18.9776C17.4073 18.5725 17.7647 18.0711 17.8242 17.393C17.7119 17.3493 17.5995 17.3075 17.4876 17.2659C17.2368 17.1728 16.9883 17.0804 16.7487 16.969C15.9172 16.5826 15.2023 16.0234 14.5305 15.4086C14.3858 15.2764 14.2434 15.2091 14.04 15.2154C13.7853 15.2242 13.5303 15.2233 13.2752 15.2225H13.2752H13.2751C13.0556 15.2217 12.8361 15.2209 12.6165 15.2264C12.5312 15.2279 12.4077 15.2819 12.3693 15.3499C11.9739 16.0568 11.5861 16.7683 11.1915 17.4922L11.1914 17.4923L10.9082 18.0117C10.9342 18.0339 10.96 18.0558 10.9857 18.0776C11.0321 18.117 11.078 18.156 11.1233 18.1962C11.9032 18.8971 12.5391 19.691 12.7448 20.7531C12.7784 20.9252 12.7823 21.1051 12.7792 21.2811C12.7753 21.5291 12.6361 21.6761 12.3912 21.68C11.9172 21.6886 11.4417 21.6886 10.9677 21.6792C10.7456 21.6745 10.5938 21.5291 10.5969 21.3155C10.6032 20.8462 10.3865 20.4825 10.076 20.1618C9.93132 20.0117 9.77411 19.8724 9.61454 19.7379C9.04513 19.2584 8.49526 18.7657 8.30676 18.021C8.21209 18.0643 8.11804 18.107 8.02456 18.1495L8.02439 18.1496C7.66457 18.3132 7.31298 18.4731 6.96534 18.6413C6.91685 18.664 6.88322 18.7664 6.88322 18.8321C6.88289 19.0048 6.88657 19.1774 6.89025 19.35V19.35C6.89532 19.5879 6.90039 19.8257 6.89495 20.0633C6.89182 20.1978 6.85662 20.366 6.77137 20.4583C6.1472 21.1294 5.36972 21.4931 4.45303 21.5424C4.1206 21.5603 3.98451 21.418 3.98216 21.0824C3.98113 20.9269 3.98176 20.7713 3.98239 20.6155V20.6155V20.6154C3.9832 20.4171 3.98401 20.2187 3.98138 20.0203C3.97825 19.8232 4.04395 19.6683 4.23402 19.5971C4.82534 19.3757 5.05764 18.9761 4.95987 18.3363C4.9206 18.078 4.92702 17.8129 4.93346 17.5473V17.5473C4.93702 17.4002 4.94059 17.253 4.9364 17.1067C4.93015 16.8799 5.02244 16.7391 5.22111 16.6249C5.85858 16.2596 6.33883 15.7637 6.46945 15.005C6.5289 14.6577 6.46241 14.323 6.28408 14.0296C5.92037 13.4321 5.7436 12.7977 5.82729 12.0953C5.80774 12.086 5.78818 12.0766 5.76785 12.0672C5.72949 12.1232 5.69129 12.1793 5.65309 12.2355ZM6.05256 20.0867C5.69354 20.4231 5.26961 20.6374 4.7831 20.7289C4.69393 20.2557 4.70332 20.2322 5.06781 19.9937L5.08035 19.9851L5.08039 19.9851L5.08042 19.9851C5.10284 19.9698 5.12544 19.9544 5.14915 19.9413C5.56683 19.7043 5.79053 19.3859 5.73109 18.865C5.69866 18.5794 5.70257 18.2897 5.70649 17.9995V17.9995C5.709 17.8136 5.71151 17.6276 5.70449 17.4422C5.69823 17.2905 5.75299 17.2146 5.86953 17.1341C6.45928 16.7258 6.91685 16.2033 7.14133 15.515C7.37442 14.7993 7.24223 14.1204 6.86445 13.479C6.50308 12.8666 6.46163 12.2252 6.77293 11.5893C7.13742 10.8454 7.75846 10.4512 8.58599 10.445C10.2356 10.4309 11.8852 10.4262 13.534 10.4504C13.9681 10.4567 14.2731 10.2878 14.5453 9.99757C14.9466 9.57129 15.1718 9.04881 15.3322 8.4966L15.3724 8.35789C15.5913 7.60146 15.81 6.84587 16.2176 6.16183C16.2808 6.05513 16.3511 5.95276 16.4209 5.85129C16.4539 5.80324 16.4868 5.7554 16.5187 5.70739C16.5571 5.73581 16.5918 5.76511 16.6249 5.79301C16.6912 5.8488 16.7508 5.89902 16.8191 5.92561C17.0897 6.03199 17.3111 5.81455 17.3181 5.49386C17.325 5.18836 17.3539 4.88336 17.3828 4.57846L17.3829 4.57806C17.3901 4.50215 17.3973 4.42624 17.4041 4.35033C17.4096 4.2901 17.4464 4.23301 17.5293 4.15948C17.5574 4.23848 17.5866 4.31726 17.6158 4.39609L17.6159 4.39628L17.616 4.39648C17.6824 4.57586 17.749 4.75549 17.8038 4.93852C17.9165 5.31474 18.0768 5.39687 18.4436 5.2639C18.5086 5.24044 18.6149 5.26625 18.6775 5.30692C19.3775 5.76214 20.0776 6.21736 20.7667 6.68901C21.1033 6.91973 21.4251 7.1722 21.7464 7.42426L21.7464 7.42428L21.7464 7.42431L21.8641 7.51654C22.1785 7.76292 22.3005 8.08048 22.1902 8.47782C22.1519 8.61705 22.1034 8.66633 21.9391 8.63973C21.8164 8.61964 21.6939 8.59792 21.5714 8.5762C20.8977 8.45676 20.2254 8.33757 19.5285 8.49112C19.1226 8.58107 18.7573 8.47548 18.5179 8.0664C18.4585 7.9655 18.2465 7.89902 18.1112 7.90919C17.9149 7.92405 17.8296 8.093 17.8304 8.29636C17.832 9.17317 17.8335 10.0508 17.8296 10.9276V10.9278C17.8273 11.5065 17.8249 12.0852 17.8054 12.664C17.7921 13.0449 17.6271 13.3765 17.3987 13.6769C17.1875 13.9546 17.1922 14.1415 17.4683 14.3597C17.7499 14.5821 18.0374 14.7976 18.3249 15.0132L18.3249 15.0132L18.325 15.0133L18.3251 15.0134C18.5644 15.1929 18.8037 15.3723 19.0396 15.5556C19.1249 15.6214 19.2164 15.7324 19.2266 15.831C19.3908 17.407 18.9583 18.8188 18.0236 20.086C18.0147 20.0981 18.0004 20.1066 17.9836 20.1167L17.9688 20.1257L17.9579 20.1329C17.8996 20.0387 17.8413 19.9453 17.7831 19.8522L17.7828 19.8517C17.7217 19.7539 17.6609 19.6564 17.6005 19.5588C17.5879 19.5384 17.5768 19.5169 17.5644 19.4928L17.5528 19.4705L17.5395 19.4454C17.9845 19.0394 18.3443 18.5772 18.4859 17.9882C18.5566 17.6933 18.5806 17.3864 18.6043 17.0822L18.6079 17.0363C18.6235 16.8431 18.5031 16.7109 18.3169 16.6788C16.9802 16.4504 15.9548 15.6714 14.9958 14.7883C14.7354 14.549 14.4796 14.4364 14.1206 14.4426C12.9293 14.4632 11.7372 14.4556 10.5459 14.4479H10.5458H10.5458L10.4522 14.4473C10.1887 14.4458 10.0408 14.5521 9.94071 14.793C9.27899 16.3855 8.12921 17.454 6.4804 17.9765C6.16441 18.0766 6.0987 18.1618 6.10418 18.4966L6.10859 18.767L6.10859 18.767C6.1146 19.1274 6.1206 19.4878 6.1206 19.8482C6.1206 19.9287 6.10496 20.0375 6.05256 20.0867ZM5.74969 10.9225C5.77886 10.9252 5.81373 10.9285 5.8578 10.9315C5.27877 11.3669 4.91705 11.9368 4.55955 12.5001C4.38342 12.7776 4.20832 13.0534 4.00875 13.3108C3.6779 13.7379 3.2829 14.1204 2.884 14.4872C2.76529 14.5962 2.60712 14.662 2.44903 14.7278C2.37797 14.7574 2.30693 14.7869 2.23949 14.8204L2.20662 14.7848L2.17379 14.7492C2.33878 14.4649 2.49988 14.178 2.66096 13.8912L2.66097 13.8912C3.03519 13.2248 3.40931 12.5586 3.83199 11.9248C4.23871 11.3147 4.86992 10.9526 5.63957 10.9166C5.67127 10.9152 5.70327 10.9182 5.74969 10.9225ZM19.8076 18.1786L19.8077 18.1784C19.8227 18.1306 19.8388 18.079 19.8562 18.0218C20.41 18.9596 20.8496 19.8842 21.1366 20.9151C21.0713 20.9151 21.0078 20.9155 20.9457 20.916H20.9454H20.945C20.7701 20.9174 20.6061 20.9186 20.4429 20.9088C20.3951 20.9057 20.3263 20.8345 20.3091 20.7813C20.0932 20.1118 19.8797 19.4415 19.6787 18.7672C19.6581 18.6982 19.6822 18.6138 19.705 18.5333C19.7109 18.5126 19.7167 18.4922 19.7217 18.4723C19.7446 18.38 19.7729 18.2896 19.8076 18.1786ZM11.9994 20.9049C11.9871 20.8597 11.9768 20.8186 11.9671 20.7803C11.9504 20.7137 11.9358 20.6554 11.9165 20.5983C11.6114 19.7121 11.0154 19.0535 10.2723 18.513C9.99233 18.3097 9.95009 18.1665 10.1151 17.863C10.2802 17.5599 10.4462 17.2573 10.6122 16.9546C10.7782 16.6519 10.9442 16.3492 11.1093 16.0461C11.2056 15.8686 11.2995 15.6893 11.3981 15.5011L11.3983 15.5008L11.3995 15.4984C11.4469 15.408 11.4954 15.3155 11.5457 15.2201C11.4599 15.2201 11.3781 15.2207 11.2992 15.2213L11.299 15.2213H11.2989H11.2987H11.2987H11.2987H11.2986C11.1147 15.2228 10.9463 15.2241 10.7784 15.217C10.6447 15.2115 10.5813 15.2647 10.5273 15.3836C10.2325 16.0343 9.82495 16.6077 9.32827 17.1192C8.96613 17.4923 8.91841 17.7598 9.21486 18.1884C9.42213 18.488 9.68024 18.7633 9.95479 19.0042L9.97717 19.0238C10.5781 19.5506 11.1732 20.072 11.3431 20.9049H11.9994ZM19.2177 6.95651C19.4445 6.95494 19.6432 6.75315 19.6455 6.52084C19.6479 6.27681 19.4695 6.093 19.2247 6.0883C18.9838 6.08361 18.789 6.26351 18.7789 6.50129C18.7695 6.73594 18.983 6.95807 19.2177 6.95651Z" fill="#0C1E3C"/>
</svg>
