<svg width="24" height="24" viewBox="0 0 24 24" fill="none" xmlns="http://www.w3.org/2000/svg">
<path fill-rule="evenodd" clip-rule="evenodd" d="M10.4164 4.59288C10.3217 5.07822 10.5209 5.47721 10.7562 5.88247C11.1684 6.59168 11.2395 7.33919 10.869 8.09157C10.79 8.25242 10.6612 8.40109 10.5229 8.51668C10.3436 8.66709 10.1038 8.63366 9.93525 8.47768C9.77579 8.32972 9.72078 8.07312 9.85308 7.89277C10.2952 7.29045 10.1689 6.72398 9.79215 6.15056C9.46906 5.65965 9.37923 5.10781 9.43981 4.53021C9.45931 4.34255 9.51745 4.16498 9.70198 4.06471C9.86701 3.97523 10.0355 3.97872 10.1925 4.07411C10.3858 4.19144 10.438 4.37841 10.4164 4.59288ZM7.19885 19.4842C7.2836 19.4946 7.36832 19.505 7.45242 19.5177H16.5576C16.642 19.505 16.727 19.4946 16.812 19.4842L16.812 19.4842C16.9959 19.4617 17.1797 19.4392 17.3573 19.3928C19.8021 18.7556 21.3866 17.2338 22.0509 14.7855C22.2795 13.9423 22.4944 13.0954 22.7092 12.2484L22.7106 12.243C22.7597 12.0496 22.8087 11.8562 22.858 11.6628C22.8978 11.5067 22.9281 11.348 22.9584 11.1894L22.9584 11.1892L22.9584 11.189L22.9585 11.1889L22.9585 11.1887C22.9721 11.1177 22.9856 11.0467 23 10.9759V9.98851C22.9951 9.97423 22.9895 9.96005 22.9838 9.94587L22.9838 9.94584L22.9838 9.94581L22.9837 9.9458C22.9716 9.9154 22.9594 9.88497 22.9551 9.85342C22.6452 7.59558 20.6969 5.85824 18.4189 5.82865C17.5722 5.81768 16.7256 5.81985 15.8789 5.82202C15.516 5.82295 15.1532 5.82388 14.7903 5.82377L14.7715 5.82373C14.7275 5.82358 14.6832 5.82342 14.6403 5.83074C14.438 5.86486 14.3008 5.98114 14.2461 6.17786C14.188 6.38606 14.2601 6.60087 14.4488 6.69453C14.5769 6.7579 14.7339 6.78645 14.8784 6.78749C15.451 6.79134 16.0236 6.79133 16.5961 6.79132C17.1114 6.79131 17.6267 6.7913 18.1421 6.79411C18.3983 6.79515 18.6577 6.80908 18.9105 6.84842C21.1857 7.19972 22.5993 9.5815 21.818 11.7387C21.2578 13.2863 19.8895 14.2253 18.1779 14.2264C14.0627 14.2284 9.94736 14.2277 5.83207 14.225C5.60367 14.225 5.3718 14.2183 5.14758 14.1807C2.89322 13.8033 1.53782 11.6928 2.12448 9.48367C2.47891 8.14777 3.71175 7.02633 5.07899 6.85712C5.51511 6.80338 5.95763 6.8008 6.3999 6.79823H6.39991H6.39992H6.39993H6.39994H6.39996C6.55931 6.79731 6.71863 6.79638 6.87761 6.79306C7.07719 6.78879 7.27702 6.78932 7.47687 6.78984H7.47687H7.47688H7.47688H7.47689H7.4769C7.74942 6.79056 8.02197 6.79128 8.29393 6.77983C8.58848 6.7673 8.79076 6.53159 8.77196 6.27917C8.75142 6.00795 8.54914 5.82865 8.24554 5.82482C7.86604 5.82029 7.48689 5.81855 7.10739 5.82447C6.90922 5.82762 6.71049 5.82659 6.51172 5.82555H6.51171H6.5117H6.51169H6.51168C6.02949 5.82305 5.54709 5.82054 5.07203 5.87774C2.309 6.20919 0.442847 8.98962 1.15066 11.6691C1.26828 12.1137 1.38158 12.5594 1.49488 13.0052C1.64686 13.6031 1.79882 14.2009 1.96119 14.7959C2.62792 17.238 4.21032 18.7577 6.65165 19.3924C6.83005 19.4389 7.01451 19.4616 7.19885 19.4842ZM2.8419 14.3053C2.83956 14.2903 2.83733 14.276 2.83508 14.2629C2.94531 14.3223 3.05433 14.3835 3.16314 14.4447L3.16317 14.4447L3.16322 14.4447L3.16329 14.4448L3.16339 14.4448L3.16341 14.4448L3.16343 14.4448C3.40299 14.5795 3.64157 14.7135 3.89001 14.8255C4.49094 15.0957 5.13052 15.1918 5.78925 15.1915C9.93204 15.1883 14.0752 15.1873 18.218 15.1918C19.2663 15.1929 20.2178 14.9101 21.0681 14.2942C21.0861 14.281 21.1053 14.2693 21.1322 14.2528L21.1322 14.2528C21.1464 14.2442 21.1626 14.2343 21.1819 14.2222C21.0458 14.9363 20.8219 15.5831 20.424 16.1601C19.5946 17.3616 18.4958 18.1763 17.0454 18.4666C16.7954 18.5168 16.5343 18.53 16.278 18.5303C15.2084 18.5319 14.1388 18.5313 13.0691 18.5306H13.0691H13.0691H13.0691H13.069C11.3338 18.5295 9.59844 18.5283 7.86326 18.537C6.32681 18.5446 5.10859 17.8936 4.08742 16.8045C3.45168 16.1266 3.05825 15.3192 2.86119 14.4137C2.853 14.3766 2.84715 14.339 2.8419 14.3053ZM9.58043 9.29604C10.0167 9.3131 10.4199 9.47047 10.7708 9.76606C10.9752 9.93841 11.1896 10.0864 11.4758 10.085C11.6725 10.0839 11.8459 10.0366 11.9723 9.87991C12.5788 9.12579 13.6832 9.1331 14.4122 9.73369L14.4398 9.7564C14.6532 9.93254 14.8734 10.1143 15.1699 10.0759C15.3352 10.0543 15.5445 9.99794 15.6413 9.88096C16.2767 9.11187 17.4051 9.1331 18.1564 9.77929C18.3865 9.9774 18.436 10.2598 18.2675 10.4801C18.1042 10.6936 17.8347 10.719 17.5805 10.5526C17.5581 10.5379 17.5357 10.523 17.5133 10.5079L17.5132 10.5079C17.4048 10.4354 17.2949 10.362 17.1753 10.3196C16.8856 10.2173 16.6133 10.2455 16.3989 10.5028C15.7983 11.2224 14.7273 11.2123 14.024 10.6535L13.9773 10.6162C13.77 10.4503 13.5637 10.2852 13.2751 10.2716C13.0704 10.2618 12.8873 10.2995 12.755 10.4641C12.1074 11.2712 10.9522 11.1977 10.2635 10.5968C10.1417 10.4906 10.0007 10.3924 9.85165 10.3339C9.56163 10.2197 9.28554 10.2347 9.04461 10.4808C8.81726 10.7127 8.5436 10.7166 8.34306 10.5181C8.13242 10.3102 8.14321 10.0467 8.37196 9.7967C8.69053 9.44854 9.09266 9.29848 9.58043 9.29604ZM6.96287 11.7507C6.63977 11.5045 6.26828 11.3955 5.94206 11.367C5.3937 11.3614 4.95466 11.5404 4.66151 11.908C4.57064 12.0219 4.50727 12.2127 4.5306 12.3516C4.5978 12.7562 5.04693 12.8724 5.35053 12.5546C5.59494 12.299 5.98279 12.3015 6.23799 12.4393C6.36264 12.5069 6.48171 12.5904 6.58894 12.6834C7.29084 13.2913 8.46102 13.3059 9.07274 12.5452C9.16675 12.4282 9.37808 12.3714 9.54276 12.3533C9.84114 12.3206 10.0657 12.5083 10.2805 12.69C11.0071 13.3049 12.1509 13.2989 12.7393 12.5459C12.8611 12.3895 13.0348 12.3366 13.2347 12.3432C13.493 12.3516 13.6915 12.4801 13.8906 12.6242C14.1368 12.8025 14.4104 12.7683 14.5762 12.5539C14.7454 12.3352 14.6963 12.0557 14.4627 11.8544C13.7353 11.2281 12.6244 11.1525 11.9555 11.9627C11.7999 12.1514 11.5736 12.2224 11.355 12.1434C11.1196 12.0588 10.8902 11.9307 10.6903 11.7789C9.9623 11.226 8.93313 11.2044 8.31026 11.9237C8.04392 12.2311 7.63866 12.2461 7.28597 11.9986C7.21494 11.9487 7.14676 11.8948 7.07861 11.841L7.07854 11.8409C7.04014 11.8106 7.00175 11.7803 6.96287 11.7507ZM12.7415 5.91638C12.4963 5.47502 12.2611 5.05153 12.3843 4.57533C12.3885 4.239 12.2123 4.0301 11.9494 4.00538C11.6754 3.97962 11.453 4.16624 11.4126 4.47297C11.3318 5.08922 11.4397 5.66752 11.7837 6.19324C12.1458 6.74682 12.2516 7.3018 11.8265 7.8801C11.6887 8.06741 11.7301 8.31112 11.8889 8.46849C12.0542 8.63248 12.3091 8.66695 12.4943 8.51445C12.6231 8.40861 12.7419 8.27143 12.8174 8.12381C13.1973 7.38466 13.1429 6.63959 12.7502 5.93212L12.7415 5.91638Z" fill="#0C1E3C"/>
</svg>
