<svg width="24" height="24" viewBox="0 0 24 24" fill="none" xmlns="http://www.w3.org/2000/svg">
<path fill-rule="evenodd" clip-rule="evenodd" d="M11.7738 0.124216L11.7737 0.124212L11.7737 0.124209C11.7362 0.0833042 11.6987 0.0424075 11.6642 0H11.4241C11.1283 0.230192 11.0994 0.354434 11.267 0.692862L13.8582 5.92091L16.4445 11.1391C16.8831 12.0241 17.3214 12.9094 17.7543 13.7841C17.7499 13.7931 17.7468 13.8002 17.7444 13.8057C17.7405 13.8147 17.7385 13.8196 17.7349 13.8222C17.7062 13.8434 17.6771 13.8641 17.648 13.8849C17.5991 13.9198 17.5501 13.9547 17.5028 13.9918C16.263 14.959 15.6944 16.2251 15.8835 17.7903C16.1217 19.7622 17.6693 21.2085 19.7129 21.3396C21.5788 21.4593 23.2968 20.2553 23.8346 18.4054L23.8472 18.3631C23.8905 18.2191 23.9804 17.9195 24 17.569C24.0218 17.178 23.9597 16.7277 23.9549 16.6925L23.9546 16.6908C23.6097 14.2322 21.1127 12.6407 18.7403 13.3797C18.5173 13.4494 18.432 13.4117 18.3306 13.2059C16.2215 8.93441 14.1056 4.66672 11.9851 0.401311C11.9342 0.299034 11.854 0.211609 11.7738 0.124224L11.7738 0.124221L11.7738 0.124216ZM22.0887 18.6684C23.0064 17.3768 22.7465 15.6191 21.4782 14.616C21.3063 14.4799 21.1196 14.3624 20.9148 14.2334L20.9147 14.2333C20.8162 14.1713 20.7135 14.1066 20.6062 14.036C21.8841 14.3908 22.7187 15.1343 23.0834 16.3489C23.6806 18.3403 22.2915 20.3777 20.2171 20.5484C18.8256 20.6628 17.741 20.0953 17.0554 18.8898C16.3728 17.6905 16.4711 16.4839 17.2456 15.3424C17.5722 14.8611 18.0973 14.6995 18.6256 14.6107C19.6668 14.4354 20.5761 14.7338 21.2987 15.5135C22.0731 16.3489 22.0316 17.6836 21.2263 18.4897C20.6165 19.1002 19.6485 19.1208 19.0181 18.5365C18.52 18.0746 18.5219 17.2922 19.0223 16.8593C19.3112 16.6092 19.746 16.607 20.0345 16.8539C20.2388 17.0289 20.2895 17.3059 20.1572 17.5243C20.0372 17.7217 19.8638 17.7617 19.6706 17.6367C19.4049 17.4648 19.2045 17.4767 19.0623 17.6733C18.9202 17.8696 18.9876 18.1097 19.2353 18.2861C19.8947 18.7568 20.8055 18.3669 20.9774 17.5407C21.1748 16.591 20.2899 15.7315 19.2963 15.9099C18.5932 16.0361 18.161 16.4781 17.9575 17.1352C17.7299 17.8711 17.9064 18.5316 18.4563 19.0705C19.5155 20.1086 21.2015 19.9169 22.0887 18.6684ZM6.62403 23.0399C6.5145 23.0299 6.40501 23.0195 6.29553 23.0092L6.29548 23.0092L6.29542 23.0092L6.29537 23.0092C6.06435 22.9873 5.8334 22.9654 5.60227 22.9466C5.31301 22.9229 5.12969 22.764 5.1396 22.5369C5.15027 22.3002 5.33626 22.1683 5.6339 22.1737C5.97666 22.1796 6.31955 22.1892 6.66245 22.1988C7.46984 22.2215 8.27725 22.2442 9.08297 22.2183C11.1128 22.1527 13.0934 21.7781 15.0096 21.0917C15.0305 21.0843 15.0511 21.0762 15.0718 21.0682L15.0718 21.0682L15.0718 21.0682L15.0718 21.0682C15.1033 21.0559 15.1347 21.0437 15.1667 21.0338C15.4174 20.956 15.6232 21.0425 15.6995 21.256C15.7776 21.4743 15.6842 21.6794 15.4315 21.7625C15.3412 21.7921 15.2508 21.8218 15.1604 21.8516C14.6145 22.0314 14.0682 22.2114 13.5126 22.3566C12.1025 22.7248 10.665 22.9275 9.20912 23.0007C9.15627 23.0035 9.10378 23.0144 9.05128 23.0252L9.05115 23.0253C9.02607 23.0304 9.00099 23.0356 8.97588 23.0399H6.62403ZM0.789283 21.2174C0.410458 21.089 0.2603 21.0775 0 21.3599V21.648C0.035052 21.6748 0.0689157 21.7058 0.102782 21.7369L0.102804 21.7369L0.102831 21.737L0.102837 21.737C0.175738 21.8039 0.248655 21.8708 0.333473 21.8942C1.21765 22.1366 2.10603 22.3642 2.99516 22.5867C3.20401 22.6389 3.40829 22.4949 3.45211 22.2986C3.49899 22.0901 3.38923 21.8954 3.17276 21.8375C3.06261 21.8081 2.95057 21.7858 2.83852 21.7636L2.83843 21.7636C2.73108 21.7423 2.62372 21.721 2.51801 21.6934C2.37959 21.6572 2.24076 21.622 2.10189 21.5868L2.10125 21.5867C1.66029 21.4749 1.21895 21.3631 0.789283 21.2174ZM8.21182 20.4957L7.89204 20.4956H7.88843C7.67651 20.4955 7.46464 20.4955 7.25294 20.4957C6.88555 20.4965 6.70833 20.3719 6.70567 20.1104C6.70262 19.844 6.87526 19.7186 7.24227 19.7217C9.17527 19.7384 11.0839 19.5475 12.957 19.0551C13.1651 19.0004 13.3709 18.9374 13.5766 18.8744C13.6832 18.8418 13.7899 18.8092 13.8969 18.7777C14.1656 18.6988 14.3805 18.788 14.4476 19.0044C14.5188 19.2342 14.4102 19.4305 14.1454 19.5166C12.8587 19.9362 11.5401 20.2091 10.1951 20.3494C9.74015 20.3967 9.28353 20.4303 8.82704 20.4638L8.82696 20.4638C8.62235 20.4789 8.41776 20.4939 8.21335 20.5102C8.21258 20.5052 8.2122 20.5007 8.21182 20.4957ZM5.00273 20.3713C5.09224 20.3804 5.17721 20.389 5.2558 20.3973C5.66702 20.4134 5.84081 20.2948 5.85453 20.0463C5.86863 19.7975 5.70208 19.6553 5.38195 19.6271C5.0481 19.5978 4.715 19.5612 4.38191 19.5227C4.08617 19.4888 3.89752 19.6039 3.86627 19.8459C3.83654 20.0765 3.98556 20.2529 4.26339 20.2891C4.51879 20.3225 4.77538 20.3484 5.00273 20.3713Z" fill="#0C1E3C"/>
</svg>
