<svg width="24" height="24" viewBox="0 0 24 24" fill="none" xmlns="http://www.w3.org/2000/svg">
<path fill-rule="evenodd" clip-rule="evenodd" d="M22.5447 10.9119C22.7188 10.4474 22.8356 9.96856 22.9308 9.48319C22.9502 9.38436 23.0427 8.80148 23 8.62584C22.932 8.3466 22.7551 8.09721 22.6957 8.01342C22.6906 8.00628 22.6864 8.00034 22.6832 7.99569C21.9126 6.8827 21.1437 5.76847 20.3779 4.65216C20.3707 4.64158 20.3634 4.631 20.3562 4.62042C20.2032 4.39721 20.0507 4.17476 19.8588 3.98194C19.4185 3.53938 18.8858 3.26737 18.2813 3.13045C17.7497 3.01008 17.2104 2.9834 16.6675 3.00872C16.1136 3.03456 15.5686 3.12198 15.0286 3.24366C13.7273 3.53691 12.4831 3.9922 11.2864 4.57785C9.47869 5.46263 7.79269 6.53931 6.23003 7.80808C5.7527 8.19565 5.29358 8.60407 4.85056 9.03059C4.16557 9.69 3.52344 10.3883 2.93638 11.1365C2.47071 11.73 2.05335 12.3552 1.71562 13.0309C1.44191 13.5786 1.21118 14.1429 1.08698 14.7455C0.984365 15.2433 0.964191 15.7431 1.07179 16.2429C1.14533 16.5846 1.29856 16.8931 1.49319 17.1796C1.67092 17.4412 1.85238 17.7002 2.03385 17.9593C2.14281 18.1148 2.25177 18.2704 2.35992 18.4265C2.9517 19.2805 3.54276 20.135 4.13318 20.99C4.26363 21.1788 4.434 21.3066 4.65418 21.3796C5.21791 21.5662 5.7962 21.6635 6.38823 21.6892C7.00057 21.7157 7.61014 21.6848 8.21729 21.6045C8.96174 21.506 9.68818 21.3291 10.403 21.1005C11.4426 20.768 12.4531 20.3644 13.4317 19.8807C14.8012 19.2037 16.0807 18.3858 17.2731 17.4313C17.8744 16.95 18.4493 16.4391 18.9969 15.8975C19.7357 15.1669 20.4342 14.4001 21.061 13.5706C21.6783 12.7535 22.1844 11.8735 22.5447 10.9119ZM4.65903 17.2561C4.99757 17.2467 5.33393 17.2151 5.66843 17.1646C6.1959 17.0849 6.71268 16.9585 7.22215 16.8017C8.58923 16.381 9.88622 15.7999 11.1282 15.0934C12.1111 14.5342 13.0472 13.9044 13.9482 13.2217C14.958 12.4566 15.9086 11.6255 16.7664 10.6911C17.3577 10.0469 17.8998 9.36402 18.3753 8.62948C18.6992 8.12921 18.9783 7.60587 19.1664 7.03827C19.2983 6.64031 19.3999 6.2361 19.392 5.81189C19.3808 5.20951 19.1175 4.76312 18.5741 4.4917C18.1967 4.3032 17.7899 4.23093 17.3739 4.20045C16.9652 4.17053 16.5583 4.19935 16.153 4.25238C15.4381 4.34593 14.7401 4.51345 14.0551 4.73703C13.0209 5.07455 12.0313 5.51689 11.0705 6.02338C8.78319 7.22911 6.73796 8.75976 4.94241 10.6208C4.26512 11.3227 3.66453 12.0865 3.15034 12.9167C2.85087 13.4003 2.58346 13.8998 2.40542 14.4425C2.2788 14.8284 2.18529 15.222 2.1907 15.631C2.19921 16.2743 2.48978 16.7404 3.08913 16.9908C3.50169 17.1632 3.94144 17.2224 4.38429 17.2551C4.44665 17.2597 4.50946 17.2585 4.57226 17.2572C4.6012 17.2567 4.63014 17.2561 4.65903 17.2561ZM20.5734 9.92077L20.5588 9.89051L20.5482 9.86829C21.1345 9.73626 21.4941 9.3398 21.7696 8.84302C21.8026 8.89583 21.8127 8.99151 21.7973 9.09353C21.6788 9.8814 21.4182 10.6222 21.0511 11.3266C20.5316 12.3234 19.8715 13.2224 19.1302 14.0636C18.2479 15.0648 17.2541 15.9445 16.1916 16.7489C15.2861 17.4344 14.3393 18.056 13.3386 18.5944C12.0256 19.3008 10.6502 19.847 9.20098 20.2029C8.64405 20.3397 8.08062 20.4396 7.50855 20.485C6.98597 20.5265 6.46352 20.5237 5.94308 20.4558C5.80338 20.4375 5.66443 20.4133 5.52548 20.3891C5.46602 20.3788 5.40656 20.3684 5.34704 20.3586C5.33261 20.3562 5.31857 20.3513 5.30256 20.3434C5.87715 20.2287 6.23561 19.8589 6.47485 19.3476L6.49123 19.3441C6.49227 19.346 6.49326 19.3479 6.49425 19.3498C6.49515 19.3515 6.49605 19.3533 6.49694 19.3551L6.49697 19.3551C6.50103 19.3632 6.50509 19.3713 6.51051 19.3783C6.83156 19.7942 7.25683 20.0464 7.76902 20.1354C8.9139 20.3342 9.95045 20.0822 10.8625 19.3524C11.1457 19.1258 11.3918 18.8657 11.5664 18.5438C11.7076 18.2836 11.7856 18.0056 11.799 17.7099C11.8005 17.6755 11.8107 17.6575 11.8421 17.6424C11.9225 17.6037 12.0015 17.5619 12.0805 17.5202L12.0995 17.5101C12.1237 17.4973 12.142 17.4959 12.1672 17.5128C12.6035 17.8049 13.0851 17.9171 13.6031 17.8485C14.4285 17.7392 15.1538 17.4051 15.7662 16.8388C16.1676 16.4676 16.4628 16.0215 16.6519 15.5084C16.7884 15.1383 16.8092 14.7582 16.7217 14.3731C16.7152 14.3445 16.7183 14.323 16.74 14.3017C16.758 14.2842 16.7748 14.2654 16.7915 14.2466C16.8025 14.2343 16.8134 14.222 16.8247 14.2101C16.9312 14.0977 17.0598 14.0582 17.2066 14.1098C17.6667 14.2714 18.1038 14.1882 18.5258 13.9826C19.0861 13.7096 19.5805 13.3476 19.9791 12.8637C20.3376 12.4286 20.5729 11.933 20.6772 11.3797C20.718 11.163 20.7408 10.9414 20.7525 10.721C20.7674 10.4402 20.6968 10.1733 20.5734 9.92077ZM19.3343 9.37853L19.3245 9.37019L19.3154 9.3836L19.2968 9.41054C19.2537 9.4722 19.211 9.5342 19.1683 9.59621L19.1681 9.59638L19.168 9.59655L19.1679 9.59672L19.1678 9.59681C19.0737 9.73349 18.9796 9.87017 18.8805 10.0032C18.3011 10.7808 17.6574 11.5023 16.9698 12.1855C16.4365 12.7155 15.8776 13.2171 15.2923 13.6889C13.7199 14.956 12.0253 16.0314 10.2086 16.9133C9.44592 17.2835 8.66057 17.5984 7.85181 17.8536C7.74025 17.8888 7.62812 17.9222 7.51598 17.9556L7.51592 17.9556L7.51586 17.9556L7.51578 17.9557L7.51555 17.9557L7.51533 17.9558L7.5151 17.9559C7.46363 17.9712 7.41215 17.9865 7.36073 18.002C7.37426 18.0058 7.3869 18.0049 7.39912 18.0021C8.82239 17.6809 10.1755 17.1692 11.4708 16.5011C12.3929 16.0255 13.2707 15.478 14.1144 14.8752C15.3518 13.9912 16.5011 13.0074 17.5145 11.8701C18.1184 11.1922 18.6673 10.4728 19.1438 9.69915C19.1885 9.62649 19.2317 9.55289 19.2749 9.4793C19.2947 9.44568 19.3144 9.41206 19.3343 9.37853ZM18.3639 12.7217C18.8742 12.3905 19.2533 11.9436 19.4709 11.3715L18.3639 12.7217ZM10.136 18.4086C9.53956 18.6357 8.93454 18.8362 8.31973 19.0073C8.84426 19.0739 9.82293 18.7509 10.136 18.4086ZM14.6291 16.2114C14.322 16.422 13.9975 16.5929 13.6203 16.6406C14.2244 16.2554 14.8129 15.8496 15.3849 15.4134C15.3618 15.5621 14.9621 15.9829 14.6291 16.2114Z" fill="#0C1E3C"/>
</svg>
