<svg width="24" height="24" viewBox="0 0 24 24" fill="none" xmlns="http://www.w3.org/2000/svg">
<path fill-rule="evenodd" clip-rule="evenodd" d="M19.1166 12.3266V11.4372C19.1151 11.4118 19.1133 11.3864 19.1115 11.361C19.108 11.3106 19.1044 11.2603 19.1039 11.2103C19.1004 10.8818 19.0744 10.5547 19.042 10.2283C19.0384 10.1906 19.0347 10.1529 19.0311 10.1152C19.0097 9.89348 18.9884 9.67227 18.9584 9.45158C18.9127 9.11195 18.8628 8.77301 18.8044 8.43477C18.7187 7.93645 18.6055 7.44371 18.4691 6.95653C18.2175 6.06012 17.8751 5.2006 17.4288 4.38214C17.2565 4.06687 17.1153 3.73837 17.019 3.39178C16.9226 3.05006 16.8896 2.70207 16.9121 2.34852C16.9133 2.32615 16.9155 2.30398 16.9178 2.2818C16.9196 2.26396 16.9214 2.24611 16.9226 2.22812C16.9451 1.91563 16.8165 1.67343 16.5648 1.49178C16.406 1.37765 16.2239 1.30874 16.0397 1.2475C15.8542 1.18556 15.6637 1.15354 15.4682 1.1438C15.3411 1.13727 15.2141 1.12842 15.0872 1.11957C14.9841 1.11238 14.881 1.10519 14.7779 1.09926C14.5769 1.08743 14.3766 1.07838 14.1755 1.07003C13.8873 1.0575 13.5991 1.04567 13.3109 1.03592C13.1983 1.03207 13.086 1.02911 12.9736 1.02614C12.8424 1.02268 12.7112 1.01922 12.5798 1.01435C12.0644 0.995913 11.5483 0.99928 11.0328 1.00264C11.0035 1.00284 10.9741 1.00303 10.9448 1.00321C10.8555 1.00366 10.7662 1.00346 10.6769 1.00326C10.4882 1.00284 10.2995 1.00242 10.1111 1.00809C9.8826 1.01505 9.65414 1.03314 9.42708 1.05402C9.20847 1.0749 8.98985 1.10204 8.77264 1.13406L8.77006 1.13444C8.482 1.17746 8.19327 1.22059 7.91223 1.29761C7.86302 1.31153 7.81451 1.32962 7.76742 1.34841C7.49538 1.45699 7.32878 1.65464 7.262 1.9372C7.2163 2.12999 7.21068 2.32695 7.20857 2.52391C7.20646 2.6972 7.20365 2.87119 7.19873 3.04449C7.19451 3.17603 7.17764 3.30617 7.14601 3.43423C7.12351 3.5268 7.09048 3.61588 7.04408 3.70009C6.39948 4.87071 5.91795 6.10397 5.58616 7.39569C5.44838 7.93506 5.3338 8.47931 5.24523 9.02913C5.18196 9.42583 5.12995 9.82462 5.09128 10.2248C5.05051 10.6486 5.0231 11.0732 5.01396 11.4984C5.01241 11.5616 5.0101 11.6248 5.00779 11.6881C5.00275 11.826 4.99771 11.9639 5.0006 12.1018C5.00763 12.438 5.0231 12.7741 5.03997 13.1103C5.04981 13.3177 5.06387 13.5244 5.08355 13.7311C5.10745 13.9837 5.13346 14.2364 5.16861 14.4883C5.21079 14.7917 5.25648 15.0952 5.31342 15.3965C5.57632 16.7947 6.03746 18.1227 6.76501 19.3545C6.92247 19.6197 7.05603 19.896 7.13757 20.1945C7.21419 20.4757 7.2381 20.7604 7.20084 21.0492C7.17694 21.2295 7.17975 21.4083 7.22896 21.5851C7.30066 21.8405 7.4546 22.0375 7.67252 22.1878C7.82647 22.2943 7.99728 22.3646 8.17372 22.4237C8.59901 22.5671 9.03203 22.6792 9.47418 22.7543C9.75185 22.801 10.0309 22.8385 10.31 22.8733C10.5434 22.9026 10.7767 22.9283 11.0115 22.945C11.2187 22.9594 11.4265 22.9688 11.6342 22.9783C11.7381 22.983 11.842 22.9877 11.9458 22.993C11.9589 22.9935 11.9721 22.9953 11.9853 22.9971C11.9932 22.9981 12.0011 22.9992 12.009 23H12.3556C12.3708 22.9989 12.3859 22.9976 12.4011 22.9962C12.4239 22.9942 12.4467 22.9922 12.4695 22.991C12.5568 22.9864 12.6441 22.9825 12.7314 22.9786C12.9238 22.9701 13.1161 22.9615 13.3081 22.9457C14.1692 22.8761 15.0155 22.7237 15.845 22.4787C15.9835 22.4377 16.1192 22.3862 16.2499 22.3228C16.5789 22.1634 16.7792 21.9052 16.8587 21.5524C16.8952 21.3881 16.9149 21.2225 16.9219 21.0555C16.9254 20.9642 16.9273 20.873 16.9293 20.7817C16.931 20.7037 16.9327 20.6256 16.9353 20.5474C16.9395 20.4166 16.9522 20.2857 16.9845 20.1584C17.0049 20.0776 17.0358 20.0018 17.078 19.9294C17.6228 19.0003 18.0502 18.0203 18.3665 16.9924C18.5359 16.4398 18.6751 15.8788 18.782 15.3116C18.8473 14.9643 18.9071 14.6164 18.957 14.267C18.9919 14.0273 19.0159 13.7856 19.0398 13.5444C19.0443 13.4992 19.0487 13.454 19.0533 13.4089C19.0863 13.0783 19.1046 12.7463 19.1074 12.4143C19.1074 12.3931 19.1104 12.3718 19.1134 12.3505C19.1145 12.3426 19.1156 12.3346 19.1166 12.3266ZM15.9301 2.19958L15.9322 2.2149L15.7916 2.24179C15.6271 2.27332 15.4628 2.30481 15.2981 2.3346C15.2421 2.345 15.1841 2.3478 15.1267 2.35057L15.1259 2.35061C14.8612 2.36087 14.5965 2.36979 14.3325 2.37869L14.3189 2.37914C14.204 2.38309 14.0891 2.38735 13.9743 2.39161L13.9742 2.39161L13.9741 2.39162L13.9741 2.39162L13.974 2.39162L13.9739 2.39163L13.9738 2.39163L13.9737 2.39163L13.9736 2.39164L13.9735 2.39164L13.9734 2.39164L13.9733 2.39164L13.9733 2.39165L13.9732 2.39165L13.9731 2.39165L13.973 2.39166L13.9729 2.39166L13.9728 2.39166L13.9727 2.39167L13.9726 2.39167L13.9725 2.39167L13.9725 2.39167L13.9725 2.39167L13.9725 2.39167L13.9725 2.39168L13.9725 2.39168L13.9725 2.39168L13.9725 2.39168L13.9725 2.39168L13.9724 2.39168L13.9724 2.39168L13.9724 2.39168L13.9724 2.39168L13.9724 2.39168L13.9724 2.39168L13.9724 2.39168L13.9724 2.39168L13.9724 2.39168L13.9723 2.39168L13.9723 2.39168L13.9723 2.39168C13.7437 2.40016 13.5154 2.40863 13.287 2.41464C12.629 2.43204 11.9704 2.43691 11.3124 2.42577C11.0657 2.42152 10.82 2.40984 10.574 2.39814L10.574 2.39814L10.4667 2.39306C10.1996 2.38123 9.93321 2.36731 9.66609 2.35131C9.51224 2.34245 9.35807 2.33173 9.20401 2.32102L9.20388 2.32101C9.12781 2.31572 9.05176 2.31043 8.97579 2.30537C8.90127 2.30066 8.82692 2.2961 8.75266 2.29155L8.7526 2.29155C8.67345 2.2867 8.5944 2.28186 8.51536 2.27684C8.41413 2.26988 8.32275 2.2316 8.23066 2.18079C8.24868 2.17552 8.26669 2.16997 8.28474 2.16441C8.31669 2.15457 8.34875 2.1447 8.38109 2.13625C8.5962 2.08266 8.81481 2.04578 9.03554 2.02002C9.25978 1.99427 9.48543 1.96991 9.71037 1.94834C9.83722 1.93659 9.96406 1.92923 10.0909 1.92188L10.1385 1.91911L10.2596 1.91256C10.4414 1.90268 10.6231 1.89279 10.8049 1.88709C11.0734 1.87805 11.3433 1.87039 11.6126 1.869C11.9844 1.86691 12.3563 1.86761 12.7281 1.87387C13.055 1.88013 13.3819 1.89197 13.7081 1.90937C13.9766 1.92259 14.2458 1.94347 14.5136 1.96852C14.7765 1.99358 15.0394 2.0249 15.3016 2.06109C15.4999 2.08823 15.6974 2.12651 15.8893 2.18497C15.8992 2.18791 15.9088 2.19154 15.9182 2.19514L15.9301 2.19958ZM17.2412 11.8653L17.2261 11.8692L17.2045 11.8749C17.4934 11.0905 17.7781 10.3193 18.0627 9.54807L18.063 9.54744L18.0637 9.54538L18.0649 9.54205C18.0692 9.54275 18.0734 9.54345 18.0776 9.54345L18.1029 9.80443C18.1153 9.94249 18.1279 10.0804 18.1405 10.2181L18.1405 10.2186L18.1406 10.2192L18.1407 10.2198C18.1523 10.3468 18.1639 10.4737 18.1753 10.6006C18.1893 10.7532 18.2027 10.9058 18.2161 11.0584L18.2161 11.0584L18.2161 11.0585L18.2161 11.0586L18.2161 11.0586L18.2161 11.0587L18.2161 11.0588L18.2161 11.0588L18.2161 11.0589L18.2161 11.0589L18.2161 11.059L18.2161 11.0591L18.2162 11.0591L18.2162 11.0592L18.2162 11.0592L18.2162 11.0593L18.2162 11.0594L18.2162 11.0594L18.2162 11.0595L18.2162 11.0595L18.2162 11.0596L18.2162 11.0597L18.2162 11.0597L18.2162 11.0598L18.2162 11.0598L18.2162 11.0599L18.2162 11.06L18.2365 11.2896C18.2379 11.3084 18.2372 11.3279 18.2365 11.3467C18.2322 11.4838 18.1634 11.5729 18.0333 11.616C17.985 11.6319 17.9364 11.6465 17.8878 11.6613L17.8877 11.6613L17.8876 11.6613L17.8876 11.6613L17.8875 11.6613L17.8875 11.6614L17.8874 11.6614L17.8873 11.6614L17.8873 11.6614C17.8505 11.6726 17.8136 11.6837 17.7767 11.6954C17.6129 11.7476 17.4485 11.8005 17.2847 11.8534C17.2714 11.8576 17.2578 11.8611 17.2412 11.8653ZM6.0965 9.60191C6.10002 9.6026 6.10424 9.6033 6.10775 9.6033C6.28606 10.0872 6.46408 10.5711 6.64315 11.0579L6.64335 11.0584L6.93301 11.8457C6.91342 11.8438 6.89471 11.8424 6.87665 11.8411C6.84092 11.8384 6.80777 11.8359 6.77555 11.8304C6.59841 11.8012 6.42338 11.765 6.25467 11.703C6.23213 11.6952 6.2105 11.6852 6.18869 11.6751L6.18867 11.675L6.17242 11.6675C6.01356 11.5959 5.93482 11.4699 5.91514 11.3015C5.89968 11.1678 5.90671 11.0349 5.92077 10.902C5.94607 10.6542 5.97419 10.4064 6.00653 10.1587C6.02337 10.0258 6.04484 9.89369 6.06639 9.76116L6.08526 9.64436C6.08653 9.63598 6.08907 9.62759 6.09166 9.61905C6.09337 9.61342 6.09511 9.60772 6.0965 9.60191ZM5.87929 12.479C5.94818 13.1771 6.01637 13.8654 6.08455 14.553C6.08613 14.5671 6.0889 14.5812 6.09167 14.5953L6.09167 14.5953L6.09439 14.6094C6.0951 14.6115 6.0958 14.6136 6.09791 14.6143C6.0988 14.6152 6.10025 14.6149 6.10315 14.6145L6.10316 14.6145C6.10485 14.6142 6.10702 14.6138 6.10986 14.6136C6.33719 14.2562 6.56557 13.8977 6.79533 13.5372L7.23528 12.8465L6.8603 12.745C6.53366 12.6566 6.20905 12.5687 5.87929 12.479ZM18.0059 14.6449C17.6298 14.0443 17.2537 13.4437 16.872 12.8347C17.3283 12.7198 17.7774 12.6071 18.2379 12.4916C18.172 13.1418 18.1073 13.7858 18.0427 14.4287L18.0214 14.6407C18.0164 14.6421 18.0115 14.6435 18.0059 14.6449ZM15.0795 16.1823L17.6783 15.6791L16.316 13.6942C15.9034 14.5252 15.4957 15.3457 15.0795 16.1823ZM7.11407 14.6744C7.34269 14.3432 7.57131 14.0119 7.80186 13.6782C7.98017 14.0313 8.15758 14.3822 8.33442 14.732L8.3367 14.7365L8.337 14.7371C8.57271 15.2033 8.8074 15.6675 9.04187 16.1322C9.04413 16.1362 9.04377 16.1414 9.04323 16.1492C9.04293 16.1536 9.04257 16.1587 9.04257 16.1649L7.57581 15.8879L6.42619 15.6708C6.65666 15.3372 6.8852 15.006 7.11374 14.6749L7.11407 14.6744ZM6.49929 16.595C6.881 17.4691 7.25848 18.3342 7.63386 19.1951C7.68728 19.216 7.71118 19.1903 7.73578 19.1527C8.01043 18.7382 8.28561 18.3239 8.56082 17.9096L8.56084 17.9096L8.56085 17.9096L8.56087 17.9095L8.56144 17.9087L8.56145 17.9087L8.56147 17.9086L8.56149 17.9086L8.5615 17.9086L8.56152 17.9086L8.56153 17.9085L8.56155 17.9085L8.56156 17.9085L9.07701 17.1323C9.08314 17.1234 9.08855 17.114 9.09462 17.1035L9.09465 17.1035C9.09903 17.0959 9.10376 17.0877 9.10935 17.0787L7.9235 16.8589L6.49929 16.595ZM15.005 17.0516L15.1217 17.2276L15.3105 17.5126L15.3134 17.5169C15.6784 18.0679 16.0438 18.6194 16.4081 19.1708C16.432 19.2063 16.4552 19.2362 16.5072 19.2188C16.7105 18.7315 16.9139 18.2442 17.1181 17.7552L17.6024 16.595L17.5255 16.6085L17.5214 16.6092C16.6789 16.7575 15.8469 16.9039 15.005 17.0516ZM12.8469 12.2716C12.8568 12.2222 14.1952 9.67359 14.2367 9.62418C14.6466 10.4318 15.0559 11.2388 15.4632 12.042L15.5006 12.1157C15.4979 12.1216 15.4965 12.1242 15.4956 12.1257L15.495 12.1269L15.4936 12.1284L15.4921 12.13L15.4907 12.1311L15.4823 12.1326C15.4767 12.1337 15.4711 12.1348 15.4654 12.1352C15.0289 12.1579 14.5925 12.1806 14.1562 12.2034C13.7198 12.2262 13.2835 12.249 12.8469 12.2716ZM7.82014 11.6675C7.82505 11.6689 7.82997 11.6696 7.83488 11.6703L7.8349 11.6703L9.15856 9.06601L8.35098 8.92485L8.3483 8.92438C7.81064 8.83041 7.27474 8.73675 6.73478 8.64217C7.098 9.65504 7.45772 10.6575 7.81743 11.66L7.82014 11.6675ZM10.5349 10.8418L11.2962 12.2765L8.61026 12.1415C8.99969 11.3773 9.38506 10.6224 9.77535 9.85775L9.89173 9.62975L10.5349 10.8418ZM14.9656 9.06601L15.6012 10.3129L16.2977 11.6794C16.3026 11.6801 16.3069 11.6801 16.3118 11.6801L16.7493 10.478L16.7496 10.4771C16.9709 9.86887 17.1928 9.25883 17.4168 8.64425L15.6961 8.9403L14.9656 9.06601ZM11.696 14.3104L12.066 13.6469C12.5454 14.5113 13.0178 15.3631 13.4901 16.2164C13.4409 16.2303 10.736 16.2345 10.6305 16.2213C10.9858 15.5845 11.3399 14.9493 11.696 14.3104ZM13.4571 9.19059C13.2842 9.17597 10.7015 9.18293 10.6523 9.19825C11.1135 10.0626 11.5739 10.9256 12.035 11.7893C12.0392 11.7971 12.0445 11.8048 12.0494 11.8121L12.0495 11.8122L12.0495 11.8122L12.0519 11.8158C12.0533 11.8172 12.0554 11.8186 12.0575 11.8186C12.0585 11.8186 12.0595 11.8184 12.0609 11.8182L12.0611 11.8182C12.0628 11.8179 12.0651 11.8175 12.0688 11.8172L12.6547 10.7087C12.9213 10.2044 13.1888 9.69867 13.4571 9.19059ZM13.8586 15.0382L13.8576 15.0365C13.5152 14.4159 13.1745 13.7981 12.8301 13.175C13.3035 13.1479 13.774 13.1207 14.2444 13.0936C14.7149 13.0664 15.1853 13.0393 15.6587 13.0122C15.1941 13.9343 14.733 14.8488 14.2655 15.7758L13.8586 15.0382ZM8.46193 13.0122L9.85518 15.7772C10.3381 14.9017 10.8147 14.0387 11.2955 13.1687C10.3472 13.1159 9.41162 13.0644 8.46193 13.0122ZM9.89033 7.62118C9.44395 6.63291 9.0032 5.65855 8.55894 4.67654L11.3012 4.80877L11.304 4.81345L11.3041 4.81345L11.3041 4.81346C11.305 4.81497 11.3057 4.81593 11.3061 4.81712C11.3068 4.81851 11.3082 4.8213 11.3075 4.82269C11.3007 4.83661 11.2942 4.85063 11.2876 4.86464L11.2876 4.86469L11.2876 4.86474C11.2771 4.88711 11.2667 4.90945 11.2555 4.93126L11.2544 4.9334L11.2541 4.93393C10.8019 5.82457 10.3496 6.71524 9.89033 7.62118ZM13.5275 6.22013L13.5277 6.22043L13.5285 6.22207C13.766 6.68879 14.0035 7.15569 14.243 7.62536L14.4266 7.21748L14.4268 7.21686L14.4277 7.21494L14.4283 7.21355L14.4312 7.20712C14.8127 6.35956 15.1904 5.52025 15.5702 4.67375L14.6927 4.71783C14.0651 4.7493 13.4402 4.78064 12.8111 4.81295C13.0511 5.28358 13.2893 5.75177 13.5275 6.22013ZM10.5841 8.24198C11.0734 7.28364 11.5612 6.32807 12.0547 5.36207C12.5461 6.32668 13.0325 7.28155 13.5197 8.23711C13.4712 8.25034 10.6875 8.25521 10.5841 8.24198ZM16.0123 21.0067C15.9278 21.0268 15.8443 21.0472 15.7613 21.0674L15.7611 21.0674L15.7611 21.0674C15.5817 21.1112 15.4049 21.1543 15.2271 21.1919C14.9691 21.2476 14.7091 21.297 14.4483 21.3394C14.1854 21.3819 13.921 21.4188 13.656 21.4473C13.3903 21.4758 13.1239 21.4967 12.8575 21.5113C12.5932 21.5259 12.3282 21.5343 12.0631 21.5343C11.796 21.5336 11.5289 21.5252 11.2625 21.5106C10.9961 21.4953 10.7297 21.473 10.4646 21.4438C10.1996 21.4146 9.93532 21.377 9.67241 21.3339C9.41162 21.2907 9.15153 21.2406 8.89354 21.1856C8.71201 21.1466 8.53151 21.1036 8.34987 21.0603L8.34985 21.0602L8.34983 21.0602L8.3498 21.0602L8.34978 21.0602L8.34973 21.0602L8.34965 21.0602L8.34957 21.0602L8.3484 21.0599L8.34707 21.0596C8.2701 21.0412 8.19292 21.0228 8.11538 21.0047L8.11414 21.0157C8.10122 21.1314 8.08893 21.2414 8.0971 21.3526C8.10272 21.4327 8.13998 21.4939 8.2159 21.5259L8.22116 21.5282L8.22118 21.5282C8.26446 21.547 8.30842 21.566 8.35368 21.5767C8.41535 21.5912 8.47699 21.6058 8.53863 21.6205C8.77349 21.6762 9.00838 21.7319 9.24502 21.7793C9.56064 21.8433 9.87838 21.8976 10.1961 21.9484C10.4126 21.9839 10.6312 22.0103 10.8499 22.0333C11.0319 22.0528 11.2154 22.066 11.3989 22.0758L11.4018 22.0759H11.4018H11.4018H11.4019H11.4019H11.402H11.402H11.4021C11.6639 22.0891 11.925 22.1022 12.1869 22.1064C12.5264 22.1119 12.8666 22.1036 13.2054 22.0744L13.3061 22.0659C13.502 22.0496 13.6985 22.0333 13.8929 22.0048C14.1755 21.9637 14.4574 21.9129 14.7372 21.8558C15.0732 21.7869 15.4036 21.6937 15.7269 21.5788C15.7853 21.558 15.8415 21.5322 15.897 21.5051C15.9912 21.4598 16.0376 21.3826 16.0341 21.2803C16.0322 21.2174 16.0261 21.1546 16.0201 21.0911L16.0201 21.091L16.02 21.0909C16.0174 21.063 16.0147 21.035 16.0123 21.0067ZM8.12139 3.15699L8.12733 3.14749C10.75 3.41335 13.3756 3.40918 16.006 3.15167L16.0097 3.1746C16.0135 3.1972 16.0171 3.21863 16.0187 3.24006C16.0264 3.33332 16.0327 3.42588 16.0144 3.51845C15.9976 3.60405 15.9512 3.66877 15.8689 3.69801C15.7909 3.72515 15.7101 3.7509 15.6285 3.76064C15.4652 3.77875 15.3007 3.78905 15.1361 3.79935L15.0985 3.8017C14.8876 3.81423 14.676 3.82537 14.4651 3.83511L14.3209 3.84162L14.3209 3.84162C14.1316 3.85028 13.9427 3.85892 13.7537 3.86225C13.2279 3.87269 12.7021 3.88313 12.1763 3.88522C11.7018 3.88661 11.2273 3.88104 10.7528 3.87269C10.3747 3.86573 9.99647 3.8539 9.61899 3.83581C9.30336 3.82119 8.98774 3.79892 8.67282 3.77317C8.57952 3.76539 8.48701 3.74754 8.3947 3.72973L8.39469 3.72973L8.39469 3.72973L8.39468 3.72973L8.39468 3.72973L8.39467 3.72973L8.39467 3.72973L8.39463 3.72972C8.36315 3.72365 8.3317 3.71759 8.30025 3.71192C8.27584 3.70747 8.25202 3.69663 8.22932 3.68629L8.22293 3.68339C8.1456 3.64859 8.10413 3.58804 8.0964 3.50592C8.08585 3.39317 8.0978 3.28182 8.11468 3.17046C8.11516 3.16664 8.11762 3.16283 8.12139 3.15699ZM15.9104 20.0073L15.7571 19.7812L15.7497 19.7703L15.7432 19.7607C15.2675 19.0589 14.7943 18.3608 14.3161 17.655L13.7018 18.8589L13.6998 18.8628C13.407 19.4365 13.1148 20.0091 12.8216 20.5843C12.8333 20.5843 12.8435 20.5845 12.8526 20.5846H12.8527H12.8528H12.8529H12.853H12.853C12.869 20.5849 12.8818 20.5852 12.8947 20.5843L13.4515 20.5509C13.7453 20.5328 14.0384 20.5043 14.3302 20.4618C14.6345 20.418 14.9347 20.356 15.2292 20.2683C15.4598 20.1994 15.6848 20.1152 15.9104 20.0073ZM9.51618 18.1069L9.82214 17.6584C10.3198 18.6377 10.8119 19.6058 11.3082 20.5815C11.3026 20.582 11.2981 20.5827 11.2942 20.5832L11.2942 20.5832C11.2879 20.5841 11.2834 20.5847 11.2787 20.5843C11.2186 20.5812 11.1585 20.5782 11.0984 20.5753C10.9582 20.5684 10.8179 20.5615 10.6776 20.5523C10.5026 20.5404 10.3276 20.5286 10.1546 20.507C9.9304 20.4792 9.70616 20.4472 9.48402 20.4061C9.06788 20.3289 8.66298 20.2133 8.27143 20.0533C8.25361 20.0463 8.23636 20.0383 8.21446 20.028L8.20746 20.0247C8.64427 19.3851 9.07875 18.7482 9.51618 18.1069ZM10.5841 17.1448C10.5841 17.1477 10.5839 17.1502 10.5838 17.1523C10.5835 17.1559 10.5833 17.1587 10.5841 17.1608L12.0772 20.04C12.0808 20.0472 12.0854 20.0541 12.0898 20.0609L12.0969 20.0721C12.0977 20.0728 12.0986 20.0736 12.0997 20.0741C12.1006 20.0746 12.1016 20.0748 12.1025 20.0748C12.1039 20.0755 12.106 20.0741 12.1124 20.0728C12.5995 19.1019 13.0873 18.1289 13.5752 17.1553C13.5759 17.1532 13.5745 17.1504 13.5738 17.149C13.5734 17.1483 13.5727 17.1476 13.572 17.1469C13.5713 17.1462 13.5706 17.1455 13.5703 17.1448H10.5841ZM9.12686 8.11884L9.12763 8.12089L9.0749 8.11651H9.0749C9.03211 8.11306 8.99253 8.10986 8.9533 8.10488C8.88841 8.09732 8.82343 8.08997 8.75841 8.08261L8.75837 8.08261L8.75834 8.0826C8.58387 8.06287 8.40917 8.0431 8.23558 8.01927C7.6929 7.9455 7.16007 7.83415 6.65113 7.62744C6.54499 7.58429 6.49016 7.47155 6.52811 7.36437C6.70657 6.85287 6.88572 6.34171 7.06483 5.83065L7.29363 5.17763C7.33487 5.06071 7.37673 4.94378 7.4186 4.82686L7.48132 4.65148L7.48582 4.63792C7.48958 4.62628 7.49332 4.61468 7.49889 4.60416C7.51014 4.58258 7.53052 4.58189 7.54318 4.60137C7.54909 4.60967 7.55328 4.61934 7.55744 4.62894C7.55921 4.63302 7.56097 4.63709 7.56286 4.64104L8.19425 6.04278C8.49863 6.7184 8.80306 7.39412 9.10724 8.07008C9.11339 8.08292 9.1182 8.09576 9.12685 8.11881L9.12685 8.11882L9.12686 8.11884ZM14.9762 8.19953L15.0245 8.18967C15.0608 8.18228 15.0928 8.17577 15.1245 8.16891L15.125 8.16879L15.1256 8.16867C15.8542 8.00868 16.5828 7.84868 17.3107 7.68799L17.3153 7.68699C17.3967 7.66923 17.4788 7.65133 17.5588 7.62605C17.6397 7.59961 17.6727 7.55019 17.665 7.46668C17.66 7.4103 17.646 7.35393 17.6263 7.30103C17.3958 6.66968 17.1646 6.03867 16.9335 5.40777L16.9328 5.40601L16.6394 4.60485C16.6358 4.59542 16.6313 4.58642 16.6256 4.57486L16.6256 4.57484C16.6211 4.56594 16.6159 4.55553 16.6098 4.54221L14.9762 8.19953Z" fill="#0C1E3C"/>
</svg>
