<svg width="24" height="24" viewBox="0 0 24 24" fill="none" xmlns="http://www.w3.org/2000/svg">
<path fill-rule="evenodd" clip-rule="evenodd" d="M2.87324 11.5059L2.87322 11.506C2.8607 11.5322 2.84817 11.5585 2.836 11.585L2.827 11.724C2.854 11.857 2.933 11.934 3.033 11.99L3.25314 12.1143C3.39976 12.1972 3.54638 12.28 3.693 12.362C4.453 12.786 5.202 13.234 5.911 13.765C6.42113 14.1472 6.96083 14.4395 7.54169 14.6109C7.54146 14.6109 7.54123 14.6109 7.541 14.6109C7.21 14.5909 6.908 14.6649 6.658 14.9109C6.58581 14.9821 6.51526 15.0554 6.44465 15.1288C6.36952 15.2069 6.29432 15.2851 6.217 15.3609C6.034 15.5379 5.82 15.5379 5.639 15.3589C5.57184 15.2935 5.50821 15.2239 5.44455 15.1542C5.40109 15.1067 5.35762 15.0591 5.313 15.0129C4.996 14.6849 4.619 14.5589 4.183 14.6349C3.921 14.6809 3.7 14.8099 3.513 15.0089C3.48353 15.0403 3.45425 15.072 3.425 15.1035C3.33812 15.1973 3.25152 15.2908 3.161 15.3799C3.01 15.5279 2.817 15.5309 2.655 15.3989C2.627 15.3759 2.601 15.3509 2.576 15.3249C2.5412 15.2887 2.50651 15.2526 2.47187 15.2164C2.40396 15.1457 2.3362 15.075 2.268 15.0049C2.009 14.7389 1.71 14.5829 1.342 14.6169C1.211 14.6289 1.104 14.6829 1.04 14.8109C1.0281 14.8347 1.02057 14.8606 1.01308 14.8865C1.00924 14.8998 1.00541 14.913 1.001 14.9259V15.0109C1.00613 15.0247 1.01075 15.0387 1.01535 15.0526C1.02509 15.0821 1.03474 15.1114 1.049 15.1379C1.118 15.2599 1.229 15.3089 1.356 15.3169C1.509 15.3269 1.632 15.3959 1.739 15.5099C1.849 15.6289 1.959 15.7479 2.074 15.8619C2.301 16.0859 2.569 16.2059 2.879 16.2039C3.23 16.2019 3.531 16.0659 3.783 15.8049C3.83381 15.7532 3.88368 15.7006 3.93359 15.6479C3.9986 15.5793 4.06368 15.5106 4.131 15.4439C4.31 15.2649 4.523 15.2689 4.701 15.4499C4.816 15.5679 4.931 15.6869 5.045 15.8069C5.314 16.0929 5.638 16.2239 6.017 16.1989C6.285 16.1819 6.522 16.0799 6.722 15.8879C6.82933 15.7845 6.9323 15.6761 7.03533 15.5677C7.06285 15.5387 7.09038 15.5097 7.118 15.4809C7.331 15.2599 7.567 15.2609 7.777 15.4849C7.80856 15.5184 7.84005 15.552 7.87154 15.5857C7.9508 15.6704 8.03013 15.7551 8.111 15.8389C8.562 16.3059 9.3 16.3269 9.769 15.8799C9.85314 15.8 9.93276 15.7145 10.0123 15.6291C10.0622 15.5755 10.1121 15.5219 10.163 15.4699C10.36 15.2689 10.585 15.2639 10.786 15.4599C10.885 15.5549 10.979 15.6559 11.07 15.7599C11.338 16.0669 11.665 16.2179 12.06 16.1969C12.322 16.1839 12.562 16.1029 12.761 15.9179C12.8463 15.8391 12.9267 15.7547 13.0072 15.6703C13.0635 15.6112 13.1199 15.5521 13.178 15.4949C13.231 15.4419 13.289 15.3879 13.353 15.3569C13.531 15.2729 13.688 15.3259 13.824 15.4649C13.8722 15.5142 13.9197 15.5642 13.967 15.6142C14.0406 15.6917 14.114 15.7691 14.19 15.8439C14.642 16.2929 15.3 16.3309 15.784 15.9239C15.9018 15.8249 16.0081 15.7102 16.1142 15.5957C16.1549 15.5518 16.1957 15.5079 16.237 15.4649C16.417 15.2769 16.656 15.2669 16.841 15.4479C16.964 15.5699 17.085 15.6959 17.204 15.8219C17.46 16.0949 17.77 16.2199 18.13 16.1999C18.402 16.1839 18.648 16.0869 18.854 15.8949C18.9599 15.7965 19.0606 15.693 19.1612 15.5895C19.207 15.5425 19.2528 15.4954 19.299 15.4489C19.474 15.2729 19.69 15.2689 19.867 15.4429C19.9255 15.5003 19.9823 15.5598 20.039 15.6192C20.087 15.6695 20.135 15.7198 20.184 15.7689C20.1955 15.7802 20.207 15.7917 20.2186 15.8032C20.29 15.8744 20.3619 15.946 20.442 16.0029C20.693 16.1799 20.974 16.2259 21.269 16.1929C21.486 16.1689 21.676 16.0769 21.837 15.9199C21.8676 15.89 21.8982 15.8603 21.9288 15.8306C22.0204 15.7419 22.1118 15.6533 22.201 15.5619C22.343 15.4149 22.503 15.3149 22.707 15.3039C22.754 15.3019 22.805 15.2809 22.846 15.2539C22.956 15.1829 23.009 15.0319 22.983 14.8909C22.958 14.7599 22.855 14.6469 22.723 14.6289C22.364 14.5779 22.047 14.6819 21.781 14.9479C21.7199 15.0089 21.6607 15.072 21.6015 15.1351C21.5298 15.2116 21.458 15.288 21.383 15.3609C21.199 15.5409 20.992 15.5379 20.806 15.3589C20.738 15.2939 20.674 15.2229 20.611 15.1519C20.498 15.0229 20.381 14.8989 20.239 14.8069C19.997 14.6509 19.734 14.5949 19.455 14.6139C19.21 14.6309 18.995 14.7189 18.814 14.8979C18.7873 14.9243 18.7607 14.9508 18.7341 14.9773C18.6009 15.1098 18.468 15.242 18.333 15.3729C18.232 15.4689 18.116 15.5159 17.979 15.4819C17.883 15.4569 17.807 15.3979 17.738 15.3259C17.7082 15.2944 17.6785 15.2628 17.6487 15.2312C17.5723 15.1501 17.4957 15.0687 17.418 14.9889C17.1733 14.7372 16.871 14.6058 16.5669 14.6002C16.8605 14.5116 17.1494 14.4033 17.429 14.257C17.935 13.993 18.369 13.617 18.714 13.102L18.749 13.0501C18.844 12.9098 18.9391 12.7693 18.997 12.601C19.179 12.073 19.221 11.526 19.188 10.968C19.171 10.672 19.113 10.385 19.049 10.1L18.919 9.52229L18.9187 9.52079C18.7789 8.89981 18.6391 8.2787 18.501 7.657C18.421 7.295 18.517 6.999 18.772 6.768C18.8084 6.73506 18.8453 6.70322 18.8822 6.67138L18.8822 6.67137L18.8822 6.67135L18.8823 6.67131L18.8824 6.67121C18.9317 6.62868 18.981 6.58615 19.029 6.541C19.236 6.345 19.456 6.174 19.699 6.047C19.7492 6.02098 19.7992 5.99409 19.8493 5.96719C20.0453 5.86176 20.2417 5.75618 20.452 5.702C21.081 5.542 21.711 5.386 22.343 5.247C22.704 5.168 23.031 5.015 23.325 4.753C23.3322 4.74707 23.3404 4.74332 23.3493 4.73916C23.354 4.737 23.3589 4.73473 23.364 4.732L23.2919 4.65281C23.1971 4.54853 23.1087 4.4513 23.019 4.356C22.942 4.275 22.851 4.221 22.75 4.193C22.7209 4.18539 22.6916 4.17879 22.6624 4.17219C22.6263 4.16406 22.5904 4.15594 22.555 4.146C22.035 4.006 21.508 3.907 20.981 3.811C20.668 3.754 20.386 3.617 20.153 3.368C20.0733 3.2826 19.9979 3.19128 19.9225 3.09989L19.9225 3.09987L19.9224 3.09985L19.9224 3.0998C19.8662 3.03177 19.81 2.9637 19.752 2.898C19.364 2.461 18.9 2.191 18.369 2.073C18.297 2.057 18.224 2.041 18.152 2.026L17.781 2C17.7755 2.00079 17.7702 2.00203 17.7649 2.00326C17.7568 2.00516 17.7489 2.007 17.741 2.007C17.524 2.009 17.309 2.043 17.097 2.103C16.569 2.253 16.107 2.542 15.736 3.022C15.247 3.657 15.008 4.416 14.906 5.241C14.8781 5.46136 14.873 5.68669 14.868 5.90906L14.868 5.911C14.863 6.182 14.886 6.45 14.951 6.71C15.157 7.541 15.326 8.383 15.458 9.236C15.4732 9.33391 15.4805 9.43396 15.4879 9.53373L15.492 9.589C15.496 9.636 15.473 9.67 15.43 9.669L15.4006 9.66872C15.354 9.66847 15.3068 9.66821 15.263 9.655C14.93 9.555 14.597 9.452 14.265 9.347C13.77 9.19 13.271 9.059 12.758 9.004C12.276 8.953 11.792 8.931 11.307 8.944C10.871 8.957 10.436 8.995 10.002 9.057C9.292 9.158 8.59 9.316 7.896 9.524C7.159 9.746 6.421 9.968 5.682 10.182C5.157 10.333 4.626 10.451 4.09 10.529C3.91847 10.5537 3.74694 10.5724 3.57541 10.5912C3.50394 10.599 3.43247 10.6068 3.361 10.615C3.16 10.639 3.048 10.784 3.031 11.02C3.025 11.111 2.998 11.204 2.967 11.29C2.94074 11.3644 2.90704 11.4351 2.87326 11.5059L2.87324 11.5059ZM15.9754 14.7567C16.1626 14.6481 16.3652 14.5965 16.5669 14.6002C16.409 14.6478 16.2498 14.6898 16.09 14.729C16.0518 14.7383 16.0136 14.7476 15.9754 14.7567ZM14.371 14.9733C14.5698 14.9654 14.768 14.954 14.967 14.936C15.3062 14.9046 15.6414 14.8361 15.9754 14.7567C15.9201 14.7887 15.8662 14.8258 15.814 14.8679C15.7378 14.9292 15.669 15.0006 15.6003 15.0721C15.5626 15.1112 15.5249 15.1503 15.486 15.1879C15.4785 15.1949 15.4711 15.202 15.4636 15.2091C15.394 15.2753 15.3239 15.342 15.248 15.3989C15.063 15.5379 14.893 15.5209 14.729 15.3539C14.6602 15.2833 14.5927 15.2099 14.5249 15.136C14.513 15.123 14.501 15.1099 14.489 15.0969C14.4505 15.0547 14.4114 15.0131 14.371 14.9733ZM12.6467 14.9822C12.661 14.9686 12.6754 14.9551 12.69 14.9419C13.078 14.5909 13.515 14.5109 13.99 14.7049C14.1358 14.7645 14.2583 14.8621 14.371 14.9733C14.338 14.9746 14.305 14.9759 14.272 14.977C14 14.986 13.727 14.989 13.455 14.991C13.2741 14.9918 13.0939 14.9892 12.9138 14.9866L12.806 14.985C12.7529 14.9841 12.6998 14.9832 12.6467 14.9822ZM11.318 14.9533C11.4583 14.957 11.5987 14.9606 11.739 14.964C12.0419 14.9708 12.344 14.9769 12.6467 14.9822C12.5746 15.0513 12.5063 15.1248 12.4381 15.1984C12.3895 15.2508 12.341 15.3032 12.291 15.3539C12.111 15.5369 11.889 15.5399 11.706 15.3589C11.6214 15.2756 11.54 15.1886 11.4588 15.1017C11.4209 15.0613 11.3831 15.0209 11.345 14.9809C11.3361 14.9715 11.3271 14.9623 11.318 14.9533ZM9.69157 14.9027C10.1628 14.4879 10.867 14.5067 11.318 14.9533C11.1304 14.9483 10.9427 14.9431 10.7551 14.938H10.7551H10.7551H10.7551H10.755H10.755L10.5525 14.9323C10.3474 14.9267 10.1427 14.921 9.938 14.912C9.87925 14.9096 9.82047 14.9074 9.76166 14.9053C9.7383 14.9044 9.71494 14.9035 9.69157 14.9027ZM9.69157 14.9027C9.66742 14.9239 9.64387 14.9463 9.621 14.9699C9.55685 15.0361 9.49384 15.1036 9.43091 15.1709C9.37612 15.2296 9.32138 15.2881 9.266 15.3459C9.079 15.5409 8.867 15.5459 8.676 15.3579C8.576 15.2589 8.477 15.1579 8.384 15.0519C8.24934 14.9003 8.1004 14.7824 7.93243 14.7064C7.9645 14.7126 7.99668 14.7185 8.029 14.724C8.37 14.782 8.714 14.829 9.059 14.864C9.26919 14.8856 9.48042 14.8948 9.69157 14.9027ZM7.93243 14.7064C7.8001 14.6807 7.66989 14.6487 7.54169 14.6109C7.6828 14.6193 7.81247 14.6522 7.93243 14.7064ZM17.8966 7.48191C17.8965 7.50053 17.8964 7.52006 17.896 7.541C17.8538 7.53816 17.8125 7.53516 17.7717 7.53219C17.7117 7.52784 17.6529 7.52357 17.594 7.52C17.5258 7.51614 17.4577 7.51204 17.3897 7.50795L17.3892 7.50793L17.3892 7.50792C17.2109 7.4972 17.0329 7.48651 16.855 7.48C16.51 7.467 16.168 7.505 15.829 7.582C15.757 7.598 15.747 7.594 15.727 7.513C15.7043 7.42262 15.6811 7.33238 15.6579 7.24212C15.593 6.98981 15.528 6.7373 15.475 6.481C15.371 5.977 15.403 5.474 15.552 4.978C15.5752 4.90133 15.5973 4.82411 15.6194 4.74689L15.6194 4.74687L15.6194 4.74684L15.6194 4.74682L15.6194 4.7468L15.6194 4.74677L15.6194 4.74675C15.6704 4.56821 15.7214 4.3897 15.787 4.218C15.966 3.75 16.237 3.37 16.617 3.104C16.901 2.906 17.209 2.805 17.531 2.753C17.805 2.71 18.078 2.708 18.349 2.768C18.73 2.852 19.067 3.042 19.342 3.359C19.4533 3.48718 19.5546 3.62719 19.656 3.76737C19.705 3.83498 19.7539 3.90262 19.804 3.969C19.8145 3.98256 19.8265 3.9946 19.8395 4.00769L19.8395 4.00771L19.8396 4.00781L19.8398 4.00801L19.8399 4.00809L19.8401 4.00824L19.8402 4.00832C19.8481 4.01628 19.8564 4.02465 19.865 4.034L19.8037 4.08817C19.733 4.15065 19.6675 4.20852 19.602 4.267C19.561 4.30345 19.5198 4.33965 19.4787 4.37584C19.3766 4.46575 19.2745 4.5556 19.174 4.649C19.128 4.692 19.088 4.747 19.055 4.804C18.987 4.923 18.994 5.059 19.074 5.163C19.1126 5.21197 19.1555 5.2557 19.1984 5.29946L19.1985 5.29948L19.1985 5.2995L19.1985 5.29952L19.1985 5.29954L19.1986 5.29957L19.1986 5.29959C19.2178 5.31923 19.2371 5.33887 19.256 5.359C19.2638 5.36742 19.272 5.37543 19.2811 5.38437L19.2812 5.38439L19.297 5.4L19.2459 5.44081L19.2455 5.44114C19.1749 5.49747 19.1063 5.55223 19.037 5.607C18.744 5.845 18.467 6.105 18.238 6.429C18.037 6.713 17.915 7.032 17.898 7.401C17.8968 7.42696 17.8967 7.45328 17.8966 7.48173V7.48176V7.48179V7.48182V7.48185V7.48188V7.48191ZM19.786 4.945C19.891 5.02 19.995 5.072 20.118 5.046C20.653 4.931 21.187 4.818 21.722 4.705C21.794 4.689 21.866 4.673 21.938 4.658C21.696 4.61 21.456 4.571 21.215 4.533C21.1214 4.51805 21.0279 4.50342 20.9345 4.48878C20.7904 4.46622 20.6464 4.44366 20.502 4.42C20.452 4.412 20.41 4.422 20.369 4.458C20.3223 4.49782 20.2752 4.53717 20.2282 4.57637L20.2281 4.57639L20.2281 4.57645L20.164 4.63L20.0083 4.75987L20.0079 4.76019L20.0059 4.76183C19.9335 4.82227 19.8606 4.88313 19.786 4.945ZM16 8.909C16.2726 8.81251 16.5439 8.71668 16.8145 8.62109C17.1216 8.51261 17.4278 8.40445 17.734 8.296C17.7256 8.28484 17.719 8.28406 17.7117 8.2832L17.71 8.283C17.446 8.271 17.181 8.259 16.917 8.248L16.8013 8.24275C16.5931 8.2332 16.3854 8.22369 16.177 8.222C16.1164 8.222 16.0536 8.24387 15.9923 8.26521L15.961 8.276C15.918 8.29 15.902 8.332 15.911 8.386C15.928 8.48299 15.9444 8.58031 15.961 8.67922C15.9737 8.7547 15.9866 8.8311 16 8.909ZM18.586 10.747C18.571 10.758 18.558 10.767 18.545 10.775C18.518 10.7904 18.4912 10.8064 18.4644 10.8224L18.4644 10.8225C18.3958 10.8634 18.3272 10.9044 18.256 10.936C18.016 11.045 17.766 11.044 17.516 11.033C17.3488 11.0268 17.1815 11.0248 17.0143 11.0228L16.871 11.021C16.661 11.019 16.506 11.134 16.397 11.344C16.37 11.396 16.34 11.447 16.306 11.493C16.24 11.582 16.164 11.601 16.072 11.558C15.832 11.447 15.761 11.035 15.953 10.813C16.153 10.581 16.388 10.412 16.663 10.333C16.8533 10.2784 17.0435 10.2915 17.2338 10.3046C17.2665 10.3068 17.2993 10.3091 17.332 10.311C17.3621 10.3124 17.3921 10.3146 17.422 10.3168C17.4766 10.3207 17.5311 10.3246 17.586 10.324C17.846 10.319 18.094 10.246 18.33 10.115C18.441 10.053 18.463 9.981 18.427 9.844C18.364 9.607 18.302 9.369 18.241 9.131C18.204 8.987 18.14 8.944 18.016 8.986C17.9029 9.02423 17.7905 9.06511 17.6783 9.10594L17.6782 9.10596L17.601 9.134L17.1713 9.28873C16.8334 9.41045 16.4955 9.53222 16.157 9.653C16.084 9.679 16.038 9.724 16.009 9.811C15.979 9.902 15.938 9.991 15.889 10.07C15.696 10.377 15.329 10.483 15.02 10.342C14.788 10.236 14.553 10.137 14.315 10.053C13.909 9.91 13.491 9.829 13.07 9.768C12.63 9.705 12.19 9.653 11.746 9.656C11.458 9.657 11.17 9.665 10.883 9.688C10.59 9.711 10.297 9.749 10.006 9.794L9.87406 9.81453L9.87403 9.81453L9.87403 9.81453L9.87402 9.81453L9.87401 9.81453L9.874 9.81454C9.51487 9.87027 9.15555 9.92604 8.801 10.008C8.48774 10.0805 8.17745 10.1709 7.867 10.2613C7.73644 10.2993 7.60585 10.3373 7.475 10.374C7.43091 10.3864 7.38743 10.4005 7.3413 10.4156L7.34128 10.4156L7.34113 10.4156L7.34092 10.4157L7.34073 10.4158L7.3407 10.4158L7.3 10.429L7.32342 10.4693C7.34889 10.5132 7.37235 10.5537 7.397 10.593C7.571 10.869 7.68 11.175 7.688 11.527C7.691 11.664 7.749 11.744 7.856 11.788C8.13 11.903 8.399 12.034 8.645 12.219C8.791 12.328 8.924 12.452 9.015 12.628C9.138 12.865 9.162 13.109 9.027 13.36C8.984 13.44 8.925 13.493 8.844 13.489C8.763 13.485 8.702 13.431 8.657 13.357C8.623 13.3 8.594 13.237 8.566 13.175C8.463 12.949 8.319 12.774 8.111 12.682C8.03809 12.6495 7.96493 12.6178 7.89177 12.5861L7.89172 12.5861L7.89167 12.5861L7.89161 12.586L7.89156 12.586L7.89151 12.586L7.89126 12.5859C7.81809 12.5542 7.74492 12.5225 7.672 12.49C7.362 12.351 7.18 12.09 7.137 11.699C7.13266 11.6592 7.12943 11.6191 7.1262 11.579V11.579C7.11976 11.499 7.11331 11.4189 7.098 11.341C7.027 10.972 6.751 10.712 6.429 10.722C6.32418 10.7255 6.21783 10.7565 6.11329 10.7869L6.11327 10.7869L6.068 10.8C5.526 10.954 4.982 11.099 4.43 11.184C4.3642 11.1938 4.2984 11.2056 4.23123 11.2176L4.23085 11.2176L4.23027 11.2177L4.144 11.233L4.19211 11.2992C4.24365 11.3701 4.29353 11.4386 4.344 11.509C4.28965 11.5513 4.23563 11.593 4.18101 11.6352L4.18075 11.6354L4.18062 11.6355L4.057 11.731C4.079 11.74 4.093 11.746 4.107 11.752C4.13585 11.7647 4.1652 11.7763 4.19458 11.7878C4.25787 11.8128 4.32127 11.8378 4.38 11.874C4.615 12.022 4.848 12.174 5.078 12.333C5.574 12.677 6.069 13.024 6.563 13.374C6.982 13.672 7.428 13.888 7.918 13.977C8.02022 13.9953 8.12245 14.0143 8.22475 14.0334L8.22478 14.0334C8.4187 14.0694 8.61292 14.1056 8.808 14.137C9.071 14.179 9.335 14.218 9.6 14.243C9.91472 14.2725 10.2302 14.2922 10.5458 14.3119L10.5458 14.3119L10.5458 14.3119L10.5459 14.3119L10.5459 14.3119L10.546 14.3119L10.691 14.321C10.912 14.336 11.132 14.35 11.353 14.354C11.645 14.359 11.937 14.358 12.23 14.354C12.499 14.35 12.769 14.343 13.038 14.331C13.295 14.32 13.553 14.304 13.809 14.282C14.1 14.258 14.39 14.232 14.679 14.196C14.9296 14.1642 15.1802 14.1265 15.4308 14.0887C15.5352 14.073 15.6396 14.0573 15.744 14.042C16.048 13.997 16.35 13.939 16.645 13.829C17.121 13.652 17.559 13.38 17.971 13.049C18.366 12.731 18.567 12.276 18.632 11.732C18.6693 11.4152 18.6306 11.1047 18.5913 10.7893L18.586 10.747ZM18.583 4.138C18.334 4.12 18.146 3.898 18.165 3.645C18.185 3.393 18.395 3.211 18.647 3.23C18.897 3.248 19.085 3.463 19.069 3.71C19.053 3.958 18.829 4.155 18.583 4.138ZM1.00249 18.165L1 18.175V18.25L1.00198 18.2517C1.0039 18.2532 1.006 18.2548 1.006 18.257C1.053 18.453 1.145 18.539 1.333 18.556C1.497 18.571 1.632 18.643 1.748 18.765C1.77732 18.796 1.80641 18.8272 1.83548 18.8584L1.83551 18.8584C1.92638 18.9559 2.01703 19.0531 2.114 19.144C2.301 19.32 2.522 19.425 2.772 19.445C3.178 19.476 3.523 19.328 3.81 19.023C3.83522 18.9964 3.86033 18.9696 3.88543 18.9429C3.96683 18.8562 4.04816 18.7695 4.133 18.687C4.316 18.509 4.517 18.513 4.698 18.695C4.74828 18.7453 4.79765 18.7965 4.847 18.8476L4.84703 18.8476C4.93509 18.9389 5.02308 19.0301 5.116 19.116C5.619 19.58 6.296 19.562 6.781 19.076C6.86628 18.9907 6.9496 18.904 7.03302 18.8171L7.03306 18.8171L7.03311 18.817C7.069 18.7797 7.10491 18.7423 7.141 18.705C7.327 18.512 7.57 18.514 7.754 18.709L7.80398 18.762L7.80406 18.7621L7.80411 18.7621C7.88561 18.8485 7.96734 18.935 8.047 19.023C8.332 19.336 8.676 19.476 9.084 19.437C9.365 19.41 9.608 19.297 9.81 19.086C9.87501 19.0181 9.93968 18.9493 10.0044 18.8804C10.0532 18.8285 10.102 18.7766 10.151 18.725C10.225 18.648 10.308 18.588 10.413 18.569C10.57 18.54 10.695 18.611 10.804 18.723C10.8911 18.8127 10.9759 18.9046 11.0605 18.9961L11.101 19.04C11.317 19.274 11.573 19.417 11.884 19.439C12.222 19.463 12.53 19.382 12.788 19.14C12.8918 19.0421 12.9896 18.9376 13.0874 18.8331L13.0875 18.833C13.1215 18.7966 13.1556 18.7602 13.19 18.724C13.39 18.514 13.62 18.508 13.823 18.711C13.8849 18.7724 13.9448 18.8358 14.0047 18.8992C14.056 18.9536 14.1074 19.0079 14.16 19.061C14.373 19.277 14.623 19.415 14.917 19.445C15.243 19.477 15.54 19.382 15.792 19.161C15.9136 19.0539 16.0253 18.9339 16.1369 18.8141C16.1712 18.7773 16.2054 18.7404 16.24 18.704C16.412 18.524 16.666 18.517 16.841 18.693C16.8745 18.7265 16.907 18.7615 16.9394 18.7965L16.9394 18.7965C16.9834 18.8439 17.0274 18.8913 17.074 18.935C17.1004 18.9603 17.1266 18.9861 17.1528 19.0119C17.2436 19.1014 17.3346 19.1912 17.437 19.261C17.864 19.554 18.459 19.501 18.852 19.141C18.9461 19.0546 19.0356 18.9626 19.1252 18.8706C19.187 18.8071 19.2487 18.7436 19.312 18.682C19.481 18.517 19.698 18.52 19.864 18.687C19.981 18.804 20.098 18.921 20.209 19.043C20.416 19.273 20.663 19.41 20.961 19.44C21.302 19.474 21.61 19.389 21.87 19.144C21.986 19.035 22.097 18.919 22.206 18.802C22.345 18.651 22.507 18.561 22.708 18.55C22.857 18.541 22.987 18.387 22.99 18.228C22.994 18.052 22.88 17.894 22.723 17.876C22.381 17.836 22.067 17.912 21.806 18.167C21.742 18.2297 21.6807 18.295 21.6193 18.3603C21.5887 18.393 21.558 18.4257 21.527 18.458C21.485 18.503 21.442 18.548 21.398 18.592C21.201 18.788 20.979 18.786 20.786 18.587L20.7395 18.5386C20.6618 18.4579 20.5842 18.3772 20.51 18.293C20.238 17.988 19.906 17.842 19.513 17.855C19.222 17.864 18.968 17.971 18.757 18.189C18.622 18.329 18.485 18.467 18.347 18.604C18.25 18.699 18.138 18.757 18.002 18.731C17.893 18.711 17.806 18.646 17.729 18.564C17.6941 18.5271 17.6596 18.4898 17.6252 18.4525C17.5391 18.3594 17.4531 18.2664 17.361 18.18C17.043 17.881 16.675 17.782 16.261 17.886C15.977 17.957 15.754 18.128 15.56 18.352C15.461 18.467 15.36 18.581 15.231 18.661C15.049 18.775 14.882 18.756 14.73 18.601C14.616 18.485 14.504 18.368 14.396 18.246C13.947 17.739 13.193 17.731 12.736 18.144C12.6279 18.2428 12.5265 18.3509 12.4251 18.459C12.3859 18.5009 12.3466 18.5427 12.307 18.584C12.115 18.783 11.879 18.787 11.686 18.59L11.6633 18.5665C11.5668 18.4663 11.4699 18.3657 11.379 18.26C10.935 17.742 10.147 17.723 9.67 18.167C9.57804 18.2527 9.49164 18.3463 9.40529 18.4398C9.35454 18.4948 9.30382 18.5497 9.252 18.603C9.078 18.781 8.867 18.787 8.688 18.616C8.586 18.519 8.486 18.418 8.396 18.309C7.977 17.8 7.299 17.729 6.804 18.035C6.67107 18.1169 6.56705 18.2316 6.46318 18.3461L6.46302 18.3463L6.4629 18.3464C6.43872 18.3731 6.41454 18.3998 6.39 18.426C6.33 18.491 6.27 18.555 6.205 18.612C6.005 18.787 5.795 18.775 5.61 18.581C5.52 18.486 5.431 18.39 5.343 18.293C5.117 18.043 4.847 17.888 4.52 17.862C4.16 17.834 3.837 17.931 3.57 18.201C3.48964 18.2814 3.41143 18.3639 3.33323 18.4464L3.33313 18.4465C3.28096 18.5016 3.2288 18.5566 3.176 18.611C3.117 18.673 3.046 18.715 2.963 18.732C2.819 18.76 2.703 18.698 2.601 18.597C2.54532 18.5424 2.49053 18.4868 2.43577 18.4312L2.43572 18.4311L2.43564 18.431L2.43559 18.431L2.43557 18.431C2.33697 18.3308 2.23847 18.2308 2.135 18.137C1.899 17.923 1.626 17.821 1.312 17.865C1.167 17.886 1.054 17.978 1.016 18.114C1.01099 18.1307 1.00668 18.1481 1.00249 18.165ZM1 21.175L1.00249 21.165C1.00668 21.1481 1.01099 21.1307 1.016 21.114C1.054 20.978 1.167 20.886 1.312 20.865C1.626 20.821 1.899 20.923 2.135 21.137C2.23847 21.2308 2.33699 21.3309 2.43559 21.431L2.43564 21.431L2.43572 21.4311C2.4905 21.4867 2.5453 21.5424 2.601 21.597C2.703 21.698 2.819 21.76 2.963 21.732C3.046 21.715 3.117 21.673 3.176 21.611C3.2288 21.5566 3.28096 21.5016 3.33313 21.4465L3.33323 21.4464C3.41143 21.3639 3.48964 21.2814 3.57 21.201C3.837 20.931 4.16 20.834 4.52 20.862C4.847 20.888 5.117 21.043 5.343 21.293C5.431 21.39 5.52 21.486 5.61 21.581C5.795 21.775 6.005 21.787 6.205 21.612C6.27 21.555 6.33 21.491 6.39 21.426C6.41458 21.3997 6.43879 21.373 6.46302 21.3463L6.46318 21.3461C6.56705 21.2316 6.67107 21.1169 6.804 21.035C7.299 20.729 7.977 20.8 8.396 21.309C8.486 21.418 8.586 21.519 8.688 21.616C8.867 21.787 9.078 21.781 9.252 21.603C9.30382 21.5497 9.35454 21.4948 9.40529 21.4398C9.49164 21.3463 9.57804 21.2527 9.67 21.167C10.147 20.723 10.935 20.742 11.379 21.26C11.4699 21.3657 11.5668 21.4663 11.6633 21.5665L11.686 21.59C11.879 21.787 12.115 21.783 12.307 21.584C12.3466 21.5427 12.3859 21.5009 12.4251 21.459C12.5265 21.3509 12.6279 21.2428 12.736 21.144C13.193 20.731 13.947 20.739 14.396 21.246C14.504 21.368 14.616 21.485 14.73 21.601C14.882 21.756 15.049 21.775 15.231 21.661C15.36 21.581 15.461 21.467 15.56 21.352C15.754 21.128 15.977 20.957 16.261 20.886C16.675 20.782 17.043 20.881 17.361 21.18C17.4531 21.2664 17.5391 21.3594 17.6252 21.4525C17.6596 21.4898 17.6941 21.5271 17.729 21.564C17.806 21.646 17.893 21.711 18.002 21.731C18.138 21.757 18.25 21.699 18.347 21.604C18.485 21.467 18.622 21.329 18.757 21.189C18.968 20.971 19.222 20.864 19.513 20.855C19.906 20.842 20.238 20.988 20.51 21.293C20.5842 21.3772 20.6618 21.4579 20.7395 21.5386L20.786 21.587C20.979 21.786 21.201 21.788 21.398 21.592C21.442 21.548 21.485 21.503 21.527 21.458C21.558 21.4257 21.5887 21.393 21.6193 21.3603C21.6807 21.295 21.742 21.2297 21.806 21.167C22.067 20.912 22.381 20.836 22.723 20.876C22.88 20.894 22.994 21.052 22.99 21.228C22.987 21.387 22.857 21.541 22.708 21.55C22.507 21.561 22.345 21.651 22.206 21.802C22.097 21.919 21.986 22.035 21.87 22.144C21.61 22.389 21.302 22.474 20.961 22.44C20.663 22.41 20.416 22.273 20.209 22.043C20.098 21.921 19.981 21.804 19.864 21.687C19.698 21.52 19.481 21.517 19.312 21.682C19.2487 21.7436 19.187 21.8071 19.1252 21.8706C19.0356 21.9626 18.9461 22.0546 18.852 22.141C18.459 22.501 17.864 22.554 17.437 22.261C17.3346 22.1912 17.2436 22.1014 17.1528 22.0119C17.1266 21.9861 17.1004 21.9603 17.074 21.935C17.0274 21.8913 16.9834 21.8439 16.9394 21.7965L16.9394 21.7965C16.907 21.7615 16.8745 21.7265 16.841 21.693C16.666 21.517 16.412 21.524 16.24 21.704C16.2054 21.7404 16.1712 21.7773 16.1369 21.8141C16.0253 21.9339 15.9136 22.0539 15.792 22.161C15.54 22.382 15.243 22.477 14.917 22.445C14.623 22.415 14.373 22.277 14.16 22.061C14.1074 22.0079 14.056 21.9536 14.0047 21.8992C13.9448 21.8358 13.8849 21.7724 13.823 21.711C13.62 21.508 13.39 21.514 13.19 21.724C13.1556 21.7602 13.1215 21.7966 13.0875 21.833L13.0874 21.8331C12.9896 21.9376 12.8918 22.0421 12.788 22.14C12.53 22.382 12.222 22.463 11.884 22.439C11.573 22.417 11.317 22.274 11.101 22.04L11.0605 21.9961C10.9759 21.9046 10.8911 21.8127 10.804 21.723C10.695 21.611 10.57 21.54 10.413 21.569C10.308 21.588 10.225 21.648 10.151 21.725C10.102 21.7766 10.0532 21.8285 10.0044 21.8804C9.93968 21.9493 9.87501 22.0181 9.81 22.086C9.608 22.297 9.365 22.41 9.084 22.437C8.676 22.476 8.332 22.336 8.047 22.023C7.96732 21.935 7.88558 21.8484 7.80406 21.7621L7.80398 21.762L7.754 21.709C7.57 21.514 7.327 21.512 7.141 21.705C7.105 21.7422 7.06918 21.7795 7.03338 21.8168L7.03311 21.817L7.03306 21.8171C6.94963 21.9039 6.86629 21.9907 6.781 22.076C6.296 22.562 5.619 22.58 5.116 22.116C5.02308 22.0301 4.93509 21.9389 4.84703 21.8476L4.847 21.8476C4.79765 21.7965 4.74828 21.7453 4.698 21.695C4.517 21.513 4.316 21.509 4.133 21.687C4.04816 21.7695 3.96683 21.8562 3.88543 21.9429L3.88518 21.9432C3.86016 21.9698 3.83513 21.9965 3.81 22.023C3.523 22.328 3.178 22.476 2.772 22.445C2.522 22.425 2.301 22.32 2.114 22.144C2.01703 22.0531 1.92638 21.9559 1.83551 21.8584L1.83548 21.8584C1.80641 21.8272 1.77732 21.796 1.748 21.765C1.632 21.643 1.497 21.571 1.333 21.556C1.145 21.539 1.053 21.453 1.006 21.257C1.006 21.2548 1.0039 21.2532 1.00198 21.2517L1 21.25V21.175Z" fill="#0C1E3C"/>
</svg>
