<svg width="24" height="24" viewBox="0 0 24 24" fill="none" xmlns="http://www.w3.org/2000/svg">
<path fill-rule="evenodd" clip-rule="evenodd" d="M17.3008 15.4637L17.301 15.4636L17.3016 15.4635L17.3024 15.4632C17.3726 15.4404 17.4443 15.4172 17.5184 15.3939V20.0227C17.5309 20.0243 17.5433 20.0263 17.5558 20.0283C17.5978 19.9058 17.6398 19.7835 17.684 19.6552L17.759 19.437L17.9403 20.0224L17.9836 20.0174C17.9859 20.0062 17.9888 19.9949 17.9917 19.9836C17.9983 19.9581 18.0048 19.9326 18.0046 19.9071C18.0039 19.8416 18.0015 19.7761 17.9991 19.7106L17.9991 19.7105C17.9963 19.6314 17.9934 19.5523 17.9934 19.4731C17.9931 18.981 17.993 18.489 17.9929 17.997C17.9927 17.0952 17.9925 16.1934 17.9908 15.2914C17.9905 15.21 18.0223 15.1749 18.0916 15.142C18.4183 14.9874 18.7243 14.8022 18.9869 14.5491C19.3658 14.1847 19.4997 13.708 19.2042 13.2569C19.1892 13.234 19.1729 13.2119 19.1565 13.1899L19.1565 13.1899C19.133 13.1581 19.1096 13.1263 19.09 13.0924C18.9727 12.8895 18.8561 12.6862 18.7395 12.4829L18.7394 12.4827C18.5995 12.2388 18.4595 11.9949 18.3185 11.7516C18.0732 11.328 17.8273 10.9049 17.5814 10.4817C17.3223 10.0359 17.0633 9.59014 16.805 9.14385C16.5972 8.78471 16.3904 8.425 16.1835 8.06529C15.9767 7.70551 15.7698 7.34574 15.562 6.98654C15.2909 6.5177 15.0188 6.04958 14.7467 5.58151L14.7461 5.58046L14.7461 5.58043L14.7461 5.58039L14.746 5.58036L14.746 5.58032L14.746 5.58029L14.746 5.58026L14.746 5.58022C14.6045 5.3368 14.463 5.09339 14.3216 4.84991L14.3214 4.84942L14.3207 4.84822L14.3201 4.84727L14.3196 4.84631L14.3192 4.84561L14.3187 4.8449L14.3183 4.8442L14.3181 4.84374C14.0287 4.34578 13.7393 3.84782 13.4506 3.34954C13.3809 3.22912 13.312 3.10813 13.2433 2.9873L13.2433 2.98729L13.2433 2.98728L13.2433 2.98727L13.2433 2.98725L13.2433 2.98724L13.2433 2.98723L13.2428 2.98637L13.2427 2.98632L13.1768 2.87053C14.1204 2.28877 14.123 1.2244 13.6726 0.626547C13.147 -0.0707805 12.2175 -0.189956 11.5533 0.288717C11.2017 0.542171 10.9811 0.890507 10.9302 1.31534C10.8495 1.99198 11.138 2.50907 11.7073 2.87021L11.3376 3.50934C11.1348 3.86002 10.9344 4.20653 10.7336 4.55279L10.3247 5.25741L10.3242 5.25822L10.3242 5.25828L10.3242 5.25834L10.3241 5.25839L10.3241 5.25845L10.3241 5.2585L10.324 5.25856L10.324 5.25861C10.1572 5.54592 9.99042 5.83325 9.82382 6.12079C9.68039 6.36835 9.53714 6.61605 9.39388 6.86377C9.09903 7.37361 8.80415 7.8835 8.50763 8.39235C8.48058 8.43858 8.44712 8.48101 8.41366 8.52344C8.37891 8.56751 8.34415 8.61159 8.31656 8.65992C8.28463 8.71583 8.25896 8.77541 8.23328 8.835C8.20799 8.89369 8.18269 8.95238 8.15142 9.0076C7.89251 9.46232 7.63065 9.91507 7.36882 10.3678L7.36881 10.3678L7.36874 10.3679L7.24693 10.5786L7.17962 10.6949L7.17951 10.6951L7.1795 10.6951C6.89931 11.1796 6.61918 11.6639 6.33653 12.1466C6.1251 12.5077 5.91268 12.8682 5.69304 13.2247C5.50657 13.5271 5.45174 13.8367 5.61097 14.166C5.71504 14.3804 5.87657 14.5491 6.06108 14.6946C6.12904 14.7481 6.15497 14.8042 6.15497 14.8912C6.15275 16.1844 6.15312 17.4773 6.15348 18.7702L6.15366 19.4754C6.15388 19.503 6.15673 19.5305 6.15957 19.5581C6.16099 19.5719 6.16242 19.5857 6.16351 19.5995C6.17467 19.6008 6.18584 19.6021 6.197 19.6038C6.24245 19.4676 6.28807 19.3315 6.33507 19.1913L6.39136 19.0233L6.48866 19.3152L6.58375 19.6005C6.5939 19.5948 6.60278 19.5905 6.60985 19.5871C6.62107 19.5816 6.62774 19.5784 6.62774 19.5752C6.62872 18.0778 6.62872 16.5804 6.62872 15.0698L6.66853 15.0866C6.68839 15.095 6.70485 15.102 6.72131 15.1086C6.82206 15.1478 6.92269 15.1874 7.02333 15.2269C7.30507 15.3377 7.58681 15.4485 7.87104 15.5518C7.95049 15.5807 7.97413 15.6073 7.97347 15.6887C7.97121 15.9101 7.97135 16.1315 7.97149 16.353C7.97161 16.5489 7.97173 16.7448 7.97019 16.9408C7.96921 17.0403 7.9981 17.0869 8.10513 17.0755C8.18228 17.0672 8.26173 17.0676 8.33954 17.0745C8.43212 17.0823 8.46528 17.0495 8.46364 16.9556C8.46051 16.7507 8.46126 16.5456 8.46202 16.3406V16.3406V16.3405V16.3405V16.3404V16.3404C8.46229 16.266 8.46257 16.1915 8.46265 16.1171V15.7409L8.5723 15.7581C8.67802 15.7747 8.77971 15.7907 8.88158 15.8069C8.94001 15.8161 8.99878 15.8259 9.05722 15.8358C9.131 15.8482 9.2047 15.8612 9.2784 15.8743L9.27857 15.8743L9.27858 15.8743C9.45667 15.9059 9.63475 15.9375 9.81397 15.9595C9.91969 15.9727 9.9512 16.0062 9.95088 16.1112C9.94851 17.2771 9.94867 18.4427 9.94883 19.6085V19.6085V19.6085V19.6085V19.6086V19.6086V19.6086V19.6086V19.6086L9.94891 20.483C9.94891 20.5056 9.95035 20.5283 9.95181 20.5511C9.95254 20.5626 9.95328 20.5741 9.95383 20.5857L9.98502 20.5897L10.1515 20.0903L10.3691 20.7453L10.3877 20.7437L10.4082 20.742V16.0488L10.5076 16.056C10.9149 16.0852 11.3014 16.1129 11.6975 16.1414V16.2849L11.6978 16.712V16.712V16.7121V16.7121V16.7122V16.7123V16.7123V16.7124V16.7124C11.6982 17.0918 11.6986 17.471 11.6962 17.8503C11.6955 17.9445 11.7195 17.978 11.818 17.9576C11.8899 17.9428 11.9673 17.9422 12.0409 17.9501C12.1542 17.9619 12.1788 17.9123 12.1778 17.8089C12.1757 17.5518 12.1757 17.2947 12.1757 17.0376C12.1757 16.7804 12.1757 16.5232 12.1735 16.2662C12.1725 16.1697 12.1972 16.1385 12.298 16.1398C12.6558 16.1431 13.0137 16.1388 13.3712 16.1312C13.4478 16.1297 13.524 16.1193 13.6072 16.1079C13.647 16.1025 13.6885 16.0968 13.7323 16.0918V20.6849L13.7714 20.6918L13.7719 20.6904C13.8308 20.5165 13.8898 20.3426 13.9566 20.1445L14.1572 20.7489C14.1677 20.7472 14.1779 20.7452 14.1884 20.7433L14.1933 20.7423V16.0735C14.2424 16.0679 14.2896 16.0628 14.3357 16.0578L14.3361 16.0578L14.3365 16.0577C14.4262 16.0481 14.5112 16.0389 14.5961 16.0278C14.6979 16.0146 14.7687 16.0042 14.8446 15.9929C14.8954 15.9854 14.9484 15.9776 15.0144 15.9684C15.1342 15.9513 15.3089 15.9287 15.5239 15.9057V16.0804L15.5237 16.494L15.5236 16.9077C15.5236 17.0761 15.5239 17.0761 15.6858 17.0732L15.6868 17.0732C15.7013 17.0729 15.7158 17.0724 15.7303 17.0719H15.7304H15.7304H15.7304H15.7304H15.7305C15.7794 17.0702 15.8285 17.0686 15.8765 17.0741C15.9783 17.0863 16.0049 17.0423 16.0036 16.9471C16.0012 16.7409 16.0014 16.5348 16.0016 16.3286C16.0018 16.1881 16.0019 16.0476 16.0013 15.907C16.0009 15.844 16.0105 15.8102 16.0856 15.7934C16.3424 15.7366 16.5978 15.6732 16.8513 15.6027C16.9998 15.5612 17.1467 15.5137 17.3008 15.4637ZM12.4388 0.396402C11.8025 0.398372 11.3071 0.895103 11.312 1.52053C11.3173 2.18306 11.7901 2.65352 12.4395 2.65418C13.0741 2.65484 13.5537 2.2021 13.5701 1.53695C13.5856 0.90725 13.077 0.390821 12.4388 0.396402ZM7.96757 12.7556C7.62415 12.9079 7.29913 13.0678 7.04469 13.34C6.78598 13.6167 6.76333 14.0005 7.02138 14.2733C7.16912 14.4299 7.3533 14.5557 7.53321 14.6772C7.62203 14.7373 7.72049 14.7831 7.8241 14.8313L7.82412 14.8313C7.87102 14.8531 7.91897 14.8754 7.96757 14.8998V12.7556ZM17.0762 14.821C16.7836 14.9638 16.5899 15.012 16.517 15.0288C16.3135 15.0754 16.1372 15.0862 16.0095 15.0862V12.4621C16.0467 12.4719 16.0824 12.4815 16.1175 12.491L16.1871 12.5097C16.6109 12.6242 17.0207 12.7746 17.3995 12.9982C17.5883 13.1098 17.758 13.2421 17.8999 13.4158C18.0903 13.6492 18.0873 14.0442 17.8444 14.3019C17.6783 14.4779 17.5039 14.6125 17.0762 14.821ZM11.4627 12.0754L11.4624 12.0754L11.4624 12.0754L11.4623 12.0754L11.4623 12.0754C11.3052 12.0869 11.1529 12.098 11.0011 12.1124C10.9406 12.1182 10.88 12.1237 10.8194 12.1293L10.8194 12.1293L10.8193 12.1293L10.8193 12.1293L10.8193 12.1293L10.8192 12.1293L10.8192 12.1294L10.8191 12.1294L10.8191 12.1294L10.819 12.1294L10.819 12.1294L10.8189 12.1294C10.5617 12.1531 10.3043 12.1767 10.049 12.2142C9.76638 12.256 9.48592 12.3176 9.20643 12.3791L9.20635 12.3791L9.18887 12.3829C9.00888 12.4225 8.83075 12.4708 8.65272 12.519L8.5536 12.5458C8.49122 12.5625 8.46068 12.6036 8.46101 12.6764C8.46331 13.4476 8.46331 14.2185 8.46134 14.9897C8.46101 15.0544 8.48531 15.0833 8.5444 15.0987C8.60448 15.1143 8.66425 15.1315 8.72403 15.1487L8.72404 15.1487L8.72405 15.1487L8.72406 15.1487L8.72407 15.1487L8.72408 15.1487L8.72409 15.1487L8.7241 15.1487L8.72411 15.1487L8.72412 15.1487L8.72413 15.1487L8.72414 15.1488C8.828 15.1787 8.9319 15.2086 9.03752 15.23C9.11833 15.2464 9.19912 15.263 9.27993 15.2796L9.28002 15.2796L9.28011 15.2797L9.2802 15.2797L9.28029 15.2797L9.2803 15.2797L9.28031 15.2797L9.28032 15.2797L9.28033 15.2797L9.28034 15.2797L9.28035 15.2797C9.63149 15.352 9.98299 15.4244 10.3373 15.4727C10.6283 15.5123 10.9222 15.531 11.2159 15.5497H11.2159L11.2161 15.5497L11.2162 15.5497L11.2164 15.5497L11.2166 15.5498L11.2167 15.5498L11.2169 15.5498L11.2171 15.5498L11.2172 15.5498L11.2174 15.5498L11.2176 15.5498L11.2177 15.5498C11.3389 15.5575 11.46 15.5652 11.5809 15.5744C11.6052 15.5762 11.6296 15.5736 11.6554 15.5708H11.6554H11.6554C11.6672 15.5695 11.6794 15.5681 11.6919 15.5672V12.0582C11.6141 12.0643 11.5379 12.0699 11.4627 12.0754ZM12.2655 15.6011H12.2655H12.2654L12.2654 15.6011L12.2654 15.6011C12.2359 15.5987 12.206 15.5963 12.1755 15.5945L12.1754 15.5202C12.1753 15.474 12.1753 15.4302 12.1755 15.3863V12.9608C12.1756 12.8817 12.1751 12.8025 12.1746 12.7234C12.1736 12.5606 12.1726 12.3978 12.1768 12.2352C12.1801 12.1062 12.2664 12.0405 12.4273 12.0402C12.5485 12.04 12.6696 12.0453 12.7908 12.0507C12.8407 12.0529 12.8906 12.0551 12.9405 12.0569L13.0168 12.0596H13.0168C13.0882 12.0619 13.1595 12.0642 13.2307 12.0691C13.3286 12.0755 13.4266 12.0814 13.5246 12.0872L13.5247 12.0872L13.5248 12.0872L13.5248 12.0872L13.5249 12.0872L13.525 12.0872L13.5251 12.0872L13.5252 12.0873L13.5252 12.0873L13.5253 12.0873L13.5254 12.0873C13.7869 12.1029 14.0486 12.1185 14.3092 12.1452C14.532 12.1677 14.7534 12.2033 14.9749 12.2388L14.9749 12.2388L14.9749 12.2388L14.9749 12.2388L14.975 12.2388L14.975 12.2388L14.975 12.2388L14.975 12.2388L14.975 12.2388L14.975 12.2388L14.9751 12.2388L14.9753 12.2389C15.0542 12.2515 15.1331 12.2642 15.212 12.2762C15.2298 12.279 15.2469 12.2857 15.2642 12.2924C15.2781 12.2979 15.2922 12.3034 15.3066 12.3068L15.3075 12.307C15.4148 12.3323 15.4688 12.3451 15.496 12.3792C15.5236 12.4138 15.5236 12.4703 15.5236 12.5842V12.5842V15.1552C15.5233 15.3075 15.5121 15.322 15.3598 15.3446C15.2636 15.359 15.1673 15.3724 15.071 15.3858L15.071 15.3858C14.9321 15.4051 14.7933 15.4244 14.6549 15.4467C14.1145 15.5337 13.5708 15.5728 13.0238 15.581C12.9208 15.5824 12.8179 15.5891 12.715 15.5958H12.7149H12.7149H12.7149H12.7149H12.7149H12.7149H12.7149H12.7149H12.7149H12.7148C12.629 15.6014 12.5432 15.607 12.4572 15.6096C12.3942 15.6116 12.331 15.6064 12.2655 15.6011ZM6.75416 12.4082L6.75417 12.4082C6.76528 12.406 6.7715 12.4048 6.77712 12.402C7.23445 12.1771 7.71542 12.0152 8.20756 11.8908C8.61663 11.7877 9.03063 11.6997 9.44594 11.6249C9.78541 11.5638 10.1288 11.5192 10.4726 11.4903C10.9765 11.4482 11.4821 11.4128 11.9874 11.3997C12.8469 11.3777 13.7054 11.4036 14.559 11.5195C14.6723 11.5348 14.7859 11.5488 14.8995 11.5628C15.1616 11.5952 15.4238 11.6276 15.6831 11.6754C16.0801 11.749 16.4747 11.8402 16.8641 11.9469C17.0942 12.0101 17.3193 12.0928 17.5441 12.1755L17.5443 12.1755C17.6151 12.2015 17.6858 12.2275 17.7567 12.2529C17.844 12.2843 17.9295 12.3209 18.0215 12.3602L18.0216 12.3602L18.0217 12.3603L18.0218 12.3603L18.0218 12.3603L18.0218 12.3603L18.0218 12.3603L18.0219 12.3603L18.0219 12.3603L18.0219 12.3604L18.0219 12.3604L18.0219 12.3604C18.0654 12.379 18.1103 12.3982 18.1576 12.4177L17.372 11.081L16.2298 9.13761C16.1618 9.01877 16.0499 8.82408 15.9087 8.58474C15.7788 8.36443 15.6701 8.18522 15.6038 8.07587L15.6038 8.0758C15.5746 8.02761 15.5536 7.993 15.5426 7.97442C15.0792 7.18629 14.6169 6.3975 14.1545 5.60871L14.1542 5.60823L14.1539 5.60774L14.1536 5.60726L14.1533 5.60678L14.153 5.60629L14.1528 5.60581L14.1525 5.60533L14.1522 5.60484L14.1519 5.60436L13.8387 5.07031L13.8386 5.07015L13.8383 5.06955L13.8382 5.06952C13.4812 4.46096 13.1242 3.85236 12.7697 3.24218C12.6945 3.11283 12.6197 3.00481 12.4454 3.05209C12.4211 3.05898 12.3922 3.05833 12.3676 3.05143C12.2655 3.02353 12.2139 3.0777 12.167 3.15879C11.7585 3.86006 11.3491 4.56067 10.9378 5.26029C10.7565 5.56842 10.5743 5.87586 10.392 6.18331L10.3918 6.18361C10.2205 6.4726 10.0491 6.7616 9.87865 7.05121C9.59922 7.52562 9.32078 8.00045 9.04231 8.47533L9.04215 8.4756L9.04204 8.47578L9.04019 8.47895L9.03833 8.48213L9.03783 8.48297C8.89344 8.72921 8.74904 8.97545 8.60448 9.22166C8.35769 9.64169 8.11072 10.0615 7.8637 10.4815L7.58935 10.9479C7.38438 11.2964 7.17906 11.6449 6.96944 12.0007L6.96779 12.0035L6.7259 12.4141C6.73804 12.4113 6.74709 12.4096 6.75416 12.4082ZM8.47435 21.9488L8.47453 21.9487C8.49612 21.947 8.51778 21.9453 8.53928 21.9453L8.74579 21.945H8.74581H8.74582H8.74584H8.74585H8.74587H8.74589H8.7459C9.03849 21.9446 9.33103 21.9441 9.62336 21.9473C9.70806 21.9483 9.74975 21.9207 9.77536 21.8386C9.83586 21.6454 9.89875 21.4528 9.96166 21.2602L9.96173 21.26C10.008 21.1182 10.0544 20.9764 10.0997 20.8343C10.1109 20.7989 10.1156 20.7614 10.1203 20.7237L10.1203 20.7237C10.1223 20.7072 10.1244 20.6907 10.127 20.6744L10.1441 20.6713L10.1611 20.6682L10.181 20.7265C10.1973 20.774 10.2136 20.8217 10.2288 20.8695L10.2819 21.0392L10.2819 21.0395C10.3638 21.3009 10.4456 21.5625 10.5265 21.8245C10.5538 21.9128 10.6007 21.9502 10.7018 21.9479C10.9598 21.9423 11.2177 21.9431 11.4757 21.9438C11.5641 21.9441 11.6525 21.9443 11.7409 21.9443C11.7632 21.9443 11.7855 21.9462 11.8152 21.9488L11.8153 21.9488L11.8154 21.9488L11.8156 21.9488L11.8158 21.9488C11.8337 21.9504 11.8543 21.9521 11.8792 21.9539C11.8652 21.9687 11.8541 21.9815 11.8444 21.9925L11.8444 21.9925L11.8444 21.9925C11.8267 22.0127 11.814 22.0272 11.7987 22.0382L11.6467 22.1488L11.6466 22.1489L11.6465 22.1489L11.6465 22.149C11.4095 22.3215 11.1723 22.494 10.9317 22.6617C10.8502 22.7185 10.8338 22.7736 10.8653 22.8646C10.9722 23.1729 11.0751 23.4829 11.1779 23.7928L11.1779 23.7928L11.1779 23.7928L11.1779 23.7929L11.1779 23.7929L11.1779 23.7929L11.178 23.793L11.178 23.7931L11.2229 23.9283C11.2256 23.9364 11.224 23.9457 11.2219 23.9578C11.2207 23.9643 11.2194 23.9717 11.2186 23.9802C11.2102 23.978 11.2021 23.9765 11.1944 23.9751C11.1792 23.9724 11.1657 23.97 11.1559 23.9628L11.0107 23.8569L11.0105 23.8568C10.7564 23.6716 10.5023 23.4864 10.2514 23.2973C10.1775 23.2418 10.1247 23.2477 10.0544 23.2999C9.80862 23.4825 9.5603 23.6621 9.31213 23.8416L9.31201 23.8417L9.31184 23.8418L9.16372 23.949C9.15206 23.9575 9.13907 23.9641 9.11788 23.9748C9.10568 23.9809 9.09076 23.9885 9.0718 23.9986L9.11655 23.8534C9.15017 23.744 9.18035 23.6458 9.21199 23.5481L9.23739 23.4698C9.30536 23.2601 9.37341 23.0501 9.4464 22.8419C9.47365 22.7641 9.45362 22.7172 9.39026 22.6722C9.10097 22.4658 8.81299 22.2578 8.52501 22.0497L8.52495 22.0497L8.52489 22.0496L8.52483 22.0496L8.52471 22.0495L8.52453 22.0494L8.52424 22.0492L8.52383 22.0489L8.52319 22.0484C8.50192 22.033 8.48205 22.0159 8.46218 21.9988L8.46217 21.9988C8.45322 21.9911 8.44428 21.9834 8.43521 21.9758L8.44086 21.9622L8.44539 21.9509C8.45502 21.9503 8.46468 21.9495 8.47435 21.9488ZM14.8767 23.9023L15.0122 24C15.0153 23.9851 15.0185 23.9737 15.021 23.9646C15.0251 23.9495 15.0275 23.9408 15.025 23.9337L14.9567 23.7243L14.9567 23.7242L14.9567 23.7242L14.9566 23.7242L14.9566 23.7241L14.9566 23.7241L14.9566 23.724C14.8646 23.4418 14.7726 23.1594 14.6744 22.8792C14.6399 22.781 14.6445 22.7222 14.7378 22.6582C14.9619 22.5041 15.1818 22.3437 15.4018 22.1832L15.403 22.1823C15.4704 22.1332 15.5377 22.084 15.6052 22.0351C15.6188 22.0252 15.6301 22.0118 15.6457 21.9932C15.6545 21.9827 15.6646 21.9707 15.6774 21.9566C15.6553 21.9545 15.6367 21.9523 15.6201 21.9504L15.6201 21.9504C15.5921 21.9471 15.5701 21.9445 15.548 21.9445C15.4615 21.9444 15.3749 21.944 15.2883 21.9436H15.2883H15.2882H15.2881C15.0283 21.9423 14.7684 21.9411 14.5089 21.9487C14.394 21.952 14.353 21.9031 14.3244 21.8079C14.2496 21.5597 14.1711 21.3125 14.092 21.0656C14.0675 20.9888 14.0408 20.9127 14.0125 20.8323L14.0125 20.8322L14.0125 20.8321L14.0124 20.8321C13.9987 20.793 13.9846 20.7528 13.9702 20.711C13.9596 20.721 13.9503 20.7285 13.9426 20.7347C13.9299 20.7449 13.9215 20.7517 13.9186 20.7603L13.8682 20.9163L13.8681 20.9165L13.8681 20.9166C13.7699 21.2203 13.6716 21.5241 13.5788 21.8296C13.5529 21.9149 13.5142 21.9487 13.4232 21.9474C13.1283 21.9436 12.8334 21.9443 12.5385 21.945L12.3615 21.9454C12.3377 21.9454 12.314 21.9487 12.2816 21.9531L12.2816 21.9531L12.2816 21.9531C12.2634 21.9556 12.2427 21.9584 12.2177 21.9612C12.2378 21.9774 12.2546 21.9911 12.2693 22.0031C12.2972 22.0259 12.3174 22.0425 12.3385 22.0577L12.3395 22.0584L12.3399 22.0587C12.6251 22.2646 12.9102 22.4704 13.1964 22.6753C13.2551 22.7173 13.2752 22.7626 13.2492 22.8365C13.1762 23.0464 13.1079 23.2582 13.0397 23.4699L13.0397 23.4699L13.0397 23.47L13.0397 23.4701L13.0396 23.4701L13.0396 23.4702L13.0396 23.4702L13.0161 23.543C12.9847 23.6401 12.9546 23.7377 12.9216 23.8444L12.9216 23.8445L12.8746 23.9961C12.8932 23.9877 12.9071 23.982 12.9179 23.9775C12.9353 23.9703 12.9448 23.9663 12.9531 23.9603L13.0965 23.8558C13.3515 23.67 13.6067 23.4842 13.8602 23.2964C13.9216 23.2511 13.9748 23.2367 14.0404 23.2863C14.2207 23.4228 14.4029 23.5571 14.5851 23.6911C14.6798 23.7606 14.7753 23.8293 14.8765 23.9022L14.8767 23.9023ZM5.01125 20.4465H5.18459C5.25908 20.4466 5.3336 20.4465 5.40811 20.4464C5.59438 20.4463 5.78067 20.4461 5.96662 20.4484C6.02933 20.4491 6.0556 20.4287 6.07431 20.3673C6.14333 20.1402 6.21679 19.9144 6.29028 19.6885L6.34451 19.5216C6.34858 19.5088 6.35456 19.4967 6.36463 19.4763L6.36464 19.4763L6.36466 19.4763L6.36468 19.4762C6.37082 19.4638 6.37849 19.4483 6.38817 19.4277C6.39973 19.4556 6.41044 19.4803 6.4203 19.5031C6.43985 19.5483 6.45606 19.5857 6.46894 19.6244L6.48914 19.6849C6.56552 19.9136 6.64194 20.1424 6.71254 20.3726C6.73257 20.4376 6.76704 20.4491 6.82581 20.4484C7.03264 20.4467 7.23929 20.4466 7.44589 20.4466L7.65249 20.4465H7.77068C7.77659 20.4596 7.78217 20.4727 7.78775 20.4859L7.17267 20.9361L6.94859 21.1001C7.05694 21.4357 7.16298 21.7633 7.26902 22.091C7.26108 22.0968 7.25313 22.1028 7.24536 22.1087L7.2398 22.113C7.20903 22.0916 7.17811 22.0705 7.1472 22.0494L7.14672 22.049L7.14659 22.049L7.14651 22.0489L7.14646 22.0489L7.14642 22.0488C7.08198 22.0048 7.01757 21.9608 6.9545 21.915C6.78969 21.7951 6.62587 21.6737 6.4627 21.5509C6.41509 21.5151 6.37865 21.5115 6.32612 21.5509C6.14901 21.6838 5.96958 21.8132 5.79006 21.9427L5.79003 21.9428L5.79001 21.9428L5.78997 21.9428L5.78992 21.9428L5.78984 21.9429L5.62486 22.0621C5.61105 22.0719 5.5963 22.0806 5.57412 22.0936C5.55938 22.1023 5.54136 22.1129 5.51815 22.1271C5.52385 22.0994 5.52829 22.0751 5.5323 22.0533L5.5323 22.0533C5.54006 22.0109 5.54617 21.9776 5.55657 21.9455C5.63832 21.6921 5.72072 21.4386 5.80739 21.1865C5.83103 21.1178 5.81429 21.0804 5.75552 21.0391C5.58486 20.9186 5.41648 20.7952 5.24808 20.6718L5.24805 20.6717L5.24799 20.6717L5.24791 20.6716L5.24779 20.6716L5.24759 20.6714L5.24716 20.6711L5.24687 20.6709L5.24668 20.6707C5.18554 20.6259 5.12439 20.5811 5.06312 20.5364C5.04874 20.5257 5.03521 20.514 5.0216 20.5022H5.0216L5.0216 20.5022L5.02153 20.5021L5.02148 20.5021L5.02145 20.5021L5.02143 20.5021L5.02141 20.502C5.01426 20.4959 5.00708 20.4896 4.99976 20.4836L5.01125 20.4465ZM18.5227 22.4861L18.5954 22.5381L18.6289 22.5168C18.5619 22.3095 18.4951 22.1021 18.428 21.8938L18.3091 21.525C18.5881 21.3204 18.8642 21.1178 19.1402 20.9152L19.1482 20.9094C19.1413 20.8969 19.1344 20.8841 19.1279 20.8716H19.0186L18.7822 20.8717H18.7816C18.5849 20.8717 18.3884 20.8716 18.1919 20.8733C18.1295 20.8739 18.0914 20.8631 18.0707 20.7925C18.0298 20.6507 17.9825 20.5108 17.9351 20.3709L17.8961 20.2551C17.8685 20.1723 17.8401 20.0901 17.8117 20.0077L17.767 19.8782C17.726 19.9034 17.7129 19.9212 17.7066 19.9412L17.6485 20.1198C17.5761 20.3416 17.5037 20.5636 17.4364 20.7869C17.4164 20.8536 17.3878 20.8742 17.3212 20.8733C17.0637 20.8705 16.8059 20.8712 16.5481 20.8718L16.4834 20.8719C16.4593 20.8719 16.4351 20.8738 16.402 20.8763L16.4018 20.8763C16.3826 20.8778 16.3603 20.8795 16.3333 20.8811C16.3513 20.897 16.365 20.9097 16.3764 20.9201C16.3943 20.9366 16.4063 20.9477 16.4193 20.9573L16.5624 21.0624C16.7474 21.1985 16.9325 21.3346 17.1199 21.4672C17.1754 21.5062 17.1909 21.5424 17.1692 21.606C17.0835 21.8585 17.0004 22.1116 16.9187 22.3651C16.9076 22.3989 16.9005 22.4339 16.8934 22.4691C16.8901 22.4857 16.8867 22.5025 16.8829 22.5191C16.9358 22.5168 16.964 22.5023 16.9896 22.4836C17.0532 22.4375 17.1167 22.3912 17.1802 22.3448C17.3504 22.2207 17.5206 22.0965 17.6932 21.976C17.7217 21.956 17.7877 21.9557 17.8166 21.9751C17.9256 22.0489 18.0313 22.1273 18.1371 22.2058L18.1371 22.2059L18.1371 22.2059L18.1372 22.2059L18.1373 22.206C18.1834 22.2402 18.2295 22.2744 18.2759 22.3083C18.3575 22.3678 18.4398 22.4267 18.5221 22.4857L18.5223 22.4858L18.5224 22.4859L18.5227 22.4861ZM11.9972 19.9926C11.5605 20.0405 11.1843 19.6183 11.1797 19.2046C11.1747 18.7732 11.5582 18.3796 11.9945 18.3888C12.4785 18.3986 12.7989 18.7663 12.8061 19.1859C12.8137 19.6098 12.4637 20.0257 11.9972 19.9926ZM8.20497 19.1243C8.64588 19.1492 9.04937 18.7661 9.03591 18.3367C9.06086 17.8324 8.60386 17.5031 8.2378 17.511C7.79589 17.5205 7.43114 17.8652 7.42458 18.3039C7.41801 18.7546 7.76273 19.099 8.20497 19.1243ZM14.9795 18.32C14.9453 17.8847 15.3531 17.5088 15.7674 17.512C16.2234 17.516 16.577 17.8686 16.5872 18.321C16.5967 18.7409 16.2067 19.1257 15.7773 19.129C15.3715 19.1319 14.9365 18.7422 14.9795 18.32ZM13.2841 1.52408C13.2936 1.05558 12.8987 0.681308 12.4397 0.681637C11.9758 0.680652 11.589 1.06707 11.5976 1.52605C11.6064 2.00209 11.9416 2.36455 12.4423 2.36783C12.9026 2.37078 13.2733 2.04051 13.2841 1.52408Z" fill="#0C1E3C"/>
</svg>
