<svg width="24" height="24" viewBox="0 0 24 24" fill="none" xmlns="http://www.w3.org/2000/svg">
<path fill-rule="evenodd" clip-rule="evenodd" d="M20.2604 2.04427L21.25 1.83594V16.1849C21.25 18.0176 19.7493 19.5182 17.9167 19.5182C16.084 19.5182 14.5833 18.0176 14.5833 16.1849C14.5833 14.3522 16.084 12.8516 17.9167 12.8516C18.5286 12.8516 19.0885 13.0306 19.5833 13.3203V7.17448L7.91667 9.36198V18.6849C7.91667 20.5176 6.41602 22.0182 4.58333 22.0182C2.75065 22.0182 1.25 20.5176 1.25 18.6849C1.25 16.8522 2.75065 15.3516 4.58333 15.3516C5.19531 15.3516 5.75521 15.5306 6.25 15.8203V4.64844L6.92708 4.54427L20.2604 2.04427ZM19.5833 5.50781V3.84115L7.91667 6.02865V7.69531L19.5833 5.50781ZM17.9167 14.5182C18.8477 14.5182 19.5833 15.2539 19.5833 16.1849C19.5833 17.1159 18.8477 17.8516 17.9167 17.8516C16.9857 17.8516 16.25 17.1159 16.25 16.1849C16.25 15.2539 16.9857 14.5182 17.9167 14.5182ZM6.25 18.6849C6.25 17.7539 5.51432 17.0182 4.58333 17.0182C3.65234 17.0182 2.91667 17.7539 2.91667 18.6849C2.91667 19.6159 3.65234 20.3516 4.58333 20.3516C5.51432 20.3516 6.25 19.6159 6.25 18.6849Z" fill="#0C1E3C"/>
</svg>
