<svg width="24" height="24" viewBox="0 0 24 24" fill="none" xmlns="http://www.w3.org/2000/svg">
<path fill-rule="evenodd" clip-rule="evenodd" d="M19.9144 8.53886V9.20614L19.9145 10.2223V10.2224C19.9147 11.2392 19.9148 12.2559 19.9135 13.2721C19.9135 13.4028 19.9091 13.536 19.882 13.6623C19.8118 13.9841 19.6189 14.1577 19.2892 14.1735C19.0004 14.1881 18.7112 14.1907 18.4218 14.1934H18.4217H18.4217C18.3104 14.1945 18.1992 14.1955 18.0879 14.1972C18.0246 14.1985 17.9613 14.1983 17.8863 14.1982L17.8012 14.1981V14.4497C17.8012 14.732 17.8014 15.0142 17.8017 15.2964C17.8022 15.9546 17.8028 16.6126 17.8003 17.2705C17.7951 18.6744 16.9182 19.8713 15.6012 20.2492C15.325 20.3281 15.0277 20.3711 14.7401 20.372C11.1371 20.3807 7.53501 20.3816 3.93202 20.379C2.2511 20.3772 0.870933 18.9874 0.870933 17.3091C0.870057 14.0157 0.870057 10.7213 0.870057 7.42701V7.14729C0.837638 7.14412 0.80706 7.14095 0.777584 7.13789L0.7774 7.13787L0.777358 7.13787C0.733568 7.13333 0.692206 7.12904 0.650844 7.12537C0.274674 7.09293 0.00284977 6.80707 0.00197292 6.43353C-0.000657639 5.51459 -0.000657639 4.59653 0.00197292 3.67846C0.00284977 3.33298 0.236092 3.06818 0.578065 3.01819C0.678026 3.00329 0.781494 3.00066 0.883209 3.00066C6.50559 2.99978 12.1288 2.99978 17.7512 3.00066C17.8678 3.00066 17.9862 3.00241 18.1002 3.02083C18.3606 3.06467 18.5448 3.20584 18.5974 3.47416C18.6254 3.61621 18.6395 3.76264 18.6403 3.90732C18.6415 4.4122 18.6396 4.91746 18.6376 5.4226V5.42328V5.42352C18.6366 5.67607 18.6357 5.92858 18.6351 6.181C18.6333 6.77638 18.4281 7.02892 17.8301 7.14905V12.8065H18.5579V12.561V7.9917C18.5579 7.40509 18.7929 7.16921 19.3787 7.16483L19.5172 7.16381C19.7481 7.16198 19.979 7.16015 20.2099 7.16746C20.3423 7.17097 20.4177 7.13326 20.4817 7.00875C20.8649 6.26606 21.5769 5.88638 22.3705 5.98809C23.1561 6.08805 23.7533 6.63083 23.9479 7.41999C24.1636 8.29334 23.6928 9.21228 22.8492 9.5639C22.025 9.90675 21.035 9.5902 20.5694 8.83348C20.3598 8.49414 20.3598 8.49414 19.9144 8.53886ZM1.40055 5.74433H17.2418V4.36329H1.40055V5.74433ZM22.1618 7.3402C21.8768 7.32968 21.6506 7.53398 21.6392 7.81107C21.6269 8.08728 21.8584 8.33893 22.1311 8.34419C22.3906 8.35033 22.6327 8.1206 22.6493 7.85316C22.6651 7.59273 22.4336 7.34984 22.1618 7.3402ZM2.22392 7.14817H16.4465V7.42701V17.1758C16.4465 18.2965 15.7178 19.0286 14.6024 19.0286H4.03725C2.94732 19.0286 2.22918 18.3114 2.22918 17.2232L2.22392 7.45244V7.14817ZM10.7859 12.8648C10.4124 13.4067 10.23 13.9959 10.202 14.6632C9.58465 14.4817 9.01031 14.4703 8.40178 14.665C8.32812 14.0231 8.16941 13.4251 7.80815 12.8683C8.38512 12.6184 8.88755 12.2826 9.29178 11.795C9.70566 12.2747 10.1879 12.6289 10.7859 12.8648ZM10.5732 16.1131C10.6187 16.1203 10.6605 16.1268 10.6965 16.1337C11.1279 16.1407 11.3804 15.9347 11.4541 15.5453C11.4894 15.3579 11.5105 15.1669 11.5315 14.9767C11.5361 14.9356 11.5406 14.8945 11.5453 14.8535C11.5935 14.423 11.6751 14.0056 11.9048 13.6268C12.0175 13.4405 12.1204 13.248 12.2233 13.0553C12.2541 12.9976 12.2849 12.9399 12.316 12.8823C12.5344 12.4799 12.2959 12.0616 11.9925 11.9239C11.8985 11.8812 11.8056 11.8358 11.7127 11.7905C11.5637 11.7177 11.4146 11.645 11.2612 11.5828C10.8877 11.4312 10.5799 11.1997 10.3186 10.8954C10.1432 10.6911 9.95468 10.4973 9.76265 10.3088C9.44874 9.99925 9.13746 10.0019 8.82617 10.3079C8.81658 10.3174 8.80695 10.3269 8.7973 10.3364C8.72934 10.4033 8.66061 10.4709 8.59995 10.5447C8.15538 11.0909 7.61963 11.5127 6.95234 11.7582C6.87584 11.7863 6.80323 11.8232 6.73053 11.8602C6.70574 11.8728 6.68094 11.8854 6.65597 11.8976C6.1886 12.1239 6.06409 12.4737 6.29646 12.9393C6.37692 13.1003 6.46568 13.2573 6.55447 13.4145C6.61275 13.5176 6.67104 13.6207 6.72699 13.725C6.91551 14.0757 7.03126 14.4466 7.04003 14.8491C7.0424 14.9726 7.06264 15.0968 7.08269 15.2198C7.08485 15.2331 7.087 15.2463 7.08913 15.2595C7.22417 16.0855 7.45741 16.2495 8.27814 16.0592C8.92701 15.9084 9.56975 15.8593 10.2204 16.0425C10.3422 16.0768 10.4678 16.0965 10.5732 16.1131Z" fill="#0C1E3C"/>
</svg>
