<svg width="24" height="24" viewBox="0 0 24 24" fill="none" xmlns="http://www.w3.org/2000/svg">
<path fill-rule="evenodd" clip-rule="evenodd" d="M9.59988 4.61679L21.5997 2.61682V12.6423C20.8937 12.2339 20.074 12.0001 19.1998 12.0001C16.5488 12.0001 14.3998 14.1492 14.3998 16.8001C14.3998 19.451 16.5488 21.6 19.1998 21.6C21.8507 21.6 23.9997 19.451 23.9997 16.8001V1.20028C23.9997 0.458764 23.3339 -0.105281 22.6024 0.016624L8.20262 2.41659C7.624 2.51303 7.19991 3.01365 7.19991 3.60025V15.0423C6.4939 14.6339 5.67422 14.4001 4.79994 14.4001C2.14901 14.4001 0 16.5491 0 19.2001C0 21.851 2.14901 24 4.79994 24C7.45087 24 9.59988 21.851 9.59988 19.2001V4.61679ZM21.5997 16.8001C21.5997 15.4746 20.5252 14.4001 19.1998 14.4001C17.8743 14.4001 16.7998 15.4746 16.7998 16.8001C16.7998 18.1256 17.8743 19.2001 19.1998 19.2001C20.5252 19.2001 21.5997 18.1256 21.5997 16.8001ZM4.79994 16.8001C6.1249 16.8001 7.19908 17.8738 7.19991 19.1985V19.2001C7.19991 20.5255 6.12541 21.6 4.79994 21.6C3.47447 21.6 2.39997 20.5255 2.39997 19.2001C2.39997 17.8746 3.47447 16.8001 4.79994 16.8001Z" fill="#999999"/>
</svg>
