<svg width="24" height="24" viewBox="0 0 24 24" fill="none" xmlns="http://www.w3.org/2000/svg">
<path fill-rule="evenodd" clip-rule="evenodd" d="M22.9437 3.93318C22.9388 5.54759 21.6265 6.83943 19.9994 6.83164C18.3963 6.82394 17.1062 5.51388 17.1109 3.89846C17.1156 2.28422 18.4282 0.992164 20.0552 1.00004C21.6584 1.00779 22.9486 2.31797 22.9437 3.93318ZM21.6759 3.91345C21.6743 3.01882 20.931 2.27304 20.0355 2.26754C19.134 2.26199 18.3771 3.0162 18.3787 3.91823C18.3804 4.81286 19.1236 5.5586 20.0191 5.5641C20.9206 5.56965 21.6775 4.81553 21.6759 3.91345ZM3.22957 22.8853C3.30427 22.9028 3.37896 22.9203 3.45342 22.9386H3.96078C3.99029 22.9308 4.01967 22.9221 4.04904 22.9134C4.11274 22.8946 4.17643 22.8758 4.24146 22.8656C4.7578 22.7844 5.22477 22.5869 5.65527 22.2926C5.70452 22.259 5.80014 22.254 5.85688 22.2775C5.93872 22.3115 6.01764 22.3529 6.09649 22.3943L6.09651 22.3943L6.09653 22.3943L6.09655 22.3943L6.09658 22.3943C6.19234 22.4445 6.288 22.4947 6.38868 22.5315C6.67208 22.635 6.95896 22.7289 7.24583 22.8229L7.24593 22.8229L7.24603 22.823L7.24612 22.823L7.24622 22.823C7.36319 22.8613 7.48016 22.8997 7.59689 22.9386H8.10425C8.69061 22.8534 9.21118 22.5958 9.73207 22.3381L9.73247 22.3379L9.73288 22.3377L9.73289 22.3377C9.7826 22.3131 9.83231 22.2885 9.88208 22.2641C9.91782 22.2465 9.98418 22.2476 10.0148 22.2698C10.5112 22.6277 11.0722 22.8151 11.6698 22.9097C11.6771 22.9109 11.6832 22.9193 11.6894 22.9276L11.6927 22.9322C11.6945 22.9345 11.6962 22.9367 11.6981 22.9386H12.29C12.3364 22.9269 12.3827 22.9149 12.429 22.903C12.5298 22.8769 12.6306 22.8508 12.7321 22.8277C13.1694 22.7286 13.5683 22.5465 13.9403 22.2966C13.9987 22.2573 14.1215 22.2405 14.1726 22.2752C14.6772 22.6166 15.2237 22.8366 15.8325 22.8964C15.8545 22.8986 15.8755 22.9107 15.8965 22.9227L15.8965 22.9227C15.9064 22.9284 15.9162 22.934 15.9261 22.9386H16.4335C16.5152 22.9159 16.5979 22.8953 16.6805 22.8746C16.8675 22.828 17.0544 22.7813 17.2316 22.7103C17.4108 22.6384 17.5828 22.5485 17.7549 22.4587L17.7549 22.4587L17.7549 22.4587L17.755 22.4586L17.755 22.4586C17.8678 22.3997 17.9807 22.3408 18.0956 22.2868C18.1579 22.2576 18.2638 22.241 18.3116 22.2738C18.8123 22.618 19.3575 22.8354 19.9637 22.8961C19.979 22.8976 19.9932 22.91 20.0074 22.9224C20.014 22.9282 20.0206 22.9339 20.0273 22.9386H20.5347C20.5638 22.9302 20.5928 22.9207 20.6218 22.9111C20.6847 22.8904 20.7476 22.8697 20.8122 22.8606C21.2436 22.8003 21.6565 22.6722 22.0106 22.4238C22.3129 22.2118 22.597 21.9639 22.8505 21.6953C23.047 21.4872 23.0325 21.1812 22.8885 20.9692C22.7391 20.7492 22.4718 20.6236 22.2267 20.7144C22.0556 20.7777 21.8974 20.8993 21.7593 21.0235C21.2986 21.4378 20.7743 21.6711 20.1471 21.6308C19.5856 21.5948 19.1325 21.333 18.7354 20.9481C18.3609 20.5852 18.0731 20.5905 17.6899 20.9472C17.6741 20.962 17.6585 20.9771 17.643 20.9922L17.6429 20.9924C17.618 21.0165 17.5932 21.0407 17.5671 21.0634C17.025 21.5356 16.407 21.7445 15.6917 21.5846C15.2456 21.4848 14.8869 21.2307 14.5603 20.9192C14.2223 20.5968 13.9237 20.6026 13.577 20.919C13.5561 20.9381 13.5358 20.9577 13.5154 20.9774C13.4901 21.0017 13.4648 21.0261 13.4385 21.0494C12.8943 21.5315 12.2716 21.746 11.5476 21.5843C11.0938 21.483 10.7321 21.2204 10.3999 20.9051C10.0964 20.617 9.80073 20.6146 9.47715 20.8793C9.42283 20.9237 9.37028 20.9703 9.31774 21.0169L9.31768 21.017L9.31766 21.017L9.31765 21.017L9.31764 21.017L9.31763 21.017C9.27007 21.0592 9.2225 21.1014 9.17361 21.142C8.3865 21.7957 7.35721 21.8068 6.55498 21.1683C6.48795 21.1149 6.42479 21.0567 6.36162 20.9985L6.3616 20.9985C6.31598 20.9565 6.27034 20.9144 6.22323 20.8741C5.90969 20.6061 5.59797 20.6168 5.3051 20.9034C5.28782 20.9203 5.27092 20.9376 5.25403 20.9549C5.23155 20.9779 5.20908 21.001 5.18568 21.023C4.61412 21.5622 3.94571 21.7429 3.18075 21.5614C2.75541 21.4605 2.4193 21.2195 2.1158 20.9114C1.73467 20.5244 1.17268 20.6572 1.02637 21.1565C0.953323 21.4059 1.04454 21.6122 1.20969 21.7941C1.63105 22.2583 2.13896 22.588 2.74237 22.7623C2.90316 22.8088 3.06632 22.847 3.22948 22.8853L3.22957 22.8853ZM13.7401 8.33884C13.3472 7.93573 12.9013 7.59518 12.3975 7.34118C12.0566 7.1693 11.6986 7.02971 11.3421 6.89072L11.3421 6.89071L11.2931 6.87159C10.8954 6.71647 10.7101 6.381 10.846 6.02646C10.9599 5.72953 11.2441 5.5595 11.5551 5.63564C12.3015 5.81833 12.9907 6.14351 13.609 6.59142C14.013 6.88407 14.3829 7.22592 14.7507 7.5659L14.7507 7.56593L14.8401 7.64853C14.964 7.76275 15.0586 7.79565 15.2209 7.75322C17.0926 7.26406 18.8506 7.5292 20.4238 8.66373C22.0957 9.8694 22.9389 11.5422 22.9996 13.6034C23.0113 14.0023 22.7757 14.2675 22.412 14.2974C22.0741 14.325 21.7978 14.0885 21.7426 13.702C21.7212 13.5523 21.7077 13.401 21.6943 13.2498L21.6943 13.2497L21.6942 13.2497L21.6942 13.2496C21.6733 13.0151 21.6524 12.7809 21.6021 12.5529C21.1211 10.3732 19.1515 8.80855 16.9197 8.80195C15.4398 8.79759 14.2035 9.32807 13.2234 10.4421C13.1844 10.4865 13.1478 10.533 13.1051 10.5873L13.105 10.5873L13.105 10.5874L13.1049 10.5875C13.0827 10.6157 13.0588 10.6461 13.032 10.6793C13.8861 10.4881 14.6597 10.5938 15.3855 11.0231C16.4615 11.6595 17.0581 12.9497 16.8327 14.1632C16.5824 15.5105 15.6293 16.4802 14.3283 16.6796C13.9616 16.7358 13.585 16.7427 13.2128 16.7449C12.3868 16.7497 11.5609 16.7463 10.7349 16.7428H10.7346C10.5037 16.7418 10.2729 16.7409 10.042 16.7401C9.95065 16.7398 9.8585 16.7339 9.76822 16.7205C9.46687 16.6758 9.26437 16.4624 9.24362 16.1741C9.2191 15.8334 9.37841 15.5881 9.69606 15.5065C9.82365 15.4738 9.96013 15.4639 10.0926 15.4635C10.604 15.462 11.1154 15.4622 11.6269 15.4624C12.3415 15.4627 13.0561 15.463 13.7708 15.4587C14.7915 15.4525 15.5292 14.7528 15.606 13.7357C15.6724 12.8565 14.927 11.974 14.0269 11.8659C13.102 11.7548 12.1764 12.4231 12.0323 13.308C12.0217 13.373 12.0147 13.4389 12.0077 13.5047L12.0077 13.5048C11.9968 13.6071 11.9859 13.7093 11.9615 13.8082C11.8794 14.1419 11.6109 14.3251 11.2916 14.2854C10.9532 14.2434 10.7293 14.0046 10.7275 13.6588C10.7204 12.3114 11.1336 11.0966 11.9286 10.017C12.1691 9.69035 12.4538 9.38973 12.7523 9.11401C12.9583 8.92381 13.1844 8.75556 13.4195 8.5807L13.4195 8.58068C13.525 8.50225 13.6322 8.4225 13.7401 8.33884ZM4.96405 9.13871L4.96403 9.13872L4.96401 9.13872C4.8681 9.15948 4.77116 9.18046 4.67247 9.19964C4.68241 9.18362 4.69176 9.16788 4.7009 9.15246C4.72019 9.11995 4.73859 9.08892 4.75988 9.06002C5.13025 8.55727 5.56596 8.12 6.07065 7.75132C6.59826 7.36596 7.17702 7.08295 7.79614 6.87914C8.00334 6.81091 8.18721 6.7114 8.26763 6.49195C8.35686 6.2485 8.33602 6.01521 8.15054 5.82397C7.93567 5.60249 7.67214 5.57823 7.38998 5.67596C4.7999 6.57318 3.15525 8.34444 2.50459 11.0092C2.39067 11.4758 2.36081 11.9665 2.33141 12.4496L2.32741 12.5153C2.30391 12.8993 2.57044 13.1774 2.92306 13.2108C3.2485 13.2416 3.50606 13.0183 3.5819 12.6321C3.59686 12.556 3.60733 12.479 3.61781 12.402C3.62914 12.3187 3.64046 12.2355 3.65745 12.1534C3.85102 11.2173 4.4059 10.6061 5.33275 10.3689C6.24326 10.1359 7.028 10.3918 7.63056 11.1064C8.24489 11.8349 8.35952 12.6646 7.95515 13.5322C7.54277 14.4169 6.81114 14.8506 5.84837 14.8627C4.78607 14.876 3.72353 14.8725 2.66103 14.869H2.66101H2.661C2.34942 14.8679 2.03785 14.8669 1.72629 14.8663C1.49562 14.8658 1.2902 14.9163 1.14461 15.1051C0.985126 15.312 0.953704 15.5428 1.06961 15.7798C1.19076 16.0274 1.40563 16.1297 1.67318 16.1298C3.09516 16.1301 4.5171 16.1294 5.93904 16.1287L5.94319 16.1287L6.11245 16.1286C6.15467 16.1285 6.19719 16.1275 6.23907 16.1228C8.31273 15.8876 9.72607 14.0374 9.40919 11.9731C9.13461 10.1847 7.37046 8.82694 5.57062 9.02856C5.36845 9.05119 5.16859 9.09444 4.96405 9.13871ZM18.2847 19.0628C18.1288 19.1273 17.9789 19.195 17.832 19.2614C17.5172 19.4038 17.2164 19.5397 16.9016 19.623C15.9445 19.876 15.0463 19.6643 14.2263 19.1239C14.1072 19.0455 14.0347 19.0418 13.9125 19.1197C12.6394 19.9308 11.3595 19.9333 10.0862 19.1199C9.96494 19.0424 9.89227 19.047 9.77209 19.123C8.49849 19.9282 7.2171 19.9344 5.94516 19.1218C5.80309 19.0311 5.72186 19.0493 5.59758 19.1336C4.20871 20.075 2.3907 19.868 1.25173 18.6443C0.842483 18.2046 0.959023 17.6652 1.49624 17.5144C1.7712 17.4372 1.97345 17.5626 2.15068 17.753C2.5263 18.1566 2.98424 18.3831 3.53713 18.434C4.11034 18.4868 4.60542 18.319 5.04244 17.9565C5.08914 17.9177 5.13472 17.8775 5.18028 17.8372L5.18032 17.8372C5.26687 17.7607 5.35338 17.6843 5.44741 17.6185C5.69696 17.4439 5.90413 17.4511 6.14724 17.634C6.22449 17.6921 6.29559 17.7584 6.36668 17.8247L6.36672 17.8247C6.39882 17.8546 6.43091 17.8846 6.46358 17.9137C7.25446 18.6201 8.42053 18.6278 9.22208 17.9311C9.26339 17.8952 9.30341 17.8578 9.34344 17.8204L9.34345 17.8204L9.34349 17.8203C9.39614 17.7711 9.44878 17.7219 9.50432 17.6762C9.80143 17.4316 10.0422 17.4304 10.3396 17.6713C10.3989 17.7193 10.4549 17.7714 10.511 17.8234C10.5376 17.8481 10.5642 17.8728 10.5911 17.8971C11.4051 18.6302 12.5774 18.6336 13.3973 17.9057C13.4261 17.8802 13.4545 17.8541 13.483 17.828C13.5637 17.754 13.6446 17.6799 13.7335 17.6174C13.976 17.4467 14.175 17.4489 14.4159 17.6207C14.5061 17.6851 14.5884 17.7608 14.6704 17.8363L14.7202 17.8819C15.5473 18.6357 16.7302 18.6408 17.5569 17.8931C18.1521 17.3548 18.2867 17.355 18.8781 17.8943C19.692 18.6367 20.8727 18.6364 21.6976 17.8932C21.7395 17.8555 21.7798 17.8159 21.8201 17.7763C21.8401 17.7565 21.8601 17.7369 21.8804 17.7174C22.1906 17.4186 22.4744 17.4176 22.7863 17.7139C23.0715 17.9848 23.0685 18.2855 22.7871 18.6034C21.7051 19.8259 19.7577 20.1593 18.2847 19.0628ZM9.57233 5.34322C9.22457 5.33696 8.94055 5.61433 8.93466 5.96603C8.92878 6.31776 9.20518 6.60547 9.55315 6.60979C9.89366 6.61398 10.1938 6.3245 10.2 5.98584C10.2062 5.65185 9.91068 5.34928 9.57233 5.34322Z" fill="#0C1E3C"/>
</svg>
