<svg width="24" height="24" viewBox="0 0 24 24" fill="none" xmlns="http://www.w3.org/2000/svg">
<path fill-rule="evenodd" clip-rule="evenodd" d="M12.4556 0.047286C12.6052 0.113504 12.7424 0.400328 12.7424 0.400328C13.2984 1.3538 14.1726 2.38701 15.2054 3.42021C15.2602 3.47979 15.3151 3.53937 15.37 3.59897C17.1455 5.52655 18.9356 7.46984 18.7817 9.93671C18.6227 11.526 17.5895 13.0359 15.5231 14.4665L15.5218 14.4671C15.3636 14.5463 15.205 14.6256 15.0467 14.6256C14.808 14.6256 14.5696 14.5459 14.4105 14.3075C14.0928 13.9101 14.1722 13.4333 14.5696 13.195C16.1588 12.0031 17.1127 10.8902 17.192 9.77766C17.4128 8.15864 15.9298 6.53961 14.4468 4.92059C14.3284 4.7913 14.21 4.66202 14.0924 4.53273C13.8929 4.2929 13.6932 4.07332 13.4935 3.85368C13.2959 3.63634 13.0983 3.41895 12.9006 3.18184V19.4731C12.9006 22.0162 10.9139 24.0029 8.4505 24.0029C5.98668 24.0029 4 21.9369 4 19.4731C4 16.9304 5.98668 14.9433 8.4509 14.9433C9.56343 14.9433 10.5169 15.3407 11.3117 15.9765V0.47965C11.3117 0.443403 11.4024 0.0143136 11.8505 0.00291157C11.8505 0.00291157 12.3103 -0.0170091 12.4556 0.047286ZM5.50994 19.3938C5.50994 21.0628 6.78151 22.3339 8.37077 22.3339V22.3343C9.96044 22.3343 11.232 21.0628 11.232 19.3938C11.232 17.7248 9.96044 16.4532 8.37077 16.4532C6.78151 16.4532 5.50994 17.7248 5.50994 19.3938Z" fill="#0C1E3C"/>
</svg>
