<svg width="24" height="24" viewBox="0 0 24 24" fill="none" xmlns="http://www.w3.org/2000/svg">
<path fill-rule="evenodd" clip-rule="evenodd" d="M12.5401 0C12.5482 0.00131014 12.5564 0.00283864 12.5646 0.00436714L12.5646 0.00436794C12.581 0.00742453 12.5974 0.0104809 12.6138 0.0117909C14.0277 0.0825364 15.3345 0.500131 16.5352 1.24492C17.8833 2.0811 18.916 3.21007 19.6284 4.62891C19.9546 5.27741 20.1865 5.95932 20.3309 6.67071L20.3486 6.75787L20.3487 6.75809C20.3841 6.93235 20.4196 7.10662 20.4508 7.28089C20.5038 7.57271 20.5166 7.86748 20.5146 8.16324C20.5137 8.37547 20.5107 8.58869 20.496 8.79995C20.4685 9.19003 20.3997 9.57422 20.3063 9.95349C20.0243 11.1031 19.5242 12.1535 18.8482 13.1223C18.5682 13.5222 18.2645 13.9044 17.9167 14.2483C17.562 14.6001 17.1641 14.8988 16.7416 15.1641C16.039 15.6062 15.2824 15.9256 14.4856 16.1535C14.1544 16.2479 13.8204 16.3314 13.4794 16.3864C13.2957 16.4169 13.109 16.4395 12.9223 16.4532C12.65 16.4739 12.3778 16.4905 12.1056 16.5071H12.1055H12.1055H12.1055H12.1054C12.0033 16.5133 11.9013 16.5195 11.7992 16.5259L11.7901 16.5265C11.7419 16.5292 11.6928 16.5321 11.642 16.5358V21.1126C11.6931 21.1283 12.6806 21.1352 12.8437 21.1205L12.8461 21.1183C12.8472 21.1175 12.848 21.1167 12.8486 21.1156C12.8506 21.1136 12.8525 21.1116 12.8525 21.1097L12.8525 21.1096C12.8535 21.1047 12.8545 21.0998 12.8545 21.0949C12.8555 21.09 12.8555 21.0841 12.8555 21.0792V21.0566V17.4545L12.8558 17.4489L12.856 17.4466C12.8562 17.4439 12.8564 17.4412 12.8564 17.4388C12.8564 17.4368 12.8564 17.4338 12.8574 17.4319C12.8584 17.4299 12.8594 17.427 12.8604 17.425C12.9134 17.4093 13.558 17.4053 13.6484 17.422V21.1332C13.6789 21.1362 13.7024 21.1382 13.727 21.1401C13.7876 21.145 13.8482 21.1492 13.9088 21.1533L13.9089 21.1533C14.03 21.1616 14.1512 21.1699 14.2723 21.1843C14.7135 21.2354 15.0957 21.4172 15.4161 21.7247C15.7845 22.0785 15.9948 22.5108 16.038 23.0208C16.0528 23.2016 16.0538 23.3853 16.0498 23.5671C16.0469 23.7233 15.984 23.8579 15.8641 23.9631C15.8356 23.9876 15.8071 24.0024 15.7698 23.9984C15.755 23.9974 15.7393 23.9984 15.7246 23.9984L14.3303 23.9983C12.4713 23.9982 10.6122 23.998 8.75321 24.0004C8.67559 24.0004 8.62253 23.9768 8.5734 23.9188C8.46434 23.7891 8.40833 23.6408 8.3985 23.4737C8.39162 23.345 8.40833 23.2192 8.42798 23.0925L8.43369 23.0556C8.46305 22.8655 8.49234 22.6759 8.56063 22.4941C8.82789 21.7857 9.33883 21.3622 10.0728 21.2001C10.2742 21.1549 10.4786 21.1519 10.684 21.1539H10.7881C10.8038 21.0949 10.8117 16.5869 10.796 16.3962C10.7461 16.3831 10.6957 16.3694 10.6449 16.3557C10.6006 16.3436 10.5559 16.3315 10.511 16.3196C10.4555 16.3049 10.3998 16.2904 10.3441 16.276L10.3441 16.276L10.3441 16.276L10.3441 16.276L10.344 16.276L10.344 16.276C10.0573 16.2014 9.7702 16.1269 9.49211 16.0199C8.56554 15.6632 7.70087 15.1945 6.92562 14.5686C5.83398 13.6863 5.0489 12.5838 4.55761 11.2701C4.34734 10.7061 4.19603 10.1264 4.10465 9.53197C4.0797 9.36747 4.06077 9.20252 4.04183 9.03742C4.03316 8.96188 4.02449 8.88632 4.01523 8.81076C4.01296 8.79178 4.00833 8.77339 4.00363 8.75468L3.99951 8.73805V8.10723C4.00223 8.09039 4.00525 8.07347 4.00827 8.0565C4.01619 8.01208 4.02418 7.96729 4.02702 7.92251C4.05159 7.54323 4.10661 7.16691 4.1862 6.79549C4.35226 6.02122 4.61657 5.28233 4.97619 4.57684C5.55689 3.43803 6.33215 2.45546 7.34223 1.66645C8.64218 0.6485 10.121 0.10317 11.7687 0.0127735C11.7888 0.0115546 11.8086 0.00844562 11.8284 0.00532231L11.8284 0.00532218L11.8284 0.00532174C11.8405 0.00340972 11.8527 0.00149236 11.865 0H12.5401ZM19.6274 7.3084C19.6647 7.61398 19.6834 7.92153 19.6853 8.33421C19.6696 9.8739 19.2019 11.3733 18.2164 12.6968C17.1808 14.0872 15.816 15.001 14.1417 15.451C13.8154 15.5385 13.4843 15.6013 13.1502 15.6416C12.77 15.6888 12.3878 15.7065 12.0046 15.6937C10.2988 15.6357 8.78957 15.0521 7.47783 13.9673C6.38226 13.0614 5.60406 11.9314 5.15011 10.5814C4.99683 10.1225 4.89366 9.65282 4.83667 9.17136C4.78459 8.72036 4.77673 8.26936 4.80719 7.81639C4.87204 6.82104 5.11474 5.87187 5.55984 4.97969C6.47069 3.15308 7.88363 1.8836 9.81046 1.19481C10.2389 1.04153 10.681 0.937377 11.132 0.872527C11.6204 0.802764 12.1107 0.780165 12.6049 0.806695C13.5786 0.857789 14.5082 1.08673 15.3915 1.49941C17.2594 2.37292 18.6772 3.96568 19.3149 5.90626C19.4653 6.36316 19.5694 6.83087 19.6274 7.3084ZM15.239 23.1628C15.2386 23.1718 15.2382 23.1811 15.2382 23.1908H9.25138C9.23173 23.0807 9.24352 22.9726 9.27496 22.8704C9.41645 22.4017 9.724 22.0991 10.2035 21.9881C10.3032 21.9655 10.4091 21.9659 10.513 21.9664L10.5543 21.9665C10.8158 21.9654 11.077 21.9658 11.3381 21.9662H11.3382H11.3383H11.3384H11.3385H11.3386H11.3387C11.5473 21.9666 11.7558 21.9669 11.9643 21.9665C12.1795 21.9665 12.3947 21.9662 12.6099 21.966H12.61H12.6101H12.6102H12.6103H12.6104H12.6105C13.0406 21.9656 13.4705 21.9652 13.8999 21.9665L13.9204 21.9665C14.064 21.9664 14.2082 21.9663 14.347 22.0038C14.7705 22.1197 15.0387 22.3988 15.1783 22.8056C15.2023 22.8749 15.2131 22.9482 15.2239 23.0213L15.2239 23.0213C15.2281 23.0497 15.2323 23.0781 15.2372 23.1062C15.2406 23.1244 15.2398 23.143 15.239 23.1628ZM11.2778 8.24912C11.2798 7.70575 11.6984 7.28816 12.2388 7.29012C12.7841 7.29209 13.2027 7.7087 13.2007 8.24813C13.1988 8.76202 12.789 9.2199 12.2319 9.21597C11.6748 9.21204 11.2759 8.74335 11.2778 8.24912ZM11.6198 9.91458L11.6177 9.93284C11.6155 9.95225 11.6134 9.97046 11.6119 9.98926L11.6072 10.0492C11.6042 10.0892 11.6011 10.1291 11.5972 10.1691C11.5539 10.6466 11.4459 11.1104 11.2837 11.5614C11.1029 12.0674 10.8573 12.541 10.5684 12.994C10.538 13.0411 10.5114 13.0932 10.4937 13.1473C10.4554 13.2661 10.4996 13.3723 10.6058 13.4371C10.6647 13.4725 10.7296 13.4902 10.7964 13.499C10.8648 13.5073 10.9332 13.5162 11.0016 13.525C11.1041 13.5384 11.2067 13.5517 11.3093 13.5629C11.3715 13.5695 11.4337 13.5768 11.4959 13.5842L11.496 13.5842C11.6647 13.6041 11.8336 13.624 12.003 13.6297C12.5807 13.6494 13.1565 13.6169 13.7313 13.5472C14.0006 13.5138 14.1843 13.3241 14.2216 13.0745C14.2609 12.8102 14.2521 12.5459 14.1804 12.2865C14.09 11.9574 13.9524 11.6469 13.7913 11.3472C13.5309 10.8628 13.2057 10.4226 12.8686 9.99024C12.8303 9.94111 12.7851 9.92834 12.7232 9.94504C12.4746 10.0128 12.2221 10.0295 11.9666 9.98533C11.8982 9.97283 11.8305 9.95854 11.7605 9.94375C11.7149 9.93412 11.6682 9.92427 11.6198 9.91458ZM12.8429 6.55836L12.8382 6.57775L12.7677 6.56266L12.7677 6.56265C12.6882 6.54556 12.6126 6.52933 12.5365 6.51487C12.2869 6.46869 12.0393 6.48146 11.7937 6.54042C11.7121 6.55909 11.6443 6.5414 11.5932 6.47557C11.2729 6.0678 10.9664 5.65119 10.7148 5.19724C10.5222 4.84744 10.365 4.48389 10.2678 4.09675C10.2304 3.95035 10.2078 3.80296 10.2127 3.65164C10.2216 3.32739 10.3699 3.09551 10.6696 2.96581C10.7964 2.9098 10.93 2.88229 11.0676 2.86558C11.4085 2.82432 11.7514 2.8253 12.0934 2.83905C12.3154 2.8479 12.5365 2.8705 12.7576 2.8931C12.9568 2.91425 13.1554 2.93866 13.3543 2.96311L13.3543 2.96311L13.3544 2.96311L13.5613 2.98841C13.6331 2.99725 13.7048 3.00707 13.7765 3.01788C13.9328 3.04146 14.0143 3.15839 13.9858 3.31364C13.9721 3.3893 13.9387 3.45513 13.8994 3.519C13.6852 3.86093 13.4896 4.21171 13.3285 4.58116C13.1516 4.98598 13.0288 5.40751 12.959 5.84377C12.9413 5.9548 12.9239 6.06583 12.9065 6.17686C12.889 6.28789 12.8716 6.39893 12.8539 6.50996C12.851 6.52571 12.8471 6.54147 12.8429 6.55836ZM10.5409 7.6409L10.5342 7.63836L10.5342 7.63836C10.5217 7.63362 10.5117 7.6298 10.5016 7.62813L9.89438 7.53675C9.51215 7.47976 9.14172 7.38248 8.7821 7.24296C8.33994 7.07199 7.92529 6.84698 7.52539 6.59544C7.46643 6.5581 7.40158 6.52666 7.33575 6.50799C7.16085 6.45886 7.0341 6.54435 7.0056 6.72416C7.00427 6.72948 7.00384 6.73435 7.0034 6.73938L7.00266 6.74676C6.99922 6.77378 6.99602 6.80104 6.99283 6.82831C6.98964 6.85558 6.98644 6.88284 6.983 6.90986C6.91619 7.39821 6.85527 7.88655 6.83071 8.3798C6.81302 8.75318 6.8199 9.12459 6.86706 9.496C6.88475 9.63258 6.92012 9.76523 6.983 9.88903C7.07144 10.062 7.20801 10.175 7.3947 10.2241C7.61185 10.2821 7.83097 10.2801 8.04812 10.229C8.45196 10.1357 8.82926 9.97059 9.19085 9.77014C9.64677 9.51762 10.0653 9.20811 10.4761 8.88779C10.5075 8.86421 10.5272 8.83473 10.5311 8.79445L10.5342 8.77273L10.5342 8.77272C10.5376 8.75044 10.5409 8.72801 10.5409 8.70503C10.5422 8.4783 10.5427 8.25157 10.5431 8.02456V8.02425L10.5439 7.68413C10.5439 7.67234 10.5429 7.65957 10.5409 7.6409ZM13.693 9.73477C13.6773 9.71315 13.6626 9.69055 13.639 9.6542C13.6497 9.6542 13.6582 9.65405 13.6652 9.65393C13.6763 9.65373 13.6838 9.6536 13.691 9.6542C13.7658 9.66293 13.8404 9.67158 13.9149 9.68021C14.0835 9.69975 14.2518 9.71924 14.4201 9.73968C14.8299 9.78979 15.2199 9.90869 15.5972 10.0747C15.948 10.229 16.2792 10.4186 16.6034 10.622C16.8677 10.7871 17.1536 10.848 17.4582 10.7773C17.8395 10.6879 18.1038 10.4599 18.2197 10.0787C18.2431 10.0008 18.2539 9.91913 18.2646 9.83835L18.2649 9.83598C18.274 9.77057 18.2834 9.70522 18.2927 9.63989C18.3226 9.4304 18.3525 9.22108 18.375 9.01061C18.4045 8.73746 18.4261 8.46332 18.4428 8.1882C18.4683 7.748 18.4595 7.30781 18.3917 6.87154C18.3494 6.59446 18.2581 6.33309 18.1058 6.09629C17.9014 5.77696 17.6194 5.56079 17.249 5.47236C16.963 5.40358 16.6732 5.41537 16.3843 5.45664C16.0758 5.50085 15.782 5.59616 15.498 5.72193C15.0873 5.90371 14.707 6.13854 14.3287 6.37731C14.3251 6.37974 14.3218 6.38292 14.3173 6.38731C14.3145 6.39003 14.3113 6.39321 14.3071 6.39696C14.3786 6.50421 14.4501 6.61171 14.5219 6.71957C14.5941 6.82812 14.6665 6.93703 14.7395 7.04644C14.7498 7.04059 14.7591 7.03556 14.7678 7.03088C14.7781 7.02535 14.7874 7.02032 14.7964 7.015C14.828 6.99699 14.8589 6.97812 14.8898 6.95926C14.9399 6.92874 14.9899 6.89827 15.0421 6.87154C15.1531 6.81637 15.2653 6.76372 15.3774 6.71111C15.4371 6.68314 15.4966 6.65519 15.556 6.62688C15.8173 6.5021 16.0797 6.37829 16.3587 6.29772C16.5592 6.23975 16.7606 6.1975 16.9719 6.22796C17.2038 6.26038 17.3787 6.3724 17.4897 6.57972C17.5703 6.73005 17.6115 6.89414 17.6115 7.06216C17.6105 7.42768 17.6056 7.7932 17.5909 8.15774C17.5798 8.40936 17.5604 8.66043 17.5411 8.91136C17.5346 8.99457 17.5282 9.07776 17.5221 9.16095C17.5093 9.33781 17.4946 9.51467 17.4769 9.69154C17.4691 9.77112 17.4494 9.84875 17.4052 9.91851C17.3659 9.9814 17.3079 10.0099 17.2342 10.006C17.2028 10.004 17.1684 10.0001 17.1399 9.98729C17.1329 9.98419 17.126 9.9811 17.119 9.97801C17.0531 9.94876 16.987 9.91938 16.9257 9.88117C16.6751 9.72691 16.4197 9.57952 16.1534 9.45179C15.6994 9.23366 15.2278 9.06465 14.7306 8.97622C14.5948 8.9514 14.4575 8.93238 14.3205 8.9134C14.2622 8.90533 14.204 8.89727 14.146 8.88877C14.0951 8.88132 14.0442 8.87427 13.9925 8.86711C13.9624 8.86293 13.9321 8.85872 13.9013 8.85438C13.9041 8.84414 13.9064 8.83531 13.9084 8.82734C13.9115 8.81544 13.9141 8.80543 13.917 8.79543C13.9563 8.65295 13.9839 8.50852 13.9927 8.36113C14.0163 8.00445 13.9406 7.6694 13.7667 7.35792C13.7117 7.26064 13.6891 7.16042 13.6979 7.04939C13.708 6.91321 13.7166 6.77704 13.7252 6.64086C13.735 6.48521 13.7448 6.32956 13.7569 6.17392C13.7736 5.94694 13.8031 5.72095 13.8542 5.49889C13.9367 5.14025 14.0821 4.80617 14.2609 4.48585C14.3486 4.32767 14.4418 4.17229 14.5352 4.01675C14.5653 3.9665 14.5955 3.91623 14.6255 3.86585C14.7994 3.57206 14.8475 3.2596 14.7434 2.93535C14.6206 2.55411 14.3602 2.31043 13.9622 2.24165C13.7467 2.20446 13.5297 2.17741 13.3126 2.15035C13.22 2.1388 13.1273 2.12724 13.0347 2.1149C12.6977 2.0697 12.3587 2.04513 12.0187 2.03138C11.7564 2.02155 11.494 2.03138 11.2317 2.05398C11.0096 2.07363 10.7905 2.10212 10.5753 2.16206C10.3238 2.23281 10.0909 2.33892 9.89831 2.51775C9.57013 2.82235 9.42274 3.2085 9.40505 3.6487C9.39621 3.89336 9.44043 4.13114 9.50233 4.36696C9.63203 4.85923 9.84525 5.31515 10.1046 5.75141C10.2943 6.06976 10.5055 6.37338 10.7237 6.67306C10.7468 6.70476 10.7685 6.73797 10.791 6.77245C10.8047 6.79356 10.8188 6.81515 10.8337 6.83715C10.8271 6.83825 10.822 6.83935 10.8179 6.84024C10.8109 6.84175 10.8066 6.84268 10.8023 6.84207C10.6736 6.82586 10.5446 6.8094 10.4156 6.79294C10.2867 6.77648 10.1577 6.76002 10.029 6.74381C9.60452 6.68977 9.1997 6.56891 8.81158 6.39008C8.48635 6.23975 8.17782 6.06092 7.8742 5.87227C7.63642 5.72586 7.37996 5.66494 7.09993 5.70326C6.63321 5.76811 6.28538 6.11201 6.22347 6.57775C6.21259 6.65887 6.2014 6.73993 6.19021 6.82097C6.15694 7.06191 6.12369 7.30271 6.09869 7.54461C6.06626 7.8551 6.04464 8.16756 6.02892 8.48002C6.01418 8.79445 6.02696 9.10985 6.05742 9.42428C6.07903 9.63651 6.11834 9.84482 6.19203 10.0453C6.31289 10.3705 6.50154 10.6446 6.7973 10.8353C7.1353 11.0524 7.50967 11.0976 7.89877 11.0583C8.15325 11.0318 8.39988 10.9679 8.64257 10.8903C8.99237 10.7792 9.31564 10.6112 9.63006 10.4245C9.86965 10.2817 10.1072 10.1363 10.3447 9.9909C10.4716 9.91327 10.5984 9.83564 10.7256 9.75835C10.7435 9.74698 10.7627 9.73629 10.7827 9.72515C10.7869 9.72281 10.7911 9.72046 10.7954 9.71807C10.797 9.7238 10.7985 9.728 10.7997 9.73131C10.8013 9.73592 10.8023 9.73878 10.8023 9.74165C10.8013 10.1357 10.761 10.5248 10.6559 10.906C10.5213 11.3973 10.312 11.8542 10.0575 12.2924C10.0216 12.354 9.98434 12.4145 9.94712 12.4751C9.92019 12.5189 9.89327 12.5627 9.86686 12.6068C9.6959 12.8918 9.62908 13.1974 9.72537 13.5206C9.83837 13.9048 10.1056 14.1446 10.4879 14.2438C10.6475 14.2853 10.8137 14.3041 10.9794 14.3229C11.0177 14.3272 11.056 14.3316 11.0941 14.3362C11.3073 14.3617 11.5215 14.3824 11.7357 14.4C12.002 14.4207 12.2693 14.4413 12.5355 14.4531C12.846 14.4669 13.1555 14.4521 13.4641 14.4148C13.6606 14.3912 13.8542 14.3588 14.0418 14.292C14.4329 14.1534 14.7385 13.9166 14.9163 13.5324C15.0156 13.3172 15.0558 13.0893 15.0578 12.8544C15.0617 12.5243 14.9998 12.203 14.9035 11.8886C14.768 11.4454 14.5655 11.0328 14.315 10.6446C14.1725 10.4243 14.0225 10.2089 13.8725 9.99351C13.8125 9.90737 13.7525 9.82123 13.693 9.73477Z" fill="#0C1E3C"/>
</svg>
