<svg width="24" height="24" viewBox="0 0 24 24" fill="none" xmlns="http://www.w3.org/2000/svg">
<path fill-rule="evenodd" clip-rule="evenodd" d="M6.55244 18.4151L6.55234 18.4149L6.55216 18.4147L6.55164 18.414C6.47469 18.3115 6.4005 18.2126 6.32569 18.1144C5.69995 17.2866 5.30451 16.3611 5.18936 15.3334C5.122 14.7381 5.11331 14.1362 5.1068 13.5366C5.09981 12.8173 5.10091 12.0989 5.10201 11.3802V11.3801V11.38V11.3799V11.3798V11.3797V11.3796V11.3795C5.10262 10.9804 5.10323 10.5813 5.10245 10.1819C5.10245 10.1145 5.08724 10.0428 5.06334 9.982L5.04126 9.92644C4.87246 9.50185 4.70393 9.07791 4.63315 8.62406C4.54919 8.09036 4.54983 7.55481 4.55047 7.01913L4.55058 6.87937C4.55276 5.98205 4.81348 5.15424 5.1698 4.34817C5.20239 4.27864 5.20022 4.22215 5.15242 4.15914C4.57883 3.38131 4.41587 2.49702 4.4854 1.55407C4.51365 1.15863 4.56362 0.769718 4.69181 0.391667C4.74613 0.228714 4.82434 0.0853153 5.00685 0.0288249C5.16111 -0.0189747 5.29799 0.0157887 5.41097 0.130942C5.51752 0.237488 5.6178 0.350303 5.72 0.465289L5.72602 0.472057C6.28223 1.08911 6.99053 1.29769 7.79661 1.26944C8.12903 1.25641 8.43756 1.16515 8.74174 1.04565C9.676 0.680637 10.645 0.567657 11.6423 0.608938C12.3854 0.637183 13.0937 0.813173 13.7802 1.0739C14.4103 1.3129 15.0426 1.27379 15.6814 1.14777C16.0051 1.08259 16.2658 0.889217 16.5027 0.665428C16.5574 0.613355 16.6117 0.560871 16.666 0.508418L16.6661 0.508375L16.6661 0.508356L16.6661 0.508347L16.6661 0.50834C16.7885 0.390113 16.9107 0.272045 17.0371 0.159187C17.1088 0.0961789 17.1979 0.0462066 17.2892 0.0157887C17.45 -0.038529 17.639 0.050552 17.702 0.233059C17.7867 0.476403 17.8606 0.728437 17.904 0.982644C17.9823 1.43457 18.0062 1.88866 17.9649 2.3471C17.904 3.01195 17.7128 3.62466 17.2957 4.15263C17.237 4.2265 17.2349 4.28516 17.2718 4.3699C17.4869 4.85224 17.6998 5.33675 17.7954 5.86255C17.9193 6.54043 17.9279 7.22483 17.8997 7.90924C17.8671 8.64361 17.6629 9.33453 17.3913 10.0102C17.3565 10.095 17.337 10.1928 17.337 10.2818C17.3348 13.0303 17.3348 15.7766 17.3348 18.5229V18.688H17.4978C17.8474 18.688 18.1971 18.6886 18.5467 18.6891L18.5504 18.6891C18.9013 18.6897 19.2522 18.6902 19.6031 18.6902C20.0507 18.6902 20.4396 18.8314 20.7307 19.1791C21.0784 19.5941 21.1935 20.0873 21.1588 20.6174C21.1305 21.0281 21.0067 21.4104 20.7416 21.7342C20.5156 22.0145 20.2397 22.197 19.8573 22.1991C19.4947 22.1991 19.132 22.2069 18.7694 22.2147L18.769 22.2147C18.4669 22.2211 18.1648 22.2276 17.8628 22.2296C17.1162 22.2319 16.3696 22.2331 15.6231 22.2344H15.6219C14.3156 22.2365 13.0094 22.2386 11.7031 22.2469C11.2838 22.2491 10.8623 22.2708 10.4473 22.3295C9.94759 22.399 9.50218 22.638 9.09154 22.9183C8.67656 23.2051 8.28112 23.5201 7.88786 23.8374C7.6858 24.0025 7.47939 24.0438 7.24257 23.9525C6.70374 23.7439 6.29309 23.3898 6.01282 22.8857C5.93025 22.738 5.92373 22.5859 5.98457 22.4251C6.04323 22.2665 6.0302 22.2469 5.85638 22.2426C5.68908 22.2393 5.52178 22.2377 5.35448 22.2361C5.18719 22.2344 5.01989 22.2328 4.85259 22.2296C4.80072 22.2285 4.74872 22.2278 4.69665 22.2271L4.69625 22.2271L4.69585 22.2271L4.69545 22.2271L4.69505 22.2271L4.69465 22.2271L4.69426 22.2271L4.69386 22.2271C4.53529 22.2251 4.37611 22.223 4.21816 22.21C3.83359 22.1796 3.56852 21.9471 3.34473 21.6603C3.0123 21.2323 2.97971 20.7326 3.00796 20.2176C3.02751 19.8504 3.14267 19.5158 3.37732 19.229C3.6815 18.8575 4.08128 18.6902 4.5571 18.6902C4.96383 18.6915 5.37056 18.6905 5.77729 18.6894C6.04845 18.6887 6.3196 18.688 6.59076 18.688H6.75805C6.68608 18.5931 6.61825 18.5027 6.55244 18.4151ZM5.39238 1.45736C5.39425 1.45351 5.39617 1.44955 5.39794 1.44543C5.45419 1.47989 5.50886 1.51594 5.56303 1.55166C5.67624 1.62633 5.78732 1.69958 5.90635 1.75396C6.15827 1.86883 6.41953 1.96314 6.68146 2.05769L6.68147 2.05769L6.74285 2.07986C6.81672 2.10593 6.83193 2.13201 6.79064 2.1885C6.72764 2.27758 6.66245 2.36449 6.58858 2.44705C6.48755 2.55894 6.38435 2.66921 6.28114 2.77948L6.28112 2.7795L6.28111 2.77952L6.28109 2.77954L6.28107 2.77956L6.28105 2.77958L6.28103 2.7796L6.28101 2.77962L6.28099 2.77964L6.28097 2.77966L6.28096 2.77968L6.28094 2.7797L6.28092 2.77972L6.2809 2.77974L6.28088 2.77976C6.17777 2.88993 6.07465 3.0001 5.97371 3.1119C5.9269 3.16438 5.88564 3.22149 5.84148 3.28263C5.818 3.31514 5.7937 3.34879 5.7673 3.38349C5.75649 3.36886 5.74475 3.35405 5.73274 3.3389C5.70369 3.30225 5.67303 3.26357 5.64997 3.22053C5.50875 2.97067 5.44574 2.69691 5.42836 2.41446C5.4088 2.10593 5.39577 1.79741 5.38273 1.48671C5.38273 1.47721 5.38735 1.4677 5.39238 1.45736L5.39238 1.45736ZM11.1049 9.31943L11.1048 9.31964L11.1048 9.31966L11.1046 9.3199C11.0166 9.463 10.9361 9.59376 10.8601 9.72562C10.8427 9.75604 10.8493 9.81905 10.871 9.84512C10.9709 9.96245 11.0774 10.0754 11.1839 10.1862C11.2382 10.2427 11.2882 10.234 11.336 10.1732C11.3733 10.1237 11.4113 10.0749 11.4494 10.0261L11.4495 10.026C11.5066 9.95271 11.5637 9.87945 11.6184 9.80384C11.6336 9.78429 11.6401 9.73649 11.6271 9.7191C11.5381 9.59021 11.4459 9.46241 11.345 9.32267L11.3445 9.32204C11.3027 9.26411 11.2594 9.20413 11.2143 9.14116C11.1765 9.20313 11.1401 9.26227 11.1049 9.31943ZM19.2294 20.3371C19.2316 20.7108 19.2815 20.9498 19.4293 21.1606C19.5966 21.3974 19.8486 21.4039 20.0333 21.1823C20.331 20.8282 20.331 20.1394 20.0355 19.7809C19.8486 19.5593 19.6031 19.5636 19.4293 19.7918C19.2794 19.9895 19.2272 20.2155 19.2294 20.3371ZM15.5966 2.13201C15.9387 2.50636 16.2691 2.86908 16.5995 3.2318L16.7416 3.38783C16.9285 3.04889 17.0045 2.68387 17.0523 2.31234C17.0784 2.11028 17.098 1.90604 17.0849 1.70398C17.0719 1.47802 17.0219 1.46064 16.8351 1.57797C16.4918 1.79306 16.1333 1.97557 15.74 2.07986C15.7151 2.08574 15.6901 2.09559 15.655 2.10941C15.6382 2.11603 15.6191 2.12356 15.5966 2.13201ZM16.0431 4.07767L16.0431 4.07768L16.0431 4.07769L16.0431 4.07771L16.0431 4.07772L16.0431 4.07773L16.0431 4.07774L16.0431 4.07776L16.0431 4.07777L16.043 4.07778L16.043 4.0778C16.0382 4.08536 16.0333 4.09292 16.029 4.10048C15.992 4.08602 15.9551 4.07096 15.918 4.05585C15.8548 4.03012 15.7913 4.00426 15.727 3.98098C14.5233 3.57034 13.3696 3.62248 12.3093 4.38511C11.9095 4.67408 11.5836 5.04126 11.2816 5.42801L11.2816 5.42807C11.262 5.45412 11.2425 5.48018 11.2143 5.51926L11.2081 5.50982C11.1649 5.44401 11.1255 5.38396 11.0861 5.32589C10.569 4.56109 9.85634 4.0592 8.97204 3.82237C8.75853 3.76555 8.52864 3.76604 8.30075 3.76653H8.30074H8.30073H8.30072H8.30071H8.3007H8.30069H8.30068H8.30067H8.30066H8.30065H8.30064H8.30063C8.24101 3.76666 8.18153 3.76678 8.12252 3.76588L8.02676 3.76407C7.79242 3.75932 7.55506 3.7545 7.32948 3.79847C7.13053 3.83644 6.93796 3.90837 6.74582 3.98015C6.66307 4.01106 6.58039 4.04194 6.49733 4.07006C6.48127 4.07598 6.46522 4.08222 6.44865 4.08866L6.44861 4.08868L6.4484 4.08876L6.44835 4.08878C6.42241 4.09887 6.39521 4.10945 6.36479 4.12003C7.47722 2.48399 9.33489 1.33897 11.6162 1.51061C13.4978 1.64967 14.9687 2.53179 16.0572 4.05485C16.0529 4.06246 16.048 4.07006 16.0431 4.07767ZM6.89711 22.6554C6.95034 22.699 6.99969 22.7399 7.04708 22.7793C7.10608 22.8282 7.16204 22.8747 7.21867 22.9205C7.31644 23.003 7.41204 23.0139 7.52067 22.9248C7.72056 22.7619 7.92045 22.6033 8.12686 22.4512C8.8004 21.9536 9.55868 21.6299 10.3517 21.3865C10.4364 21.3605 10.5277 21.3431 10.6146 21.3431C11.4114 21.3422 12.2078 21.3421 13.0041 21.3419H13.0041H13.0042H13.0042H13.0043H13.0043H13.0044H13.0044H13.0045H13.0045H13.0046H13.0046C14.1995 21.3416 15.3941 21.3414 16.5896 21.3387C17.0038 21.3371 17.4168 21.3281 17.8295 21.3192L17.8297 21.3192C17.9668 21.3162 18.1038 21.3132 18.2408 21.3105C18.28 21.3092 18.3183 21.3011 18.3563 21.2931C18.3794 21.2882 18.4025 21.2834 18.4255 21.2801C18.4141 21.2246 18.4023 21.1713 18.3907 21.1193C18.367 21.0123 18.3445 20.9109 18.3299 20.8086C18.2756 20.4392 18.3342 20.0786 18.432 19.7223C18.4559 19.631 18.4385 19.581 18.3473 19.581C18.099 19.5778 17.8496 19.5782 17.5908 19.5786H17.5905L17.3239 19.5789C17.3239 19.6345 17.3243 19.6896 17.3247 19.7443C17.3255 19.8797 17.3264 20.0128 17.3218 20.1459C17.3131 20.3719 17.2044 20.524 17.0198 20.5718C16.9415 20.5913 16.859 20.5979 16.7764 20.5979C16.4991 20.6003 16.2218 20.6029 15.9446 20.6055L15.9442 20.6056C14.9773 20.6147 14.0112 20.6239 13.0437 20.6239C12.9495 20.6239 12.8553 20.6241 12.7611 20.6243H12.7611H12.761H12.761H12.761H12.7609C11.9662 20.6257 11.1705 20.6272 10.38 20.5262C9.6282 20.4306 8.91121 20.2198 8.26591 19.82C7.96391 19.6332 7.66625 19.555 7.31427 19.5658C6.57492 19.5907 5.83558 19.5991 5.09623 19.6076C4.86872 19.6101 4.64121 19.6127 4.4137 19.6158C4.28551 19.618 4.20078 19.6788 4.12473 19.7679C3.73147 20.2307 3.87052 20.8868 4.16384 21.2345C4.22902 21.3105 4.29638 21.3453 4.40284 21.3453C5.18284 21.3409 5.96067 21.3387 6.74067 21.3453C6.87321 21.3453 6.96881 21.3062 7.06658 21.2192C7.24257 21.0672 7.4229 20.9194 7.6141 20.7891C7.69884 20.7326 7.82485 20.6935 7.92263 20.7087C8.28764 20.7695 8.418 21.1562 8.17466 21.4365C8.11493 21.5048 8.04683 21.5656 7.97888 21.6263C7.94301 21.6583 7.90718 21.6903 7.87265 21.7233C7.68642 21.9007 7.50091 22.0782 7.31276 22.2581L7.31227 22.2586C7.17571 22.3892 7.03775 22.5212 6.89711 22.6554ZM16.406 11.617C16.413 11.6202 16.4201 11.6235 16.4266 11.6267V19.6897C16.3466 19.6744 16.2677 19.66 16.1895 19.6457L16.1889 19.6456L16.1888 19.6456L16.1888 19.6456L16.1888 19.6456L16.1887 19.6456L16.1887 19.6455L16.1885 19.6455L16.1883 19.6455L16.1882 19.6455L16.1881 19.6454L16.1879 19.6454C16.0438 19.619 15.9023 19.5932 15.7618 19.5636C13.7411 19.1291 12.1225 17.4735 11.7488 15.3008C11.7053 15.046 11.6947 14.7844 11.6841 14.5231C11.6788 14.3923 11.6735 14.2616 11.664 14.1319C11.6575 14.0384 11.6966 14.0189 11.7814 14.0102C12.9046 13.8777 13.9541 13.5344 14.9057 12.913C15.4185 12.5784 15.866 12.1721 16.2854 11.7267C16.3045 11.7064 16.3223 11.6841 16.3402 11.6617L16.3402 11.6616L16.3403 11.6616C16.3549 11.6433 16.3697 11.6248 16.3853 11.6072C16.3918 11.6104 16.3989 11.6137 16.406 11.617ZM13.5197 19.592L13.5196 19.5919C13.4794 19.5586 13.4454 19.5304 13.4087 19.505C12.7765 19.0531 12.2355 18.5099 11.8074 17.8581C11.3034 17.0911 10.9666 16.2568 10.8427 15.3508C10.8034 15.0595 10.7971 14.7626 10.7909 14.4665V14.4665V14.4665V14.4665V14.4665V14.4665V14.4665V14.4664V14.4664V14.4664V14.4664C10.7885 14.3539 10.7861 14.2416 10.7819 14.1297C10.7776 14.0537 10.7667 14.0167 10.6754 14.008C10.4929 13.9928 10.3126 13.9667 10.1323 13.9298C8.57444 13.6235 7.23822 12.9173 6.16925 11.7289C6.15898 11.7164 6.14897 11.7039 6.13828 11.6906L6.13827 11.6906L6.13824 11.6906L6.13818 11.6905C6.11722 11.6644 6.09367 11.6351 6.06061 11.5963C6.0584 11.62 6.05643 11.6389 6.0548 11.6545L6.0548 11.6545L6.0548 11.6546C6.05164 11.6848 6.04975 11.703 6.04975 11.7202C6.05113 12.0263 6.05098 12.3327 6.05082 12.6392V12.6392V12.6392V12.6393V12.6393V12.6393V12.6393V12.6394V12.6394V12.6394C6.05048 13.2963 6.05015 13.9536 6.06496 14.6099C6.07365 15.0053 6.10841 15.4116 6.20184 15.7962C6.46908 16.9064 7.07527 17.8146 7.9726 18.5207C8.76998 19.1465 9.64776 19.6093 10.6907 19.6375C11.3339 19.6558 11.9762 19.6591 12.618 19.6625C12.8932 19.6639 13.1684 19.6653 13.4435 19.6679C13.4693 19.6679 13.4951 19.6641 13.5298 19.6591C13.5475 19.6565 13.5676 19.6535 13.5912 19.6506C13.5647 19.6293 13.5413 19.6099 13.5197 19.592ZM17.0357 7.22312L17.0357 7.2233L17.0357 7.22351C17.0397 7.27611 17.0436 7.32744 17.048 7.37692C16.9828 8.96952 16.4201 10.3318 15.299 11.4355C14.3691 12.3503 13.2458 12.9108 11.9421 13.0586C9.8911 13.2889 8.18552 12.6023 6.82106 11.0662C6.04975 10.2014 5.61955 9.18027 5.46529 8.03743C5.38708 7.44428 5.37187 6.85547 5.61955 6.29492C6.04106 5.33892 6.77109 4.76967 7.81182 4.64148C9.135 4.47636 10.4517 5.44321 10.7102 6.74901C10.9123 7.77018 10.6211 8.63927 9.88675 9.36713C9.78681 9.4649 9.68686 9.56267 9.60647 9.67348C9.41093 9.94072 9.57171 10.2949 9.89762 10.3492C9.98018 10.3644 10.0714 10.4057 10.1344 10.46C10.2299 10.5413 10.3218 10.6277 10.4138 10.7141L10.4138 10.7142C10.5478 10.8401 10.6819 10.9662 10.8275 11.077C11.1773 11.3421 11.2882 11.3573 11.6336 11.0749C11.7746 10.9607 11.9066 10.8336 12.0384 10.7065L12.0384 10.7065C12.0772 10.6691 12.116 10.6318 12.1551 10.5947C12.2833 10.473 12.4136 10.3731 12.5983 10.334C12.7851 10.2927 12.909 10.1493 12.9524 9.96245C12.9677 9.89509 12.9329 9.79732 12.8894 9.74083C12.7634 9.58005 12.6244 9.43013 12.4853 9.28239C12.1312 8.90868 11.8639 8.48501 11.7531 7.97659C11.4033 6.39269 12.4332 4.90221 13.9714 4.65235C15.4837 4.40683 16.8177 5.60182 16.9959 6.82723C17.0158 6.96092 17.026 7.09571 17.0357 7.22312Z" fill="#0C1E3C"/>
</svg>
