<svg width="24" height="24" viewBox="0 0 24 24" fill="none" xmlns="http://www.w3.org/2000/svg">
<path fill-rule="evenodd" clip-rule="evenodd" d="M23 21.8667V14.1339C22.9733 14.0247 22.9491 13.9147 22.925 13.8046C22.8727 13.5666 22.8204 13.3285 22.7425 13.0992C22.1098 11.235 20.3527 9.97936 18.3817 9.96976C17.9203 9.96752 17.4589 9.96803 16.9975 9.96854C16.75 9.96882 16.5025 9.96909 16.255 9.96894C15.6584 9.96855 15.3561 9.6727 15.3456 9.08009C15.288 5.81813 13.073 3.02301 9.90694 2.2171C6.03558 1.2317 2.02467 3.70033 1.18033 7.60414C1.07233 8.10356 1.01056 8.62325 1.00892 9.13386C0.998544 12.339 0.999587 15.5442 1.00063 18.7494C1.00095 19.718 1.00126 20.6867 1.00126 21.6554V21.8791H1.24012H2.6467C9.35993 21.8791 16.0732 21.8791 22.7864 21.8786C22.8348 21.8786 22.8833 21.875 22.9317 21.8714C22.9545 21.8697 22.9772 21.868 23 21.8667ZM21.7132 16.024V16.0235C21.7148 15.7632 21.7164 15.5068 21.7097 15.2506C21.707 15.1469 21.7064 15.0426 21.7058 14.9383V14.9382C21.7039 14.6258 21.7021 14.3124 21.6442 14.0104C21.3276 12.3602 19.9756 11.2666 18.2906 11.2605C18.0358 11.2596 17.781 11.2601 17.5262 11.2607C17.029 11.2619 16.5318 11.263 16.0349 11.2529C14.9967 11.2317 14.1231 10.3661 14.0574 9.32752L14.0534 9.26483C14.0287 8.87216 14.0038 8.4772 13.9367 8.09073C13.3592 4.76493 9.91585 2.60094 6.64954 3.50206C4.06215 4.21584 2.30464 6.4964 2.29125 9.18637C2.28299 10.8408 2.28514 12.4953 2.2873 14.1498C2.28818 14.8295 2.28907 15.5091 2.28923 16.1888C2.28923 16.231 2.29262 16.2733 2.296 16.3154C2.29758 16.3351 2.29915 16.3547 2.30038 16.3743H21.7117C21.7117 16.2565 21.7125 16.1399 21.7132 16.024ZM13.9231 20.5662H12.6583V17.7001H13.9231V20.5662ZM15.2504 20.5699H16.5121V17.7036H15.2504V20.5699ZM19.1113 20.565H17.844V17.705H19.1113V20.565ZM21.6983 20.5741H20.4318V17.7073H21.6983V20.5741ZM10.0763 20.5739H11.3432V17.7071H10.0763V20.5739ZM8.75112 20.5752H7.49513V17.7035H8.75112V20.5752ZM4.89724 20.5684H6.15525V17.7021H4.89724V20.5684ZM3.56885 20.5673H2.2959V17.707H3.56885V20.5673Z" fill="#0C1E3C"/>
</svg>
