<svg width="24" height="24" viewBox="0 0 24 24" fill="none" xmlns="http://www.w3.org/2000/svg">
<path fill-rule="evenodd" clip-rule="evenodd" d="M0.856878 2.71376H11.1394C11.6124 2.71376 11.9963 2.32988 11.9963 1.85688C11.9963 1.38388 11.6124 1 11.1394 1H0.856878C0.383882 1 0 1.38388 0 1.85688C0 2.32988 0.383882 2.71376 0.856878 2.71376ZM23.3911 8.27147C22.6872 6.82776 21.4785 6.01899 20.3087 5.2363L20.3063 5.23469C19.434 4.6503 18.6114 4.09847 18.0287 3.30843L17.9208 3.16276L17.9127 3.15196C17.5719 2.69361 17.1868 2.17564 17.1273 1.74034C17.0673 1.29648 16.7177 0.988004 16.2207 1.00171C15.7717 1.03256 15.4238 1.40616 15.4238 1.85688V17.1265C14.7057 16.6912 13.8214 16.4238 12.8532 16.4238C10.4916 16.4238 8.56878 17.9611 8.56878 19.8513C8.56878 21.7416 10.4916 23.2788 12.8532 23.2788C15.2164 23.2788 17.1376 21.7416 17.1376 19.8513V9.86355C18.4246 10.3554 20.5308 11.6082 21.1101 14.5335C21.0828 14.5738 21.0559 14.6149 21.0289 14.656C20.9491 14.7779 20.869 14.9002 20.7793 15.0014C20.4657 15.3561 20.5017 15.8977 20.8564 16.2096C21.2095 16.5249 21.751 16.4872 22.0646 16.1325C23.1374 14.914 23.8761 12.9843 23.9909 11.0975C24.0474 10.1669 23.8401 9.19004 23.3911 8.27147ZM11.1394 7.85503H0.856878C0.383882 7.85503 0 7.47115 0 6.99815C0 6.52515 0.383882 6.14127 0.856878 6.14127H11.1394C11.6124 6.14127 11.9963 6.52515 11.9963 6.99815C11.9963 7.47115 11.6124 7.85503 11.1394 7.85503ZM5.99815 11.2825H0.856878C0.383882 11.2825 0 11.6664 0 12.1394C0 12.6124 0.383882 12.9963 0.856878 12.9963H5.99815C6.47115 12.9963 6.85503 12.6124 6.85503 12.1394C6.85503 11.6664 6.47115 11.2825 5.99815 11.2825ZM0.856878 16.4238H5.99815C6.47115 16.4238 6.85503 16.8077 6.85503 17.2807C6.85503 17.7537 6.47115 18.1376 5.99815 18.1376H0.856878C0.383882 18.1376 0 17.7537 0 17.2807C0 16.8077 0.383882 16.4238 0.856878 16.4238Z" fill="#0092C9"/>
</svg>
