<svg width="24" height="24" viewBox="0 0 24 24" fill="none" xmlns="http://www.w3.org/2000/svg">
<path fill-rule="evenodd" clip-rule="evenodd" d="M11.9485 13.8146C15.4917 13.8146 18.3657 10.9407 18.3657 7.39749C18.3657 3.8543 15.4917 1 11.9485 1C8.40532 1 5.53136 3.87396 5.53136 7.39749C5.53136 10.921 8.40528 13.8146 11.9485 13.8146ZM11.9485 2.67319C14.5469 2.67319 16.6728 4.79911 16.6728 7.39749C16.6728 9.99587 14.5469 12.1217 11.9485 12.1217C9.35017 12.1217 7.22421 9.99583 7.22421 7.39745C7.22421 4.79906 9.35013 2.67319 11.9485 2.67319ZM0.846426 23.834H23.1293C23.6017 23.834 23.9757 23.46 23.9757 22.9876C23.9757 18.5586 20.3735 14.9366 15.9248 14.9366H8.05098C3.62196 14.9366 0 18.5389 0 22.9876C0 23.46 0.374 23.834 0.846426 23.834ZM8.05098 16.6295H15.9248C19.153 16.6295 21.8104 19.031 22.2238 22.1411H1.75191C2.16528 19.0507 4.82272 16.6295 8.05098 16.6295Z" fill="#0092C9"/>
</svg>
