<svg width="24" height="24" viewBox="0 0 24 24" fill="none" xmlns="http://www.w3.org/2000/svg">
<path fill-rule="evenodd" clip-rule="evenodd" d="M6.91406 7.00781C7.47949 4.69336 9.58008 3 12 3C13.7783 3 15.3926 3.88477 16.3594 5.34375C16.6553 5.2793 16.957 5.25 17.25 5.25C19.6816 5.25 21.6709 7.19531 21.75 9.60938C23.1328 10.4062 24 11.877 24 13.5C24 15.9814 21.9814 18 19.5 18H18.75L18 16.5H19.5C21.1553 16.5 22.5 15.1553 22.5 13.5C22.5 12.2959 21.7793 11.2061 20.6719 10.7344L20.1797 10.5234L20.2266 9.98438C20.2296 9.95711 20.2342 9.93376 20.2387 9.91068L20.2387 9.91065C20.243 9.88911 20.2472 9.86779 20.25 9.84375C20.252 9.82598 20.2513 9.8029 20.2506 9.78077C20.2503 9.77005 20.25 9.75956 20.25 9.75C20.25 8.09473 18.9053 6.75 17.25 6.75C16.9365 6.75 16.6172 6.81445 16.2656 6.9375L15.6328 7.14844L15.3516 6.5625C14.71 5.29102 13.4209 4.5 12 4.5C10.1572 4.5 8.56641 5.88574 8.29688 7.71094L8.22656 8.20312L7.73438 8.32031C6.90527 8.51953 6.23145 9.17871 6.04688 10.0078L5.90625 10.7344L5.15625 10.5703C4.91895 10.5176 4.70801 10.5 4.5 10.5C2.84473 10.5 1.5 11.8447 1.5 13.5C1.5 15.1553 2.84473 16.5 4.5 16.5H6.75L6 18H4.5C2.01855 18 0 15.9814 0 13.5C0 10.916 2.18262 8.83008 4.80469 9.02344C5.20312 8.10938 5.97949 7.37109 6.91406 7.00781ZM12 13.5C12 12.6709 13.5 10.5 13.5 10.5C13.5 10.5 15 12.6709 15 13.5C15 14.3291 14.3291 15 13.5 15C12.6709 15 12 14.3291 12 13.5ZM9.75 14.25C9.75 14.25 8.25 16.4209 8.25 17.25C8.25 18.0791 8.9209 18.75 9.75 18.75C10.5791 18.75 11.25 18.0791 11.25 17.25C11.25 16.4209 9.75 14.25 9.75 14.25ZM14.25 19.5C14.25 18.6709 15.75 16.5 15.75 16.5C15.75 16.5 17.25 18.6709 17.25 19.5C17.25 20.3291 16.5791 21 15.75 21C14.9209 21 14.25 20.3291 14.25 19.5Z" fill="#0C1E3C"/>
</svg>
