<svg width="24" height="24" viewBox="0 0 24 24" fill="none" xmlns="http://www.w3.org/2000/svg">
<path fill-rule="evenodd" clip-rule="evenodd" d="M7.34232 6.06583C7.5632 5.88177 7.43348 5.52241 7.14599 5.52241H1.61476C1.53915 5.52241 1.46355 5.52301 1.38796 5.52361H1.38796H1.38796H1.38796H1.38796H1.38795H1.38795H1.38795H1.38794H1.38793C1.20531 5.52506 1.02277 5.52651 0.840526 5.51949C0.335668 5.49962 0.0113674 5.20804 0.000265186 4.77681C-0.010837 4.33272 0.327488 4.01017 0.859809 4.00784C2.49918 3.99949 4.13855 3.99981 5.77827 4.00012L6.71534 4.00024C10.7319 4.00024 14.7484 4.00123 18.7649 4.00221L22.7814 4.00316C22.8176 4.00316 22.8538 4.00283 22.8901 4.0025C22.999 4.00152 23.108 4.00053 23.2167 4.00842C23.6824 4.04056 23.9944 4.34324 23.9985 4.75811C24.002 5.1724 23.6888 5.5002 23.2266 5.51364C22.7206 5.52886 22.2139 5.52728 21.7076 5.52571C21.5526 5.52523 21.3977 5.52475 21.2429 5.52475C20.8034 5.52493 20.3635 5.51761 19.9236 5.51029C18.9423 5.49396 17.9611 5.47764 16.9855 5.54461C15.6327 5.63694 14.4834 6.3095 13.4859 7.21403C13.2043 7.46997 13.2849 7.74519 13.58 7.93451C13.7992 8.07517 14.0244 8.20699 14.2496 8.3388C14.5519 8.5158 14.8542 8.69277 15.1419 8.89105C15.3408 9.02829 15.5432 9.16252 15.7458 9.2969L15.7458 9.29691C16.3905 9.72438 17.0373 10.1534 17.5797 10.6855C19.1165 12.1942 19.4577 14.1319 19.1136 16.1706C18.9591 17.0849 18.6688 17.9783 18.3797 18.868L18.3797 18.8681L18.3796 18.8682L18.3796 18.8684L18.3795 18.8686L18.3795 18.8687L18.3794 18.8689L18.3794 18.8691L18.3793 18.8692C18.3164 19.0629 18.2535 19.2563 18.1921 19.4498C18.0104 20.0236 17.5686 20.2235 17.1128 20.0347C16.698 19.8629 16.5928 19.4253 16.7576 18.8871C16.8215 18.6785 16.8873 18.47 16.9532 18.2614C17.2105 17.446 17.4686 16.6283 17.6189 15.7931C17.9876 13.7427 17.2542 12.0996 15.5141 10.9321C15.1792 10.7072 14.8298 10.5033 14.4803 10.2994L14.4803 10.2994L14.4803 10.2994L14.4803 10.2994L14.4803 10.2994L14.4803 10.2994L14.4803 10.2994L14.4803 10.2994C14.2597 10.1706 14.039 10.0419 13.8219 9.90778C13.7405 9.85741 13.6585 9.80758 13.5764 9.75772C13.2453 9.55649 12.9134 9.35472 12.6118 9.11543C11.5442 8.26757 11.4753 7.09892 12.4119 6.10206C12.4324 6.08044 12.4528 6.05882 12.4745 6.0372C12.6696 5.84028 12.53 5.50313 12.2524 5.51131C12.0736 5.51715 11.9106 5.53702 11.7639 5.59662L11.5809 5.67075C10.5709 6.07961 9.55046 6.49269 8.622 7.04867C7.30726 7.83634 7.33122 8.44638 8.55305 9.36377C8.80088 9.54964 9.05311 9.73012 9.30529 9.91056L9.3053 9.91056L9.30531 9.91057L9.30532 9.91058L9.30533 9.91059L9.30534 9.9106L9.30536 9.91061L9.30537 9.91062C9.79993 10.2645 10.2943 10.6182 10.7548 11.0122C12.3243 12.3538 12.5878 14.0518 11.3724 15.7177C10.7186 16.6135 9.87421 17.3965 9.017 18.1135C8.39015 18.638 7.69038 19.0778 6.9921 19.5166L6.99203 19.5166L6.99197 19.5166L6.9919 19.5167L6.99183 19.5167L6.99177 19.5168L6.9917 19.5168L6.99164 19.5169C6.78856 19.6445 6.58561 19.772 6.38461 19.9015C5.90488 20.2112 5.44093 20.12 5.20252 19.7239C4.96119 19.323 5.12364 18.9169 5.58 18.5885C5.76725 18.4536 5.95481 18.319 6.14239 18.1843L6.14242 18.1843L6.14245 18.1843L6.14248 18.1842L6.14251 18.1842L6.14254 18.1842L6.14257 18.1842L6.1426 18.1841C7.20762 17.4196 8.27362 16.6544 9.29105 15.8317C9.73748 15.4706 10.0641 14.9301 10.3557 14.4205C10.7396 13.7497 10.6414 13.0538 10.0846 12.5197C9.70597 12.1561 9.28662 11.8348 8.86727 11.5135C8.69893 11.3845 8.5306 11.2555 8.36489 11.1238C8.20536 10.9968 8.04095 10.8749 7.87658 10.7531C7.54849 10.5098 7.2206 10.2668 6.93213 9.98374C5.80964 8.88228 5.81139 7.57924 6.91109 6.45733C7.0449 6.32118 7.18864 6.19438 7.34232 6.06583ZM4.87279 14.9749C4.70283 14.9751 4.53288 14.9757 4.36293 14.9764C3.93804 14.978 3.51315 14.9796 3.08825 14.9738C2.49867 14.965 2.18722 14.6898 2.19307 14.2048C2.19891 13.7362 2.50101 13.4645 3.06313 13.4604C4.28495 13.4522 5.50678 13.451 6.72861 13.4615C7.27904 13.4662 7.58172 13.7566 7.57529 14.2282C7.56945 14.6962 7.26794 14.9632 6.70523 14.972C6.28892 14.9788 5.87233 14.9774 5.45585 14.976H5.45575C5.2614 14.9754 5.06706 14.9747 4.87279 14.9749ZM20.5636 6.83715C20.4117 6.8379 20.2598 6.83866 20.1079 6.83866C19.9453 6.83866 19.7827 6.83784 19.6201 6.83702C19.2513 6.83516 18.8825 6.8333 18.5139 6.841C17.9862 6.8521 17.6701 7.16355 17.683 7.63335C17.6947 8.07626 18.0119 8.3731 18.5156 8.37719C19.5458 8.38537 20.5765 8.38537 21.6073 8.37544C22.104 8.37077 22.4353 8.06341 22.4499 7.63159C22.4651 7.18458 22.1203 6.8521 21.6055 6.841C21.2584 6.83368 20.9109 6.83541 20.5636 6.83715ZM2.61886 11.6594C2.50544 11.6594 2.39201 11.6602 2.2786 11.6611H2.27859H2.27858H2.27857H2.27856H2.27854C2.02156 11.6629 1.76467 11.6648 1.50806 11.6571C1.01723 11.6431 0.684745 11.3316 0.677733 10.8992C0.671305 10.4662 0.999697 10.1314 1.48644 10.1226C2.27528 10.1086 3.06471 10.1098 3.85296 10.1215C4.35665 10.1291 4.66517 10.4294 4.67102 10.8788C4.67745 11.3485 4.36249 11.6454 3.82608 11.6577C3.54852 11.6641 3.27067 11.6625 2.99275 11.6609L2.99255 11.6609C2.868 11.6601 2.74343 11.6594 2.61886 11.6594ZM14.866 18.0913C15.1576 18.2105 15.4743 18.1164 15.6537 17.9516C15.7706 17.8441 15.8179 17.7202 15.8319 17.6758C16.0131 17.0938 16.1447 16.6975 16.2516 16.3752L16.2518 16.3747L16.2519 16.3746L16.2519 16.3746C16.4002 15.9279 16.5012 15.6236 16.6214 15.1644C16.7242 14.7711 16.4052 14.4018 16.0084 14.3212C15.6204 14.2429 15.2412 14.4813 15.1173 14.8798C15.0668 15.0437 15.0262 15.1632 14.9814 15.2948L14.9814 15.2949C14.8788 15.5968 14.7545 15.9628 14.4383 17.0757C14.3933 17.2346 14.3729 17.379 14.4173 17.5519C14.4331 17.6133 14.5277 17.9528 14.866 18.0913ZM22.1307 12.3659H22.1307H22.1306C21.9306 12.3697 21.7305 12.3734 21.5315 12.3585C21.1061 12.3264 20.7912 11.998 20.8163 11.6053C20.8426 11.1893 21.067 10.8918 21.4976 10.8696C22.1065 10.8387 22.7194 10.8439 23.3289 10.8737C23.7222 10.8924 24.0038 11.2419 24.0003 11.6193C23.9962 11.998 23.7128 12.3205 23.3149 12.3538C23.1047 12.3716 22.8929 12.3673 22.681 12.3629H22.6809H22.6809H22.6808C22.5869 12.361 22.493 12.3591 22.3992 12.3591V12.3626C22.3098 12.3626 22.2203 12.3643 22.1307 12.3659H22.1307H22.1307ZM14.3586 11.338C14.2394 11.2217 14.0238 11.0125 13.7188 11.0289C13.4582 11.0429 13.2315 11.2199 13.1228 11.4262C12.9926 11.6731 13.0566 11.9229 13.1243 12.1872L13.1245 12.1882C13.1824 12.4125 13.2689 12.5674 13.36 12.7304C13.4792 12.9431 13.5756 13.1149 13.7667 13.2785L13.7668 13.2786C13.9152 13.4054 14.0717 13.5391 14.3031 13.5485C14.6566 13.5631 14.8956 13.2756 14.9295 13.2335C14.9687 13.1856 15.0546 13.0758 15.0879 12.911C15.1317 12.6959 15.0575 12.5201 14.9611 12.2974C14.9136 12.1893 14.8444 12.0771 14.7098 11.8589L14.7057 11.8522C14.5222 11.5559 14.4305 11.4081 14.3586 11.338ZM21.4163 16.4547C21.244 16.4471 21.0108 16.4185 20.7625 16.2736C20.4598 16.0971 20.3476 15.7839 20.4639 15.4392C20.6438 14.9058 21.0888 14.9027 21.5444 14.8995L21.5718 14.8993C22.0153 14.8958 22.377 15.0039 22.5166 15.4649C22.571 15.6437 22.564 15.812 22.502 15.9563C22.4237 16.1392 22.2806 16.2309 22.1894 16.2888C21.8975 16.4758 21.5917 16.4624 21.4179 16.4548L21.4163 16.4547ZM13.4564 19.3005C13.4406 19.7159 13.7772 20.0712 14.1968 20.0823C14.628 20.0934 14.9809 19.7744 14.9961 19.3583C15.0119 18.9417 14.6788 18.5905 14.2552 18.5777C13.824 18.5642 13.4728 18.8821 13.4564 19.3005Z" fill="#0C1E3C"/>
</svg>
