<svg width="24" height="24" viewBox="0 0 24 24" fill="none" xmlns="http://www.w3.org/2000/svg">
<path fill-rule="evenodd" clip-rule="evenodd" d="M16.6698 15.6669C18.2512 14.0059 19.2377 11.7818 19.2377 9.33256C19.2377 4.19471 14.9288 0 9.61887 0C4.30891 0 0 4.19471 0 9.33256C0 14.4704 4.30891 18.6651 9.61887 18.6651C11.7806 18.6651 13.7682 17.9754 15.3786 16.807L22.531 23.7466C22.7051 23.9155 22.9228 24 23.1404 24C23.358 24 23.5901 23.9155 23.7497 23.7466C24.0834 23.4229 24.0834 22.888 23.7497 22.5502L16.6698 15.6669ZM1.74097 9.33256C1.74097 5.12374 5.26644 1.68915 9.61887 1.68915C13.9568 1.68915 17.4968 5.10968 17.4968 9.33256C17.4968 13.5554 13.9713 16.976 9.61887 16.976C5.26644 16.976 1.74097 13.5414 1.74097 9.33256Z" fill="#0092C9"/>
<mask id="mask0_0_2634" style="mask-type:luminance" maskUnits="userSpaceOnUse" x="0" y="0" width="24" height="24">
<path fill-rule="evenodd" clip-rule="evenodd" d="M16.6698 15.6669C18.2512 14.0059 19.2377 11.7818 19.2377 9.33256C19.2377 4.19471 14.9288 0 9.61887 0C4.30891 0 0 4.19471 0 9.33256C0 14.4704 4.30891 18.6651 9.61887 18.6651C11.7806 18.6651 13.7682 17.9754 15.3786 16.807L22.531 23.7466C22.7051 23.9155 22.9228 24 23.1404 24C23.358 24 23.5901 23.9155 23.7497 23.7466C24.0834 23.4229 24.0834 22.888 23.7497 22.5502L16.6698 15.6669ZM1.74097 9.33256C1.74097 5.12374 5.26644 1.68915 9.61887 1.68915C13.9568 1.68915 17.4968 5.10968 17.4968 9.33256C17.4968 13.5554 13.9713 16.976 9.61887 16.976C5.26644 16.976 1.74097 13.5414 1.74097 9.33256Z" fill="white"/>
</mask>
<g mask="url(#mask0_0_2634)">
</g>
</svg>
