<svg width="24" height="24" viewBox="0 0 24 24" fill="none" xmlns="http://www.w3.org/2000/svg">
<path fill-rule="evenodd" clip-rule="evenodd" d="M12.2722 2.01333C12.2433 2.00897 12.2143 2.00461 12.1855 2H11.7925C11.7703 2.00366 11.7479 2.00699 11.7254 2.01033C11.6821 2.01678 11.6385 2.02325 11.5956 2.03221C10.6908 2.22334 10.1045 2.7681 9.81962 3.64142C9.73926 3.88874 9.73935 4.14677 9.73944 4.40321L9.73945 4.42885C9.73873 4.95571 9.73873 5.48328 9.73945 6.01014C9.73945 6.03018 9.73945 6.05023 9.74159 6.07027C9.74947 6.14329 9.78526 6.18337 9.85899 6.1891C9.90676 6.19278 9.95452 6.19222 10.0023 6.19166H10.0023C10.0197 6.19145 10.037 6.19125 10.0544 6.19125H14.0946C14.2192 6.19125 14.2578 6.15259 14.2578 6.02875L14.2581 5.55322V5.55309V5.55297V5.55284V5.55272V5.55259V5.55247C14.2584 5.15676 14.2587 4.76131 14.2571 4.36585C14.2564 4.21911 14.2521 4.07093 14.2313 3.92561C14.1583 3.40162 13.9257 2.95851 13.537 2.59844C13.2242 2.30996 12.8619 2.11811 12.4417 2.0408C12.3854 2.03039 12.3288 2.02185 12.2722 2.01333ZM12.0273 5.52623H13.5055C13.5957 5.52623 13.5957 5.52623 13.5957 5.43675L13.5951 5.02461C13.5948 4.7496 13.5945 4.47449 13.5935 4.19906C13.5928 4.1375 13.59 4.07522 13.5799 4.01438C13.4976 3.52904 13.2535 3.15179 12.829 2.8948C12.6071 2.76022 12.3702 2.67146 12.1089 2.65356C11.7653 2.62994 11.4525 2.72729 11.1611 2.90196C10.7652 3.1389 10.5104 3.47821 10.4374 3.93707C10.4088 4.11531 10.4037 4.29857 10.4009 4.47967C10.3977 4.70179 10.4 4.9243 10.4023 5.14663C10.4031 5.22595 10.4039 5.30525 10.4045 5.3845C10.4045 5.39426 10.404 5.40415 10.4035 5.41407L10.4035 5.41411C10.4025 5.43692 10.4014 5.45991 10.4059 5.48185C10.4095 5.49903 10.4309 5.52194 10.4467 5.5248C10.4728 5.52881 10.4995 5.52791 10.5263 5.527C10.5377 5.52662 10.5491 5.52623 10.5605 5.52623H12.0273ZM0 6.30865V21.2196C0.0102556 21.2497 0.0194001 21.2805 0.0285583 21.3113C0.0488052 21.3795 0.0691184 21.4479 0.101649 21.5095C0.269872 21.8324 0.551198 21.9798 0.906971 21.9806C1.83973 21.9832 2.77248 21.9827 3.70524 21.9823H3.707C4.05716 21.9821 4.40732 21.982 4.75748 21.982L5.59608 21.9821H5.59615H5.59622H5.59629H5.59635H5.59642H5.59649H5.59655H5.59662C6.43338 21.9822 7.26994 21.9823 8.1069 21.9813C8.25508 21.9813 8.39753 21.9491 8.53784 21.8889C8.58222 21.9877 8.66669 21.9984 8.75831 21.9963L8.79958 21.9954L8.79976 21.9954C8.82753 21.9948 8.8554 21.9942 8.88359 21.9942C10.598 21.9934 12.3125 21.9934 14.0262 21.9942C14.2274 21.9942 14.4285 21.9947 14.6295 21.9952H14.6297H14.63H14.6303H14.6305H14.6308H14.6311H14.6313H14.6316C14.8317 21.9958 15.0317 21.9963 15.2317 21.9963C15.271 21.9963 15.3118 21.9927 15.3505 21.9841C15.3741 21.9791 15.4063 21.967 15.4149 21.9491C15.4458 21.8828 15.487 21.8986 15.5325 21.916L15.5481 21.9219C15.6612 21.9627 15.7786 21.9827 15.8995 21.9827C18.1122 21.982 20.3249 21.982 22.5375 21.982C22.6117 21.982 22.6859 21.9822 22.76 21.9824C22.8713 21.9828 22.9825 21.9831 23.0937 21.9827C23.5991 21.982 23.9993 21.5804 23.9993 21.0757V21.0563C23.9993 16.1886 23.9993 11.3217 24.0007 6.45468C24.0007 6.09103 23.849 5.8183 23.5383 5.63576C23.4152 5.56346 23.2777 5.53554 23.136 5.53554C22.1179 5.53518 21.0999 5.535 20.082 5.53482C19.0637 5.53464 18.0454 5.53446 17.027 5.53411H15.8816C15.4113 5.53411 15.0677 5.81901 14.9833 6.28144C14.9718 6.34158 14.969 6.40385 14.969 6.46542C14.9682 9.4172 14.9682 12.3697 14.9682 15.3215V15.3333C14.9682 15.3858 14.9681 15.4383 14.9679 15.4909C14.9677 15.5437 14.9675 15.5966 14.9675 15.6497C14.9675 15.6668 14.9654 15.6847 14.9604 15.7019C14.9482 15.5373 14.936 15.3726 14.9224 15.208C14.9128 15.087 14.9026 14.9658 14.8924 14.8447C14.8822 14.7235 14.872 14.6024 14.8623 14.4814C14.8451 14.2695 14.8294 14.0576 14.8143 13.8457C14.8064 13.7309 14.7987 13.6161 14.7911 13.5014L14.791 13.5007L14.791 13.5C14.778 13.3054 14.765 13.1108 14.7506 12.9166C14.7397 12.7711 14.7278 12.6256 14.7158 12.4801L14.7158 12.4797C14.7005 12.2924 14.6852 12.1052 14.6719 11.918C14.6418 11.5049 14.6146 11.0919 14.5874 10.6789C14.5797 10.5602 14.5725 10.4415 14.5653 10.3228L14.5653 10.3225C14.5538 10.1332 14.5423 9.9438 14.5287 9.7547C14.5115 9.50676 14.4923 9.25849 14.4732 9.01034L14.4732 9.0102L14.4732 9.01008L14.4731 9.00996L14.4731 9.00987L14.4731 9.00978L14.4731 9.00933L14.4731 9.00908C14.4636 8.88654 14.4542 8.76402 14.445 8.64157C14.4084 8.16769 14.3719 7.69308 14.3361 7.2192C14.3339 7.1868 14.3336 7.1542 14.3333 7.12161C14.3331 7.09228 14.3328 7.06296 14.3311 7.03379C14.3247 6.91854 14.2689 6.86629 14.1543 6.86629C12.7291 6.86557 11.3038 6.86557 9.8786 6.86557C9.86357 6.86557 9.84926 6.86629 9.83494 6.867C9.71396 6.87416 9.66314 6.91926 9.66815 7.04095C9.67649 7.23369 9.65514 7.42402 9.6338 7.61429L9.6338 7.6143C9.62217 7.71801 9.61054 7.82169 9.60372 7.92573C9.58225 8.25502 9.56006 8.58502 9.53429 8.91431C9.52362 9.04979 9.51118 9.18528 9.49873 9.32085L9.49873 9.32095L9.49872 9.32105L9.49871 9.32114L9.4987 9.32124L9.49869 9.32134L9.49868 9.32144L9.49867 9.32153L9.49867 9.32163L9.49866 9.3217L9.49865 9.32177L9.49865 9.32184L9.49864 9.32191L9.49864 9.32198L9.49863 9.32205L9.49863 9.32212L9.49862 9.32219C9.48605 9.45908 9.47347 9.59607 9.4627 9.73323C9.45718 9.80286 9.45506 9.87287 9.45295 9.94297C9.45095 10.0091 9.44895 10.0752 9.44409 10.1413C9.42732 10.3667 9.40961 10.592 9.3919 10.8174C9.37863 10.9865 9.36535 11.1555 9.35246 11.3245C9.34162 11.4646 9.33124 11.6045 9.32086 11.7445C9.30518 11.9557 9.28951 12.1668 9.27229 12.3783C9.2594 12.5411 9.24509 12.7038 9.23077 12.8665C9.21645 13.0291 9.20214 13.1918 9.18925 13.3547C9.18168 13.4543 9.17591 13.554 9.17014 13.6538L9.17013 13.6539L9.17013 13.654L9.17012 13.6541L9.17011 13.6542L9.17011 13.6543L9.1701 13.6544L9.1701 13.6545L9.17009 13.6546L9.17008 13.6547C9.16497 13.7433 9.15985 13.8318 9.15346 13.9202C9.14154 14.089 9.12834 14.2578 9.11515 14.4267L9.11512 14.4271C9.10852 14.5115 9.10192 14.596 9.09548 14.6804C9.08341 14.8364 9.07199 14.9926 9.06056 15.149L9.04393 15.3755C9.04322 15.3862 9.04179 15.3962 9.02962 15.407V15.3304L9.02971 13.117V13.1118C9.02984 10.8992 9.02997 8.6866 9.0289 6.47401C9.0289 6.20055 8.95088 5.95431 8.74328 5.76318C8.58079 5.61428 8.38393 5.54914 8.16775 5.53554C8.14599 5.53382 8.12423 5.53394 8.10247 5.53405H8.10246L8.08614 5.53411L6.31482 5.5342C4.5437 5.53433 2.77258 5.53446 1.00146 5.53339C0.832523 5.53339 0.666448 5.54127 0.51111 5.61213C0.227637 5.7417 0.067289 5.96504 0.0121693 6.26856C0.0106776 6.27801 0.00745878 6.28711 0.0041925 6.29635L0 6.30865ZM0.632803 13.7606H0.635667V16.8358C0.635667 18.2267 0.635667 19.6176 0.636383 21.0084C0.636383 21.0478 0.63853 21.0879 0.644257 21.1273C0.658574 21.2375 0.711546 21.2984 0.820354 21.322C0.869031 21.332 0.920572 21.3363 0.971396 21.3363C2.40263 21.3368 3.83418 21.3366 5.26562 21.3365L7.41253 21.3363C7.42435 21.3363 7.43616 21.3367 7.44797 21.337C7.45978 21.3374 7.47159 21.3377 7.4834 21.3377C7.56026 21.3368 7.63704 21.3361 7.71377 21.3355H7.71409L7.71446 21.3355H7.71449H7.71451H7.71454H7.71456H7.71459H7.71462H7.71464H7.71467C7.86846 21.3342 8.02204 21.333 8.17562 21.3291C8.26939 21.327 8.34241 21.2676 8.36675 21.1774C8.38035 21.1237 8.38536 21.0664 8.38536 21.0106C8.38608 16.1801 8.38608 11.3503 8.38608 6.51982C8.38608 6.47615 8.38321 6.43249 8.3782 6.38954C8.36603 6.27858 8.30733 6.21058 8.19781 6.18552C8.15558 6.17622 8.11119 6.17478 8.06824 6.17478H0.966385C0.934173 6.17478 0.901244 6.17478 0.868315 6.17765C0.737316 6.18839 0.658574 6.26212 0.642109 6.39312C0.637098 6.4375 0.633519 6.48331 0.633519 6.52841C0.632803 8.93936 0.632803 11.3496 0.632803 13.7606ZM15.6139 21.0063V13.7419V6.6365L15.6138 6.59613V6.59611C15.6135 6.52423 15.6132 6.45208 15.6211 6.38095C15.634 6.25997 15.7285 6.18051 15.8509 6.17693C15.8673 6.17622 15.8838 6.17622 15.9003 6.17622C18.284 6.17622 20.667 6.17622 23.0501 6.17693L23.0704 6.1767C23.093 6.17632 23.1154 6.17594 23.1374 6.1798C23.2806 6.20199 23.3536 6.28574 23.3586 6.43106C23.3597 6.44718 23.3595 6.46372 23.3594 6.48005L23.3593 6.4962L23.3592 10.0626C23.359 12.4404 23.3588 14.8183 23.3593 17.1959C23.3593 17.8906 23.3604 18.5852 23.3615 19.2799C23.3624 19.8358 23.3633 20.3917 23.3636 20.9476C23.3636 21.0106 23.355 21.0743 23.345 21.1366C23.33 21.2346 23.2706 21.2969 23.1739 21.3177C23.1174 21.3299 23.0587 21.3392 23.0014 21.3399C22.1653 21.3406 21.3285 21.3406 20.4924 21.3399C20.1713 21.3396 19.8501 21.3391 19.5289 21.3386H19.5288H19.5286H19.5285C19.0463 21.3378 18.5641 21.337 18.0821 21.337C17.7221 21.337 17.3622 21.3375 17.0023 21.3381L16.9985 21.3381C16.6399 21.3386 16.2812 21.3392 15.9225 21.3392C15.8795 21.3392 15.8351 21.3349 15.7929 21.3248C15.6755 21.2969 15.6218 21.2175 15.6139 21.0664C15.6134 21.0531 15.6136 21.0397 15.6138 21.0263L15.6139 21.0063ZM13.8164 9.25707C13.8186 9.31012 13.8209 9.36377 13.8236 9.41826H13.7535H10.258C10.1764 9.41826 10.1728 9.41826 10.1778 9.33737C10.1875 9.18571 10.1985 9.03405 10.2094 8.88262L10.2094 8.8825L10.2251 8.66376C10.2305 8.58982 10.2356 8.51598 10.2408 8.44217L10.2408 8.44148C10.2487 8.32903 10.2565 8.21663 10.2652 8.10398C10.2788 7.93217 10.2931 7.76037 10.3103 7.58929C10.3117 7.57282 10.3367 7.55636 10.3539 7.54562C10.3614 7.54113 10.3724 7.54221 10.3832 7.54327C10.3879 7.54373 10.3925 7.54419 10.3969 7.54419H13.6031C13.6854 7.54419 13.6862 7.54562 13.6933 7.62866L13.7241 8.00239L13.7241 8.00243L13.7242 8.00247L13.7242 8.00251L13.7242 8.00255L13.7242 8.00259L13.7242 8.00263L13.7242 8.00267L13.7242 8.00271L13.7242 8.00275L13.7242 8.00279L13.7242 8.00283L13.7242 8.00287L13.7242 8.00291L13.7242 8.00295C13.7493 8.30672 13.7745 8.61033 13.7978 8.91431C13.8067 9.02735 13.8115 9.14073 13.8164 9.257L13.8164 9.25707ZM13.9038 12.4613H12.0061H10.4033L10.2719 12.4622L10.2716 12.4622C10.1846 12.4628 10.0976 12.4634 10.011 12.4634C9.94589 12.4634 9.93587 12.4506 9.94088 12.3847L9.94824 12.2906C9.98158 11.8639 10.0149 11.4378 10.0475 11.011C10.0697 10.7254 10.0912 10.439 10.1091 10.1534C10.1127 10.0997 10.1299 10.0811 10.1836 10.0804C10.3435 10.0797 10.5034 10.0777 10.6632 10.0758C10.823 10.0738 10.9828 10.0718 11.1428 10.0711C11.4175 10.0703 11.692 10.0706 11.9665 10.0709H11.9665H11.9666H11.9666H11.9666H11.9666H11.9666H11.9667H11.9667H11.9667H11.9667H11.9668H11.9668H11.9668H11.9668C12.1865 10.0712 12.4062 10.0714 12.626 10.0711C12.8767 10.0711 13.1277 10.0705 13.3787 10.0698L13.7542 10.069C13.7642 10.069 13.7742 10.0691 13.7842 10.0693L13.7944 10.0695L13.8143 10.0697C13.8644 10.0697 13.8852 10.0969 13.8887 10.1441L13.9053 10.3811L13.9054 10.3821C13.9211 10.6087 13.9369 10.8354 13.9539 11.0618C13.9677 11.2484 13.9823 11.4351 13.9969 11.6219C14.0065 11.7447 14.0161 11.8676 14.0255 11.9903C14.0332 12.0869 14.0403 12.1832 14.0474 12.2797L14.0474 12.2798L14.0577 12.4191C14.0598 12.4477 14.0512 12.4634 14.0183 12.462C13.9913 12.4605 13.9642 12.4608 13.9369 12.4611L13.9038 12.4613ZM12.0004 15.5616H14.1808C14.1911 15.5616 14.2015 15.5611 14.2118 15.5607L14.2118 15.5607H14.2118H14.2119H14.2119H14.2119H14.2119H14.212H14.212H14.212H14.212H14.2121H14.2121H14.2121H14.2121C14.2274 15.56 14.2425 15.5593 14.2574 15.5602C14.2925 15.5616 14.2996 15.5459 14.2961 15.5136C14.2918 15.4704 14.289 15.4268 14.2863 15.3833C14.2844 15.3542 14.2826 15.325 14.2803 15.296C14.261 15.0483 14.2417 14.8007 14.2216 14.5523C14.212 14.4312 14.2022 14.31 14.1925 14.1887C14.1818 14.0568 14.1712 13.9248 14.1608 13.7928C14.1457 13.5938 14.1314 13.3948 14.1171 13.1958C14.1135 13.1499 14.0906 13.1256 14.0441 13.1256H13.9131H9.98741H9.93802C9.90151 13.127 9.88433 13.1442 9.88147 13.1829C9.87247 13.2976 9.8629 13.4122 9.85333 13.5267L9.85332 13.5267L9.85332 13.5267L9.85332 13.5268L9.85331 13.5268L9.85331 13.5268L9.85331 13.5269L9.85331 13.5269L9.8533 13.527L9.8533 13.527L9.8533 13.527L9.85329 13.5271L9.85329 13.5271L9.85329 13.5271L9.85327 13.5273C9.84155 13.6676 9.82983 13.8079 9.81919 13.9481C9.78965 14.3283 9.76137 14.7084 9.73306 15.0889L9.7068 15.4413C9.70216 15.5013 9.69984 15.5314 9.71375 15.5464C9.72775 15.5616 9.75817 15.5616 9.81919 15.5616H12.0004ZM9.33743 21.3299H9.25582C9.2593 21.2926 9.26287 21.2563 9.26637 21.2207C9.27296 21.1538 9.27932 21.0891 9.28446 21.0242C9.29304 20.922 9.30069 20.8199 9.30833 20.7177L9.30836 20.7174C9.3141 20.6407 9.31984 20.564 9.32598 20.4873C9.33312 20.3995 9.34065 20.3118 9.34818 20.2243L9.34824 20.2236C9.36106 20.0745 9.37386 19.9256 9.38468 19.7765C9.39284 19.6628 9.39672 19.5486 9.40058 19.4348L9.40059 19.4347L9.40059 19.4346L9.40059 19.4346L9.4006 19.4345L9.4006 19.4345L9.4006 19.4344L9.4006 19.4344L9.40061 19.4343L9.40061 19.4342L9.40061 19.4342L9.40062 19.4341L9.40062 19.434L9.40329 19.357C9.40615 19.2625 9.4083 19.2589 9.50207 19.2589H11.3726L12.0669 19.2591H12.0711C12.5326 19.2592 12.9941 19.2594 13.4557 19.2589C13.6573 19.2589 13.8589 19.2582 14.0604 19.2574L14.0615 19.2574H14.0619H14.0624H14.0629H14.0633H14.0638H14.0642H14.0647H14.0652H14.0656H14.0661H14.0666H14.067C14.1995 19.2569 14.332 19.2563 14.4643 19.2561C14.5731 19.2561 14.5874 19.2747 14.5946 19.382C14.6051 19.5562 14.6182 19.7306 14.6312 19.905C14.6367 19.9786 14.6422 20.0522 14.6475 20.1258C14.6516 20.185 14.6554 20.2441 14.6592 20.3033C14.6669 20.4217 14.6745 20.54 14.684 20.6584C14.6998 20.8459 14.7163 21.0342 14.737 21.2218L14.7374 21.2253C14.7478 21.3278 14.748 21.3299 14.644 21.3299H9.33743ZM12.0512 18.6046H14.4292L14.4435 18.6045C14.4531 18.6043 14.4628 18.6042 14.4729 18.6046C14.5094 18.6075 14.5258 18.5932 14.5223 18.5538C14.5185 18.5121 14.5159 18.47 14.5134 18.428L14.5134 18.428L14.5134 18.4279L14.5134 18.4278C14.5121 18.4065 14.5108 18.3853 14.5094 18.3641L14.4927 18.1223L14.4927 18.1222C14.4815 17.9583 14.4703 17.7945 14.4578 17.6304C14.4493 17.5114 14.4394 17.3921 14.4294 17.2729L14.4294 17.2727L14.4294 17.2726C14.4235 17.2019 14.4176 17.1312 14.412 17.0606C14.392 16.8036 14.3727 16.5466 14.3548 16.2889C14.3512 16.2388 14.3369 16.2066 14.2774 16.2145C14.2607 16.2167 14.2434 16.2156 14.2261 16.2144H14.2261H14.2261H14.2261H14.2261H14.2261H14.226H14.226H14.226H14.226C14.2159 16.2137 14.2058 16.213 14.1958 16.213C12.7448 16.2123 11.2938 16.2123 9.84353 16.213C9.82397 16.213 9.80429 16.2136 9.78464 16.2141C9.75324 16.2149 9.72188 16.2158 9.69105 16.2145C9.65741 16.213 9.64524 16.2259 9.64309 16.2581L9.63044 16.45L9.6304 16.4507C9.61329 16.7108 9.59618 16.9707 9.57724 17.2302C9.56748 17.3645 9.55644 17.4989 9.5454 17.6332C9.5362 17.7451 9.527 17.857 9.51854 17.969C9.50995 18.0786 9.50229 18.1882 9.49464 18.2978C9.4889 18.3801 9.48315 18.4623 9.47702 18.5445C9.47415 18.5782 9.48275 18.5939 9.52068 18.5946C9.56965 18.5953 9.61862 18.5972 9.66759 18.5992L9.66774 18.5992C9.72753 18.6016 9.78732 18.6039 9.84711 18.6039C10.3975 18.605 10.948 18.6049 11.4987 18.6047H11.4988H11.4989H11.499H11.4991H11.4992H11.4993H11.4994H11.4995H11.4996H11.4997H11.4998L12.0512 18.6046ZM4.39118 10.6638H7.26528C7.37194 10.6638 7.39342 10.6853 7.39342 10.7912V11.1778C7.39342 11.2744 7.35548 11.3138 7.25813 11.3138C7.10923 11.3138 6.96016 11.3134 6.81108 11.3131L6.8099 11.3131C6.66122 11.3127 6.51254 11.3124 6.36404 11.3124C5.42995 11.3119 4.49585 11.3121 3.56155 11.3122H3.56139H3.56123H3.56107H3.56091H3.56075L2.15848 11.3124C2.12054 11.3124 2.0826 11.3124 2.04466 11.3117C2.00099 11.3102 1.98811 11.3353 1.98882 11.3732C1.9893 11.3894 1.99001 11.4056 1.99072 11.4218C1.99215 11.4546 1.99359 11.4874 1.99312 11.52C1.9924 11.7276 1.99025 11.9344 1.98811 12.1413C1.98739 12.2272 1.99312 12.2344 2.07973 12.2344L4.6811 12.2322H7.22878C7.36407 12.2322 7.40201 12.2773 7.39485 12.4119C7.38912 12.5071 7.38913 12.6038 7.39414 12.6997C7.40201 12.835 7.3655 12.8779 7.22806 12.8779C6.31107 12.8776 5.3939 12.877 4.47673 12.8765C3.55956 12.876 2.64238 12.8754 1.72539 12.8751C1.69687 12.8751 1.66842 12.8754 1.64003 12.8757H1.63993H1.63983H1.63974H1.63964H1.63954C1.58259 12.8763 1.52586 12.877 1.46912 12.8751C1.38465 12.8715 1.34743 12.8335 1.346 12.7484C1.34385 12.6118 1.34456 12.476 1.34528 12.3394L1.34528 12.3389C1.34558 12.2764 1.34649 12.2137 1.34741 12.151C1.3487 12.0629 1.34999 11.9747 1.34957 11.8865C1.3491 11.6545 1.34799 11.4224 1.34688 11.1902L1.34688 11.1901L1.34528 10.8399C1.34456 10.7003 1.38394 10.6617 1.52209 10.6617H3.75838H4.39118V10.6638ZM2.0194 15.1418L1.99705 15.1403C1.99612 15.1313 1.99512 15.123 1.99419 15.1154C1.99224 15.0995 1.99061 15.0861 1.99061 15.073C1.99097 14.9471 1.99151 14.8214 1.99205 14.6958L1.99205 14.6957C1.99258 14.5707 1.99312 14.4457 1.99347 14.3207C1.99347 14.2689 1.99347 14.2428 2.00654 14.2296C2.01984 14.2162 2.04668 14.2162 2.10085 14.2162C3.80026 14.2162 5.50038 14.2162 7.19979 14.2169C7.22341 14.2169 7.24703 14.2176 7.27065 14.219C7.35512 14.2226 7.39235 14.1897 7.39306 14.1045C7.39449 13.9685 7.39449 13.8325 7.39306 13.6965C7.39235 13.6228 7.3587 13.5862 7.28569 13.5777C7.26907 13.5755 7.25285 13.5758 7.23643 13.576L7.21983 13.5762H1.75581C1.72741 13.5762 1.699 13.5759 1.67059 13.5755C1.60808 13.5748 1.54558 13.574 1.48308 13.5769C1.39217 13.5805 1.3528 13.6206 1.35136 13.7094C1.35 13.7891 1.35066 13.8688 1.35132 13.9485C1.3517 13.9941 1.35208 14.0396 1.35208 14.0852C1.35208 14.2624 1.3519 14.4395 1.35172 14.6167C1.35154 14.7939 1.35136 14.971 1.35136 15.1482C1.35136 15.2072 1.35113 15.2661 1.35089 15.3249V15.3249V15.3249V15.325V15.325C1.35041 15.4425 1.34993 15.5599 1.35136 15.6772C1.35208 15.7474 1.39074 15.7832 1.46089 15.7867C1.47592 15.7878 1.49095 15.7877 1.50598 15.7875L1.52102 15.7875H4.34H4.34389C5.319 15.7875 6.29411 15.7875 7.26922 15.7867C7.34868 15.7867 7.39163 15.7459 7.39306 15.6672C7.39521 15.5369 7.39593 15.4066 7.39449 15.2756C7.39378 15.1926 7.35226 15.1511 7.26707 15.1439C7.2456 15.1418 7.22412 15.1411 7.20193 15.1411C7.11313 15.1413 7.02444 15.1419 6.93577 15.1424H6.93562H6.93547H6.93532H6.93517C6.80247 15.1431 6.66982 15.1439 6.53692 15.1439H2.06506C2.05024 15.1439 2.03542 15.1429 2.01942 15.1418H2.01941H2.0194ZM1.98861 8.39969V8.59655V9.22291C1.98861 9.32026 1.99433 9.32742 2.09455 9.3267C2.16222 9.32639 2.22989 9.3255 2.29763 9.32462C2.38251 9.32352 2.46749 9.32241 2.55269 9.32241C3.48402 9.32193 4.41534 9.32209 5.34667 9.32225H5.34876L6.7468 9.32241C6.79641 9.32219 6.84602 9.32179 6.89563 9.32138C7.01138 9.32043 7.12713 9.31947 7.24288 9.32098C7.36171 9.32169 7.4018 9.36965 7.39392 9.48848C7.39339 9.49644 7.39257 9.50439 7.39174 9.51237C7.39033 9.52596 7.38891 9.53965 7.38891 9.55363L7.38919 9.58942C7.38971 9.66069 7.39024 9.73233 7.39392 9.80345C7.39965 9.923 7.36386 9.96237 7.24431 9.96237C6.46941 9.96237 5.69452 9.96219 4.91953 9.96201H4.91926H4.91899H4.91872C4.14329 9.96183 3.36776 9.96165 2.59206 9.96165C2.41001 9.96165 2.22777 9.96183 2.04554 9.96201L2.04408 9.96201L2.04263 9.96201C1.8604 9.96219 1.67816 9.96237 1.49611 9.96237C1.38515 9.96237 1.34507 9.923 1.34507 9.81133C1.3456 9.7214 1.34644 9.63148 1.34728 9.54155C1.34868 9.39167 1.35008 9.24179 1.35008 9.09191C1.34965 8.85743 1.34844 8.62296 1.34724 8.38848L1.34724 8.38837C1.34644 8.23204 1.34564 8.0757 1.34507 7.91936C1.34507 7.79337 1.38157 7.75615 1.50685 7.75615H3.43747C3.63724 7.75643 3.83701 7.75695 4.03683 7.75747C4.33679 7.75824 4.63684 7.75901 4.93715 7.75901C5.69856 7.75901 6.45996 7.75758 7.22136 7.75615L7.22212 7.75615C7.24216 7.75615 7.26221 7.75615 7.28225 7.75758C7.35455 7.76331 7.39321 7.79982 7.39464 7.8714C7.39678 8.01099 7.39678 8.15129 7.39464 8.29088C7.39321 8.36032 7.34954 8.39754 7.2708 8.39897C7.22546 8.39977 7.18012 8.39836 7.13479 8.39694C7.09852 8.39581 7.06225 8.39468 7.02598 8.39468C6.20102 8.39539 5.37606 8.39629 4.5511 8.39718L4.54452 8.39718L4.53793 8.39719H4.53793H4.53792C3.71296 8.39808 2.88801 8.39898 2.06305 8.39969H1.98861ZM22.4665 10.6638H19.6196H16.7619C16.6259 10.6638 16.6016 10.6903 16.6044 10.827C16.6073 10.9394 16.608 11.0518 16.6051 11.1649C16.603 11.2888 16.623 11.3124 16.7469 11.3124C18.3282 11.3124 19.9102 11.3124 21.4915 11.3117C21.5033 11.3117 21.5151 11.3109 21.5269 11.3102C21.5387 11.3095 21.5505 11.3088 21.5623 11.3088C21.625 11.3084 21.6877 11.3083 21.7504 11.3081C21.813 11.3079 21.8756 11.3077 21.9382 11.3074C21.9919 11.3074 22.0112 11.3353 22.0105 11.3854C22.009 11.6417 22.0076 11.8979 22.0069 12.1542C22.0065 12.1942 22.0063 12.2142 21.9962 12.2243C21.9861 12.2344 21.9658 12.2344 21.9253 12.2344L21.3711 12.2345C21.0015 12.2347 20.6318 12.2349 20.2624 12.2344L16.7719 12.2322L16.7627 12.2322C16.7442 12.2321 16.7252 12.232 16.7068 12.2351C16.6381 12.2451 16.6044 12.2838 16.6044 12.3532C16.6037 12.4856 16.603 12.6181 16.6044 12.7505C16.6044 12.8278 16.6424 12.8672 16.719 12.8751C16.7404 12.8772 16.7626 12.8779 16.7841 12.8779C16.9101 12.8776 17.0362 12.8771 17.1622 12.8766L17.1637 12.8766C17.3536 12.8758 17.5435 12.8751 17.7333 12.8751C18.7569 12.8746 19.7808 12.8747 20.8048 12.8749H20.8049H20.8049L22.3412 12.8751C22.3629 12.8751 22.3848 12.8757 22.4066 12.8764C22.4395 12.8775 22.4724 12.8785 22.5051 12.8772C22.6161 12.8722 22.6483 12.8385 22.6497 12.7262C22.6501 12.6864 22.6492 12.6468 22.6483 12.6072V12.6071C22.6476 12.5741 22.6468 12.541 22.6468 12.5078V10.8013C22.6468 10.696 22.6153 10.666 22.5101 10.6638H22.4665ZM19.6233 15.7872H16.7492C16.6376 15.7872 16.6032 15.7507 16.6039 15.6404C16.6043 15.5785 16.6043 15.5168 16.6043 15.455C16.6043 15.3933 16.6043 15.3315 16.6046 15.2696C16.6046 15.1823 16.6361 15.1479 16.7249 15.1436C16.7636 15.1417 16.8022 15.1424 16.8409 15.143L16.841 15.143C16.8603 15.1433 16.8796 15.1436 16.8989 15.1436C18.5009 15.1443 20.1022 15.1443 21.7036 15.1443L21.7741 15.1441C21.8326 15.1438 21.8909 15.1435 21.9491 15.1451C21.9914 15.1465 22.0071 15.1307 22.0071 15.0885C22.0064 14.8194 22.0064 14.5502 22.0078 14.281C22.0085 14.2302 21.9842 14.2159 21.9377 14.2159C21.7879 14.217 21.6378 14.2168 21.4879 14.2167H21.4876L21.3378 14.2166L20.6033 14.2165C20.1137 14.2163 19.6241 14.2161 19.1344 14.2166C18.6098 14.2171 18.0856 14.2182 17.5612 14.2193H17.5607L16.7729 14.2209C16.6404 14.2209 16.6025 14.1808 16.6039 14.0477C16.6047 13.9822 16.6046 13.9168 16.6045 13.8515V13.8514C16.6044 13.8024 16.6043 13.7535 16.6046 13.7048C16.6054 13.6167 16.6419 13.5767 16.7306 13.5767C17.2009 13.5759 17.672 13.5759 18.143 13.5767C18.3048 13.5767 18.4666 13.5777 18.6283 13.5788C18.7901 13.5799 18.9519 13.5809 19.1137 13.5809C19.9476 13.5817 20.7823 13.5817 21.617 13.5809C21.7784 13.5809 21.9399 13.5798 22.1014 13.5787C22.2305 13.5779 22.3597 13.577 22.4889 13.5767C22.5819 13.5759 22.6313 13.6074 22.6442 13.674C22.6492 13.7005 22.6499 13.7284 22.6499 13.7556C22.6496 14.0648 22.649 14.3741 22.6485 14.6835L22.6485 14.6934L22.6485 14.7032C22.6479 15.0126 22.6474 15.3219 22.6471 15.6311C22.6463 15.7528 22.6127 15.7872 22.4924 15.7872H19.6233ZM22.3193 7.75944H19.6363H17.1767C17.1227 7.75944 17.0688 7.75899 17.015 7.75853C16.9181 7.75771 16.8213 7.75689 16.7243 7.75873C16.6391 7.76016 16.604 7.80239 16.604 7.88686C16.604 8.01213 16.604 8.13741 16.6047 8.26268C16.6047 8.37578 16.6233 8.39439 16.7379 8.39511H16.7601C18.234 8.39511 19.7086 8.39511 21.1825 8.39439C21.1954 8.39439 21.2081 8.39403 21.2208 8.39368C21.2335 8.39332 21.2462 8.39296 21.2591 8.39296C21.4825 8.39225 21.7065 8.39153 21.9299 8.39225C21.9936 8.39296 22.0115 8.41372 22.0107 8.47457L22.0043 9.24266C22.004 9.28228 22.004 9.30214 21.994 9.3121C21.984 9.32212 21.964 9.32212 21.9234 9.32212H17.0693C17.0243 9.32212 16.9792 9.32173 16.9341 9.32134C16.8739 9.32081 16.8135 9.32028 16.7529 9.32069C16.6405 9.32141 16.6033 9.36078 16.604 9.47245C16.6047 9.58484 16.6047 9.69794 16.604 9.81033C16.6033 9.92701 16.6376 9.96208 16.7565 9.96208C16.8981 9.96208 17.0398 9.96191 17.1815 9.96173C17.3234 9.96155 17.4654 9.96137 17.6076 9.96137C19.2304 9.96208 20.854 9.96208 22.4775 9.96208C22.4842 9.96208 22.4908 9.96216 22.4975 9.96224C22.5109 9.9624 22.5242 9.96256 22.5376 9.96208C22.6042 9.95779 22.6421 9.92271 22.6464 9.85686C22.6484 9.82276 22.648 9.78831 22.6475 9.754C22.6473 9.73933 22.6471 9.72469 22.6471 9.71011C22.6471 9.10093 22.6471 8.49246 22.6464 7.88328C22.6464 7.79738 22.6171 7.76302 22.5319 7.75944C22.4846 7.75753 22.4374 7.75817 22.3901 7.75881C22.3665 7.75912 22.3429 7.75944 22.3193 7.75944Z" fill="#0C1E3C"/>
</svg>
