<svg width="24" height="24" viewBox="0 0 24 24" fill="none" xmlns="http://www.w3.org/2000/svg">
<path fill-rule="evenodd" clip-rule="evenodd" d="M22.7714 9.48057L21.0869 9.1948C20.9114 8.62827 20.6858 8.08179 20.41 7.56039L21.4027 6.17164C21.8239 5.58005 21.7587 4.77287 21.2423 4.26149L19.7483 2.76746C19.4675 2.48671 19.0965 2.33129 18.7004 2.33129C18.3896 2.33129 18.0938 2.42654 17.8431 2.60703L16.4494 3.59971C15.9079 3.31394 15.3414 3.0783 14.7548 2.90283L14.474 1.23834C14.3537 0.521406 13.737 0 13.0101 0H10.8994C10.1724 0 9.55577 0.521406 9.43544 1.23834L9.14466 2.94294C8.58315 3.11841 8.03667 3.34903 7.51527 3.62979L6.13655 2.63711C5.88587 2.45662 5.58506 2.36137 5.27422 2.36137C4.87815 2.36137 4.50214 2.51679 4.2264 2.79754L2.72735 4.29157C2.21598 4.80295 2.14579 5.61013 2.56692 6.20172L3.56963 7.61052C3.29388 8.13694 3.07329 8.68342 2.90283 9.24994L1.23834 9.5307C0.521406 9.65103 0 10.2677 0 10.9946V13.1053C0 13.8323 0.521406 14.449 1.23834 14.5693L2.94294 14.8601C3.11841 15.4216 3.34903 15.9681 3.62979 16.4895L2.64212 17.8632C2.22099 18.4548 2.28617 19.2619 2.80256 19.7733L4.29659 21.2674C4.57734 21.5481 4.94834 21.7035 5.34441 21.7035C5.65525 21.7035 5.95105 21.6083 6.20172 21.4278L7.61052 20.4251C8.11689 20.6908 8.64832 20.9064 9.1948 21.0768L9.47555 22.7614C9.59588 23.4783 10.2125 23.9997 10.9395 23.9997H13.0552C13.7822 23.9997 14.3988 23.4783 14.5192 22.7614L14.8049 21.0768C15.3715 20.9014 15.9179 20.6758 16.4393 20.4L17.8281 21.3927C18.0788 21.5732 18.3796 21.6684 18.6904 21.6684C19.0865 21.6684 19.4575 21.513 19.7382 21.2323L21.2323 19.7382C21.7436 19.2268 21.8138 18.4197 21.3927 17.8281L20.4 16.4343C20.6758 15.9079 20.9064 15.3614 21.0768 14.7999L22.7614 14.5192C23.4783 14.3988 23.9997 13.7822 23.9997 13.0552V10.9445C24.0097 10.2176 23.4883 9.60089 22.7714 9.48057ZM22.6561 13.0552C22.6561 13.1204 22.611 13.1755 22.5458 13.1856L20.4401 13.5365C20.1744 13.5816 19.9638 13.7772 19.8987 14.0328C19.7081 14.7698 19.4174 15.4767 19.0263 16.1335C18.8909 16.3641 18.901 16.6499 19.0564 16.8705L20.2947 18.6152C20.3298 18.6653 20.3248 18.7405 20.2797 18.7857L18.7857 20.2797C18.7506 20.3148 18.7155 20.3198 18.6904 20.3198C18.6603 20.3198 18.6353 20.3098 18.6152 20.2947L16.8755 19.0564C16.6599 18.901 16.3691 18.8909 16.1385 19.0263C15.4817 19.4174 14.7748 19.7081 14.0379 19.8987C13.7772 19.9638 13.5816 20.1794 13.5415 20.4401L13.1856 22.5458C13.1755 22.611 13.1204 22.6561 13.0552 22.6561H10.9445C10.8793 22.6561 10.8242 22.611 10.8142 22.5458L10.4632 20.4401C10.4181 20.1744 10.2226 19.9638 9.96688 19.8987C9.24994 19.7132 8.55808 19.4274 7.91133 19.0564C7.80605 18.9962 7.68573 18.9661 7.57041 18.9661C7.43505 18.9661 7.29467 19.0063 7.17936 19.0915L5.42463 20.3398C5.39956 20.3549 5.37449 20.3649 5.34943 20.3649C5.32937 20.3649 5.28926 20.3599 5.25417 20.3248L3.76014 18.8308C3.71502 18.7857 3.71 18.7155 3.7451 18.6603L4.97843 16.9307C5.13384 16.7101 5.14387 16.4193 5.00851 16.1887C4.61745 15.5369 4.31664 14.83 4.12613 14.093C4.05594 13.8373 3.84537 13.6418 3.58467 13.5967L1.46395 13.2357C1.39877 13.2257 1.35365 13.1705 1.35365 13.1053V10.9946C1.35365 10.9295 1.39877 10.8743 1.46395 10.8643L3.55459 10.5134C3.8203 10.4682 4.03588 10.2727 4.10106 10.012C4.28656 9.27501 4.57233 8.56309 4.95837 7.90632C5.09374 7.6757 5.0787 7.38993 4.92328 7.17435L3.67491 5.41961C3.63982 5.36948 3.64483 5.29428 3.68995 5.24916L5.18398 3.75513C5.21907 3.72003 5.25417 3.71502 5.27924 3.71502C5.30932 3.71502 5.33438 3.72505 5.35444 3.74009L7.0841 4.97341C7.3047 5.12883 7.59548 5.13886 7.8261 5.00349C8.47786 4.61244 9.18477 4.31163 9.92176 4.12111C10.1774 4.05092 10.373 3.84036 10.4181 3.57965L10.7791 1.45893C10.7891 1.39376 10.8442 1.34864 10.9094 1.34864H13.0201C13.0853 1.34864 13.1404 1.39376 13.1505 1.45893L13.5014 3.54957C13.5465 3.81529 13.7421 4.03087 14.0028 4.09605C14.7598 4.28656 15.4817 4.58236 16.1536 4.97843C16.3842 5.11379 16.67 5.10376 16.8905 4.94834L18.6202 3.70499C18.6453 3.68995 18.6703 3.67992 18.6954 3.67992C18.7155 3.67992 18.7556 3.68494 18.7907 3.72003L20.2847 5.21406C20.3298 5.25918 20.3348 5.32937 20.2997 5.38452L19.0614 7.12421C18.906 7.33979 18.896 7.63058 19.0313 7.8612C19.4224 8.51797 19.7132 9.22488 19.9037 9.96186C19.9688 10.2226 20.1844 10.4181 20.4451 10.4582L22.5508 10.8142C22.616 10.8242 22.6611 10.8793 22.6611 10.9445V13.0552H22.6561ZM12.0024 6.81839C9.14466 6.81839 6.8234 9.13965 6.8234 11.9974C6.8234 14.8551 9.14466 17.1763 12.0024 17.1763C14.8601 17.1763 17.1813 14.8551 17.1813 11.9974C17.1813 9.13965 14.8601 6.81839 12.0024 6.81839ZM12.0024 15.8227C9.89167 15.8227 8.17705 14.108 8.17705 11.9974C8.17705 9.88666 9.89167 8.17204 12.0024 8.17204C14.1131 8.17204 15.8277 9.88666 15.8277 11.9974C15.8277 14.108 14.1131 15.8227 12.0024 15.8227Z" fill="#0092C9"/>
<mask id="mask0_0_2641" style="mask-type:luminance" maskUnits="userSpaceOnUse" x="0" y="0" width="24" height="24">
<path fill-rule="evenodd" clip-rule="evenodd" d="M22.7714 9.48057L21.0869 9.1948C20.9114 8.62827 20.6858 8.08179 20.41 7.56039L21.4027 6.17164C21.8239 5.58005 21.7587 4.77287 21.2423 4.26149L19.7483 2.76746C19.4675 2.48671 19.0965 2.33129 18.7004 2.33129C18.3896 2.33129 18.0938 2.42654 17.8431 2.60703L16.4494 3.59971C15.9079 3.31394 15.3414 3.0783 14.7548 2.90283L14.474 1.23834C14.3537 0.521406 13.737 0 13.0101 0H10.8994C10.1724 0 9.55577 0.521406 9.43544 1.23834L9.14466 2.94294C8.58315 3.11841 8.03667 3.34903 7.51527 3.62979L6.13655 2.63711C5.88587 2.45662 5.58506 2.36137 5.27422 2.36137C4.87815 2.36137 4.50214 2.51679 4.2264 2.79754L2.72735 4.29157C2.21598 4.80295 2.14579 5.61013 2.56692 6.20172L3.56963 7.61052C3.29388 8.13694 3.07329 8.68342 2.90283 9.24994L1.23834 9.5307C0.521406 9.65103 0 10.2677 0 10.9946V13.1053C0 13.8323 0.521406 14.449 1.23834 14.5693L2.94294 14.8601C3.11841 15.4216 3.34903 15.9681 3.62979 16.4895L2.64212 17.8632C2.22099 18.4548 2.28617 19.2619 2.80256 19.7733L4.29659 21.2674C4.57734 21.5481 4.94834 21.7035 5.34441 21.7035C5.65525 21.7035 5.95105 21.6083 6.20172 21.4278L7.61052 20.4251C8.11689 20.6908 8.64832 20.9064 9.1948 21.0768L9.47555 22.7614C9.59588 23.4783 10.2125 23.9997 10.9395 23.9997H13.0552C13.7822 23.9997 14.3988 23.4783 14.5192 22.7614L14.8049 21.0768C15.3715 20.9014 15.9179 20.6758 16.4393 20.4L17.8281 21.3927C18.0788 21.5732 18.3796 21.6684 18.6904 21.6684C19.0865 21.6684 19.4575 21.513 19.7382 21.2323L21.2323 19.7382C21.7436 19.2268 21.8138 18.4197 21.3927 17.8281L20.4 16.4343C20.6758 15.9079 20.9064 15.3614 21.0768 14.7999L22.7614 14.5192C23.4783 14.3988 23.9997 13.7822 23.9997 13.0552V10.9445C24.0097 10.2176 23.4883 9.60089 22.7714 9.48057ZM22.6561 13.0552C22.6561 13.1204 22.611 13.1755 22.5458 13.1856L20.4401 13.5365C20.1744 13.5816 19.9638 13.7772 19.8987 14.0328C19.7081 14.7698 19.4174 15.4767 19.0263 16.1335C18.8909 16.3641 18.901 16.6499 19.0564 16.8705L20.2947 18.6152C20.3298 18.6653 20.3248 18.7405 20.2797 18.7857L18.7857 20.2797C18.7506 20.3148 18.7155 20.3198 18.6904 20.3198C18.6603 20.3198 18.6353 20.3098 18.6152 20.2947L16.8755 19.0564C16.6599 18.901 16.3691 18.8909 16.1385 19.0263C15.4817 19.4174 14.7748 19.7081 14.0379 19.8987C13.7772 19.9638 13.5816 20.1794 13.5415 20.4401L13.1856 22.5458C13.1755 22.611 13.1204 22.6561 13.0552 22.6561H10.9445C10.8793 22.6561 10.8242 22.611 10.8142 22.5458L10.4632 20.4401C10.4181 20.1744 10.2226 19.9638 9.96688 19.8987C9.24994 19.7132 8.55808 19.4274 7.91133 19.0564C7.80605 18.9962 7.68573 18.9661 7.57041 18.9661C7.43505 18.9661 7.29467 19.0063 7.17936 19.0915L5.42463 20.3398C5.39956 20.3549 5.37449 20.3649 5.34943 20.3649C5.32937 20.3649 5.28926 20.3599 5.25417 20.3248L3.76014 18.8308C3.71502 18.7857 3.71 18.7155 3.7451 18.6603L4.97843 16.9307C5.13384 16.7101 5.14387 16.4193 5.00851 16.1887C4.61745 15.5369 4.31664 14.83 4.12613 14.093C4.05594 13.8373 3.84537 13.6418 3.58467 13.5967L1.46395 13.2357C1.39877 13.2257 1.35365 13.1705 1.35365 13.1053V10.9946C1.35365 10.9295 1.39877 10.8743 1.46395 10.8643L3.55459 10.5134C3.8203 10.4682 4.03588 10.2727 4.10106 10.012C4.28656 9.27501 4.57233 8.56309 4.95837 7.90632C5.09374 7.6757 5.0787 7.38993 4.92328 7.17435L3.67491 5.41961C3.63982 5.36948 3.64483 5.29428 3.68995 5.24916L5.18398 3.75513C5.21907 3.72003 5.25417 3.71502 5.27924 3.71502C5.30932 3.71502 5.33438 3.72505 5.35444 3.74009L7.0841 4.97341C7.3047 5.12883 7.59548 5.13886 7.8261 5.00349C8.47786 4.61244 9.18477 4.31163 9.92176 4.12111C10.1774 4.05092 10.373 3.84036 10.4181 3.57965L10.7791 1.45893C10.7891 1.39376 10.8442 1.34864 10.9094 1.34864H13.0201C13.0853 1.34864 13.1404 1.39376 13.1505 1.45893L13.5014 3.54957C13.5465 3.81529 13.7421 4.03087 14.0028 4.09605C14.7598 4.28656 15.4817 4.58236 16.1536 4.97843C16.3842 5.11379 16.67 5.10376 16.8905 4.94834L18.6202 3.70499C18.6453 3.68995 18.6703 3.67992 18.6954 3.67992C18.7155 3.67992 18.7556 3.68494 18.7907 3.72003L20.2847 5.21406C20.3298 5.25918 20.3348 5.32937 20.2997 5.38452L19.0614 7.12421C18.906 7.33979 18.896 7.63058 19.0313 7.8612C19.4224 8.51797 19.7132 9.22488 19.9037 9.96186C19.9688 10.2226 20.1844 10.4181 20.4451 10.4582L22.5508 10.8142C22.616 10.8242 22.6611 10.8793 22.6611 10.9445V13.0552H22.6561ZM12.0024 6.81839C9.14466 6.81839 6.8234 9.13965 6.8234 11.9974C6.8234 14.8551 9.14466 17.1763 12.0024 17.1763C14.8601 17.1763 17.1813 14.8551 17.1813 11.9974C17.1813 9.13965 14.8601 6.81839 12.0024 6.81839ZM12.0024 15.8227C9.89167 15.8227 8.17705 14.108 8.17705 11.9974C8.17705 9.88666 9.89167 8.17204 12.0024 8.17204C14.1131 8.17204 15.8277 9.88666 15.8277 11.9974C15.8277 14.108 14.1131 15.8227 12.0024 15.8227Z" fill="white"/>
</mask>
<g mask="url(#mask0_0_2641)">
</g>
</svg>
