<svg width="24" height="24" viewBox="0 0 24 24" fill="none" xmlns="http://www.w3.org/2000/svg">
<path fill-rule="evenodd" clip-rule="evenodd" d="M2.95399 19.1256C3.02135 19.1971 3.08941 19.2693 3.15641 19.3441L2.86223 19.6624C2.67314 19.8669 2.48065 20.0752 2.28796 20.2834C2.13948 20.4437 1.99087 20.6038 1.84227 20.764L1.84141 20.7649L1.84098 20.7654C1.54406 21.0854 1.24715 21.4054 0.95122 21.7263C0.749028 21.9457 0.783766 22.234 1.02315 22.359C1.18815 22.4449 1.35115 22.4002 1.52261 22.2153L1.85234 21.8599L1.85269 21.8595C2.47966 21.1838 3.10659 20.5081 3.72869 19.828C3.81687 19.7316 3.88412 19.7374 3.99858 19.7685C4.32836 19.8583 4.66149 19.9476 4.99907 19.9939C5.18048 20.0186 5.36602 20.0126 5.55395 20.0065L5.5541 20.0065C5.63833 20.0038 5.72304 20.001 5.80806 20.001L5.78861 20.0636C5.77474 20.1086 5.7604 20.155 5.74482 20.201L5.47862 20.9889L5.47844 20.9895L5.47843 20.9895C5.20179 21.8081 4.92517 22.6267 4.65058 23.4459C4.62497 23.5225 4.60582 23.6093 4.61518 23.6877C4.63611 23.8618 4.78085 23.985 4.95387 23.9986C5.13981 24.0135 5.2792 23.9166 5.34935 23.7106C5.51584 23.2217 5.68088 22.7322 5.84592 22.2428C5.93936 21.9658 6.0328 21.6887 6.1265 21.4117C6.20877 21.1684 6.29193 20.9253 6.37578 20.6803L6.37592 20.6798L6.45873 20.4377C6.46883 20.4443 6.47676 20.4489 6.48306 20.4526C6.49315 20.4585 6.49907 20.462 6.50305 20.4671C7.25013 21.4003 8.56594 21.6404 9.56866 21.0692C9.6103 21.0454 9.69269 21.0605 9.74057 21.0864C9.81907 21.1288 9.89519 21.1763 9.97124 21.2238L9.97126 21.2238L9.97128 21.2238L9.9713 21.2239L9.97132 21.2239C10.0888 21.2972 10.206 21.3704 10.3316 21.4246C11.475 21.9187 12.647 21.9559 13.8261 21.5776C14.479 21.3683 15.0526 21.0296 15.4015 20.3992C15.4195 20.3667 15.5015 20.3477 15.548 20.3557C16.2069 20.4695 16.8641 20.4655 17.5163 20.3168C17.6437 20.2878 17.7171 20.3099 17.8027 20.4052C18.5074 21.1912 19.2167 21.9731 19.9263 22.7549C20.0962 22.9422 20.3149 22.962 20.4857 22.8135C20.6476 22.6727 20.6487 22.4371 20.4828 22.2525C20.2529 21.997 20.0219 21.7422 19.791 21.4875L19.7904 21.4868C19.6297 21.3095 19.469 21.1323 19.3086 20.9548C19.1223 20.7487 18.9364 20.5421 18.7472 20.3318L18.7469 20.3315L18.4627 20.0157C19.067 19.7412 19.5874 19.372 20.0366 18.9034L20.0759 18.9246C20.0975 18.9361 20.1161 18.9461 20.1343 18.9567C20.346 19.0793 20.5576 19.202 20.7692 19.3248C21.4508 19.7203 22.1324 20.1158 22.8174 20.5054C22.9154 20.5613 23.0501 20.5913 23.1607 20.5773C23.3122 20.5582 23.4139 20.4435 23.436 20.2825C23.4605 20.103 23.3854 19.9703 23.23 19.8806C22.6965 19.5721 22.1629 19.2637 21.6298 18.9547C21.379 18.8092 21.1284 18.6632 20.8762 18.5163L20.5204 18.3091C21.5201 16.6522 21.5254 15.0068 20.5196 13.3558C20.528 13.3503 20.5363 13.3449 20.5446 13.3397C20.5519 13.335 20.5592 13.3305 20.5663 13.326L20.5664 13.326L20.5664 13.326C20.5997 13.3051 20.6312 13.2854 20.6596 13.2619C20.7312 13.2027 20.8051 13.1455 20.8789 13.0883C21.0515 12.9547 21.2242 12.8209 21.3691 12.662C22.095 11.8657 22.37 10.8868 22.4306 9.83819C22.4818 8.94836 22.3375 8.08059 22.0841 7.22862C21.8538 6.45459 21.5751 5.70305 21.0976 5.04236C21.5811 4.32088 21.6548 3.57646 21.172 2.8512C20.5846 1.9685 19.7152 1.73424 18.7052 1.90036C18.1385 0.701904 17.2061 0.00313863 15.8674 2.11327e-05C14.5295 -0.00309637 13.586 0.681418 13.0168 1.88611C12.343 1.69594 11.6941 1.73781 11.0758 2.0667C10.4563 2.39604 10.0577 2.90954 9.86059 3.58448C9.00373 3.2616 8.13951 3.18499 7.25948 3.35846C6.22024 3.56333 5.35068 4.06012 4.69423 4.90474C4.32569 5.3786 4.10702 5.91704 4.01684 6.51315C4.00307 6.51425 3.99031 6.51554 3.97824 6.51676C3.95359 6.51926 3.93177 6.52147 3.90995 6.52117C3.17155 6.5127 2.49817 6.72002 1.88758 7.13197C0.488271 8.07658 0.0921256 9.84799 0.952779 11.2845C0.985067 11.3384 0.987962 11.4321 0.965917 11.4934C0.596938 12.5119 0.574448 13.5353 0.92962 14.5585C1.13872 15.1609 1.46449 15.6904 1.99425 16.0721C2.07931 16.1333 2.13498 16.2021 2.08822 16.3217C2.05482 16.4077 2.04012 16.503 2.02832 16.5954C1.9319 17.3474 2.09668 18.0394 2.54293 18.6516C2.66474 18.8187 2.80774 18.9704 2.95399 19.1256ZM20.516 15.8387C20.5173 15.0905 20.3065 14.4082 19.8967 13.7818C19.8219 13.6674 19.7551 13.6415 19.6291 13.6709C19.0924 13.7965 18.5595 13.764 18.0356 13.6012C16.9676 13.2694 16.186 12.5647 15.5663 11.665C14.872 10.6572 14.4698 9.53 14.2621 8.32932C14.1917 7.92293 14.3785 7.74033 14.7831 7.81693C15.2467 7.90489 15.6126 7.7096 15.7533 7.29208C15.8384 7.03934 15.8217 6.79172 15.7023 6.54922C15.5868 6.3143 15.6569 6.09251 15.8992 6.00477C16.1045 5.9304 16.325 5.87963 16.5423 5.86137C16.655 5.85187 16.7691 5.86132 16.8833 5.87078C16.9912 5.87972 17.0992 5.88867 17.2061 5.88163C17.3275 5.87384 17.4876 5.82485 17.5541 5.73667C17.7269 5.50865 17.8739 5.2568 18.0006 4.99938C18.1173 4.762 18.3186 4.66069 18.5522 4.7836C18.6448 4.83235 18.7339 4.88766 18.8231 4.943L18.8231 4.94301C18.9038 4.99309 18.9846 5.04318 19.0679 5.08845L19.069 5.08906C19.1493 5.13262 19.2511 5.18791 19.3296 5.17173C19.3639 5.16461 19.3985 5.15769 19.4332 5.15074L19.4333 5.15073L19.4334 5.15071L19.4335 5.15069C19.654 5.10657 19.8805 5.06127 20.0713 4.95685C20.7747 4.57184 20.9469 3.7526 20.4779 3.15805C20.066 2.63609 19.3289 2.4555 18.6682 2.71492C18.3524 2.83895 18.1574 2.73919 18.0685 2.41386C17.8853 1.74204 17.4693 1.25704 16.8462 0.962661C15.5396 0.345618 14.0164 1.05218 13.6381 2.43991C13.5513 2.75812 13.3453 2.85498 13.0451 2.71158C12.6946 2.54413 12.3337 2.48512 11.9455 2.54702C11.1813 2.66905 10.5816 3.31793 10.5603 4.08929C10.5505 4.4458 10.2387 4.60902 9.93452 4.44914C9.04025 3.97907 8.09052 3.89044 7.12254 4.16033C6.1236 4.4389 5.33331 5.00361 4.93427 5.99564C4.84475 6.21835 4.81031 6.46407 4.77604 6.70852V6.70852L4.77604 6.70853C4.7647 6.78939 4.75338 6.87012 4.7401 6.94982C4.69757 7.20457 4.53056 7.3384 4.27448 7.29742C3.91262 7.23931 3.55522 7.26313 3.20139 7.35243C1.43354 7.79979 0.654389 9.71839 1.74418 11.1041C1.8426 11.229 1.84995 11.3687 1.7827 11.5114C1.48676 12.1387 1.36629 12.7954 1.45336 13.4861C1.57027 14.414 1.9103 15.209 2.77006 15.6969C2.91903 15.7813 2.98806 15.9164 2.93373 16.0919C2.91703 16.1458 2.89752 16.199 2.87802 16.2523L2.87801 16.2523C2.84212 16.3503 2.80627 16.4481 2.7881 16.5493C2.67408 17.1808 2.80012 17.7607 3.1907 18.277C3.85005 19.1484 5.07968 19.4909 6.17905 19.1079C6.5075 18.9934 6.6656 19.0894 6.79431 19.4083C6.89207 19.6507 7.01031 19.9037 7.18311 20.0939C7.77075 20.7405 8.69042 20.8038 9.39809 20.2787C9.63524 20.1028 9.78511 20.1197 10.002 20.3132C10.1461 20.4415 10.3013 20.5646 10.4696 20.6566C11.1127 21.0078 11.8137 21.1026 12.5332 21.065C13.179 21.0311 13.7976 20.8871 14.3322 20.4958C14.5702 20.3215 14.7528 20.1088 14.8076 19.8006C14.8493 19.567 15.0628 19.4572 15.3064 19.5245C15.9707 19.708 16.6385 19.7271 17.3168 19.6009C19.1329 19.2628 20.4931 17.6689 20.516 15.8387ZM15.0921 8.63788L15.0921 8.6379L15.0921 8.63792L15.0921 8.63795V8.63796C15.0949 8.66705 15.0972 8.69169 15.1029 8.71566C15.2768 9.44783 15.5333 10.1495 15.9106 10.8019C16.3394 11.543 16.8754 12.1881 17.6343 12.6163C18.7695 13.2572 20.0076 13.0802 20.8291 12.1498C21.3898 11.515 21.6134 10.742 21.6699 9.91635C21.7576 8.63483 21.4377 7.43014 20.9391 6.26531C20.8665 6.09613 20.774 5.93555 20.6817 5.77537C20.6395 5.70216 20.5974 5.62902 20.5572 5.55519C19.8747 5.90279 19.216 6.13816 18.5339 5.64671C18.5006 5.69641 18.4683 5.74426 18.4367 5.79097L18.4366 5.791L18.4363 5.79146C18.3698 5.8898 18.3067 5.98303 18.2458 6.07759C17.9913 6.47262 17.6292 6.65455 17.1616 6.62961C17.085 6.62551 17.0084 6.62024 16.9319 6.61496C16.8588 6.60994 16.7858 6.60491 16.7126 6.60089C16.6739 6.59881 16.6351 6.5993 16.591 6.59986C16.5689 6.60014 16.5456 6.60044 16.5202 6.60044C16.6033 7.09456 16.5312 7.54104 16.2593 7.94097C15.9818 8.34914 15.5779 8.54487 15.0869 8.58807C15.0891 8.60625 15.0906 8.62268 15.0921 8.63788ZM9.35716 11.0617C9.37164 10.7373 9.50213 10.3494 9.72102 9.97505C10.3585 8.88548 11.3486 8.31654 12.5312 8.01948C12.7731 7.95869 12.9585 8.07493 13.0107 8.30384C13.0563 8.50336 12.9336 8.68974 12.7047 8.74452C12.0741 8.8955 11.4967 9.15448 11.0054 9.58313C10.5514 9.97928 10.2098 10.4482 10.1089 11.0606C10.1027 11.0989 10.098 11.1379 10.0973 11.1764C10.0918 11.514 10.2336 11.6284 10.5547 11.5285C11.0408 11.3773 11.427 11.0624 11.7692 10.7059C12.0179 10.447 12.2536 10.1758 12.4893 9.90462C12.6578 9.7107 12.8264 9.51676 12.9997 9.32727C13.0826 9.23687 13.2088 9.16338 13.3277 9.13488C13.4654 9.10215 13.607 9.18454 13.6502 9.31659C13.6876 9.43082 13.7076 9.60651 13.6464 9.6889C12.977 10.5872 12.2618 11.4461 11.2775 12.0232C11.0751 12.1419 10.8449 12.2395 10.6157 12.2809C9.84616 12.4201 9.33868 11.96 9.35716 11.0617ZM18.844 11.1559C18.9002 11.3495 18.9568 11.5444 19.014 11.7412C18.6649 11.7162 18.3934 11.6214 18.2558 11.2938C18.1554 11.0547 17.961 10.9585 17.7526 11.0362C17.5468 11.1132 17.4689 11.3303 17.5608 11.5788C17.6982 11.9505 17.9675 12.1966 18.3226 12.3493C19.0474 12.6608 19.9811 12.4529 20.5029 11.8594C20.8182 11.5007 20.979 11.0876 20.871 10.6013C20.8137 10.3425 20.6351 10.2132 20.4076 10.2615C20.2027 10.3049 20.0994 10.4859 20.1357 10.7387C20.1831 11.0694 20.0424 11.3455 19.7335 11.5134C19.7184 11.4632 19.7032 11.4133 19.688 11.3636C19.6579 11.2648 19.628 11.1667 19.5992 11.0682C19.5391 10.8619 19.4794 10.6556 19.4196 10.4492C19.3114 10.0759 19.2033 9.70261 19.0933 9.32979C18.9998 9.01247 18.6883 8.90269 18.4643 9.10644C18.3471 9.21311 18.3151 9.34382 18.3607 9.49925C18.5219 10.0472 18.6812 10.5958 18.844 11.1559Z" fill="#0C1E3C"/>
</svg>
