<svg width="24" height="24" viewBox="0 0 24 24" fill="none" xmlns="http://www.w3.org/2000/svg">
<path fill-rule="evenodd" clip-rule="evenodd" d="M11.25 4.57031V3H12.75V4.57031C14.6426 4.88379 16.1162 6.35742 16.4297 8.25H17.25V9.75H6.75V8.25H7.57031C7.88379 6.35742 9.35742 4.88379 11.25 4.57031ZM14.8594 8.25C14.5371 6.9375 13.4385 6 12 6C10.5615 6 9.46289 6.9375 9.14062 8.25H14.8594ZM10.5 10.5C10.0869 10.5 9.75 10.8369 9.75 11.25C9.75 11.6631 10.0869 12 10.5 12C10.9131 12 11.25 11.6631 11.25 11.25C11.25 10.8369 10.9131 10.5 10.5 10.5ZM12.75 11.25C12.75 10.8369 13.0869 10.5 13.5 10.5C13.9131 10.5 14.25 10.8369 14.25 11.25C14.25 11.6631 13.9131 12 13.5 12C13.0869 12 12.75 11.6631 12.75 11.25ZM9 12.75C8.58691 12.75 8.25 13.0869 8.25 13.5C8.25 13.9131 8.58691 14.25 9 14.25C9.41309 14.25 9.75 13.9131 9.75 13.5C9.75 13.0869 9.41309 12.75 9 12.75ZM11.25 13.5C11.25 13.0869 11.5869 12.75 12 12.75C12.4131 12.75 12.75 13.0869 12.75 13.5C12.75 13.9131 12.4131 14.25 12 14.25C11.5869 14.25 11.25 13.9131 11.25 13.5ZM15 12.75C14.5869 12.75 14.25 13.0869 14.25 13.5C14.25 13.9131 14.5869 14.25 15 14.25C15.4131 14.25 15.75 13.9131 15.75 13.5C15.75 13.0869 15.4131 12.75 15 12.75ZM6.75 15.75C6.75 15.3369 7.08691 15 7.5 15C7.91309 15 8.25 15.3369 8.25 15.75C8.25 16.1631 7.91309 16.5 7.5 16.5C7.08691 16.5 6.75 16.1631 6.75 15.75ZM10.5 15C10.0869 15 9.75 15.3369 9.75 15.75C9.75 16.1631 10.0869 16.5 10.5 16.5C10.9131 16.5 11.25 16.1631 11.25 15.75C11.25 15.3369 10.9131 15 10.5 15ZM12.75 15.75C12.75 15.3369 13.0869 15 13.5 15C13.9131 15 14.25 15.3369 14.25 15.75C14.25 16.1631 13.9131 16.5 13.5 16.5C13.0869 16.5 12.75 16.1631 12.75 15.75ZM16.5 15C16.0869 15 15.75 15.3369 15.75 15.75C15.75 16.1631 16.0869 16.5 16.5 16.5C16.9131 16.5 17.25 16.1631 17.25 15.75C17.25 15.3369 16.9131 15 16.5 15ZM5.25 18C5.25 17.5869 5.58691 17.25 6 17.25C6.41309 17.25 6.75 17.5869 6.75 18C6.75 18.4131 6.41309 18.75 6 18.75C5.58691 18.75 5.25 18.4131 5.25 18ZM9 17.25C8.58691 17.25 8.25 17.5869 8.25 18C8.25 18.4131 8.58691 18.75 9 18.75C9.41309 18.75 9.75 18.4131 9.75 18C9.75 17.5869 9.41309 17.25 9 17.25ZM11.25 18C11.25 17.5869 11.5869 17.25 12 17.25C12.4131 17.25 12.75 17.5869 12.75 18C12.75 18.4131 12.4131 18.75 12 18.75C11.5869 18.75 11.25 18.4131 11.25 18ZM15 17.25C14.5869 17.25 14.25 17.5869 14.25 18C14.25 18.4131 14.5869 18.75 15 18.75C15.4131 18.75 15.75 18.4131 15.75 18C15.75 17.5869 15.4131 17.25 15 17.25ZM17.25 18C17.25 17.5869 17.5869 17.25 18 17.25C18.4131 17.25 18.75 17.5869 18.75 18C18.75 18.4131 18.4131 18.75 18 18.75C17.5869 18.75 17.25 18.4131 17.25 18ZM4.5 19.5C4.08691 19.5 3.75 19.8369 3.75 20.25C3.75 20.6631 4.08691 21 4.5 21C4.91309 21 5.25 20.6631 5.25 20.25C5.25 19.8369 4.91309 19.5 4.5 19.5ZM6.75 20.25C6.75 19.8369 7.08691 19.5 7.5 19.5C7.91309 19.5 8.25 19.8369 8.25 20.25C8.25 20.6631 7.91309 21 7.5 21C7.08691 21 6.75 20.6631 6.75 20.25ZM10.5 19.5C10.0869 19.5 9.75 19.8369 9.75 20.25C9.75 20.6631 10.0869 21 10.5 21C10.9131 21 11.25 20.6631 11.25 20.25C11.25 19.8369 10.9131 19.5 10.5 19.5ZM12.75 20.25C12.75 19.8369 13.0869 19.5 13.5 19.5C13.9131 19.5 14.25 19.8369 14.25 20.25C14.25 20.6631 13.9131 21 13.5 21C13.0869 21 12.75 20.6631 12.75 20.25ZM16.5 19.5C16.0869 19.5 15.75 19.8369 15.75 20.25C15.75 20.6631 16.0869 21 16.5 21C16.9131 21 17.25 20.6631 17.25 20.25C17.25 19.8369 16.9131 19.5 16.5 19.5ZM18.75 20.25C18.75 19.8369 19.0869 19.5 19.5 19.5C19.9131 19.5 20.25 19.8369 20.25 20.25C20.25 20.6631 19.9131 21 19.5 21C19.0869 21 18.75 20.6631 18.75 20.25Z" fill="#0C1E3C"/>
</svg>
