<svg width="24" height="24" viewBox="0 0 24 24" fill="none" xmlns="http://www.w3.org/2000/svg">
<path fill-rule="evenodd" clip-rule="evenodd" d="M11.5913 1.99728L11.5915 2.28585H11.5905L11.5903 2.49911V2.49921V2.4993C11.5901 2.71231 11.59 2.92503 11.5915 3.13833C11.5925 3.19033 11.5956 3.24437 11.6119 3.2923C11.6812 3.49012 11.8862 3.61045 12.0891 3.5768C12.292 3.54417 12.445 3.36674 12.445 3.15362C12.447 2.57647 12.446 1.99932 12.445 1.42217C12.444 1.1805 12.2594 1.00001 12.0187 1.00001C11.7791 0.998989 11.5935 1.1805 11.5915 1.42013C11.5908 1.61251 11.591 1.80489 11.5913 1.99728ZM6.58515 3.63788C6.60146 3.41966 6.72791 3.25651 6.93695 3.20246C7.11845 3.15454 7.3122 3.24937 7.4264 3.44617C7.55969 3.67662 7.6926 3.90746 7.82559 4.13844L7.8257 4.13863L7.82591 4.13899L7.8262 4.1395L8.08003 4.58008C8.09753 4.61024 8.11529 4.64023 8.13305 4.67022L8.13307 4.67025L8.13307 4.67026L8.13308 4.67026L8.13308 4.67027L8.13308 4.67027C8.17537 4.74165 8.21767 4.81307 8.25644 4.88701C8.3788 5.11951 8.31252 5.37137 8.10247 5.48864C7.87711 5.61508 7.64156 5.54574 7.50084 5.30509C7.2245 4.83093 6.94918 4.35473 6.67794 3.87649C6.64969 3.82688 6.63122 3.77169 6.61277 3.71657L6.61276 3.71654L6.61276 3.71652C6.60391 3.69008 6.59506 3.66366 6.58515 3.63788ZM17.4231 3.7158L17.4231 3.71578L17.4231 3.71577L17.4231 3.71576L17.4231 3.71575L17.4231 3.71573L17.4231 3.71572C17.4321 3.68824 17.441 3.66071 17.4511 3.6337C17.4338 3.42058 17.3134 3.26558 17.1075 3.20542C16.9311 3.15546 16.7373 3.23295 16.6292 3.41752C16.3417 3.90596 16.0572 4.39643 15.7788 4.89099C15.6513 5.11838 15.7268 5.37943 15.9368 5.4916C16.1591 5.6109 16.3977 5.54258 16.5313 5.31315C16.8087 4.83899 17.084 4.36278 17.3552 3.88556C17.3851 3.83282 17.4041 3.77441 17.4231 3.7158ZM17.3596 16.8247C17.4407 16.921 17.5226 17.0152 17.6041 17.109C17.7893 17.322 17.9721 17.5322 18.1356 17.7567C18.415 18.1391 18.6098 18.5704 18.7189 19.0364C18.7546 19.1894 18.7087 19.3229 18.5996 19.431C18.0337 19.9929 17.3607 20.361 16.5847 20.5435C16.0371 20.672 15.4854 20.6853 14.9327 20.5904C14.7884 20.5654 14.6466 20.5264 14.5048 20.4874C14.4443 20.4707 14.3837 20.4541 14.323 20.4385C14.2972 20.432 14.2714 20.4244 14.2484 20.4175L14.2484 20.4175L14.2482 20.4175C14.2349 20.4135 14.2226 20.4099 14.2118 20.4069C14.1741 20.4956 14.1384 20.5839 14.1029 20.6713L14.1029 20.6715L14.1027 20.672L14.1026 20.6721C14.025 20.8637 13.9489 21.0514 13.858 21.2318C13.496 21.9487 12.9606 22.5075 12.2744 22.9225C12.1 23.0275 11.9287 23.0255 11.7553 22.9184C10.8121 22.3351 10.1779 21.5163 9.86482 20.4497C9.86221 20.4419 9.85794 20.4349 9.85174 20.4248L9.84637 20.4159L9.83932 20.4038L9.79189 20.4177L9.79185 20.4177L9.79172 20.4177L9.79141 20.4178L9.79116 20.4179L9.79105 20.4179C9.72596 20.4369 9.65995 20.4562 9.5946 20.4742C8.16089 20.8709 6.86485 20.5966 5.70239 19.6747C5.65297 19.6356 5.60638 19.5924 5.55982 19.5492L5.55978 19.5492L5.55976 19.5492L5.55973 19.5492L5.55971 19.5491L5.55968 19.5491L5.55966 19.5491L5.55963 19.5491C5.53228 19.5237 5.50494 19.4984 5.47704 19.4739C5.31083 19.327 5.27208 19.1465 5.3353 18.9395C5.57901 18.1431 6.00728 17.465 6.63644 16.9164C6.65375 16.9023 6.66864 16.8851 6.6825 16.8691L6.69456 16.8553C6.61794 16.7881 6.54087 16.7225 6.4642 16.6572L6.46419 16.6572C6.30926 16.5253 6.15597 16.3948 6.01136 16.2557C5.20376 15.4725 4.64496 14.5354 4.33293 13.4556C4.12287 12.7265 4.0209 11.9821 4.09636 11.2255C4.12547 10.9373 4.17864 10.6513 4.23184 10.3651L4.23185 10.3651L4.23186 10.3651L4.23187 10.365L4.23187 10.365L4.23188 10.3649L4.23189 10.3649L4.2319 10.3648C4.25135 10.2602 4.2708 10.1556 4.28908 10.0508C4.32171 9.86316 4.4451 9.75202 4.62457 9.70511C5.24149 9.54298 5.86962 9.47364 6.50796 9.50525L6.5238 9.50601C6.62194 9.51074 6.67144 9.51313 6.70474 9.49106C6.73863 9.4686 6.75572 9.42079 6.79021 9.32432L6.79041 9.32374C7.00965 8.71396 7.31658 8.15312 7.71222 7.64021C7.82541 7.49235 7.97327 7.43729 8.16191 7.4638C8.8288 7.56067 9.46713 7.75034 10.0718 8.04707C10.1503 8.08582 10.1881 8.06135 10.236 8.00628C10.6663 7.51581 11.169 7.11302 11.7248 6.77142C11.9277 6.64702 12.1102 6.64804 12.3121 6.77142C12.8617 7.10589 13.3553 7.50663 13.7815 7.98793C13.8519 8.06849 13.9049 8.07868 14.0007 8.03178C14.6034 7.73912 15.2376 7.55252 15.9004 7.46074C16.0717 7.43729 16.2125 7.49541 16.3165 7.63001C16.7193 8.15414 17.0374 8.72517 17.2505 9.35025C17.2954 9.48179 17.3525 9.52156 17.4902 9.51136C18.1285 9.4665 18.7556 9.54196 19.3756 9.69491C19.5887 9.74692 19.7223 9.87132 19.759 10.0906L19.7961 10.3046L19.7961 10.3046C19.8465 10.5943 19.8969 10.8841 19.9395 11.1745C19.9721 11.3948 19.8824 11.562 19.7121 11.6487C19.4449 11.7843 19.1298 11.6079 19.1013 11.3091C19.0956 11.2426 19.0843 11.1767 19.0718 11.1032L19.0718 11.103L19.0718 11.1028L19.0718 11.1028C19.0664 11.0715 19.0609 11.0389 19.0554 11.0042L19.0402 11.0179L19.0202 11.0355C18.9963 11.0567 18.9772 11.0736 18.9595 11.0919L18.3334 11.7176C17.0817 12.9681 15.8301 14.2186 14.583 15.4736C14.4776 15.5805 14.3947 15.71 14.3122 15.839L14.3121 15.8391L14.3121 15.8391L14.3121 15.8392L14.312 15.8392L14.312 15.8393L14.3119 15.8393L14.3119 15.8394C14.2836 15.8837 14.2553 15.9279 14.2261 15.9712C13.9355 16.4015 13.5725 16.7655 13.1921 17.1153C13.1813 17.1255 13.172 17.137 13.1603 17.1514C13.1521 17.1616 13.1427 17.1732 13.1309 17.1867C13.1682 17.1907 13.2038 17.196 13.2384 17.2012L13.2385 17.2012L13.2386 17.2013C13.3091 17.2118 13.3749 17.2217 13.4399 17.2183C13.5201 17.2145 13.6005 17.2116 13.6809 17.2088H13.6809H13.6809H13.6809H13.6809H13.6809H13.681H13.681H13.681C13.946 17.1993 14.2109 17.1899 14.4698 17.1469C14.9562 17.0653 15.4283 16.9175 15.879 16.7084C16.5449 16.3995 17.1302 15.9804 17.6186 15.4318C17.8042 15.2237 17.9755 15.0025 18.1458 14.7822C18.3069 14.5721 18.5741 14.511 18.7678 14.6517C18.9646 14.7924 19.0014 15.0494 18.8535 15.2686C18.4609 15.8498 17.9827 16.3505 17.4239 16.7737C17.3991 16.7919 17.3756 16.8114 17.3649 16.8203L17.3596 16.8247ZM12.4559 7.91553V16.6289C15.7597 13.9042 14.7686 9.57663 12.4559 7.91553ZM11.584 7.9349L11.5402 7.91655C9.94537 9.31048 9.25911 11.047 9.52016 13.1752C9.6517 14.252 10.8397 16.3046 11.584 16.6014V7.9349ZM15.0757 10.0973L15.0714 10.0987L14.4076 8.77106C14.4529 8.75272 14.4997 8.73291 14.5478 8.71257C14.6654 8.66281 14.7906 8.60983 14.9195 8.56712C15.1038 8.5062 15.2909 8.45381 15.4779 8.40146L15.4779 8.40145C15.5413 8.3837 15.6047 8.36596 15.6679 8.34788C15.7434 8.32647 15.8015 8.34992 15.8454 8.41926C16.0738 8.77922 16.2777 9.15243 16.4215 9.55521L16.4216 9.55539C16.4409 9.60835 16.4591 9.65822 16.3766 9.67248C15.9392 9.75099 15.5252 9.90293 15.1193 10.0814C15.1062 10.0879 15.0916 10.0924 15.0813 10.0955L15.0757 10.0973ZM9.51601 8.72318L9.51607 8.72321C9.5537 8.74137 9.59042 8.7591 9.62621 8.77514C9.51606 8.99544 9.40765 9.21176 9.29938 9.42779L9.29737 9.4318L9.29535 9.43583L9.29452 9.4375L9.29355 9.43944C9.18426 9.65749 9.0751 9.87531 8.96442 10.0967C8.91109 10.0758 8.85645 10.0536 8.80072 10.0309L8.80027 10.0307L8.80016 10.0306C8.6653 9.97572 8.52399 9.91817 8.37911 9.87132C8.1456 9.79586 7.90699 9.73468 7.66838 9.67452C7.59394 9.65616 7.58476 9.61843 7.61229 9.56235C7.77851 9.22279 7.94676 8.88425 8.11603 8.54571L8.12368 8.53023C8.14476 8.48737 8.16725 8.44166 8.2027 8.4162C8.24859 8.38153 8.31997 8.34177 8.36687 8.354C8.66055 8.42946 8.9532 8.51308 9.24178 8.60587C9.33777 8.63715 9.42929 8.68133 9.51601 8.72318ZM15.2958 13.5106C15.9999 12.8024 16.7036 12.0955 17.4096 11.3863L18.4344 10.3567C18.3957 10.3567 18.3562 10.3565 18.3161 10.3563L18.3156 10.3563H18.3155H18.3155H18.3154H18.3154H18.3153H18.3152H18.3152H18.3151H18.3151H18.315H18.3149H18.3149H18.3148H18.3147H18.3147C18.233 10.3558 18.1491 10.3553 18.0653 10.3567C17.9777 10.3576 17.8898 10.3569 17.8019 10.3563H17.8019H17.8018H17.8017H17.8016H17.8016H17.8015H17.8014H17.8013H17.8013H17.8012H17.8011H17.801H17.801H17.8009H17.8008C17.5801 10.3548 17.3589 10.3532 17.1404 10.3751C16.8722 10.4026 16.604 10.4658 16.346 10.5453C16.1155 10.6173 15.8897 10.7043 15.6642 10.7913L15.6641 10.7913L15.664 10.7914C15.5634 10.8302 15.4629 10.8689 15.362 10.9063C15.2907 10.9328 15.2856 10.9818 15.2958 11.0521C15.3049 11.1182 15.3145 11.1843 15.3241 11.2503C15.3595 11.494 15.3949 11.7376 15.4069 11.9831C15.4314 12.496 15.414 13.01 15.2958 13.5106ZM8.71969 13.5372L5.61674 10.37C5.60144 10.3771 5.61674 10.3649 5.63203 10.3649C5.7589 10.3649 5.88614 10.3616 6.01339 10.3582H6.01341H6.01342H6.01343H6.01344H6.01346H6.01347H6.01348H6.0135H6.01351H6.01352H6.01353H6.01355H6.01356H6.01357C6.30458 10.3507 6.5956 10.3431 6.88219 10.3751C7.49401 10.4413 8.08442 10.6126 8.64321 10.8788C8.72479 10.9186 8.7615 10.9563 8.74518 11.0572C8.73775 11.1026 8.73009 11.1481 8.72242 11.1936C8.68168 11.4352 8.64074 11.6781 8.63302 11.9209C8.62267 12.2783 8.64268 12.6365 8.66266 12.9941L8.66769 13.0844C8.6713 13.1499 8.6817 13.2147 8.69227 13.2806C8.70557 13.3635 8.71912 13.4479 8.71969 13.5372ZM12.0113 18.5459C12.003 18.5583 11.995 18.5697 11.9874 18.5806L11.9874 18.5807C11.9736 18.6005 11.9609 18.6187 11.9491 18.6377C11.6595 19.1139 11.2873 19.5146 10.8376 19.843C10.6194 20.0031 10.6092 20.0235 10.7102 20.2784L10.7134 20.2853C10.7197 20.2986 10.7262 20.3125 10.7305 20.3263C10.9437 20.9953 11.3383 21.5357 11.8899 21.9681C11.996 22.0517 12.0674 22.0303 12.1602 21.9579C12.7761 21.4806 13.1707 20.8586 13.3787 20.1132C13.4022 20.0306 13.3889 19.9705 13.3053 19.9154C12.9596 19.6819 12.6496 19.4066 12.3978 19.0721C12.3094 18.9541 12.2225 18.8351 12.1327 18.712L12.1326 18.7118C12.0928 18.6574 12.0525 18.6022 12.0113 18.5459ZM11.3312 18.0167C10.392 19.8981 7.78666 20.3794 6.19899 18.9518C6.24652 18.8677 6.29279 18.7829 6.33905 18.6981L6.33906 18.6981L6.33908 18.6981L6.33909 18.698L6.33911 18.698L6.33912 18.698L6.33914 18.6979L6.33915 18.6979L6.33916 18.6979L6.33918 18.6979L6.33919 18.6978L6.33921 18.6978L6.33922 18.6978L6.33924 18.6977C6.44279 18.5079 6.54632 18.3181 6.66397 18.137C6.86281 17.8311 7.1259 17.5803 7.43079 17.3784C7.47158 17.3519 7.54601 17.3468 7.5919 17.3641C7.74109 17.4196 7.88916 17.4782 8.03715 17.5368L8.03734 17.5369L8.03737 17.5369L8.0374 17.5369L8.03743 17.5369L8.03746 17.5369L8.03749 17.5369L8.03752 17.5369L8.03756 17.5369L8.03759 17.5369L8.03762 17.537L8.03765 17.537L8.03768 17.537L8.03771 17.537C8.28907 17.6365 8.5402 17.7359 8.79617 17.8199C8.95308 17.8713 9.11747 17.8978 9.28192 17.9243C9.37502 17.9393 9.46814 17.9543 9.55993 17.9739C9.95047 18.0585 10.3471 18.0575 10.7428 18.0514C10.8368 18.0507 10.9303 18.0414 11.024 18.0321H11.024H11.024H11.0241H11.0241H11.0241H11.0241H11.0241H11.0242H11.0242H11.0242H11.0242H11.0242C11.0779 18.0268 11.1315 18.0214 11.1853 18.0177C11.2177 18.0156 11.25 18.0159 11.2852 18.0164C11.3 18.0165 11.3152 18.0167 11.3312 18.0167ZM12.7088 18.0259C13.6754 19.9531 16.3297 20.3488 17.8165 18.966L17.8073 18.9507C17.7954 18.931 17.783 18.9104 17.7757 18.8886C17.5575 18.2716 17.1618 17.7903 16.6489 17.3967C16.5745 17.3406 16.5041 17.3223 16.4021 17.3774C15.9677 17.6098 15.5038 17.774 15.0255 17.8811C14.6972 17.9545 14.3597 17.9943 14.0242 18.0198C13.8025 18.0355 13.5792 18.0322 13.3559 18.0287C13.2619 18.0273 13.1678 18.0259 13.0738 18.0259C12.9939 18.0266 12.914 18.0263 12.8329 18.0261L12.7088 18.0259ZM10.877 17.1549L10.9019 17.1785C7.43181 17.5191 4.5226 14.3437 5.00084 10.993C5.04111 11.0363 5.07959 11.0782 5.11699 11.1189L5.11712 11.119C5.2056 11.2153 5.28806 11.305 5.37405 11.3917C5.75765 11.7756 6.14158 12.1593 6.52555 12.5431L6.52727 12.5448L6.52733 12.5449L6.52794 12.5455L6.53021 12.5477L6.53192 12.5494L6.53198 12.5495L6.5321 12.5496L6.53222 12.5497L6.53233 12.5499L6.53245 12.55L6.53257 12.5501L6.53269 12.5502L6.5328 12.5503L6.53292 12.5504L6.53304 12.5506L6.53316 12.5507C7.49806 13.5151 8.46326 14.4797 9.42431 15.4481C9.53454 15.5598 9.6221 15.6948 9.70938 15.8294L9.70939 15.8294C9.73918 15.8753 9.76894 15.9212 9.79956 15.9661C10.0871 16.3882 10.443 16.7472 10.8131 17.0949C10.8327 17.1129 10.8517 17.1309 10.877 17.1549ZM19.505 7.85129C19.5621 8.02362 19.7293 8.13783 19.9241 8.14904C19.9486 8.14088 19.9735 8.13363 19.9984 8.12638C20.0483 8.11188 20.0981 8.09738 20.1443 8.07562C20.2183 8.03939 20.2894 7.99733 20.3607 7.95517C20.3837 7.94156 20.4067 7.92795 20.4299 7.91451C20.5497 7.84499 20.6698 7.77576 20.7898 7.70652L20.7899 7.70648C21.059 7.5513 21.3282 7.39607 21.5954 7.23743C21.8258 7.10079 21.8982 6.85708 21.782 6.64192C21.6729 6.44002 21.4159 6.35131 21.2048 6.46959C20.6899 6.75613 20.18 7.05286 19.6722 7.35265C19.506 7.45157 19.4448 7.66876 19.505 7.85129ZM4.11522 8.15088C4.08904 8.14171 4.06223 8.13381 4.03545 8.12592C3.97882 8.10923 3.92239 8.09259 3.87253 8.0642C3.38716 7.78786 2.9028 7.50846 2.4215 7.22499C2.20634 7.09854 2.14006 6.83954 2.25733 6.63356C2.37459 6.42962 2.62952 6.3562 2.85079 6.47857C3.11358 6.62287 3.37241 6.7734 3.63108 6.92383C3.71969 6.97537 3.80828 7.02689 3.89701 7.07815C3.94453 7.10576 3.99235 7.13297 4.04019 7.16019L4.0402 7.1602L4.04021 7.1602L4.04022 7.16021C4.14431 7.21942 4.24847 7.27869 4.34976 7.34225C4.52107 7.45034 4.59143 7.65734 4.53228 7.84803C4.47926 8.01832 4.30999 8.13558 4.11522 8.15088ZM11.5929 5.07474C11.597 4.82491 11.7775 4.64952 12.0283 4.6536C12.2761 4.65666 12.4474 4.84327 12.4444 5.10737C12.4403 5.33986 12.2527 5.51015 12.0018 5.50607C11.7612 5.502 11.5888 5.32049 11.5929 5.07474ZM19.7537 13.215C19.7547 12.9744 19.5814 12.8 19.3428 12.802C19.0817 12.7878 18.9196 12.9632 18.9012 13.2181C18.8859 13.4434 19.0939 13.6464 19.3234 13.6474C19.5671 13.6484 19.7527 13.4618 19.7537 13.215Z" fill="#0C1E3C"/>
</svg>
