<svg width="24" height="24" viewBox="0 0 24 24" fill="none" xmlns="http://www.w3.org/2000/svg">
<path fill-rule="evenodd" clip-rule="evenodd" d="M6.96928 7.85002L6.96934 7.85C6.99942 7.84071 7.0322 7.83059 7.06882 7.81909C7.05324 7.84854 7.04162 7.87188 7.03205 7.89113C7.01656 7.92227 7.00639 7.94269 6.99339 7.96093C6.15879 9.11413 5.58208 10.3946 5.15535 11.7465C4.76765 12.9741 4.49969 14.2295 4.33917 15.5069C4.30058 15.8153 4.48478 16.047 4.75537 16.0831C5.03913 16.1214 5.26017 15.9391 5.32376 15.6254C5.38289 15.3333 5.43857 15.0403 5.49427 14.7472L5.49429 14.7471L5.49429 14.7471C5.62612 14.0534 5.75798 13.3595 5.93556 12.6777C6.47193 10.6158 7.38371 8.75072 8.93668 7.24778C9.14456 7.04692 9.37306 6.96498 9.67084 6.98657C9.59081 7.19314 9.51081 7.3958 9.43175 7.5961L9.43168 7.59627L9.4314 7.59698L9.43127 7.5973L9.43125 7.59736C9.25877 8.03432 9.09071 8.46008 8.93624 8.8908C8.37356 10.4598 7.98674 12.0694 7.92754 13.7428C7.90292 14.4454 7.90105 15.1486 7.89918 15.8517V15.8517C7.89869 16.0381 7.89819 16.2245 7.89727 16.4108C7.89596 16.709 8.10866 16.9244 8.3854 16.9306C8.67836 16.9368 8.89721 16.7341 8.90466 16.4196C8.91519 15.9747 8.91914 15.5294 8.9051 15.0849C8.83932 13.0547 9.20026 11.0976 9.89188 9.19694C10.0151 8.85776 10.1473 8.52203 10.2828 8.17819L10.2828 8.17817L10.2828 8.17806C10.347 8.01512 10.4119 7.85036 10.4769 7.68254L11.8554 8.90049C12.0658 9.08634 12.276 9.27236 12.4861 9.45835L12.4874 9.45949C13.029 9.9388 13.5705 10.418 14.1149 10.8937C14.4148 11.1558 14.7613 11.2219 15.1358 11.0774C15.4823 10.9435 15.7069 10.684 15.756 10.3193C15.9503 8.8767 15.5683 7.60105 14.6039 6.51128C14.0969 5.93821 13.5223 5.44398 12.797 5.09599C12.8287 5.07649 12.8568 5.05886 12.8827 5.04268C12.935 5.00989 12.9779 4.98304 13.0219 4.95856C13.2745 4.81871 13.5271 4.6796 13.7799 4.54046L13.78 4.54035L13.7802 4.54025L13.7804 4.54015L13.7806 4.54004L13.781 4.53984L13.7813 4.53964L13.7817 4.53943L13.7821 4.53923C13.964 4.43906 14.146 4.33886 14.328 4.23836C14.5163 4.13445 14.7048 4.0309 14.8933 3.92733C15.4056 3.64586 15.9181 3.36431 16.4265 3.07547C16.7822 2.87373 16.9528 2.54953 16.927 2.13944C16.902 1.74872 16.7107 1.42541 16.3458 1.30647C15.8639 1.14922 15.3608 1.01575 14.8578 0.969059C13.7131 0.863342 12.6781 1.23203 11.7501 1.88307C11.4441 2.09789 11.1605 2.34465 10.8737 2.59417L10.8737 2.59417L10.8737 2.59418L10.8737 2.59419C10.7412 2.70947 10.608 2.82534 10.4717 2.93892C10.1563 2.31563 9.69409 1.75797 9.145 1.26419C8.06481 0.292469 6.80831 -0.114982 5.37069 0.0277359C4.9058 0.0735467 4.551 0.285422 4.41461 0.753661C4.28304 1.20648 4.44268 1.57209 4.79441 1.87646C5.37104 2.37537 5.94237 2.88012 6.51376 3.38492L6.51377 3.38493L6.51378 3.38494L6.5138 3.38495L6.51381 3.38496L6.51382 3.38497L6.51383 3.38498L6.51384 3.38499L6.51385 3.385C6.69512 3.54515 6.8764 3.7053 7.05786 3.86527C7.08478 3.88889 7.1084 3.91619 7.13973 3.9524L7.13975 3.95242C7.1569 3.97224 7.17637 3.99474 7.19995 4.02076C6.48552 4.07891 5.85837 4.29078 5.24832 4.57005C3.91025 5.18189 3.03356 6.19149 2.61736 7.60766C2.49587 8.02083 2.53885 8.39965 2.86076 8.70712C3.18925 9.02118 3.573 9.04365 3.98656 8.89608C4.70613 8.63935 5.42699 8.38628 6.14776 8.13324L6.14795 8.13317L6.14815 8.1331L6.14834 8.13303L6.14854 8.13297L6.79384 7.90631C6.84728 7.8877 6.90135 7.871 6.96915 7.85006L6.96924 7.85003L6.96928 7.85002ZM13.564 2.10948C14.3306 1.86457 15.1029 1.90774 15.9182 2.2108L14.4864 3.0009L13.5202 3.53402C13.3223 3.64323 13.1245 3.75268 12.9267 3.86214L12.9267 3.86215L12.9265 3.86227L12.9264 3.86231L12.9263 3.86236C12.4246 4.14003 11.9228 4.41775 11.419 4.69163C11.1962 4.81276 11.0352 4.96957 11.0651 5.23959C11.0958 5.51886 11.2909 5.63383 11.5448 5.70783C13.0241 6.13863 14.078 7.0522 14.6249 8.51418C14.8131 9.01678 14.8288 9.54448 14.7705 10.1281C14.7104 10.0761 14.6541 10.0277 14.6003 9.98157C14.5039 9.89875 14.4157 9.823 14.3284 9.74579C13.9748 9.43323 13.6202 9.12171 13.2656 8.81019L13.2653 8.80996L13.265 8.80973L13.2648 8.80949L13.2645 8.80926L13.2645 8.80921L13.2644 8.80916L13.2643 8.8091L13.2643 8.80907C12.3155 7.97555 11.3667 7.142 10.4357 6.28839C10.0068 5.89504 9.54892 5.88447 9.08097 6.04304C7.81868 6.47085 6.56212 6.9159 5.30566 7.36092C4.82337 7.53174 4.34109 7.70256 3.8585 7.87239C3.80724 7.8907 3.75524 7.90677 3.69445 7.92557C3.66163 7.93572 3.62624 7.94666 3.58703 7.95917C3.59189 7.92971 3.59533 7.90338 3.59848 7.87926L3.59849 7.87925C3.60443 7.83377 3.60934 7.7962 3.6208 7.76051C3.96551 6.70025 4.65012 5.95671 5.6597 5.48891C6.38685 5.15194 7.13329 4.96208 7.93499 5.03036C8.10711 5.04493 8.27818 5.07605 8.44851 5.10703L8.50908 5.11802C8.82397 5.17484 9.03141 5.09511 9.14588 4.86562C9.2599 4.63612 9.20245 4.41456 8.96343 4.204C8.22437 3.55193 7.48472 2.90083 6.74501 2.24967L6.74446 2.24919L5.61672 1.25626C5.57197 1.21693 5.52811 1.1765 5.4742 1.12682L5.40182 1.06024C5.91319 0.944392 6.38992 0.984917 6.84603 1.12367C8.35953 1.58486 9.34718 2.59842 9.84759 4.09741C9.92697 4.33615 10.009 4.55904 10.2927 4.60793C10.5436 4.6511 10.7142 4.54847 10.8673 4.27052C11.4698 3.17679 12.3974 2.48214 13.564 2.10948ZM23.64 19.8735C23.4628 19.9286 23.2129 19.9898 22.9089 20.0101C22.8063 20.0167 22.4712 20.0308 22.0283 19.9445C21.2152 19.7863 20.5038 19.3643 19.8631 18.7754C19.7576 18.6785 19.6556 18.5779 19.5476 18.4713C19.4975 18.4219 19.4461 18.3712 19.3925 18.3191C18.4351 19.3802 17.2439 20.0149 15.8063 20.0061C14.3709 19.9978 13.1762 19.3643 12.2022 18.3124C10.404 20.366 7.26828 20.7704 4.96054 18.2948C4.83522 18.3914 4.71119 18.4895 4.58726 18.5875L4.58721 18.5875L4.58718 18.5875L4.58715 18.5875C4.30907 18.8075 4.03148 19.027 3.74088 19.2278C3.05847 19.6987 2.30062 19.9964 1.46866 20.0431C1.13184 20.0621 0.787562 20.0158 0.451619 19.9669C0.185847 19.9286 0.0231386 19.6727 0.0564698 19.4176C0.0898009 19.1599 0.305576 18.9789 0.578804 18.9864C0.69169 18.9895 0.805108 18.9979 0.918447 19.0064H0.918486C1.14683 19.0234 1.37486 19.0403 1.5976 19.0133C2.53613 18.8987 3.29047 18.3948 3.98034 17.7817L4.03692 17.7316C4.18804 17.5982 4.34219 17.4622 4.45443 17.2993C4.78555 16.8188 5.23245 16.8998 5.53418 17.3451C6.08283 18.1539 6.87401 18.6565 7.81868 18.8943C9.2164 19.2467 10.7667 18.6212 11.6474 17.365C11.6654 17.3394 11.6829 17.3139 11.7004 17.2879C12.0057 16.8412 12.3644 16.8377 12.6789 17.2852C13.0442 17.805 13.5065 18.212 14.0586 18.519C16.0133 19.6057 17.9343 18.6847 18.8697 17.3385C18.8818 17.3212 18.8934 17.3036 18.905 17.286C18.9192 17.2645 18.9333 17.243 18.9482 17.2222C19.1995 16.8685 19.5789 16.8646 19.8311 17.2187C20.2617 17.8244 20.781 18.3296 21.4432 18.6754C22.0125 18.9732 22.6142 19.0771 23.2475 18.956C23.3979 18.9274 23.501 18.9357 23.6229 18.9846C23.6747 19.0058 23.9277 19.1168 23.9628 19.359C23.9918 19.5586 23.8624 19.7735 23.64 19.8735ZM0.0471721 23.5993C0.0695391 23.6473 0.134886 23.7601 0.349345 23.8632C0.734408 24.0482 1.18482 24.0019 1.37691 23.9729C1.7725 23.9336 2.08871 23.8561 2.30755 23.7909C3.46844 23.4456 4.27584 22.7439 4.71924 22.3351L4.79821 22.2618L4.90519 22.1624C5.87442 23.2346 7.06514 23.8852 8.5089 23.9103C9.96319 23.9359 11.1605 23.302 12.1486 22.2175C13.1266 23.2623 14.3138 23.9011 15.7492 23.9116C17.1851 23.9222 18.3701 23.2985 19.3863 22.1752C19.4031 22.2014 19.4185 22.2282 19.4337 22.2547L19.4337 22.2547L19.4337 22.2547C19.4656 22.3102 19.4966 22.3643 19.5384 22.4078C20.2735 23.172 21.123 23.7473 22.1957 23.8755C22.8974 23.9592 23.215 23.9834 23.4671 23.8315L23.4672 23.8314C23.5628 23.7737 23.8 23.6306 23.8233 23.3769C23.8412 23.1835 23.7298 22.9848 23.5741 22.8981C23.4206 22.8124 23.2474 22.85 23.1686 22.8671L23.147 22.8716C22.508 22.9963 21.8975 22.8597 21.3278 22.5465C20.7099 22.2069 20.2169 21.7277 19.8069 21.1568C19.5178 20.7538 19.1731 20.7762 18.8657 21.1687C18.6034 21.5035 18.3214 21.8352 17.9956 22.1039C17.3263 22.6553 16.5316 22.9584 15.669 22.9055C14.3791 22.8258 13.3551 22.2109 12.6016 21.1506C12.3236 20.7595 11.9617 20.7749 11.6727 21.155C11.4477 21.4511 11.2114 21.7484 10.9333 21.9915C10.2294 22.6073 9.39218 22.9606 8.45934 22.9038C7.16908 22.8249 6.14721 22.2043 5.39551 21.1423C5.14377 20.7859 4.82011 20.7745 4.52013 21.0859L4.43224 21.1774C4.19188 21.428 3.95028 21.6798 3.6829 21.8977C2.77331 22.6386 1.77732 23.1245 0.55328 22.8897C0.306366 22.8421 0.0664691 23.0355 0.0129638 23.272C-0.0129117 23.3874 0.000683937 23.5015 0.0471721 23.5993ZM23.4807 16.5092C23.2201 16.4935 23.0315 16.3237 22.9753 16.2731L22.9659 16.2647C22.1361 15.5449 21.159 15.0943 20.1402 14.7256C18.5416 14.1468 16.8869 13.824 15.2019 13.6442C13.748 13.4892 12.2916 13.4196 10.8302 13.4958C10.4588 13.5152 10.2228 13.3249 10.2123 13.0152C10.2005 12.6875 10.4202 12.4774 10.8048 12.4853C11.1668 12.4924 11.5291 12.4959 11.8915 12.4995L11.8917 12.4995C12.8339 12.5086 13.7762 12.5178 14.7138 12.5897C17.0741 12.7708 19.3792 13.2355 21.5567 14.2151C22.2887 14.5446 22.9812 14.9432 23.5891 15.4753C23.6755 15.551 23.7496 15.6407 23.8237 15.7304L23.8238 15.7305C23.858 15.7719 23.8922 15.8133 23.9276 15.8533C24.021 16.0154 24.025 16.2048 23.9347 16.3387C23.8062 16.5286 23.5509 16.5136 23.4807 16.5092ZM2.85493 14.0254C1.87385 14.4073 0.749363 15.1848 0.256413 15.598C0.192821 15.6513 0.0647587 15.7614 0.041076 15.9301C0.0125691 16.1341 0.153349 16.3085 0.163437 16.3208C0.223082 16.3926 0.289744 16.4323 0.325707 16.4512C0.537535 16.5622 0.734452 16.508 0.906809 16.3583C1.60106 15.7561 2.37864 15.2958 3.23078 14.9575C3.54436 14.8333 3.66759 14.5571 3.55488 14.2849C3.43998 14.0078 3.16763 13.9039 2.85493 14.0254Z" fill="#0C1E3C"/>
</svg>
