<svg width="24" height="24" viewBox="0 0 24 24" fill="none" xmlns="http://www.w3.org/2000/svg">
<path fill-rule="evenodd" clip-rule="evenodd" d="M11.9699 1.11087L11.9699 1.11086C11.893 1.07483 11.8162 1.0388 11.7417 0.999817H11.1558C11.1349 1.00855 11.1142 1.01767 11.0935 1.02678L11.0935 1.02678L11.0935 1.02678C11.0492 1.04632 11.0049 1.06581 10.9593 1.08132C10.3056 1.30352 9.85687 1.92894 9.8869 2.57753C9.9002 2.85506 10.107 3.07383 10.3755 3.09313C10.6238 3.11115 10.8619 2.92155 10.916 2.6616C10.922 2.63209 10.9267 2.6022 10.9315 2.57229L10.9315 2.57224L10.9315 2.5722L10.9315 2.57215L10.9315 2.5721L10.9315 2.57207L10.9315 2.57204L10.9316 2.57201L10.9316 2.57198L10.9316 2.57196L10.9316 2.57193C10.937 2.53762 10.9425 2.50328 10.9499 2.46943C11.0052 2.20691 11.2055 2.05076 11.4723 2.06106C11.7623 2.07264 11.8944 2.22406 11.9755 2.63758C12.0304 2.91941 12.2603 3.11158 12.5198 3.09313C12.7974 3.0734 13.0084 2.84777 13.0093 2.55436C13.0101 2.07993 12.83 1.67414 12.4594 1.38545C12.3133 1.27194 12.1416 1.1914 11.9699 1.11087ZM23.8798 9.708L23.8799 9.70758L23.8799 9.70724L23.88 9.70689L23.8801 9.70655L23.8802 9.70621L23.8802 9.70586C23.9197 9.50557 23.9592 9.3053 24.0001 9.10541V9.05651C23.7749 8.51002 23.3266 8.38562 23.0156 8.80857C22.3228 9.75057 21.3838 10.3554 20.3436 10.8307C18.9925 11.4484 17.5808 11.8984 16.1699 12.3481L16.1699 12.3481L16.1696 12.3482L16.1694 12.3483L16.1691 12.3484L16.1688 12.3485L16.1685 12.3486C15.9879 12.4062 15.8073 12.4637 15.6268 12.5216C14.5874 12.8554 13.603 13.2809 12.8072 14.0534C12.6532 14.2028 12.5105 14.3638 12.3678 14.5249L12.3677 14.5249L12.3677 14.5249L12.3677 14.525L12.3677 14.525L12.3676 14.525L12.3676 14.5251C12.3025 14.5986 12.2373 14.6721 12.1711 14.7445L12.1351 14.7424L12.099 14.7402C12.0873 14.6506 12.0733 14.5611 12.0594 14.4715L12.0594 14.4715C12.028 14.2703 11.9966 14.069 11.9901 13.8668C11.9776 13.4874 11.9802 13.1075 11.9828 12.7277V12.7277V12.7277V12.7277V12.7276V12.7276V12.7276C11.9839 12.5703 11.9849 12.413 11.9849 12.2557C11.9849 12.0886 11.9852 11.9214 11.9855 11.7542V11.7541V11.7541V11.754V11.7539V11.7538V11.7538V11.7536C11.9862 11.3352 11.9869 10.9167 11.9832 10.4982C11.9802 10.1838 11.7687 9.95604 11.4839 9.94145C11.212 9.9273 10.9902 10.1242 10.9417 10.4296C10.928 10.5171 10.9263 10.6076 10.9258 10.6964C10.9252 10.9731 10.9252 11.2498 10.9252 11.5265C10.9252 11.8031 10.9252 12.0798 10.9245 12.3565C10.9245 12.4013 10.9196 12.4459 10.9147 12.4906V12.4906V12.4906V12.4906V12.4907V12.4907V12.4907V12.4907V12.4907V12.4907V12.4907C10.9122 12.5131 10.9097 12.5356 10.9078 12.5581C10.8889 12.5675 10.8705 12.577 10.8521 12.5868C10.8386 12.5685 10.8258 12.5495 10.813 12.5306L10.813 12.5305L10.8129 12.5305C10.785 12.4892 10.7572 12.4479 10.7225 12.4135C9.7106 11.4051 8.50951 10.8341 7.06092 10.853C6.69275 10.858 6.32465 10.8683 5.95658 10.8785L5.95651 10.8785C5.34898 10.8955 4.74156 10.9124 4.13414 10.9058C3.26936 10.8967 2.41316 10.7972 1.65948 10.3009C1.39352 10.1259 1.13272 10.1392 0.944834 10.3189C0.758666 10.497 0.74065 10.7488 0.898507 11.0349C1.41497 11.9691 1.99921 12.8584 2.68555 13.6772C3.43794 14.5746 4.26883 15.3836 5.33479 15.9074C6.1185 16.2926 6.93824 16.4723 7.81417 16.296C8.92346 16.0726 9.75049 15.4115 10.4613 14.5802C10.5484 14.4781 10.6028 14.2795 10.5664 14.1577C10.5209 14.0063 10.3896 13.8407 10.2502 13.7678C10.0658 13.6708 9.85816 13.7253 9.69215 13.8866C9.63335 13.9437 9.57486 14.0012 9.51634 14.0588C9.28503 14.2863 9.05335 14.5143 8.80035 14.7149C8.31091 15.1031 7.74725 15.3197 7.11068 15.3116C6.4711 15.3026 5.90659 15.0654 5.38112 14.7261C4.29457 14.0256 3.47998 13.0578 2.74517 12.0142C2.72228 11.9818 2.70302 11.9468 2.67885 11.9029C2.66679 11.881 2.6535 11.8569 2.63793 11.8297C2.74433 11.8418 2.84662 11.8562 2.94614 11.8702C3.15356 11.8994 3.34894 11.9269 3.54432 11.9284C4.19513 11.9333 4.84593 11.9306 5.49674 11.928C5.93506 11.9262 6.37338 11.9244 6.8117 11.925C6.87026 11.925 6.92907 11.9246 6.98799 11.9241C7.25442 11.9221 7.52303 11.9201 7.78157 11.9661C9.18469 12.2175 10.1228 13.0947 10.8062 14.2885C10.8821 14.4215 10.9203 14.5948 10.9203 14.7492C10.924 16.7821 10.9205 18.8147 10.917 20.8476V20.8479V20.8483V20.8487V20.849V20.8494V20.8498L10.9155 21.6825C10.9155 21.7281 10.912 21.7738 10.9079 21.8254C10.9057 21.8537 10.9034 21.8838 10.9014 21.9167H10.5741L8.93398 21.9167C6.20055 21.9166 3.46732 21.9165 0.733787 21.918C0.612821 21.918 0.487565 21.9201 0.371317 21.9497C0.1148 22.0145 -0.0374801 22.2706 0.00798951 22.5318C0.0594645 22.8299 0.260217 22.9706 0.637271 22.9706L23.2477 22.9719L23.2743 22.972L23.3021 22.9722L23.3027 22.9722H23.3027H23.3027H23.3028H23.3028H23.3028H23.3028C23.3578 22.9727 23.4127 22.9732 23.4673 22.9693C23.7431 22.95 23.94 22.7557 23.9589 22.4881C23.9782 22.2118 23.8212 21.9952 23.5475 21.9403C23.4368 21.9184 23.321 21.9175 23.2078 21.9175C20.3039 21.9165 17.3997 21.9166 14.4957 21.9166L12.3178 21.9167H11.9987C11.9965 21.8945 11.9944 21.8754 11.9924 21.8584C11.9885 21.8239 11.9855 21.7978 11.9858 21.7717C11.9904 21.4491 11.9923 21.1264 11.9943 20.8037L11.9943 20.8034C11.999 20.0361 12.0037 19.2688 12.0433 18.5035C12.09 17.6001 12.2899 16.719 12.7193 15.907C13.3422 14.7286 14.3609 14.0569 15.5899 13.6412C17.0882 13.135 18.5862 12.6276 20.0734 12.0905C20.9605 11.7701 21.7939 11.33 22.5742 10.7539C22.5742 10.775 22.575 10.7925 22.5757 10.8077C22.5769 10.8345 22.5777 10.8539 22.5733 10.8723C22.1753 12.559 21.6605 14.2066 20.8987 15.7676C20.3535 16.8841 19.7083 17.9351 18.759 18.7643C17.8608 19.5488 16.8309 19.9443 15.6341 19.7003C15.2774 19.6277 14.9321 19.4959 14.5879 19.3646C14.4847 19.3252 14.3815 19.2858 14.2781 19.2481C13.9633 19.1332 13.684 19.2151 13.5536 19.4888C13.4237 19.7629 13.5292 20.0477 13.8295 20.1966C14.0255 20.2939 14.2262 20.384 14.4313 20.4608C15.9957 21.0472 17.4906 20.9412 18.8907 19.9872C19.9361 19.2747 20.6851 18.2971 21.3096 17.2179C22.4271 15.288 23.1014 13.1904 23.6033 11.0319C23.7053 10.593 23.7926 10.1504 23.8798 9.708ZM10.0278 6.72002C10.0256 7.51574 10.6438 8.15059 11.4343 8.16475C12.2125 8.17848 12.8675 7.53246 12.8696 6.74833C12.8722 5.9539 12.2489 5.31432 11.4618 5.30317C10.6819 5.29202 10.0299 5.93631 10.0278 6.72002ZM11.439 4.25951C12.8023 4.25351 13.9343 5.37566 13.9321 6.73117C13.93 8.0678 12.8259 9.17109 11.5175 9.20969C10.2886 9.24615 8.99527 8.29558 8.96781 6.74876C8.94336 5.38982 10.0728 4.26552 11.439 4.25951ZM13.5691 17.6272C13.5618 17.6484 13.5557 17.6663 13.5505 17.6793C13.5471 17.9976 13.7101 18.2121 13.9448 18.2708C14.1781 18.3292 14.4158 18.2211 14.547 17.965C15.0425 16.9998 15.7683 16.2333 16.6729 15.6632C17.3157 15.2579 17.9838 14.8925 18.652 14.527C18.9166 14.3823 19.1813 14.2375 19.4444 14.0902C19.7687 13.9088 19.8845 13.6304 19.7391 13.3498C19.5967 13.0749 19.2879 12.9856 18.9631 13.1602C18.7716 13.2634 18.5793 13.3657 18.387 13.4681L18.3868 13.4682L18.3867 13.4682C17.712 13.8273 17.0368 14.1866 16.3872 14.5865C15.2436 15.2904 14.2901 16.1998 13.6582 17.4082C13.6176 17.4856 13.5891 17.5689 13.5691 17.6272ZM6.25692 4.70061C6.30497 3.50382 7.46616 2.79046 8.48493 3.2636C8.80494 3.41202 8.93663 3.69213 8.81866 3.97181C8.69727 4.25921 8.41845 4.36002 8.08772 4.23648C7.769 4.11766 7.50434 4.19101 7.36878 4.43594C7.2298 4.68646 7.30315 4.92238 7.58884 5.14673C7.84579 5.34834 7.90455 5.62802 7.74112 5.87381C7.57554 6.12261 7.27012 6.18095 6.9913 6.00336C6.49114 5.68464 6.25778 5.21879 6.25692 4.70061ZM6.29257 9.16225C6.47617 9.85416 7.09601 10.3252 7.84025 10.3788C7.91481 10.3532 7.9902 10.3295 8.06559 10.3059L8.0656 10.3059L8.06561 10.3058C8.24222 10.2504 8.41872 10.1949 8.58407 10.1158C8.78139 10.0215 8.86632 9.8237 8.83629 9.60279C8.80755 9.39303 8.68487 9.22616 8.47768 9.1867C8.33741 9.15968 8.17484 9.19185 8.03414 9.23646C7.72143 9.33469 7.44475 9.23131 7.32936 8.94691C7.23714 8.71999 7.31692 8.5008 7.558 8.31634C7.82181 8.11473 7.89687 7.86379 7.7669 7.61886C7.61848 7.33918 7.2899 7.26154 6.99049 7.43612C6.41053 7.77371 6.1167 8.50122 6.29257 9.16225ZM14.8375 2.69755C15.5165 2.75074 16.1081 3.17541 16.3208 3.80254C16.5306 4.42024 16.3161 5.14475 15.8082 5.53554C15.5393 5.74272 15.2437 5.72685 15.0468 5.49478C14.8495 5.26186 14.8795 4.9766 15.1266 4.73939C15.3823 4.4936 15.4243 4.24866 15.2532 4.00544C15.1009 3.78968 14.8229 3.74549 14.5347 3.89091C14.2155 4.05177 13.9247 3.98528 13.7745 3.71589C13.6218 3.44222 13.7042 3.14581 14.0263 2.98495C14.2029 2.89695 14.394 2.8378 14.585 2.77864C14.6696 2.75245 14.7542 2.72625 14.8375 2.69755ZM15.1002 9.92553C15.1589 9.93745 15.2176 9.94938 15.2758 9.9629C16.0093 9.93459 16.6446 9.43271 16.8059 8.73093C16.9646 8.03988 16.624 7.30121 15.9986 6.98121C15.6366 6.79547 15.2732 6.93445 15.1784 7.29435C15.1162 7.53156 15.2278 7.74261 15.5036 7.90776C15.7919 8.0802 15.8759 8.36074 15.7211 8.63056C15.586 8.86562 15.3912 8.92439 15.0425 8.83646C14.7293 8.7571 14.4724 8.8845 14.3767 9.16632C14.2819 9.44429 14.4128 9.72097 14.7126 9.82778C14.8377 9.87223 14.9689 9.89888 15.1002 9.92553Z" fill="#0C1E3C"/>
</svg>
