<svg width="24" height="24" viewBox="0 0 24 24" fill="none" xmlns="http://www.w3.org/2000/svg">
<path fill-rule="evenodd" clip-rule="evenodd" d="M3.65625 8.71875C4.96289 5.37012 8.16504 3 12 3C14.6777 3 17.1064 4.18652 18.75 6.07031V3.75H20.25V9H15V7.5H17.9531C16.5996 5.69238 14.4316 4.5 12 4.5C8.7832 4.5 6.13184 6.48047 5.03906 9.28125L3.65625 8.71875ZM12 19.5C15.2168 19.5 17.8682 17.5195 18.9609 14.7188L20.3438 15.2812C19.0371 18.6299 15.835 21 12 21C9.2959 21 6.89062 19.79 5.25 17.9297V20.25H3.75V15H9V16.5H6.02344C7.38281 18.29 9.54199 19.5 12 19.5Z" fill="#0C1E3C"/>
</svg>
