<svg width="24" height="24" viewBox="0 0 24 24" fill="none" xmlns="http://www.w3.org/2000/svg">
<path fill-rule="evenodd" clip-rule="evenodd" d="M1.77402 10.8596C2.40657 10.2259 3.18579 9.97034 4.10481 9.98752C4.11922 9.88666 4.1331 9.79268 4.14631 9.7032C4.17198 9.52938 4.19515 9.37253 4.21482 9.21518C4.60214 6.12351 7.34545 3.94627 10.6205 4.13306C13.5162 4.29807 15.9994 6.90731 16.0189 9.85231C16.0227 10.367 15.9347 10.8849 15.8472 11.3992C15.8309 11.4952 15.8145 11.5911 15.7989 11.6869C15.7519 11.9791 15.7622 12.2163 16.0819 12.2977C16.3993 12.3779 16.5586 12.1797 16.6331 11.8966C16.6434 11.857 16.6549 11.8174 16.6663 11.7777C16.6979 11.6681 16.7296 11.5581 16.7396 11.4463C16.794 10.874 16.8424 10.3017 16.8909 9.72895L16.8909 9.72889L16.8909 9.72883L16.8909 9.72877L16.8909 9.72871C16.9099 9.50451 16.9289 9.28025 16.9482 9.0559C18.3611 9.20143 19.4406 10.1182 19.7878 11.5276C19.9608 12.2312 19.9092 12.9291 19.6228 13.5994C19.499 13.8871 19.4658 14.1529 19.8004 14.2916C20.1499 14.4371 20.2931 14.1735 20.4111 13.91C20.4524 13.816 20.4902 13.7198 20.5235 13.6224C21.3634 11.1357 19.7156 8.54482 17.0548 8.20448C16.727 8.16323 16.6056 8.04979 16.4944 7.7507C15.8264 5.93787 14.6094 4.61892 12.8424 3.81564C12.7606 3.77833 12.6816 3.73443 12.5997 3.68888C12.5633 3.66867 12.5263 3.64813 12.4883 3.62771C13.1633 2.93672 14.1121 2.65827 15.0712 2.91839C16.4692 3.29539 17.1304 4.31067 17.3046 5.69035C19.1048 5.37293 20.5578 5.89776 21.5983 7.35193C22.6468 8.81526 22.5277 10.376 21.7656 11.9127C21.8567 11.9788 21.9453 12.0391 22.0306 12.0973L22.0306 12.0973L22.0307 12.0973C22.2071 12.2176 22.3695 12.3283 22.5116 12.4604C23.1052 13.0104 23.284 13.879 22.9895 14.6434C22.6869 15.4295 21.9833 15.9245 21.1102 15.9268C18.1323 15.9325 15.1533 15.9302 12.1742 15.9279H12.1732C11.85 15.9279 11.5544 15.9829 11.5624 16.3783C11.5704 16.7518 11.8707 16.7828 12.1617 16.7828C12.9707 16.7839 13.7809 16.7839 14.5899 16.7839C15.2052 16.7839 15.8203 16.7847 16.4354 16.7854C17.973 16.7873 19.5103 16.7892 21.0483 16.7794C22.326 16.7713 23.253 16.1755 23.7664 14.9997C24.2419 13.9077 23.9841 12.6999 23.0777 11.8347C22.8519 11.6193 22.8772 11.4566 22.9539 11.2137C23.4639 9.58989 23.2152 8.075 22.1942 6.72282C21.1606 5.3546 19.7431 4.71633 18.0116 4.74268C17.9497 4.59486 17.8901 4.45391 17.8306 4.31411C16.7843 1.85154 13.7144 1.21442 11.8099 3.08455C11.551 3.33779 11.3183 3.32633 11.0227 3.27935C7.50244 2.72931 3.97991 5.27439 3.42528 8.78202C3.37945 9.0708 3.28319 9.1682 2.99671 9.23581C1.08877 9.68844 -0.157986 11.4142 0.0161926 13.3187C0.191517 15.2289 1.77288 16.714 3.7576 16.7736C4.6818 16.8008 5.60711 16.7945 6.53237 16.7882C6.93331 16.7855 7.33424 16.7828 7.73506 16.7828C8.0456 16.7828 8.36875 16.7473 8.35156 16.3428C8.33552 15.9509 8.01696 15.9268 7.70527 15.9279C7.38935 15.9288 7.07337 15.9304 6.75735 15.9321H6.75713H6.75692H6.75671H6.7565H6.75648H6.75646H6.75645H6.75643C5.78089 15.9373 4.80501 15.9424 3.82979 15.9234C2.5521 15.897 1.64224 15.2645 1.13346 14.1002C0.651028 12.9955 0.924901 11.711 1.77402 10.8596ZM8.35065 14.42H10.1681L10.1395 14.5015C10.1141 14.5742 10.0936 14.6326 10.0707 14.6905L9.37152 16.4812C8.90522 17.6754 8.43892 18.8695 7.97364 20.0637C7.85332 20.3719 7.95531 20.6252 8.22918 20.7271C8.48701 20.8234 8.70244 20.7111 8.82162 20.4063C9.61917 18.3654 10.4167 16.3234 11.2086 14.2802C11.3953 13.8001 11.1948 13.5205 10.6803 13.5205C10.0263 13.5188 9.3716 13.519 8.71726 13.5192L8.06302 13.5193C8.01964 13.5193 7.97585 13.5169 7.92716 13.5143L7.92708 13.5143L7.92705 13.5143C7.89346 13.5124 7.85754 13.5104 7.8178 13.509C8.00555 13.0904 8.18985 12.6788 8.37248 12.2708L8.37453 12.2662L8.37533 12.2645C8.57071 11.828 8.76419 11.3958 8.95798 10.964C9.02696 10.8098 9.09608 10.6556 9.1652 10.5015L9.1657 10.5004L9.16621 10.4992C9.37464 10.0345 9.58306 9.5697 9.78762 9.10299C9.89534 8.85777 9.80023 8.60796 9.58136 8.50941C9.3728 8.41545 9.13445 8.51056 9.01184 8.7386C8.99931 8.76115 8.98861 8.78492 8.97795 8.80858L8.966 8.83485L8.40065 10.0896L8.40044 10.09L8.39897 10.0933C7.85313 11.3046 7.30714 12.5162 6.76241 13.729C6.59052 14.1118 6.78075 14.412 7.20244 14.4189C7.46741 14.4229 7.73237 14.4219 7.99734 14.4209C8.11511 14.4205 8.23288 14.42 8.35065 14.42ZM10.6294 21.5089C10.6318 21.4992 10.6344 21.4873 10.6373 21.4737C10.6455 21.4357 10.6564 21.3851 10.6741 21.337C10.9778 20.4856 11.2814 19.6353 11.5885 18.7862C11.6779 18.5398 11.8762 18.4103 12.1076 18.4321C12.3013 18.4504 12.4629 18.6109 12.4892 18.8263C12.4972 18.8939 12.4915 18.9707 12.4675 19.0337C12.1466 19.9241 11.8246 20.8133 11.4934 21.6991C11.4109 21.9203 11.1863 22.0326 10.9846 21.9856C10.7715 21.9363 10.6283 21.7587 10.6294 21.5089ZM6.42104 18.9418C6.42447 18.9279 6.42731 18.9165 6.42964 18.9083C6.43078 18.6322 6.28411 18.45 6.0618 18.4007C5.86012 18.356 5.63781 18.4729 5.55072 18.6895C5.48321 18.8579 5.42273 19.0298 5.3623 19.2016L5.36225 19.2017L5.36224 19.2017C5.3314 19.2894 5.30057 19.377 5.26883 19.4641C5.19282 19.6742 5.11644 19.8841 5.04005 20.094C4.88725 20.514 4.73446 20.9339 4.58472 21.3549C4.47586 21.6631 4.60649 21.9187 4.89297 21.9794C5.10955 22.0252 5.29748 21.8992 5.40175 21.6299C5.72719 20.7876 6.05034 19.9454 6.37349 19.102C6.39572 19.0438 6.41094 18.9825 6.42104 18.9418ZM18.0367 18.8882C18.0362 18.8909 18.0356 18.8939 18.0351 18.8972C18.0318 18.9155 18.027 18.942 18.0184 18.9671C17.9277 19.2152 17.8372 19.4634 17.7467 19.7115L17.7459 19.7138C17.5007 20.3865 17.2555 21.0591 17.0054 21.7299C16.9309 21.9282 16.7384 22.0279 16.5447 21.9958C16.3373 21.9603 16.1975 21.8399 16.1563 21.6291C16.1437 21.5626 16.1482 21.4847 16.1712 21.4228C16.5092 20.5095 16.8484 19.5974 17.1968 18.6875C17.2827 18.4652 17.4958 18.3758 17.7193 18.4343C17.9003 18.4824 18.0436 18.6749 18.0378 18.8823C18.0375 18.8841 18.0371 18.8861 18.0367 18.8882ZM13.9561 20.2118C13.853 20.4972 14.073 20.7768 14.3744 20.7733C14.5623 20.7676 14.701 20.6805 14.7697 20.5063L14.7977 20.4352C14.9844 19.9603 15.1715 19.4843 15.3472 19.0052C15.4332 18.7703 15.3129 18.5262 15.0974 18.446C14.874 18.3612 14.6299 18.4563 14.5359 18.69C14.3343 19.1942 14.1395 19.7007 13.9561 20.2118Z" fill="#0C1E3C"/>
</svg>
