<svg width="24" height="24" viewBox="0 0 24 24" fill="none" xmlns="http://www.w3.org/2000/svg">
<path fill-rule="evenodd" clip-rule="evenodd" d="M12.4442 2.79237C12.5345 2.3341 12.4209 1.94709 12.2747 1.565C12.1868 1.3334 12.2157 1.16017 12.3748 1.0625C12.5615 0.948237 12.7391 0.997381 12.8644 1.1528C12.9217 1.22376 12.9801 1.29432 13.0385 1.36495C13.2703 1.64533 13.503 1.92693 13.6802 2.2395C13.9996 2.80282 14.0039 3.4036 13.6286 4.03203C13.6847 4.01822 13.7355 4.00826 13.7821 3.99914C13.8723 3.98148 13.9465 3.96696 14.0113 3.93375C14.1563 3.85941 14.3111 3.82071 14.4204 3.93559C14.504 4.02405 14.5685 4.1807 14.5586 4.30048C14.4794 5.26125 13.6452 6.23922 12.7041 6.47696C12.521 6.52364 12.4356 6.59367 12.4596 6.78349C12.4657 6.83265 12.464 6.88307 12.4623 6.93339V6.9334C12.4616 6.9535 12.461 6.97359 12.4608 6.99358C12.4577 7.26756 12.5554 7.458 12.8195 7.59621C12.884 7.63001 12.9492 7.66348 13.0147 7.69709C13.3824 7.88581 13.758 8.0786 14.0469 8.35549C14.1551 8.45922 14.2648 8.56186 14.3745 8.66459C14.9772 9.22864 15.5829 9.79548 15.9617 10.5615C16.3985 11.4424 16.6817 12.365 16.8445 13.3307C17.1264 15.0029 17.1123 16.6817 16.9771 18.3649C16.8617 19.7987 16.6491 21.2171 16.3389 22.6214C16.2971 22.8131 16.2338 22.9734 16.0072 22.9943C15.7719 23.0158 15.6668 22.8721 15.6079 22.6687C15.5723 22.6976 15.538 22.7275 15.504 22.7571L15.504 22.7571L15.5039 22.7571L15.5039 22.7572C15.4322 22.8196 15.3618 22.8809 15.2835 22.9292C15.0114 23.0969 14.6846 22.9525 14.711 22.6435C14.7528 22.1496 14.5562 21.8087 14.249 21.4395C13.7686 20.8627 13.596 20.1286 13.4781 19.3988C13.4227 19.0569 13.3908 18.7111 13.3589 18.3653C13.3412 18.1737 13.3235 17.9821 13.3018 17.7912C13.2926 17.7119 13.2655 17.6272 13.2219 17.562C13.0051 17.2346 12.7851 16.909 12.5536 16.5921C12.4983 16.5165 12.4006 16.4446 12.3103 16.4262C11.2316 16.2026 10.2536 16.4237 9.38682 17.1124C9.16875 17.2856 8.95681 17.261 8.81798 17.0245C8.71723 16.8519 8.63246 16.6627 8.57963 16.4698C8.47827 16.1006 8.59253 15.772 8.90337 15.5625C9.07105 15.4489 9.26403 15.3725 9.45665 15.2963L9.45666 15.2963L9.45667 15.2963C9.53078 15.2669 9.60485 15.2376 9.67739 15.2062C9.71639 15.189 9.75897 15.1803 9.80244 15.1713C9.82127 15.1674 9.84028 15.1635 9.85922 15.1589C9.78518 15.0788 9.71044 15.0011 9.63641 14.9241L9.63637 14.9241L9.63637 14.9241C9.47884 14.7603 9.32446 14.5999 9.18656 14.426C8.51022 13.5721 8.14839 12.5764 7.91373 11.5271C7.71899 10.6548 7.63176 9.77023 7.62193 8.87765C7.62071 8.76277 7.59122 8.70442 7.47757 8.66264C7.38414 8.62797 7.29623 8.57788 7.19883 8.52239L7.19882 8.52238C7.15471 8.49724 7.10864 8.47099 7.05923 8.44457C7.05404 8.47113 7.05138 8.49835 7.0488 8.52472C7.04345 8.57944 7.03846 8.63049 7.01193 8.66449L6.99343 8.68847C6.91737 8.78731 6.83079 8.89982 6.7269 8.93048C6.63537 8.95751 6.44985 8.89239 6.40377 8.81253C6.06775 8.22587 5.87854 7.60482 6.08741 6.92417C6.17894 6.62562 6.3706 6.39894 6.60956 6.20236C6.67529 6.14892 6.7226 6.0537 6.74287 5.96893C6.76644 5.87227 6.78236 5.77366 6.79826 5.67518C6.81924 5.54523 6.84019 5.4155 6.87863 5.29074C7.16366 4.36621 7.89223 3.84774 8.90828 3.83423C9.63746 3.82501 10.3273 3.6782 10.941 3.266C11.0614 3.18553 11.1665 3.07741 11.2654 2.96929C11.3722 2.85135 11.4128 2.73094 11.2819 2.58167C11.1689 2.45266 11.1849 2.28987 11.3016 2.15964C11.4306 2.01589 11.6008 1.97596 11.7531 2.09821C11.9016 2.21762 12.0373 2.35281 12.1729 2.4879C12.2208 2.53557 12.2686 2.58324 12.317 2.6302C12.3421 2.65483 12.363 2.68332 12.3908 2.72115L12.3908 2.72116L12.3908 2.72124C12.406 2.74187 12.4232 2.76529 12.4442 2.79237ZM11.6839 6.57628L11.7543 6.58077C11.7384 7.27063 11.7654 7.9261 12.5671 8.23939C12.4994 8.25521 12.4373 8.26877 12.3791 8.28149L12.3791 8.2815C12.2655 8.30631 12.1667 8.32789 12.0701 8.35672C11.0866 8.65036 10.3863 9.51284 10.2665 10.5455C10.1436 11.6076 10.4361 12.5874 10.8519 13.5377C11.0249 13.9331 11.2203 14.3187 11.4208 14.7145C11.5122 14.8949 11.6047 15.0774 11.6966 15.2639C11.6408 15.2455 11.5858 15.2284 11.5318 15.2117C11.4169 15.1761 11.3061 15.1417 11.1996 15.0975C10.1811 14.6748 9.53856 13.8854 9.09687 12.9099C8.65949 11.9418 8.45677 10.9141 8.37507 9.86115C8.35013 9.54119 8.34261 9.22031 8.33508 8.89931V8.8993L8.33145 8.74742C8.32961 8.6823 8.34067 8.59998 8.37937 8.55268C8.73444 8.12144 8.67976 7.6644 8.4021 7.24729C8.19536 6.93556 7.93322 6.659 7.67328 6.38476L7.57279 6.27854C7.48126 6.18086 7.43949 6.09793 7.44993 5.96954C7.52549 5.04072 8.03475 4.56709 8.96296 4.54068C9.87642 4.51488 10.7414 4.31523 11.4791 3.73594C11.5762 3.65959 11.663 3.57036 11.7635 3.46718L11.7635 3.46718L11.7635 3.46716L11.7635 3.46714C11.815 3.41425 11.8701 3.35769 11.9319 3.29733C11.9223 3.33848 11.9157 3.3736 11.9099 3.40433C11.8993 3.46076 11.8914 3.50238 11.8735 3.53936C11.7924 3.70768 11.8158 3.86003 11.9528 3.97736C12.0904 4.09408 12.2482 4.08671 12.4006 3.98842C12.7784 3.74515 13.0087 3.39685 13.1267 2.96868C13.1328 2.94694 13.1397 2.92562 13.1522 2.88691L13.1611 2.85933C13.2625 3.1413 13.2096 3.3778 13.0597 3.58052C13.0031 3.65743 12.9308 3.72277 12.8584 3.7882L12.8583 3.7882C12.7902 3.84977 12.722 3.91142 12.6666 3.98289C12.5886 4.08425 12.5185 4.2237 12.5192 4.34533C12.5198 4.50505 12.6568 4.60149 12.8159 4.62545C13.0148 4.65523 13.2144 4.68016 13.4212 4.70599L13.4214 4.70601C13.5089 4.71694 13.5976 4.72803 13.6882 4.73971C13.5217 5.15559 13.2416 5.47319 12.8423 5.67652C12.4847 5.85835 12.0977 5.9118 11.6984 5.87064L11.6678 5.86752L11.6677 5.86752C11.5803 5.85861 11.4928 5.84969 11.4048 5.84914C11.2058 5.84853 11.0645 5.97016 11.0399 6.15506C11.0166 6.32522 11.1388 6.48494 11.3323 6.53163C11.3992 6.54745 11.4686 6.55603 11.5373 6.56455L11.5393 6.5648C11.5835 6.5701 11.6284 6.57286 11.6839 6.57628ZM7.06906 6.76138C6.78771 6.94505 6.65564 7.25221 6.7269 7.47458C6.93269 7.34066 7.14462 7.20245 7.37437 7.05256L7.06906 6.76138ZM7.91434 8.02315L7.85844 8.068L7.46222 7.85606L7.47112 7.81552L7.47113 7.81549L7.48003 7.77498C7.51572 7.77735 7.55173 7.77859 7.58774 7.77984L7.58777 7.77984L7.5878 7.77984L7.58783 7.77984L7.58786 7.77984L7.58788 7.77985L7.58791 7.77985L7.58794 7.77985L7.58797 7.77985C7.6827 7.78313 7.77746 7.78642 7.86643 7.80999C7.88892 7.81636 7.89617 7.8802 7.90336 7.94357C7.90658 7.97192 7.90979 8.00018 7.91434 8.02315ZM9.26243 16.2616L9.24431 16.2321C9.40106 15.9641 9.67306 15.9266 9.94535 15.8891C10.0145 15.8796 10.0837 15.87 10.151 15.8567C9.86107 16.0017 9.5705 16.1467 9.28055 16.291L9.26243 16.2616ZM14.523 20.534C14.5078 20.536 14.4926 20.538 14.4775 20.5402L14.0445 18.685L14.1299 18.6647C14.3691 19.1183 14.4376 19.613 14.5062 20.1077C14.5257 20.248 14.5451 20.3884 14.5685 20.5279C14.5534 20.53 14.5382 20.532 14.523 20.534ZM15.9801 20.5555C15.9894 20.5273 15.9981 20.5038 16.0057 20.4831C16.0194 20.4462 16.0296 20.4184 16.0336 20.3897C16.2111 19.1181 16.3401 17.8415 16.3573 16.5564C16.377 15.087 16.2891 13.6268 15.8671 12.2078C15.5305 11.0768 15.0052 10.062 14.0162 9.3525C13.5377 9.00911 13.0026 8.87028 12.4245 8.99559C11.5436 9.18664 10.9859 9.90046 10.9465 10.8483C10.9171 11.5486 11.0909 12.2102 11.3311 12.8577C11.7015 13.8547 12.2378 14.7676 12.8011 15.6638C13.4474 16.6916 14.1034 17.7168 15.0095 18.5425C15.4531 18.9467 15.7363 19.4246 15.8591 20.0057C15.8824 20.1151 15.9067 20.2244 15.9333 20.3442C15.9481 20.4108 15.9637 20.4807 15.9801 20.5555ZM8.04709 6.11734C8.05139 6.37289 8.2621 6.58114 8.51703 6.58176C8.7861 6.58237 9.0011 6.37228 8.99988 6.10874C8.99926 5.86118 8.78364 5.64617 8.53055 5.64126C8.27254 5.63634 8.04341 5.86179 8.04709 6.11734ZM12.2223 10.9294C12.4323 10.9287 12.4901 11.1063 12.5454 11.2967C12.5936 11.4625 12.6405 11.6289 12.6874 11.7953L12.6874 11.7953C12.8151 12.2484 12.9429 12.7019 13.097 13.1458C13.5989 14.5894 14.2562 15.9556 15.2115 17.1621C15.3374 17.3217 15.4738 17.4734 15.6102 17.6252L15.6102 17.6252C15.6428 17.6614 15.6754 17.6976 15.7078 17.734C15.8638 17.9084 15.8767 18.1155 15.7348 18.2586C15.5831 18.4116 15.3724 18.4011 15.1979 18.2187C14.3324 17.3113 13.6812 16.259 13.1443 15.1336C12.6338 14.0635 12.2339 12.9516 11.9452 11.8011C11.9337 11.7551 11.9218 11.7092 11.9098 11.6633C11.8848 11.5671 11.8597 11.471 11.8389 11.3741C11.7886 11.1345 11.9464 10.9361 12.2223 10.9294ZM13.8846 12.0225C13.8822 12.044 13.88 12.0634 13.8769 12.079C14.0115 13.2222 14.1872 14.3132 14.5785 15.3563C14.7314 15.7635 14.917 16.1592 15.2462 16.462C15.3863 16.5916 15.5908 16.5879 15.7229 16.4669C15.8581 16.3434 15.8863 16.1334 15.7542 15.9939C15.3838 15.6032 15.1885 15.1204 15.0767 14.6148C14.9236 13.9237 14.7982 13.2269 14.6728 12.53C14.6397 12.3461 14.6066 12.1621 14.5729 11.9782C14.5422 11.813 14.4611 11.7049 14.302 11.6698C14.1435 11.6354 14.0023 11.687 13.9285 11.8363C13.8989 11.8961 13.8909 11.9668 13.8846 12.0225Z" fill="#0C1E3C"/>
</svg>
