<svg width="24" height="24" viewBox="0 0 24 24" fill="none" xmlns="http://www.w3.org/2000/svg">
<path fill-rule="evenodd" clip-rule="evenodd" d="M12.3444 3.01405L12.3447 3.19853C12.345 3.33715 12.3454 3.47577 12.344 3.61437C12.3417 3.85192 12.1732 4.01943 11.9422 4.01752C11.7086 4.01561 11.5448 3.85162 11.5436 3.61129C11.5415 3.20691 11.5416 2.80251 11.5435 2.39813C11.5447 2.1574 11.7064 1.9997 11.9454 2C12.1842 2.00028 12.3421 2.15795 12.3441 2.40122C12.3452 2.54302 12.3449 2.68483 12.3447 2.82664L12.3444 3.01405ZM8.48711 5.08165C8.64138 5.0063 8.72817 4.88204 8.73797 4.65403C8.73044 4.64032 8.72253 4.62255 8.7136 4.60252L8.7136 4.60251L8.71359 4.6025L8.71359 4.60249L8.71359 4.60249C8.69002 4.54958 8.65944 4.48094 8.61053 4.4298C8.33101 4.13746 8.04354 3.85255 7.75381 3.57022C7.58334 3.40409 7.34715 3.40875 7.1828 3.56966C7.01387 3.73507 7.01184 3.95461 7.18338 4.13641C7.27159 4.22991 7.36293 4.32048 7.45426 4.41106L7.45428 4.41107L7.4543 4.41109L7.45437 4.41116C7.49037 4.44687 7.52638 4.48258 7.5622 4.51847C7.60826 4.56461 7.65408 4.61101 7.69989 4.65741L7.6999 4.65742L7.6999 4.65742L7.69991 4.65743C7.81529 4.77428 7.93067 4.89114 8.04993 5.00389C8.17531 5.12242 8.32484 5.16094 8.48711 5.08165ZM12.7053 6.28709H18.0946L15.4004 10.2353L12.7053 6.28709ZM21.3203 11.1044L12.9163 21.6575L12.8935 21.6481C12.8997 21.6238 12.9056 21.5995 12.9116 21.5751C12.9245 21.5225 12.9374 21.47 12.9521 21.4179L13.4945 19.4983L13.4946 19.498C14.2736 16.741 15.0527 13.9841 15.8292 11.2266C15.8581 11.1238 15.9043 11.102 16.0024 11.1022C17.4094 11.1045 18.8163 11.1045 20.2233 11.1044L21.1554 11.1044H21.3203ZM11.9304 22L8.8546 11.1141H15.0342L11.9587 21.9995L11.9304 22ZM2.57512 11.1111L10.9787 21.6629L11.0022 21.6597L10.9954 21.6293C10.9906 21.6077 10.9858 21.5861 10.9797 21.5648L10.4863 19.819C9.67601 16.952 8.86569 14.0851 8.05708 11.2176C8.03227 11.1296 7.99388 11.1021 7.90271 11.1022C6.5648 11.1044 5.22689 11.1045 3.88896 11.1045L2.71274 11.1047C2.68796 11.1047 2.66316 11.1061 2.63198 11.108L2.63182 11.108L2.63179 11.108H2.63178H2.63177H2.63176H2.63174H2.63172C2.61502 11.109 2.59647 11.1101 2.57512 11.1111ZM8.48916 10.2345L11.1794 6.29137H5.79794L8.48916 10.2345ZM5.03389 6.58719L7.57662 10.3039H2.5L5.03389 6.58719ZM14.4788 10.3052L11.9445 6.58784L9.41069 10.3052H14.4788ZM18.8545 6.58708L21.3871 10.3028H16.3222L18.8545 6.58708ZM15.1954 4.87988C15.2695 5.02417 15.3894 5.10426 15.5657 5.12816C15.5913 5.11629 15.6185 5.10618 15.6458 5.09608C15.7049 5.07418 15.764 5.05228 15.8057 5.01234C16.119 4.71265 16.4281 4.40813 16.7277 4.09478C16.8732 3.94254 16.8518 3.72904 16.703 3.57756C16.554 3.42582 16.3193 3.39307 16.1724 3.53217C15.8547 3.83311 15.5458 4.14383 15.2433 4.46021C15.1313 4.57742 15.1193 4.73176 15.1954 4.87988Z" fill="#0C1E3C"/>
</svg>
