<svg width="24" height="24" viewBox="0 0 24 24" fill="none" xmlns="http://www.w3.org/2000/svg">
<path fill-rule="evenodd" clip-rule="evenodd" d="M21.635 4.62158C21.6341 4.32189 21.5066 3.96511 21.2288 3.66922C20.9947 3.42091 20.7017 3.27629 20.3678 3.2154C20.1252 3.17164 19.8911 3.10409 19.6828 2.96423C19.5905 2.90239 19.4849 2.87861 19.3764 2.89002C19.3076 2.89726 19.2399 2.91167 19.1721 2.92611C19.1508 2.93064 19.1295 2.93518 19.1081 2.9395C18.8531 2.98992 18.6486 2.90524 18.5078 2.68642C18.4881 2.65581 18.4709 2.62414 18.4537 2.59227L18.4536 2.59224L18.4536 2.5922L18.4536 2.59217L18.4536 2.59215L18.4536 2.59213L18.4536 2.5921L18.4535 2.59206L18.4535 2.59203L18.4535 2.59201L18.4535 2.59196C18.4424 2.57144 18.4312 2.55084 18.4193 2.53039C18.2566 2.24877 17.9169 2.08513 17.5944 2.1308C17.3233 2.16981 17.1263 2.31537 16.9827 2.54371L16.9698 2.56487L16.9698 2.56488C16.9399 2.61425 16.9098 2.66408 16.8723 2.70735C16.7496 2.85197 16.5916 2.91571 16.4023 2.89288C16.29 2.87861 16.193 2.82913 16.1036 2.76158L16.0668 2.73439C16.021 2.70043 15.975 2.66637 15.9285 2.63409C15.6193 2.42003 15.0998 2.45808 14.8353 2.83294C14.8154 2.86053 14.7954 2.88907 14.7764 2.91761C14.6184 3.14785 14.4015 3.24204 14.1246 3.20399C13.9743 3.18306 13.824 3.18401 13.6765 3.22492C13.5157 3.27058 13.355 3.31435 13.1932 3.35431C12.9839 3.40664 12.7946 3.36477 12.6328 3.21826L12.6203 3.20684C12.559 3.15074 12.498 3.09506 12.4321 3.04605C12.3826 3.00895 12.3274 2.9747 12.2685 2.95472C12.003 2.86624 11.749 2.89288 11.5102 3.04605L11.4992 3.05308L11.4992 3.05309C11.4448 3.08792 11.3901 3.12296 11.3304 3.1488C11.0078 3.28961 10.6606 3.17925 10.4798 2.8767C10.4487 2.82415 10.4263 2.76699 10.4039 2.71016L10.4039 2.7101L10.4039 2.71006L10.4039 2.71003L10.4039 2.71001C10.3975 2.69383 10.3912 2.67769 10.3847 2.66168C10.28 2.40005 10.1021 2.21643 9.82334 2.15078C9.74903 2.13301 9.67061 2.13444 9.59274 2.13586L9.55124 2.13651C9.28389 2.14127 9.07649 2.00997 8.97278 1.76261C8.96432 1.74273 8.95727 1.722 8.95022 1.70124L8.95022 1.70123L8.95022 1.70123L8.95022 1.70123L8.95022 1.70122L8.95022 1.70122L8.95021 1.70121L8.95021 1.7012L8.95021 1.70119C8.93904 1.66831 8.92785 1.63536 8.91094 1.60562L8.8916 1.57029C8.85437 1.50184 8.81618 1.43162 8.76347 1.37729C8.35342 0.953912 7.72454 1.05762 7.44197 1.52666C7.43163 1.54389 7.42176 1.56143 7.41185 1.57902L7.41184 1.57904L7.41183 1.57905L7.41183 1.57906L7.41182 1.57907L7.41182 1.57908L7.41181 1.57908L7.41181 1.57908C7.39711 1.60519 7.38233 1.63144 7.36586 1.657C7.21934 1.88153 7.01574 1.96145 6.75601 1.8958C6.71116 1.88459 6.66729 1.87007 6.62345 1.85556C6.59289 1.84545 6.56235 1.83534 6.53148 1.82635C6.00535 1.66842 5.54962 2.0661 5.48873 2.45333C5.48041 2.50522 5.4738 2.55755 5.46718 2.61001L5.46718 2.61003L5.46718 2.61004C5.46397 2.63548 5.46076 2.66095 5.45734 2.68642C5.41072 3.02988 5.16335 3.22206 4.81609 3.19162C4.71048 3.1821 4.60202 3.1802 4.49737 3.19257C3.62208 3.29722 2.96085 4.1278 3.15303 5.02688C3.27767 5.61009 3.62779 6.01634 4.20148 6.19616C4.77613 6.37692 5.29275 6.24563 5.73895 5.83843L5.76723 5.81117C5.79854 5.78081 5.82994 5.75037 5.86359 5.72331C6.08241 5.5454 6.32217 5.54159 6.54575 5.71475C6.5861 5.74613 6.6241 5.78162 6.66206 5.81707L6.69321 5.84604C6.97864 6.10577 7.31163 6.25419 7.6979 6.26846C8.13079 6.28464 8.50279 6.13051 8.82246 5.84128L8.82405 5.83983C8.88825 5.7813 8.95435 5.72102 9.02701 5.67479C9.20873 5.55776 9.39521 5.56062 9.57692 5.67669C9.62335 5.7063 9.66573 5.74265 9.70803 5.77893L9.732 5.79942C9.75385 5.81741 9.77493 5.83637 9.79601 5.85534L9.79603 5.85535C9.82177 5.8785 9.84752 5.90166 9.87471 5.9231C10.261 6.2228 10.6929 6.34077 11.1762 6.23421C11.4598 6.17142 11.7024 6.03061 11.9155 5.83652L11.9263 5.82659L11.9264 5.82658C11.978 5.77928 12.0308 5.73097 12.0886 5.69096C12.2827 5.55681 12.493 5.55681 12.6871 5.69001C12.723 5.71462 12.7566 5.74343 12.7901 5.77218C12.8046 5.78455 12.819 5.79692 12.8336 5.80893C12.8528 5.82521 12.8714 5.84203 12.89 5.85882C12.9203 5.88622 12.9505 5.91355 12.983 5.93833C13.3264 6.19901 13.7108 6.31508 14.1418 6.25609C14.4605 6.21328 14.7345 6.07533 14.9742 5.86507L15.012 5.83114C15.0695 5.77916 15.1271 5.72708 15.1912 5.68335C15.3795 5.55491 15.5746 5.55491 15.7639 5.68145C15.8343 5.72902 15.8971 5.78705 15.959 5.84509C16.2425 6.10863 16.5774 6.25229 16.9627 6.26656C17.388 6.28178 17.759 6.14097 18.0749 5.8546L18.0949 5.83633L18.0949 5.83631C18.153 5.78317 18.2116 5.72953 18.2756 5.6843C18.4631 5.55396 18.6695 5.55396 18.8569 5.68525C18.9264 5.73282 18.9892 5.79086 19.0501 5.84984C19.6466 6.42354 20.5904 6.40642 21.186 5.83938C21.5018 5.53874 21.635 5.15722 21.635 4.62158ZM22.7653 4.85658C22.7636 4.86418 22.7612 4.87166 22.7589 4.8791C22.7548 4.89215 22.7507 4.90509 22.7501 4.91842C22.7349 5.39888 22.575 5.83082 22.3039 6.22089C21.8796 6.82979 21.3039 7.21511 20.5695 7.34165C19.8873 7.45962 19.2508 7.32262 18.6638 6.95633C18.6315 6.93635 18.6001 6.91637 18.5687 6.89639C17.5392 7.5462 16.5108 7.55001 15.4775 6.9021C14.45 7.55096 13.4187 7.5481 12.3798 6.89734C11.3599 7.55572 10.3314 7.55191 9.30102 6.89163C8.2754 7.55857 7.24788 7.55191 6.21275 6.89163C5.63049 7.30169 4.97783 7.4463 4.27474 7.35687C3.75432 7.29122 3.29765 7.07145 2.91328 6.71753C2.11124 5.98019 1.85246 5.0754 2.10744 4.01934C2.46897 2.88051 3.25008 2.24212 4.43267 2.07276C4.43539 2.06529 4.43811 2.0572 4.44096 2.04873L4.44097 2.04869L4.44099 2.04864L4.441 2.04861L4.44101 2.04859C4.44612 2.03338 4.45166 2.01692 4.45836 2.00046C4.69621 1.36587 5.13386 0.941544 5.78652 0.754117C6.03579 0.682761 6.29458 0.664684 6.55336 0.703692C6.62376 0.714158 6.66753 0.694178 6.7151 0.640899C7.04523 0.27556 7.45719 0.0548335 7.94526 0.0101174C8.7492 -0.0631408 9.36952 0.263191 9.81097 0.932029C9.85569 0.999579 9.90326 1.03002 9.97937 1.04525C10.4722 1.14134 10.8718 1.3887 11.1715 1.79495C11.198 1.83084 11.2237 1.8675 11.2514 1.90698L11.2609 1.92054C11.2892 1.91215 11.317 1.90352 11.3446 1.89495L11.3446 1.89494C11.411 1.87436 11.476 1.85417 11.5425 1.83872C11.983 1.73692 12.4045 1.79115 12.805 2.00141C12.9049 2.05374 13.0048 2.10702 13.1038 2.16125C13.1447 2.18313 13.1828 2.18979 13.2303 2.18313C13.4634 2.14793 13.6965 2.11558 13.9306 2.08608C13.9848 2.07942 14.0219 2.05754 14.058 2.01853C14.3273 1.72645 14.6555 1.53141 15.0427 1.43818C15.4576 1.33923 15.86 1.38014 16.252 1.54188L16.2872 1.55616L16.3224 1.57042C16.3235 1.57097 16.3252 1.57089 16.3287 1.57072C16.3312 1.57059 16.3347 1.57042 16.3395 1.57042C16.3646 1.55102 16.3905 1.5306 16.417 1.50972C16.4528 1.48145 16.4897 1.45236 16.5269 1.42391C16.7734 1.23267 17.0436 1.08711 17.3556 1.03859C18.0844 0.92537 18.6961 1.14419 19.1852 1.69696C19.2375 1.75595 19.2841 1.78544 19.3659 1.78068C19.6885 1.76356 19.9863 1.85965 20.2688 2.00712C20.3735 2.06135 20.4819 2.09655 20.5971 2.12034C21.1099 2.22404 21.5713 2.43525 21.949 2.80535C22.3733 3.22206 22.6235 3.73106 22.7273 4.31428C22.7359 4.36615 22.7393 4.41923 22.7428 4.4722V4.47222C22.7446 4.50086 22.7465 4.52946 22.7491 4.55784C22.7519 4.58105 22.7563 4.60322 22.7607 4.6255L22.7653 4.64917V4.85658ZM4.48519 23.1799C4.88859 23.5785 5.35858 23.8554 5.92372 23.9534C6.22722 24.0237 6.71529 23.9657 6.81709 23.9477C7.91025 23.7526 8.62476 23.1238 8.97012 22.0715C8.98454 22.0264 8.99858 21.981 9.01295 21.9345L9.03862 21.8517H15.7346C15.7479 21.9012 15.7622 21.9526 15.7765 22.003C16.0562 22.9896 16.8259 23.7146 17.8277 23.9315C17.9324 23.9543 18.2961 23.9805 18.4481 23.9738C18.608 23.9667 18.7812 23.9569 18.8314 23.9486C19.4803 23.8421 20.0055 23.5233 20.4222 23.0191C20.6857 22.7004 20.8808 22.3446 20.9883 21.944C20.9959 21.9164 21.0035 21.8888 21.0121 21.8622C21.0125 21.8607 21.0132 21.8593 21.014 21.8577L21.0153 21.8552C21.0178 21.8508 21.0218 21.8445 21.0282 21.8327H21.169C21.4468 21.8356 21.7132 21.7823 21.9597 21.6529C22.4068 21.4179 22.6542 21.0402 22.7427 20.5502C22.7496 20.5118 22.754 20.473 22.7584 20.4343L22.7584 20.4342C22.7607 20.4144 22.7629 20.3947 22.7655 20.3751V18.3553C22.7637 18.3451 22.7616 18.3348 22.7595 18.3246C22.7547 18.3015 22.75 18.2785 22.7493 18.2554C22.7417 17.9338 22.6685 17.6256 22.5467 17.3297C22.1281 16.3107 21.1367 15.6467 20.0159 15.639C19.5777 15.6365 19.1394 15.6374 18.7011 15.6382C18.482 15.6386 18.2628 15.639 18.0437 15.639H17.9295L17.917 15.605L17.9069 15.5778L17.9069 15.5778C17.8921 15.5383 17.8781 15.5011 17.8667 15.463C17.7499 15.0581 17.6337 14.6525 17.5177 14.2473L17.4405 13.9779C17.3973 13.8272 17.3551 13.6761 17.313 13.525C17.2149 13.1735 17.1168 12.822 17.0057 12.4747C16.8002 11.8363 16.4149 11.3263 15.8431 10.9676C15.4111 10.6974 14.9316 10.5776 14.4274 10.5604C14.1819 10.5522 13.9363 10.5528 13.6904 10.5534H13.6903H13.6903H13.6903H13.6903H13.6903H13.6902H13.6902H13.6902H13.6902H13.6902C13.6245 10.5536 13.5588 10.5538 13.4931 10.5538L13.4902 10.5538L13.4874 10.5538L13.4845 10.5538L13.4817 10.5538L13.4789 10.5538L13.476 10.5538L13.4732 10.5538L13.4703 10.5538L13.4675 10.5538L13.4647 10.5538L13.4619 10.5538C11.9376 10.5548 10.4125 10.5557 8.8883 10.5576C8.5534 10.5576 8.22231 10.5899 7.89788 10.6718C7.11393 10.8697 6.52881 11.3187 6.18345 12.0561C6.0807 12.2739 5.99793 12.5032 5.92752 12.7344C5.82386 13.0729 5.72751 13.4135 5.63112 13.7542L5.63112 13.7542L5.63107 13.7544C5.59744 13.8733 5.5638 13.9922 5.52984 14.1111C5.4618 14.3494 5.39401 14.5883 5.32622 14.8271C5.25844 15.0659 5.19065 15.3046 5.12263 15.543C5.09599 15.6362 5.09409 15.6371 4.9999 15.6381C4.92726 15.6384 4.85461 15.6377 4.78202 15.6369H4.78192H4.78189H4.78186H4.78182H4.78179H4.78176H4.78173H4.78169H4.78166H4.78163C4.65278 15.6355 4.52408 15.6342 4.39576 15.639C4.35392 15.6404 4.31195 15.6415 4.26993 15.6426H4.26992C4.08171 15.6474 3.89257 15.6522 3.7098 15.6857C2.75268 15.8607 2.04484 16.6989 2.01915 17.6722C2.00773 18.106 2.00202 18.5399 2.00012 18.9737C1.99917 19.3039 2.00393 19.635 2.01154 19.9651L2.01337 20.0551C2.01702 20.2415 2.02068 20.4288 2.04198 20.6139C2.07433 20.9041 2.19611 21.1591 2.41303 21.3589C2.69845 21.6224 3.03525 21.7794 3.42628 21.8108C3.49784 21.8164 3.5694 21.8204 3.64043 21.8243L3.64056 21.8243L3.64115 21.8244L3.64178 21.8244C3.67889 21.8265 3.71586 21.8285 3.75261 21.8308C3.75458 21.8337 3.75643 21.8362 3.75809 21.8385L3.7581 21.8385C3.76126 21.8428 3.76373 21.8461 3.76498 21.8498C3.76878 21.8584 3.77164 21.8669 3.77259 21.8765C3.87154 22.3874 4.117 22.8174 4.48519 23.1799ZM20.7038 16.9082C20.6913 16.902 20.6804 16.8962 20.6706 16.891C20.6536 16.882 20.6397 16.8746 20.6258 16.8692C20.4231 16.7845 20.21 16.7389 19.9922 16.7351C19.5678 16.7275 19.1425 16.7256 18.7182 16.7246C18.5641 16.7246 18.4104 16.7273 18.2565 16.73L18.2561 16.73L18.2557 16.73L18.2553 16.73L18.2549 16.73C18.1357 16.7321 18.0165 16.7342 17.8972 16.7351C17.8382 16.7351 17.7763 16.7332 17.7192 16.7189C17.2768 16.6076 16.9705 16.3421 16.8344 15.9035C16.7578 15.6576 16.6893 15.4091 16.6208 15.1608L16.6208 15.1608C16.5873 15.0393 16.5539 14.918 16.5195 14.7971L16.416 14.4306C16.2718 13.9204 16.1278 13.4106 15.982 12.9009C15.7632 12.1341 15.0943 11.6574 14.3551 11.6688C14.0156 11.6742 13.6757 11.6713 13.3356 11.6684H13.3356H13.3356H13.3355H13.3355H13.3355H13.3354H13.3354H13.3354H13.3354H13.3353H13.3353C13.1342 11.6667 12.9331 11.665 12.732 11.665C11.732 11.6641 10.7312 11.666 9.73124 11.6679C9.62876 11.6679 9.52621 11.6672 9.42364 11.6666H9.4236H9.42356H9.42352H9.42348H9.42343H9.42339H9.42335H9.42331H9.42327H9.42323H9.42319H9.42317H9.42315H9.42314H9.42312H9.42311H9.42309H9.42308H9.42306H9.42304H9.42303H9.42301C9.13541 11.6647 8.84769 11.6629 8.56101 11.6755C7.97114 11.7012 7.52208 11.9809 7.21287 12.4823C7.11678 12.6383 7.05399 12.8105 7.00356 12.9865C6.91082 13.3082 6.81913 13.6306 6.72743 13.9531L6.72741 13.9532L6.7274 13.9532L6.72738 13.9533L6.72736 13.9534L6.72734 13.9534L6.72733 13.9535L6.72731 13.9535L6.72729 13.9536L6.72728 13.9537L6.72726 13.9537L6.72724 13.9538C6.66849 14.1604 6.60974 14.367 6.55069 14.5735C6.51389 14.7027 6.47733 14.8319 6.44078 14.9611L6.44075 14.9612L6.44072 14.9613L6.44068 14.9614L6.44065 14.9616L6.44062 14.9617L6.44059 14.9618L6.44056 14.9619L6.44053 14.962L6.4405 14.9621L6.44046 14.9622L6.44043 14.9623L6.44042 14.9624C6.35141 15.277 6.26244 15.5915 6.17013 15.9054C6.05025 16.3126 5.78957 16.5847 5.37856 16.7065C5.23314 16.7501 5.08374 16.7506 4.934 16.7511L4.89239 16.7512L4.89155 16.7513H4.89151H4.89148H4.89145H4.89142H4.89139H4.89136H4.89133H4.8913H4.89127H4.89124H4.89121C4.6214 16.7541 4.35065 16.757 4.0818 16.7712C3.94194 16.7779 3.80494 16.8131 3.67174 16.8702C3.69522 16.8887 3.7184 16.9062 3.74112 16.9234L3.74117 16.9235C3.78839 16.9592 3.8336 16.9934 3.87534 17.0319C4.2226 17.3535 4.30538 17.8301 4.07894 18.2259C3.91815 18.5075 3.67935 18.6912 3.36348 18.7701C3.30884 18.7834 3.25279 18.793 3.19371 18.8032L3.19367 18.8032L3.19357 18.8032L3.19327 18.8032C3.16815 18.8075 3.14247 18.8119 3.11612 18.8167V18.91C3.11612 18.9928 3.11572 19.0754 3.11532 19.1581L3.11532 19.1581V19.1581C3.11465 19.2958 3.11398 19.4333 3.11517 19.5712C3.11707 19.8319 3.11897 20.0926 3.12658 20.3542C3.13134 20.515 3.23219 20.6453 3.38251 20.692C3.49014 20.7256 3.6006 20.7203 3.70716 20.7152C3.724 20.7144 3.74075 20.7135 3.75737 20.7129L3.763 20.7047C3.76644 20.6998 3.76783 20.6978 3.76783 20.6958L3.77639 20.6596C3.87724 20.1649 4.10463 19.7377 4.46331 19.3828C4.76586 19.085 5.11693 18.8624 5.51366 18.713C5.96272 18.5437 6.42606 18.4876 6.89415 18.6017C7.99588 18.87 8.73893 19.5217 9.02245 20.6472C9.02687 20.6657 9.03301 20.6836 9.03865 20.7L9.04338 20.7138C9.20226 20.7329 15.6737 20.7215 15.7365 20.7034C16.0838 19.2639 17.234 18.6227 18.2206 18.5637C19.3652 18.4961 20.7038 19.2335 21.0416 20.7186C21.0654 20.7186 21.0897 20.7188 21.1141 20.719C21.1635 20.7194 21.2139 20.7199 21.2642 20.7186C21.4354 20.7119 21.58 20.6073 21.6314 20.4427C21.6514 20.378 21.659 20.3076 21.66 20.2391C21.663 19.8791 21.6636 19.5191 21.6642 19.1592L21.6647 18.889C21.6647 18.8731 21.6622 18.8572 21.6593 18.8396L21.6593 18.8394C21.6579 18.8308 21.6565 18.8217 21.6552 18.812C21.6379 18.812 21.6214 18.8122 21.6054 18.8124H21.6053H21.6053H21.6052H21.6052H21.6051H21.6051H21.6051H21.605H21.605H21.6049H21.6049H21.6048C21.5744 18.8128 21.5458 18.8132 21.5173 18.812C21.4746 18.8099 21.4316 18.8094 21.3885 18.8089H21.3885C21.2924 18.8078 21.1961 18.8066 21.1034 18.7882C20.4032 18.6502 20.0673 17.9576 20.3413 17.3259C20.4155 17.1546 20.5383 17.0205 20.7038 16.9082ZM18.3767 19.6778C19.2729 19.6816 19.9922 20.4199 19.9769 21.2828C19.9883 22.1333 19.2605 22.8954 18.3291 22.8735C17.4919 22.8536 16.7726 22.1219 16.7754 21.2685C16.7783 20.4284 17.4976 19.674 18.3767 19.6778ZM7.99778 21.2856C7.99588 22.2152 7.20241 22.9002 6.40132 22.8678C5.57075 22.8964 4.79916 22.198 4.79725 21.2733C4.7963 20.4018 5.52318 19.6749 6.38991 19.6797C7.2671 19.6835 7.99968 20.3685 7.99778 21.2856ZM10.9262 9.09805C10.9264 9.14234 10.9267 9.18659 10.9267 9.23076C10.9267 9.27479 10.9265 9.31883 10.9264 9.36286C10.926 9.47295 10.9256 9.58305 10.9276 9.69314C10.9286 9.74262 10.9371 9.79399 10.9514 9.84061C11.0637 10.2012 11.4823 10.3563 11.7791 10.1479C11.92 10.0499 12.0189 9.91482 12.0256 9.74262C12.0344 9.50744 12.0335 9.27129 12.0326 9.03556V9.03545V9.03533V9.03522V9.03511V9.035V9.03489V9.03478V9.03467C12.0323 8.94073 12.0319 8.84687 12.0322 8.75315C12.0329 8.74455 12.0312 8.73595 12.0295 8.72703C12.0288 8.72313 12.028 8.71916 12.0275 8.7151C11.9827 8.42587 11.742 8.22512 11.4604 8.24415C11.1598 8.26413 10.9343 8.49152 10.9276 8.78741C10.925 8.89064 10.9256 8.99435 10.9262 9.09787V9.09795V9.09805ZM3.09624 13.8243C3.09624 13.7762 3.09577 13.728 3.09531 13.6798V13.6798C3.09428 13.5739 3.09326 13.4679 3.09719 13.362C3.11051 13.0328 3.36929 12.8006 3.68801 12.8263C3.96582 12.8482 4.19321 13.0784 4.20462 13.3724C4.21604 13.6702 4.21414 13.9699 4.20462 14.2686C4.19606 14.535 4.00863 14.7539 3.76698 14.8052C3.41876 14.8804 3.11526 14.6473 3.09814 14.2867C3.09281 14.1788 3.09401 14.0709 3.09521 13.9631C3.09572 13.9168 3.09624 13.8706 3.09624 13.8243ZM3.09542 8.68604C3.09578 8.73347 3.09614 8.78089 3.09614 8.82832C3.09614 8.8749 3.09578 8.92139 3.09542 8.96784C3.09461 9.07226 3.0938 9.17649 3.09709 9.28118C3.10565 9.59134 3.33399 9.81873 3.63654 9.82063C3.93909 9.82349 4.19501 9.59325 4.20453 9.29355C4.21309 8.9853 4.21499 8.67704 4.20453 8.36974C4.19311 8.01962 3.86297 7.77321 3.52047 7.84551C3.2731 7.89784 3.10565 8.09954 3.09709 8.36593C3.0938 8.47264 3.09461 8.57934 3.09542 8.68604ZM20.9367 13.8242L20.9371 13.8108C20.9417 13.6554 20.9464 13.4991 20.9519 13.3438C20.9633 13.0488 21.185 12.8357 21.4828 12.831C21.7597 12.8262 21.9813 12.9908 22.0384 13.2467C22.047 13.2829 22.0508 13.3209 22.0508 13.359L22.0512 13.4904V13.4907C22.0522 13.7543 22.0531 14.0186 22.0499 14.2828C22.047 14.5435 21.8938 14.7366 21.6484 14.7966C21.3449 14.8717 21.0423 14.7043 20.9652 14.416C20.9557 14.3799 20.951 14.3418 20.951 14.3047C20.9496 14.1849 20.9497 14.0645 20.9499 13.9445V13.9441L20.95 13.8242H20.9367ZM6.73915 8.82753L6.73936 8.97493H6.74126C6.74126 9.02537 6.74069 9.0759 6.74012 9.12647C6.73889 9.23615 6.73765 9.34599 6.74221 9.45539C6.75363 9.73605 6.94581 9.93775 7.22838 9.96439C7.51095 9.99198 7.7488 9.8388 7.8173 9.57336C7.83347 9.51057 7.84108 9.44302 7.84204 9.37832C7.84489 9.13667 7.84394 8.89406 7.84299 8.6524C7.84299 8.58675 7.84299 8.52015 7.83442 8.45451C7.80683 8.26042 7.70789 8.11105 7.52522 8.03494C7.16844 7.88462 6.74507 8.08061 6.73936 8.53157C6.73872 8.63055 6.73893 8.72911 6.73915 8.82753ZM22.0496 8.97731L22.0497 9.08083C22.0499 9.18459 22.05 9.28862 22.0486 9.39212C22.0486 9.43874 22.0448 9.48631 22.0353 9.53197C21.9801 9.79551 21.7841 9.96677 21.532 9.97343C21.2647 9.98104 21.0392 9.82025 20.9735 9.56052C20.9497 9.46443 20.945 9.36167 20.944 9.26178C20.9421 9.00775 20.9402 8.75277 20.9535 8.49875C20.9659 8.24853 21.1543 8.03827 21.3864 7.9907C21.7327 7.91934 22.0315 8.14958 22.0477 8.50636C22.0522 8.61376 22.051 8.72117 22.0498 8.82857C22.0492 8.87815 22.0486 8.92773 22.0486 8.97731H22.0496ZM15.0981 8.71164C15.0983 8.75025 15.0984 8.78885 15.0984 8.82746H15.1003C15.1003 8.87693 15.0997 8.92649 15.0992 8.97609V8.9762V8.9763C15.0979 9.08403 15.0967 9.19191 15.1013 9.29936C15.1146 9.58573 15.3201 9.79504 15.6027 9.81882C15.8881 9.84356 16.124 9.67516 16.1868 9.3945C16.2039 9.31934 16.2077 9.23942 16.2087 9.16045C16.2116 8.94734 16.2106 8.73327 16.2087 8.5192C16.2087 8.4507 16.2049 8.38125 16.1963 8.31275C16.163 8.05111 15.9623 7.85607 15.7102 7.83895C15.419 7.81897 15.1897 7.975 15.1212 8.2452C15.107 8.30228 15.1003 8.36222 15.0994 8.42216C15.0973 8.51862 15.0977 8.61507 15.0981 8.71153V8.71164ZM19.1612 11.3366C19.1612 11.3827 19.1618 11.4287 19.1624 11.4746V11.4746C19.1638 11.5796 19.1652 11.6843 19.1593 11.7895C19.1469 12.0178 19.0375 12.191 18.8282 12.289C18.4971 12.4431 18.108 12.2167 18.0652 11.8466C18.0528 11.7381 18.0528 11.6268 18.0528 11.5174C18.0519 11.3252 18.0528 11.134 18.0566 10.9418C18.0576 10.8799 18.0642 10.8162 18.0794 10.7562C18.1441 10.5041 18.3563 10.3386 18.6075 10.3395C18.8539 10.3405 19.0689 10.5022 19.1365 10.7458C19.1545 10.8114 19.1593 10.8818 19.1621 10.9503C19.1648 11.0403 19.1642 11.1307 19.1636 11.2209V11.2209C19.1634 11.2595 19.1631 11.2981 19.1631 11.3366H19.1612ZM10.7878 13.0802H10.9115V15.6414H7.71569C7.71774 15.6315 7.71952 15.622 7.72123 15.613C7.72506 15.5928 7.7285 15.5745 7.73377 15.5568C7.91549 14.9222 8.0972 14.2885 8.27892 13.6549C8.28667 13.6286 8.29426 13.6022 8.30186 13.5758C8.32036 13.5115 8.33888 13.4472 8.35979 13.3837C8.42258 13.1916 8.58813 13.0793 8.79744 13.0812C9.27114 13.0846 9.74534 13.0831 10.2193 13.0817C10.4089 13.0811 10.5984 13.0805 10.7878 13.0802ZM15.2061 15.5444C15.2156 15.5767 15.2242 15.61 15.2346 15.6519H12.0141V13.0812C12.0261 13.0806 12.0378 13.08 12.0492 13.0794C12.0767 13.0779 12.1027 13.0764 12.1283 13.0764C12.2665 13.0768 12.4047 13.0773 12.543 13.0778C12.82 13.0789 13.097 13.0799 13.3737 13.0793C13.4931 13.0793 13.6127 13.0774 13.7324 13.0755C13.852 13.0736 13.9717 13.0717 14.0911 13.0717C14.3689 13.0707 14.5525 13.2163 14.6267 13.4836C14.7548 13.9416 14.8838 14.3996 15.0128 14.8575C15.0773 15.0865 15.1417 15.3154 15.2061 15.5444ZM7.09728 16.7336H11.4766H15.8369C15.8835 16.7336 15.9311 16.7336 15.9777 16.7308C16.0738 16.726 16.1642 16.7013 16.2469 16.6518C16.4553 16.5291 16.5514 16.2912 16.4848 16.0486C16.4232 15.8258 16.3589 15.6031 16.2947 15.3806C16.2657 15.28 16.2367 15.1795 16.2079 15.0791C16.1161 14.7571 16.0241 14.4352 15.932 14.1134C15.84 13.7916 15.7479 13.4698 15.6561 13.1478C15.5705 12.8443 15.4183 12.5798 15.1804 12.3705C14.8912 12.1174 14.5496 11.9975 14.1681 11.9947C13.8911 11.992 13.6136 11.9926 13.336 11.9932C13.2169 11.9935 13.0979 11.9937 12.9789 11.9937C11.5917 11.9937 10.2046 11.9937 8.81742 11.9928C8.59764 11.9928 8.38453 12.0289 8.18283 12.1155C7.70047 12.322 7.41219 12.6959 7.27138 13.1925C7.14549 13.6376 7.02069 14.083 6.89586 14.5286C6.81975 14.8002 6.74363 15.0719 6.66724 15.3436C6.64668 15.4174 6.6253 15.4909 6.60392 15.5645C6.55605 15.7292 6.50815 15.8939 6.46935 16.061C6.38943 16.4045 6.57305 16.6699 6.91841 16.7251C6.97248 16.7338 7.02735 16.7337 7.08229 16.7337C7.08728 16.7336 7.09228 16.7336 7.09728 16.7336Z" fill="#0C1E3C"/>
</svg>
