<svg width="24" height="24" viewBox="0 0 24 24" fill="none" xmlns="http://www.w3.org/2000/svg">
<path fill-rule="evenodd" clip-rule="evenodd" d="M10.4289 2.41445C10.3667 2.45167 10.3037 2.48931 10.2394 2.52707C10.2282 2.5129 10.2178 2.50063 10.2084 2.48944C10.1891 2.46645 10.1736 2.44805 10.1617 2.42713C9.74415 1.70644 9.13562 1.24671 8.31833 1.06904C7.72645 0.941338 7.14679 0.985757 6.60045 1.24449C5.67432 1.68201 5.12798 2.41159 4.98473 3.43543C4.90144 4.03397 5.01249 4.59475 5.30454 5.11666C5.66036 5.75043 6.02405 6.37895 6.38785 7.00765C6.43392 7.08727 6.47999 7.16689 6.52605 7.24652C7.37874 8.72541 8.23365 10.2032 9.08856 11.681L9.08898 11.6817C9.23057 11.9265 9.37243 12.1709 9.51429 12.4152C9.65615 12.6595 9.79801 12.9038 9.9396 13.1486C10.0907 13.4103 10.2418 13.672 10.3929 13.9337C10.9971 14.9799 11.6013 16.0261 12.2027 17.0752C12.2218 17.1082 12.2413 17.141 12.2609 17.1738C12.369 17.355 12.4773 17.5366 12.5036 17.7603C12.5747 18.3667 12.075 18.8653 11.5686 18.8564C11.2805 18.8514 10.9923 18.8557 10.7041 18.8601C10.6081 18.8616 10.512 18.863 10.416 18.8641C10.336 18.8652 10.2827 18.8541 10.2572 18.7609C10.225 18.6443 10.1761 18.5321 10.1262 18.4211C9.65976 17.3639 8.94796 16.5144 7.97297 15.8903C7.07794 15.3173 6.09297 15.0364 5.0347 15.0142C4.42062 15.0009 3.80542 15.0042 3.19134 15.0131C2.7727 15.0186 2.36405 15.1052 1.98871 15.2885C0.782754 15.8759 0.16867 16.8531 0.130915 18.1912C0.124713 18.4152 0.126208 18.6391 0.127705 18.8633C0.12862 19.0004 0.129536 19.1376 0.128694 19.275L0.128699 19.2853C0.128749 19.3543 0.128801 19.4259 0.108705 19.4893C-0.0389856 19.9657 -0.0345438 20.4377 0.112037 20.9129C0.369663 21.7458 0.91934 22.3066 1.72775 22.6031C2.3063 22.8152 2.89818 22.8129 3.46895 22.5653C3.71547 22.4576 3.95978 22.4221 4.22518 22.4232C5.22714 22.4271 6.2291 22.4272 7.23083 22.4272C7.93216 22.4273 8.63337 22.4273 9.3344 22.4287C9.57981 22.4287 9.80856 22.3876 10.0184 22.2555C10.3982 22.0167 10.5826 21.6636 10.5826 21.225C10.5816 20.8655 10.561 20.5053 10.5404 20.1456C10.537 20.0864 10.5337 20.0271 10.5304 19.9679C10.5248 19.858 10.5492 19.8158 10.6681 19.8191C10.9568 19.8258 11.2466 19.8247 11.5353 19.818C12.2338 19.8014 12.789 19.5104 13.1621 18.9163C13.5375 18.3189 13.5908 17.6815 13.2732 17.0497C13.073 16.651 12.8468 16.2647 12.6204 15.8783C12.5442 15.7481 12.4679 15.6179 12.3926 15.4872C12.0042 14.8141 11.6146 14.1415 11.2249 13.4688C10.867 12.8509 10.509 12.2328 10.1517 11.614C9.84243 11.0787 9.53456 10.5429 9.22668 10.0071C8.91881 9.47133 8.61093 8.93553 8.30167 8.40029C8.26426 8.33546 8.22686 8.27062 8.18945 8.20579C7.54835 7.09455 6.90686 5.98264 6.25843 4.87569C5.9797 4.40042 5.82313 3.91181 5.96637 3.35659C6.14849 2.65144 6.59712 2.19283 7.28782 2.01182C8.10623 1.79861 8.92019 2.1684 9.33884 2.90463C9.38881 2.99347 9.3666 3.04566 9.28665 3.09119C9.26028 3.10633 9.23392 3.12141 9.20758 3.13648C9.08526 3.20645 8.96347 3.27611 8.84468 3.35103C8.62925 3.48762 8.5593 3.77079 8.68811 3.99177C9.03799 4.59092 9.38939 5.18905 9.7406 5.78686C9.90883 6.07321 10.077 6.35949 10.245 6.64576L10.246 6.6476C10.9075 7.77632 11.569 8.90505 12.2316 10.0327C12.2572 10.0764 12.2828 10.1201 12.3085 10.1638C12.4559 10.4154 12.6031 10.6667 12.7535 10.9155C12.8834 11.1287 13.1077 11.2075 13.3354 11.112C13.4797 11.051 13.6197 10.9743 13.7474 10.8855C13.8606 10.8067 13.9161 10.8322 13.9794 10.9421C14.5258 11.8982 15.0755 12.8532 15.6274 13.8071C16.4091 15.163 17.1931 16.5177 17.9782 17.8714C18.0149 17.9347 18.0193 17.9713 17.9493 18.0124C17.8553 18.0657 17.7643 18.123 17.6732 18.1802C17.6277 18.2088 17.5821 18.2375 17.5362 18.2656C17.2708 18.4277 17.1998 18.7065 17.3575 18.9763C17.4374 19.1118 17.5207 19.2461 17.6073 19.3772C17.6617 19.4605 17.6451 19.5104 17.5607 19.5626C17.1872 19.7906 16.8147 20.0208 16.4419 20.2512C16.2827 20.3497 16.1233 20.4481 15.9638 20.5465C15.6707 20.7264 15.5929 20.9918 15.764 21.2694C16.1315 21.8679 16.5002 22.4654 16.8733 23.0595C17.0765 23.3848 17.3308 23.4381 17.6528 23.2393C18.2681 22.8572 18.8834 22.4755 19.4985 22.0938C20.3045 21.5938 21.1104 21.0938 21.9159 20.5931C22.0525 20.5085 22.1891 20.424 22.3257 20.3395C22.8055 20.0428 23.285 19.7463 23.7604 19.4438C24.0135 19.2828 24.0691 19.0263 23.9147 18.7742C23.5316 18.149 23.1441 17.5271 22.7554 16.9053C22.6155 16.6821 22.3279 16.6132 22.1036 16.7498C21.5494 17.0863 20.9987 17.4272 20.4501 17.7714C20.359 17.8281 20.3068 17.8203 20.2546 17.7315C20.198 17.6348 20.1395 17.5401 20.081 17.4453C20.0615 17.4138 20.042 17.3822 20.0226 17.3506C19.8515 17.0741 19.5839 17.0063 19.3041 17.1707C19.1875 17.2395 19.072 17.3095 18.961 17.3861C18.8743 17.4439 18.8277 17.4383 18.7711 17.3395C18.3524 16.6055 17.9293 15.8737 17.5029 15.1441C17.3142 14.8206 17.1232 14.4987 16.9322 14.1769C16.7062 13.7961 16.4802 13.4154 16.2581 13.032C16.1047 12.7672 15.9567 12.4991 15.8088 12.2311C15.6987 12.0315 15.5887 11.832 15.4763 11.6339C15.2509 11.2342 15.0211 10.8366 14.7901 10.4413C14.7401 10.3558 14.7323 10.3014 14.8356 10.247C14.9953 10.1627 15.1497 10.0669 15.3034 9.97139C15.3218 9.95997 15.3402 9.94855 15.3586 9.93716C15.5963 9.79058 15.6707 9.55739 15.5452 9.30975C15.4949 9.21117 15.4353 9.11744 15.3756 9.02369C15.3365 8.9622 15.2974 8.9007 15.2609 8.83781C15.1822 8.70277 15.1049 8.56694 15.0275 8.43107C14.9204 8.24294 14.8133 8.05472 14.7024 7.86838C14.6368 7.75955 14.6268 7.6585 14.6557 7.53635C14.739 7.18545 14.8134 6.83343 14.8867 6.48031C14.9129 6.3539 14.9371 6.22684 14.9614 6.09976C15.0081 5.85508 15.0548 5.6103 15.1154 5.36985C15.1865 5.08446 15.2009 4.81906 15.0233 4.56921C15.0043 4.54216 14.9891 4.51293 14.9739 4.48387C14.9704 4.47713 14.9669 4.4704 14.9633 4.46371C14.7855 4.12687 14.6081 3.78989 14.4308 3.45291C14.1263 2.8745 13.8219 2.29614 13.5153 1.71866C13.4398 1.57763 13.3198 1.48768 13.1522 1.46992C12.9567 1.44882 12.8035 1.52211 12.6958 1.67757C12.5758 1.85191 12.5958 2.03403 12.6924 2.21503C12.727 2.28022 12.7615 2.34542 12.7961 2.41062C13.2414 3.25061 13.6872 4.09162 14.1282 4.93455C14.1649 5.00451 14.1871 5.10001 14.1738 5.17663C14.1387 5.39184 14.0919 5.60632 14.0452 5.82007C14.0343 5.86992 14.0235 5.91973 14.0128 5.96949C13.9926 6.06403 13.9713 6.15816 13.9485 6.25873C13.9336 6.32473 13.918 6.3935 13.9017 6.46698C13.8822 6.44086 13.8658 6.42004 13.8516 6.40212C13.8302 6.37508 13.814 6.35465 13.8007 6.33261C13.5358 5.88003 13.2712 5.42773 13.0066 4.97543C12.742 4.52326 12.4775 4.0711 12.2127 3.61865C12.1884 3.577 12.1641 3.53533 12.1397 3.49366C11.9242 3.12427 11.7082 2.75426 11.4887 2.38604C11.3277 2.11731 11.07 2.04958 10.7935 2.20171C10.6713 2.26947 10.5514 2.34114 10.4289 2.41445ZM9.76081 3.91737C9.76951 3.9352 9.77685 3.95167 9.78375 3.96718L9.78376 3.96719C9.79449 3.99127 9.80418 4.01303 9.81633 4.03397C9.93371 4.23471 10.0517 4.43487 10.1698 4.63529L10.1699 4.63552L10.3016 4.85904C10.9879 6.02613 11.673 7.19211 12.3582 8.3592L12.4813 8.56837C12.7434 9.0137 13.0052 9.45864 13.2654 9.90607C13.3176 9.99602 13.3631 10.0082 13.4564 9.95049C13.7444 9.77434 14.0373 9.60621 14.3296 9.43848L14.3759 9.41192C14.4581 9.36528 14.4514 9.31531 14.4103 9.24646C14.2246 8.93101 14.0394 8.61556 13.8542 8.30012L13.854 8.29964L13.8537 8.29916L13.8534 8.29868L13.8531 8.2982L13.8528 8.29773L13.8526 8.29725C13.6674 7.9818 13.4822 7.66635 13.2965 7.35091L12.8782 6.6382C12.5012 5.9959 12.124 5.35333 11.7463 4.71135L11.5359 4.35281L11.5358 4.3528L11.5358 4.35278L11.5358 4.35276C11.3463 4.02999 11.157 3.70776 10.969 3.38435C10.9124 3.28774 10.8579 3.26664 10.7547 3.32993C10.5204 3.47421 10.282 3.61316 10.0365 3.75629L10.0363 3.7564C9.9455 3.80932 9.85372 3.86282 9.76081 3.91737ZM1.12478 18.0491C1.81548 17.6626 2.07089 17.5971 2.81822 17.6226C2.91928 17.626 2.92927 17.5816 2.92927 17.5038C2.92872 17.278 2.92844 17.0525 2.92816 16.827L2.92816 16.8264C2.92788 16.6007 2.9276 16.375 2.92705 16.1491C2.92705 16.121 2.92134 16.0924 2.9156 16.0636L2.9156 16.0636L2.9156 16.0636L2.9156 16.0636L2.9156 16.0636L2.9156 16.0636C2.91294 16.0503 2.91028 16.0369 2.90817 16.0236C1.75663 16.1679 1.05482 17.3195 1.12478 18.0491ZM7.13791 21.4682C7.86859 21.4682 8.60038 21.4682 9.33106 21.4671C9.57314 21.4671 9.62311 21.4138 9.62311 21.1695L9.62325 20.9737C9.62346 20.7776 9.62367 20.581 9.622 20.3844C9.61978 20.2045 9.61756 20.2045 9.44211 20.2045C9.13063 20.2045 8.81942 20.2042 8.50821 20.2039C8.19701 20.2036 7.8858 20.2034 7.57432 20.2034L6.80699 20.2036C6.29544 20.2038 5.78389 20.2041 5.27234 20.2034H5.27003C5.1934 20.2033 5.13351 20.2033 5.13131 20.3122C5.12243 20.6831 5.00805 21.0284 4.84148 21.356C4.78818 21.4615 4.82704 21.4682 4.91699 21.4682C5.41053 21.4674 5.90357 21.4677 6.39678 21.4679H6.3969H6.39703H6.39715H6.39727H6.3974L7.13791 21.4682ZM4.18298 20.22C4.15077 21.1428 3.36124 21.8313 2.52173 21.7846C1.59117 21.7758 0.881585 20.9274 0.961538 20.0335C1.03039 19.2595 1.73109 18.5199 2.66498 18.5676C3.49005 18.6098 4.21296 19.3539 4.18298 20.22ZM18.5007 19.0098L18.4035 18.8508L18.495 18.7964C18.5842 18.7435 18.6718 18.6915 18.7589 18.6376C18.8042 18.6093 18.8496 18.5811 18.8951 18.5529C19.0368 18.465 19.1787 18.377 19.3174 18.2845C19.4018 18.2278 19.454 18.2445 19.5029 18.3278C19.5861 18.4666 19.6694 18.6054 19.7605 18.7387C19.9382 19.0007 20.1814 19.0574 20.4501 18.8941C20.9864 18.5654 21.5206 18.2323 22.0525 17.8958C22.1535 17.8314 22.2091 17.8292 22.2757 17.9413C22.4445 18.229 22.6233 18.5099 22.8031 18.7897C22.8643 18.8846 22.8037 18.9214 22.7453 18.9569L22.7299 18.9663C22.5707 19.0662 22.4106 19.1646 22.2505 19.2631L22.2502 19.2632L22.25 19.2633L22.2493 19.2638L22.2491 19.2639C22.1035 19.3534 21.9578 19.4429 21.8126 19.5337C21.63 19.6486 21.4478 19.764 21.2655 19.8794L21.2652 19.8796L21.2649 19.8798L21.2647 19.8799L21.2646 19.88C20.9308 20.0913 20.5969 20.3028 20.2602 20.511C19.8258 20.7794 19.3895 21.045 18.9531 21.3107C18.6565 21.4913 18.3598 21.672 18.0637 21.8535C17.9071 21.949 17.7517 22.0478 17.5973 22.15C17.5118 22.2066 17.4618 22.2011 17.4052 22.1045C17.2331 21.8146 17.0532 21.5281 16.87 21.2461C16.8076 21.1478 16.87 21.1098 16.9307 21.0729L16.9399 21.0673C17.1616 20.9293 17.3841 20.7927 17.6067 20.656C17.7443 20.5715 17.8819 20.487 18.0193 20.4021C18.0855 20.3612 18.1519 20.3205 18.2184 20.2798L18.2185 20.2797C18.3358 20.2079 18.4531 20.136 18.5701 20.0623C18.7977 19.9191 18.8799 19.6392 18.7322 19.3916C18.6588 19.2682 18.5836 19.1453 18.5007 19.0098ZM9.29424 18.9155L9.29418 18.9153C9.19897 18.702 9.1085 18.4992 8.99904 18.3067C8.52931 17.4838 7.86415 16.862 7.01132 16.4467C6.40834 16.1535 5.77204 15.9881 5.10022 15.9792C4.94486 15.9772 4.78972 15.9776 4.6347 15.978H4.63457C4.43727 15.9786 4.24017 15.9791 4.04306 15.9747C3.92313 15.9725 3.88982 16.0103 3.89093 16.128C3.89648 16.6976 3.89648 17.2662 3.88982 17.8347C3.88871 17.9502 3.93312 18.0113 4.02307 18.0735C4.40063 18.34 4.71045 18.6698 4.8859 19.1051C4.92699 19.2073 4.97362 19.2395 5.07912 19.2395C6.46378 19.2373 7.84845 19.2373 9.23311 19.2373H9.23668C9.26546 19.2373 9.29464 19.2348 9.33541 19.2315C9.36228 19.2292 9.39419 19.2266 9.43434 19.2239C9.38494 19.1187 9.33906 19.0159 9.29424 18.9155Z" fill="#0C1E3C"/>
</svg>
