<svg width="24" height="24" viewBox="0 0 24 24" fill="none" xmlns="http://www.w3.org/2000/svg">
<path fill-rule="evenodd" clip-rule="evenodd" d="M20.346 5.77555C20.7 5.75707 20.871 5.52415 21.0004 5.2367V4.97143C20.8825 4.66488 20.6442 4.45993 20.4085 4.25711L20.4085 4.25709L20.4084 4.25708C20.367 4.22141 20.3256 4.18582 20.285 4.14974C18.3116 2.40193 16.0194 1.34455 13.3908 1.07558C9.48013 0.676294 6.10096 1.85845 3.26434 4.57491C3.18797 4.64813 3.13315 4.74418 3.0784 4.84013L3.07839 4.84013C3.05297 4.88469 3.02755 4.92922 3 4.97143V5.2367C3.32904 5.88647 3.77547 5.96133 4.30508 5.45483C6.08525 3.75507 8.19631 2.74391 10.642 2.43982C12.6033 2.19674 14.4971 2.46108 16.3189 3.22361C17.6055 3.76247 18.746 4.525 19.7424 5.50104C19.9106 5.66649 20.0946 5.78849 20.346 5.77555ZM11.3189 22.7381C11.2921 23.1578 11.4261 23.4683 11.8226 23.6449H12.1776C12.5731 23.4683 12.7072 23.1578 12.6813 22.7381C12.6676 22.5158 12.6705 22.292 12.6734 22.0683V22.0683V22.0683C12.6751 21.9303 12.6769 21.7924 12.6748 21.6549C12.673 21.5375 12.7099 21.4913 12.8338 21.471C13.8986 21.2981 14.8256 20.8387 15.5983 20.0864C16.6418 19.0697 17.1714 17.8256 17.1862 16.3698C17.1909 15.9622 16.8406 15.6489 16.4514 15.6896C16.1335 15.7219 15.8913 15.9465 15.8469 16.2709C15.8309 16.3882 15.8217 16.5067 15.8124 16.6252C15.7993 16.7934 15.7861 16.9616 15.7536 17.1259C15.4181 18.8035 13.9882 20.0485 12.2654 20.1788C10.5933 20.3054 8.98324 19.2859 8.42313 17.6943C8.31155 17.3774 8.26505 17.0374 8.21862 16.6979C8.20005 16.5621 8.18149 16.4263 8.15878 16.2922C8.09593 15.9151 7.79554 15.6581 7.43784 15.6877C7.0746 15.7192 6.80009 16.0112 6.8158 16.3911C6.83059 16.7359 6.85 17.0871 6.92302 17.4226C7.38701 19.5484 9.01097 21.0929 11.1664 21.471C11.2893 21.4922 11.3263 21.5375 11.3254 21.6549C11.3233 21.7924 11.325 21.9303 11.3268 22.0683V22.0683V22.0683C11.3297 22.292 11.3326 22.5158 11.3189 22.7381ZM14.5367 15.2144C14.5351 14.9994 14.5335 14.7845 14.5335 14.5697H14.5344C14.5344 14.3573 14.536 14.1447 14.5376 13.9321V13.932V13.9319V13.9319C14.5411 13.4593 14.5447 12.9865 14.5307 12.5141C14.49 11.1536 13.3504 10.0694 11.9935 10.0777C10.6339 10.087 9.49797 11.1573 9.47209 12.5058C9.44621 13.883 9.44621 15.2611 9.47209 16.6383C9.49797 17.9877 10.6348 19.0562 11.9954 19.0599C13.3531 19.0626 14.4891 17.9914 14.5298 16.6475C14.5438 16.17 14.5402 15.6921 14.5367 15.2144V15.2144ZM13.1882 13.9902C13.1875 14.1828 13.1868 14.3754 13.1868 14.5679C13.1868 14.7555 13.1873 14.9432 13.1878 15.1309V15.131V15.1311V15.1312V15.1313C13.1889 15.5696 13.1901 16.008 13.1849 16.446C13.1775 17.13 12.7764 17.6023 12.1405 17.6929C11.5443 17.7779 10.9445 17.3435 10.8437 16.7492C10.8271 16.6475 10.8141 16.544 10.8141 16.4414L10.8135 16.0271V16.0271V16.0271C10.8118 14.9209 10.81 13.8142 10.8141 12.7082C10.8169 12.0779 11.1654 11.6111 11.7172 11.4743C12.4852 11.2848 13.172 11.8486 13.1849 12.6897C13.1913 13.1229 13.1898 13.5566 13.1882 13.99V13.9901V13.9902ZM11.7414 4.03439C14.5309 4.08061 16.7362 4.94204 18.5681 6.71573C18.8879 7.02444 18.9175 7.4265 18.6476 7.7158C18.3759 8.00695 17.971 8.0125 17.6429 7.70379C16.9118 7.01427 16.1021 6.44492 15.1742 6.05025C13.8044 5.46795 12.3801 5.27755 10.9049 5.47627C9.46766 5.66852 8.18106 6.22124 7.03957 7.11225C6.87537 7.24067 6.72 7.38101 6.56462 7.52138L6.5646 7.52139C6.4952 7.58408 6.4258 7.64677 6.3556 7.70841C6.01824 8.00418 5.6208 8.00695 5.34998 7.71303C5.08194 7.42281 5.11429 7.02444 5.43409 6.71296C6.78632 5.39401 8.39364 4.55291 10.2514 4.21001C10.6653 4.13366 11.0864 4.09565 11.414 4.06609L11.414 4.06609C11.5385 4.05485 11.6495 4.04483 11.7414 4.03439ZM16.1521 10.1471C16.4026 10.0325 16.5274 9.82547 16.544 9.44929C16.5327 9.42781 16.5208 9.3982 16.5071 9.36417C16.4696 9.27083 16.4188 9.14416 16.3287 9.06017C16.0154 8.77087 15.6928 8.48064 15.3332 8.25512C13.5577 7.14229 11.6768 6.9676 9.71823 7.70702C8.93444 8.00279 8.25509 8.47048 7.6617 9.05924C7.39643 9.32266 7.39366 9.73305 7.6386 9.99831C7.88538 10.2636 8.28559 10.2867 8.57859 10.0491C8.64198 9.99828 8.70206 9.94343 8.76219 9.88854C8.77308 9.8786 8.78396 9.86866 8.79487 9.85875C10.3661 8.4409 12.6482 8.21353 14.4635 9.31435C14.7029 9.45977 14.9207 9.64013 15.1386 9.8205C15.2337 9.89922 15.3288 9.97795 15.4257 10.0538C15.6503 10.2303 15.8961 10.2654 16.1521 10.1471Z" fill="#0C1E3C"/>
</svg>
