<svg width="24" height="24" viewBox="0 0 24 24" fill="none" xmlns="http://www.w3.org/2000/svg">
<path fill-rule="evenodd" clip-rule="evenodd" d="M13.6153 19.2747C13.6569 19.2849 13.6985 19.2951 13.7407 19.3037H15.1036C15.1089 19.3028 15.1143 19.3018 15.1196 19.3008C15.1316 19.2985 15.1436 19.2961 15.1557 19.296C15.2333 19.2956 15.311 19.2956 15.3886 19.2957L15.4663 19.2957L17.0573 19.2944C18.1181 19.2935 19.1791 19.2925 20.2401 19.2919C20.742 19.2916 21.244 19.2921 21.7461 19.2925H21.7461L21.7482 19.2925L22.0001 19.2927C22.1237 19.2929 22.2472 19.2938 22.3706 19.2959C22.5455 19.2989 22.6764 19.2257 22.7696 19.0772C22.8696 18.9178 22.9718 18.7599 23.0741 18.602L23.0741 18.6019L23.0742 18.6019L23.1547 18.4774C23.2348 18.3537 23.3149 18.2301 23.3951 18.1064L23.3953 18.1062L23.3955 18.1059C23.5659 17.8431 23.7364 17.5804 23.9054 17.3167C23.9317 17.2755 23.9518 17.2302 23.972 17.1849C23.9811 17.1643 23.9903 17.1437 24 17.1235V16.971C23.9916 16.9529 23.9836 16.9345 23.9756 16.9162L23.9755 16.9161L23.9755 16.916C23.9576 16.875 23.9396 16.834 23.9175 16.7954C23.8584 16.693 23.7986 16.591 23.7388 16.489C23.6464 16.3313 23.5539 16.1736 23.4641 16.0144C23.4323 15.9579 23.4101 15.8891 23.4072 15.825C23.4038 15.7511 23.4098 15.6768 23.4158 15.6025V15.6025V15.6025C23.4185 15.5698 23.4211 15.5372 23.423 15.5046L23.4455 15.116L23.4455 15.1157L23.4455 15.1153C23.4663 14.7579 23.4871 14.4004 23.506 14.0428C23.5154 13.8637 23.5227 13.6845 23.53 13.5053L23.53 13.505L23.5301 13.5048L23.5301 13.5045L23.5301 13.5043C23.5349 13.3865 23.5397 13.2687 23.5451 13.1509C23.5549 12.9409 23.5309 12.7369 23.4237 12.5521C23.2304 12.2185 22.9879 11.9272 22.6677 11.7063L22.4965 11.5883C22.0217 11.2608 21.5468 10.9332 21.0701 10.6082C21.0101 10.5675 20.9386 10.5348 20.868 10.5198C20.2014 10.3792 19.5342 10.2422 18.8665 10.107C18.7161 10.0765 18.5899 10.1215 18.5041 10.2563C18.4963 10.2687 18.4882 10.2808 18.4801 10.293L18.48 10.2931C18.4731 10.3035 18.4661 10.314 18.4593 10.3245L18.2875 10.5926C18.0785 10.9187 17.8694 11.2449 17.6601 11.5709C17.5711 11.7094 17.4657 11.8326 17.3311 11.9302C17.2899 11.9601 17.2663 11.9557 17.2303 11.9229C17.1914 11.8875 17.153 11.8515 17.1146 11.8154L17.1146 11.8154L17.1144 11.8153C17.003 11.7107 16.8914 11.606 16.7682 11.5174C16.446 11.2858 16.1188 11.061 15.7916 10.8363L15.7914 10.8361C15.6684 10.7516 15.5453 10.667 15.4225 10.5821C15.2953 10.4942 15.154 10.4397 15.0032 10.4091C14.4295 10.2932 13.8558 10.1775 13.2818 10.0625L13.2726 10.0606C13.1255 10.0311 12.9774 10.0014 12.8464 10.115C12.8424 10.1112 12.8386 10.1078 12.8349 10.1046L12.8349 10.1046C12.828 10.0984 12.8218 10.0929 12.8167 10.0867C12.7547 10.0091 12.6916 9.93227 12.6284 9.85547L12.6284 9.85546C12.4873 9.68397 12.3463 9.51246 12.2183 9.33169C11.9635 8.97128 11.7139 8.60719 11.4643 8.2431C11.2798 7.97398 11.0953 7.70487 10.9087 7.43725C10.4983 6.84875 10.024 6.31798 9.45364 5.878C9.06994 5.58192 8.65318 5.34722 8.18855 5.20284C7.77513 5.07452 7.34898 5.02348 6.91854 5.00583C6.4528 4.98675 5.98993 5.01267 5.53246 5.11094C4.75569 5.27805 4.07847 5.63185 3.51176 6.19013C2.93169 6.76193 2.65724 7.477 2.55675 8.26934C2.53778 8.41814 2.52569 8.56784 2.5136 8.71756C2.50816 8.78496 2.50271 8.85236 2.49664 8.91969C2.4879 9.0186 2.51413 9.10669 2.58283 9.17936C2.72975 9.33519 2.95221 9.3336 3.11599 9.17379C3.15904 9.13188 3.2006 9.0885 3.24215 9.04514L3.24218 9.04511C3.28732 8.998 3.33244 8.9509 3.37946 8.9057C3.77254 8.52742 4.23255 8.34376 4.78273 8.43535C5.09836 8.48782 5.32638 8.65526 5.44468 8.95881C5.5059 9.11607 5.53134 9.27985 5.53341 9.44824C5.53802 9.80951 5.445 10.1374 5.20187 10.4125C5.0346 10.6019 4.82709 10.7373 4.60098 10.8461C4.20473 11.0369 3.78255 11.1112 3.34687 11.1252C2.88638 11.1399 2.43447 11.0876 1.9929 10.9541C1.51317 10.8089 1.09116 10.5689 0.74531 10.2008C0.683774 10.1353 0.612219 10.0771 0.53828 10.0254C0.402645 9.93068 0.241091 9.94483 0.127717 10.0499C0.0138659 10.1554 -0.0359041 10.3088 0.0599788 10.4731C0.187186 10.6911 0.360189 10.8682 0.555294 11.0256C0.959656 11.3517 1.42317 11.5526 1.92357 11.6782C2.52193 11.8283 3.126 11.8909 3.74169 11.8157C4.2634 11.7521 4.75204 11.5934 5.20346 11.3225C5.53516 11.1233 5.80786 10.8658 5.99104 10.5209C6.17597 10.1732 6.2472 9.79997 6.24037 9.40865C6.23512 9.10764 6.16659 8.82318 6.0257 8.55763C5.85397 8.23373 5.58493 8.01366 5.26023 7.85592C5.01393 7.73619 4.75299 7.68562 4.47965 7.70279C4.40815 7.70732 4.33686 7.71476 4.26554 7.7222L4.26553 7.7222C4.23155 7.72575 4.19756 7.7293 4.16354 7.73253C4.1634 7.72444 4.16865 7.72136 4.17412 7.71816L4.17642 7.71679C4.19345 7.70618 4.21033 7.69528 4.22721 7.68438C4.26218 7.6618 4.29716 7.63921 4.33352 7.61915C4.74727 7.3897 5.19361 7.34613 5.65283 7.40274C6.16277 7.46539 6.60466 7.68546 6.99328 8.01636C7.36139 8.32977 7.58511 8.73588 7.73331 9.18794C7.83702 9.50427 7.8477 9.83306 7.85835 10.1611L7.86068 10.2317C7.86911 10.4837 7.83737 10.7332 7.80566 10.9826L7.80391 10.9964L7.80256 11.007C7.79089 11.0988 7.77913 11.1914 7.77974 11.2834C7.78101 11.4699 7.90313 11.61 8.06993 11.6292C8.27935 11.6532 8.40862 11.5669 8.45871 11.3618C8.52868 11.0754 8.55889 10.7833 8.57574 10.4896C8.60405 9.99873 8.56795 9.51232 8.42755 9.04054C8.09681 7.93002 7.397 7.16852 6.27901 6.81679C5.83871 6.67813 5.38792 6.63679 4.92965 6.70469C4.47663 6.77195 4.06416 6.93971 3.69287 7.20859C3.68298 7.21574 3.67263 7.22227 3.66224 7.22883L3.64835 7.23769L3.63642 7.22497C3.65425 7.19603 3.67166 7.1668 3.68907 7.13757C3.72724 7.07347 3.76541 7.00939 3.808 6.94845C4.1311 6.48621 4.57665 6.18489 5.09502 5.9831C5.44007 5.8489 5.80134 5.7818 6.16818 5.74141C6.53358 5.70118 6.89883 5.68735 7.26534 5.72917C7.79469 5.78959 8.28412 5.96211 8.73777 6.2399C9.24629 6.55124 9.65701 6.96594 10.0021 7.44679C10.4876 8.12324 10.969 8.80285 11.4503 9.48226L11.4503 9.48234L11.4505 9.48253L11.5958 9.68771C11.847 10.0423 12.1101 10.387 12.4136 10.699C12.4398 10.7259 12.4325 10.7427 12.4158 10.7682C12.3595 10.8542 12.3037 10.9405 12.2479 11.0269L12.2479 11.0269L12.2478 11.027C12.1273 11.2134 12.0069 11.3998 11.8816 11.5829C11.8242 11.6668 11.7491 11.7394 11.6751 11.8109L11.6508 11.8343C11.6053 11.8784 11.5573 11.9202 11.5094 11.962L11.5094 11.962C11.4422 12.0205 11.3751 12.079 11.3147 12.1438C11.1248 12.3474 10.9389 12.5548 10.753 12.7621C10.6844 12.8387 10.6158 12.9153 10.547 12.9916C10.3415 13.2195 10.1363 13.4475 9.93114 13.6757C9.82572 13.7929 9.7936 13.9274 9.83589 14.0799C9.86124 14.171 9.88546 14.2624 9.90966 14.3539L9.91906 14.3893C9.92112 14.3975 9.92204 14.4059 9.92305 14.4151L9.92305 14.4152L9.92305 14.4152L9.92388 14.4225L9.92494 14.4308C9.66925 14.3763 9.45332 14.258 9.26362 14.0912C9.20635 14.0408 9.15097 13.9883 9.09558 13.9358L9.09551 13.9357L9.0955 13.9357L9.09549 13.9357C9.04418 13.887 8.99286 13.8384 8.94003 13.7914C8.77403 13.644 8.60484 13.6507 8.44838 13.8069C8.42232 13.8329 8.39671 13.8593 8.37111 13.8858L8.37106 13.8858L8.37103 13.8858L8.37101 13.8859C8.32714 13.9312 8.28328 13.9765 8.23721 14.0195C7.94098 14.2953 7.59243 14.4555 7.18568 14.4704C6.83427 14.4833 6.51482 14.3783 6.23544 14.1672C6.12552 14.0841 6.02506 13.9881 5.92495 13.8924L5.87464 13.8444C5.80134 13.7746 5.72899 13.7065 5.62436 13.6906C5.48762 13.6698 5.39078 13.7391 5.29935 13.8305L5.24852 13.8816C5.15287 13.9781 5.05652 14.0753 4.94778 14.1545C4.58269 14.4205 4.17356 14.5286 3.72452 14.4418C3.40936 14.3809 3.14508 14.2185 2.90943 14.0061C2.87401 13.9742 2.83934 13.9413 2.80469 13.9084L2.80468 13.9084L2.80468 13.9084C2.74444 13.8513 2.68423 13.7942 2.62003 13.742C2.51191 13.6539 2.40156 13.6563 2.29136 13.7421C2.22712 13.7921 2.16813 13.8492 2.10993 13.9064C1.97477 14.0392 1.83437 14.1646 1.66804 14.258C1.38564 14.4167 1.08718 14.5014 0.760257 14.4547C0.716884 14.4484 0.673562 14.4416 0.630236 14.4347L0.6302 14.4347C0.541066 14.4205 0.451913 14.4064 0.362256 14.3977C0.198317 14.3818 0.0666572 14.475 0.0165691 14.6308C-0.0293847 14.7735 0.0208624 14.9082 0.159678 14.9958C0.209607 15.0274 0.26526 15.0546 0.322186 15.0696C0.582167 15.1382 0.847236 15.161 1.11501 15.1357C1.47787 15.1014 1.81004 14.977 2.11295 14.7765C2.19553 14.7218 2.2749 14.6622 2.35259 14.6039L2.3526 14.6039L2.35261 14.6039C2.38696 14.5781 2.42099 14.5526 2.45482 14.5278C3.49904 15.3582 4.53992 15.359 5.57777 14.5305C6.62294 15.3556 7.66589 15.3542 8.71265 14.528L8.71847 14.5323C8.72425 14.5365 8.73071 14.5412 8.73682 14.5464C9.12846 14.8786 9.56955 15.0975 10.0894 15.1379C10.1037 15.139 10.1248 15.157 10.1286 15.171C10.1575 15.2757 10.1848 15.381 10.2123 15.4875L10.2123 15.4877L10.2398 15.5936L10.2017 15.6166L10.2016 15.6167C10.1224 15.6644 10.0436 15.7119 9.96469 15.7592L8.39282 16.7008L7.99408 16.9397C7.87801 17.0092 7.79548 17.1047 7.77338 17.2411C7.76468 17.2944 7.76268 17.349 7.76068 17.4034L7.76068 17.4034L7.76068 17.4035C7.76001 17.4216 7.75935 17.4398 7.75843 17.4579L7.74773 17.6776C7.73993 17.8399 7.73213 18.0023 7.72281 18.1645C7.72186 18.183 7.7058 18.2103 7.69006 18.2165C7.44805 18.3113 7.19745 18.3536 6.93842 18.3194C6.60164 18.275 6.3151 18.124 6.06784 17.8945C6.02247 17.8524 5.97764 17.8097 5.9328 17.7671L5.93274 17.767C5.89603 17.7321 5.85933 17.6972 5.82233 17.6625C5.66205 17.5126 5.48475 17.5083 5.32733 17.6523C5.28501 17.6911 5.24485 17.732 5.20471 17.773L5.20464 17.7731L5.20463 17.7731C5.18629 17.7918 5.16794 17.8105 5.1494 17.829C4.88227 18.0961 4.57029 18.2747 4.18835 18.3148C3.78303 18.3572 3.41079 18.2674 3.08689 18.0181C2.98653 17.9408 2.89482 17.8523 2.80307 17.7638L2.80305 17.7637C2.76135 17.7235 2.71965 17.6833 2.67712 17.6441C2.5383 17.5161 2.37421 17.5118 2.23205 17.6364C2.17391 17.6874 2.1176 17.7405 2.06131 17.7937L2.0613 17.7937L2.06127 17.7937L2.06122 17.7938C2.03164 17.8217 2.00207 17.8496 1.97223 17.8772C1.5852 18.2351 1.136 18.3935 0.608244 18.3037C0.51745 18.2881 0.425065 18.2746 0.333316 18.2728C0.16572 18.2698 0.0742896 18.3323 0.0235655 18.4916C0.00480239 18.5508 -0.00251205 18.6309 0.0229295 18.683C0.0736536 18.7874 0.154271 18.875 0.273847 18.9109C0.793649 19.0675 1.30375 19.0489 1.79096 18.8001C1.94839 18.7196 2.09723 18.6221 2.24592 18.5247C2.29021 18.4957 2.33449 18.4667 2.37898 18.4382C2.42763 18.4068 2.45943 18.4037 2.5065 18.4415C2.68253 18.583 2.87461 18.6996 3.0791 18.7956C3.4224 18.9567 3.7824 19.0349 4.16163 19.0054C4.52799 18.9769 4.86557 18.8548 5.17866 18.666C5.27282 18.6093 5.3641 18.5476 5.45664 18.4851C5.49818 18.4571 5.53997 18.4288 5.58239 18.4008C6.19314 18.9165 6.88801 19.1265 7.68259 18.9371C7.77147 19.1862 7.83508 19.2307 8.1003 19.2302C8.28851 19.2298 8.47675 19.2292 8.66499 19.2285H8.66503H8.66507L8.66597 19.2285C8.94799 19.2276 9.23002 19.2266 9.51199 19.2265C9.88154 19.2264 10.2511 19.2265 10.6206 19.2266C11.512 19.2268 12.4034 19.227 13.2948 19.224C13.4066 19.2235 13.5109 19.2491 13.6153 19.2747ZM16.6913 12.2718L16.6912 12.2717C16.5889 12.184 16.4879 12.0974 16.3798 12.0207C16.0024 11.7532 15.6205 11.4921 15.2386 11.2309L15.2386 11.2309L15.063 11.1108C15.0223 11.0829 14.973 11.0614 14.9248 11.0512C14.6635 10.9963 14.4019 10.9422 14.1404 10.8881L14.1403 10.8881L14.1403 10.8881L14.1402 10.8881C13.8555 10.8292 13.5707 10.7703 13.2862 10.7103C13.2346 10.6995 13.2098 10.7154 13.1843 10.755C13.086 10.9079 12.9873 11.0605 12.8887 11.2131C12.7795 11.382 12.6703 11.5508 12.5616 11.72C12.4171 11.9452 12.2692 12.1694 12.0544 12.3341C11.9006 12.4519 11.7621 12.5841 11.6273 12.7215L11.5507 12.7992L11.5507 12.7992L11.5507 12.7992L11.5507 12.7992C11.4448 12.9065 11.339 13.0138 11.2363 13.1239C11.1145 13.2545 10.9942 13.3863 10.8738 13.5181L10.8736 13.5184L10.8735 13.5184L10.8735 13.5184C10.7872 13.6131 10.7008 13.7077 10.6139 13.8018C10.4899 13.9361 10.4659 14.0854 10.5174 14.2602C10.6163 14.5957 10.7107 14.9324 10.8052 15.2691C10.8359 15.3786 10.8666 15.488 10.8974 15.5975C10.9609 15.8229 10.9191 15.9245 10.7166 16.0462L10.2303 16.3386C10.0177 16.4664 9.80523 16.5942 9.59261 16.7218L9.36626 16.858L9.36622 16.858L9.36618 16.858L9.36614 16.858C9.0779 17.0315 8.78963 17.2049 8.50005 17.3761C8.4215 17.4226 8.37698 17.4803 8.38636 17.5735C8.38712 17.5808 8.38648 17.5882 8.38585 17.5956L8.38509 17.6062L8.3744 17.8592C8.36504 18.0792 8.35568 18.2993 8.3474 18.5194C8.3447 18.5921 8.34804 18.5923 8.42055 18.5923H13.3479L13.3566 18.5921C13.3628 18.5919 13.369 18.5917 13.3751 18.5924C13.41 18.5969 13.4235 18.5822 13.4251 18.5473C13.4307 18.4247 13.4371 18.3021 13.4434 18.1796L13.4434 18.1795L13.4434 18.1794L13.4434 18.1794C13.4566 17.9251 13.4698 17.6708 13.4771 17.4164C13.4825 17.2265 13.5602 17.096 13.7222 16.9998C14.1555 16.7425 14.5879 16.4836 15.0202 16.2247L15.0207 16.2244L15.0212 16.2241C15.3153 16.048 15.6094 15.8719 15.9037 15.6964C15.9462 15.6711 15.9595 15.6483 15.9455 15.5971C15.855 15.2641 15.766 14.9307 15.677 14.5974L15.6769 14.5968L15.6766 14.5958L15.6763 14.5948C15.6334 14.4342 15.5906 14.2735 15.5475 14.113C15.5117 13.9795 15.54 13.8619 15.6307 13.7588C15.7765 13.5932 15.9224 13.4278 16.0683 13.2624L16.0698 13.2606L16.2106 13.101L16.8341 12.3926C16.7857 12.3527 16.7384 12.3122 16.6914 12.2718L16.6913 12.2718ZM14.0678 18.6686H14.1358L14.5371 18.6668L14.5378 18.6668C14.8053 18.6655 15.0727 18.6642 15.3402 18.6638C15.7937 18.6631 16.2472 18.6628 16.7006 18.6625H16.7007H16.7008H16.7008C17.0976 18.6622 17.4944 18.6619 17.8912 18.6614C18.1959 18.661 18.5006 18.6604 18.8052 18.6597L18.8078 18.6597H18.8079H18.8081H18.8082C19.1475 18.6589 19.4868 18.6581 19.8262 18.6578C20.6112 18.6571 21.3962 18.6571 22.1811 18.6586C22.2499 18.6586 22.2957 18.6344 22.3333 18.5757C22.6487 18.0839 22.9658 17.5932 23.284 17.1033C23.3137 17.0577 23.3145 17.0227 23.2862 16.975C23.2266 16.8747 23.1684 16.7736 23.1101 16.6725L23.1101 16.6724L23.11 16.6723L23.11 16.6722L23.1099 16.6722L23.1099 16.6721L23.1099 16.6721C23.0351 16.5422 22.9604 16.4124 22.8826 16.2844C22.7868 16.1263 22.7624 15.9565 22.7717 15.7776C22.778 15.6547 22.7852 15.5318 22.7924 15.4089L22.7924 15.4087L22.7924 15.4077L22.8009 15.2616L22.8185 14.9598C22.8321 14.727 22.8458 14.4943 22.8583 14.2616C22.8793 13.874 22.8995 13.4861 22.9168 13.0983C22.921 13.0034 22.9047 12.9086 22.8508 12.8272C22.6945 12.5909 22.5161 12.3743 22.2805 12.2118C21.7829 11.8685 21.2854 11.5252 20.7858 11.1851C20.7303 11.1474 20.6633 11.1186 20.5977 11.1048C20.3102 11.044 20.0223 10.9849 19.7344 10.9257C19.4953 10.8766 19.2562 10.8275 19.0173 10.7774C18.9537 10.764 18.9208 10.7855 18.889 10.8367C18.7431 11.0715 18.5959 11.3054 18.4488 11.5393L18.299 11.7776C18.1483 12.0175 17.9713 12.2347 17.7476 12.4112C17.726 12.4283 17.7038 12.4447 17.6815 12.4612L17.6815 12.4612C17.626 12.5022 17.5705 12.5433 17.525 12.5935C17.2461 12.9003 16.9691 13.2089 16.6922 13.5175L16.6917 13.5181C16.5407 13.6863 16.3897 13.8545 16.2384 14.0225C16.1987 14.0665 16.1907 14.1101 16.2065 14.1664C16.268 14.3842 16.327 14.6027 16.3853 14.8213L16.4293 14.9852C16.4949 15.2295 16.5605 15.4739 16.622 15.7193C16.6673 15.8996 16.6216 15.9974 16.4641 16.0956L16.4407 16.1096L15.9155 16.4245C15.3484 16.7645 14.7814 17.1045 14.2133 17.4426C14.1377 17.4876 14.1036 17.5409 14.101 17.6293C14.0974 17.7495 14.0906 17.8697 14.0838 17.9899L14.0838 17.9899L14.0838 17.9901C14.0782 18.089 14.0725 18.188 14.0687 18.287C14.0653 18.3728 14.0662 18.4589 14.067 18.547L14.067 18.5472C14.0674 18.5872 14.0678 18.6275 14.0678 18.6686ZM16.0734 18.2168L16.0862 17.9839C16.0962 17.8025 16.1062 17.6211 16.1157 17.4397C16.117 17.4141 16.117 17.3883 16.1169 17.3625C16.1168 17.3264 16.1168 17.2904 16.1205 17.2548C16.1341 17.123 16.203 17.0261 16.3168 16.9585C16.6175 16.78 16.9179 16.601 17.2182 16.422L17.5605 16.218C17.6306 16.1764 17.6303 16.1746 17.609 16.097L17.5604 15.9206C17.5064 15.7247 17.4524 15.5288 17.4018 15.332C17.3689 15.2043 17.3871 15.0778 17.4762 14.9781C17.5461 14.9 17.6155 14.8213 17.6848 14.7426L17.6849 14.7426C17.9098 14.4875 18.135 14.2321 18.3789 13.9965C18.6338 13.7502 18.8294 13.4675 19.0181 13.1747L19.0403 13.1403C19.1006 13.0466 19.1611 12.9527 19.2247 12.8612C19.3 12.7524 19.3964 12.6715 19.5379 12.674C19.7619 12.6778 19.9047 12.9327 19.7947 13.135C19.7402 13.2352 19.678 13.3315 19.6155 13.4269C19.5838 13.4753 19.5523 13.5239 19.5208 13.5725C19.4171 13.7326 19.3134 13.8927 19.2003 14.046C19.1432 14.1233 19.0741 14.1917 19.0049 14.2602L19.0049 14.2602C18.9693 14.2954 18.9336 14.3307 18.8996 14.3672C18.6743 14.6087 18.4498 14.8509 18.2254 15.0932C18.2052 15.1151 18.1854 15.1375 18.1657 15.1598L18.1656 15.1599L18.1656 15.1599C18.1409 15.1879 18.1163 15.2158 18.0906 15.2428C18.0613 15.2737 18.0537 15.3052 18.0648 15.3468C18.1258 15.5742 18.1856 15.8018 18.2454 16.0294L18.2455 16.0298L18.2922 16.2075C18.322 16.3204 18.331 16.4313 18.2431 16.5248C18.2149 16.5548 18.1808 16.5809 18.1455 16.6022L18.1451 16.6024L18.1451 16.6024C17.7138 16.8634 17.2825 17.1245 16.8492 17.382C16.7724 17.4276 16.7373 17.4817 16.7344 17.573C16.7281 17.7684 16.7166 17.9636 16.7051 18.1589C16.7015 18.2208 16.6978 18.2827 16.6943 18.3446C16.6859 18.4941 16.5174 18.6227 16.359 18.6013C16.1766 18.5766 16.0769 18.4628 16.075 18.2767C16.0747 18.2592 16.0749 18.2416 16.075 18.224C16.075 18.2216 16.075 18.2192 16.075 18.2168H16.0734ZM10.2549 17.9341C10.2417 18.1463 10.3753 18.3098 10.5845 18.3114C10.5864 18.3112 10.5893 18.3109 10.5928 18.3107C10.6031 18.3099 10.6193 18.3087 10.6349 18.305C10.7879 18.2697 10.8752 18.1532 10.8833 17.9778C10.8874 17.89 10.8918 17.8022 10.8963 17.7144C10.9037 17.5684 10.9111 17.4225 10.9167 17.2764C10.92 17.1878 10.9568 17.1309 11.0342 17.0851C11.3344 16.9077 11.6332 16.728 11.9321 16.5483C12.053 16.4756 12.1739 16.403 12.2948 16.3305C12.4891 16.2139 12.5292 16.1155 12.4713 15.8946C12.4539 15.8284 12.4366 15.7622 12.4193 15.6961C12.3647 15.4872 12.31 15.2784 12.2536 15.0701C12.2392 15.0164 12.2481 14.9755 12.2862 14.9364C12.3158 14.9063 12.3442 14.8749 12.3726 14.8435C12.3881 14.8264 12.4036 14.8093 12.4193 14.7924C12.4697 14.7381 12.52 14.6838 12.5704 14.6294C12.7223 14.4655 12.8743 14.3014 13.0279 14.139C13.0578 14.1073 13.0912 14.0782 13.1245 14.0492C13.1769 14.0036 13.2292 13.958 13.2676 13.9027C13.5104 13.5522 13.7444 13.1954 13.9781 12.8388C14.0633 12.7084 14.0223 12.5428 13.8887 12.4385C13.7671 12.3433 13.6039 12.3492 13.498 12.4598C13.4459 12.5144 13.4003 12.5769 13.36 12.6411C13.1493 12.9766 12.9342 13.3101 12.6534 13.5917C12.3416 13.9041 12.0511 14.2353 11.7606 14.5666C11.7255 14.6066 11.6905 14.6465 11.6554 14.6865C11.5748 14.7782 11.5505 14.8838 11.5809 15.0005C11.6516 15.2721 11.7235 15.5434 11.7973 15.814C11.8103 15.8619 11.802 15.8875 11.7569 15.9142C11.4242 16.1113 11.0925 16.3101 10.7608 16.5089C10.6709 16.5629 10.5809 16.6168 10.4909 16.6707C10.3958 16.7277 10.3312 16.8083 10.3115 16.9183C10.3039 16.9612 10.3022 17.0051 10.3004 17.0489C10.2999 17.0614 10.2994 17.0738 10.2988 17.0862C10.2939 17.1803 10.2893 17.2744 10.2848 17.3684C10.2756 17.5571 10.2664 17.7456 10.2549 17.9341Z" fill="#0C1E3C"/>
</svg>
