<svg width="24" height="24" viewBox="0 0 24 24" fill="none" xmlns="http://www.w3.org/2000/svg">
<path fill-rule="evenodd" clip-rule="evenodd" d="M20.2178 8.8549C20.2015 8.94761 20.1858 9.0397 20.1703 9.13127C20.137 9.32741 20.1042 9.52119 20.0653 9.71366C19.6715 11.6582 18.9085 13.4293 17.5896 14.9345C16.4859 16.1944 15.1327 17.0778 13.5385 17.5891C13.4118 17.6298 13.3728 17.6857 13.3691 17.8178C13.3399 18.8341 13.1486 19.8134 12.6477 20.7115C12.2185 21.4815 11.6182 22.0832 10.8364 22.4992C10.6771 22.5838 10.5153 22.6127 10.3479 22.5355C10.1931 22.4641 10.101 22.3411 10.0611 22.1734C9.94247 21.6725 9.82338 21.1717 9.7043 20.6709L9.70394 20.6694C9.50557 19.8353 9.3072 19.0011 9.11102 18.1664C9.09024 18.0785 9.06018 18.0459 8.96804 18.0349C8.12782 17.9338 7.30362 17.7596 6.50076 17.488C6.45919 17.4739 6.37997 17.4967 6.35104 17.5304C5.63442 18.3636 4.73802 18.876 3.65173 19.0456C3.43542 19.0794 3.21378 19.0931 2.99467 19.0923C2.66487 19.0914 2.43621 18.7951 2.52104 18.4768C2.75477 17.5989 2.99467 16.7225 3.24019 15.848C3.27614 15.7199 3.25592 15.6466 3.15535 15.555C1.73533 14.2614 0.874042 12.6399 0.395925 10.7997C0.094784 9.6409 -0.0386505 8.45966 0.00966684 7.2638C0.0526468 6.1952 0.314459 5.18728 0.977418 4.32038C1.66145 3.42651 2.58622 2.91187 3.67954 2.73265C5.81926 2.38207 7.7778 2.87535 9.55852 4.09593C10.6254 4.82743 11.4977 5.76344 12.3194 6.75141C12.4107 6.86133 12.502 6.97139 12.5932 7.08146C13.0192 7.59534 13.4452 8.10937 13.8871 8.6091C14.0696 8.81552 14.2868 8.99238 14.5027 9.16819C14.5471 9.20437 14.5915 9.2405 14.6355 9.27684C15.4889 9.98137 17.3519 9.59062 17.6595 8.11694C17.6834 8.00261 17.702 7.88728 17.7205 7.77187C17.7298 7.71458 17.739 7.65727 17.7489 7.60006C17.7708 7.4728 17.7286 7.37842 17.6376 7.28038C16.8078 6.38594 16.1415 5.39179 15.8201 4.19874C15.6547 3.58522 15.6482 2.97339 15.9128 2.37898C16.1021 1.95367 16.4151 1.89047 16.7845 2.16801C17.0933 2.40041 17.4093 2.62352 17.7252 2.84666L17.7253 2.84668L17.7253 2.84671C17.9364 2.99578 18.1475 3.14485 18.3565 3.29672C18.8776 3.6754 19.3529 4.10267 19.7004 4.65354C19.7447 4.72388 19.7832 4.79788 19.8216 4.87191L19.8216 4.87192C19.8546 4.93537 19.8876 4.99884 19.9243 5.06003C19.9484 5.10048 19.9984 5.15132 20.038 5.15245C20.4462 5.16509 20.8128 5.31341 21.1524 5.51708C21.456 5.69879 21.7533 5.89074 22.0506 6.08271L22.0508 6.08281C22.253 6.21339 22.4553 6.34398 22.6595 6.47134C23.0068 6.68793 23.3573 6.89974 23.7141 7.10003C24.0015 7.26127 24.0877 7.5641 23.9015 7.8526C23.5503 8.39673 23.0419 8.71894 22.425 8.88356C21.7154 9.07289 21.0075 9.00632 20.3004 8.86755C20.285 8.86462 20.2696 8.8624 20.2509 8.85974L20.2178 8.8549ZM17.0213 4.60438C16.8539 4.21897 16.757 3.71388 16.7862 3.37707C16.9237 3.479 17.0601 3.57763 17.1949 3.67505L17.195 3.67512L17.195 3.67515L17.1952 3.67523C17.51 3.90285 17.8157 4.12382 18.1048 4.36476C18.3947 4.60607 18.6585 4.88698 18.895 5.18138C19.0335 5.35358 19.1158 5.58056 19.1872 5.79518C19.2762 6.06345 19.5293 6.22358 19.8018 6.16571C19.9184 6.14099 20.049 6.14436 20.1656 6.1702C20.2951 6.19914 20.424 6.25363 20.5384 6.32218C21.0885 6.6518 21.6362 6.98547 22.191 7.32345L22.1914 7.32371L22.1916 7.3238L22.7191 7.645C22.4584 7.85232 22.1691 7.9439 21.8592 7.9821C21.2322 8.05935 20.6207 7.9571 20.0232 7.78518C19.6259 7.67085 19.3447 7.94558 19.3051 8.29448C19.0377 10.6463 18.2438 12.779 16.6053 14.5384C15.7339 15.4741 14.6799 16.1385 13.4767 16.5674C13.4514 16.5766 13.4253 16.583 13.3991 16.5895L13.3991 16.5895C13.3875 16.5924 13.3759 16.5952 13.3644 16.5983L13.1475 15.1027C13.2296 15.0845 13.3126 15.0669 13.396 15.0493C13.5863 15.009 13.7788 14.9683 13.9686 14.9179C14.3447 14.8179 14.7184 14.708 15.09 14.5923C15.374 14.5035 15.5089 14.2594 15.4414 13.9867C15.378 13.7293 15.1364 13.567 14.8526 13.6319C14.714 13.6636 14.5791 13.7108 14.4441 13.7581L14.4441 13.7581L14.4441 13.7581C14.3149 13.8033 14.1856 13.8486 14.0532 13.8802C13.554 13.9993 13.0517 14.1083 12.5466 14.1973C12.2087 14.2569 12.0205 14.5103 12.0853 14.8541C12.1112 14.9904 12.1381 15.1265 12.1651 15.2628L12.1651 15.2628C12.2526 15.7049 12.3402 16.1474 12.3887 16.5938C12.5247 17.8419 12.421 19.0611 11.8016 20.1907C11.5752 20.6036 11.2755 20.955 10.8816 21.2598L10.8271 21.0375L10.8269 21.0365L10.8266 21.0352C10.7822 20.8544 10.7391 20.6786 10.6968 20.5028L10.253 18.656C9.90287 17.1991 9.5528 15.7422 9.20148 14.2855C9.11159 13.9125 8.71943 13.7583 8.41969 13.9723C8.24777 14.0956 8.18007 14.2971 8.23654 14.5328C8.35161 15.0116 8.46723 15.4902 8.58285 15.9687L8.78797 16.8183C8.79634 16.8531 8.80373 16.8881 8.81258 16.9301L8.81259 16.9301L8.82758 17.0006C7.13507 16.7618 5.56813 16.2455 4.22873 15.1676C2.4039 13.699 1.53082 11.7121 1.14653 9.46533C1.16114 9.45241 1.17602 9.43921 1.19063 9.426C1.21718 9.45668 1.2429 9.48827 1.26862 9.51987C1.32346 9.58722 1.3783 9.65459 1.44121 9.7131C2.48284 10.68 3.72139 11.2845 5.07428 11.675C5.85382 11.9 6.65021 12.0391 7.45784 12.1132C7.71572 12.1368 7.95253 11.9573 7.99383 11.7118C8.04018 11.4359 7.89073 11.1831 7.62077 11.1337C7.43501 11.0998 7.24732 11.0763 7.0596 11.0527L7.05958 11.0527L7.05956 11.0527L7.05954 11.0527L7.05952 11.0527C6.89526 11.0321 6.73097 11.0115 6.5679 10.984C5.13552 10.7418 3.79134 10.2766 2.61852 9.39145C2.10838 9.0066 1.66229 8.55742 1.29317 8.0321C1.08866 7.74136 0.96871 7.44836 1.01647 7.07278C1.09568 6.45252 1.21282 5.8494 1.52267 5.29937C2.0286 4.40128 2.81685 3.88496 3.81353 3.72231C5.82235 3.39476 7.64043 3.8799 9.26497 5.09907C10.1521 5.76484 10.8791 6.59073 11.5909 7.43319L11.6709 7.52782C12.2572 8.22199 12.844 8.91675 13.459 9.58528C13.872 10.0339 14.3762 10.3758 14.9793 10.5353C16.6263 10.971 18.3264 9.91395 18.6798 8.22537C18.726 8.00501 18.7426 7.77843 18.7591 7.55195V7.55192C18.7659 7.45909 18.7727 7.36628 18.7815 7.27392C18.7975 7.10705 18.725 6.97867 18.609 6.86125C17.9539 6.19773 17.3958 5.46482 17.0213 4.60438ZM5.40913 17.0784C4.95096 17.5835 4.40683 17.936 3.67589 18.029L4.13799 16.35C4.56498 16.5949 4.9813 16.8334 5.40913 17.0784ZM7.50492 10.1142C7.77909 10.1136 7.99708 9.89673 7.99933 9.62172C8.00186 9.34305 7.79146 9.12506 7.51616 9.12056C7.233 9.11607 7.00574 9.33294 7.00265 9.61076C6.99984 9.88662 7.2271 10.1144 7.50492 10.1142Z" fill="#0C1E3C"/>
</svg>
