<svg width="24" height="24" viewBox="0 0 24 24" fill="none" xmlns="http://www.w3.org/2000/svg">
<path fill-rule="evenodd" clip-rule="evenodd" d="M12 2.25C9.58008 2.25 7.46777 3.94336 6.90234 6.25781C5.96777 6.62109 5.21191 7.34766 4.81348 8.26172C2.19141 8.06836 0 10.166 0 12.75C0 15.2314 2.01855 17.25 4.5 17.25V15.75C2.84473 15.75 1.5 14.4053 1.5 12.75C1.5 11.0947 2.84473 9.75 4.5 9.75C4.70801 9.75 4.9248 9.77637 5.16211 9.8291L5.89453 9.99609L6.05859 9.26074C6.24023 8.43164 6.89941 7.7666 7.72852 7.57031L8.22363 7.45312L8.29688 6.94922C8.56348 5.12402 10.1572 3.75 12 3.75C13.4209 3.75 14.7041 4.54102 15.3457 5.8125L15.6416 6.39844L16.2627 6.18164C16.6143 6.06152 16.9365 6 17.25 6C18.9053 6 20.25 7.34473 20.25 9C20.25 9.0293 20.2441 9.05566 20.2383 9.08203C20.2324 9.13477 20.2266 9.1875 20.2236 9.2373L20.1768 9.77637L20.6748 9.99023C21.7852 10.4619 22.5 11.5459 22.5 12.75C22.5 14.4053 21.1553 15.75 19.5 15.75H17.5928C17.7891 15.9668 17.9619 16.2012 18.1113 16.4531C18.2607 16.7051 18.3867 16.9717 18.4863 17.25H19.5C21.9814 17.25 24 15.2344 24 12.75C24 11.127 23.1299 9.65039 21.7471 8.85059C21.668 6.43945 19.6816 4.5 17.25 4.5C16.957 4.5 16.667 4.53223 16.3711 4.59375C15.4014 3.13477 13.7783 2.25 12 2.25ZM11.625 9C10.7725 9 10.0049 9.41309 9.52734 10.0488L10.7256 10.9482C10.9307 10.6758 11.2529 10.5 11.625 10.5C12.2549 10.5 12.75 10.9951 12.75 11.625C12.75 12.2549 12.2549 12.75 11.625 12.75H6.75V14.25H11.625C13.0664 14.25 14.25 13.0664 14.25 11.625C14.25 10.1836 13.0664 9 11.625 9ZM6 17.25V15.75H14.25C15.8994 15.75 17.25 17.1006 17.25 18.75C17.25 20.3994 15.8994 21.75 14.25 21.75C12.9492 21.75 11.833 20.918 11.4199 19.7461L12.835 19.248C13.04 19.8281 13.5908 20.25 14.25 20.25C15.0879 20.25 15.75 19.5879 15.75 18.75C15.75 17.9121 15.0879 17.25 14.25 17.25H10.3594C10.4443 17.4873 10.5 17.7363 10.5 18C10.5 19.2334 9.4834 20.25 8.25 20.25C7.42676 20.25 6.69727 19.7988 6.30469 19.1338L7.60254 18.375C7.73145 18.6006 7.96875 18.75 8.25 18.75C8.6748 18.75 9 18.4248 9 18C9 17.5752 8.6748 17.25 8.25 17.25H6Z" fill="#0C1E3C"/>
</svg>
