<svg width="24" height="24" viewBox="0 0 24 24" fill="none" xmlns="http://www.w3.org/2000/svg">
<path fill-rule="evenodd" clip-rule="evenodd" d="M12.3687 22H11.7956C11.7522 21.9943 11.7087 21.9888 11.6652 21.9832C11.5651 21.9706 11.4649 21.9579 11.3653 21.9422C10.8341 21.8589 10.332 21.6923 9.87082 21.4128C9.52695 21.2042 9.23642 20.9415 9.04685 20.5809C8.90313 20.3071 8.83171 20.0077 8.7625 19.7106C8.67035 19.3156 8.59012 18.9175 8.51341 18.5194C8.45716 18.2288 8.40684 17.9372 8.35653 17.6457L8.35648 17.6455L8.35644 17.6452L8.35642 17.6451C8.33816 17.5393 8.3199 17.4335 8.30135 17.3278C8.28325 17.2248 8.26606 17.1218 8.24887 17.0188L8.24887 17.0188L8.24887 17.0188L8.24886 17.0188C8.21836 16.8359 8.18788 16.6532 8.15234 16.4716C8.10473 16.226 7.93985 16.0572 7.75116 15.9095C7.44608 15.6706 7.09692 15.5154 6.73586 15.3862C6.19933 15.1944 5.64693 15.0675 5.08131 15.0018C4.94684 14.9863 4.80885 14.9788 4.67483 14.9912C4.46851 15.0097 4.26395 14.896 4.19032 14.7037C4.14007 14.5724 4.16167 14.4406 4.18371 14.3096C4.24191 13.9609 4.38959 13.6448 4.54919 13.334L4.57561 13.2826L4.61267 13.2106C4.51269 13.221 4.41398 13.2307 4.3162 13.2403L4.31469 13.2404L4.31447 13.2405L4.31437 13.2405L4.31435 13.2405L4.31433 13.2405C4.10319 13.2612 3.89638 13.2815 3.69039 13.308C3.24909 13.3649 3.04409 12.9698 3.16488 12.6621C3.29626 12.3271 3.44615 12.003 3.61809 11.6874C3.67775 11.5777 3.73815 11.4681 3.79558 11.3638L3.81163 11.3347L3.68977 11.3346H3.68958H3.68939H3.68921C3.60956 11.3345 3.53094 11.3344 3.45232 11.3347C3.32668 11.3351 3.21426 11.2941 3.13402 11.1993C3.09602 11.1543 3.06766 11.1012 3.03926 11.0479C3.02648 11.024 3.01368 11 3 10.9767V10.7907C3.01247 10.7672 3.02416 10.7432 3.03586 10.7192L3.03586 10.7192C3.06138 10.6667 3.08694 10.6141 3.1208 10.5676L3.13393 10.5494L3.13394 10.5494L3.13395 10.5493C3.27991 10.3469 3.42623 10.1439 3.58502 9.95127C4.02677 9.4143 4.47468 8.88262 4.92304 8.3505C4.95742 8.30994 4.96624 8.28393 4.94111 8.23455C4.79739 7.9502 4.68806 7.65218 4.60385 7.34446C4.48041 6.89346 4.41516 6.43364 4.38827 5.96632C4.35697 5.4223 4.37769 4.8796 4.43853 4.33867C4.47468 4.01772 4.52009 3.69721 4.58049 3.37979C4.64706 3.02843 4.72553 2.67838 4.81811 2.33275C4.90099 2.0237 5.23384 1.9082 5.50321 2.07925C5.65803 2.17693 5.81161 2.27585 5.96551 2.37497L5.96552 2.37497L5.96555 2.37499L5.96556 2.375L6.05605 2.43326L6.50608 2.72328C7.29953 3.23463 8.09308 3.74605 8.88726 4.25622C8.91503 4.27386 8.95868 4.28223 8.98998 4.27474C9.09401 4.25014 9.1974 4.22321 9.30078 4.19628L9.30079 4.19628L9.3008 4.19628L9.30082 4.19627C9.4086 4.1682 9.51636 4.14013 9.62482 4.11471C10.1865 3.98377 10.7547 3.88987 11.3301 3.85372C11.7101 3.82947 12.0928 3.8233 12.4737 3.83785C12.8488 3.8524 13.2244 3.89075 13.597 3.94101C14.1291 4.01243 14.6533 4.12837 15.1704 4.27518C15.1973 4.28268 15.2361 4.27606 15.2599 4.26063C15.7462 3.94945 16.2314 3.63696 16.7167 3.32438L17.1565 3.04121C17.2965 2.951 17.4363 2.86057 17.5762 2.77016L17.5762 2.77011L17.5763 2.77006L17.5764 2.77002L17.5765 2.76996L17.5765 2.76994C17.932 2.54009 18.2874 2.31028 18.6448 2.0841C18.934 1.9007 19.2594 2.03032 19.3462 2.36096C19.4111 2.60608 19.4657 2.85384 19.5195 3.10161C19.6557 3.73248 19.7391 4.37085 19.7704 5.01495C19.7972 5.57748 19.7801 6.13914 19.6897 6.69683C19.6037 7.22983 19.4569 7.74344 19.2162 8.22794C19.1889 8.28305 19.1981 8.31523 19.2356 8.35667C19.7717 8.94875 20.2813 9.56331 20.761 10.2012C20.7963 10.2484 20.8342 10.2941 20.8721 10.34C21.0002 10.495 21.1291 10.6509 21.1648 10.8625V10.8912L21.1627 10.8987L21.16 10.9079L21.16 10.9079C21.1562 10.9203 21.1525 10.9326 21.1507 10.9454C21.1141 11.1782 20.9307 11.3347 20.6948 11.3347C20.6371 11.3344 20.5793 11.3345 20.5204 11.3346H20.52L20.429 11.3347C20.4413 11.3594 20.4563 11.3885 20.4713 11.4176C20.6812 11.8364 20.8699 12.2631 20.999 12.7146C21.0894 13.0307 20.8765 13.3172 20.5489 13.308C20.4242 13.3046 20.2996 13.2906 20.1752 13.2766L20.1751 13.2766C20.1219 13.2706 20.0687 13.2646 20.0155 13.2595C19.8603 13.2441 19.7055 13.2282 19.5429 13.2114L19.5839 13.2925L19.5841 13.293L19.5842 13.2933L19.5843 13.2934C19.622 13.368 19.6583 13.4397 19.6936 13.5117C19.8484 13.8269 19.9718 14.1514 19.993 14.5071C20.0062 14.724 19.8731 14.922 19.6628 14.9744C19.6167 14.986 19.5675 14.9852 19.5181 14.9843C19.4886 14.9838 19.459 14.9833 19.43 14.9855C19.3729 14.99 19.3157 14.9939 19.2585 14.9978L19.2584 14.9978L19.2584 14.9978C19.1043 15.0083 18.9501 15.0188 18.7978 15.0419C18.178 15.1358 17.5753 15.2954 17.0026 15.5555C16.6998 15.693 16.4141 15.8584 16.1897 16.111C16.0997 16.2119 16.0296 16.3252 16.0058 16.4606C15.8956 17.0826 15.7867 17.7047 15.6778 18.3267C15.5751 18.9135 15.4539 19.4964 15.2996 20.0721C15.1801 20.5183 14.965 20.8992 14.6004 21.1888C14.0449 21.6306 13.3995 21.8519 12.7069 21.9564C12.6316 21.9676 12.5562 21.9768 12.4807 21.986L12.4807 21.9861L12.4806 21.9861C12.4433 21.9906 12.406 21.9952 12.3687 22ZM5.65892 7.59294C5.65136 7.59893 5.64256 7.60591 5.63194 7.6147C5.17741 6.29961 5.22547 4.98144 5.47103 3.65533L5.49131 3.65004C5.52097 3.69414 5.55082 3.73809 5.58066 3.78202L5.58067 3.78203C5.65195 3.88697 5.72317 3.99181 5.79153 4.0984C6.08999 4.56262 6.36906 5.03831 6.60448 5.53781C6.68206 5.70278 6.75263 5.87116 6.82321 6.03956L6.82323 6.03961C6.85732 6.12096 6.89142 6.20232 6.92631 6.2833C6.94086 6.31637 6.94174 6.34106 6.91132 6.37059C6.5609 6.71231 6.21146 7.05499 5.86188 7.39782L5.68881 7.56753C5.68056 7.57578 5.67145 7.583 5.65892 7.59294ZM18.8622 5.637C18.8516 6.46846 18.6832 7.22763 18.5099 7.605C18.4621 7.55861 18.415 7.51307 18.3682 7.46795L18.3682 7.46794C18.2986 7.40073 18.23 7.33448 18.1617 7.26775C18.0668 7.17501 17.9721 7.0821 17.8773 6.98916L17.8772 6.98901L17.8771 6.98897L17.8771 6.98892L17.877 6.98888L17.877 6.98884L17.877 6.9888C17.6723 6.78805 17.4675 6.5872 17.2614 6.38779C17.2217 6.34943 17.2138 6.32122 17.2341 6.26743C17.5735 5.37866 18.0466 4.56218 18.5769 3.77657C18.5967 3.7474 18.6169 3.71845 18.6374 3.6891L18.6625 3.65313C18.7648 3.85195 18.871 4.95146 18.8622 5.637ZM6.85974 4.03094L6.87002 4.05225C6.87651 4.06573 6.8797 4.07236 6.8831 4.07856C6.92087 4.14454 6.95903 4.21033 6.99719 4.27612L6.99721 4.27615C7.07352 4.40771 7.14983 4.53927 7.22301 4.6724C7.5034 5.18556 7.74455 5.71592 7.92574 6.27272C7.98482 6.4548 7.94646 6.61527 7.80891 6.75018C7.76465 6.79371 7.71997 6.83697 7.67527 6.88026C7.63939 6.91501 7.60349 6.94977 7.56776 6.98471C7.3881 7.1613 7.20784 7.33736 7.02755 7.51344L7.02754 7.51345L7.02753 7.51346L7.02752 7.51347L7.02751 7.51348L7.0275 7.51349C6.58847 7.94229 6.14931 8.37122 5.71835 8.80812C5.32686 9.20489 4.96756 9.63208 4.64221 10.0862C4.60028 10.1447 4.55921 10.2038 4.51609 10.266L4.51608 10.266L4.51601 10.2661L4.51594 10.2662L4.51581 10.2664L4.5153 10.2671C4.48976 10.3039 4.46349 10.3417 4.43588 10.3811L4.47616 10.3809C4.50309 10.3808 4.52437 10.3806 4.54566 10.3815C4.90717 10.3983 5.10511 10.7329 4.94772 11.0578C4.79007 11.3841 4.6339 11.7115 4.47786 12.0386L4.43677 12.1247C4.41866 12.1626 4.40168 12.2011 4.38424 12.2407C4.37492 12.2618 4.36547 12.2832 4.35565 12.305C4.36292 12.3059 4.36841 12.3068 4.37283 12.3075L4.37284 12.3075L4.37289 12.3075C4.37942 12.3086 4.38363 12.3093 4.38783 12.309L4.5147 12.2969C4.73075 12.2763 4.94674 12.2557 5.16242 12.2336C5.18314 12.2314 5.20783 12.2151 5.22018 12.1979C5.43752 11.8955 5.67823 11.6129 5.93481 11.3426C6.28353 10.9749 6.65562 10.6346 7.0762 10.3502C7.72559 9.91159 8.42788 9.66074 9.22672 9.74494C9.60674 9.78462 9.97045 9.87632 10.3148 10.0412C10.9761 10.3573 11.4711 10.8537 11.8481 11.4736C11.9057 11.5686 11.9567 11.6679 12.0063 11.7646L12.0063 11.7647C12.0288 11.8084 12.051 11.8517 12.0734 11.8937C12.1133 11.828 12.1526 11.7614 12.192 11.6946L12.192 11.6946L12.192 11.6946L12.192 11.6946L12.192 11.6945L12.192 11.6945L12.192 11.6945C12.2783 11.5483 12.3651 11.401 12.4613 11.2597C12.7933 10.7717 13.2125 10.3754 13.7376 10.0976C14.0766 9.9182 14.4377 9.80622 14.8195 9.75861C15.1127 9.72202 15.4045 9.71673 15.6955 9.76522C16.2139 9.85163 16.6782 10.0712 17.1053 10.3692C17.816 10.8656 18.4068 11.4833 18.9186 12.1794C18.9499 12.2217 18.9843 12.2336 19.0315 12.238C19.1134 12.2446 19.195 12.253 19.2765 12.2613C19.3253 12.2663 19.3741 12.2713 19.423 12.2759C19.5064 12.2839 19.5898 12.2915 19.6758 12.2993L19.6764 12.2994L19.6766 12.2994L19.8197 12.3125L19.8085 12.2884C19.7984 12.2666 19.7903 12.2493 19.7818 12.2323L19.5629 11.784C19.4409 11.5342 19.3189 11.2844 19.1972 11.0345C19.061 10.755 19.2351 10.4305 19.542 10.3895C19.5785 10.3847 19.615 10.3819 19.6539 10.379L19.654 10.379L19.6541 10.379C19.6724 10.3776 19.6912 10.3762 19.7108 10.3745C19.707 10.3682 19.7039 10.3626 19.701 10.3574L19.7009 10.3573C19.6961 10.3487 19.692 10.3414 19.687 10.3348C19.6209 10.2488 19.5555 10.1622 19.49 10.0757L19.49 10.0755L19.4899 10.0754L19.4897 10.0752L19.4895 10.0749L19.4892 10.0746C19.3382 9.87477 19.1873 9.67496 19.0275 9.48263C18.7947 9.20224 18.5562 8.92494 18.2988 8.66748C17.8078 8.17656 17.3099 7.6924 16.8119 7.20821L16.8119 7.20817L16.8118 7.20813L16.8118 7.2081L16.8118 7.20806L16.8117 7.20797C16.6613 7.06176 16.5109 6.91554 16.3607 6.76913C16.2104 6.62277 16.1659 6.45127 16.2355 6.25509L16.2382 6.24752L16.2382 6.2475L16.2382 6.24749L16.2382 6.24748C16.3171 6.02649 16.3962 5.80513 16.4868 5.58895C16.7002 5.07931 16.9612 4.59392 17.2469 4.12132C17.2554 4.10708 17.2632 4.09228 17.271 4.07752L17.2839 4.05343C17.0885 4.1631 16.9046 4.28011 16.7211 4.39686L16.683 4.42111C16.292 4.67063 15.9014 4.91972 15.5094 5.16748C15.4036 5.23449 15.2877 5.24552 15.166 5.2173C15.0399 5.18832 14.9138 5.15886 14.7878 5.12939L14.7878 5.12938C14.4517 5.0508 14.1157 4.97222 13.7777 4.90297C13.3087 4.80642 12.8316 4.75616 12.3529 4.73632C11.7842 4.71296 11.2194 4.76498 10.6578 4.85183C10.1009 4.9378 9.55075 5.05771 9.00805 5.21025C8.86433 5.25081 8.73516 5.22876 8.61304 5.15117C8.30153 4.95221 7.9904 4.75286 7.67928 4.55351L7.21243 4.25446C7.1519 4.21579 7.09111 4.17738 7.02735 4.13709L7.0273 4.13706C6.97405 4.10342 6.91872 4.06846 6.85974 4.03094ZM5.30427 14.1208H5.30424C5.28616 14.12 5.26772 14.1191 5.24883 14.1178C5.35728 13.6633 5.57948 13.2802 5.83606 12.9112C6.13496 12.4805 6.47222 12.0837 6.84828 11.72C7.19391 11.3863 7.57041 11.0918 8.00465 10.8793C8.80614 10.4865 9.57324 10.5839 10.3007 11.0671C10.6485 11.2985 10.8927 11.6296 11.0999 11.9876C11.3658 12.4465 11.5364 12.9394 11.6259 13.4618C11.6576 13.6488 11.7811 13.7612 11.9552 13.8088C12.1395 13.8591 12.3013 13.807 12.4331 13.6624C12.5044 13.5838 12.5211 13.4889 12.5379 13.3934C12.5423 13.3684 12.5467 13.3434 12.5521 13.3186C12.7029 12.6405 12.9767 12.0185 13.4211 11.4815C13.7879 11.0389 14.2569 10.7682 14.8309 10.6716C15.4027 10.5755 15.9137 10.7197 16.3969 11.0129C16.8598 11.2932 17.2597 11.6477 17.6225 12.0458C17.9536 12.4091 18.2556 12.7944 18.5152 13.2128C18.6832 13.483 18.8154 13.7674 18.8988 14.0742C18.9005 14.0814 18.9011 14.0888 18.9018 14.0976L18.9025 14.1058L18.9032 14.1126C18.8649 14.1177 18.827 14.1223 18.7894 14.1269L18.7893 14.1269C18.7175 14.1357 18.6468 14.1443 18.5765 14.1562C17.8592 14.2792 17.1609 14.4644 16.5045 14.7857C16.1407 14.9634 15.8048 15.1816 15.5302 15.4845C15.2996 15.7398 15.1497 16.0329 15.0924 16.3737C15.0289 16.7485 14.9632 17.1228 14.8953 17.4966C14.8766 17.6003 14.8581 17.704 14.8396 17.8077L14.8396 17.8078L14.8396 17.8079L14.8396 17.808L14.8395 17.8082L14.8395 17.8082C14.7781 18.153 14.7167 18.4979 14.6449 18.8403C14.5647 19.223 14.4677 19.6022 14.3689 19.9804C14.2997 20.2463 14.1101 20.4248 13.8937 20.5765C13.5441 20.8207 13.1482 20.9472 12.7342 21.0279C12.4446 21.0843 12.1518 21.1059 11.8587 21.0821C11.2578 21.0341 10.6873 20.8899 10.1896 20.5262C9.94312 20.3459 9.79675 20.1052 9.73283 19.8102C9.69851 19.6519 9.66351 19.4937 9.62852 19.3355C9.54621 18.9633 9.46391 18.5911 9.39028 18.2174C9.28139 17.6655 9.18616 17.1104 9.09182 16.5558C9.04861 16.3019 9.00188 16.0515 8.87139 15.824C8.68094 15.4916 8.40628 15.242 8.08974 15.0348C7.64447 14.743 7.15379 14.553 6.6468 14.4009C6.24341 14.2796 5.83209 14.1937 5.41592 14.1297C5.37964 14.1244 5.34274 14.1226 5.30427 14.1208ZM13.6788 19.1538C13.1713 18.9197 12.6361 18.8183 12.0149 18.821C11.7822 18.8126 11.4894 18.8483 11.2002 18.9114C10.8855 18.9797 10.5826 19.082 10.3031 19.2464C10.2665 19.2676 10.2594 19.2857 10.274 19.3253C10.4084 19.693 10.6165 20.0096 10.9251 20.2542C11.2064 20.4769 11.5282 20.5963 11.8871 20.6281C12.2768 20.6625 12.6454 20.6016 12.9888 20.4129C13.4089 20.1824 13.6796 19.8235 13.8569 19.3875L13.8701 19.3558C13.8882 19.3126 13.8967 19.2923 13.891 19.2774C13.8859 19.2642 13.8695 19.2553 13.8384 19.2385C13.8257 19.2316 13.8104 19.2234 13.7925 19.2129C13.7559 19.1913 13.7176 19.1719 13.6788 19.1538ZM13.8252 15.1476C13.7326 14.7341 13.6577 14.3417 13.6617 13.9396C13.6629 13.8368 13.6826 13.7331 13.7019 13.631L13.7035 13.6222C13.7229 13.5191 13.7842 13.434 13.8755 13.3868L13.9304 13.3585C14.091 13.2757 14.2533 13.1919 14.423 13.1338C14.6919 13.0425 14.9697 12.9777 15.251 12.9124C14.9084 13.7386 14.4931 14.5123 13.8252 15.1476ZM10.1537 13.3051C9.75778 13.1111 9.33544 13.0097 8.88664 12.907C9.24859 13.7425 9.663 14.517 10.3305 15.147C10.3385 15.1083 10.3464 15.0713 10.3541 15.0354C10.3703 14.9597 10.3853 14.889 10.3988 14.8182C10.4583 14.5043 10.5015 14.1886 10.4918 13.8677C10.4839 13.6164 10.3957 13.4233 10.1537 13.3051Z" fill="#0C1E3C"/>
</svg>
