<svg width="24" height="24" viewBox="0 0 24 24" fill="none" xmlns="http://www.w3.org/2000/svg">
<path fill-rule="evenodd" clip-rule="evenodd" d="M15.3561 1.33415C15.3587 1.90493 14.9172 2.35104 14.3418 2.36031C13.7978 2.36907 13.3342 1.90853 13.3311 1.35681C13.328 0.777789 13.7684 0.32034 14.331 0.318795C14.8992 0.317249 15.3535 0.767486 15.3561 1.33415ZM19.6332 12.5961L19.6332 12.596L19.6332 12.5959C19.6419 12.5042 19.6508 12.4109 19.6608 12.3153C18.7644 12.5265 17.9417 12.8263 17.2216 13.3595C16.1377 14.1626 15.3428 15.1692 15.0811 16.5251C14.8421 17.7624 15.5334 18.7953 16.7487 19.0148C17.4086 19.1338 18.0417 18.9978 18.6341 18.6918C19.8921 18.0432 20.6287 16.9727 21.0553 15.6601C21.3747 14.6767 21.4942 13.6614 21.5132 12.6311C21.5148 12.5404 21.5266 12.4266 21.5812 12.3642C22.1103 11.761 22.269 11.0372 22.2581 10.266C22.2391 8.88443 22.0629 7.51775 21.7554 6.1727C21.5544 5.29284 21.3288 4.41451 21.0393 3.56092C20.7992 2.85362 20.2836 2.60275 19.5407 2.69702C19.4223 2.71196 19.3048 2.74029 19.1884 2.76966C18.9313 2.8344 18.6742 2.89892 18.4171 2.96344L18.4171 2.96346L18.4162 2.96367L18.4162 2.96368C17.6262 3.16194 16.8364 3.36015 16.0481 3.56452C15.746 3.64287 15.443 3.71845 15.14 3.79403C14.3093 4.00125 13.4784 4.2085 12.6661 4.47272C11.3752 4.89257 10.2985 5.63747 9.64326 6.88206C9.1853 7.75265 8.99573 8.69434 8.99882 9.66384C9.00159 10.583 9.0508 11.5026 9.09994 12.4212L9.09995 12.4212L9.11678 12.7372C9.1786 13.903 9.06991 15.0409 8.648 16.1382C8.42104 16.7285 8.41973 16.7284 7.83241 16.668L7.78977 16.6636C6.53591 16.5359 5.30626 16.6301 4.14615 17.1716C2.75835 17.8191 1.82851 18.8391 1.62967 20.4067C1.47719 21.6085 1.91145 22.5852 2.88971 23.2863C3.91846 24.023 5.07959 24.1404 6.28452 23.8607C7.85107 23.4975 9.15697 22.6635 10.2795 21.5364C12.1376 19.671 12.9603 17.4116 12.7383 14.7931C12.6744 14.0395 12.5636 13.2895 12.4529 12.5396L12.4529 12.5395L12.4529 12.5394C12.4092 12.2432 12.3654 11.9471 12.3246 11.6508C12.17 10.5329 12.0959 9.4176 12.4008 8.31107C12.6893 7.26378 13.2503 6.42358 14.2734 5.97901C14.5724 5.84892 14.884 5.74851 15.1957 5.64807L15.1958 5.64807C15.4099 5.57908 15.6241 5.51007 15.8343 5.43141C16.4097 5.21659 16.9784 4.98375 17.5456 4.74833C17.6144 4.71953 17.6739 4.66775 17.7334 4.616C17.7611 4.59184 17.7889 4.56768 17.8176 4.54588L17.8055 4.52996L17.8054 4.5298C17.796 4.51746 17.7866 4.50501 17.7769 4.49282C17.7044 4.51533 17.6323 4.54012 17.5602 4.56492C17.3996 4.62012 17.239 4.67536 17.0737 4.70557C16.3896 4.83075 15.7024 4.94357 15.0142 5.04454C13.6918 5.23875 12.5868 5.78377 11.8599 6.95675C11.404 7.69187 11.1702 8.50167 11.0599 9.35218C10.9054 10.5447 11.0857 11.7157 11.2758 12.8886C11.3067 13.0798 11.3391 13.271 11.3716 13.4623C11.4961 14.1956 11.6208 14.9306 11.6601 15.6689C11.7471 17.3107 11.2902 18.8427 10.4654 20.2557C9.71384 21.5441 8.69591 22.5677 7.32047 23.1921C6.35097 23.632 5.35314 23.7958 4.3146 23.4259C3.13801 23.0071 2.39414 21.8954 2.54044 20.7606C2.69808 19.5397 3.36262 18.6681 4.40991 18.0674C5.5051 17.4389 6.71466 17.2746 7.94792 17.2148C7.97464 17.2138 8.00202 17.2248 8.03386 17.2376L8.0339 17.2376L8.03396 17.2376C8.05059 17.2443 8.06844 17.2514 8.08804 17.2576C7.47347 18.3224 6.62348 19.1332 5.64007 19.8251C5.70807 19.8343 5.76319 19.8282 5.80801 19.804C5.90539 19.7519 6.00397 19.7017 6.10256 19.6514L6.10281 19.6512L6.10284 19.6512L6.10286 19.6512C6.34683 19.5268 6.59088 19.4023 6.81718 19.2512C8.26577 18.2848 9.21981 16.949 9.72723 15.2872C10.0616 14.1917 10.0488 13.066 10.0359 11.9377L10.0358 11.9274C10.0343 11.7978 10.0324 11.6681 10.0306 11.5383V11.5383V11.5383C10.0198 10.7633 10.0089 9.98687 10.0543 9.21463C10.1095 8.28377 10.3737 7.4039 10.9589 6.64664C11.4875 5.96304 12.1876 5.50662 12.9531 5.14087C13.997 4.64194 15.1 4.3086 16.2019 3.9756C16.3935 3.91767 16.5852 3.85975 16.7765 3.80098C17.6558 3.53104 18.5414 3.27862 19.4336 3.05608C20.1198 2.88505 20.4732 3.09626 20.7348 3.74637C20.7673 3.82776 20.7977 3.9107 20.8198 3.9957C21.3458 6.00322 21.5215 8.0468 21.4442 10.1156C21.4396 10.2408 21.4212 10.3656 21.4027 10.4903C21.3943 10.5473 21.3859 10.6042 21.3788 10.6612C21.2984 10.5674 21.2732 10.4767 21.2479 10.3861C20.9543 9.33209 20.4355 8.41977 19.5536 7.74596C18.7248 7.11233 17.8037 6.78933 16.7476 6.97118C16.7029 6.97922 16.6598 6.99768 16.6168 7.01613C16.5964 7.02488 16.576 7.03362 16.5555 7.04124C16.5611 7.06133 16.5673 7.08142 16.5735 7.10099C16.5938 7.10099 16.614 7.10128 16.6343 7.10157C16.6748 7.10214 16.7155 7.10271 16.7564 7.10099C17.323 7.07678 17.8536 7.20763 18.3482 7.48014C19.805 8.28325 20.4211 9.59687 20.5829 11.1815C20.6725 12.066 20.586 12.9427 20.4283 13.8123C20.2609 14.7313 20.009 15.6225 19.464 16.4019C18.9715 17.1072 18.3528 17.6445 17.4796 17.8093C16.6327 17.9695 16.1495 17.5033 16.2804 16.6595C16.3875 15.9692 16.7538 15.4077 17.1979 14.8926C17.7769 14.2213 18.5017 13.767 19.3378 13.48C19.4217 13.4507 19.5366 13.3698 19.549 13.2982C19.5883 13.07 19.6101 12.8392 19.6332 12.5962L19.6332 12.5961L19.6332 12.5961ZM6.3418 14.3603C6.91722 14.351 7.3587 13.9049 7.35612 13.3341C7.35355 12.7675 6.89919 12.3172 6.33098 12.3188C5.76845 12.3203 5.328 12.7778 5.33109 13.3568C5.33418 13.9085 5.79781 14.3691 6.3418 14.3603ZM17.7607 11.469C18.3099 11.4716 18.7622 11.0162 18.7652 10.4583C18.7683 9.88546 18.3243 9.43213 17.755 9.42698C17.2059 9.42183 16.7376 9.88082 16.7351 10.4274C16.7325 11.0157 17.1765 11.467 17.7607 11.469Z" fill="#0C1E3C"/>
</svg>
