<svg width="24" height="24" viewBox="0 0 24 24" fill="none" xmlns="http://www.w3.org/2000/svg">
<path fill-rule="evenodd" clip-rule="evenodd" d="M9 6C9 4.35059 10.3506 3 12 3C13.6494 3 15 4.35059 15 6C15 7.38867 14.0391 8.54883 12.75 8.88281V10.5H15V12H12.75V17.9766C14.5693 17.833 15.7793 17.168 16.6406 16.4062C17.2969 15.8262 17.7363 15.1875 18.0469 14.6484L16.8516 14.0625L19.8516 12.7031L20.6484 15.9375L19.4062 15.3281C19.0518 15.9639 18.501 16.7783 17.6484 17.5312C16.5586 18.498 14.9502 19.2979 12.75 19.4531V19.5L12 20.25L11.25 19.5V19.4531C9.0498 19.2979 7.44141 18.498 6.35156 17.5312C5.49902 16.7783 4.94824 15.9639 4.59375 15.3281L3.35156 15.9375L4.14844 12.7031L7.14844 14.0625L5.95312 14.6484C6.26367 15.1875 6.70312 15.8262 7.35938 16.4062C8.2207 17.168 9.43066 17.833 11.25 17.9766V12H9V10.5H11.25V8.88281C9.96094 8.54883 9 7.38867 9 6ZM13.5 6C13.5 5.16211 12.8379 4.5 12 4.5C11.1621 4.5 10.5 5.16211 10.5 6C10.5 6.83789 11.1621 7.5 12 7.5C12.8379 7.5 13.5 6.83789 13.5 6Z" fill="#0C1E3C"/>
</svg>
