<svg width="24" height="24" viewBox="0 0 24 24" fill="none" xmlns="http://www.w3.org/2000/svg">
<path fill-rule="evenodd" clip-rule="evenodd" d="M14.6573 5.26775C14.8546 4.76804 14.9532 4.30779 14.9532 3.88698C14.9532 3.82123 14.9499 3.75548 14.9433 3.68973C14.9368 3.62398 14.9203 3.54837 14.894 3.46289C13.7171 3.73247 12.8738 4.23217 12.3643 4.96201C11.8547 5.69184 11.5933 6.55646 11.5802 7.55587C12.047 7.51642 12.3955 7.46053 12.6256 7.3882C12.9872 7.26328 13.3522 7.02 13.7204 6.65837C14.1477 6.23099 14.4601 5.76745 14.6573 5.26775ZM13.316 7.61504C12.6453 7.84517 12.1621 7.96023 11.8662 7.96023C11.6361 7.96023 11.1709 7.85832 10.4706 7.65449C9.7704 7.45067 9.17371 7.34875 8.68058 7.34875C7.52337 7.34875 6.56505 7.83531 5.80563 8.80842C5.04621 9.78153 4.6665 11.0407 4.6665 12.5858C4.6665 14.2493 5.16292 15.9456 6.15576 17.6749C7.14859 19.4239 8.16115 20.2983 9.19343 20.2983C9.53534 20.2983 9.9808 20.1849 10.5298 19.9581C11.0788 19.7312 11.5605 19.6178 11.9747 19.6178C12.3889 19.6178 12.8968 19.7263 13.4985 19.9433C14.1001 20.1603 14.5718 20.2688 14.9137 20.2688C15.7751 20.2688 16.643 19.608 17.5175 18.2864C18.0961 17.4053 18.5103 16.5604 18.7602 15.7517C18.1618 15.5742 17.6292 15.1501 17.1624 14.4794C16.6956 13.8088 16.4622 13.0559 16.4622 12.2209C16.4622 11.4582 16.6824 10.7612 17.123 10.13C17.3662 9.78153 17.7509 9.38373 18.2769 8.93663C17.9284 8.50925 17.5766 8.17064 17.2216 7.92078C16.5904 7.48683 15.8704 7.26985 15.0617 7.26985C14.5685 7.26985 13.9867 7.38492 13.316 7.61504Z" fill="#0C1E3C"/>
</svg>
