<svg width="24" height="24" viewBox="0 0 24 24" fill="none" xmlns="http://www.w3.org/2000/svg">
<path fill-rule="evenodd" clip-rule="evenodd" d="M10.4569 3.88216C10.4509 3.82761 10.4456 3.77889 10.4397 3.7394C10.4529 2.9554 10.6776 2.33437 11.2193 1.85429C11.5364 1.5724 11.9064 1.42705 12.3336 1.45348C12.6684 1.4711 12.9591 1.59883 13.2189 1.80584C13.6021 2.11855 13.84 2.52817 13.9633 3.00385C14.1263 3.66453 14.0602 4.30317 13.7343 4.90659C13.5933 5.17526 13.3951 5.40429 13.1441 5.58047C12.5627 5.9989 11.8403 5.98569 11.281 5.53202C10.8714 5.20169 10.6159 4.77005 10.5102 4.25473C10.4837 4.12528 10.469 3.99191 10.4569 3.88216ZM12.5825 0.0220224C12.5362 0.0143146 12.49 0.00660672 12.4438 0H12.0562C12.0444 0.0019653 12.0326 0.00480753 12.0204 0.00774411C12.0053 0.0113888 11.9895 0.0151787 11.9725 0.0176179C11.695 0.0440448 11.4219 0.110112 11.162 0.215819C10.4353 0.510919 9.88475 1.01303 9.51037 1.69572C8.93779 2.72197 8.8541 3.80547 9.19765 4.9198C9.42669 5.65975 9.84511 6.28079 10.4794 6.73885C11.281 7.31584 12.1663 7.48321 13.1176 7.18811C13.8268 6.96788 14.3861 6.52303 14.809 5.91962C15.4344 5.02551 15.6282 4.0301 15.452 2.95981C15.3023 2.04808 14.853 1.30373 14.1395 0.722334C13.7255 0.378785 13.2542 0.140943 12.7212 0.0440448C12.675 0.0374381 12.6287 0.0297302 12.5825 0.0220224ZM11.5866 23.9969L11.5865 23.9968C11.571 23.9928 11.5548 23.9885 11.5364 23.9885C11.3973 23.9819 11.2575 23.9772 11.1176 23.9724C10.8855 23.9645 10.6529 23.9566 10.4221 23.9401C10.0081 23.9137 9.59846 23.8784 9.18884 23.8344C8.77923 23.7948 8.37401 23.7419 7.9688 23.6802C6.75317 23.4997 5.56836 23.2001 4.44522 22.6804C3.94751 22.447 3.48064 22.1739 3.06662 21.8083C2.74069 21.522 2.4588 21.1961 2.265 20.8041C2.09763 20.4694 2.00514 20.1082 2.00074 19.7382C1.99193 19.3859 2.0624 19.0467 2.20334 18.7208C2.42797 18.1879 2.7495 17.7254 3.20316 17.3642C3.5379 17.0955 3.92109 16.937 4.34392 16.8797C4.35787 16.8777 4.37182 16.8748 4.38618 16.8719L4.38623 16.8718C4.40359 16.8682 4.42154 16.8645 4.44082 16.8621C4.44522 16.8181 4.44963 16.7784 4.45403 16.7388C4.47165 16.3556 4.49367 15.9724 4.51569 15.5892C4.57736 14.4969 4.77556 13.4398 5.19839 12.4268C5.52872 11.6428 5.96477 10.9249 6.53294 10.2906C7.19802 9.54627 7.99523 8.9869 8.91136 8.5949C9.60727 8.29539 10.334 8.1016 11.0828 7.99148C11.6421 7.9122 12.2059 7.88137 12.7697 7.92101C14.276 8.03113 15.6678 8.47157 16.9055 9.34806C17.848 10.0131 18.5484 10.8808 19.0549 11.9115C19.4337 12.6867 19.6891 13.5059 19.8433 14.356C19.971 15.0827 20.0195 15.8182 20.0239 16.5538V16.8577C20.0559 16.8637 20.0871 16.8688 20.1178 16.8738L20.1178 16.8738L20.1179 16.8739C20.1546 16.8799 20.1905 16.8857 20.2265 16.8929C20.7946 16.9898 21.2615 17.2673 21.6403 17.6945C21.9883 18.0865 22.2569 18.527 22.3935 19.0379C22.423 19.1364 22.4379 19.2399 22.4527 19.3427C22.4577 19.3778 22.4627 19.4128 22.4683 19.4475C22.4727 19.474 22.4772 19.5004 22.486 19.5268V19.8836C22.4781 19.911 22.4738 19.942 22.4698 19.9702L22.4683 19.9805C22.4619 20.0168 22.4576 20.0532 22.4533 20.089L22.4533 20.0891C22.4488 20.1271 22.4443 20.1645 22.4375 20.2007C22.3362 20.6808 22.1072 21.0904 21.7857 21.4516C21.3628 21.9273 20.8519 22.2796 20.2881 22.5659C19.5438 22.9403 18.7598 23.2001 17.9538 23.4028C17.2578 23.5745 16.5531 23.6979 15.8396 23.7771C15.3507 23.8344 14.8618 23.8828 14.3685 23.9181C14.0256 23.9432 13.6827 23.9572 13.3398 23.9711C13.2026 23.9767 13.0654 23.9823 12.9282 23.9885C12.9077 23.9885 12.8871 23.9925 12.8666 23.9964C12.8563 23.9983 12.846 24.0003 12.8358 24.0018H11.6069C11.6002 24.0004 11.5934 23.9987 11.5866 23.9969ZM11.003 22.4924L11.003 22.4923L11.0029 22.4923C10.9921 22.4805 10.9824 22.4699 10.9727 22.4602C10.3384 21.8348 9.69095 21.2313 9.01707 20.6544C8.32997 20.0686 7.60764 19.5312 6.83245 19.0776C6.25546 18.7384 5.64324 18.4874 4.99138 18.3288C4.61259 18.2363 4.27345 18.298 3.98716 18.5843C3.76253 18.8177 3.59516 19.0864 3.49385 19.3947C3.41017 19.6634 3.4366 19.9232 3.56873 20.1699C3.64801 20.324 3.75372 20.4562 3.87704 20.5795C4.15453 20.8658 4.48486 21.086 4.84162 21.2666C5.4098 21.5529 6.00441 21.7643 6.61663 21.9317C7.60323 22.2047 8.61626 22.3237 9.6337 22.4161C9.79004 22.4316 9.94748 22.4459 10.1049 22.4602L10.1053 22.4602C10.2627 22.4745 10.42 22.4888 10.5763 22.5042L10.6531 22.5108L10.6536 22.5109C10.7813 22.5219 10.909 22.5329 11.0519 22.5439C11.0323 22.5242 11.0167 22.5073 11.003 22.4924L11.003 22.4924ZM13.543 22.5093C13.5415 22.5081 13.5399 22.5067 13.5379 22.5053C13.5351 22.5033 13.5317 22.5013 13.5273 22.4998C13.5327 22.4944 13.5374 22.4882 13.5419 22.4822C13.5485 22.4736 13.5547 22.4654 13.5625 22.4602C14.7297 21.2358 15.9982 20.1258 17.4252 19.2141C17.8084 18.9674 18.2048 18.7428 18.6276 18.5666C18.9315 18.4433 19.2399 18.3508 19.5658 18.3112C19.993 18.2539 20.3542 18.3816 20.6229 18.7208C20.8035 18.9498 20.9488 19.1965 21.0193 19.4872C21.0677 19.7074 21.0413 19.9188 20.9488 20.1214C20.8739 20.2844 20.7638 20.4209 20.6405 20.5487C20.2837 20.9186 19.8609 21.1829 19.3984 21.3899C18.8523 21.641 18.2797 21.8171 17.7027 21.9669C17.0729 22.1299 16.4342 22.2444 15.7912 22.3281C15.0732 22.4206 14.3553 22.4822 13.633 22.513H13.5493C13.5474 22.513 13.5455 22.5115 13.543 22.5093ZM16.8835 17.8047C16.9011 17.7959 16.9143 17.7914 16.9275 17.787C17.434 17.558 17.9449 17.329 18.4515 17.1043C18.5396 17.0647 18.5792 17.003 18.5792 16.9061C18.577 16.8247 18.577 16.7421 18.577 16.6595C18.577 16.5769 18.577 16.4943 18.5748 16.4128C18.5704 15.7522 18.5175 15.0915 18.3854 14.4396C18.2444 13.7261 18.0198 13.039 17.6763 12.3916C17.2182 11.5327 16.5884 10.828 15.7559 10.3215C14.7341 9.70042 13.6197 9.39651 12.4305 9.36128C11.5012 9.33045 10.5983 9.49782 9.72619 9.82375C8.99945 10.0968 8.35199 10.502 7.80584 11.057C7.2817 11.5855 6.8809 12.1978 6.58139 12.8761C6.22023 13.6865 6.04405 14.5409 5.96477 15.4174C5.92072 15.9284 5.91632 16.4393 5.92513 16.9502C5.92513 17.0251 5.94715 17.0647 6.01322 17.0911C6.31531 17.224 6.61586 17.3583 6.91579 17.4924L6.91645 17.4927C7.12355 17.5853 7.33036 17.6777 7.53716 17.7694C7.54999 17.7771 7.5643 17.7818 7.58011 17.787L7.58013 17.787C7.59147 17.7908 7.60357 17.7947 7.61644 17.8003L7.63071 17.7231C7.64331 17.6555 7.65527 17.5913 7.66489 17.5272L7.7005 17.3336C7.82952 16.6324 7.95791 15.9346 8.07892 15.2369C8.14498 14.8581 8.18462 14.4749 8.19784 14.0873C8.20841 13.7464 8.21422 13.4055 8.22003 13.0646C8.22391 12.8373 8.22779 12.61 8.23307 12.3827C8.23405 12.3387 8.23459 12.2947 8.23514 12.2506C8.23704 12.0965 8.23894 11.9423 8.2595 11.7881C8.29914 11.449 8.58983 11.1935 8.92017 11.1803C9.27253 11.1671 9.57203 11.3873 9.65572 11.7265C9.67334 11.8102 9.68655 11.8983 9.68655 11.9863C9.70417 12.581 9.69976 13.1756 9.67774 13.7746C9.6425 14.5498 9.56763 15.3205 9.45311 16.0913C9.32538 16.9106 9.1492 17.7166 8.91136 18.5138C8.87613 18.6415 8.89815 18.7208 8.99945 18.8089C9.47955 19.2215 9.95812 19.6372 10.4361 20.0523C10.7693 20.3418 11.1022 20.6309 11.4351 20.9186C11.695 21.1433 11.946 21.3811 12.1619 21.6498C12.1735 21.6643 12.187 21.6769 12.2012 21.6901C12.2085 21.6969 12.216 21.7039 12.2235 21.7114C12.2323 21.7004 12.2411 21.6916 12.2494 21.6834C12.2577 21.6751 12.2654 21.6674 12.272 21.6586C12.4393 21.4957 12.6066 21.3284 12.7739 21.1611L12.7741 21.1609C13.6418 20.3152 14.5447 19.5092 15.5093 18.7736C15.5841 18.7164 15.6062 18.6547 15.5841 18.5666C15.5621 18.4742 15.5412 18.3817 15.5203 18.2892C15.4994 18.1967 15.4784 18.1042 15.4564 18.0117C15.2318 17.1264 15.038 16.2367 14.9367 15.3293C14.8794 14.8449 14.8354 14.3604 14.8134 13.8715C14.7869 13.2548 14.7825 12.6382 14.809 12.0216C14.8178 11.8586 14.853 11.7089 14.9235 11.5635C15.0512 11.2904 15.267 11.1671 15.5665 11.1803C15.8748 11.1935 16.1259 11.3961 16.214 11.6912C16.2492 11.8102 16.2492 11.9291 16.2448 12.0524C16.2448 12.2088 16.2437 12.3651 16.2426 12.5215C16.2415 12.6778 16.2404 12.8342 16.2404 12.9906C16.2448 13.9023 16.3197 14.8008 16.4474 15.6993C16.5487 16.3952 16.6853 17.0779 16.8614 17.7518C16.8639 17.7592 16.8678 17.768 16.8722 17.7782L16.8723 17.7782C16.8757 17.7862 16.8796 17.795 16.8835 17.8047Z" fill="#0C1E3C"/>
</svg>
