<svg width="24" height="24" viewBox="0 0 24 24" fill="none" xmlns="http://www.w3.org/2000/svg">
<path fill-rule="evenodd" clip-rule="evenodd" d="M5.80247 15.8135C5.49132 15.8135 5.18015 15.8136 4.86897 15.8137H4.73947C4.73411 15.8046 4.72875 15.7955 4.72298 15.7865C4.73381 15.7756 4.74437 15.7646 4.75492 15.7535C4.77691 15.7306 4.79881 15.7077 4.82278 15.687C5.02871 15.5121 5.23467 15.3372 5.44063 15.1624C6.05916 14.6372 6.67769 14.112 7.29552 13.5861C7.35161 13.5382 7.40935 13.5205 7.48234 13.5209C8.16651 13.525 8.85027 13.5279 9.53444 13.5279C11.9833 13.5267 14.4325 13.5246 16.8813 13.5205C16.9663 13.5201 17.0277 13.5452 17.0879 13.603C17.3632 13.8657 17.6395 14.1269 17.9158 14.3882C18.0539 14.5188 18.1921 14.6494 18.3301 14.7801C18.4117 14.8577 18.5058 14.9101 18.6184 14.9217C18.799 14.9398 18.9862 14.835 19.058 14.6795C19.1499 14.4798 19.1198 14.2937 18.9598 14.141C18.7456 13.9366 18.5305 13.7331 18.3154 13.5295C18.0572 13.2852 17.7991 13.0409 17.5424 12.7951C17.4125 12.6709 17.2661 12.6169 17.0863 12.619C16.7092 12.6231 16.332 12.6224 15.9548 12.6216C15.8072 12.6213 15.6597 12.621 15.5122 12.621C15.3868 12.621 15.3856 12.6206 15.3856 12.4964C15.3851 11.9369 15.3851 11.3775 15.3851 10.818C15.3851 10.6455 15.3897 10.6443 15.5592 10.601C15.8037 10.5382 16.0475 10.4722 16.2908 10.405C16.4685 10.3558 16.646 10.3059 16.8234 10.256C17.0152 10.202 17.2069 10.1481 17.3989 10.0951C17.565 10.0494 17.7313 10.0043 17.8975 9.9592C18.1738 9.8843 18.45 9.8094 18.7252 9.73162C18.8196 9.70521 18.919 9.67014 18.9949 9.61114C19.2056 9.44858 19.2386 9.1383 18.9891 8.90395C18.1301 8.09733 17.2748 7.28699 16.4199 6.47582C16.3048 6.36649 16.1774 6.31161 16.0174 6.31367C15.7056 6.31708 15.3941 6.31631 15.0825 6.31553C14.9785 6.31527 14.8746 6.31502 14.7707 6.31491C14.6589 6.31491 14.6494 6.30625 14.6486 6.19196C14.648 6.11688 14.6482 6.04199 14.6484 5.96703C14.6485 5.92953 14.6486 5.89202 14.6486 5.85446C14.6486 5.74402 14.6486 5.63358 14.6485 5.52314C14.6484 5.30227 14.6483 5.08139 14.6486 4.86051C14.6486 4.85594 14.6485 4.85134 14.6485 4.84673C14.6478 4.80182 14.6471 4.75654 14.7092 4.74045C14.7756 4.72315 14.8416 4.70471 14.9077 4.68627C14.9676 4.66953 15.0276 4.65279 15.0878 4.63689C15.2431 4.59563 15.3984 4.55488 15.5538 4.51414C15.7092 4.47339 15.8646 4.43265 16.0198 4.39139C16.4236 4.2837 16.8269 4.1756 17.2302 4.06627C17.2708 4.05523 17.3119 4.04519 17.3531 4.03515C17.4611 4.00878 17.5694 3.98236 17.6694 3.93754C17.9783 3.7989 18.0208 3.41024 17.7544 3.17754C17.1175 2.62204 16.4785 2.06895 15.8393 1.51569C15.6842 1.38145 15.5291 1.2472 15.374 1.11291C15.2664 1.01966 15.1435 0.971799 14.9975 0.9751C14.8767 0.978104 14.7561 0.977485 14.6354 0.976865C14.5406 0.976379 14.4458 0.975892 14.3508 0.977163C14.282 0.977988 9.92003 0.978401 9.84662 0.977163C9.7689 0.975817 9.69111 0.976599 9.61334 0.97738C9.50045 0.978515 9.3876 0.979649 9.27504 0.974275C9.08699 0.96561 8.93893 1.0308 8.80532 1.16077C8.55066 1.40842 8.29306 1.65331 8.03549 1.89817C7.92016 2.00782 7.80483 2.11745 7.68978 2.22733C7.5932 2.31957 7.49632 2.41149 7.39947 2.50339C7.15017 2.73994 6.90097 2.97639 6.65713 3.21797C6.40309 3.46965 6.5165 3.87111 6.85879 3.96601C7.00025 4.00479 7.14087 4.04564 7.2815 4.08648C7.42892 4.12932 7.57626 4.1723 7.72359 4.21528C7.93526 4.27702 8.1469 4.33875 8.35869 4.40006C8.38963 4.40901 8.42057 4.41796 8.45151 4.42692C8.80988 4.53064 9.1683 4.63437 9.52743 4.73426C9.593 4.75241 9.60991 4.78707 9.60908 4.84772L9.60908 4.84805C9.60743 5.03567 9.60579 5.22288 9.61032 5.4105C9.61609 5.65724 9.82229 5.85734 10.0627 5.85569C10.3019 5.85404 10.5023 5.65063 10.5069 5.40225C10.5089 5.26197 10.511 5.12086 10.5056 4.98058C10.5019 4.88898 10.539 4.86216 10.6269 4.86258C11.2628 4.86415 11.8988 4.86456 12.535 4.86496C12.8984 4.86519 13.2619 4.86543 13.6254 4.86588C13.7355 4.86588 13.7508 4.88073 13.7508 4.98924C13.7512 5.37667 13.7508 5.76451 13.75 6.15194C13.7496 6.28273 13.7368 6.29511 13.6036 6.29469C13.448 6.2943 13.2923 6.29352 13.1367 6.29273C12.8082 6.29108 12.4797 6.28943 12.1511 6.29139C11.6159 6.29469 11.0807 6.29961 10.5456 6.30453C10.1442 6.30822 9.74281 6.31191 9.34144 6.31491C8.99461 6.31739 8.64778 6.31945 8.30136 6.31326C8.14135 6.31037 8.01269 6.3603 7.89226 6.46303C7.36144 6.91546 6.82928 7.36611 6.2971 7.81677C6.10614 7.97847 5.91518 8.14018 5.72428 8.30197C5.66035 8.35606 5.59631 8.41 5.53227 8.46393C5.35547 8.61283 5.17872 8.76169 5.00465 8.91344C4.73741 9.14656 4.78607 9.53605 5.10568 9.6755C5.20639 9.71947 5.315 9.74468 5.4235 9.76987C5.46162 9.77872 5.49972 9.78756 5.53747 9.79722C5.97032 9.90853 6.40318 10.0187 6.83628 10.1289C6.91691 10.1494 6.99754 10.1699 7.07819 10.1904C7.2207 10.2267 7.36317 10.2632 7.50562 10.2996C7.95225 10.4139 8.39881 10.5281 8.84656 10.6385C8.93275 10.66 8.95584 10.6992 8.95584 10.7796C8.95453 11.1416 8.95439 11.5037 8.95424 11.8656C8.95416 12.0725 8.95408 12.2793 8.95378 12.4861C8.95378 12.6206 8.95213 12.6218 8.81686 12.6218C8.71257 12.6219 8.60829 12.6221 8.504 12.6222C8.0866 12.6227 7.6692 12.6233 7.25181 12.6206C7.10912 12.6198 6.99035 12.6672 6.88395 12.7572C6.61548 12.9853 6.34701 13.2131 6.07812 13.4409C5.76076 13.7099 5.44333 13.9789 5.12589 14.2478C4.69669 14.6115 4.26747 14.9751 3.83838 15.3392C3.78251 15.3867 3.72639 15.4339 3.67025 15.4811C3.49019 15.6327 3.31 15.7843 3.13772 15.9441C2.9311 16.1359 2.96121 16.473 3.19957 16.6224C3.28743 16.6773 3.39384 16.7051 3.49764 16.7323C3.51468 16.7368 3.53166 16.7412 3.54846 16.7457C3.82456 16.8197 4.10173 16.8902 4.37889 16.9607C4.44328 16.977 4.50767 16.9934 4.57204 17.0098C4.70021 17.0423 4.82852 17.0744 4.95683 17.1065C5.14928 17.1547 5.34174 17.2029 5.53375 17.2524C5.76227 17.3109 5.99066 17.3704 6.21907 17.4299C6.39214 17.475 6.56522 17.5201 6.73837 17.5647C6.81768 17.5852 6.89699 17.6057 6.97631 17.6263C7.32553 17.7167 7.67495 17.8072 8.02547 17.8919C8.12156 17.915 8.1463 17.9542 8.14589 18.0495C8.14366 19.3802 8.14444 20.7108 8.14522 22.0414C8.14531 22.1891 8.1454 22.3368 8.14548 22.4845C8.14589 22.7828 8.33271 22.973 8.62799 22.973C11.0051 22.9739 13.3821 22.9739 15.7596 22.973C16.0508 22.973 16.2409 22.7841 16.2413 22.4936C16.2425 21.0244 16.2429 19.5555 16.2429 18.0867V18.0829C16.2429 17.9072 16.2429 17.9069 16.4174 17.8643C16.4204 17.8635 16.4234 17.863 16.4264 17.8625C16.4295 17.8619 16.4326 17.8614 16.4355 17.8606C16.5252 17.8361 16.6149 17.8117 16.7047 17.7873C16.8646 17.7438 17.0246 17.7002 17.1844 17.6563C17.3151 17.6203 17.4456 17.5839 17.5761 17.5475C17.7457 17.5002 17.9153 17.4529 18.0851 17.4063C18.252 17.3603 18.4191 17.3148 18.5862 17.2694C18.723 17.2322 18.8599 17.195 18.9965 17.1575C19.312 17.0709 19.6275 16.9834 19.9426 16.8951C20.0077 16.8768 20.0729 16.8589 20.1381 16.841C20.3225 16.7905 20.5068 16.74 20.6878 16.6793C21.0074 16.5725 21.1064 16.1949 20.868 15.954C20.5327 15.6152 20.1818 15.2922 19.8304 14.9695C19.7092 14.8585 19.5566 14.8416 19.4007 14.9047C19.2246 14.9757 19.1281 15.109 19.1116 15.2955C19.0963 15.47 19.1891 15.5975 19.3116 15.7089C19.3286 15.7243 19.3417 15.744 19.3584 15.7692C19.3672 15.7826 19.3771 15.7975 19.3891 15.8141H19.2753C18.5227 15.8133 17.7696 15.8125 17.017 15.8125C14.9084 15.812 12.7998 15.812 10.6912 15.8129C10.6728 15.8129 10.6543 15.8128 10.6358 15.8127C10.5386 15.8123 10.4412 15.8118 10.3452 15.8236C10.0491 15.8599 9.87838 16.2246 10.033 16.4792C10.1357 16.648 10.2908 16.7131 10.4825 16.7131C11.3175 16.7129 12.1527 16.713 12.9878 16.7131C13.4053 16.7131 13.8229 16.7131 14.2403 16.7131C15.1369 16.7127 16.0334 16.7127 16.93 16.7136C16.9573 16.7136 16.9847 16.7191 17.0121 16.7246C17.0257 16.7273 17.0393 16.7301 17.0529 16.7321C17.0521 16.7416 17.0508 16.7515 17.05 16.761C17.0408 16.7638 17.0317 16.7667 17.0226 16.7696C17.0086 16.7742 16.9946 16.7787 16.9803 16.7825C16.8999 16.8046 16.8194 16.8267 16.739 16.8489C16.567 16.8963 16.395 16.9437 16.2227 16.9904C15.9555 17.0626 15.6916 17.1332 15.407 17.1274C14.9225 17.1178 14.4378 17.1195 13.9532 17.1212C13.7506 17.1219 13.548 17.1226 13.3454 17.1224H13.3348C11.8013 17.1224 10.2683 17.1224 8.7348 17.1216C8.68819 17.1216 8.63994 17.1208 8.59541 17.1097C8.22314 17.0168 7.8517 16.9216 7.48026 16.8263L7.47987 16.8262C7.4205 16.8112 7.36133 16.7952 7.30208 16.7792C7.27655 16.7723 7.251 16.7654 7.22542 16.7585C7.22583 16.749 7.22624 16.7391 7.22624 16.7297C7.23846 16.7279 7.25069 16.7257 7.26291 16.7235C7.29069 16.7185 7.31847 16.7136 7.34625 16.7136C7.52272 16.7127 7.69898 16.7128 7.87517 16.713C7.94562 16.7131 8.01607 16.7131 8.0865 16.7131C8.17625 16.7131 8.26597 16.7133 8.35567 16.7135C8.60972 16.714 8.86361 16.7144 9.1175 16.7111C9.30803 16.7086 9.45691 16.6187 9.53609 16.4458C9.60702 16.2911 9.5897 16.1334 9.4866 15.9932C9.38268 15.8521 9.2371 15.8108 9.0676 15.8112C7.97911 15.8131 6.89086 15.8133 5.80247 15.8135ZM16.5221 3.31906C16.5124 3.30718 16.504 3.29617 16.4964 3.28605C16.4816 3.26665 16.4694 3.25052 16.4545 3.23777C15.9505 2.80125 15.4462 2.36472 14.9393 1.93108C14.903 1.90014 14.8453 1.87868 14.7975 1.87827C13.8391 1.87716 12.8807 1.87689 11.9223 1.87661H11.9221H11.922H11.922H11.9219C11.1004 1.87638 10.2789 1.87615 9.45732 1.87538C9.38103 1.87538 9.32824 1.90509 9.27669 1.95419C9.05482 2.16647 8.83263 2.37834 8.61045 2.59021C8.38827 2.80208 8.1661 3.01394 7.94423 3.22622C7.92764 3.242 7.91356 3.26083 7.89667 3.28343C7.88795 3.29509 7.87848 3.30776 7.86752 3.32153L7.9509 3.34488L7.95095 3.3449C8.03155 3.36744 8.10533 3.38808 8.17888 3.40941L8.60536 3.53238L8.60542 3.5324C9.01733 3.65102 9.42934 3.76967 9.84044 3.89174C10.019 3.94455 10.1972 3.96766 10.3836 3.96724C11.2097 3.96415 12.0358 3.96393 12.8619 3.96371C13.2474 3.96361 13.6329 3.96351 14.0185 3.96312L14.0273 3.96312C14.0777 3.96317 14.1293 3.96321 14.1768 3.95074C14.4073 3.89149 14.6376 3.83003 14.8676 3.76864L14.8676 3.76863L14.8677 3.76861L14.8678 3.76858L15.0713 3.71432L15.3061 3.65173L15.3061 3.65173L15.3061 3.65172L15.3061 3.65172C15.5619 3.58356 15.8176 3.51542 16.073 3.44655C16.1768 3.41848 16.2799 3.38875 16.3873 3.3578L16.3873 3.35779L16.5221 3.31906ZM9.97694 10.7664H12.1684H14.3508C14.4828 10.7664 14.4874 10.7705 14.4874 10.903C14.4874 11.434 14.4874 11.965 14.4869 12.496C14.4869 12.6169 14.4808 12.6223 14.3595 12.6223H9.97612C9.8623 12.6223 9.85364 12.6144 9.85322 12.5001C9.85281 11.9629 9.85281 11.4253 9.85322 10.8881C9.85322 10.7751 9.86312 10.7664 9.97694 10.7664ZM11.2942 21.3882V21.3882V21.3881V21.3881V21.388C11.294 21.3166 11.2937 21.2451 11.2937 21.1737C11.2936 21.0902 11.2938 21.0067 11.2939 20.9232C11.2943 20.7443 11.2946 20.5654 11.2921 20.3865C11.2908 20.3044 11.3127 20.2705 11.4022 20.2714C11.9297 20.2747 12.4575 20.2747 12.985 20.2714C13.0741 20.2705 13.0955 20.304 13.0951 20.3865C13.0922 20.9113 13.0918 21.4361 13.0955 21.961C13.0959 22.0538 13.0625 22.0765 12.9755 22.0757C12.4542 22.0728 11.933 22.0719 11.4117 22.0765C11.3135 22.0773 11.29 22.0431 11.2917 21.9515C11.2956 21.7638 11.2949 21.576 11.2942 21.3883V21.3882ZM11.6888 18.0227L12.1928 18.0227H15.2004C15.2726 18.0227 15.3081 18.0227 15.3257 18.0405C15.3427 18.0578 15.3427 18.0918 15.3427 18.1589V21.9279C15.3427 22.0724 15.3423 22.0724 15.1996 22.0728L14.1409 22.074C13.9949 22.074 13.9941 22.0736 13.9941 21.9329C13.9939 21.7452 13.9931 21.5575 13.9924 21.3698V21.3697V21.3697C13.9904 20.873 13.9884 20.3763 13.9962 19.8798C14.0007 19.579 13.769 19.3649 13.4803 19.3686C12.7671 19.3776 12.054 19.375 11.3409 19.3725L10.9131 19.3711C10.7403 19.3703 10.5931 19.4144 10.4854 19.5563C10.419 19.6442 10.3935 19.7437 10.3939 19.8542C10.3948 20.3767 10.3943 20.8992 10.3939 21.4217V21.4223L10.3935 21.9449V21.9461C10.3935 22.0098 10.3935 22.0418 10.3775 22.0579C10.3614 22.074 10.3291 22.074 10.2644 22.074C10.1513 22.074 10.0383 22.0737 9.92515 22.0735H9.92511C9.66648 22.0729 9.40777 22.0722 9.14926 22.0748C9.06554 22.0757 9.04286 22.0472 9.04286 21.9667C9.04492 20.6885 9.04533 19.4103 9.04245 18.1321C9.04203 18.0343 9.0841 18.0211 9.16617 18.0215C10.0069 18.0229 10.8479 18.0228 11.6888 18.0227ZM6.6926 8.66547C6.71512 8.66834 6.73409 8.67133 6.7508 8.67395C6.77968 8.6785 6.80179 8.68197 6.82374 8.68197C8.30136 8.68239 9.77858 8.68239 11.2562 8.68239L12.1433 8.68257C12.7347 8.68275 13.326 8.68294 13.9174 8.68239C14.0251 8.68197 14.1216 8.70879 14.2049 8.77522C14.3599 8.89859 14.4251 9.09374 14.369 9.25837C14.3001 9.4593 14.1298 9.58308 13.9145 9.58349C12.8431 9.58391 11.7717 9.58391 10.7003 9.58349C10.4099 9.58349 10.1194 9.58327 9.82893 9.58304H9.8289C9.44162 9.58274 9.05433 9.58243 8.66716 9.58267C8.62742 9.58267 8.58768 9.58704 8.54806 9.5914L8.54803 9.5914C8.52928 9.59346 8.51057 9.59552 8.49189 9.59711C8.49189 9.60495 8.49231 9.6132 8.49272 9.62104C8.56331 9.63894 8.63384 9.65697 8.70436 9.675L8.70526 9.67523C8.87831 9.71948 9.05131 9.76372 9.22514 9.80588C9.24374 9.81046 9.26242 9.8153 9.28117 9.82015L9.28119 9.82015C9.3655 9.84198 9.45107 9.86413 9.53609 9.86447C11.2818 9.86777 13.0279 9.86695 14.774 9.86571C14.8325 9.86571 14.8919 9.85498 14.9488 9.84095C15.0434 9.8179 15.1371 9.79122 15.2307 9.76458L15.2308 9.76455L15.2915 9.7473C15.4433 9.70438 15.5951 9.66065 15.7468 9.61691C15.7039 9.59298 15.6623 9.58514 15.6202 9.58349C15.5887 9.58223 15.5571 9.58239 15.5256 9.58255H15.5256C15.4852 9.58276 15.445 9.58297 15.4049 9.58019C15.2095 9.56658 15.028 9.39659 15.0033 9.20803C14.9645 8.91344 15.16 8.68445 15.4573 8.68362C15.8228 8.68239 16.1882 8.68249 16.5537 8.68258C16.7973 8.68265 17.041 8.68272 17.2847 8.68239C17.3093 8.68239 17.3339 8.67925 17.3636 8.67548L17.3637 8.67548C17.3797 8.67344 17.3972 8.67121 17.417 8.66918C17.4041 8.65465 17.3933 8.64183 17.3835 8.63031L17.3835 8.63025L17.3835 8.63024C17.3661 8.60973 17.3522 8.59335 17.3366 8.57882C17.1927 8.44266 17.0487 8.30662 16.9046 8.17059L16.9044 8.17041C16.5929 7.87616 16.2813 7.58195 15.9712 7.28657C15.9176 7.23541 15.8627 7.21189 15.7881 7.21272C15.4836 7.21547 15.1792 7.21536 14.8747 7.21524H14.8746L14.6919 7.2152C12.6365 7.2152 10.5815 7.2152 8.52612 7.21272C8.43581 7.21272 8.36611 7.2383 8.29807 7.29689C8.04288 7.51553 7.78646 7.73277 7.53007 7.94998L7.52959 7.95038C7.39376 8.06546 7.25794 8.18052 7.12232 8.29578C7.02713 8.37667 6.93254 8.45836 6.83093 8.54611L6.83086 8.54617L6.6926 8.66547Z" fill="#0C1E3C"/>
</svg>
