<svg width="24" height="24" viewBox="0 0 24 24" fill="none" xmlns="http://www.w3.org/2000/svg">
<path fill-rule="evenodd" clip-rule="evenodd" d="M6.15493 21.0954L6.15492 21.0954C6.13074 21.0907 6.11012 21.0868 6.08949 21.0868C4.84227 21.0951 3.76444 20.2215 3.47214 18.9569C3.28866 18.1647 3.08665 17.3773 2.88461 16.5898L2.8846 16.5897L2.88459 16.5897C2.78124 16.1868 2.67788 15.784 2.577 15.3804C2.55624 15.2982 2.5197 15.2775 2.43915 15.2725C2.39185 15.2699 2.34412 15.2682 2.29628 15.2665L2.29614 15.2665C2.13158 15.2606 1.96576 15.2548 1.81139 15.211C1.28327 15.0599 0.958593 14.5575 1.00426 14.0095C1.05492 13.395 1.44353 12.9881 2.05386 12.9034C2.09372 12.8976 2.15184 12.8569 2.16181 12.822C2.45659 11.7475 3.66894 11.1239 4.78912 11.6188C4.87299 11.6554 4.91949 11.6504 4.97346 11.5673C5.58877 10.6274 6.88831 10.4314 7.74858 11.1629C7.95452 11.3382 8.15713 11.4428 8.427 11.4992C9.12867 11.6454 9.60032 12.083 9.82452 12.7706C9.85691 12.8719 9.90175 12.9026 10.008 12.9026C13.4948 12.8993 16.9824 12.8993 20.4691 12.9026C20.5895 12.9026 20.6261 12.8727 20.6261 12.7498C20.6246 11.6654 20.6249 10.5809 20.6252 9.4963C20.6256 8.1159 20.626 6.73547 20.6227 5.35529C20.6194 4.16536 19.8347 3.20379 18.6614 2.97045C17.8626 2.81185 17.1509 2.98374 16.622 3.65551C16.3405 4.0134 16.206 4.43274 16.1279 4.8745C16.1139 4.95722 16.1599 4.9732 16.2219 4.99466L16.2226 4.99491C16.8254 5.19669 17.2456 5.59278 17.4432 6.19896C17.508 6.39658 17.5329 6.61248 17.5429 6.82174C17.5562 7.09742 17.3693 7.27595 17.0862 7.27845C16.7762 7.28187 16.4658 7.28098 16.1556 7.28009H16.1556H16.1556H16.1555H16.1555H16.1555H16.1555H16.1555H16.1555H16.1555H16.1554H16.1553H16.1552H16.1551H16.155H16.1549H16.1549H16.1548H16.1547C16.014 7.27968 15.8733 7.27928 15.7327 7.27928C15.4848 7.27928 15.2371 7.27948 14.9895 7.27969C14.7418 7.2799 14.4941 7.28011 14.2463 7.28011C13.8768 7.28094 13.7115 7.11237 13.7198 6.74285C13.7389 5.93074 14.2895 5.20998 15.0725 4.9891C15.1846 4.95671 15.1987 4.89443 15.2103 4.8006C15.3125 4.00925 15.6023 3.30509 16.1968 2.75206C16.7972 2.19405 17.5205 1.9632 18.3284 2.00472C19.7641 2.0778 20.9159 2.95135 21.38 4.30736C21.4971 4.64947 21.5453 5.0057 21.5453 5.36775V12.7025V12.8851C21.6066 12.8901 21.666 12.893 21.724 12.8959C21.852 12.9024 21.9726 12.9084 22.0892 12.9341C22.6846 13.0637 23.0582 13.5984 22.9926 14.2038C22.9254 14.8365 22.4595 15.2617 21.821 15.2758C21.7896 15.2765 21.7562 15.2749 21.7226 15.2733C21.6286 15.2688 21.5328 15.2642 21.4747 15.3082C21.4216 15.348 21.4058 15.4399 21.3903 15.5298C21.3844 15.5638 21.3786 15.5974 21.3709 15.6279L21.203 16.2938L21.2028 16.2945L21.2027 16.2949L21.2026 16.2953L21.2025 16.2957L21.2024 16.2962L21.2023 16.2966L21.2022 16.297L21.2021 16.2974L21.202 16.2978C21.0007 17.0956 20.7995 17.8933 20.6003 18.692C20.4932 19.1221 20.3853 19.5514 20.1229 19.9226C19.6678 20.5661 19.0492 20.9431 18.2728 21.0669C18.258 21.0692 18.2431 21.072 18.2249 21.0755C18.2104 21.0783 18.1937 21.0814 18.1731 21.0851C18.2073 21.1537 18.2419 21.2213 18.2762 21.2883L18.2762 21.2883C18.3636 21.4589 18.4492 21.6261 18.5219 21.7984C18.5676 21.9072 18.5892 22.0392 18.5767 22.1555C18.551 22.3955 18.3035 22.5732 18.0851 22.5316C17.9265 22.5017 17.8252 22.3988 17.7563 22.2593C17.7179 22.1828 17.6793 22.1064 17.6407 22.0299C17.5137 21.7787 17.3866 21.5273 17.2689 21.272C17.2057 21.1358 17.131 21.0826 16.9724 21.0826C13.773 21.0884 10.5735 21.0876 7.37408 21.0843C7.25202 21.0843 7.18725 21.12 7.13493 21.2296C6.96471 21.5858 6.78535 21.9379 6.60599 22.2892C6.51381 22.4702 6.32532 22.5673 6.1144 22.5341C5.93504 22.5059 5.79803 22.3996 5.76481 22.2186C5.74655 22.1164 5.7673 21.9944 5.80882 21.8981C5.88095 21.7303 5.96427 21.5672 6.04766 21.4039L6.04766 21.4039L6.04767 21.4039L6.04768 21.4039L6.04768 21.4038L6.04769 21.4038L6.0477 21.4038L6.04771 21.4038L6.04771 21.4038L6.04773 21.4037L6.04776 21.4037L6.04778 21.4036L6.04781 21.4036L6.04784 21.4035L6.04786 21.4035L6.04789 21.4034L6.04792 21.4034L6.04795 21.4033L6.04797 21.4033C6.08255 21.3355 6.11714 21.2678 6.15094 21.1997C6.15887 21.1834 6.16532 21.1661 6.17276 21.1462C6.17779 21.1328 6.18327 21.1181 6.18997 21.1017C6.17736 21.0997 6.16579 21.0975 6.15493 21.0954ZM16.5115 6.35091C16.4385 6.07191 16.0457 5.82944 15.6787 5.82778C15.2934 5.82695 14.8641 6.07772 14.7935 6.35091H16.5115ZM4.87853 12.7975L4.87844 12.7974C4.803 12.7293 4.72948 12.663 4.65211 12.602C4.18461 12.235 3.55186 12.3072 3.21722 12.7631C3.19976 12.7865 3.1866 12.8132 3.17162 12.8436C3.1638 12.8595 3.15549 12.8763 3.14581 12.8943H4.98675C4.94986 12.8619 4.91398 12.8295 4.87853 12.7975ZM8.86908 12.8375L8.86909 12.8375L8.86916 12.8377C8.87825 12.8548 8.88807 12.8733 8.89949 12.8935H5.29731C5.50585 12.7967 5.55917 12.6114 5.61489 12.4177L5.62282 12.3902C5.80633 11.755 6.51215 11.4511 7.07515 11.7567C7.22628 11.8389 7.34668 11.9526 7.42723 12.1054C7.53435 12.3089 7.70374 12.3886 7.92961 12.372C8.2875 12.3454 8.58976 12.4583 8.81479 12.7473C8.83486 12.773 8.85045 12.8024 8.86908 12.8375ZM11.9993 13.8177C8.76746 13.8177 5.53646 13.8177 2.30546 13.8185L2.28126 13.8184H2.28124C2.23288 13.8182 2.1847 13.818 2.13773 13.8251C1.99906 13.8484 1.92598 13.9414 1.92681 14.0867C1.92681 14.2362 1.99407 14.3184 2.13939 14.3425C2.18589 14.3499 2.23488 14.3524 2.28221 14.3524C8.76081 14.3533 15.2394 14.3533 21.718 14.3524C21.762 14.3524 21.806 14.3516 21.8492 14.3458C22.0037 14.3234 22.0776 14.232 22.0734 14.0734C22.0693 13.9306 21.9829 13.8368 21.8368 13.821C21.7956 13.817 21.7539 13.8173 21.7121 13.8175H21.712L21.6806 13.8177H11.9993ZM3.52644 15.3128C3.52666 15.3065 3.52695 15.2979 3.52695 15.2858H20.4832L20.4536 15.4177C20.435 15.5014 20.4169 15.5825 20.3977 15.6636C20.315 16.0156 20.232 16.3675 20.149 16.7194L20.1488 16.7204L20.1486 16.7211L20.1484 16.7219L20.1482 16.7226L20.148 16.7234L20.1477 16.7248C20.0077 17.3183 19.8677 17.9118 19.7293 18.506C19.6487 18.8531 19.5648 19.1977 19.3323 19.4833C18.9827 19.9126 18.5385 20.1617 17.9788 20.1617C14.0254 20.1651 10.0711 20.1651 6.11689 20.1626C5.27987 20.1626 4.62305 19.6195 4.39967 18.7509C4.18435 17.9116 3.97037 17.0714 3.75642 16.2313L3.52695 15.3306C3.52598 15.3263 3.52614 15.3216 3.52644 15.3128ZM15.1701 9.80962L15.1701 9.80969L15.1701 9.80975C15.1674 9.84808 15.1646 9.88639 15.1604 9.92427C15.1624 9.92427 15.1645 9.92448 15.1666 9.92469C15.1687 9.9249 15.1707 9.9251 15.1728 9.9251C15.1728 9.94922 15.1726 9.97324 15.1724 9.99722C15.1721 10.0451 15.1717 10.0929 15.1728 10.141C15.1795 10.3959 15.358 10.577 15.6096 10.5869C15.8562 10.596 16.0705 10.4217 16.0879 10.1792C16.1003 10.0048 16.0987 9.82795 16.0854 9.65357C16.0696 9.43933 15.9027 9.28738 15.6827 9.26496C15.4593 9.24254 15.2575 9.36294 15.2019 9.57053C15.1816 9.64771 15.1758 9.7287 15.1701 9.80962ZM16.6285 9.85319V9.8531V9.85307C16.6278 9.80049 16.6271 9.74776 16.63 9.69542C16.6416 9.44133 16.8268 9.26529 17.0792 9.26446C17.3433 9.26446 17.5334 9.43385 17.5459 9.69127C17.5533 9.84655 17.5525 10.0027 17.545 10.1579C17.5334 10.4029 17.3242 10.5889 17.0742 10.5864C16.8218 10.5831 16.6383 10.4037 16.6291 10.1505C16.6274 10.0959 16.6277 10.0419 16.628 9.98787V9.98786V9.98784V9.98782V9.98781V9.98779V9.98777V9.98769L16.6283 9.92295H16.6291C16.6291 9.89985 16.6288 9.87667 16.6285 9.85346V9.85337V9.85328V9.85319ZM14.6441 10.0277V10.0277V10.0277C14.6455 10.0019 14.6468 9.97816 14.6487 9.95757C14.6467 9.91504 14.6458 9.87663 14.6449 9.84103V9.84099V9.84097C14.6433 9.77302 14.6419 9.71529 14.6337 9.65864C14.5997 9.40703 14.4153 9.2559 14.1621 9.26338C13.9171 9.27085 13.7344 9.4444 13.7212 9.69434C13.7128 9.85294 13.7128 10.0132 13.722 10.1726C13.7353 10.4101 13.9063 10.5696 14.1521 10.587C14.3688 10.6028 14.5756 10.4558 14.6204 10.2424C14.6364 10.1679 14.6406 10.0914 14.6441 10.0277ZM16.1029 8.36939C16.0989 8.39694 16.0962 8.4249 16.0935 8.45286C16.0878 8.51256 16.082 8.57222 16.0639 8.62764C16.0016 8.81614 15.8256 8.92242 15.6138 8.91412C15.4062 8.90582 15.2319 8.79455 15.1995 8.6019C15.1721 8.44496 15.1712 8.2739 15.2036 8.11862C15.2485 7.90604 15.4561 7.79145 15.6827 7.81387C15.9111 7.83546 16.0664 7.98742 16.088 8.21245C16.0914 8.24788 16.0905 8.28369 16.0896 8.31936L16.0896 8.31946C16.0892 8.3356 16.0888 8.3517 16.0888 8.36773L16.1029 8.36939ZM15.1741 11.3484L15.1741 11.3484L15.1741 11.3484L15.1741 11.3485L15.1741 11.3485C15.1681 11.383 15.162 11.4175 15.1545 11.4515C15.1574 11.4523 15.1605 11.453 15.1636 11.4536L15.1674 11.4543L15.1727 11.4557L15.1725 11.4934C15.1721 11.5248 15.1718 11.556 15.1736 11.5869C15.1877 11.8169 15.3612 11.9871 15.5921 11.9996C15.8462 12.0128 16.0488 11.8791 16.0787 11.6566C16.0961 11.5246 16.0953 11.3859 16.0787 11.2522C16.0554 11.0621 15.9068 10.935 15.705 10.9068C15.5074 10.8785 15.2989 10.9666 15.2292 11.1301C15.2002 11.1984 15.1872 11.2733 15.1741 11.3484ZM16.6178 8.35196C16.622 8.32448 16.6249 8.29668 16.6279 8.26891C16.6343 8.20938 16.6406 8.15003 16.6593 8.09454C16.7207 7.91352 16.8984 7.80557 17.101 7.81221C17.3136 7.81885 17.488 7.93345 17.5245 8.13108C17.5511 8.28054 17.5528 8.4433 17.5245 8.59277C17.4813 8.81614 17.2779 8.93239 17.0321 8.9108C16.8096 8.89087 16.6501 8.7331 16.6302 8.5089C16.6274 8.47456 16.6284 8.43985 16.6293 8.40527V8.40525V8.40524V8.40522C16.6298 8.38797 16.6302 8.37075 16.6302 8.35362L16.6178 8.35196ZM17.5457 11.5768C17.554 11.5406 17.5623 11.5045 17.5724 11.4692L17.5467 11.4617L17.547 11.4247V11.4246V11.4245C17.5473 11.3934 17.5476 11.362 17.5459 11.3305C17.5309 11.0714 17.3391 10.8946 17.0817 10.9004C16.816 10.9062 16.6374 11.0789 16.6291 11.3413C16.6258 11.4285 16.6241 11.5174 16.6316 11.6037C16.6474 11.7905 16.7744 11.9417 16.9438 11.9857C17.1548 12.0405 17.3806 11.9741 17.472 11.8047C17.5091 11.7356 17.5273 11.6563 17.5457 11.5768L17.5457 11.5768ZM14.6575 8.3713C14.6512 8.40175 14.6464 8.43286 14.6416 8.46397C14.6312 8.5313 14.6208 8.59868 14.5952 8.65944C14.5113 8.86123 14.3112 8.94675 14.0663 8.90275C13.8744 8.86787 13.7399 8.71342 13.7225 8.49752C13.715 8.40618 13.715 8.31401 13.7225 8.22267C13.7441 7.97854 13.9218 7.81744 14.1692 7.81246C14.4233 7.80748 14.6052 7.96276 14.6359 8.2127C14.6396 8.24542 14.6409 8.27846 14.6423 8.31142C14.643 8.33033 14.6438 8.34921 14.645 8.36798C14.6466 8.3683 14.6482 8.36873 14.6498 8.3692C14.6503 8.36934 14.6508 8.36949 14.6513 8.36964C14.6533 8.37027 14.6554 8.37089 14.6575 8.3713ZM14.6413 11.5477C14.646 11.5177 14.6507 11.4876 14.6565 11.4579L14.6407 11.4554C14.6407 11.444 14.6408 11.4326 14.641 11.4211C14.6413 11.3924 14.6417 11.3637 14.6399 11.3358C14.6233 11.0759 14.453 10.9115 14.1915 10.9007C13.944 10.8907 13.7555 11.0477 13.7248 11.301C13.7123 11.4031 13.7132 11.5086 13.724 11.6107C13.7472 11.8216 13.8934 11.9686 14.0902 11.9943C14.3285 12.0259 14.5228 11.937 14.5959 11.7477C14.6201 11.6843 14.6307 11.616 14.6413 11.5477Z" fill="#0C1E3C"/>
</svg>
