<svg width="24" height="24" viewBox="0 0 24 24" fill="none" xmlns="http://www.w3.org/2000/svg">
<path fill-rule="evenodd" clip-rule="evenodd" d="M21.4743 13.0234C21.5633 12.7 21.6494 12.3871 21.7403 12.0933C21.7709 12.077 21.8198 12.054 21.8809 12.0251C22.2178 11.8661 22.9261 11.5317 22.9964 11.1911C23.0695 10.8366 22.724 10.4556 22.4221 10.1227C22.2704 9.95541 22.1297 9.80027 22.0586 9.66671C22.1523 9.51629 22.2506 9.36382 22.3533 9.20975C22.3689 9.18643 22.3892 9.15789 22.4123 9.12542C22.5495 8.93239 22.7858 8.60011 22.7187 8.39523C22.6559 8.20339 22.3213 8.12558 22.1353 8.08233C22.0921 8.0723 22.057 8.06412 22.0351 8.05682C21.548 7.89441 21.3861 7.78126 21.3152 7.72747C21.0192 7.50348 20.8778 7.235 20.847 7.17653L20.8458 7.17417C19.033 3.724 14.3976 2.84442 11.6616 5.48855C11.1113 6.02036 10.71 6.70652 10.2978 7.41125C10.1057 7.73979 9.91119 8.07237 9.69812 8.39523C8.23821 7.35193 7.32472 5.83793 7.0958 3.88582C7.05809 3.5651 6.86498 3.04952 6.66749 3.01049C6.37206 2.95216 5.8977 3.14366 5.69202 3.38983C3.60674 5.88412 2.78038 8.74957 3.35253 11.9698C3.63189 13.542 4.37756 14.9013 5.44264 16.0871C5.77476 16.4571 6.14708 16.7837 6.61413 16.3454C7.07139 15.9163 6.79905 15.5113 6.45421 15.1472C6.35644 15.0439 6.26722 14.9324 6.17815 14.8211C6.16055 14.7991 6.14296 14.7771 6.1253 14.7551C3.7921 11.8572 4.28444 7.75875 5.96421 5.44982C5.99687 5.53077 6.02815 5.60869 6.0586 5.68453C6.12123 5.84054 6.18034 5.98777 6.24064 6.13453C7.18015 8.42563 8.85378 9.89972 11.213 10.6184C11.677 10.7597 12.0601 10.6944 12.2171 10.2009C12.364 9.73936 12.0948 9.47024 11.6726 9.32099C11.5697 9.28462 11.4715 9.23493 11.372 9.18462C11.3264 9.16153 11.2805 9.13831 11.2338 9.11619C11.4049 8.05155 11.816 7.15912 12.5811 6.4592C13.8757 5.27484 15.3798 5.07091 17.006 5.59527C18.746 6.15631 19.7442 7.40543 20.1157 9.15347C21.1419 13.9807 18.1022 18.7088 13.2464 19.8765C8.51698 21.0136 3.64943 18.0528 2.41799 13.2882C2.41777 13.2874 2.41742 13.2859 2.41692 13.284C2.40333 13.2298 2.28678 12.7652 2.09606 12.5014C1.91721 12.254 1.66786 12.2168 1.47308 12.2489C1.30008 12.2773 1.07433 12.4945 1.01051 12.7741C0.952081 13.03 1.03219 13.3398 1.05014 13.4092C1.05152 13.4146 1.05253 13.4185 1.05309 13.4208C2.10238 17.9035 5.73266 20.9788 10.5697 21.456C14.6728 21.8606 18.9929 19.2834 20.7241 15.3115C21.0511 14.5616 21.2703 13.7648 21.4743 13.0234ZM18.5828 9.35171C18.583 8.68892 18.0905 8.20316 17.4258 8.21047C16.7646 8.21778 16.2895 8.71757 16.3091 9.38503C16.3277 10.0129 16.8076 10.4973 17.4227 10.5092C18.0588 10.5214 18.5827 9.9987 18.5828 9.35171Z" fill="#0C1E3C"/>
</svg>
