<svg width="24" height="24" viewBox="0 0 24 24" fill="none" xmlns="http://www.w3.org/2000/svg">
<path fill-rule="evenodd" clip-rule="evenodd" d="M7.99769 2.71426C8.00752 2.1701 8.45833 1.74017 9.00987 1.74631C9.56754 1.75245 9.98396 2.18484 9.97659 2.74866C9.96799 3.30019 9.51964 3.74118 8.9767 3.72889C8.44359 3.71661 7.98664 3.24369 7.99769 2.71426ZM7.27173 2.73392C7.27173 3.70678 8.03086 4.45732 9.00864 4.4524C9.97291 4.44749 10.7333 3.67607 10.7259 2.70812C10.7185 1.75491 9.93237 0.990863 8.96687 0.999462C8.02349 1.00806 7.2705 1.77947 7.27173 2.73392ZM16.8094 20.95C16.4433 21.0126 16.2726 21.1723 16.1854 21.5077C16.0245 22.128 15.6719 22.6292 15.0491 22.8834C14.5566 23.0849 14.0873 23.0112 13.6599 22.7127C13.5088 22.6071 13.4093 22.6144 13.2582 22.7053C12.6526 23.0726 12.0335 23.0788 11.4033 22.7471C11.3174 22.7016 11.1601 22.6894 11.0876 22.7373C10.3138 23.2532 9.38513 22.9621 8.87167 22.155C8.74638 21.956 8.62969 21.7325 8.58792 21.5052C8.52405 21.1588 8.32259 21.0114 7.93934 20.9426L7.93962 21.1495C7.93989 21.2835 7.94016 21.4146 7.93934 21.5458C7.9332 22.3823 7.37184 22.9866 6.59674 22.9903C5.7983 22.994 5.21482 22.386 5.21237 21.5445C5.21155 21.255 5.21209 20.9655 5.21264 20.6761C5.21373 20.0972 5.21482 19.5185 5.205 18.9404C5.20131 18.7807 5.14358 18.5977 5.05145 18.4675C3.73464 16.6225 3.33296 14.6178 3.9754 12.4264C4.11799 11.9429 4.26185 11.4598 4.40574 10.9766L4.40582 10.9764L4.406 10.9758L4.40604 10.9757L4.40607 10.9755L4.40611 10.9754L4.40614 10.9753C4.50632 10.6389 4.60651 10.3025 4.70628 9.96593C4.72124 9.91396 4.73317 9.86099 4.74919 9.78985L4.7492 9.78981C4.75817 9.74998 4.76843 9.70446 4.78121 9.65024C4.70906 9.65024 4.64072 9.65068 4.57488 9.6511C4.45016 9.65191 4.33439 9.65265 4.21862 9.65024C3.53933 9.63181 3.01605 9.11959 3.00008 8.46118C2.98534 7.82366 3.48037 7.28563 4.14 7.2279C4.21942 7.22086 4.29966 7.22123 4.37938 7.2216H4.37939L4.43235 7.22176L6.24488 7.22094H6.24509C9.26544 7.2194 12.2852 7.21787 15.3059 7.22913C15.6412 7.23036 15.7665 7.12472 15.8574 6.81148C16.0832 6.04074 16.3204 5.27301 16.5576 4.50517C16.7487 3.88651 16.9398 3.26777 17.1251 2.64732C17.2246 2.31443 17.3978 2.16457 17.7528 2.17931C18.0736 2.19308 18.3954 2.19029 18.7176 2.1875C18.884 2.18606 19.0505 2.18461 19.217 2.18545C19.7341 2.18791 19.8656 2.36356 19.7145 2.85123C19.5106 3.5133 19.3064 4.17537 19.1022 4.83744L19.1003 4.84356C18.8967 5.50363 18.6931 6.1637 18.4898 6.82377C18.4677 6.89475 18.4507 6.96726 18.43 7.05559C18.4184 7.10483 18.4057 7.15898 18.3903 7.22053C18.8006 7.22053 19.1752 7.22053 19.5486 7.22176C19.5833 7.22176 19.6179 7.22156 19.6526 7.22137C19.7915 7.22058 19.9309 7.21979 20.0695 7.23159C20.6984 7.28318 21.1639 7.75241 21.2057 8.36783C21.245 8.96113 20.8139 9.51266 20.2132 9.63918C20.1679 9.64855 20.1227 9.65841 20.0708 9.6697L19.9737 9.69078C20.0527 9.9562 20.1308 10.22 20.2085 10.4826L20.2085 10.4827L20.2085 10.4827L20.2086 10.483C20.3942 11.1099 20.5776 11.7297 20.7672 12.3477C21.4416 14.5453 21.0559 16.5598 19.7526 18.4294C19.6432 18.5842 19.5757 18.8004 19.572 18.9895C19.5604 19.4939 19.5616 19.9982 19.5628 20.5026C19.5636 20.8556 19.5645 21.2087 19.5609 21.5617C19.5548 22.1526 19.303 22.612 18.7527 22.865C18.2294 23.1046 17.7343 23.0198 17.2946 22.6574C16.9543 22.3774 16.8217 21.9929 16.8106 21.563C16.8072 21.4289 16.8079 21.2948 16.8087 21.1506C16.809 21.086 16.8094 21.0195 16.8094 20.95ZM18.8988 2.9323C18.8067 2.9323 18.7179 2.93363 18.6315 2.93493C18.4429 2.93776 18.2659 2.94041 18.0906 2.92861C17.8768 2.91387 17.7921 2.99863 17.7319 3.20008C17.4747 4.05772 17.2112 4.91366 16.9477 5.76982C16.8236 6.17302 16.6995 6.57627 16.576 6.97977C16.5618 7.02486 16.555 7.07279 16.5467 7.13128L16.5467 7.13129L16.5467 7.13132L16.5467 7.13133L16.5467 7.13135L16.5467 7.13137L16.5467 7.1314V7.13141L16.5466 7.13174L16.5466 7.13196L16.5466 7.13202L16.5466 7.13204C16.5427 7.15938 16.5385 7.18902 16.533 7.22176C16.6198 7.22176 16.7039 7.22044 16.786 7.21915L16.786 7.21914C16.9663 7.21631 17.1368 7.21363 17.3056 7.22544C17.5317 7.24141 17.6275 7.14437 17.6901 6.93555C17.9318 6.13364 18.1782 5.3333 18.4245 4.53316L18.4245 4.53315L18.4245 4.53313L18.4245 4.53312L18.4245 4.5331L18.4246 4.53309L18.4246 4.53307L18.4246 4.53306C18.5563 4.10512 18.688 3.67724 18.819 3.24922C18.838 3.18795 18.8526 3.12612 18.8703 3.05132L18.8703 3.0513C18.8788 3.01513 18.888 2.97593 18.8988 2.9323ZM5.96469 20.201C5.96624 19.9862 5.96781 19.7686 5.96781 19.5472C6.08217 19.6325 6.19263 19.7147 6.30019 19.7948L6.30115 19.7955L6.30142 19.7957C6.58508 20.0068 6.8486 20.2028 7.11019 20.4021C7.15687 20.439 7.21215 20.5029 7.21215 20.5545C7.2116 20.6462 7.21209 20.7382 7.21259 20.8302C7.21431 21.1499 7.21603 21.4706 7.17407 21.7853C7.13108 22.1047 6.84364 22.2693 6.52058 22.2373C6.21349 22.2066 5.9887 22.031 5.97641 21.73C5.95728 21.2265 5.96093 20.7218 5.96469 20.201ZM17.5489 20.5274C17.5624 20.2854 17.8019 19.9513 18.8165 19.5533C18.8165 19.7615 18.8174 19.9662 18.8183 20.1683V20.1685V20.1687V20.1688V20.169V20.1692V20.1694V20.1696V20.1697V20.1699V20.1701C18.8205 20.6792 18.8227 21.172 18.8104 21.6649C18.803 22.0076 18.5254 22.2422 18.1913 22.2435C17.8523 22.2447 17.6005 22.015 17.5636 21.671C17.5599 21.6379 17.5599 21.6096 17.5599 21.5924C17.5599 21.5814 17.5611 21.574 17.5611 21.574C17.5615 21.5575 17.5597 21.4578 17.5572 21.3256C17.5519 21.0452 17.5439 20.6184 17.5489 20.5274ZM10.1602 18.1456L10.2855 18.169C10.3114 18.2148 10.3354 18.2622 10.3593 18.3096C10.4137 18.4172 10.468 18.5246 10.5447 18.6124C10.6491 18.7303 10.8039 18.8827 10.9304 18.8777C11.0582 18.8741 11.2252 18.7181 11.2965 18.5866C11.53 18.1475 11.7499 17.7009 11.9834 17.2267C12.0791 17.0324 12.1771 16.8335 12.2792 16.6286C12.3161 16.6863 12.348 16.7334 12.3758 16.7745L12.3758 16.7745L12.3758 16.7745C12.4219 16.8427 12.4567 16.894 12.4843 16.9492C12.5834 17.1457 12.6808 17.3431 12.7783 17.5404C12.9732 17.9352 13.1681 18.3299 13.3761 18.7181C13.4535 18.863 13.6156 19.0473 13.7471 19.0534C13.8785 19.0608 14.0492 18.8913 14.1524 18.7586C14.2454 18.6386 14.315 18.5006 14.3971 18.3382L14.3971 18.3382C14.4343 18.2645 14.4741 18.1858 14.5197 18.1014C14.6181 18.2979 14.7224 18.4888 14.8254 18.6772C15.2097 19.3805 15.5757 20.0501 15.5466 20.8542C15.5343 21.1994 15.3759 21.574 15.1843 21.87C14.8637 22.3651 14.2863 22.3688 13.8822 21.9376C13.5591 21.5937 13.4461 21.5875 13.1132 21.8946C12.6194 22.3528 12.0863 22.3712 11.5643 21.9487C11.2461 21.6907 11.1282 21.6932 10.8481 21.9671C10.4403 22.3651 9.93421 22.3405 9.58536 21.8885C9.22667 21.4229 9.07681 20.8726 9.26107 20.3248C9.43522 19.8032 9.65779 19.2973 9.88034 18.7914C9.97488 18.5766 10.0694 18.3617 10.1602 18.1456ZM12.1084 7.95141H4.49131C4.46292 7.95141 4.43428 7.95056 4.40557 7.94971H4.40557C4.325 7.94733 4.24401 7.94493 4.16703 7.96124C3.93364 8.00914 3.77272 8.14303 3.75552 8.39731C3.7371 8.66141 3.86362 8.83583 4.11912 8.89971C4.23213 8.92796 4.35497 8.92919 4.47289 8.92919C4.80946 8.93042 5.14573 8.93042 5.48199 8.93042C5.81826 8.93042 6.15452 8.93042 6.4911 8.93165C6.96648 8.93287 7.0586 9.03606 7.04878 9.50529C7.03863 10.0432 7.03195 10.5811 7.02528 11.1186L7.02528 11.1189L7.02527 11.1191L7.02527 11.1193L7.02527 11.1196L7.02527 11.1198L7.02526 11.12L7.02526 11.1202L7.02526 11.1204C7.02144 11.4281 7.01762 11.7357 7.01315 12.0431C7.00947 12.2986 7.12616 12.4829 7.37798 12.4951C7.61505 12.5087 7.74403 12.3391 7.76491 12.1008C7.78088 11.9276 7.79808 11.7557 7.81773 11.5825C7.88898 10.9585 8.47737 10.5482 9.08541 10.6993C9.47357 10.7963 9.79049 11.1317 9.82243 11.553C9.84905 11.8944 9.8573 12.2368 9.86556 12.5793V12.5793V12.5793C9.87064 12.79 9.87572 13.0007 9.88508 13.2113C9.90227 13.5982 10.1811 13.8832 10.5091 13.8709C10.8358 13.8586 11.0668 13.5847 11.0729 13.1978C11.0745 13.0978 11.0728 12.9978 11.0712 12.898V12.8979V12.8979V12.8979V12.8979V12.8979V12.8979V12.8978C11.069 12.7695 11.0668 12.6413 11.0717 12.5136C11.0913 11.9731 11.5151 11.5567 12.0519 11.5382C12.655 11.5174 13.0592 11.8367 13.2004 12.4607C13.2385 12.6278 13.3147 12.7899 13.4449 12.8243C13.5002 12.8391 13.5493 12.8268 13.5702 12.8207C13.8441 12.7445 13.9952 12.2581 14.0087 12.2138C14.0796 11.979 14.0679 11.6505 14.0476 11.0791V11.0791V11.0791V11.0791V11.079V11.079V11.079V11.079C14.0341 10.7 14.0168 10.2141 14.0173 9.57777C14.0185 9.00903 14.0898 8.93165 14.6438 8.93165C15.3209 8.93115 15.9979 8.93106 16.675 8.93096H16.6761C17.6913 8.93081 18.7066 8.93066 19.7218 8.92919L19.7745 8.92945C19.8768 8.93022 19.9804 8.931 20.0768 8.90585C20.325 8.84075 20.4687 8.6786 20.4503 8.40836C20.4318 8.14181 20.2672 8.00177 20.0167 7.95878C19.9482 7.94722 19.8772 7.94918 19.8059 7.95114C19.7787 7.95189 19.7514 7.95264 19.7243 7.95264C17.1853 7.95264 14.6475 7.95264 12.1084 7.95141ZM13.9396 17.6108C13.8988 17.6773 13.8561 17.747 13.8097 17.8213C13.7003 17.6266 13.5939 17.436 13.4893 17.2486C13.237 16.7963 12.9948 16.3624 12.7447 15.9333C12.445 15.4211 12.1735 15.4199 11.8738 15.9297C11.6459 16.3151 11.4262 16.7058 11.1986 17.1107L11.1985 17.1109L11.1984 17.1109L11.1984 17.111L11.1983 17.1111L11.1983 17.1111L11.1983 17.1112C11.0959 17.2932 10.992 17.4781 10.885 17.6666C10.8503 17.615 10.8165 17.5652 10.7834 17.5164L10.783 17.5159L10.7829 17.5157L10.7828 17.5155L10.7827 17.5154C10.7269 17.4332 10.6732 17.3539 10.6209 17.2747C10.3936 16.9271 10.1062 16.9222 9.88876 17.2784C9.31266 18.223 8.78077 19.1897 8.49334 20.2879C8.47357 20.2842 8.45421 20.282 8.43559 20.2799C8.39868 20.2757 8.36468 20.2719 8.33611 20.2572C6.35229 19.2143 4.97406 17.6862 4.51097 15.4395C4.32671 14.5514 4.38568 13.6682 4.63503 12.801C4.74849 12.4065 4.86841 12.0136 4.98836 11.6206L4.98836 11.6206C5.15931 11.0606 5.33029 10.5004 5.48261 9.93522C5.57155 9.60289 5.77561 9.626 5.97595 9.6487C6.02738 9.65452 6.07857 9.66032 6.1275 9.66007C6.35867 9.6591 6.33546 9.81502 6.31515 9.95152C6.30966 9.98838 6.30439 10.0238 6.30439 10.0544C6.30298 10.4147 6.29355 10.7745 6.28411 11.1343C6.27705 11.4037 6.26999 11.673 6.26631 11.9424C6.25648 12.6941 6.69869 13.2174 7.34604 13.2309C7.43694 13.2334 7.74772 13.2408 8.03393 13.0344C8.28329 12.8551 8.38156 12.6106 8.42455 12.5001C8.52479 12.2393 8.51665 12.017 8.5102 11.8408C8.50377 11.665 8.49901 11.5351 8.60512 11.4584C8.72427 11.3724 8.92327 11.3994 9.02153 11.4891C9.09819 11.5588 9.10017 11.6526 9.10639 11.9471L9.10752 12.0001C9.1095 12.0806 9.11226 12.1609 9.11503 12.241L9.11503 12.2411L9.11503 12.2412C9.11915 12.3604 9.12325 12.4794 9.12472 12.5983C9.1306 12.958 9.14772 13.1434 9.16426 13.3223L9.16648 13.3464C9.23896 14.119 9.79663 14.6178 10.5545 14.5969C11.208 14.5785 11.7375 13.8709 11.8222 13.2752C11.8469 13.1007 11.8315 12.9451 11.8182 12.8112V12.8112C11.7991 12.6187 11.7844 12.4709 11.8996 12.376C12.0286 12.2691 12.262 12.2789 12.4143 12.3748C12.5566 12.4648 12.5855 12.6034 12.6183 12.7611C12.6473 12.9002 12.6794 13.0541 12.7951 13.2027C13.0051 13.4705 13.3908 13.5982 13.6906 13.5614C14.236 13.4938 14.7506 12.8772 14.758 12.3514C14.7703 11.5604 14.7728 10.7668 14.7568 9.97576C14.7506 9.71289 14.8354 9.6441 15.0884 9.64655C15.7063 9.65193 16.324 9.65208 16.9416 9.65222C17.5935 9.65238 18.2454 9.65253 18.8976 9.65884C19.0094 9.65884 19.1961 9.73745 19.2207 9.81853C19.3093 10.1099 19.4013 10.4008 19.4934 10.6918L19.4934 10.6918C19.7738 11.5784 20.0546 12.4662 20.2414 13.3734C20.6382 15.2872 20.0277 16.9689 18.7883 18.4368C18.109 19.2426 17.2786 19.858 16.377 20.283C16.2734 20.0665 16.1706 19.8513 16.0683 19.637L16.0682 19.6369C15.7665 19.0051 15.4688 18.3818 15.1671 17.7599C15.0977 17.6169 15.0107 17.4813 14.9238 17.3459L14.9238 17.3459L14.8845 17.2845C14.645 16.9123 14.3797 16.916 14.1365 17.2956C14.071 17.3964 14.008 17.4991 13.9396 17.6108ZM6.66946 4.88442C6.41027 4.87705 6.21373 5.06376 6.21128 5.32049C6.20882 5.56616 6.3857 5.75533 6.62646 5.76639C6.89179 5.77744 7.09079 5.60179 7.10061 5.34751C7.11167 5.09079 6.92496 4.89056 6.66946 4.88442ZM5.46811 5.33032C5.46811 5.99609 5.99877 6.52183 6.66577 6.51692C7.32418 6.51201 7.86466 5.9617 7.8536 5.30821C7.84255 4.67314 7.29347 4.1302 6.66209 4.1302C6.00491 4.1302 5.46934 4.66946 5.46811 5.33032ZM5.87433 2.55617C5.87065 2.30313 5.66428 2.09799 5.41861 2.10659C5.17416 2.11396 4.97885 2.33138 4.98991 2.58442C4.99974 2.82396 5.19382 3.01435 5.42967 3.01435C5.68025 3.01312 5.87802 2.81044 5.87433 2.55617ZM6.62364 2.5746C6.63224 1.91005 6.1065 1.38185 5.43581 1.38062C4.76757 1.38062 4.23446 1.90759 4.23692 2.566C4.23815 3.20598 4.7688 3.74277 5.41124 3.75506C6.06596 3.76734 6.61504 3.233 6.62364 2.5746Z" fill="#0C1E3C"/>
</svg>
