<svg width="24" height="24" viewBox="0 0 24 24" fill="none" xmlns="http://www.w3.org/2000/svg">
<path fill-rule="evenodd" clip-rule="evenodd" d="M5.42918 12.4027C5.42918 12.7418 5.42963 13.0809 5.43008 13.42C5.43117 14.2434 5.43227 15.0669 5.42691 15.8903C5.42313 16.4361 5.19788 16.6825 4.73982 16.6825C4.27723 16.6825 4.02325 16.396 4.0225 15.8609C4.01872 13.6456 4.01721 11.4296 4.0157 9.21442V9.2143V9.21419V9.21408V9.21397V9.21386V9.21375V9.21364L4.01569 9.21143C4.01569 9.02548 4.01721 8.83803 4.0361 8.65359C4.07692 8.26054 4.377 7.99523 4.74965 8.00959C5.14421 8.02395 5.41935 8.2749 5.42313 8.68307C5.43187 9.57837 5.43035 10.4741 5.42883 11.3696V11.3696V11.3697V11.3698V11.3699V11.3699V11.37V11.3701V11.3702C5.42825 11.7144 5.42767 12.0586 5.42767 12.4027H5.42918ZM8.86032 12.3674C8.86032 12.0982 8.85934 11.829 8.85836 11.5598C8.856 10.9136 8.85365 10.2675 8.86485 9.62134C8.87317 9.09752 9.14604 8.81558 9.57311 8.82616C10.0508 8.83825 10.3108 9.11415 10.3146 9.64024C10.3237 11.0057 10.3289 12.3711 10.3341 13.7366L10.338 14.7605C10.3388 14.8384 10.3373 14.9162 10.332 14.9933C10.2942 15.5655 9.98279 15.9246 9.54212 15.9057C9.11807 15.8875 8.85729 15.5361 8.85578 14.9744C8.85477 14.395 8.85511 13.8158 8.85545 13.2366C8.85561 12.9469 8.85578 12.6572 8.85578 12.3674H8.86032ZM13.5745 11.5108C13.5752 11.7833 13.5759 12.0559 13.5759 12.3285C13.5759 12.6065 13.5751 12.8846 13.5743 13.1627V13.1628V13.1629V13.1629V13.163V13.1631V13.1632V13.1634V13.1635V13.1636V13.1637V13.1637V13.1638C13.5723 13.8486 13.5703 14.5336 13.5805 15.2182C13.5873 15.64 13.8586 15.8849 14.257 15.8894C14.6508 15.8932 14.9252 15.6468 14.969 15.2409C14.9856 15.0867 14.9887 14.9302 14.9887 14.7753L14.9876 14.1283C14.985 12.6196 14.9824 11.1106 14.9758 9.60206C14.9736 9.10621 14.706 8.82125 14.2577 8.81596C13.8413 8.81066 13.585 9.08051 13.579 9.57863C13.571 10.2227 13.5727 10.8664 13.5745 11.5103V11.5104V11.5105V11.5106V11.5106V11.5107V11.5108ZM18.5759 12.3285C18.5759 12.0559 18.5752 11.7833 18.5745 11.5108V11.5107V11.5107V11.5106V11.5105V11.5104C18.5727 10.8665 18.571 10.2228 18.579 9.57863C18.585 9.08051 18.8413 8.81066 19.2577 8.81596C19.706 8.82125 19.9736 9.10621 19.9758 9.60206C19.9824 11.1103 19.985 12.6191 19.9876 14.1274V14.1283L19.9887 14.7753C19.9887 14.9302 19.9856 15.0867 19.969 15.2409C19.9252 15.6468 19.6508 15.8932 19.257 15.8894C18.8586 15.8849 18.5873 15.64 18.5805 15.2182C18.5703 14.5335 18.5723 13.8484 18.5743 13.1634V13.1632V13.1631V13.163V13.1629V13.1628V13.1628C18.5751 12.8846 18.5759 12.6065 18.5759 12.3285ZM11.9478 14.2649C12.3824 14.2876 12.684 14.0321 12.7324 13.5279C12.759 13.2513 12.7524 12.9717 12.7458 12.6925V12.6925V12.6925V12.6925V12.6925L12.7458 12.6924C12.7429 12.5681 12.7399 12.4439 12.7399 12.32C12.7399 11.9322 12.7384 11.5415 12.715 11.1552C12.6862 10.6964 12.433 10.4523 12.0241 10.4372C11.6023 10.4213 11.3234 10.6382 11.3022 11.1053C11.2667 11.8945 11.2713 12.6866 11.2909 13.4765C11.3038 14.0124 11.5222 14.243 11.9478 14.2649ZM3.02074 12.3546C3.02074 12.4304 3.02094 12.5065 3.02114 12.5829C3.02204 12.9276 3.02295 13.2768 3.00562 13.6184C2.9837 14.0515 2.73729 14.2654 2.31702 14.2632C1.89978 14.2616 1.61255 13.9971 1.60801 13.5799C1.59894 12.79 1.59667 11.9993 1.6065 11.2094C1.61255 10.7302 1.87332 10.452 2.28981 10.4392C2.75014 10.4248 2.98521 10.6697 3.02074 11.2019C3.02527 11.2639 3.02679 11.3258 3.02754 11.3878C3.02754 11.7128 3.02074 12.3546 3.02074 12.3546ZM7.82114 12.5829V12.5828V12.5827C7.82094 12.5064 7.82074 12.4303 7.82074 12.3546C7.82074 12.3546 7.82754 11.7128 7.82754 11.3878C7.82679 11.3258 7.82527 11.2639 7.82074 11.2019C7.78521 10.6697 7.55014 10.4248 7.08981 10.4392C6.67332 10.452 6.41255 10.7302 6.4065 11.2094C6.39667 11.9993 6.39894 12.79 6.40801 13.5799C6.41255 13.9971 6.69978 14.2616 7.11702 14.2632C7.53729 14.2654 7.7837 14.0515 7.80562 13.6184C7.82295 13.2768 7.82204 12.9276 7.82114 12.5829ZM17.392 12.3277C17.392 12.4554 17.3932 12.5833 17.3945 12.7111C17.3974 13.0022 17.4003 13.2932 17.3882 13.5832C17.37 14.0155 17.1199 14.2582 16.7268 14.2665C16.2975 14.2756 16.0034 14.0382 15.9944 13.6036C15.9755 12.7517 15.9815 11.8983 15.9981 11.0457C16.0057 10.6753 16.3103 10.4206 16.6746 10.4259C17.0435 10.4312 17.3821 10.7229 17.3935 11.0714C17.4024 11.3636 17.4004 11.6557 17.3983 11.9479C17.3974 12.0745 17.3965 12.2011 17.3965 12.3277H17.392ZM22.3945 12.7111C22.3932 12.5833 22.392 12.4554 22.392 12.3277H22.3965C22.3965 12.2011 22.3974 12.0745 22.3983 11.9479C22.4004 11.6557 22.4024 11.3636 22.3935 11.0714C22.3821 10.7229 22.0435 10.4312 21.6746 10.4259C21.3103 10.4206 21.0057 10.6753 20.9981 11.0457C20.9815 11.8983 20.9755 12.7517 20.9944 13.6036C21.0034 14.0382 21.2975 14.2756 21.7268 14.2665C22.1199 14.2582 22.37 14.0155 22.3882 13.5832C22.4003 13.2932 22.3974 13.0022 22.3945 12.7111Z" fill="#0C1E3C"/>
<mask id="mask0_0_2838" style="mask-type:luminance" maskUnits="userSpaceOnUse" x="1" y="8" width="22" height="9">
<path fill-rule="evenodd" clip-rule="evenodd" d="M5.42918 12.4027C5.42918 12.7418 5.42963 13.0809 5.43008 13.42C5.43117 14.2434 5.43227 15.0669 5.42691 15.8903C5.42313 16.4361 5.19788 16.6825 4.73982 16.6825C4.27723 16.6825 4.02325 16.396 4.0225 15.8609C4.01872 13.6456 4.01721 11.4296 4.0157 9.21442V9.2143V9.21419V9.21408V9.21397V9.21386V9.21375V9.21364L4.01569 9.21143C4.01569 9.02548 4.01721 8.83803 4.0361 8.65359C4.07692 8.26054 4.377 7.99523 4.74965 8.00959C5.14421 8.02395 5.41935 8.2749 5.42313 8.68307C5.43187 9.57837 5.43035 10.4741 5.42883 11.3696V11.3696V11.3697V11.3698V11.3699V11.3699V11.37V11.3701V11.3702C5.42825 11.7144 5.42767 12.0586 5.42767 12.4027H5.42918ZM8.86032 12.3674C8.86032 12.0982 8.85934 11.829 8.85836 11.5598C8.856 10.9136 8.85365 10.2675 8.86485 9.62134C8.87317 9.09752 9.14604 8.81558 9.57311 8.82616C10.0508 8.83825 10.3108 9.11415 10.3146 9.64024C10.3237 11.0057 10.3289 12.3711 10.3341 13.7366L10.338 14.7605C10.3388 14.8384 10.3373 14.9162 10.332 14.9933C10.2942 15.5655 9.98279 15.9246 9.54212 15.9057C9.11807 15.8875 8.85729 15.5361 8.85578 14.9744C8.85477 14.395 8.85511 13.8158 8.85545 13.2366C8.85561 12.9469 8.85578 12.6572 8.85578 12.3674H8.86032ZM13.5745 11.5108C13.5752 11.7833 13.5759 12.0559 13.5759 12.3285C13.5759 12.6065 13.5751 12.8846 13.5743 13.1627V13.1628V13.1629V13.1629V13.163V13.1631V13.1632V13.1634V13.1635V13.1636V13.1637V13.1637V13.1638C13.5723 13.8486 13.5703 14.5336 13.5805 15.2182C13.5873 15.64 13.8586 15.8849 14.257 15.8894C14.6508 15.8932 14.9252 15.6468 14.969 15.2409C14.9856 15.0867 14.9887 14.9302 14.9887 14.7753L14.9876 14.1283C14.985 12.6196 14.9824 11.1106 14.9758 9.60206C14.9736 9.10621 14.706 8.82125 14.2577 8.81596C13.8413 8.81066 13.585 9.08051 13.579 9.57863C13.571 10.2227 13.5727 10.8664 13.5745 11.5103V11.5104V11.5105V11.5106V11.5106V11.5107V11.5108ZM18.5759 12.3285C18.5759 12.0559 18.5752 11.7833 18.5745 11.5108V11.5107V11.5107V11.5106V11.5105V11.5104C18.5727 10.8665 18.571 10.2228 18.579 9.57863C18.585 9.08051 18.8413 8.81066 19.2577 8.81596C19.706 8.82125 19.9736 9.10621 19.9758 9.60206C19.9824 11.1103 19.985 12.6191 19.9876 14.1274V14.1283L19.9887 14.7753C19.9887 14.9302 19.9856 15.0867 19.969 15.2409C19.9252 15.6468 19.6508 15.8932 19.257 15.8894C18.8586 15.8849 18.5873 15.64 18.5805 15.2182C18.5703 14.5335 18.5723 13.8484 18.5743 13.1634V13.1632V13.1631V13.163V13.1629V13.1628V13.1628C18.5751 12.8846 18.5759 12.6065 18.5759 12.3285ZM11.9478 14.2649C12.3824 14.2876 12.684 14.0321 12.7324 13.5279C12.759 13.2513 12.7524 12.9717 12.7458 12.6925V12.6925V12.6925V12.6925V12.6925L12.7458 12.6924C12.7429 12.5681 12.7399 12.4439 12.7399 12.32C12.7399 11.9322 12.7384 11.5415 12.715 11.1552C12.6862 10.6964 12.433 10.4523 12.0241 10.4372C11.6023 10.4213 11.3234 10.6382 11.3022 11.1053C11.2667 11.8945 11.2713 12.6866 11.2909 13.4765C11.3038 14.0124 11.5222 14.243 11.9478 14.2649ZM3.02074 12.3546C3.02074 12.4304 3.02094 12.5065 3.02114 12.5829C3.02204 12.9276 3.02295 13.2768 3.00562 13.6184C2.9837 14.0515 2.73729 14.2654 2.31702 14.2632C1.89978 14.2616 1.61255 13.9971 1.60801 13.5799C1.59894 12.79 1.59667 11.9993 1.6065 11.2094C1.61255 10.7302 1.87332 10.452 2.28981 10.4392C2.75014 10.4248 2.98521 10.6697 3.02074 11.2019C3.02527 11.2639 3.02679 11.3258 3.02754 11.3878C3.02754 11.7128 3.02074 12.3546 3.02074 12.3546ZM7.82114 12.5829V12.5828V12.5827C7.82094 12.5064 7.82074 12.4303 7.82074 12.3546C7.82074 12.3546 7.82754 11.7128 7.82754 11.3878C7.82679 11.3258 7.82527 11.2639 7.82074 11.2019C7.78521 10.6697 7.55014 10.4248 7.08981 10.4392C6.67332 10.452 6.41255 10.7302 6.4065 11.2094C6.39667 11.9993 6.39894 12.79 6.40801 13.5799C6.41255 13.9971 6.69978 14.2616 7.11702 14.2632C7.53729 14.2654 7.7837 14.0515 7.80562 13.6184C7.82295 13.2768 7.82204 12.9276 7.82114 12.5829ZM17.392 12.3277C17.392 12.4554 17.3932 12.5833 17.3945 12.7111C17.3974 13.0022 17.4003 13.2932 17.3882 13.5832C17.37 14.0155 17.1199 14.2582 16.7268 14.2665C16.2975 14.2756 16.0034 14.0382 15.9944 13.6036C15.9755 12.7517 15.9815 11.8983 15.9981 11.0457C16.0057 10.6753 16.3103 10.4206 16.6746 10.4259C17.0435 10.4312 17.3821 10.7229 17.3935 11.0714C17.4024 11.3636 17.4004 11.6557 17.3983 11.9479C17.3974 12.0745 17.3965 12.2011 17.3965 12.3277H17.392ZM22.3945 12.7111C22.3932 12.5833 22.392 12.4554 22.392 12.3277H22.3965C22.3965 12.2011 22.3974 12.0745 22.3983 11.9479C22.4004 11.6557 22.4024 11.3636 22.3935 11.0714C22.3821 10.7229 22.0435 10.4312 21.6746 10.4259C21.3103 10.4206 21.0057 10.6753 20.9981 11.0457C20.9815 11.8983 20.9755 12.7517 20.9944 13.6036C21.0034 14.0382 21.2975 14.2756 21.7268 14.2665C22.1199 14.2582 22.37 14.0155 22.3882 13.5832C22.4003 13.2932 22.3974 13.0022 22.3945 12.7111Z" fill="white"/>
</mask>
<g mask="url(#mask0_0_2838)">
</g>
</svg>
