<svg width="24" height="25" viewBox="0 0 24 25" fill="none" xmlns="http://www.w3.org/2000/svg">
<path fill-rule="evenodd" clip-rule="evenodd" d="M0.847545 24.1809H23.1525C23.6279 24.1809 24 23.8088 24 23.3333V4.4186C24 3.94315 23.6279 3.57106 23.1525 3.57106H18.9561V2.84755C18.9561 2.37209 18.584 2 18.1085 2C17.6331 2 17.261 2.37209 17.261 2.84755V3.57106H6.88372V2.84755C6.88372 2.37209 6.51163 2 6.03618 2C5.56072 2 5.18863 2.37209 5.18863 2.84755V3.57106H0.847545C0.372093 3.57106 0 3.94315 0 4.4186V23.354C0 23.8088 0.392765 24.1809 0.847545 24.1809ZM1.69509 5.26615H5.18863V5.72093C5.18863 6.19638 5.56072 6.56848 6.03618 6.56848C6.51163 6.56848 6.88372 6.19638 6.88372 5.72093V5.26615H17.261V5.72093C17.261 6.19638 17.6331 6.56848 18.1085 6.56848C18.584 6.56848 18.9561 6.19638 18.9561 5.72093V5.26615H22.3256V7.45736H1.69509V5.26615ZM22.3049 9.15245H1.69509V22.5065H22.3049V9.15245ZM18.1085 13.0388H5.91214C5.43669 13.0388 5.0646 13.4109 5.0646 13.8863C5.0646 14.3618 5.43669 14.7338 5.91214 14.7338H18.1085C18.584 14.7338 18.9561 14.3618 18.9561 13.8863C18.9561 13.4109 18.584 13.0388 18.1085 13.0388ZM5.91214 17.1318H12.0103C12.4858 17.1318 12.8579 17.5039 12.8579 17.9793C12.8579 18.4548 12.4858 18.8269 12.0103 18.8269H5.91214C5.43669 18.8269 5.0646 18.4548 5.0646 17.9793C5.0646 17.5039 5.43669 17.1318 5.91214 17.1318Z" fill="#0092C9"/>
</svg>
