<svg width="24" height="24" viewBox="0 0 24 24" fill="none" xmlns="http://www.w3.org/2000/svg">
<path fill-rule="evenodd" clip-rule="evenodd" d="M16.8275 16.9066L16.8281 16.9068C17.1075 17.0203 17.3805 17.1312 17.6523 17.2456C17.722 17.2748 17.7922 17.3033 17.8624 17.3319L17.8626 17.332L17.8626 17.332C18.0924 17.4254 18.3223 17.5189 18.5387 17.6373C19.0217 17.903 19.2745 18.3453 19.364 18.8754C19.5843 20.1873 18.6462 21.6061 17.3535 21.9269C16.8327 22.0565 16.352 21.9699 15.8963 21.6752C15.0188 21.1079 14.1384 20.5452 13.258 19.9827C12.7657 19.6681 12.2734 19.3535 11.7817 19.0381C11.7189 18.998 11.6753 19.0004 11.6149 19.0393L10.986 19.4432C9.8071 20.2004 8.6282 20.9575 7.44678 21.7101C6.84984 22.0903 6.21977 22.081 5.60597 21.7735C4.68121 21.3096 4.15402 20.5436 4.02092 19.5182C3.94129 18.9033 4.08427 18.3406 4.53125 17.8925C4.6847 17.7391 4.88174 17.6123 5.08111 17.524C5.48726 17.3447 5.89888 17.1783 6.31659 17.0095C6.4919 16.9387 6.66828 16.8674 6.84577 16.7945C6.83377 16.7801 6.823 16.7665 6.81277 16.7537L6.81277 16.7536C6.79577 16.7322 6.78029 16.7127 6.76323 16.6946C5.79255 15.6477 5.2241 14.4108 5.01252 13.0025C4.8707 12.0626 5.00787 11.1594 5.31942 10.2724C5.55715 9.59697 5.85649 8.95004 6.16165 8.30312C6.40384 7.79056 6.60562 7.2583 6.80703 6.72706L6.80704 6.72704L6.851 6.61111C7.00855 6.1973 7.15532 5.77912 7.30204 5.36111L7.30205 5.36108C7.36264 5.18843 7.42323 5.01582 7.48456 4.84355C7.57175 4.59768 7.75309 4.46051 7.99024 4.46283C8.28028 4.46516 8.50929 4.69126 8.50116 4.9906C8.49011 5.41259 8.56219 5.82062 8.67321 6.22342C8.7848 6.62971 8.92547 7.02554 9.13936 7.39114C9.2684 7.61318 9.46021 7.77535 9.6805 7.96135C9.72562 7.83875 9.77058 7.71843 9.81501 7.59954C9.91823 7.32328 10.0186 7.05479 10.1112 6.78374C10.2833 6.28155 10.3379 5.76017 10.3443 5.23066C10.3542 4.41226 10.3239 3.59678 10.1932 2.78768C10.1896 2.76577 10.1855 2.74381 10.1815 2.7218L10.1815 2.72174L10.1815 2.72173C10.1679 2.64802 10.1543 2.57394 10.1565 2.50055C10.1711 2.09484 10.6117 1.86001 10.9558 2.09077C11.2772 2.30583 11.587 2.54123 11.8794 2.79408C12.614 3.42821 13.236 4.16291 13.7678 4.97491C14.1578 5.56952 14.3758 6.23737 14.5856 6.90755C14.6418 7.08657 14.6913 7.26767 14.7408 7.44876C14.7655 7.5393 14.7902 7.62985 14.8158 7.72013C14.8228 7.74483 14.8304 7.76953 14.84 7.80083L14.84 7.80087L14.853 7.84335C15.0605 7.42021 15.2 6.99415 15.2994 6.55473C15.3207 6.45948 15.3396 6.36358 15.3585 6.26764L15.3585 6.26762C15.3794 6.16159 15.4003 6.05551 15.4244 5.95024C15.4778 5.71425 15.6348 5.58405 15.8696 5.54511C16.062 5.51372 16.2747 5.61544 16.3788 5.80493C17.2425 7.38243 18.0039 8.99887 18.2608 10.8054C18.2799 10.9401 18.3037 11.0744 18.3276 11.2087C18.37 11.4476 18.4124 11.6865 18.4277 11.9272C18.4852 12.8403 18.3033 13.7192 17.9691 14.5666C17.6564 15.3589 17.2041 16.0639 16.6217 16.6853L16.5757 16.7359L16.5305 16.7858C16.6304 16.8266 16.7294 16.8668 16.8275 16.9066ZM8.85456 16.9701C8.8638 16.9932 8.87412 17.019 8.88594 17.0491C8.18147 16.6463 7.60546 16.1424 7.13814 15.5164C6.47145 14.6242 6.10933 13.6203 6.00878 12.5102C5.94368 11.7906 6.1134 11.1198 6.36392 10.4654C6.50474 10.0981 6.66559 9.73847 6.82647 9.37875L6.82648 9.37875L6.82648 9.37874C6.92125 9.16684 7.01604 8.95491 7.10675 8.74138C7.25915 8.38221 7.40694 8.02114 7.55475 7.66003L7.55476 7.66L7.55478 7.65996C7.62344 7.49222 7.6921 7.32447 7.76123 7.1569C7.77983 7.11098 7.79843 7.06507 7.8211 7.0081C7.90364 7.20282 7.97978 7.38359 8.05592 7.56494C8.3076 8.16188 8.76156 8.58328 9.26782 8.95818C9.36896 9.03316 9.47242 9.10698 9.57937 9.17382C9.84035 9.33541 10.1682 9.26159 10.31 8.99015C10.8058 8.0433 11.2313 7.06274 11.3371 5.98976C11.3819 5.53394 11.3753 5.07277 11.3687 4.61174C11.3658 4.41022 11.363 4.20873 11.3644 4.00772C11.3648 3.94923 11.3606 3.89073 11.3564 3.83224L11.3564 3.83223C11.3545 3.8047 11.3525 3.77717 11.351 3.74964L11.3676 3.74063L11.3841 3.73162C11.4401 3.78975 11.4968 3.84723 11.5535 3.90471L11.5535 3.90471C11.6669 4.01967 11.7804 4.13462 11.8881 4.25474C12.424 4.85168 12.9541 5.45967 13.24 6.2211C13.4452 6.76705 13.6095 7.3294 13.7735 7.89048L13.7735 7.8905L13.8294 8.08166C13.8994 8.321 13.9511 8.5657 14.0028 8.81022C14.0233 8.90715 14.0438 9.00406 14.0654 9.10059C14.1683 9.55977 14.6002 9.68823 14.9751 9.40225C15.4906 9.00899 15.7309 8.44927 15.9731 7.88538L15.9789 7.87183C16.0059 7.80943 16.0299 7.7458 16.0537 7.68222C16.0668 7.6475 16.0798 7.6128 16.0934 7.57831C16.0937 7.57725 16.0962 7.57683 16.1027 7.57575L16.1027 7.57575L16.11 7.57451L16.1207 7.57249C16.1583 7.65382 16.1959 7.73575 16.2336 7.81798L16.2337 7.81809L16.2337 7.81819C16.3014 7.96567 16.3695 8.11412 16.4392 8.26185C16.8566 9.14418 17.0832 10.0823 17.2448 11.0379C17.256 11.1035 17.2678 11.1693 17.2796 11.2352L17.2796 11.2356L17.2796 11.2356C17.3368 11.5557 17.3944 11.8783 17.3925 12.1992C17.3849 13.4843 16.9525 14.6288 16.1573 15.6361C15.7406 16.1645 15.2395 16.5981 14.6682 16.9515C14.6362 16.9718 14.6031 16.9898 14.5694 17.0073C14.565 17.0094 14.5587 17.0074 14.5544 17.006L14.5523 17.0053L14.5508 17.0049C14.5508 16.9684 14.5528 16.9314 14.5547 16.8946C14.5591 16.8137 14.5635 16.7332 14.5467 16.6574C14.5002 16.4487 14.3101 16.3011 14.1032 16.2825C13.8806 16.2621 13.6847 16.3696 13.5807 16.5841C13.358 17.041 13.0169 17.3822 12.5629 17.5996C11.3446 18.1814 9.98275 17.3979 9.7241 16.2825C9.64854 15.9558 9.72235 15.646 9.87755 15.3565C9.94998 15.2215 10.0357 15.0931 10.1208 14.9655L10.1208 14.9655L10.1379 14.9398C10.3141 14.6765 10.2681 14.3603 10.0252 14.1905C9.78745 14.0243 9.47823 14.0824 9.29165 14.3347C8.95802 14.784 8.71622 15.2722 8.66274 15.8401C8.62961 16.1953 8.69355 16.5353 8.81445 16.8672C8.82617 16.899 8.83881 16.9307 8.85456 16.9701ZM15.1768 19.9774C15.1829 19.9352 15.1886 19.8952 15.194 19.8569C15.2044 19.7833 15.2139 19.7155 15.225 19.6479C15.2744 19.3532 15.5383 19.1672 15.8353 19.2166C16.1108 19.2625 16.3003 19.5432 16.2503 19.8286L16.2471 19.8471C16.2335 19.9241 16.2199 20.0016 16.2178 20.0786C16.2003 20.8214 16.7043 21.1277 17.3233 20.847C17.7924 20.6342 18.0917 20.2564 18.2626 19.7757C18.3614 19.4962 18.4003 19.2108 18.3079 18.9213C18.2207 18.6493 18.0458 18.4848 17.7499 18.4441C17.645 18.4293 17.5434 18.3786 17.4449 18.3294C17.4277 18.3208 17.4106 18.3123 17.3936 18.304C17.2795 18.2484 17.168 18.1876 17.0566 18.1268L17.0566 18.1268L17.0565 18.1268L17.0565 18.1268C17.0097 18.1013 16.9628 18.0757 16.9158 18.0506C16.9071 18.0616 16.8984 18.0721 16.8897 18.0831C16.9949 18.2366 17.0635 18.4069 16.9833 18.5795C16.9246 18.7045 16.8275 18.8167 16.7293 18.9172C16.5125 19.1399 16.1939 19.1457 15.9841 18.9434C15.772 18.7388 15.7766 18.4168 15.9922 18.186C16.1219 18.0477 16.2602 17.9239 16.4613 17.8925C16.3411 17.8382 16.2215 17.788 16.1031 17.7383C15.9834 17.688 15.8647 17.6382 15.7475 17.585C15.6755 17.5525 15.6313 17.5554 15.5691 17.6001C15.1285 17.914 14.6571 18.1738 14.1503 18.3627C13.9289 18.445 13.7036 18.5161 13.4741 18.5886L13.4741 18.5886L13.474 18.5886L13.474 18.5886C13.3709 18.6212 13.267 18.654 13.1622 18.6882C13.7039 19.0352 14.2445 19.381 14.7955 19.7335L15.1768 19.9774ZM10.2524 18.6795C9.12018 18.3749 8.74702 18.2087 7.79146 17.5937C7.76588 17.5775 7.72636 17.5577 7.70369 17.5664C7.54237 17.631 7.38194 17.6986 7.21748 17.7679L7.21716 17.7681L7.21706 17.7681C7.15234 17.7954 7.087 17.8229 7.02073 17.8507L7.04997 17.8746C7.07271 17.8932 7.09088 17.9081 7.10966 17.9227C7.46131 18.1971 7.73217 18.5365 7.93096 18.9341C8.02337 19.1189 8.0164 19.302 7.89841 19.4729C7.78041 19.6438 7.61185 19.7153 7.40609 19.692C7.20324 19.6694 7.07594 19.5461 6.98411 19.3712C6.77137 18.9661 6.47087 18.6522 6.03028 18.497C5.54727 18.3273 5.15086 18.5499 5.06077 19.0352C4.92011 19.7926 5.54494 20.7511 6.29417 20.9254C6.68186 21.0161 6.9998 20.8534 7.12535 20.4976C7.13907 20.4588 7.14856 20.4186 7.15802 20.3785C7.16499 20.349 7.17194 20.3196 7.18057 20.2907C7.24509 20.0757 7.38865 19.9519 7.61011 19.9158C7.79146 19.8862 7.93677 19.9623 8.06813 20.0768C8.79294 19.6136 9.51136 19.1538 10.2524 18.6795ZM11.5198 13.4143C11.5824 13.3425 11.6454 13.2704 11.7089 13.1978C11.7314 13.2262 11.7538 13.2557 11.7765 13.2856C11.8273 13.3525 11.8797 13.4215 11.9379 13.4849C12.1765 13.744 12.4172 14.0013 12.6578 14.2586C12.7508 14.3579 12.8437 14.4573 12.9365 14.5567C13.2254 14.866 13.4811 15.1961 13.6299 15.6001C13.7433 15.9081 14.031 16.0453 14.3147 15.9366C14.5907 15.8308 14.7099 15.5402 14.6018 15.2362C14.4187 14.7236 14.1077 14.2928 13.7427 13.897C13.6366 13.7821 13.53 13.6678 13.4233 13.5535C13.1653 13.277 12.9073 13.0005 12.6581 12.7159C12.5366 12.5773 12.4278 12.4277 12.3189 12.2781C12.2542 12.1892 12.1895 12.1004 12.1222 12.0138C11.9037 11.7313 11.5148 11.7214 11.2939 11.9917C10.933 12.4352 10.5726 12.8793 10.2157 13.3262C9.98903 13.6099 10.114 14.0278 10.4587 14.1382C10.6755 14.2074 10.8679 14.1522 11.0196 13.9825C11.1871 13.7955 11.3522 13.6063 11.5198 13.4143Z" fill="#0C1E3C"/>
</svg>
