<svg width="24" height="24" viewBox="0 0 24 24" fill="none" xmlns="http://www.w3.org/2000/svg">
<path fill-rule="evenodd" clip-rule="evenodd" d="M14.1476 0H13.5478C13.4724 0.0173549 13.3964 0.0325654 13.3203 0.0477729C13.157 0.080428 12.9937 0.113069 12.8377 0.166898C11.7519 0.542167 11.1086 1.34075 10.7606 2.40131C10.5386 3.07953 10.5715 3.76584 10.7358 4.45467C10.7767 4.62624 10.797 4.8028 10.8177 4.98369C10.8272 5.06675 10.8368 5.15073 10.8486 5.23555C8.69814 5.52181 6.83748 6.31938 5.48762 8.0789C5.42313 8.0521 5.35907 8.02325 5.29492 7.99435L5.29492 7.99435C5.15081 7.92943 5.00627 7.86432 4.85543 7.82197C4.52619 7.72942 4.18986 7.65154 3.85151 7.60046C3.44388 7.53875 3.03219 7.81489 2.83697 8.24782C2.63518 8.69642 2.60685 9.17436 2.61747 9.65533C2.64681 10.9885 2.9629 12.2706 3.32907 13.542C3.35739 13.6412 3.34728 13.715 3.29822 13.8071C3.1298 14.1237 2.96897 14.4443 2.81978 14.7705C2.77476 14.8696 2.72318 14.8848 2.62759 14.8772L2.58969 14.8741L2.58963 14.8741L2.58958 14.8741L2.58953 14.8741L2.58948 14.8741C2.20921 14.8428 1.82893 14.8114 1.44817 14.7943C1.18367 14.7821 1.00564 14.9556 1.00615 15.1938C1.00716 15.4331 1.18164 15.5873 1.4502 15.5969C1.68715 15.6053 1.92387 15.6171 2.15799 15.6288C2.26217 15.634 2.36584 15.6391 2.46878 15.6439C2.44581 15.7677 2.42249 15.8883 2.39958 16.0069L2.39958 16.0069C2.34785 16.2746 2.29815 16.5318 2.2589 16.7905C2.224 17.0166 2.21641 17.2477 2.20933 17.4768C2.2063 17.5668 2.17545 17.6002 2.09503 17.6356C1.79461 17.7661 1.49268 17.8976 1.20642 18.0554C1.11589 18.1049 1.04307 18.2304 1.01323 18.3356C0.969732 18.4898 1.03599 18.6309 1.17557 18.7235C1.3187 18.8181 1.46436 18.8125 1.61305 18.7326C1.75969 18.6535 1.90761 18.5765 2.0537 18.5004C2.11218 18.4699 2.17036 18.4396 2.22804 18.4094C2.35667 18.8453 2.4804 19.264 2.6073 19.6935L2.65035 19.8392C2.27154 20.0946 1.95039 20.4435 1.7228 20.876C1.53213 21.2386 1.40164 21.6245 1.40518 22.0331C1.41075 22.6658 1.73797 23.1266 2.26244 23.4543C2.72014 23.74 3.22994 23.8695 3.75795 23.9393C3.87968 23.9552 4.00185 23.9679 4.12403 23.9806L4.1249 23.9807C4.18568 23.987 4.24647 23.9933 4.3072 24H5.20744C5.27755 23.9868 5.34861 23.9762 5.41969 23.9656L5.41978 23.9656L5.41988 23.9656L5.41998 23.9655H5.42C5.58058 23.9416 5.74124 23.9176 5.89121 23.864C6.12911 23.7793 6.36132 23.6788 6.59359 23.5783L6.59366 23.5782C6.73467 23.5172 6.8757 23.4562 7.01803 23.3987C7.08833 23.3703 7.18038 23.3511 7.25017 23.3708C8.47763 23.7153 9.72482 23.9327 11.0003 23.9762C11.0472 23.9779 11.0938 23.9845 11.1404 23.9911C11.1628 23.9942 11.1852 23.9974 11.2077 24H12.4078C12.4885 23.9939 12.5692 23.9877 12.65 23.9814L12.6515 23.9813C12.8183 23.9684 12.9853 23.9554 13.1523 23.9439C14.2235 23.869 15.2734 23.6768 16.3037 23.3754C16.42 23.341 16.512 23.3466 16.6233 23.4138C17.1412 23.7259 17.7036 23.9155 18.3074 23.9747C18.3302 23.9767 18.3524 23.9836 18.3749 23.9904C18.3859 23.9938 18.3969 23.9972 18.4081 24H19.278C19.3729 23.9878 19.4684 23.9782 19.564 23.9685H19.564C19.7816 23.9465 19.9993 23.9246 20.2091 23.8726C20.5495 23.7881 20.8949 23.6839 21.2044 23.5236C22.0748 23.073 22.3747 22.3103 22.0849 21.3762C21.8978 20.7713 21.5478 20.2797 21.039 19.9024L20.9723 19.8523L20.9535 19.8382C21.0253 19.5941 21.0961 19.354 21.1673 19.1124L21.1687 19.1079C21.2356 18.881 21.3029 18.6527 21.3718 18.4185C21.4216 18.4429 21.4733 18.4671 21.5261 18.4919L21.5261 18.4919L21.5262 18.492C21.6478 18.5491 21.7751 18.6089 21.8968 18.678C22.2387 18.8717 22.4334 18.8216 22.6079 18.4802V18.3002C22.5054 18.0727 22.304 17.9765 22.103 17.8804C22.0461 17.8532 21.9893 17.8261 21.9347 17.7959C21.8654 17.758 21.7911 17.718 21.7147 17.7064C21.4608 17.6665 21.3986 17.5228 21.3784 17.274C21.3474 16.8909 21.2897 16.5098 21.2307 16.1203L21.2306 16.1199L21.2306 16.1198L21.2306 16.1196C21.2068 15.9628 21.1829 15.8046 21.1604 15.6445C21.2448 15.6402 21.3327 15.6345 21.4232 15.6287C21.6353 15.615 21.8612 15.6004 22.0874 15.6015C22.3439 15.6025 22.5153 15.5074 22.6079 15.2702V15.12C22.5133 14.8621 22.3236 14.767 22.0576 14.7907C21.8943 14.805 21.731 14.8171 21.5677 14.8292L21.5675 14.8292C21.3727 14.8436 21.1779 14.8581 20.9834 14.8762C20.8807 14.8858 20.8251 14.8686 20.777 14.765C20.6932 14.5834 20.6035 14.4046 20.5138 14.2257L20.5138 14.2256C20.4428 14.084 20.3718 13.9424 20.3037 13.7995C20.2748 13.7388 20.2561 13.6548 20.2743 13.5941C20.5338 12.7192 20.7518 11.8341 20.8848 10.9313C20.9991 10.154 21.078 9.37261 20.8944 8.59426C20.8054 8.21494 20.6334 7.88418 20.2622 7.69503C20.0053 7.56455 19.7408 7.58933 19.4722 7.63383C18.9973 7.71273 18.5462 7.86243 18.1218 8.09508C16.8868 6.46201 15.1885 5.65786 13.2499 5.30585C13.2373 5.19073 13.2252 5.07649 13.2132 4.96291L13.2132 4.96241C13.1854 4.69942 13.158 4.44 13.1245 4.18157C13.1113 4.07806 13.0916 3.9751 13.0719 3.87219C13.0458 3.73525 13.0196 3.59838 13.0087 3.46036C12.9849 3.165 13.1017 2.90707 13.2823 2.67392C13.4775 2.42256 13.7324 2.35883 14.0293 2.41548C14.447 2.49488 14.792 2.72247 15.1354 2.95663C15.716 3.35213 16.4979 3.16955 16.8484 2.56366C17.1437 2.05285 17.0203 1.38526 16.551 1.02769C15.9041 0.535087 15.1925 0.177014 14.3823 0.0394487L14.1476 0ZM12.4206 5.00212C12.4261 5.06754 12.4316 5.13335 12.4377 5.19965H11.6563C11.6285 5.01704 11.5963 4.8365 11.5643 4.65724L11.5643 4.65722L11.5643 4.65721L11.5643 4.6572L11.5643 4.65719L11.5643 4.65717L11.5643 4.65715L11.5643 4.65712L11.5643 4.65709C11.495 4.2684 11.4267 3.88567 11.407 3.50082C11.3463 2.3118 12.1681 1.01201 13.4896 0.819825C14.091 0.73233 14.6625 0.861803 15.1981 1.1339C15.4727 1.27298 15.7347 1.43988 15.9926 1.60829C16.2172 1.75446 16.2622 2.00834 16.118 2.20458C15.9835 2.38715 15.7463 2.41092 15.5334 2.26122C15.1935 2.022 14.8375 1.81464 14.4374 1.69225C13.4077 1.37717 12.6729 1.86067 12.3219 2.77355C12.1701 3.16652 12.1666 3.57112 12.2693 3.98028C12.3153 4.16336 12.3492 4.35049 12.374 4.53762C12.3946 4.69101 12.4075 4.8454 12.4206 5.00205V5.00206L12.4206 5.00212ZM5.82435 23.0553C5.81747 23.0565 5.81118 23.0577 5.80574 23.0588C5.80574 22.9571 5.80591 22.8562 5.80607 22.7561L5.80607 22.7554C5.80649 22.5065 5.80689 22.2616 5.80473 22.0169C5.80372 21.8435 5.72937 21.7054 5.56804 21.6316C5.42592 21.5663 5.28482 21.583 5.15838 21.6776C5.04054 21.7656 4.99856 21.89 4.99856 22.0321L4.99884 22.1549V22.1549V22.1549V22.1549V22.155V22.155V22.155V22.1551V22.1551C4.99933 22.3593 4.99982 22.5632 4.99856 22.7675C4.99704 23.0178 4.84178 23.1867 4.61115 23.1908C4.38356 23.1948 4.2111 23.03 4.20352 22.7852C4.19977 22.6582 4.20003 22.531 4.20029 22.4039C4.2006 22.2562 4.2009 22.1084 4.19492 21.9608C4.18683 21.7706 4.04471 21.625 3.87225 21.6007C3.66995 21.5719 3.50153 21.6675 3.43022 21.8531C3.4196 21.8809 3.40898 21.9102 3.40847 21.9391C3.40645 22.1242 3.40645 22.3093 3.40645 22.4944C3.40611 22.6172 3.40622 22.7397 3.40634 22.8618V22.862L3.40645 23.0441C2.8127 22.9683 2.29885 22.5869 2.22552 22.1909C2.17798 21.9355 2.20883 21.6907 2.3211 21.4621C2.75201 20.5831 3.46765 20.1012 4.43465 20.0051C5.41732 19.9074 6.49003 20.5523 6.883 21.4551C7.14548 22.0579 6.99021 22.5272 6.4091 22.8388C6.2953 22.8996 6.17136 22.942 6.0475 22.9843C5.99633 23.0018 5.94518 23.0193 5.89475 23.0381C5.87087 23.0472 5.845 23.0517 5.82438 23.0553L5.82435 23.0553ZM20.3863 23.0113L20.3864 23.0113C20.5208 22.9642 20.6561 22.9167 20.7836 22.8535C21.3632 22.5672 21.5347 22.0994 21.2964 21.497C20.9009 20.4982 19.6548 19.8174 18.5962 20.0314C17.7309 20.2063 17.0775 20.6727 16.7093 21.4874C16.5555 21.8283 16.5257 22.1874 16.7786 22.507C17.0426 22.8403 17.4204 22.9673 17.8042 23.0603L17.8042 22.7994V22.7991V22.7988V22.7985V22.7982V22.7979V22.7976V22.7973C17.8041 22.5423 17.804 22.2933 17.8047 22.0443C17.8052 21.7711 17.9565 21.5997 18.1967 21.5972C18.4394 21.5946 18.5937 21.7641 18.5952 22.0367C18.5956 22.12 18.595 22.2034 18.5944 22.2868C18.5932 22.4483 18.5921 22.6099 18.5977 22.771C18.6063 23.0274 18.7778 23.1943 19.0099 23.1908C19.2436 23.1878 19.3979 23.0148 19.3989 22.7528C19.3999 22.578 19.3997 22.4032 19.3995 22.2283L19.3994 22.0185C19.3994 21.8748 19.4484 21.7529 19.5678 21.6695C19.6968 21.5795 19.8394 21.5663 19.979 21.6366C20.1373 21.7155 20.203 21.8571 20.2035 22.0301C20.2043 22.281 20.2042 22.5322 20.2041 22.7961V22.7967V22.7974V22.798V22.7987V22.7994V22.8V22.8007L20.204 23.077C20.2638 23.0543 20.3247 23.0329 20.3857 23.0115L20.3858 23.0115L20.3858 23.0115L20.3861 23.0114L20.3862 23.0114L20.3863 23.0113ZM17.3731 8.44282C17.3792 8.45215 17.3859 8.46224 17.3936 8.47338C17.3162 8.52053 17.2391 8.56689 17.1624 8.61301C16.994 8.71432 16.8274 8.8145 16.6638 8.91946C16.3573 9.1167 16.0538 9.31749 15.7539 9.52485C15.6578 9.5911 15.5825 9.60273 15.4697 9.55418C14.2245 9.01606 12.9207 8.76571 11.5653 8.8001C10.3661 8.82994 9.21249 9.08282 8.11096 9.56126C8.02145 9.6002 7.96278 9.59059 7.88135 9.53749C7.50241 9.29058 7.12044 9.04835 6.7385 8.80613L6.73754 8.80552L6.73659 8.80492C6.60125 8.71909 6.46591 8.63326 6.33071 8.54722C6.30687 8.53208 6.28303 8.51673 6.24912 8.4949L6.17949 8.45012C6.26906 8.36007 6.35573 8.26898 6.44167 8.17867C6.62458 7.98645 6.80418 7.7977 7.00134 7.62979C8.03409 6.75281 9.2484 6.28095 10.5775 6.08724C12.1454 5.85864 13.6621 6.04172 15.1116 6.69313C15.9886 7.08762 16.7533 7.63687 17.347 8.40511C17.3558 8.41663 17.3639 8.42887 17.3731 8.44282ZM20.0508 15.0345C19.9948 14.9314 19.9403 14.8298 19.8865 14.7294L19.8864 14.7292C19.7568 14.4875 19.6311 14.253 19.4985 14.0225C19.41 13.8688 19.3898 13.7271 19.4449 13.5547C19.8338 12.3353 20.1337 11.0957 20.1878 9.81161C20.203 9.45657 20.1661 9.09344 20.1054 8.74244C20.0483 8.41623 19.8945 8.32672 19.5754 8.42382C19.1677 8.54773 18.7591 8.6858 18.3757 8.86838C17.522 9.27551 16.7371 9.80099 15.9683 10.3487C15.8045 10.4655 15.6472 10.5095 15.4545 10.419C14.5907 10.0129 13.6854 9.75547 12.7346 9.65078C11.9744 9.56682 11.2183 9.58452 10.4647 9.70236C9.6525 9.82931 8.87465 10.0721 8.13221 10.4251C7.982 10.4964 7.8414 10.4832 7.70889 10.3877C6.93509 9.8288 6.12184 9.33418 5.28583 8.87495C4.8524 8.63674 4.39469 8.47895 3.90715 8.4046C3.71041 8.37426 3.63556 8.41775 3.55464 8.59932C3.53036 8.65394 3.51063 8.71058 3.49546 8.76824C3.37105 9.25123 3.39987 9.7408 3.44691 10.2283C3.54604 11.254 3.77261 12.2544 4.06848 13.2401C4.09267 13.3207 4.11412 13.3881 4.13243 13.4457L4.13244 13.4457L4.13245 13.4457C4.18505 13.6111 4.21177 13.6951 4.20328 13.7754C4.1945 13.8583 4.14821 13.9372 4.05413 14.0975L4.05412 14.0975L4.0541 14.0976L4.05403 14.0977L4.05398 14.0978C4.02424 14.1484 3.98974 14.2073 3.95013 14.2769C3.85503 14.4436 3.7699 14.6159 3.6826 14.7926L3.68258 14.7927C3.64408 14.8706 3.60515 14.9494 3.56475 15.029C3.6348 15.0479 3.70165 15.0655 3.76632 15.0826L3.76711 15.0828L3.76759 15.0829C3.89107 15.1155 4.00665 15.146 4.12158 15.1792C4.78311 15.3693 5.39962 15.6571 5.97669 16.0308C6.16584 16.1527 6.23513 16.3206 6.17798 16.5002C6.09048 16.7743 5.80776 16.8694 5.54983 16.7055C4.89134 16.2863 4.18025 15.996 3.4201 15.822C3.32654 15.8007 3.27141 15.8038 3.24865 15.9155C3.22694 16.0235 3.20139 16.1306 3.17585 16.2378L3.17585 16.2378C3.1413 16.3827 3.10676 16.5276 3.08176 16.6742C3.0547 16.8334 3.04001 16.9948 3.02497 17.1601C3.01808 17.2358 3.01112 17.3123 3.00286 17.3898C3.0337 17.385 3.06116 17.3805 3.08632 17.3763L3.08641 17.3763L3.08652 17.3763C3.1409 17.3673 3.18454 17.3601 3.22842 17.3559C3.37512 17.3418 3.52179 17.3272 3.66846 17.3126L3.66851 17.3126L3.66856 17.3126L3.66861 17.3126L3.66866 17.3125L3.6687 17.3125L3.66887 17.3125C4.09799 17.2698 4.52712 17.2271 4.95709 17.1951C5.21553 17.1759 5.39153 17.3473 5.3981 17.5805C5.40569 17.8227 5.23677 17.9765 4.96872 17.9982C4.41189 18.0437 3.85556 18.0958 3.30024 18.1535C3.03573 18.1813 3.03169 18.1914 3.07872 18.4499C3.14042 18.7872 3.23399 19.1154 3.36953 19.3982C3.47576 19.3766 3.57971 19.3521 3.68229 19.3279C3.90449 19.2756 4.12022 19.2248 4.33855 19.2085C5.40569 19.1286 6.30947 19.5023 7.0413 20.2746C7.47776 20.7354 7.77717 21.275 7.79183 21.9269C7.79562 22.092 7.76923 22.258 7.74194 22.4297C7.72909 22.5105 7.71605 22.5926 7.70586 22.6764C10.4288 23.3769 13.172 23.3774 15.9304 22.6673C15.9238 22.6446 15.9182 22.6247 15.9132 22.6066C15.9037 22.5724 15.896 22.545 15.8864 22.5181C15.7807 22.2122 15.7746 21.9011 15.8449 21.5881C15.9881 20.9493 16.337 20.436 16.8281 20.0182C17.5716 19.3845 18.4309 19.0993 19.408 19.2267C19.5946 19.2512 19.7785 19.2962 19.9748 19.3444L19.9749 19.3444L19.975 19.3444L19.9752 19.3445L19.9752 19.3445L19.9752 19.3445L19.9752 19.3445C20.0671 19.367 20.1617 19.3902 20.2607 19.4123L20.425 18.8171L20.5894 18.2213C20.5642 18.2136 20.544 18.2067 20.5269 18.2009L20.5267 18.2009L20.5266 18.2008L20.5266 18.2008L20.5265 18.2008L20.5265 18.2008C20.4963 18.1905 20.4758 18.1836 20.4549 18.1813L20.0904 18.1436C19.602 18.093 19.1134 18.0424 18.6246 17.9982C18.3757 17.9755 18.1947 17.8116 18.1997 17.5865C18.2048 17.3574 18.3874 17.1824 18.6382 17.1941C19.017 17.2113 19.3958 17.2391 19.7736 17.2745C19.9581 17.2918 20.1418 17.3185 20.3295 17.3457C20.4166 17.3584 20.5046 17.3712 20.594 17.3832C20.5611 16.837 20.4852 16.3141 20.3133 15.8022L20.2731 15.8087C20.2396 15.8141 20.2112 15.8186 20.1833 15.8245C19.4156 15.9919 18.7024 16.2923 18.0394 16.7121C17.8836 16.8107 17.7304 16.8188 17.5776 16.7136C17.435 16.6155 17.3708 16.4668 17.4249 16.3095C17.4618 16.2018 17.5473 16.0885 17.6424 16.0258C18.3656 15.5504 19.1556 15.2277 20.0508 15.0345ZM12.5949 17.2816C12.4436 17.1562 11.1722 17.1531 10.9997 17.2801C11.0634 17.3462 11.1263 17.4129 11.1891 17.4795C11.3346 17.6339 11.4796 17.7876 11.6329 17.9325C11.7386 18.0321 11.9055 18.0078 12.0122 17.8986C12.1454 17.7619 12.2758 17.6224 12.4087 17.4803L12.4089 17.48L12.4098 17.4791C12.4708 17.4138 12.5323 17.348 12.5949 17.2816ZM10.807 21.5754C11.2005 21.5238 11.5217 21.3387 11.8024 21.0474L11.8175 21.0615C11.8457 21.0876 11.8672 21.1076 11.8883 21.1283C12.6849 21.9062 13.967 21.6761 14.4515 20.6721C14.6315 20.2989 14.6103 19.9039 14.5855 19.5119C14.5799 19.4245 14.495 19.3182 14.4166 19.2636C14.1546 19.081 13.8208 19.2636 13.8041 19.5878C13.8007 19.653 13.8004 19.7187 13.8 19.7845C13.7993 19.9249 13.7985 20.0651 13.7682 20.1988C13.6782 20.5932 13.2943 20.8375 12.8963 20.788C12.5043 20.7394 12.2039 20.4006 12.1994 19.9929C12.1974 19.8096 12.1978 19.6264 12.1982 19.4431C12.1986 19.2415 12.199 19.0399 12.1963 18.8383C12.1948 18.7493 12.2272 18.7088 12.3036 18.6694C12.3956 18.6218 12.4861 18.5616 12.5579 18.4878L12.652 18.3922L12.6521 18.3922L12.6521 18.3922C12.8418 18.1997 13.0323 18.0065 13.1972 17.7939C13.2984 17.6634 13.3747 17.4854 13.3889 17.3225C13.4283 16.882 13.0632 16.4668 12.6105 16.4132C12.446 16.3939 12.2787 16.3949 12.1121 16.396H12.112H12.1119C12.0737 16.3963 12.0356 16.3965 11.9976 16.3965C11.9142 16.3966 11.8306 16.3957 11.7469 16.3947H11.7468H11.7466H11.7466H11.7466C11.5002 16.3918 11.2533 16.3889 11.0098 16.4142C10.6386 16.4527 10.3721 16.6732 10.2487 17.0267C10.1313 17.3615 10.2381 17.6518 10.4879 17.8971C10.5396 17.9479 10.5881 18.0023 10.6366 18.0566L10.6366 18.0566L10.6366 18.0567C10.6948 18.1218 10.7529 18.187 10.8166 18.246C10.9171 18.3386 11.0221 18.4265 11.1271 18.5143L11.1272 18.5143L11.1272 18.5144C11.1971 18.5728 11.267 18.6313 11.3355 18.6911C11.3654 18.7169 11.3998 18.7589 11.4003 18.7938C11.4007 18.8809 11.4015 18.9681 11.4022 19.0552V19.0553V19.0555V19.0555C11.4052 19.3883 11.4081 19.7213 11.3917 20.0531C11.3715 20.4618 11.0478 20.7703 10.6604 20.7905C10.2396 20.8122 9.89769 20.5573 9.82132 20.1396C9.79856 20.015 9.79902 19.8859 9.79949 19.757C9.79967 19.7054 9.79986 19.6538 9.79856 19.6025C9.79249 19.3724 9.63975 19.2055 9.42481 19.1974C9.18812 19.1888 9.01717 19.3435 9.00554 19.5868C8.99795 19.7365 8.99998 19.8867 9.00402 20.0369C9.03285 20.9953 9.86026 21.6993 10.807 21.5754ZM16.9983 14.6528C16.9988 14.9304 16.7373 15.1221 16.4708 15.0296C16.1309 14.9112 15.7901 14.7969 15.4259 14.7919C14.8013 14.7828 14.3866 15.0837 14.1914 15.6769C14.1221 15.8878 13.9855 15.9945 13.7893 15.9905C13.6123 15.9864 13.4661 15.8772 13.4191 15.6972C13.4024 15.6329 13.4034 15.5576 13.4191 15.4928C13.6462 14.5628 14.5277 13.9285 15.4805 13.9933C15.9084 14.0221 16.3171 14.1177 16.7141 14.2724C16.9017 14.3453 16.9978 14.4778 16.9983 14.6528ZM9.78045 15.4679C9.53567 14.5692 8.76035 13.9911 7.80245 13.9785C7.73588 13.9878 7.66899 13.9958 7.60208 14.0039C7.44635 14.0226 7.29052 14.0413 7.1384 14.0756C6.91587 14.1257 6.69789 14.1995 6.48345 14.2779C6.24221 14.3659 6.14409 14.5839 6.22956 14.8034C6.312 15.0133 6.54009 15.0982 6.77679 15.0193L6.8016 15.011C7.00077 14.9439 7.20101 14.8765 7.40544 14.8337C8.15244 14.6764 8.79676 14.9354 9.02435 15.7193C9.08353 15.9221 9.3096 16.0309 9.5033 15.9722C9.72836 15.9039 9.84216 15.696 9.78045 15.4679Z" fill="#0C1E3C"/>
</svg>
