<svg width="24" height="24" viewBox="0 0 24 24" fill="none" xmlns="http://www.w3.org/2000/svg">
<path fill-rule="evenodd" clip-rule="evenodd" d="M12 2C6.48568 2 2 6.48568 2 12C2 17.5143 6.48568 22 12 22C17.5143 22 22 17.5143 22 12C22 6.48568 17.5143 2 12 2ZM12 3.66667C16.6126 3.66667 20.3333 7.38737 20.3333 12C20.3333 16.6126 16.6126 20.3333 12 20.3333C7.38737 20.3333 3.66667 16.6126 3.66667 12C3.66667 7.38737 7.38737 3.66667 12 3.66667ZM16.857 8.46447L10.8333 14.4882L8.70314 12.358L7.52463 13.5365L10.8245 16.8363L11.7413 15.9195L11.7502 15.9284L18.0356 9.64298L16.857 8.46447Z" fill="#0C1E3C"/>
</svg>
