<svg width="24" height="24" viewBox="0 0 24 24" fill="none" xmlns="http://www.w3.org/2000/svg">
<path fill-rule="evenodd" clip-rule="evenodd" d="M15.1652 17.3845C15.195 17.2961 15.2253 17.2066 15.2573 17.116C15.4391 17.116 15.7152 17.101 16.0388 17.0237C16.861 16.8263 17.3888 16.367 17.6296 16.156C18.0692 15.7707 18.4037 15.3081 18.6241 14.766C18.8589 14.1867 18.9314 13.5843 18.8968 12.9622C18.8727 12.5323 18.8579 12.1017 18.843 11.6712C18.837 11.4957 18.8309 11.3202 18.8243 11.1448L18.8157 10.9225C18.8042 10.6234 18.7927 10.3243 18.7829 10.0247C18.7801 9.94227 18.7808 9.85981 18.7815 9.77691C18.7819 9.73909 18.7822 9.70119 18.7822 9.66315C18.7859 9.66342 18.7895 9.66348 18.7929 9.66353C18.798 9.66361 18.8028 9.66369 18.8073 9.66451C19.3242 9.79137 19.7665 9.63941 20.1084 9.25408C20.6953 8.59197 20.7814 7.82132 20.508 7.0025C20.4618 6.86476 20.3902 6.73538 20.3182 6.60529C20.2856 6.54636 20.2529 6.48729 20.2224 6.42722C20.2221 6.42744 20.2222 6.4274 20.2226 6.42718C20.2247 6.42596 20.2363 6.41923 20.2489 6.41637C20.7156 6.30918 21.1539 6.37227 21.5527 6.64567C21.6396 6.70469 21.7264 6.71961 21.8234 6.69926C22.0453 6.65245 22.1884 6.48217 22.1769 6.25627C22.168 6.07446 22.1558 5.88858 22.1117 5.71356C21.9143 4.92594 21.43 4.38933 20.6661 4.10916C20.6254 4.09384 20.584 4.08089 20.5403 4.0672C20.5221 4.06149 20.5034 4.05565 20.4843 4.04946C20.5315 3.97388 20.5778 3.89875 20.6237 3.82416L20.6238 3.82406C20.7274 3.65566 20.8293 3.49004 20.9374 3.32833C21.2054 2.92672 21.2156 2.17981 20.856 1.83315C20.5603 1.54823 20.2333 1.43087 19.8378 1.51227C19.764 1.52763 19.6937 1.55946 19.6231 1.59141C19.5846 1.60885 19.546 1.62632 19.5067 1.64117C19.409 1.67916 19.3609 1.66491 19.3039 1.57808C19.2799 1.54239 19.2604 1.50317 19.2412 1.46434L19.232 1.44579C19.1723 1.32368 19.0814 1.23074 18.9755 1.1473C18.6967 0.927501 18.171 0.968883 17.9139 1.17104C17.8082 1.25438 17.7106 1.34855 17.6137 1.44205L17.6133 1.4424C17.5475 1.50549 17.4715 1.53263 17.3888 1.50617C17.3331 1.48853 17.2829 1.44851 17.2375 1.40984C17.0218 1.22871 16.7762 1.17511 16.5021 1.21989C16.0842 1.28908 15.8434 1.56587 15.6704 1.92202C15.5395 2.19202 15.5436 2.47763 15.6012 2.76187C15.6796 3.14558 15.7656 3.52752 15.8517 3.90934L15.8517 3.90942L15.8705 3.99315C15.8841 4.05285 15.8773 4.08677 15.823 4.12408C15.3163 4.4721 14.8536 4.87167 14.4405 5.32755C13.5348 6.3275 12.9209 7.4828 12.6014 8.79346C12.5696 8.92488 12.5435 9.05777 12.5179 9.18787L12.5179 9.18796L12.5179 9.188C12.5046 9.2553 12.4915 9.32184 12.4779 9.38705C12.3773 9.3807 12.277 9.37344 12.1769 9.3662C11.9667 9.35097 11.7574 9.33582 11.5478 9.32938C11.094 9.31514 10.6422 9.35449 10.1958 9.43928C9.70124 9.5329 9.21619 9.66044 8.7481 9.84632C8.30579 10.0213 7.89197 10.2527 7.49307 10.5105C7.4673 10.5274 7.43745 10.5464 7.40828 10.5498C7.30855 10.5593 7.20747 10.5654 7.10707 10.5681C6.77534 10.5769 6.44632 10.5566 6.1173 10.5071C5.46875 10.4101 4.86024 10.197 4.2836 9.88906C3.86775 9.66655 3.48988 9.38908 3.14119 9.07295C3.12186 9.05562 3.09598 9.04484 3.07191 9.03481L3.07064 9.03428C3.06172 9.03072 3.05149 9.02962 3.04145 9.02855C3.02858 9.02718 3.01601 9.02584 3.00687 9.01936C2.87255 8.92031 2.73551 8.9176 2.59441 9.00511C2.45059 9.09398 2.36036 9.22016 2.30202 9.37755C2.18466 9.69097 2.11207 10.0152 2.05441 10.3443C1.97775 10.7805 1.98589 11.216 2.05508 11.6495C2.12089 12.0647 2.25317 12.4608 2.43973 12.8387C2.71109 13.3896 3.08828 13.8556 3.56111 14.245C3.88064 14.5076 4.23408 14.7151 4.61601 14.8718C4.67639 14.8969 4.69064 14.9288 4.68996 14.9892C4.68928 15.0978 4.69064 15.207 4.70556 15.3135C4.808 16.0489 5.11395 16.696 5.60579 17.2442C6.35677 18.0806 7.29973 18.5297 8.42993 18.5677C8.48624 18.5698 8.51948 18.5888 8.55476 18.6315L8.60325 18.6907C8.70625 18.8165 8.80945 18.9426 8.9238 19.0575C9.31931 19.4564 9.79079 19.7359 10.326 19.9014C10.4958 19.9538 10.6701 19.993 10.8469 20.0327L10.847 20.0327L10.847 20.0327C10.9266 20.0506 11.0068 20.0686 11.0872 20.088C11.0872 20.0914 11.0872 20.107 11.0865 20.1226L11.0751 20.4084C11.0598 20.7901 11.0445 21.1717 11.0309 21.5533C11.0289 21.6096 11.0078 21.6361 10.959 21.6592C10.8115 21.7276 10.6644 21.7969 10.5174 21.8661L10.5168 21.8664L10.5165 21.8665C10.2879 21.9742 10.0593 22.0819 9.82946 22.1863C9.72634 22.2331 9.65307 22.3036 9.60287 22.3986C9.54385 22.5099 9.50247 22.7161 9.60966 22.8226C9.65128 22.8636 9.70088 22.8753 9.73806 22.8841L9.73923 22.8843C9.89051 22.9176 10.0269 22.8511 10.0866 22.8206C10.3302 22.6974 10.5811 22.5897 10.832 22.4819C10.9724 22.4216 11.1128 22.3612 11.252 22.2982C11.2968 22.2779 11.3301 22.2792 11.3667 22.3125C11.3867 22.3301 11.4092 22.3455 11.4317 22.3609L11.4317 22.361C11.442 22.368 11.4523 22.3751 11.4623 22.3823C11.2934 22.6421 11.4183 22.8776 11.6129 22.9637C11.7622 23.0295 11.8348 23.0098 11.9284 22.8748C11.9644 22.8226 12.0159 22.7948 12.0838 22.8185C12.2974 22.8952 12.5098 22.8084 12.6143 22.6069C12.6319 22.573 12.6651 22.5404 12.6997 22.5248C12.7814 22.4873 12.864 22.4523 12.9467 22.4172C13.0151 22.3882 13.0836 22.3592 13.1515 22.3287C13.199 22.3077 13.2377 22.3084 13.2859 22.3301C13.4496 22.4047 13.6139 22.4784 13.7782 22.5521L13.7794 22.5526L13.7801 22.5529L13.7801 22.5529L13.7802 22.5529C14.0666 22.6814 14.3531 22.8099 14.6372 22.9434C14.8021 23.0207 14.9608 23.0119 15.1216 22.9583C15.3238 22.8911 15.4147 22.7202 15.3475 22.5363C15.3068 22.4251 15.2274 22.3457 15.1175 22.2962C14.9025 22.1998 14.6876 22.103 14.4727 22.0062C14.2578 21.9093 14.0429 21.8125 13.8279 21.7161C13.7858 21.6978 13.7621 21.6775 13.756 21.6266C13.7384 21.4828 13.7177 21.3396 13.697 21.1964C13.6867 21.1247 13.6764 21.0531 13.6664 20.9814C13.6433 20.8153 13.6204 20.6493 13.5976 20.4832C13.5595 20.2063 13.5214 19.9294 13.4819 19.6525C13.4751 19.6036 13.4799 19.5758 13.5247 19.5487C13.8367 19.3628 14.1115 19.1315 14.3564 18.8642C14.6019 18.5955 14.8102 18.3011 14.952 17.9674C15.032 17.7791 15.0976 17.5847 15.1652 17.3845ZM16.8471 3.53383C16.7899 3.56047 16.7319 3.5875 16.6724 3.61461L16.6503 3.50052C16.6326 3.40923 16.6152 3.31977 16.5998 3.22996C16.5919 3.18477 16.5827 3.13964 16.5735 3.0945C16.5409 2.93433 16.5083 2.77398 16.5326 2.60991L16.5327 2.60954L16.5327 2.60953C16.5544 2.46447 16.5768 2.31469 16.6344 2.18185C16.6948 2.04142 16.7708 2.03735 16.8922 2.133C17.1371 2.32634 17.4105 2.40572 17.7185 2.34263C17.9077 2.30396 18.0678 2.20763 18.2056 2.0733C18.2241 2.05496 18.2425 2.03635 18.2608 2.01772C18.3002 1.97778 18.3396 1.93779 18.3813 1.90031C18.4857 1.8067 18.6282 1.83044 18.6845 1.95662C18.8643 2.35687 19.4898 2.63569 19.9979 2.33109C20.0521 2.29785 20.1464 2.29446 20.2068 2.31753C20.2903 2.34873 20.3574 2.40843 20.3513 2.52783C20.3398 2.75441 20.3065 2.96539 20.162 3.15398C20.0751 3.26743 19.9976 3.38812 19.9222 3.50573L19.9222 3.50577L19.922 3.50599L19.9218 3.50628C19.8891 3.55727 19.8568 3.60768 19.8242 3.65667C19.7783 3.62365 19.7334 3.59033 19.6889 3.5573L19.6888 3.55722C19.5862 3.48104 19.4858 3.40651 19.3799 3.34122C19.0759 3.1533 18.7388 3.05562 18.3847 3.06579C18.1635 3.0719 17.941 3.12278 17.7253 3.17841C17.5687 3.21888 17.4181 3.28268 17.2684 3.34613L17.1981 3.37582C17.0809 3.42482 16.9658 3.47847 16.8471 3.53383ZM20.3635 4.84861C20.6281 4.8581 21.0643 5.20476 21.2515 5.57516C20.9191 5.48901 20.5949 5.48155 20.2801 5.54328L20.2969 5.40247C20.3187 5.22051 20.3409 5.03499 20.3635 4.84861ZM12.9341 21.1291L13.0138 21.6246C12.7574 21.7392 12.5023 21.8532 12.2459 21.9651C12.231 21.9712 12.2045 21.9658 12.1896 21.9563C12.0688 21.8749 11.9488 21.7928 11.8321 21.706C11.8124 21.691 11.8022 21.6517 11.8029 21.6246C11.8131 21.2887 11.8244 20.9529 11.8357 20.617L11.847 20.2813C11.8484 20.2385 11.8479 20.1956 11.8474 20.1559C11.8472 20.1372 11.847 20.1192 11.847 20.1022C12.0316 20.066 12.2119 20.0307 12.3917 19.9956L12.3926 19.9954L12.7411 19.9272C12.803 20.3139 12.8661 20.7065 12.9299 21.1029L12.9303 21.1056L12.9315 21.1128L12.9333 21.1241L12.9337 21.1262L12.9341 21.1291ZM19.8887 7.86677L19.8887 7.8665C19.8934 7.75305 19.9048 7.48121 19.7577 7.18702L19.7563 7.18418C19.6748 7.0225 19.5438 6.76266 19.2706 6.69926C19.0488 6.6477 18.8589 6.75353 18.8276 6.77117C18.7062 6.84104 18.6438 6.93263 18.5794 7.0276C18.4545 7.21077 18.4159 7.38444 18.3955 7.47738C18.3636 7.62526 18.3562 7.77858 18.3731 7.938C18.4057 8.23989 18.5074 8.51124 18.713 8.73918C18.947 8.99833 19.2496 9.01122 19.5006 8.77175C19.7767 8.50785 19.8764 8.17273 19.8887 7.86677ZM2.85355 9.86464C2.7484 10.1468 2.7077 10.4345 2.69345 10.7309C2.66903 11.2092 2.73212 11.6712 2.89358 12.1203C3.14797 12.8292 3.58893 13.3943 4.21508 13.8129C4.46541 13.9804 4.73745 14.1032 5.02237 14.2009C5.25574 14.2803 5.37378 14.454 5.37446 14.6989L5.37435 14.7678C5.37388 14.9801 5.3734 15.1918 5.4138 15.403C5.50403 15.8793 5.69873 16.3053 5.99993 16.6825C6.31946 17.0827 6.72039 17.3744 7.19322 17.5691C7.62061 17.7455 8.06699 17.8188 8.52762 17.8052C8.70265 17.8005 8.82272 17.8744 8.92448 18.0094L8.93737 18.0266C9.04237 18.1669 9.14864 18.3089 9.27182 18.4327C9.50247 18.6627 9.75483 18.8486 10.0282 18.991C10.4984 19.2359 10.9176 19.297 11.1035 19.3167C11.229 19.3296 11.4603 19.3452 11.7473 19.3126C11.9284 19.2916 12.2757 19.2407 12.6678 19.0541C13.5213 18.6478 14.0708 17.9802 14.3489 17.0848C14.384 16.9716 14.4081 16.8555 14.4321 16.7394L14.4321 16.7394L14.4321 16.7394L14.4321 16.7393C14.4462 16.6716 14.4602 16.6038 14.4764 16.5366C14.5009 16.4362 14.5585 16.3786 14.6657 16.3379C14.8222 16.2786 14.9792 16.2793 15.1371 16.2801C15.1654 16.2803 15.1937 16.2804 15.222 16.2802C15.6039 16.2775 15.9764 16.2252 16.3318 16.0773C16.9187 15.8338 17.3786 15.4397 17.713 14.9017C17.732 14.8712 17.8379 14.6975 17.9295 14.4763C18.1805 13.8739 18.1974 13.2267 18.1988 12.7844C18.2023 11.8318 18.1802 11.5956 18.1566 11.3424C18.1441 11.2095 18.1313 11.0718 18.1214 10.8232L18.1088 10.5183C18.0918 10.1118 18.0749 9.70535 18.0597 9.29886C18.057 9.22898 18.0522 9.16589 18.0068 9.10619C17.7504 8.7731 17.6303 8.38845 17.5998 7.97531C17.5787 7.68564 17.6031 7.39732 17.6961 7.12054L17.7023 7.10223C17.7568 6.93981 17.8522 6.65598 18.1004 6.37906C18.1242 6.3526 18.5047 5.93403 18.7944 5.91097L18.8004 5.9105C18.8279 5.90838 18.8859 5.90393 18.9538 5.87501C19.0379 5.84042 19.1051 5.78207 19.1675 5.70745L19.1833 5.68912C19.2109 5.65718 19.2387 5.62493 19.2632 5.59077C19.4375 5.34519 19.5271 5.0779 19.4965 4.77059C19.4866 4.6714 19.4433 4.5936 19.3996 4.51492C19.3835 4.48598 19.3673 4.45693 19.3527 4.42665C19.2028 4.11933 18.9593 3.92531 18.6445 3.81474C18.5258 3.77268 18.4043 3.74418 18.272 3.76657C17.9736 3.81677 17.6947 3.91853 17.4268 4.05557C17.3118 4.11426 17.1955 4.17073 17.0792 4.22721L17.0791 4.22721C16.8311 4.34764 16.5832 4.46803 16.3481 4.60981C15.8217 4.92798 15.3617 5.33298 14.9466 5.78886C14.0273 6.79898 13.4304 7.97057 13.1719 9.31242C13.1521 9.41589 13.1372 9.52013 13.1224 9.62442L13.1224 9.62444L13.1224 9.62446L13.1224 9.62448C13.1093 9.71641 13.0962 9.80838 13.0796 9.89991C13.0606 10.0037 13.0118 10.0885 12.8876 10.1007C12.8666 10.1024 12.8462 10.1099 12.8257 10.1174C12.8058 10.1247 12.7859 10.132 12.7655 10.134C12.6835 10.1435 12.5993 10.153 12.5166 10.1482C12.4631 10.1451 12.4098 10.1369 12.3564 10.1287C12.3049 10.1208 12.2535 10.1129 12.2018 10.1095C11.5356 10.0648 10.8721 10.0885 10.2155 10.2194C10.1375 10.2349 10.0781 10.2517 10.0268 10.2662L9.99295 10.2757C9.57438 10.3877 8.61039 10.6556 7.64503 11.3564C7.60501 11.3856 6.77466 12.085 6.53586 12.3435C6.51159 12.3697 6.48779 12.3965 6.46399 12.4233C6.40663 12.4878 6.3493 12.5524 6.28554 12.6094C6.24212 12.6488 6.17496 12.6793 6.1173 12.682C5.94091 12.6908 5.77606 12.5185 5.75503 12.3191C5.74689 12.237 5.7591 12.1596 5.81609 12.0965C5.98443 11.9116 6.15351 11.727 6.32251 11.5425L6.32287 11.5421L6.32305 11.5419L6.32378 11.5411L6.49787 11.351C6.51076 11.3367 6.52365 11.3225 6.54061 11.3042C5.40838 11.2343 4.02649 10.8096 2.85355 9.86464ZM12.4225 15.241C12.6368 15.2437 12.9347 15.2302 13.282 15.1589C13.9577 15.0212 14.4231 14.7451 14.5798 14.6468C14.8396 14.4839 15.0804 14.2886 15.3016 14.0593C15.4881 13.8659 15.6693 13.6549 15.7995 13.4229C16.0824 12.9189 16.0627 12.4026 15.7554 11.9088C15.4915 11.4848 15.1184 11.2107 14.611 11.1741C14.3654 11.1558 14.1137 11.1768 13.8674 11.206C13.1965 11.2846 12.5738 11.5112 12.0154 11.8891C11.7547 12.0651 11.5076 12.2612 11.2606 12.4573C11.1773 12.5235 11.0939 12.5896 11.0101 12.655C10.6261 12.9542 10.1973 13.1719 9.74418 13.3409C9.3887 13.4731 9.01966 13.5573 8.64112 13.5952C8.50747 13.6081 8.40164 13.699 8.37247 13.8307C8.31549 14.0864 8.3718 14.2933 8.68182 14.374C9.5081 14.5884 10.3344 14.8055 11.1593 15.026C11.5738 15.1366 11.9883 15.2431 12.4225 15.241ZM12.512 15.9737C12.1545 15.9744 11.8017 15.9248 11.4578 15.84C10.8917 15.7014 10.328 15.5536 9.7643 15.4058C9.59164 15.3605 9.41898 15.3152 9.24624 15.2702C9.16704 15.2496 9.08758 15.2299 9.00813 15.2102C8.79701 15.1577 8.58597 15.1053 8.37994 15.0368C7.47089 14.7356 7.38338 13.6739 7.92338 13.1543C8.07195 13.0105 8.25715 12.9189 8.46541 12.9182C9.10039 12.9182 9.6587 12.6916 10.1702 12.3429C10.4735 12.1353 10.7597 11.9006 11.0426 11.6652C11.6803 11.1347 12.4089 10.7908 13.2067 10.5852C13.59 10.4862 13.9787 10.4143 14.3729 10.4007C14.7568 10.3871 15.1245 10.478 15.4678 10.6565C16.1536 11.0126 16.5559 11.5825 16.6821 12.3355C16.7852 12.9548 16.6373 13.5369 16.2947 14.0559C16.0939 14.3612 15.8151 14.6074 15.5315 14.8408C14.9481 15.3211 14.2928 15.661 13.5574 15.8407C13.3851 15.8828 13.2101 15.916 13.0351 15.9377C12.9169 15.9526 12.7976 15.9585 12.6782 15.9645L12.6781 15.9645C12.6227 15.9673 12.5673 15.97 12.512 15.9737ZM18.7424 5.12756C18.7431 4.91522 18.5715 4.74291 18.3591 4.74359C18.1509 4.74427 17.9799 4.91455 17.9792 5.12281C17.9779 5.33515 18.1502 5.50746 18.3619 5.50678C18.5708 5.5061 18.7411 5.33583 18.7424 5.12756Z" fill="#0C1E3C"/>
</svg>
