<svg width="24" height="24" viewBox="0 0 24 24" fill="none" xmlns="http://www.w3.org/2000/svg">
<path fill-rule="evenodd" clip-rule="evenodd" d="M22.3483 0.317078C22.3182 0.169783 22.2388 0.0573439 22.0946 0H21.9079C21.7089 0.0595927 21.6317 0.203515 21.6329 0.401407V0.828676V3.74759C21.6329 3.7764 21.6312 3.80521 21.6294 3.83823L21.6284 3.85553L21.5991 3.85738C21.5748 3.85894 21.553 3.86034 21.5311 3.86116C21.4955 3.8619 21.46 3.8624 21.4245 3.8629L21.4245 3.8629L21.4245 3.8629L21.4244 3.8629L21.4244 3.8629L21.4244 3.8629L21.4243 3.8629C21.353 3.8639 21.2819 3.8649 21.2103 3.8679C20.8905 3.8814 20.6111 3.99159 20.3819 4.22096C20.203 4.39974 20.1762 4.62012 20.307 4.83713C20.3819 4.96193 20.4881 5.05413 20.6122 5.12722C20.7642 5.21492 20.9285 5.26552 21.1018 5.28576C21.3959 5.32062 21.682 5.29588 21.9448 5.14633C22.1997 5.00241 22.3327 4.77866 22.3472 4.48519C22.3506 4.41548 22.3539 4.34577 22.3539 4.27718C22.3562 3.64415 22.3584 3.01224 22.3618 2.37921C22.3618 2.17794 22.3629 1.97668 22.3651 1.77541C22.3651 1.75117 22.368 1.72693 22.3713 1.69935C22.3726 1.68856 22.3739 1.67724 22.3752 1.66522C22.384 1.66987 22.3917 1.67357 22.3986 1.67685C22.4099 1.6823 22.4189 1.68659 22.4266 1.69221C22.5183 1.7608 22.6099 1.82938 22.6994 1.90022C22.8771 2.04077 22.9934 2.2173 23.0303 2.44667C23.0448 2.53438 23.0806 2.62095 23.122 2.69966C23.1812 2.80873 23.2818 2.8627 23.407 2.85258C23.5244 2.84358 23.6273 2.79748 23.7089 2.70978C23.7603 2.65581 23.7894 2.59284 23.7961 2.51526C23.8106 2.35222 23.7894 2.19706 23.7212 2.04864C23.6262 1.84063 23.4965 1.6596 23.3232 1.50893C23.1477 1.35714 22.9722 1.20535 22.8033 1.04681C22.5876 0.845542 22.4098 0.618415 22.3483 0.317078ZM1.01316 19.2573L1.01317 19.2573C1.02389 19.233 1.03458 19.2086 1.04248 19.1832C1.07937 19.0685 1.13639 18.9696 1.22247 18.883C1.40805 18.6964 1.59307 18.5092 1.77809 18.3219C1.96311 18.1347 2.14813 17.9475 2.33371 17.7609L4.42282 15.6577L4.43275 15.6477L4.43471 15.6458L4.43966 15.6408C5.82745 14.2437 7.21525 12.8467 8.60205 11.4497C8.77764 11.2728 8.95357 11.0963 9.12951 10.9197L9.1306 10.9186L9.13169 10.9175L9.13313 10.9161L9.13349 10.9157C9.66529 10.3821 10.1971 9.84854 10.7194 9.30545C10.8945 9.1233 11.0551 8.92658 11.2157 8.72986L11.2157 8.72981L11.2157 8.7298L11.2157 8.72979L11.2157 8.72978L11.2158 8.72977L11.2158 8.72977L11.2158 8.72976L11.2158 8.72975L11.2158 8.72974C11.3228 8.59863 11.4298 8.46752 11.5411 8.34073C11.853 7.98654 12.014 7.57052 12.0856 7.11289C12.1067 6.97942 12.1254 6.84594 12.144 6.71258L12.144 6.71251L12.144 6.71247L12.144 6.71244L12.144 6.71241L12.144 6.71239L12.144 6.71237V6.71236V6.71235C12.1648 6.56382 12.1855 6.41543 12.2097 6.26735C12.4344 4.86749 13.5076 3.73635 14.8838 3.43951C15.4338 3.32145 15.9805 3.33944 16.5272 3.44963C16.8872 3.52272 17.2371 3.62728 17.5658 3.79369C18.2097 4.11752 18.6904 4.60325 18.9867 5.26552C19.0593 5.43081 19.1275 5.59834 19.1879 5.76812C19.2483 5.9424 19.3589 6.05822 19.5255 6.13917C20.0342 6.38766 20.5395 6.64515 21.0437 6.90376C21.1287 6.94648 21.2114 7.00158 21.2807 7.06679C21.4663 7.24107 21.4786 7.4682 21.3131 7.6616C21.2561 7.72794 21.1857 7.78865 21.1108 7.837C20.3707 8.30362 19.6295 8.768 18.8883 9.23237C18.8772 9.23922 18.866 9.2459 18.8547 9.25261C18.8364 9.26352 18.818 9.2745 18.8 9.28634C18.6423 9.39203 18.5965 9.50222 18.6446 9.68775C18.7363 10.0442 18.8302 10.3995 18.9285 10.7537C19.0683 11.2518 19.1812 11.7555 19.2483 12.2693C19.3187 12.8181 19.3399 13.369 19.3031 13.9222C19.1957 15.5672 18.5853 17.0109 17.5892 18.3028C17.2181 18.7841 16.8111 19.2327 16.3584 19.6375C15.7491 20.1828 15.0571 20.5966 14.3069 20.9148C14.0979 21.0038 14.0979 21.0047 14.0968 21.227L14.0968 21.2341C14.0962 21.2864 14.0934 21.3383 14.0906 21.3903L14.0906 21.3904C14.0878 21.4424 14.085 21.4944 14.0845 21.5467C14.0834 21.6434 14.0867 21.7401 14.0956 21.8368C14.1024 21.9177 14.1471 21.983 14.2209 22.0167C14.3081 22.056 14.3986 22.0909 14.4903 22.1224C14.5589 22.1465 14.6281 22.1692 14.6971 22.192L14.6974 22.1921L14.6974 22.1921L14.6975 22.1921L14.6975 22.1921L14.6975 22.1921L14.6976 22.1921L14.6976 22.1921L14.6976 22.1921L14.6976 22.1921L14.6976 22.1921C14.8151 22.2308 14.9324 22.2694 15.047 22.3147C15.1488 22.3551 15.2483 22.4102 15.3343 22.4777C15.4942 22.6025 15.5367 22.7824 15.4685 22.9713C15.3969 23.1703 15.2516 23.2794 15.0448 23.2726C14.9464 23.2693 14.8447 23.2513 14.7519 23.2175C14.497 23.122 14.2443 23.0196 13.9939 22.9117C13.7312 22.797 13.4685 22.779 13.2002 22.8825C13.0671 22.9342 12.933 22.9533 12.7944 22.9184C12.6177 22.8735 12.5193 22.7554 12.478 22.5823C12.4344 22.4024 12.4634 22.2393 12.611 22.1201C12.6792 22.0662 12.7664 22.0313 12.8491 21.9998C12.9186 21.9727 12.9918 21.9528 13.0658 21.9326L13.0658 21.9326C13.093 21.9252 13.1203 21.9177 13.1476 21.9099V21.3713C12.6899 21.4355 12.2349 21.4989 11.7822 21.5619L10.9799 21.6737C10.9772 21.6802 10.9746 21.685 10.9725 21.6888L10.9725 21.6888C10.9696 21.6943 10.9676 21.6979 10.9676 21.7019L10.9679 21.9865C10.9681 22.1765 10.9684 22.3667 10.9676 22.5564C10.9676 22.5991 10.9855 22.6306 11.0213 22.6508C11.0571 22.6711 11.094 22.6902 11.132 22.7059C11.2284 22.7444 11.3252 22.7825 11.4219 22.8207L11.4221 22.8207L11.4224 22.8209L11.4228 22.821L11.4231 22.8211L11.4235 22.8213L11.4238 22.8214L11.4244 22.8216C11.6094 22.8945 11.7945 22.9674 11.9783 23.0433C12.0632 23.0792 12.1482 23.1242 12.2175 23.1838C12.3595 23.303 12.3885 23.4627 12.3382 23.6381C12.2857 23.8168 12.1817 23.945 11.9894 23.981C11.9704 23.9846 11.9513 23.9905 11.9328 23.9962L11.9201 24.0001H11.8989C11.8778 23.9948 11.8564 23.9904 11.8349 23.986C11.7925 23.9773 11.75 23.9686 11.7099 23.9529C11.5703 23.9011 11.432 23.8462 11.2939 23.7914L11.151 23.7348C11.1116 23.7192 11.0725 23.7031 11.0335 23.6871C10.9542 23.6545 10.8753 23.6221 10.7943 23.5942C10.6468 23.5436 10.4947 23.5133 10.3371 23.5211C10.2074 23.5279 10.0844 23.5605 9.96595 23.6099C9.86757 23.6504 9.76583 23.6605 9.66186 23.6324C9.44834 23.5728 9.31642 23.3615 9.33095 23.104C9.34213 22.8948 9.4897 22.7419 9.71553 22.7059C9.77254 22.6958 9.83067 22.6846 9.88657 22.6677C9.97824 22.6396 10.0297 22.5733 10.0364 22.4766C10.0397 22.4249 10.0386 22.3731 10.0375 22.3214V22.3214C10.0353 22.1054 10.032 21.8905 10.0287 21.6746L10.0287 21.674L10.0286 21.6648V21.5433C9.93688 21.5265 9.86198 21.5433 9.78596 21.5714C8.51709 22.0347 7.21915 22.3799 5.8709 22.5035C5.51518 22.5353 5.15782 22.5522 4.80092 22.5691L4.80084 22.5691L4.80077 22.5691L4.80069 22.5691L4.80062 22.5691L4.80054 22.5691L4.80047 22.5691L4.80039 22.5691L4.80031 22.5691L4.80024 22.5691L4.61992 22.5778C4.53942 22.5811 4.45446 22.562 4.37732 22.535C4.2018 22.4732 4.10454 22.3214 4.10678 22.1336C4.1079 22.0156 4.14702 21.9087 4.2018 21.8064C4.35273 21.522 4.50477 21.2375 4.65681 20.953C4.84127 20.6112 5.02573 20.2694 5.20908 19.9276C5.21309 19.9201 5.21734 19.9126 5.22162 19.9051C5.24235 19.8688 5.26386 19.8312 5.26386 19.778H5.14647C4.99791 19.7786 4.84963 19.7794 4.70134 19.7803C4.55281 19.7811 4.40428 19.782 4.25547 19.7825C3.80867 19.7831 3.36187 19.7839 2.91507 19.7848C2.46751 19.7856 2.01995 19.7865 1.57239 19.787C1.48295 19.787 1.3924 19.7803 1.3052 19.7634C1.18334 19.7398 1.09055 19.6735 1.04025 19.5531C1.03428 19.5397 1.02435 19.5272 1.01441 19.5147C1.00944 19.5084 1.00447 19.5022 1 19.4958V19.2878C1.00426 19.2776 1.00872 19.2674 1.01316 19.2573ZM12.0543 20.5921C12.0509 20.5865 12.0476 20.582 12.0442 20.5775L12.0842 20.5516C12.1108 20.5344 12.1374 20.5171 12.165 20.4999C12.7955 20.112 13.407 19.6959 13.9682 19.208C14.4948 18.7503 14.9811 18.2545 15.3768 17.6732C15.777 17.0851 16.0342 16.442 16.1303 15.7325C16.1773 15.3907 16.2019 15.0488 16.1907 14.7048C16.1504 13.577 15.7066 12.6449 14.8503 11.9129C14.3975 11.5261 13.8709 11.2934 13.2907 11.1843C12.5596 11.046 11.8407 11.1 11.142 11.3642C10.8167 11.4879 10.5137 11.6521 10.2499 11.8826C10.1884 11.9354 10.1314 12.0006 10.0889 12.0703C10.0084 12.2008 10.0073 12.3424 10.0822 12.4762C10.1772 12.6471 10.3114 12.7641 10.5193 12.7585C10.6199 12.7562 10.7094 12.718 10.7865 12.6561C11.1499 12.3672 11.568 12.2064 12.0196 12.1232C12.7027 11.9984 13.3544 12.0771 13.9548 12.4459C14.5898 12.8349 14.9833 13.4072 15.1499 14.1291C15.3835 15.1489 15.2102 16.108 14.6613 16.9974C14.345 17.509 13.9403 17.9441 13.4998 18.3478C12.7183 19.0618 11.8363 19.6206 10.8849 20.0726C9.6954 20.6382 8.45783 21.0655 7.1666 21.3263C6.60428 21.4399 6.03748 21.5197 5.46732 21.5759C5.45834 21.5766 5.44898 21.5757 5.43735 21.5747L5.4373 21.5747C5.42869 21.5739 5.41883 21.573 5.40695 21.5726C5.41364 21.5583 5.41954 21.5449 5.42513 21.5323L5.42518 21.5322L5.42519 21.5322C5.43454 21.511 5.44301 21.4919 5.45279 21.4736L5.45373 21.4718C6.09959 20.2648 6.74545 19.0578 7.39243 17.8508C7.44944 17.744 7.49193 17.6383 7.44833 17.5146C7.39131 17.3538 7.32423 17.202 7.16437 17.12C7.02351 17.0469 6.88376 17.0626 6.75408 17.1537C6.67247 17.211 6.61769 17.2898 6.57186 17.3763C6.34603 17.7991 6.1202 18.2207 5.89326 18.6413L5.88743 18.6522C5.87279 18.6798 5.85862 18.7065 5.84183 18.7323C5.796 18.7987 5.7401 18.8324 5.65178 18.8324C4.68554 18.8324 3.72042 18.8358 2.75418 18.8392H2.75412H2.75406H2.75399H2.75393H2.75386H2.7538H2.75373H2.75367H2.7536H2.75354L2.75183 18.8392H2.61208C2.61816 18.8302 2.62332 18.8222 2.62795 18.815L2.62809 18.8148L2.6282 18.8146L2.62821 18.8146L2.62825 18.8145C2.63968 18.7968 2.64795 18.784 2.65904 18.7728C3.02181 18.408 3.38458 18.0434 3.74736 17.6788C4.11013 17.3142 4.47291 16.9496 4.83568 16.5848C4.84686 16.5741 4.85804 16.5631 4.86922 16.5522C4.8804 16.5412 4.89158 16.5302 4.90276 16.5195C6.62216 14.7902 8.34157 13.0609 10.061 11.3305L10.0611 11.3304C10.5328 10.857 11.0046 10.3837 11.4707 9.90363C11.8273 9.53595 12.1471 9.13342 12.4567 8.72302C12.7306 8.35984 12.8871 7.94044 12.9743 7.49744C13.0155 7.28713 13.047 7.07466 13.0785 6.8619L13.0785 6.86176C13.0923 6.76857 13.1062 6.67532 13.1208 6.58218C13.2158 5.98963 13.4327 5.45329 13.8553 5.01703C14.2153 4.64598 14.6535 4.42335 15.1588 4.34127C15.8698 4.22658 16.5495 4.3424 17.1857 4.67746C17.7771 4.99004 18.1728 5.47241 18.3349 6.13243C18.4556 6.62153 18.4109 7.10615 18.2477 7.57839C18.1841 7.76182 18.1082 7.94137 18.0324 8.12096C18.0082 8.17806 17.9841 8.23515 17.9604 8.29238C17.8553 8.54874 17.7614 8.8096 17.7189 9.0862C17.6563 9.49435 17.6865 9.89688 17.7983 10.2927C17.8469 10.4673 17.9007 10.6406 17.9544 10.814L17.9545 10.8141C17.9983 10.9555 18.0422 11.097 18.0834 11.2394C18.2142 11.6858 18.3103 12.1412 18.3595 12.6044C18.3975 12.9676 18.3964 13.3319 18.3707 13.6973C18.3293 14.2741 18.2309 14.8408 18.0577 15.3929C17.4327 17.3775 16.2019 18.856 14.374 19.8286C13.6798 20.1985 12.9386 20.4369 12.1661 20.5763C12.1434 20.5805 12.1206 20.5834 12.0977 20.5863C12.0833 20.5881 12.0689 20.5899 12.0543 20.5921ZM19.1409 7.95731C19.1298 7.88198 19.2606 7.29617 19.331 7.10165C19.549 7.21184 19.7569 7.31641 19.9805 7.42885L19.6552 7.63376L19.6545 7.63422L19.6524 7.6355C19.48 7.74417 19.3109 7.85074 19.1409 7.95731ZM15.6071 6.32605C15.5993 5.93026 15.9056 5.51199 16.4232 5.50974C16.8782 5.50749 17.2382 5.87966 17.2337 6.33392C17.2293 6.79492 16.8726 7.15135 16.4154 7.15022C15.9604 7.1491 15.606 6.78705 15.6071 6.32605ZM15.3678 10.6576C15.6059 10.6543 15.8395 10.5092 15.8362 10.1888C15.8362 9.9043 15.654 9.72103 15.3711 9.72103C15.0939 9.7199 14.9094 9.91105 14.9105 10.1966C14.9105 10.4575 15.1095 10.6621 15.3678 10.6576ZM7.72066 16.0356C7.97667 16.0367 8.17455 16.2335 8.17566 16.4887C8.17678 16.7732 7.98449 16.97 7.70501 16.97C7.42552 16.9688 7.24665 16.7833 7.24665 16.4944C7.24777 16.2133 7.43111 16.0345 7.72066 16.0356ZM9.57131 14.3941C9.55454 14.1153 9.3902 13.9331 9.10401 13.9309C8.81893 13.932 8.64118 14.1119 8.6423 14.4009C8.64341 14.6864 8.82564 14.8675 9.11072 14.8652C9.37455 14.863 9.58584 14.6572 9.57131 14.3941ZM8.40864 15.9129C8.12133 15.9141 7.9447 15.7375 7.94358 15.4486C7.94246 15.1382 8.15599 14.9819 8.40305 14.9808C8.64341 14.9808 8.86141 15.1169 8.86924 15.4429C8.87707 15.7274 8.69372 15.9118 8.40864 15.9129ZM14.4486 9.4912C14.4508 9.22023 14.2574 9.02458 13.9858 9.02346C13.6984 9.02233 13.5173 9.20111 13.5173 9.48896C13.5173 9.77118 13.694 9.94771 13.979 9.95108C14.2496 9.95445 14.4475 9.75993 14.4486 9.4912ZM16.3076 9.84055C16.3099 9.55046 16.4854 9.37168 16.7615 9.37281C17.0533 9.37393 17.2322 9.55271 17.2288 9.8383C17.2266 10.1261 17.0388 10.3094 16.7481 10.3072C16.4954 10.306 16.3054 10.1037 16.3076 9.84055ZM9.33621 13.3424C9.33173 13.6246 9.51508 13.8079 9.80351 13.809C10.0696 13.8101 10.2686 13.6167 10.2652 13.3536C10.263 13.1276 10.1322 12.8791 9.79792 12.8814C9.51731 12.8825 9.33956 13.0579 9.33621 13.3424Z" fill="#0C1E3C"/>
</svg>
