<svg width="24" height="24" viewBox="0 0 24 24" fill="none" xmlns="http://www.w3.org/2000/svg">
<path fill-rule="evenodd" clip-rule="evenodd" d="M16.5999 1.00852L16.5999 1.0085L16.5999 1.0085C16.5947 1.00563 16.5894 1.00276 16.5842 1.00012H10.3025C10.2968 1.00255 10.2912 1.00524 10.2856 1.00793L10.2856 1.00793C10.2749 1.01306 10.2641 1.0182 10.2528 1.0215C10.0888 1.06852 9.9945 1.17765 9.96936 1.34487C9.9598 1.40924 9.95654 1.47487 9.95628 1.54C9.95528 1.93897 9.95471 2.33789 9.95415 2.73677V2.73689V2.73701V2.73713V2.73725V2.73737V2.7375V2.73762V2.73774V2.73786V2.73798V2.7381V2.73822V2.73835V2.73847V2.73859V2.73871V2.73883V2.73895V2.73907V2.73919V2.73932V2.73944V2.73956V2.73968V2.7398V2.73992L9.95414 2.74239C9.95358 3.14158 9.95301 3.54074 9.95201 3.9399C9.95007 4.70554 9.94786 5.47118 9.94566 6.23679L9.94565 6.2374L9.94565 6.23801L9.94565 6.23861L9.94565 6.23922L9.94564 6.23982L9.94564 6.24043L9.94564 6.24103L9.94563 6.24164L9.94563 6.24224L9.94563 6.24284L9.94563 6.24345L9.94562 6.24405L9.94562 6.24465L9.94562 6.24526L9.94561 6.24586L9.94561 6.24646L9.94561 6.24707L9.94561 6.24767L9.9456 6.24827L9.9456 6.24887L9.9456 6.24948L9.94559 6.25008L9.94559 6.25069L9.94559 6.25131L9.94559 6.25193L9.94558 6.25255C9.94297 7.16513 9.94035 8.07768 9.93818 8.99015C9.93706 9.47502 9.93665 9.9599 9.93624 10.4447V10.4448V10.4449V10.445V10.4452V10.4453V10.4454V10.4455V10.4456V10.4457V10.4458V10.4459V10.446V10.4462V10.4463V10.4464V10.4465V10.4466V10.4467V10.4468V10.4469V10.447V10.4472V10.4473V10.4474V10.4475V10.4476L9.93541 11.2809C9.93466 11.9063 9.9334 12.5319 9.93189 13.1573C9.93189 13.1836 9.93034 13.2101 9.92863 13.2392L9.92636 13.2802H9.77473L7.66263 13.2806C5.7858 13.2809 3.90904 13.2811 2.03214 13.2835C1.615 13.2842 1.19787 13.2955 0.780896 13.3069H0.780853H0.780809H0.780765H0.780721H0.780677H0.780633H0.780589H0.780545H0.780501H0.780458H0.780415H0.780371H0.780329H0.780286H0.780243H0.780201H0.780158H0.780116H0.780073H0.78003H0.779988H0.779945H0.779903H0.77986H0.779817L0.779663 13.3069L0.582494 13.3122C0.470596 13.3152 0.357943 13.3295 0.247806 13.3504C0.137165 13.3713 0.0702774 13.4467 0.0521725 13.5584C0.0411084 13.6262 0.0328104 13.6954 0.0325589 13.764C0.0263191 15.2076 0.0207238 16.6511 0.0151282 18.0946L0.0109337 19.1741C0.0102373 19.3521 0.00921952 19.5299 0.00820176 19.7078L0.00820164 19.7078C0.00701436 19.9153 0.00582712 20.1228 0.00515017 20.3303C0.004581 20.4875 0.00385724 20.6446 0.00313343 20.8018C0.000659473 21.339 -0.00181502 21.8763 0.00188123 22.4136C0.00327416 22.6075 0.0261004 22.8018 0.048791 22.9949L0.0544356 23.043C0.0735463 23.2075 0.158287 23.2862 0.322991 23.3093C0.370915 23.3163 0.420248 23.3162 0.469008 23.3161H0.469025H0.469043H0.46906H0.469077H0.469094H0.469111H0.469128H0.469145H0.469162H0.46918H0.469197H0.469214H0.469231H0.469248H0.469265H0.469282H0.469299H0.469316H0.469333H0.46935H0.469367H0.469384H0.469401H0.469418H0.469435H0.469452L0.486186 23.3161C3.29961 23.3165 6.11318 23.3164 8.92668 23.3164L11.7401 23.3164C11.7599 23.3164 11.7797 23.3155 11.7995 23.3147C11.8343 23.3133 11.8691 23.3118 11.9036 23.3149C12.1598 23.3382 12.3791 22.9932 12.2631 22.741C12.1837 22.568 12.0429 22.4954 11.8618 22.4926C11.6556 22.4896 11.4493 22.4888 11.243 22.4881C11.1513 22.4877 11.0596 22.4874 10.9679 22.4868C10.9592 22.4868 10.9506 22.487 10.9419 22.4872C10.9214 22.4876 10.9008 22.488 10.8806 22.4861C10.806 22.4785 10.7856 22.4599 10.7775 22.3857C10.7723 22.3387 10.7723 22.2912 10.7723 22.2442L10.7723 22.2381L10.7723 22.2321L10.7723 22.2261L10.7722 22.2201L10.7722 22.2141L10.7722 22.2082L10.7722 22.2022L10.7722 22.1963L10.7722 22.1904L10.7722 22.1845L10.7722 22.1786L10.7722 22.1727L10.7722 22.167L10.7722 22.1612L10.7722 22.1555L10.7722 22.1498L10.7722 22.144L10.7722 22.1382L10.7722 22.1325L10.7722 22.1267L10.7722 22.1209L10.7722 22.1151L10.7722 22.1093L10.7722 22.1035L10.7722 22.0977L10.7722 22.0918L10.7722 22.086C10.7702 18.5751 10.7682 15.0644 10.7665 11.5537C10.7661 10.7466 10.7663 9.93927 10.7664 9.13201L10.7665 7.92121L10.7665 7.31638C10.7666 6.71073 10.7666 6.10501 10.7662 5.49943C10.7661 4.91039 10.7658 4.32136 10.7655 3.73232C10.7652 3.14328 10.7648 2.55425 10.7647 1.96521C10.7647 1.93919 10.7676 1.91327 10.7705 1.8867V1.88669V1.88668L10.7706 1.88664C10.772 1.87395 10.7734 1.86111 10.7745 1.84803H16.0461C16.0689 1.98005 16.0634 22.3975 16.0405 22.4808L16.0135 22.4823C15.9913 22.4836 15.9686 22.4849 15.9457 22.4851C15.8652 22.4856 15.7847 22.4859 15.7041 22.4862C15.6101 22.4865 15.5162 22.4868 15.4222 22.4876L15.3171 22.4883C15.1886 22.4891 15.06 22.4899 14.9316 22.4959C14.7488 22.5044 14.6017 22.6246 14.5557 22.7926C14.5107 22.9558 14.5748 23.1268 14.7201 23.2326C14.8026 23.2925 14.8954 23.3166 14.9965 23.3166L16.4002 23.3165C17.5681 23.3164 18.736 23.3163 19.9039 23.3156C19.9504 23.3156 19.9984 23.3098 20.0435 23.2978C20.2393 23.2452 20.3794 23.045 20.3533 22.8529C20.3221 22.6239 20.1171 22.4768 19.9441 22.4853C19.9224 22.4863 19.9006 22.486 19.8787 22.4856C19.8678 22.4855 19.8568 22.4853 19.8458 22.4853L19.2941 22.4853H19.2876C18.5541 22.4854 17.8205 22.4854 17.0868 22.4848C17.0461 22.4848 17.0052 22.481 16.9621 22.477L16.962 22.4769C16.9416 22.475 16.9206 22.4731 16.899 22.4715C16.8978 22.4525 16.8964 22.4349 16.8951 22.4181V22.4181C16.8923 22.3828 16.8898 22.3514 16.8899 22.3198C16.8925 21.8221 16.8952 21.3244 16.898 20.8267C16.9013 20.2301 16.9047 19.6335 16.9075 19.0368C16.9146 17.5208 16.9211 16.0045 16.9269 14.4885C16.9286 14.0211 16.9295 13.5536 16.9304 13.0863V13.0861V13.086V13.0858V13.0857V13.0855V13.0854V13.0852V13.0851V13.0849V13.0848V13.0846V13.0845V13.0843V13.0842V13.084V13.0839V13.0837V13.0836V13.0834V13.0833V13.0831V13.083V13.0828V13.0827V13.0825V13.0824L16.9304 13.0772C16.9311 12.704 16.9318 12.3309 16.9329 11.9578C16.9362 10.978 16.9405 9.99818 16.9447 9.01835L16.9448 9.01278C16.946 8.71455 16.9485 8.41658 16.9515 8.11835C16.9531 7.98784 16.9732 7.96898 17.1044 7.96597C17.1226 7.96543 17.1407 7.96553 17.1589 7.96563L17.1809 7.96571L17.7475 7.96775L17.7477 7.96775C18.1257 7.96921 18.5037 7.97066 18.8817 7.97099C19.3043 7.97153 19.7269 7.9715 20.1496 7.97146C20.5194 7.97143 20.8892 7.9714 21.259 7.97175C21.2998 7.97175 21.3407 7.97439 21.384 7.97719C21.4048 7.97853 21.4262 7.97991 21.4483 7.98105V8.13268V14.0562C21.4483 14.0667 21.448 14.0772 21.4477 14.0878V14.0878V14.0879V14.0879V14.088C21.4468 14.1139 21.446 14.14 21.4501 14.1651C21.4566 14.2036 21.4642 14.2461 21.4856 14.277C21.5811 14.4156 21.7192 14.4835 21.8849 14.4835C22.0418 14.4832 22.1481 14.3922 22.2246 14.2629C22.2726 14.1817 22.2771 14.0914 22.2771 13.9992C22.2766 12.5892 22.2766 11.1793 22.2765 9.76931L22.2764 7.65039L22.2765 7.6275C22.2766 7.59878 22.2768 7.56991 22.2746 7.54151C22.258 7.33255 22.1225 7.18268 21.9155 7.14823C21.8622 7.13943 21.8072 7.13767 21.7529 7.13767C20.2044 7.13717 18.6559 7.13717 17.1075 7.13717H16.9631C16.9622 7.1227 16.9612 7.1096 16.9603 7.09739L16.9603 7.09726C16.9584 7.07196 16.9568 7.05056 16.9568 7.02904C16.9505 5.86203 16.9445 4.69502 16.9392 3.52801C16.9375 3.18456 16.9368 2.84122 16.936 2.49792V2.49782V2.49772V2.49763V2.49753V2.49743V2.49733V2.49724V2.49714V2.49704V2.49695V2.49685V2.49675V2.49665V2.49656V2.49646V2.49636V2.49626V2.49617V2.49607V2.49597V2.49588V2.49578V2.49568V2.49558V2.49549V2.49539L16.9347 1.97904L16.9345 1.83501C16.9345 1.70482 16.9345 1.5747 16.9319 1.44445C16.9274 1.23121 16.8293 1.09718 16.6312 1.02376C16.6204 1.01977 16.6101 1.01413 16.5999 1.00852L16.5999 1.00852ZM0.836465 14.1782C0.921457 14.1525 9.65429 14.1407 9.93214 14.1664V14.3429V20.9313C9.93214 21.2102 9.93263 21.4892 9.93312 21.7682L9.93313 21.7698L9.9339 22.2728L9.93396 22.2947C9.93402 22.3093 9.93407 22.3239 9.9339 22.3385C9.93189 22.4627 9.91178 22.4858 9.78806 22.4868C9.6096 22.4881 9.43114 22.4877 9.25278 22.4872L9.04677 22.4868C9.00678 22.4868 8.9668 22.4864 8.92682 22.4861C8.88684 22.4857 8.84686 22.4853 8.80688 22.4853H2.23154C2.02975 22.4854 1.82802 22.4859 1.62629 22.4863L1.62265 22.4863C1.42213 22.4868 1.22161 22.4872 1.02103 22.4873C0.848032 22.4873 0.834705 22.4737 0.834705 22.302C0.835208 19.6295 0.835711 16.957 0.836465 14.2848V14.1782ZM19.2015 10.5986H20.5755L20.5937 10.5985C20.6168 10.5983 20.6398 10.5981 20.6625 10.6009C20.7166 10.6072 20.7457 10.6338 20.7447 10.6942C20.7431 10.7785 20.7428 10.8629 20.7425 10.9472V10.9475C20.7421 11.052 20.7417 11.1565 20.7389 11.2609C20.7362 11.3676 20.6839 11.4199 20.5777 11.4264C20.5013 11.4311 20.4245 11.4308 20.3479 11.4306L20.2944 11.4304C19.751 11.4311 19.2078 11.4315 18.6646 11.432H18.6644H18.6641H18.6639H18.6637H18.6634H18.6632H18.663H18.6628H18.6625H18.6623H18.6621H18.6618H18.6616H18.6614H18.6612H18.6609H18.6607H18.6605H18.6602H18.66H18.6598H18.6596H18.6593H18.6591H18.6589L17.8409 11.4327L17.8263 11.4327H17.8262C17.8093 11.4328 17.7923 11.4329 17.7755 11.4319C17.6521 11.4257 17.6083 11.3804 17.608 11.2544C17.6078 11.0872 17.6083 10.92 17.6098 10.7528C17.6111 10.623 17.6387 10.5951 17.773 10.5948C18.1299 10.5941 18.4867 10.5942 18.8436 10.5943H18.8436H18.8437H18.8437H18.8437H18.8437H18.8437H18.8438H18.8438H18.8438H18.8438H18.8439H18.8439H18.8439H18.8439H18.844H18.844H18.844H18.844H18.844H18.8441H18.8441H18.8441H18.8441H18.8442H18.8442L19.2015 10.5943V10.5986ZM20.7291 9.0768H17.6083L17.608 9.27321C17.6076 9.43673 17.6073 9.59535 17.6093 9.75397C17.6103 9.84223 17.6543 9.88624 17.7413 9.89831C17.765 9.90166 17.7894 9.90152 17.8137 9.90138L17.8283 9.90133C17.9073 9.90121 17.9863 9.9009 18.0653 9.90059C18.1642 9.9002 18.2632 9.89982 18.3621 9.89982L19.1711 9.89974C19.6205 9.89977 20.0699 9.89978 20.5191 9.89931C20.5657 9.89931 20.6124 9.89623 20.6615 9.893L20.6615 9.893L20.6617 9.89299L20.6618 9.89298C20.6841 9.89151 20.7069 9.89001 20.7304 9.88875L20.7311 9.74296C20.7324 9.51688 20.7337 9.29727 20.7291 9.0768ZM13.0649 10.2346L13.066 10.2516C13.0673 10.2724 13.0687 10.2937 13.0689 10.315C13.0696 10.7402 13.0701 11.1654 13.0704 11.5909L13.0706 11.6054C13.071 11.626 13.0713 11.6467 13.0689 11.6671C13.0591 11.7506 13.0193 11.7903 12.9354 11.7971C12.9054 11.7997 12.8753 11.7991 12.845 11.7984C12.8316 11.7981 12.8181 11.7979 12.8046 11.7979C12.4159 11.7981 12.0271 11.7981 11.6384 11.7979C11.4943 11.7976 11.4653 11.7694 11.4651 11.6269C11.4643 11.1871 11.4646 10.7473 11.4651 10.3075C11.4651 10.2879 11.4665 10.2683 11.4679 10.2492L11.4696 10.2237C11.5599 10.2009 12.955 10.1986 13.0641 10.2212L13.0649 10.2346ZM15.3583 14.0825V12.5225C15.2313 12.5001 13.8651 12.5046 13.7842 12.5268V14.0825H15.3583ZM13.7884 4.87114V3.30356H15.354V4.8631C15.2823 4.88573 13.9506 4.89377 13.7884 4.87114ZM13.7736 9.44307L13.7755 9.4777H15.3523V7.90157C15.3411 7.90075 15.3306 7.8998 15.3205 7.89889L15.3205 7.89889L15.3204 7.89888C15.2995 7.897 15.2805 7.89528 15.2616 7.89528C14.8185 7.89503 14.3754 7.89503 13.9324 7.89503L13.9188 7.8949H13.9188C13.9051 7.89472 13.8914 7.89453 13.8778 7.89604C13.8117 7.90358 13.7805 7.93375 13.7724 7.99888C13.7703 8.01536 13.7706 8.03197 13.7708 8.04863L13.7709 8.06426C13.7709 8.50381 13.7709 8.9436 13.7712 9.38315C13.7712 9.40226 13.7723 9.42138 13.7736 9.44303L13.7736 9.44307ZM13.0496 7.8989V9.4778H11.4722C11.4713 9.46618 11.4703 9.45509 11.4693 9.44435L11.4693 9.44427V9.44425V9.44424L11.4693 9.44422L11.4693 9.44412C11.4671 9.42102 11.4651 9.39955 11.4651 9.37797C11.4646 8.94219 11.4646 8.50642 11.4651 8.07065C11.4651 8.04173 11.4654 8.01206 11.4712 7.98415C11.482 7.93235 11.5154 7.90217 11.5687 7.89664C11.5848 7.89507 11.6011 7.8951 11.6173 7.89512L11.6233 7.89513C12.0734 7.89488 12.5235 7.89488 12.9739 7.89513C12.9882 7.89513 13.0026 7.89604 13.0205 7.89717L13.0496 7.8989ZM15.1802 11.798H15.3486C15.3715 11.6637 15.3667 10.291 15.3454 10.2128H13.7848L13.7811 10.2207L13.779 10.2247C13.7759 10.2306 13.7738 10.2347 13.7738 10.2387C13.7737 10.4354 13.7738 10.6321 13.7739 10.8288C13.774 11.1043 13.7742 11.3799 13.7738 11.6554C13.7738 11.7158 13.8057 11.7532 13.8552 11.7718C13.898 11.7877 13.9465 11.7952 13.9925 11.7955C14.2967 11.7972 14.6009 11.7975 14.9051 11.7977H14.9052H14.9052H14.9052H14.9053H14.9053H14.9054H14.9054H14.9054H14.9055H14.9055H14.9056H14.9056H14.9056H14.9057H14.9057H14.9058H14.9058H14.9058L15.1802 11.798ZM17.6266 14.4738H20.7233V13.6807H17.6266V14.4738ZM15.3537 7.17277H13.7843V5.61072H15.3537V7.17277ZM13.0411 4.87413H11.4841V3.30932H13.0374C13.0617 3.38903 13.066 4.75922 13.0411 4.87413ZM20.7281 12.9456V12.1528H17.6372C17.6136 12.3051 17.6206 12.8714 17.6458 12.9456H20.7281ZM13.046 7.17511H11.4875V5.6196C11.5622 5.59798 12.8476 5.58943 13.037 5.60979C13.0589 5.688 13.0674 6.96338 13.046 7.17511ZM11.4984 14.0845H13.0476V12.527C12.9176 12.5056 11.5701 12.5104 11.4896 12.531C11.4695 12.6942 11.4765 14.0065 11.4984 14.0845ZM20.0037 15.2076V16.0248C19.9879 16.0259 19.9726 16.0272 19.9576 16.0284L19.9576 16.0284C19.9238 16.0312 19.8917 16.0339 19.8596 16.0339C19.1689 16.0351 18.4784 16.0359 17.7876 16.0361C17.6413 16.0361 17.6081 16.0022 17.6078 15.8563L17.6076 15.7088C17.6074 15.5908 17.6071 15.4727 17.6084 15.3547C17.6096 15.24 17.6461 15.2008 17.7572 15.2008C18.3078 15.2002 18.8583 15.2005 19.4088 15.2008L19.9597 15.201C19.9667 15.201 19.9735 15.2023 19.9836 15.2041C19.9891 15.2051 19.9957 15.2063 20.0037 15.2076ZM19.1962 19.8253H17.6143C17.6142 19.8947 17.6137 19.9635 17.6132 20.032L17.6132 20.0326C17.6118 20.2303 17.6104 20.4248 17.6178 20.6181C17.7745 20.6415 19.118 20.6342 19.1962 20.6109V19.8253ZM19.1963 17.5544H17.6232C17.6219 17.5483 17.6203 17.5425 17.6187 17.5369C17.6153 17.5246 17.6122 17.5131 17.6122 17.5016V17.5012C17.6114 17.2981 17.6107 17.0951 17.6127 16.8918C17.6137 16.7761 17.6549 16.7351 17.7711 16.7351C18.2064 16.7349 18.6419 16.7359 19.0772 16.7376C19.1901 16.7381 19.2026 16.7515 19.2029 16.8624C19.2034 17.062 19.2034 17.2617 19.2029 17.4613C19.2027 17.4792 19.2011 17.4971 19.1994 17.5172L19.1994 17.5173C19.1983 17.5288 19.1973 17.541 19.1963 17.5544ZM19.1969 19.0808V18.2744H19.089L18.6519 18.2751C18.3615 18.2755 18.0712 18.276 17.7809 18.2767C17.6471 18.2772 17.6129 18.3104 17.6119 18.4439C17.6104 18.6327 17.6112 18.8218 17.6119 19.0109C17.6119 19.0272 17.6149 19.0435 17.6178 19.059C17.6192 19.0664 17.6205 19.0737 17.6215 19.0808H19.1969ZM9.20808 20.1768V21.0424C9.19867 21.0435 9.18947 21.0449 9.1804 21.0463C9.16113 21.0492 9.14248 21.0521 9.12384 21.0519C7.93193 21.0512 6.74003 21.0499 5.54838 21.0481C5.26964 21.0478 4.991 21.047 4.7124 21.0462L4.70935 21.0462L4.20761 21.0449L3.24077 21.0429L3.2337 21.0429C2.80612 21.042 2.37858 21.0412 1.95105 21.0401C1.84946 21.0398 1.74762 21.0381 1.64603 21.0336C1.54771 21.0293 1.51527 21.0006 1.50999 20.9013C1.50069 20.7273 1.4949 20.5528 1.49289 20.3785C1.49189 20.286 1.53338 20.2382 1.6244 20.2181C1.67017 20.208 1.71795 20.2048 1.76472 20.2042C2.00153 20.2021 2.23832 20.1997 2.4751 20.1973C3.16482 20.1904 3.85444 20.1834 4.54406 20.1814C5.58119 20.178 6.61845 20.1778 7.65565 20.1775C8.11195 20.1773 8.56824 20.1772 9.02451 20.1768H9.20808ZM1.50328 18.66V19.4569H9.20564C9.22651 19.3249 9.22223 18.7423 9.20036 18.66H1.50328ZM9.20984 17.1314V17.924H1.50823V17.1402C1.59021 17.1181 9.00968 17.109 9.20984 17.1314ZM9.21331 16.3922V15.6125C9.13435 15.5871 1.62033 15.5835 1.51371 15.6089V16.3922H9.21331ZM21.8406 23.5383C21.8327 23.536 21.8249 23.5334 21.817 23.5308L21.817 23.5308L21.817 23.5308L21.817 23.5308C21.8013 23.5257 21.7856 23.5205 21.7697 23.5172C21.5683 23.4747 21.4694 23.355 21.4684 23.1516L21.4684 23.1048C21.4684 23.084 21.4685 23.0633 21.4682 23.0424L21.4622 22.6088L21.4622 22.608L21.4622 22.6072L21.4621 22.6065C21.4574 22.2691 21.4527 21.9317 21.4488 21.5943C21.4473 21.4708 21.4461 21.3469 21.4528 21.2236C21.4591 21.1085 21.4119 21.0308 21.3166 20.9712C21.0633 20.813 20.8204 20.641 20.5976 20.4416C20.2459 20.127 19.9642 19.7614 19.791 19.3191C19.539 18.6754 19.5795 18.0382 19.8458 17.4101C20.0573 16.9117 20.3743 16.4839 20.7475 16.096C21.0206 15.8123 21.3228 15.5626 21.644 15.335C21.6588 15.3245 21.6736 15.3144 21.6887 15.3039C21.7767 15.2423 21.8627 15.2418 21.949 15.3094C22.0158 15.3619 22.0834 15.4135 22.151 15.4651C22.2885 15.5701 22.426 15.6751 22.5575 15.7872C22.998 16.1631 23.371 16.5966 23.6398 17.1136C23.7914 17.405 23.9076 17.7095 23.9664 18.0339C23.9754 18.0844 23.9825 18.1351 23.9896 18.1859L23.9896 18.1859C23.9929 18.21 23.9963 18.2342 23.9998 18.2582V18.6948C23.9975 18.7041 23.995 18.7134 23.9925 18.7228L23.9925 18.7228C23.9876 18.7409 23.9827 18.7591 23.9792 18.7775C23.9724 18.8136 23.9667 18.8499 23.961 18.8863L23.961 18.8864C23.9498 18.9574 23.9387 19.0284 23.9194 19.0971C23.7916 19.5525 23.5334 19.9297 23.207 20.2643C22.9754 20.502 22.7154 20.7059 22.4484 20.9003C22.3241 20.9906 22.2771 21.0967 22.2754 21.2501C22.271 21.6301 22.2616 22.0101 22.2522 22.3901L22.2522 22.3909L22.2522 22.3917L22.2522 22.3925C22.2463 22.6285 22.2405 22.8646 22.2359 23.1008C22.2316 23.311 22.0898 23.5144 21.8793 23.526C21.8753 23.5262 21.8715 23.5299 21.8676 23.5336C21.8659 23.5353 21.8642 23.537 21.8625 23.5383H21.8406ZM22.2913 19.9801C22.2862 19.9809 22.2797 19.9819 22.2711 19.9837L22.271 19.7586C22.271 19.6117 22.2709 19.4672 22.2711 19.3226C22.2716 19.162 22.2065 19.0342 22.0762 18.9412C21.8424 18.7735 21.5398 18.8919 21.4893 19.1748C21.4699 19.2831 21.462 19.3937 21.4542 19.5038L21.4506 19.5537C21.4425 19.6598 21.4369 19.766 21.4312 19.8743L21.4312 19.8745L21.4311 19.8747L21.4311 19.8751C21.4286 19.9219 21.4261 19.9691 21.4234 20.0169C21.4174 20.0157 21.4117 20.0151 21.4064 20.0144C21.3958 20.0132 21.3867 20.0121 21.3802 20.0076C20.8287 19.6211 20.5076 19.1026 20.4913 18.4192C20.4842 18.136 20.5976 17.8808 20.7196 17.6316C20.8229 17.4209 20.9673 17.2383 21.1247 17.0666C21.2949 16.8809 21.4687 16.6986 21.6425 16.5163L21.7151 16.4402C21.7888 16.3627 21.8225 16.3597 21.8987 16.4286C22.2145 16.7143 22.5135 17.0158 22.7574 17.3673C22.9286 17.6145 23.0624 17.8783 23.1175 18.177C23.163 18.4244 23.1494 18.6673 23.0682 18.9075C22.9213 19.3405 22.6518 19.685 22.3065 19.9757C22.3056 19.9764 22.3046 19.977 22.3034 19.9775C22.3018 19.9781 22.2999 19.9786 22.2976 19.979C22.2958 19.9794 22.2937 19.9797 22.2913 19.9801ZM13.0036 20.2873L13.0035 20.2318V20.2316C13.0035 20.2035 13.0034 20.1808 13.0036 20.1581L13.0056 19.94L13.0056 19.9398C13.0072 19.7581 13.0088 19.5764 13.0117 19.3949C13.0127 19.3295 13.0159 19.2634 13.0288 19.1998C13.0587 19.0494 13.1479 18.9435 13.2933 18.8935C13.542 18.808 13.7992 18.9777 13.8135 19.247C13.8247 19.462 13.8275 19.6772 13.8303 19.8923C13.8315 19.9823 13.8326 20.0722 13.8344 20.1621C13.8349 20.1866 13.8348 20.2111 13.8346 20.2388V20.239L13.8344 20.2878C14.1193 20.1855 14.3112 20.0097 14.4248 19.7504C14.5244 19.5234 14.537 19.2863 14.4885 19.0456C14.4022 18.6194 14.1636 18.3317 13.7318 18.2231C13.5679 18.1819 13.4004 18.1743 13.2339 18.1954C12.8774 18.2407 12.6073 18.42 12.4481 18.7451C12.3963 18.851 12.3604 18.9694 12.3423 19.0861C12.3015 19.3499 12.3259 19.6086 12.4615 19.8465C12.5814 20.057 12.7592 20.1965 13.0036 20.2873ZM13.9979 21.1337C14.804 20.8697 15.3414 20.1241 15.3424 19.2769C15.3432 18.8339 15.2318 18.4607 14.9868 18.1449C14.3826 17.3659 13.7006 17.2618 12.9108 17.4039C12.6742 17.4463 12.469 17.5696 12.2842 17.7197C11.8489 18.0735 11.5366 18.5035 11.4934 19.0831C11.4428 19.7623 11.6628 20.3331 12.2007 20.7673C12.3946 20.924 12.6116 21.0407 12.8432 21.1299C12.943 21.1687 12.99 21.2318 12.9908 21.3437C12.994 21.8119 13.0028 22.2799 13.0116 22.7481L13.0117 22.7496C13.0132 22.8328 13.0182 22.917 13.0325 22.9988C13.0624 23.1667 13.1917 23.2955 13.3463 23.3221C13.5769 23.3619 13.7768 23.2135 13.8105 22.9718C13.8244 22.8713 13.8304 22.7692 13.8314 22.6676C13.8335 22.4514 13.8341 22.2352 13.8347 22.019C13.835 21.8791 13.8354 21.7391 13.8362 21.5991C13.8365 21.5329 13.8392 21.4666 13.842 21.4003C13.8431 21.3722 13.8443 21.3441 13.8452 21.316C13.8488 21.2157 13.9006 21.1656 13.9979 21.1337Z" fill="#0C1E3C"/>
</svg>
