<svg width="24" height="24" viewBox="0 0 24 24" fill="none" xmlns="http://www.w3.org/2000/svg">
<path fill-rule="evenodd" clip-rule="evenodd" d="M17.2818 21.6567H5.78571L5.68346 21.6275C5.48382 21.5739 5.35722 21.4376 5.25984 21.2672C5.00178 20.8095 4.7425 20.3518 4.48321 19.8941L4.48306 19.8938L4.48291 19.8936L4.48276 19.8933L4.48261 19.893L4.48246 19.8928C4.22343 19.4355 3.9644 18.9783 3.70659 18.521C3.61894 18.3701 3.49234 18.2921 3.31705 18.297C3.22469 18.297 3.13232 18.2982 3.03995 18.2994L3.03951 18.2995C2.947 18.3007 2.85449 18.3019 2.76197 18.3019C2.0949 18.3019 1.42783 18.3019 0.765624 18.297C0.639026 18.297 0.512429 18.2921 0.3907 18.2727C0.186196 18.2435 0.083944 18.1412 0.04986 17.9318C0.0303834 17.8393 0.0255143 17.7419 0.0255143 17.6494C0.0190221 16.8855 0.0202244 16.1216 0.0214266 15.3577C0.0229295 14.4028 0.0244323 13.4479 0.0109069 12.493C-0.00856969 11.5094 0.00116859 10.521 0.015776 9.53256C0.031424 8.57178 0.0289683 7.61099 0.0265094 6.64892C0.0251426 6.11416 0.0237748 5.579 0.0255143 5.04321C0.0255143 4.96531 0.0303834 4.88253 0.0401217 4.79976C0.0644674 4.58551 0.171589 4.46379 0.385831 4.41996C0.468606 4.40536 0.556251 4.40049 0.643895 4.40049C1.0383 4.39805 1.4327 4.39805 1.8271 4.39805C2.2215 4.39805 2.6159 4.39805 3.0103 4.39562C3.22697 4.39562 3.44487 4.3944 3.66276 4.39318C3.88066 4.39197 4.09855 4.39075 4.31523 4.39075C4.51973 4.39075 4.70476 4.32745 4.86057 4.20085C5.06089 4.04134 5.25556 3.879 5.45103 3.71599C5.51213 3.66503 5.57331 3.61401 5.63477 3.56299C5.90737 3.33907 6.17997 3.11393 6.45257 2.88879L6.45273 2.88866L6.45278 2.88862L6.45282 2.88859C6.72548 2.6634 6.99814 2.43821 7.2708 2.21424C7.3487 2.15094 7.44609 2.10712 7.5386 2.06817C7.67104 2.00584 7.81595 2.00584 7.96085 2.00584C7.99708 2.00584 8.03331 2.00584 8.06934 2.00487C8.35662 2 8.6439 2 8.93117 2H12.7973H19.0541C19.1418 2 19.2343 2.00974 19.3219 2.02435C19.5021 2.05356 19.6238 2.15581 19.6579 2.33597C19.6725 2.42848 19.6822 2.52587 19.6871 2.61838C19.6871 4.38101 19.6871 6.13877 19.692 7.9014V9.10408V9.16738H20.6463V9.09921V6.4504C20.6463 6.39197 20.6463 6.33354 20.6512 6.27998C20.6804 6.00243 20.8314 5.85149 21.1089 5.84175C21.2891 5.83688 21.4643 5.83688 21.6445 5.83688C21.9026 5.83688 22.1606 5.83567 22.4187 5.83445C22.6768 5.83323 22.9348 5.83201 23.1929 5.83201C23.3195 5.83201 23.4461 5.83201 23.5727 5.84662C23.7577 5.87097 23.894 5.97322 24.0012 6.12416V16.0962C23.8746 16.2763 23.6944 16.3737 23.4704 16.3834C23.3826 16.3867 23.2926 16.3856 23.2033 16.3845H23.2033H23.2032H23.2031H23.2031C23.1588 16.384 23.1147 16.3834 23.0712 16.3834C22.9233 16.3834 22.7755 16.3822 22.6271 16.381H22.6271H22.627H22.6269H22.6269H22.6268C22.4771 16.3798 22.3268 16.3786 22.1752 16.3786C22.0866 16.3786 21.9977 16.3789 21.9085 16.3792C21.6401 16.3801 21.3696 16.381 21.0992 16.3737C20.8557 16.3688 20.7096 16.2422 20.6658 16.0037C20.6512 15.9355 20.6463 15.8624 20.6463 15.7943C20.6431 15.2002 20.6442 14.6062 20.6452 14.0122C20.6458 13.7152 20.6463 13.4181 20.6463 13.1211V13.053H19.692V13.1211C19.6871 14.2313 19.6871 15.3414 19.6871 16.4467C19.6871 16.6388 19.6859 16.8308 19.6847 17.0228L19.6847 17.0237C19.6835 17.2161 19.6822 17.4084 19.6822 17.6007C19.6822 17.8393 19.6287 18.0633 19.507 18.2678C19.1077 18.9738 18.7084 19.675 18.3043 20.381C18.2191 20.532 18.1326 20.6841 18.0462 20.8363C17.9598 20.9884 17.8734 21.1406 17.7881 21.2915C17.6956 21.4571 17.5739 21.5788 17.3889 21.6324C17.3548 21.6372 17.3158 21.647 17.2818 21.6567ZM4.69503 18.297L4.69502 18.297H7.19776V17.3524H1.00908V5.35971H1.07725H3.74067C4.06203 5.35971 4.3834 5.35484 4.70476 5.3451C4.89953 5.34023 5.08455 5.27693 5.2355 5.15033C5.7029 4.77057 6.1703 4.38594 6.6377 4.00131L6.63781 4.00122L7.67494 3.13938C7.81614 3.02252 7.97682 2.96409 8.16672 2.96896C8.54895 2.96896 8.93239 2.96774 9.31584 2.96652C9.69928 2.96531 10.0827 2.96409 10.465 2.96409C13.143 2.96409 15.821 2.96409 18.499 2.95922C18.5451 2.95922 18.5912 2.9631 18.6398 2.96719C18.6682 2.96958 18.6974 2.97203 18.7279 2.97383V3.03226V9.79063C18.7279 10.2982 18.7267 10.8071 18.7255 11.3165L18.7255 11.3183V11.3189V11.3195V11.32V11.3206V11.3212V11.3217C18.7242 11.8319 18.723 12.3426 18.723 12.8533V17.3475C18.723 17.5569 18.6743 17.7565 18.5721 17.9416C18.0852 18.7888 17.6031 19.6409 17.1211 20.493C17.0383 20.6391 16.9117 20.6975 16.7461 20.6975H13.9951C13.453 20.6975 12.911 20.6963 12.3689 20.6951L12.3664 20.6951C11.8234 20.6939 11.2805 20.6926 10.7376 20.6926H9.22819H9.22726C8.4339 20.6926 7.64541 20.6926 6.85692 20.6878C6.81066 20.6878 6.76441 20.6881 6.71815 20.6884C6.57938 20.6893 6.44061 20.6902 6.30184 20.6829C6.23367 20.6829 6.1655 20.6634 6.09733 20.6391C6.05838 20.6245 6.01943 20.5855 5.99508 20.5466C5.73292 20.0967 5.47259 19.6451 5.21184 19.1927L5.21157 19.1922C5.04624 18.9054 4.88073 18.6182 4.7145 18.3311C4.70964 18.3262 4.70478 18.3165 4.69509 18.2972L4.69507 18.2971L4.69505 18.2971L4.69503 18.297ZM21.6299 15.4047H23.0225V6.82532H21.6299V15.4047ZM19.7163 12.045H20.6171V10.1607H19.7163V12.045ZM10.0754 18.2727H8.2008V18.2678H10.0754V18.2727ZM10.0754 17.3573V17.3524H8.2008V17.3573H10.0754ZM15.3716 14.4587C15.8731 14.4587 16.3259 14.0156 16.3259 13.5238C16.3259 12.9979 15.8877 12.55 15.3716 12.55C14.8652 12.5451 14.4124 12.9979 14.4124 13.5092C14.4124 14.0156 14.8603 14.4587 15.3716 14.4587ZM14.8847 7.28156C14.8847 6.49763 14.2322 5.84029 13.4483 5.84029C12.6887 5.84029 12.0167 6.5025 12.0167 7.25234C12.0167 8.04601 12.6643 8.71309 13.4483 8.70822C14.2712 8.70335 14.8944 8.00219 14.8847 7.28156ZM5.77451 14.4587C7.05509 14.4635 8.15552 13.4118 8.175 12.0923C8.1896 10.7727 7.09405 9.68691 5.80372 9.67231C4.46958 9.6577 3.40811 10.7679 3.38376 12.0241C3.35942 13.3388 4.45984 14.4684 5.77451 14.4587ZM15.2401 8.89324C15.2321 8.90129 15.224 8.90785 15.2168 8.91375L15.2168 8.91377C15.2109 8.91858 15.2055 8.92296 15.2012 8.92733C15.1501 8.96676 15.0998 9.00707 15.0498 9.04721L15.0497 9.04726C14.933 9.14091 14.8175 9.23361 14.6948 9.31199C14.1153 9.68204 13.4921 9.78917 12.8299 9.58953C12.3722 9.4532 11.9681 9.22922 11.6467 8.87864C11.2572 8.45502 11.0916 7.93889 11.0575 7.37894C11.0503 7.29573 11.0511 7.21521 11.052 7.12739C11.0523 7.09701 11.0527 7.06577 11.0527 7.03323C9.70878 7.67109 8.37463 8.30408 7.03562 8.93707C7.08187 8.96141 7.12568 8.98332 7.16828 9.00461L7.1683 9.00463C7.21091 9.02593 7.2523 9.04662 7.29368 9.06853C7.77573 9.33147 8.19934 9.66744 8.52071 10.1154C8.85181 10.578 9.03683 11.099 9.11474 11.6589C9.1683 12.0679 9.14883 12.4672 9.05144 12.8665C8.90537 13.4459 8.61322 13.9425 8.22856 14.3856C8.22178 14.3924 8.21605 14.3992 8.20991 14.4065L8.2099 14.4065C8.20281 14.4149 8.19517 14.4239 8.18474 14.4343H13.6771L13.6535 14.3731L13.6535 14.3731L13.6534 14.373L13.6534 14.3729C13.6128 14.2681 13.5734 14.1662 13.5408 14.0643C13.4531 13.7867 13.4191 13.5043 13.4629 13.217C13.5067 12.8908 13.643 12.6084 13.8378 12.3503C14.276 11.7709 14.8652 11.5323 15.581 11.5956C15.6297 11.6005 15.6783 11.6066 15.727 11.6127C15.7757 11.6187 15.8244 11.6248 15.8731 11.6297L15.8729 11.6289C15.6636 10.7187 15.4543 9.80838 15.2401 8.89324ZM15.2986 15.4276H12.5718C10.3223 15.4276 8.07761 15.4276 5.82807 15.4228C4.9711 15.4228 4.20178 15.155 3.54931 14.5901C2.98936 14.0984 2.64365 13.48 2.48297 12.7545C2.40506 12.4136 2.38072 12.0728 2.41967 11.732C2.4781 11.1525 2.68261 10.6267 3.02344 10.1592C3.50062 9.50189 4.13361 9.05393 4.9078 8.81047C5.33142 8.67413 5.74043 8.49397 6.1397 8.29921C6.7494 8.00589 7.3591 7.7148 7.9673 7.42444L7.96863 7.42381C8.25855 7.28539 8.54813 7.14714 8.8372 7.00889C9.28029 6.79708 9.72338 6.58649 10.1665 6.3759C10.6096 6.16531 11.0527 5.95472 11.4958 5.74291C11.6431 5.67359 11.7634 5.56958 11.8841 5.46517L11.9291 5.42642C12.2553 5.16348 12.6205 4.97358 13.0393 4.90055C13.4093 4.83238 13.7745 4.86646 14.1348 4.97845C14.6461 5.13427 15.0746 5.41181 15.3862 5.85003C15.6102 6.16166 15.7368 6.51223 15.8195 6.88716C15.8819 7.17346 15.9426 7.45977 16.0034 7.74607C16.0946 8.17553 16.1857 8.60499 16.2821 9.03445C16.4818 9.90603 16.6863 10.7825 16.8908 11.654C16.9398 11.8603 16.9913 12.0656 17.043 12.2712L17.043 12.2713C17.1145 12.5559 17.1861 12.841 17.2511 13.1294C17.3825 13.7478 17.2219 14.3029 16.8129 14.78C16.5158 15.1257 16.136 15.3351 15.6832 15.4033C15.6074 15.4124 15.5316 15.4158 15.4512 15.4195H15.4512H15.4511C15.4024 15.4217 15.3518 15.424 15.2986 15.4276ZM5.78279 13.0208C6.28431 13.0208 6.73227 12.5729 6.73227 12.0762C6.73714 11.5601 6.28918 11.1121 5.77792 11.1121C5.2764 11.1121 4.82357 11.5601 4.82357 12.0567C4.82357 12.5777 5.26179 13.0208 5.78279 13.0208ZM7.69636 12.0713C7.7061 13.1328 6.84426 13.9995 5.73897 13.9849C4.71158 13.9703 3.85948 13.1523 3.85948 12.0567C3.85461 10.9953 4.70671 10.148 5.78279 10.148C6.84913 10.148 7.69636 10.9953 7.69636 12.0713ZM12.4915 7.26841C12.4866 7.80889 12.9102 8.2325 13.4507 8.2325C13.9863 8.2325 14.4148 7.81376 14.4148 7.28789C14.4148 6.73767 13.9961 6.31406 13.4556 6.31406C12.92 6.31406 12.4964 6.73281 12.4915 7.26841Z" fill="#0C1E3C"/>
</svg>
