<svg width="24" height="24" viewBox="0 0 24 24" fill="none" xmlns="http://www.w3.org/2000/svg">
<path fill-rule="evenodd" clip-rule="evenodd" d="M18.0764 14.246C17.9894 14.2361 17.9033 14.2256 17.8178 14.2152C17.5912 14.1876 17.3689 14.1606 17.146 14.1475C17.0705 14.1432 16.9597 14.207 16.9164 14.2726C16.2336 15.3156 14.8327 15.476 13.9432 14.7684C13.8844 14.722 13.7494 14.7003 13.69 14.7356C12.7677 15.2822 11.9388 15.1268 11.2034 14.444L10.9642 14.5535C10.6571 14.694 10.3578 14.8309 10.06 14.9702C10.0142 14.9919 9.96719 15.029 9.94057 15.0717C9.34569 16.0213 8.5001 16.7097 7.58147 17.3176C7.23853 17.5447 7.01878 17.476 6.9154 17.0768C6.83678 16.7703 6.67646 16.7128 6.39356 16.7338C5.82963 16.7759 5.71202 16.6447 5.78877 16.0962C5.92248 15.133 6.23262 14.2268 6.71298 13.3818C6.78485 13.255 6.87348 13.1377 6.96563 13.0157L6.96565 13.0157L6.96567 13.0156L6.96569 13.0156C7.00845 12.959 7.05196 12.9014 7.09492 12.8414C5.88968 12.7597 5.18646 12.1048 4.98281 10.962C4.83624 10.962 4.6907 10.9664 4.54631 10.9708C4.21319 10.9809 3.88623 10.9909 3.5671 10.9459C3.26222 10.9026 2.96649 10.7462 2.68395 10.5968L2.62308 10.5646C2.49462 10.4972 2.37598 10.4157 2.25687 10.3339C2.05688 10.1967 1.85557 10.0585 1.60417 9.98398C1.17643 9.85646 0.999384 9.46214 1 9.01025C1.00372 7.04299 1.72364 5.36544 3.06816 3.95097C3.25909 3.75049 3.46941 3.56859 3.67985 3.38659C3.83784 3.24995 3.9959 3.11325 4.14588 2.96857C4.23131 2.88624 4.31488 2.72096 4.29136 2.61944C4.01837 1.44392 5.20689 0.0529702 6.60341 0.717802C6.67398 0.75123 6.81388 0.716564 6.88197 0.663328C7.63904 0.0696838 8.40663 0.118587 9.10551 0.801371C9.16865 0.862654 9.32464 0.891129 9.40697 0.858321C9.8601 0.675709 10.3039 0.658995 10.7645 0.832941C10.8456 0.863273 10.9985 0.824893 11.0629 0.761753C12.109 -0.262113 13.4752 -0.252828 14.4743 0.783419C14.5498 0.862654 14.7033 0.920223 14.8104 0.906605C15.5415 0.815608 16.1636 1.01184 16.6873 1.53739C16.7529 1.60239 16.9046 1.62715 17.003 1.60672C18.0207 1.39192 18.8353 1.81843 19.2556 2.78411C19.2928 2.86953 19.4129 2.95929 19.5051 2.97291C20.4101 3.10476 20.9666 3.6365 21.1301 4.51799C21.1474 4.61456 21.2638 4.73403 21.3603 4.76808C22.5804 5.19582 23.0267 6.47225 22.3372 7.56669C22.2864 7.64654 22.2647 7.80873 22.3112 7.8762C23.2874 9.28757 22.6368 11.2431 21.0137 11.8008C20.9954 11.807 20.979 11.8184 20.9582 11.8329C20.9459 11.8415 20.932 11.8511 20.9153 11.8615C21.512 12.7981 21.876 13.825 22.149 14.8885C22.3149 15.5341 22.2022 15.6802 21.5442 15.6128C21.2799 15.5855 21.1951 15.6703 21.1808 15.9266C21.1492 16.4837 20.9332 16.6162 20.4275 16.3804C19.4253 15.9118 18.6942 15.1423 18.0764 14.246ZM8.36652 5.97644C8.37227 5.95818 8.3787 5.93775 8.38558 5.91389C9.27203 6.02594 10.1096 5.9207 10.9409 5.7028C11.2442 5.62357 11.3519 5.45519 11.3532 5.15868C11.3588 3.71759 10.3504 2.82558 9.01203 2.58107C8.80404 2.54269 8.62762 2.61511 8.57562 2.83734C8.51991 3.0769 8.66043 3.19576 8.87337 3.27809C8.94144 3.30442 9.00994 3.33027 9.07851 3.35616C9.39036 3.47386 9.70396 3.59223 9.98762 3.75969C10.3677 3.98377 10.546 4.38119 10.611 4.81079C10.624 4.89374 10.5379 5.06026 10.4711 5.07635C9.66634 5.26577 8.8548 5.35801 8.05007 5.08316C7.27505 4.81884 6.81636 4.26295 6.59908 3.48298C6.56132 3.34804 6.47094 3.18214 6.35704 3.12333C6.09581 2.98838 5.84634 3.22671 5.90515 3.55727C6.03081 4.25986 6.38737 4.83308 6.94264 5.28001L6.97947 5.30974C7.09716 5.40498 7.22079 5.50502 7.35862 5.54929C7.65761 5.64462 7.66751 5.83961 7.62232 6.09155C7.36853 7.51964 6.66717 8.70012 5.60245 9.66208C4.73891 10.4414 3.74971 10.5126 2.90722 9.9035C2.88379 9.88677 2.86263 9.86665 2.83991 9.84505C2.82901 9.83468 2.81774 9.82397 2.8057 9.81313C2.87792 9.72874 2.95014 9.64576 3.02186 9.56335C3.18373 9.37735 3.34305 9.19429 3.49405 9.00468C3.71504 8.72798 3.72185 8.49832 3.52129 8.36956C3.25758 8.20057 3.10097 8.36151 2.94126 8.5596C2.74689 8.79978 2.54323 9.03749 2.31233 9.23991C2.21515 9.32533 2.00777 9.38167 1.90378 9.334C1.80473 9.28819 1.72117 9.09134 1.72117 8.96135C1.72798 6.83562 2.66951 5.16054 4.24988 3.8055C4.43427 3.64738 4.63391 3.50657 4.83333 3.36593C4.87827 3.33423 4.9232 3.30254 4.96795 3.27066C5.18461 3.11714 5.23413 2.94691 5.09423 2.70549C4.86024 2.30312 4.98281 1.75838 5.35484 1.45073C5.69406 1.16969 6.11562 1.19321 6.50251 1.51449C6.83802 1.79305 6.96802 1.77448 7.20325 1.39749C7.39019 1.09788 7.64894 0.938175 8.00488 0.975935C8.37134 1.01493 8.6041 1.22045 8.72543 1.57082C8.86533 1.97566 9.10365 2.0289 9.41254 1.73857C9.84276 1.33373 10.2649 1.31145 10.7515 1.668C11.0232 1.86671 11.2034 1.83452 11.3817 1.55534C12.0948 0.438003 13.3557 0.420052 14.1153 1.52191C14.249 1.71629 14.3988 1.76829 14.6229 1.70453C15.4431 1.47115 15.8535 1.61229 16.3698 2.3025C16.5227 2.50678 16.6935 2.55754 16.912 2.42383C17.6883 1.95028 18.6162 2.5433 18.6441 3.34185C18.6564 3.6854 18.8007 3.76031 19.1541 3.70831C19.9329 3.59379 20.4826 4.12739 20.4039 4.92098C20.3693 5.27073 20.4887 5.41063 20.8453 5.41929C21.3411 5.43105 21.6878 5.66257 21.8735 6.11755C22.0561 6.56511 21.9416 6.99718 21.5677 7.35065C21.2539 7.64716 21.2508 7.74558 21.533 8.06067C22.0815 8.67288 22.2245 9.37052 21.8822 10.1195C21.5479 10.8512 20.9505 11.2171 20.1378 11.2165C19.7515 11.2158 19.6772 11.2889 19.6531 11.6733C19.5633 13.0661 18.3537 13.8417 17.0333 13.3521C16.7028 13.2295 16.5895 13.2797 16.4447 13.6139C16.007 14.6205 14.907 14.795 14.1629 13.9767C13.9178 13.7068 13.7674 13.7031 13.5 13.96C12.8692 14.5666 12.0298 14.4552 11.5612 13.7025C11.3303 13.331 11.1272 13.3168 10.8499 13.6517C10.3522 14.254 9.65644 14.4657 8.98294 14.2212C8.27911 13.9649 7.87922 13.3595 7.89346 12.5709C7.90212 12.1017 7.79132 12.0063 7.32457 12.0812C6.42142 12.2255 5.65568 11.5773 5.70892 10.7033C5.71511 10.5937 5.7634 10.4532 5.84263 10.3876C7.20944 9.25353 8.06121 7.82544 8.34287 6.06493C8.34731 6.03746 8.35571 6.01077 8.36652 5.97645L8.36652 5.97644ZM20.3111 12.2607C19.9428 13.1967 19.858 13.2976 18.8013 14.0664C19.2909 14.6564 19.7775 15.2383 20.4912 15.6078C20.5405 15.3115 20.5671 15.1516 20.6596 15.0544C20.7681 14.9403 20.9672 14.9125 21.3999 14.852C21.1573 13.9563 20.8626 13.0896 20.3111 12.2607ZM9.19341 15.0228C8.33606 14.8272 7.7746 14.3815 7.36729 13.6573C6.95006 14.4403 6.63498 15.1764 6.54275 15.999C6.88186 16.0293 7.04489 16.0438 7.1744 16.1173C7.29429 16.1854 7.38547 16.3041 7.56104 16.5326L9.19341 15.0228ZM16.8012 18.7948C16.8096 18.7989 16.8208 18.8043 16.8371 18.8113V20.3168L16.7218 20.317C16.6326 20.3173 16.5499 20.3175 16.4669 20.3162C16.0213 20.3099 15.5757 20.3034 15.1301 20.2968C13.8492 20.278 12.5684 20.2591 11.2875 20.2481C11.0448 20.2456 10.9501 20.1812 10.9644 19.9293C10.9733 19.7654 10.9721 19.6007 10.9709 19.4361C10.9696 19.2575 10.9683 19.0789 10.9799 18.9011C10.9848 18.82 11.1037 18.6789 11.1687 18.6795C12.8223 18.703 14.476 18.7377 16.1296 18.7724L16.777 18.7859C16.7829 18.7859 16.7888 18.7888 16.8012 18.7948ZM16.8383 21.0089H10.9706V21.2942C10.9706 21.5126 10.9703 21.7309 10.97 21.9492C10.9694 22.473 10.9687 22.9968 10.9718 23.5202C10.9737 23.7839 10.9049 24.0087 10.6041 24C10.3212 23.9919 10.2692 23.7623 10.2692 23.519C10.2701 21.9911 10.27 20.4628 10.2699 18.9347L10.2698 17.4068C10.2698 17.3505 10.2695 17.2942 10.2692 17.2379V17.2378C10.2686 17.1391 10.268 17.0404 10.2692 16.9419C10.2711 16.698 10.3392 16.4751 10.6245 16.4795C10.9049 16.4838 10.9768 16.6986 10.9693 16.9487C10.9672 17.0262 10.9696 17.1042 10.972 17.182C10.9758 17.3042 10.9796 17.4262 10.9656 17.546C10.9272 17.8716 11.0306 17.9843 11.3779 17.9855C12.6022 17.99 13.8265 18.0097 15.051 18.0294C15.5205 18.0369 15.9899 18.0445 16.4595 18.0512C16.5418 18.0525 16.6244 18.0522 16.7218 18.052L16.8587 18.0518C16.8587 17.9293 16.8589 17.8104 16.8591 17.694V17.6938C16.8595 17.43 16.8598 17.1788 16.8581 16.9276C16.8562 16.6769 16.9299 16.4689 17.2184 16.4782C17.4827 16.4869 17.5545 16.6868 17.5545 16.9233C17.5533 19.0385 17.5527 21.1531 17.5539 23.2683C17.5539 23.5122 17.5019 23.7388 17.214 23.7406C16.9101 23.7419 16.8525 23.5116 16.855 23.2516C16.8593 22.7295 16.858 22.2074 16.8568 21.6853L16.8562 21.4242C16.8558 21.346 16.8516 21.2676 16.8465 21.1718C16.8439 21.1228 16.841 21.0692 16.8383 21.0089ZM4.6832 6.03107C4.976 6.03788 5.22361 5.81194 5.23413 5.52781C5.24403 5.25915 4.98838 4.98802 4.71601 4.97749C4.43311 4.96697 4.18798 5.20282 4.17745 5.49562C4.16693 5.79584 4.38235 6.02426 4.6832 6.03107Z" fill="#0C1E3C"/>
</svg>
