<svg width="24" height="24" viewBox="0 0 24 24" fill="none" xmlns="http://www.w3.org/2000/svg">
<path fill-rule="evenodd" clip-rule="evenodd" d="M1.00024 4.00399V4.92432L1.04383 4.92428H1.04384H1.04384H1.04384H1.04384C1.08493 4.92423 1.12309 4.92418 1.16141 4.92462C1.34483 4.92582 1.52837 4.92465 1.71189 4.92347H1.71189H1.7119H1.7119H1.7119C2.12701 4.9208 2.54207 4.91814 2.95569 4.943C3.48511 4.97465 4.01361 5.022 4.5422 5.06936C4.91927 5.10314 5.29639 5.13693 5.67392 5.16503C6.0285 5.19154 6.31439 5.30872 6.52105 5.61149C6.59943 5.72614 6.69018 5.83233 6.78097 5.93857L6.78099 5.93859L6.781 5.9386C6.83047 5.99649 6.87995 6.05439 6.92744 6.11368C7.56339 6.90869 8.30298 7.58109 9.21096 8.05678C9.81287 8.37249 10.4554 8.58187 11.1013 8.7813C12.2558 9.13798 13.4337 9.40008 14.6254 9.59348C15.0974 9.67016 15.5719 9.73135 16.0465 9.79255L16.0465 9.79256C16.3121 9.82682 16.5778 9.86108 16.843 9.89805C16.875 9.9025 16.9081 9.90604 16.9415 9.9096C17.0641 9.92271 17.1906 9.93624 17.2834 9.99686L17.3927 10.0682L17.3927 10.0682L17.3927 10.0682C17.982 10.4526 18.5724 10.8377 19.1319 11.2624C19.8489 11.8071 20.5421 12.3843 21.2256 12.9709C21.5655 13.2628 21.8664 13.6074 22.0068 14.0481C22.2089 14.6823 22.0472 15.0119 21.5462 15.3089C21.3958 15.3981 21.2362 15.4767 21.0726 15.5376C20.3351 15.8123 19.5645 15.9126 18.7843 15.9214C17.9986 15.93 17.2129 15.9281 16.4271 15.9262H16.4271H16.427H16.427H16.427C16.0602 15.9254 15.6935 15.9245 15.3267 15.9247C15.2395 15.9247 15.1523 15.9245 15.065 15.9244H15.065H15.065H15.065H15.065C14.7916 15.9238 14.5181 15.9232 14.2449 15.9307C14.0395 15.9364 13.8886 16.0792 13.8382 16.2832C13.7934 16.4645 13.8645 16.6697 14.0344 16.76C14.1296 16.8107 14.2507 16.8336 14.3606 16.8339C14.9864 16.837 15.6122 16.8373 16.2381 16.8376H16.2381H16.2381H16.2382H16.2382C16.7076 16.8379 17.177 16.8382 17.6464 16.8396C17.7055 16.8399 17.7805 16.8592 17.8211 16.898C18.0327 17.1011 18.2395 17.309 18.4464 17.5169L18.5984 17.6695C18.6129 17.6841 18.6254 17.7007 18.6394 17.7196C18.6467 17.7292 18.6543 17.7395 18.6629 17.7503C18.652 17.7515 18.6433 17.7526 18.6361 17.7536C18.6238 17.7552 18.6156 17.7563 18.6074 17.7563L18.0559 17.7563H18.0548C16.5851 17.7564 15.1151 17.7564 13.6454 17.7527C13.5948 17.7527 13.5307 17.715 13.4963 17.6747C13.199 17.3246 12.8715 17.0071 12.4995 16.7375C11.8138 16.2407 11.0601 15.9316 10.2027 15.9259C9.65322 15.9219 9.1039 15.9229 8.55462 15.9238H8.55432H8.5543H8.55427H8.55425H8.55422C8.31191 15.9242 8.0696 15.9247 7.82729 15.9247H1.88894H1.00265V16.8372C1.08123 16.8372 1.15904 16.8378 1.23628 16.8385H1.23629H1.23631H1.23632H1.23633H1.23639C1.42294 16.84 1.60616 16.8415 1.78893 16.8339C1.91817 16.8284 1.96667 16.8709 2.00011 16.9959C2.26943 18.0015 3.24008 18.7161 4.27127 18.6769C5.28831 18.6384 6.14599 17.953 6.42043 16.9532C6.44513 16.8622 6.48008 16.8345 6.57106 16.8369C6.81718 16.8429 7.06391 16.8447 7.31004 16.8363C7.42211 16.8324 7.46519 16.8667 7.49531 16.9785C7.92912 18.5923 9.88939 19.2132 11.1646 18.1329C11.3234 17.998 11.4567 17.8331 11.593 17.6644L11.5931 17.6644C11.6572 17.5851 11.7219 17.5049 11.7903 17.4267L11.7931 17.4284C11.8037 17.4348 11.8366 17.4547 11.8683 17.4764C12.2865 17.7653 12.6609 18.104 12.9968 18.4844C13.1128 18.6161 13.252 18.6781 13.4252 18.6781C14.6868 18.6778 15.9485 18.6777 17.21 18.6777H17.21H17.2101H17.2101H17.2101L19.7332 18.6775C19.948 18.6775 20.1209 18.6031 20.2107 18.3938C20.2917 18.2052 20.2426 18.0163 20.0715 17.8452L19.6908 17.4651C19.5219 17.2967 19.353 17.1282 19.1843 16.9595C19.1597 16.9348 19.1358 16.9094 19.1087 16.8806L19.1087 16.8806L19.0671 16.8366C19.0863 16.8333 19.1029 16.8301 19.118 16.8273L19.1181 16.8273L19.1181 16.8273L19.1182 16.8273C19.1444 16.8223 19.1659 16.8183 19.1876 16.8158C19.299 16.8034 19.4106 16.7924 19.5222 16.7814L19.5222 16.7814L19.5223 16.7814L19.5223 16.7814L19.5224 16.7814C19.7602 16.7579 19.9981 16.7345 20.2339 16.6974C20.7951 16.6097 21.3419 16.4645 21.8486 16.197C22.8283 15.6804 23.1995 14.8471 22.8979 13.8267C22.7352 13.276 22.3966 12.8326 21.9953 12.437C21.188 11.642 20.2854 10.9609 19.3729 10.2942C18.1721 9.41695 16.9044 8.64332 15.6096 7.91458C13.9244 6.96653 12.1952 6.10555 10.3898 5.40934C8.96845 4.86106 7.49561 4.49865 5.98602 4.29048C5.91176 4.28028 5.83748 4.26991 5.76319 4.25953L5.76316 4.25952C5.35012 4.20181 4.93647 4.14402 4.52132 4.11696C3.76424 4.06717 3.0059 4.04024 2.24768 4.01331L2.045 4.0061C1.80745 3.99761 1.56962 3.99979 1.32974 4.00198C1.22039 4.00298 1.11061 4.00399 1.00024 4.00399ZM7.63961 5.53195C7.99841 5.97872 8.36594 6.36583 8.7886 6.70022C9.39684 7.18133 10.093 7.4856 10.8224 7.7275C11.9647 8.10648 13.133 8.38123 14.316 8.59633C14.5116 8.63205 14.7076 8.6657 14.9036 8.69935L14.9036 8.69936C14.9869 8.71366 15.0702 8.72797 15.1535 8.74243L15.1644 8.70749C12.7622 7.42836 10.3581 6.15375 7.63961 5.53195ZM9.67489 17.756C9.10582 17.7515 8.60001 17.3797 8.42438 16.8372C8.49259 16.8372 8.55955 16.837 8.62565 16.8368H8.62595H8.62625H8.62654H8.62684H8.62714C8.77659 16.8363 8.92171 16.8359 9.06696 16.8378C9.31966 16.8409 9.50778 16.8452 9.70752 16.8497H9.70754L9.70763 16.8497H9.7077C9.90865 16.8543 10.1214 16.8592 10.4235 16.8634C10.6461 16.8664 10.8266 16.8679 10.9369 16.8682C10.7492 17.4026 10.24 17.7608 9.67489 17.756ZM4.27489 17.756C3.64978 17.7747 3.02347 17.3517 2.93129 16.8438H5.47027C5.42147 17.2773 4.81112 17.7397 4.27489 17.756ZM13.9962 11.8045L12.9514 11.4424C12.4455 11.2672 11.9415 11.0926 11.4316 10.9158L11.3427 11.4356L11.2605 11.9168C11.287 11.9208 11.3127 11.9248 11.3378 11.9288C11.384 11.936 11.4284 11.943 11.4728 11.9485C11.5813 11.9621 11.6899 11.9752 11.7985 11.9883L11.7985 11.9883C11.9424 12.0056 12.0862 12.023 12.2299 12.0415C12.3928 12.0627 12.5557 12.0843 12.7186 12.1059L12.7189 12.1059L12.7192 12.106L12.7195 12.106C12.9908 12.1421 13.2621 12.1781 13.5337 12.2118C13.5801 12.2175 13.6467 12.2096 13.6753 12.1801C13.7508 12.1017 13.8202 12.0173 13.8982 11.9226L13.8982 11.9226C13.9292 11.8849 13.9616 11.8457 13.9962 11.8045ZM10.3471 11.8111C9.52613 11.7331 8.70943 11.6556 7.87917 11.577V10.0346C8.7739 10.2427 9.65357 10.4476 10.5447 10.6552L10.3471 11.8111ZM6.94769 11.5014V9.88787C5.88396 9.71706 4.82263 9.60077 3.75016 9.54685V11.3511L4.62137 11.3921L4.62784 11.3924C5.40137 11.4288 6.17247 11.4651 6.94769 11.5014ZM1 11.3435V12.256C1.02023 12.256 1.03919 12.2561 1.05731 12.2561C1.09127 12.2562 1.1223 12.2562 1.15334 12.256C3.26032 12.2395 5.36489 12.2952 7.46494 12.4748C7.62162 12.4881 7.77831 12.5014 7.935 12.5146C8.77646 12.5857 9.61792 12.6568 10.457 12.7498C11.2554 12.8383 12.0518 12.9438 12.8481 13.0493C13.1312 13.0868 13.4142 13.1243 13.6973 13.161C13.9046 13.1878 14.0769 13.1414 14.2149 12.9742C14.424 12.721 14.6356 12.4699 14.8472 12.2187C14.9274 12.1235 15.0076 12.0284 15.0876 11.9331C15.1738 11.8307 15.2147 11.715 15.2018 11.58C15.1807 11.3574 15.0355 11.2462 14.846 11.1658C13.7142 10.6847 12.5532 10.2855 11.3725 9.9433C9.68821 9.45527 7.98039 9.07418 6.23914 8.86029C5.4634 8.76509 4.68526 8.67652 3.90561 8.63434C3.32254 8.60256 2.73783 8.59939 2.15316 8.59622C1.9065 8.59488 1.65985 8.59355 1.41332 8.59006C1.32129 8.58862 1.22912 8.589 1.13547 8.58939C1.09178 8.58958 1.04778 8.58976 1.00331 8.58976V9.51311H2.81657V11.3435H1Z" fill="#0C1E3C"/>
</svg>
