<svg width="24" height="24" viewBox="0 0 24 24" fill="none" xmlns="http://www.w3.org/2000/svg">
<path fill-rule="evenodd" clip-rule="evenodd" d="M7.38272 1.24805L6.51261 1.53809C5.29386 1.94531 4.48233 2.48145 4.00772 3.14941C3.53018 3.81738 3.45401 4.59082 3.57706 5.20898C3.68839 5.76855 3.94327 6.21094 4.17765 6.56836C4.10528 6.61099 4.05169 6.63416 4.00373 6.6549C3.90994 6.69546 3.83764 6.72673 3.68839 6.87598C3.07901 7.48535 2.5839 8.625 3.038 9.9873C3.38077 11.0186 4.17765 11.5752 4.82218 11.8037C4.9326 11.8429 4.97697 11.8442 5.031 11.8457C5.06584 11.8468 5.1047 11.8479 5.16788 11.8594C5.15335 11.9402 5.13826 11.9991 5.12452 12.0526C5.09394 12.1719 5.07009 12.2649 5.07413 12.5156C5.08878 13.3506 5.38468 14.4814 6.43643 15.1611C6.99015 15.5186 7.60831 15.7002 8.21475 15.7969L4.06339 21.3311L4.97159 21.6943C9.07315 23.3379 13.7372 21.7119 13.7372 21.7119L14.2499 21.5391V18.6533C14.83 18.5684 15.6444 18.4102 16.6493 17.9883C18.2372 17.3232 20.0302 15.9639 20.247 13.5674C20.3319 12.6387 20.1151 11.6602 19.8983 10.8662C19.8642 10.7387 19.8488 10.696 19.8292 10.6415L19.8292 10.6415L19.8292 10.6415C19.8168 10.6071 19.8027 10.568 19.7812 10.5H22.245L21.662 9.39844C21.662 9.39844 21.2694 8.62793 21.0644 8.20605C21.6503 6.89941 21.2255 5.47559 20.1444 4.875C19.8456 4.70801 19.5087 4.60547 19.1513 4.57617C18.0878 4.48535 16.8573 5.02734 15.9023 6.29883C15.8333 6.39082 15.6091 6.65885 15.4033 6.9049L15.4032 6.90506L15.4029 6.90548C15.3204 7.00403 15.241 7.09902 15.1757 7.17773C15.1054 7.04004 15.0292 6.87012 14.9442 6.65918C14.6103 5.81836 14.2499 4.41797 14.2499 2.25V1.5H13.4999C12.6239 1.5 11.9179 1.72852 11.414 2.13281C10.9101 2.53711 10.6435 3.0791 10.5233 3.56836C10.3784 4.14053 10.4381 4.42929 10.4951 4.70543C10.505 4.75308 10.5147 4.80035 10.5233 4.84863C10.4733 4.87141 10.4261 4.89071 10.3797 4.90965L10.3797 4.90966C10.1815 4.9906 9.99939 5.06497 9.68839 5.37598C9.45987 5.60449 9.24893 5.90625 9.09659 6.26367C8.32901 5.17969 7.70206 3.82617 7.49405 2.15625L7.38272 1.24805ZM12.829 3.17871C12.9228 4.95703 13.204 6.34277 13.5556 7.21582C13.7665 7.74316 13.995 8.13281 14.1737 8.39355C13.9887 8.6141 13.8518 8.77834 13.734 8.91966L13.7339 8.91976L13.7339 8.91978C13.5216 9.1745 13.3713 9.35479 13.1132 9.65625C12.58 9.39844 11.5048 8.79785 10.4062 7.76367C10.245 7.06934 10.456 6.72949 10.7489 6.43652C11.0771 6.1084 11.4872 5.96191 11.4872 5.96191L12.1464 5.74219L11.9765 5.06836C11.9765 5.06836 11.8476 4.45312 11.9765 3.93164C12.0439 3.6709 12.1523 3.46289 12.3515 3.30469C12.3989 3.26571 12.5042 3.24732 12.6118 3.22853C12.6902 3.21484 12.7697 3.20094 12.829 3.17871ZM9.02335 8.42578C7.86026 7.20996 6.7587 5.56055 6.25772 3.4043C6.14429 3.4695 6.01669 3.53525 5.8903 3.60038C5.60211 3.74887 5.32015 3.89416 5.22647 4.02246C5.00089 4.33887 4.98331 4.59668 5.04776 4.91602C5.17374 5.55176 5.78018 6.21973 5.78018 6.21973L6.63858 7.07812L5.48722 7.46191C5.48722 7.46191 5.07706 7.6084 4.74893 7.93652C4.42081 8.26465 4.16593 8.625 4.46182 9.5127C4.64932 10.0723 4.97745 10.2656 5.32608 10.3916C5.67179 10.5146 5.9589 10.5 5.9589 10.5L7.06046 10.4414L6.71182 11.4873C6.71182 11.4873 6.56534 11.9414 6.57413 12.4922C6.58292 13.04 6.7089 13.5498 7.25089 13.9014C7.80753 14.2617 8.78897 14.4023 9.62393 14.3936C10.4618 14.3877 11.1093 14.2617 11.1093 14.2617L11.3905 15.7383C11.3905 15.7383 10.8075 15.8408 10.0312 15.8789L6.54483 20.5225C9.38663 21.2256 12.1025 20.5781 12.7499 20.3906V17.2969L13.4501 17.25C13.4501 17.25 14.7509 17.1592 16.0692 16.6055C17.3876 16.0518 18.5946 15.1611 18.7528 13.4326C18.8056 12.8672 18.6474 11.9707 18.454 11.2617C18.2577 10.5527 18.0497 10.0225 18.0497 10.0225L17.6483 9H19.7899C19.7524 8.92482 19.7195 8.86302 19.6899 8.80739C19.6388 8.71129 19.5975 8.6336 19.5585 8.53711L19.4032 8.16797L19.6259 7.83398C20.1825 6.99609 19.8983 6.4541 19.4179 6.1875C18.9345 5.9209 18.0761 5.90039 17.1005 7.20117H17.0976C16.3769 8.15918 13.3212 11.7363 13.3212 11.7363L12.4394 10.9863C11.7509 10.6348 10.3944 9.84668 9.07022 8.47559L9.038 8.4873C9.03507 8.47705 9.03287 8.4668 9.03067 8.45655C9.02848 8.44629 9.02628 8.43604 9.02335 8.42578Z" fill="#0C1E3C"/>
</svg>
