<svg width="24" height="24" viewBox="0 0 24 24" fill="none" xmlns="http://www.w3.org/2000/svg">
<path fill-rule="evenodd" clip-rule="evenodd" d="M3.3722 21.4889C3.38763 21.4899 3.40303 21.491 3.41838 21.4918H10.2573C10.3361 21.4847 10.4149 21.4775 10.4944 21.471C11.0389 21.4245 11.5426 21.2525 12.0061 20.9638C12.1315 20.8857 12.2575 20.8657 12.4044 20.9101C12.9432 21.072 13.4919 21.1895 14.05 21.2647C14.5945 21.3378 15.1418 21.3643 15.6906 21.3457C16.3619 21.3227 17.0224 21.2217 17.6751 21.0641C18.4495 20.8771 19.1953 20.6113 19.9067 20.251C20.745 19.8261 21.5022 19.2874 22.1814 18.6369C22.8247 18.0208 23.3749 17.3287 23.8506 16.5765C23.9201 16.4661 23.9645 16.3479 24.0004 16.224V16.0277L23.9971 16.0204C23.9938 16.013 23.9905 16.0059 23.9889 15.9983C23.9244 15.7633 23.7847 15.595 23.5533 15.5126C23.3864 15.4538 23.2202 15.4825 23.0561 15.5334C22.1097 15.8264 21.1426 15.9575 20.1518 15.9116C19.719 15.8916 19.2913 15.8378 18.8665 15.7583C18.024 15.6007 17.2159 15.3407 16.4515 14.9509C15.6527 14.5433 14.942 14.0167 14.3287 13.3626C13.4955 12.4728 12.8622 11.4541 12.4087 10.3243C12.12 9.60429 11.9416 8.85707 11.8735 8.08405C11.8399 7.7108 11.8377 7.33683 11.8585 6.96286C11.88 6.55808 11.9344 6.1576 12.0161 5.76142C12.1888 4.92751 12.4775 4.13444 12.8515 3.37145C12.8707 3.33208 12.8904 3.29283 12.9101 3.25356C12.9717 3.13062 13.0334 3.00741 13.0829 2.87927C13.2204 2.52178 13.0521 2.15784 12.7024 2.03461C12.5448 1.97945 12.3858 1.99521 12.2318 2.04464C11.6973 2.21587 11.1829 2.43652 10.6829 2.69157C9.95498 3.06196 9.32381 3.56202 8.74638 4.13372C8.41264 4.46513 8.08412 4.80176 7.75542 5.13859L7.75535 5.13866L7.53062 5.36882C7.43032 5.47127 7.37802 5.59736 7.37802 5.74279C7.37874 5.94769 7.46471 6.11963 7.60011 6.2665C7.74053 6.41838 7.91748 6.47712 8.12381 6.4413C8.31151 6.40978 8.4591 6.30662 8.58375 6.1705C8.66164 6.08543 8.73693 5.99808 8.81217 5.91079C8.89472 5.81502 8.97721 5.71931 9.06304 5.62674C9.62471 5.02351 10.2745 4.53205 10.9802 4.11151C10.9882 4.10648 10.997 4.10286 11.0089 4.09792L11.026 4.09073L11.0209 4.11349C11.0173 4.13006 11.0143 4.14353 11.0103 4.15664C10.8089 4.82793 10.6564 5.50924 10.5718 6.2056C10.5124 6.69491 10.4837 7.18495 10.4937 7.67784C10.5052 8.23307 10.5632 8.78184 10.6714 9.32632C10.8419 10.186 11.1328 11.0027 11.5383 11.7786C12.0856 12.8275 12.7913 13.7588 13.6395 14.5827C14.3832 15.307 15.2207 15.898 16.1592 16.3444C17.2918 16.8831 18.4897 17.1704 19.737 17.2564C20.0629 17.2793 20.3903 17.2836 20.717 17.2829C20.9129 17.2824 21.1088 17.2726 21.3048 17.2628L21.3051 17.2628C21.392 17.2585 21.479 17.2541 21.566 17.2506C21.5739 17.2503 21.5818 17.2503 21.5905 17.2503C21.5943 17.2504 21.5983 17.2504 21.6026 17.2504H21.6026L21.6297 17.2506C20.3832 18.6161 18.8572 19.4601 17.0626 19.829C15.7515 20.0984 14.4505 20.0719 13.1552 19.7058C13.1577 19.697 13.1597 19.6891 13.1615 19.6817L13.1615 19.6816C13.1639 19.6721 13.166 19.6634 13.1688 19.6549C13.3006 19.2638 13.3967 18.8647 13.4239 18.4513C13.4454 18.1282 13.426 17.8094 13.3479 17.4942C13.1918 16.8638 12.835 16.3637 12.3414 15.9539C12.0526 15.7139 11.7346 15.5176 11.3986 15.3521C11.299 15.3027 11.2324 15.2303 11.1937 15.1243C11.074 14.7998 10.92 14.4924 10.723 14.2066C10.3676 13.6922 9.91271 13.3032 9.31235 13.1018C8.76501 12.9184 8.20978 12.9249 7.65241 13.046C7.54354 13.0695 7.4366 13.1002 7.32971 13.1309C7.26427 13.1497 7.19884 13.1685 7.133 13.1857C7.01766 13.2165 6.97181 13.1885 6.93814 13.0753C6.93456 13.0632 6.93097 13.051 6.92883 13.0388C6.92061 12.9885 6.91203 12.9382 6.90346 12.8879L6.90346 12.8879C6.88214 12.7629 6.86084 12.6379 6.845 12.5122C6.78697 12.0566 6.75259 11.5988 6.77408 11.1381C6.78841 10.8244 6.82065 10.512 6.88226 10.2039C6.98389 9.69918 7.12838 9.20612 7.27308 8.71238L7.29492 8.63784L7.32705 8.52908C7.38577 8.33098 7.44464 8.13239 7.48763 7.93074C7.52632 7.75092 7.4948 7.57181 7.37874 7.4185C7.19677 7.1785 6.79414 7.10256 6.5176 7.25444C6.34566 7.34901 6.24894 7.50447 6.17802 7.67927C5.70518 8.84489 5.45229 10.0556 5.44512 11.3151C5.44321 11.5705 5.44449 11.8259 5.44576 12.0815V12.0816V12.0816C5.4464 12.2096 5.44703 12.3376 5.44727 12.4657V12.5215C5.40177 12.5179 5.35664 12.514 5.31178 12.51L5.31176 12.51C5.20621 12.5008 5.10214 12.4917 4.99808 12.4872C4.6807 12.4743 4.36691 12.5022 4.0567 12.5717C3.38829 12.72 2.813 13.0374 2.34231 13.5367C1.84655 14.0647 1.54996 14.6944 1.41384 15.4015C1.37228 15.6158 1.27485 15.7855 1.11151 15.9267C0.92309 16.09 0.755448 16.2741 0.60715 16.4755C0.0684031 17.2084 -0.106403 18.0287 0.0612389 18.9141C0.271149 20.0174 0.914493 20.784 1.94184 21.2275C2.36166 21.408 2.80584 21.4847 3.26291 21.4839C3.29915 21.4839 3.33575 21.4864 3.3722 21.4889ZM6.68023 20.175V20.1722L5.70956 20.1724C4.90092 20.1727 4.09212 20.173 3.28369 20.1715C2.90757 20.17 2.54793 20.0948 2.21981 19.9028C1.7613 19.6327 1.49193 19.2236 1.3687 18.7157C1.20751 18.048 1.41527 17.4885 1.8967 17.0207C2.0066 16.9142 2.13769 16.8276 2.26625 16.7426L2.28787 16.7284C2.48918 16.5951 2.63605 16.426 2.68118 16.1846C2.69766 16.0943 2.70411 16.0005 2.70554 15.9088C2.7127 15.5248 2.79223 15.1601 2.98709 14.8255C3.21635 14.433 3.55879 14.17 3.96858 13.9888C4.25945 13.8605 4.5625 13.7839 4.88059 13.7853C5.25599 13.7867 5.60202 13.8956 5.92369 14.0869C6.11331 14.1988 6.27872 14.341 6.4444 14.4834L6.48823 14.5211C6.53838 14.5633 6.59139 14.602 6.64441 14.64C6.80632 14.7553 6.97897 14.7725 7.1588 14.688C7.26841 14.6364 7.37587 14.5791 7.4819 14.5196C7.78423 14.3498 8.10733 14.2689 8.45336 14.2947C9.13324 14.3455 9.70924 14.8241 9.88477 15.4868C9.90944 15.5806 9.92289 15.677 9.93637 15.7736C9.94246 15.8173 9.94856 15.861 9.95569 15.9045C10.0066 16.2097 10.1914 16.3988 10.4772 16.4955C10.5472 16.5192 10.6185 16.5388 10.6899 16.5585C10.7634 16.5788 10.837 16.5991 10.9092 16.6238C11.5282 16.8365 11.8972 17.2743 12.0462 17.9047C12.1429 18.3145 12.1193 18.7164 11.9402 19.1004C11.7245 19.5632 11.3635 19.8663 10.8892 20.0404C10.6556 20.127 10.4121 20.1664 10.1642 20.1686C9.67538 20.1722 9.18609 20.1733 8.69713 20.1744H8.69669L8.40321 20.175C8.02139 20.1755 7.63988 20.1754 7.25826 20.1752H7.25819H7.25469L6.68023 20.175ZM21.2008 8.99637L21.1897 8.98652C21.1828 8.98031 21.1788 8.97665 21.1737 8.97449C20.659 8.72338 20.286 8.32536 20.0109 7.83252C19.9077 7.64739 19.8147 7.45642 19.7216 7.26527L19.7215 7.26523L19.7215 7.26514C19.6784 7.17662 19.6352 7.08805 19.591 7.00001C19.4254 7.39386 19.243 7.78772 18.9888 8.14406C18.7304 8.50561 18.4074 8.79319 18 8.99637L18.0164 9.00652C18.034 9.01748 18.0462 9.02506 18.0583 9.03075C18.2949 9.14953 18.5043 9.30374 18.6898 9.49129C18.9711 9.77574 19.1795 10.1112 19.3535 10.4697C19.4182 10.6023 19.4805 10.7375 19.5446 10.8765L19.6035 11.0042C19.9401 10.1738 20.3527 9.41523 21.2008 8.99637ZM16.6105 8.43603C16.4285 8.56283 16.3175 8.7405 16.3118 8.91961C16.3118 9.12737 16.3784 9.27997 16.493 9.40176C16.5963 9.51247 16.7253 9.5839 16.855 9.65574C16.8621 9.65967 16.8692 9.66361 16.8763 9.66755C16.9804 9.72525 17.0849 9.78258 17.1895 9.83995C17.4108 9.96136 17.6324 10.0829 17.8513 10.2084C18.0161 10.303 18.1436 10.4406 18.2318 10.6118C18.2841 10.7138 18.3353 10.8166 18.3865 10.9194C18.4144 10.9755 18.4423 11.0316 18.4703 11.0875C18.5222 11.1908 18.5737 11.2943 18.6253 11.3978C18.7403 11.6288 18.8552 11.8598 18.974 12.0883C19.0635 12.2624 19.2075 12.3878 19.3787 12.4816C19.5385 12.5683 19.6968 12.5655 19.8544 12.4738C20.0178 12.3785 20.1482 12.2488 20.2506 12.0919C20.4555 11.7788 20.6138 11.4436 20.7399 11.0918C20.937 10.5401 21.2916 10.144 21.849 9.93406C22.1355 9.82659 22.3992 9.66755 22.6392 9.47842C22.9967 9.19686 22.9995 8.76415 22.6506 8.47113C22.5636 8.39864 22.4624 8.34143 22.3623 8.2849C22.3437 8.27439 22.3252 8.2639 22.3067 8.25334C22.1766 8.17907 22.0459 8.10615 21.9152 8.03326C21.7307 7.93038 21.5463 7.82755 21.3639 7.72104C21.1977 7.62432 21.0666 7.48677 20.9814 7.31268L20.9705 7.29046C20.8932 7.13165 20.8157 6.97263 20.75 6.80904C20.5952 6.42361 20.4161 6.0525 20.1668 5.71865C20.0672 5.5854 19.9605 5.45931 19.8172 5.37047C19.6761 5.28235 19.5306 5.2845 19.3902 5.36689C19.3286 5.40343 19.2691 5.44999 19.2211 5.50301C19.0384 5.70361 18.8701 5.9171 18.7555 6.16426C18.6428 6.4085 18.5437 6.65917 18.4447 6.90956L18.4281 6.95161C18.2375 7.43519 17.918 7.78624 17.4229 7.97394C17.1299 8.08498 16.867 8.25764 16.6105 8.43603Z" fill="#0C1E3C"/>
</svg>
