<svg width="24" height="24" viewBox="0 0 24 24" fill="none" xmlns="http://www.w3.org/2000/svg">
<path fill-rule="evenodd" clip-rule="evenodd" d="M20.5514 6.00005C17.7025 6.00042 14.8535 6.00042 12.0049 6.00042C11.2032 6.00042 10.4015 6.00038 9.59977 6.00033C7.99642 6.00025 6.39311 6.00017 4.78964 6.00042C4.71911 6.00042 4.64858 6.00041 4.57803 6.0004C4.15473 6.00036 3.73124 6.00031 3.30802 6.00188C3.09474 6.00261 2.89863 6.14029 2.85809 6.32216C2.79745 6.59387 2.7406 6.8663 2.68373 7.13886C2.67005 7.20444 2.65636 7.27002 2.64262 7.33559C2.6157 7.46496 2.58945 7.59466 2.56319 7.72439C2.54171 7.83051 2.52022 7.93664 2.49837 8.04263C2.45697 8.24242 2.41515 8.44207 2.37335 8.64167C2.3473 8.76606 2.32125 8.89043 2.29531 9.01479C2.27525 9.11052 2.2554 9.20632 2.23554 9.30213C2.20948 9.42781 2.18343 9.55351 2.1569 9.6791C2.13312 9.79154 2.10888 9.9039 2.08463 10.0163C2.05564 10.1507 2.02665 10.2851 1.99841 10.4197C1.97528 10.5309 1.95281 10.6422 1.93033 10.7536C1.90525 10.878 1.88016 11.0023 1.85415 11.1264C1.8237 11.2716 1.79268 11.4167 1.76167 11.5618C1.72648 11.7264 1.6913 11.891 1.65694 12.0558C1.63139 12.1779 1.60693 12.3001 1.58247 12.4223C1.55973 12.536 1.537 12.6495 1.51342 12.7629C1.48422 12.9026 1.45438 13.0423 1.42453 13.1819C1.37373 13.4196 1.32293 13.6574 1.27531 13.8957C1.22369 14.153 1.17671 14.4111 1.12973 14.6692C1.11488 14.7508 1.10003 14.8323 1.08504 14.9139C1.07195 14.9841 1.06101 15.0548 1.05008 15.1254C1.04606 15.1513 1.04205 15.1772 1.03792 15.2031C1.03571 15.217 1.03345 15.2308 1.03119 15.2447C0.996895 15.4548 0.962596 15.6649 1.09417 15.8605C1.09522 15.8621 1.0957 15.8638 1.09616 15.8655C1.09634 15.8662 1.09652 15.8668 1.09672 15.8674C1.19715 16.1275 1.35894 16.3462 1.55615 16.5398C1.94399 16.9203 2.40926 17.1851 2.90265 17.3969C3.2558 17.5488 3.61917 17.6803 3.98583 17.7964C4.38025 17.9213 4.78088 18.0298 5.18406 18.1233C5.61317 18.2226 6.04667 18.3048 6.48089 18.3782C6.90161 18.4494 7.32451 18.5068 7.74815 18.5579C8.15498 18.6068 8.56364 18.647 8.97267 18.6777C9.46496 18.7149 9.95798 18.7514 10.451 18.7635C11.1785 18.7821 11.9063 18.7913 12.6338 18.781C13.2396 18.7726 13.8451 18.7414 14.4506 18.7102C14.5003 18.7076 14.55 18.7051 14.5997 18.7025C15.3265 18.6653 16.0499 18.5919 16.7697 18.4848C16.8066 18.4794 16.8435 18.4739 16.8804 18.4685C17.2844 18.4087 17.6886 18.349 18.0888 18.2686C18.5881 18.1686 19.0836 18.0484 19.5781 17.9257C20.0145 17.8176 20.4385 17.6679 20.8556 17.4981C21.2376 17.3425 21.6061 17.1617 21.9494 16.9324C22.224 16.7487 22.4793 16.5412 22.6688 16.2677C22.774 16.1161 22.8609 15.9511 22.9457 15.7867C22.9866 15.7082 23.0088 15.6187 22.9968 15.5252C22.9899 15.4708 22.9842 15.4163 22.9785 15.3617C22.9707 15.2868 22.9629 15.2118 22.9519 15.1374C22.9208 14.9325 22.8876 14.7276 22.85 14.5239C22.808 14.2958 22.7625 14.0683 22.717 13.8408C22.7102 13.8068 22.7034 13.7727 22.6966 13.7387C22.667 13.5912 22.6365 13.4441 22.6061 13.2969C22.5989 13.2622 22.5917 13.2274 22.5845 13.1927C22.5616 13.0825 22.5386 12.9724 22.5156 12.8623C22.4904 12.7417 22.4652 12.6211 22.4402 12.5003C22.4207 12.4053 22.4014 12.3102 22.382 12.2151C22.3525 12.0699 22.3229 11.9246 22.2927 11.7794C22.2633 11.6383 22.2333 11.4972 22.2034 11.3561C22.181 11.2503 22.1586 11.1445 22.1364 11.0387C22.116 10.9408 22.0959 10.8429 22.0758 10.7449C22.0489 10.6143 22.022 10.4836 21.9947 10.3529C21.9711 10.2409 21.9471 10.129 21.9232 10.0171C21.8939 9.87991 21.8646 9.74273 21.8358 9.60532C21.8085 9.47439 21.7816 9.34335 21.7547 9.21231C21.7342 9.11236 21.7137 9.01241 21.693 8.91254C21.6671 8.78782 21.641 8.6631 21.6149 8.53839C21.5888 8.41367 21.5626 8.28895 21.5367 8.16424C21.5133 8.05173 21.4901 7.93914 21.4669 7.82658C21.4416 7.70348 21.4162 7.58043 21.3906 7.45757C21.3688 7.35226 21.3467 7.24702 21.3246 7.14181C21.2787 6.92304 21.2328 6.70439 21.1894 6.4854C21.1532 6.3039 21.0966 6.1381 20.9162 6.05045C20.8108 5.99905 20.697 5.99951 20.5835 5.99996C20.5728 6.00001 20.5621 6.00005 20.5514 6.00005ZM15.6427 14.948C15.6388 14.948 15.6349 14.9479 15.631 14.9479L15.5401 15.0912C15.4983 15.1572 15.4566 15.2231 15.4145 15.289C15.3199 15.4372 15.225 15.5853 15.1302 15.7335C14.9765 15.9737 14.8227 16.2139 14.6698 16.4547C14.3915 16.8918 14.1143 17.3297 13.8379 17.7683C13.828 17.7839 13.8236 17.803 13.8192 17.8222L13.8192 17.8222C13.8171 17.8313 13.815 17.8405 13.8123 17.8494C13.8207 17.8507 13.8292 17.8524 13.8377 17.8542L13.8377 17.8542C13.856 17.8581 13.8744 17.862 13.8927 17.8607C14.2637 17.8377 14.6351 17.8143 15.0065 17.7877C15.1942 17.7745 15.3823 17.7592 15.5693 17.7358L15.6214 17.7293L15.6214 17.7293C16.0934 17.6701 16.5657 17.6109 17.0363 17.5415C17.3946 17.4886 17.7529 17.4301 18.1064 17.3524C18.5457 17.2559 18.9825 17.1456 19.4156 17.0251C19.684 16.9506 19.948 16.8578 20.2113 16.7653L20.3231 16.726C20.6807 16.6008 21.0229 16.4397 21.3483 16.2454C21.5718 16.1118 21.7836 15.9617 21.9461 15.7539C22.0319 15.6443 22.1104 15.5282 22.0904 15.3781C22.0772 15.2813 22.0593 15.1852 22.04 15.0896C22.0086 14.9358 21.9765 14.7823 21.9444 14.6288L21.9443 14.6282C21.9233 14.5278 21.9022 14.4275 21.8815 14.327L21.8327 14.089L21.8326 14.0885C21.8016 13.9371 21.7706 13.7856 21.739 13.6342C21.7094 13.4924 21.6794 13.3508 21.6493 13.2092L21.6491 13.2086L21.6486 13.2062C21.627 13.1042 21.6053 13.0022 21.5838 12.9002C21.5327 12.6577 21.4823 12.4152 21.4323 12.1727C21.4016 12.0254 21.3714 11.878 21.3412 11.7306L21.341 11.7296L21.2781 11.424C21.2481 11.2766 21.2174 11.1294 21.1866 10.982L21.1781 10.9412L21.1271 10.701L21.1268 10.6997C21.0929 10.5404 21.059 10.3811 21.0258 10.2214C21.0083 10.1364 20.9914 10.0511 20.9745 9.96587C20.9576 9.88056 20.9407 9.79526 20.9232 9.71014C20.8955 9.57629 20.8672 9.44245 20.8389 9.30854L20.8388 9.30792L20.8386 9.30704C20.8148 9.19446 20.7911 9.08184 20.7676 8.96914C20.738 8.82781 20.7088 8.68647 20.6796 8.54513L20.6211 8.26248L20.6211 8.26243L20.6211 8.26235C20.5689 8.00821 20.5167 7.75407 20.4637 7.49994C20.452 7.44359 20.4399 7.38736 20.4278 7.33117L20.4277 7.33087C20.4043 7.22181 20.3809 7.11285 20.3597 7.00326C20.3462 6.9346 20.3126 6.91123 20.2421 6.91196C19.9852 6.91407 19.7285 6.9137 19.4717 6.91334L19.1753 6.91306L16.6774 6.91324L14.179 6.91342L13.5291 6.91319C13.2041 6.91301 12.8792 6.91284 12.5542 6.91306C12.468 6.91306 12.4596 6.92146 12.4589 7.00691C12.4586 7.06269 12.4587 7.11848 12.4588 7.17415L12.4589 7.25744C12.4593 7.37358 12.4603 7.37504 12.5736 7.37504C12.6957 7.37515 12.8179 7.37492 12.9402 7.3747C13.2213 7.37418 13.5025 7.37366 13.7835 7.37723C13.8919 7.37832 14.0055 7.38782 14.1081 7.42032C14.496 7.54412 14.7429 7.88486 14.7472 8.29133C14.7504 8.55844 14.7497 8.82555 14.749 9.09266V9.09286L14.7487 9.20725C14.7483 9.35772 14.7115 9.50051 14.6384 9.63162C14.4591 9.95336 14.1812 10.1126 13.8145 10.1144C13.3898 10.1162 12.9651 10.1155 12.5403 10.113C12.4855 10.1126 12.4611 10.1341 12.4501 10.1816C12.4454 10.2028 12.441 10.2236 12.4366 10.2448C12.3855 10.476 12.1006 10.6348 11.8771 10.557C11.7036 10.4968 11.5901 10.3836 11.559 10.198C11.5488 10.136 11.5189 10.113 11.452 10.1133C11.2016 10.1151 10.951 10.1142 10.7005 10.1132H10.7004C10.6002 10.1128 10.5 10.1124 10.3999 10.1122C10.3688 10.1121 10.3378 10.1123 10.3067 10.1125H10.3067C10.2447 10.1129 10.1827 10.1133 10.1209 10.1111C9.65523 10.0936 9.2714 9.7105 9.25935 9.22953C9.25095 8.89829 9.25497 8.56633 9.26154 8.23509C9.26519 8.04664 9.33604 7.87719 9.45291 7.72928C9.64537 7.48606 9.90247 7.37686 10.2078 7.37577C10.54 7.37431 10.8722 7.37471 11.2044 7.37512L11.4535 7.3754C11.5017 7.3754 11.5473 7.37467 11.547 7.3082C11.5466 7.19828 11.5466 7.08872 11.547 6.97879C11.547 6.9346 11.5254 6.91269 11.4812 6.91306L11.4418 6.91287L11.4024 6.91269H5.15339L4.72391 6.91297C4.4018 6.91328 4.07969 6.91359 3.75758 6.91233C3.69404 6.91233 3.6608 6.93132 3.64912 6.99596C3.63651 7.06616 3.62126 7.13589 3.606 7.20567L3.606 7.20569C3.59784 7.24299 3.58968 7.2803 3.58192 7.3177C3.55664 7.43988 3.53156 7.56216 3.50648 7.68449L3.5064 7.68485C3.48367 7.79568 3.46094 7.90655 3.43803 8.01743C3.41063 8.14966 3.38302 8.2818 3.35542 8.41389L3.3554 8.41398L3.35527 8.41463C3.33033 8.534 3.3054 8.65333 3.28063 8.77266C3.26706 8.83857 3.25374 8.90454 3.24041 8.97052L3.2404 8.97058C3.22072 9.068 3.20103 9.16545 3.18056 9.26277C3.15801 9.37056 3.135 9.47836 3.11199 9.58619C3.08433 9.71582 3.05665 9.84549 3.02974 9.97527C3.00232 10.1069 2.97573 10.2387 2.94914 10.3704L2.94914 10.3704C2.92579 10.4861 2.90245 10.6018 2.87854 10.7174C2.85353 10.8375 2.82805 10.9575 2.80258 11.0775C2.77711 11.1974 2.75163 11.3174 2.72662 11.4375C2.69638 11.5833 2.66663 11.7292 2.63687 11.8752C2.61524 11.9813 2.5936 12.0874 2.57177 12.1935C2.52211 12.436 2.47207 12.6785 2.42204 12.921C2.39794 13.0377 2.37402 13.1544 2.3501 13.271C2.32617 13.3877 2.30225 13.5044 2.27815 13.6211L2.22678 13.8658C2.19245 14.0289 2.15812 14.192 2.12477 14.3551L2.08972 14.5253L2.08972 14.5253C2.04786 14.7277 2.00602 14.93 1.97065 15.1334C1.96666 15.1562 1.96219 15.1792 1.9577 15.2022C1.92853 15.3519 1.89878 15.5046 1.99658 15.6461C2.0583 15.7356 2.1233 15.8262 2.20182 15.901C2.58492 16.2655 3.05786 16.4803 3.53883 16.6771C3.74955 16.7633 3.96648 16.8363 4.18304 16.9075C4.39778 16.9784 4.61435 17.0434 4.83201 17.1037C5.03396 17.1592 5.23811 17.2074 5.44226 17.2534C5.68402 17.3082 5.92615 17.3597 6.16938 17.4075C6.35074 17.4431 6.53308 17.4731 6.71548 17.5031L6.74676 17.5083C6.90456 17.5343 7.06252 17.5589 7.22053 17.5836L7.22059 17.5836C7.29807 17.5957 7.37557 17.6078 7.45306 17.62C7.49762 17.627 7.52829 17.6149 7.55313 17.5729C7.61624 17.4658 7.68077 17.3596 7.74526 17.2534L7.7453 17.2533C7.78939 17.1807 7.83347 17.1082 7.87706 17.0354C8.07555 16.7041 8.27376 16.3727 8.47198 16.0413C8.67019 15.7099 8.8684 15.3784 9.06689 15.0472L9.15373 14.9024L9.15382 14.9022C9.47212 14.3713 9.79033 13.8406 10.111 13.3114C10.1567 13.2365 10.1745 13.162 10.1738 13.0755C10.1709 12.7249 10.1716 12.3743 10.1738 12.0237C10.1742 11.9576 10.1826 11.8904 10.1976 11.8258C10.2578 11.5632 10.5964 11.4178 10.8326 11.5486C11.0131 11.6483 11.0846 11.8046 11.0846 12.0036L11.0844 13.1944V13.1945C11.0843 13.9878 11.0843 14.7813 11.0835 15.5746C11.0835 15.6286 11.0737 15.6837 11.0616 15.7367C10.9981 16.0168 10.6457 16.1614 10.4006 16.0091C10.2476 15.9142 10.1767 15.7736 10.1735 15.5972C10.1718 15.5078 10.1719 15.4184 10.172 15.3289C10.1721 15.2634 10.1722 15.1978 10.1716 15.1323C10.1714 15.1137 10.1667 15.0953 10.162 15.077C10.16 15.069 10.158 15.061 10.1563 15.053C10.1486 15.0527 10.1409 15.0527 10.1333 15.0527C9.59607 15.9445 9.05922 16.8363 8.51653 17.738C8.52864 17.741 8.53892 17.7438 8.54802 17.7463C8.56526 17.751 8.57825 17.7546 8.5914 17.7563L8.65177 17.7638L8.65179 17.7638C8.71932 17.7723 8.78691 17.7809 8.85471 17.7851C9.04495 17.7964 9.23517 17.8085 9.42539 17.8205C9.92312 17.852 10.4209 17.8835 10.9192 17.902C11.2765 17.9155 11.6343 17.9156 11.9921 17.9157C12.1855 17.9158 12.3788 17.9159 12.5721 17.9181C12.6437 17.9188 12.6886 17.8932 12.7244 17.8359C12.7955 17.7225 12.8675 17.6097 12.9395 17.4969L12.9395 17.4969L12.9396 17.4967C12.984 17.4272 13.0283 17.3577 13.0724 17.2881L13.5224 16.5778L13.5243 16.5747C13.7668 16.1919 14.0092 15.8091 14.252 15.4266C14.3962 15.1995 14.5405 14.9724 14.6848 14.7454L14.6851 14.7448L14.6853 14.7445C14.9985 14.2517 15.3117 13.7589 15.6234 13.265C15.6508 13.2219 15.6672 13.1639 15.6679 13.1124C15.67 12.9124 15.6698 12.7124 15.6697 12.5124C15.6696 12.3546 15.6695 12.1968 15.6705 12.039C15.6708 11.9707 15.6781 11.9006 15.6935 11.8342C15.764 11.5285 16.1562 11.397 16.4012 11.5931C16.5364 11.7009 16.5824 11.8436 16.5824 12.0091L16.5822 13.1945C16.5821 13.9848 16.582 14.7751 16.5813 15.5654C16.5813 15.622 16.5718 15.6794 16.5597 15.7349C16.4955 16.0208 16.1412 16.1629 15.8943 16.0059C15.7446 15.9102 15.6741 15.7721 15.6705 15.5997C15.668 15.4832 15.6686 15.3666 15.6691 15.25V15.2499C15.6695 15.1758 15.6698 15.1016 15.6694 15.0275C15.6691 15.0094 15.6647 14.9915 15.6603 14.9737C15.6582 14.9652 15.6561 14.9567 15.6544 14.9482C15.6506 14.9482 15.6466 14.9481 15.6427 14.948ZM12.0024 9.20835H13.7411C13.8372 9.20835 13.8441 9.20214 13.8441 9.10865C13.8445 8.87017 13.8445 8.6317 13.8441 8.39358C13.8441 8.29644 13.835 8.28695 13.7386 8.28695C13.6141 8.28673 13.4896 8.2869 13.3652 8.28708L13.1162 8.28731L11.6923 8.28695L10.2684 8.28658C10.1713 8.28658 10.1618 8.29608 10.1618 8.39212L10.1617 8.6306C10.1616 8.78959 10.1615 8.94857 10.1618 9.10755C10.1618 9.20214 10.1683 9.20835 10.2637 9.20835H12.0024Z" fill="#0C1E3C"/>
</svg>
