<svg width="24" height="24" viewBox="0 0 24 24" fill="none" xmlns="http://www.w3.org/2000/svg">
<path fill-rule="evenodd" clip-rule="evenodd" d="M18.3736 3.07862C18.3251 3.05503 18.2737 3.02998 18.2205 3C18.1695 3.03434 18.118 3.0655 18.0675 3.09602C17.9628 3.15931 17.8627 3.21983 17.7821 3.30018C14.2652 6.80935 10.7515 10.3221 7.243 13.8396C7.06064 14.0223 6.88602 14.1405 6.61586 14.1146C6.46091 14.0997 6.29989 14.1262 6.14326 14.152C6.13056 14.1541 6.11788 14.1562 6.10523 14.1582C5.38222 14.2763 4.75024 14.5739 4.40455 15.2476C4.18313 15.6791 4.02206 16.1533 3.90877 16.6264C3.85694 16.8429 3.80926 17.0604 3.76159 17.2778C3.58961 18.0622 3.41784 18.8457 3.05214 19.5753C2.94433 19.7899 3.01211 19.9946 3.17834 20.1624C3.41429 20.4009 3.65055 20.6395 3.8907 20.8738C4.08662 21.0649 4.27479 21.0765 4.53818 20.9784C4.59625 20.9568 4.65431 20.9351 4.7124 20.9133C5.16085 20.7457 5.6103 20.5777 6.07037 20.4494C6.39629 20.3584 6.72683 20.2833 7.05732 20.2083C7.4361 20.1224 7.81483 20.0364 8.18646 19.9265C9.01631 19.6805 9.62409 19.1667 9.82453 18.2839C9.89651 17.9666 9.92168 17.6358 9.93944 17.3098C9.94847 17.148 9.99011 17.0335 10.1057 16.9182C10.9766 16.0477 11.8456 15.1752 12.7147 14.3028C13.4776 13.5368 14.2406 12.7709 15.0047 12.0063C15.6584 11.3522 16.3147 10.701 16.9711 10.0497C17.4041 9.62014 17.837 9.19057 18.2692 8.76018C19.1139 7.91872 19.957 7.07564 20.7981 6.23094C21.0541 5.97402 21.0686 5.67578 20.8307 5.43628C20.0967 4.69616 19.3598 3.95863 18.6162 3.22788C18.553 3.16599 18.4691 3.12513 18.3736 3.07862ZM19.1501 5.27246L19.6926 5.81683L18.9848 6.54048L18.8466 6.3997C18.4072 5.95217 17.9692 5.50602 17.5278 5.0567L17.938 4.66901L18.2524 4.37178C18.5436 4.66379 18.8442 4.96548 19.1488 5.27117L19.1501 5.27246ZM6.3557 15.173C6.89441 15.0394 7.32337 15.1837 7.61806 15.7149C7.52141 15.8099 7.42343 15.9048 7.32498 16.0002L7.32491 16.0003C7.06434 16.2528 6.80048 16.5085 6.54937 16.7762C6.45189 16.8801 6.38701 17.0477 6.37604 17.1913C6.35958 17.4072 6.48804 17.5709 6.69558 17.6503C6.90958 17.7319 7.10421 17.6864 7.26527 17.5244C7.52395 17.2643 7.78097 17.0023 8.05475 16.7232L8.05478 16.7232L8.05482 16.7231L8.05487 16.7231L8.05763 16.7202C8.16589 16.6099 8.27677 16.4968 8.39142 16.3802C8.56249 16.57 8.71742 16.742 8.87171 16.9153C8.88526 16.9305 8.89462 16.9515 8.90108 16.9712C9.11637 17.6206 8.7058 18.606 8.07382 18.862C7.69391 19.0156 7.28754 19.1144 6.88505 19.1999L6.6721 19.2449L6.67206 19.2449C5.9338 19.4006 5.19685 19.556 4.49428 19.8451C4.44264 19.8667 4.34129 19.8406 4.30094 19.7993C4.24671 19.7438 4.18087 19.6321 4.20282 19.5792C4.49965 18.8661 4.65517 18.1171 4.81067 17.3683L4.81067 17.3682C4.86366 17.1131 4.91664 16.8579 4.97521 16.6042C5.01685 16.4241 5.07462 16.2469 5.13982 16.0739C5.34704 15.5239 5.76051 15.2414 6.3344 15.1749C6.33723 15.1746 6.34012 15.1745 6.34299 15.1744H6.343H6.34301C6.34733 15.1743 6.35163 15.1742 6.3557 15.173ZM14.6643 7.93491L14.6625 7.93662L14.5144 8.08365C14.5496 8.11711 14.5858 8.15056 14.6224 8.18436C14.7031 8.25882 14.7855 8.33495 14.8623 8.41643C15.0844 8.65238 15.0886 8.9561 14.8804 9.16526C14.6784 9.36828 14.3533 9.37086 14.1319 9.15654C14.048 9.07533 13.9742 8.98389 13.9022 8.89467C13.8703 8.85518 13.8388 8.81612 13.8069 8.77858L13.298 9.27156L12.9909 9.56905C13.0323 9.60613 13.0736 9.64172 13.1143 9.67678L13.1144 9.67682L13.1144 9.67682C13.2015 9.75192 13.286 9.82465 13.3628 9.90473C13.5922 10.1445 13.5945 10.4609 13.3782 10.6668C13.1613 10.8734 12.8524 10.8598 12.6152 10.6235C12.5385 10.5472 12.4687 10.464 12.4024 10.3848L12.4023 10.3848C12.373 10.3497 12.3443 10.3155 12.316 10.283L11.5142 11.0674C11.5507 11.1003 11.5875 11.1325 11.6241 11.1645L11.6241 11.1646C11.7069 11.2371 11.7889 11.3089 11.8648 11.3866C12.0965 11.6238 12.1052 11.935 11.8941 12.1496C11.6879 12.3591 11.3593 12.352 11.1295 12.1215C11.0511 12.0429 10.9814 11.9559 10.9121 11.8695L10.912 11.8694C10.8809 11.8305 10.8498 11.7917 10.818 11.7539C9.851 12.7206 8.93368 13.6379 8.03282 14.5388C8.52828 15.0349 9.01986 15.5274 9.5095 16.018C12.3932 13.1337 15.2855 10.241 18.1588 7.36745L18.165 7.36128L18.1972 7.32901L17.6709 6.79984L17.667 6.79589C17.3529 6.48015 17.0407 6.16616 16.7318 5.85588L16.3151 6.27115L16.0011 6.58405C16.0375 6.61894 16.0743 6.65342 16.1112 6.68792L16.1112 6.68793C16.1931 6.76452 16.275 6.8412 16.3523 6.92264C16.5682 7.15052 16.574 7.47232 16.3726 7.67244C16.1657 7.87805 15.8491 7.88095 15.6231 7.66631C15.5412 7.58887 15.4683 7.50202 15.3964 7.41643L15.3963 7.41639C15.3643 7.3782 15.3324 7.34026 15.3 7.30351C15.0715 7.53074 14.8705 7.73026 14.6643 7.93491Z" fill="#0C1E3C"/>
</svg>
