<svg width="24" height="24" viewBox="0 0 24 24" fill="none" xmlns="http://www.w3.org/2000/svg">
<path fill-rule="evenodd" clip-rule="evenodd" d="M23.7914 9.06C23.4747 8.08539 22.5747 7.39513 21.551 7.34139L16.2042 7.0727L14.2827 2.06087C13.9159 1.104 12.9809 0.46122 11.9562 0.46122C10.9315 0.46122 9.99658 1.104 9.62979 2.06035L7.72179 7.06279L2.35988 7.34139C1.33675 7.39513 0.43675 8.08539 0.120054 9.06052C-0.195598 10.0346 0.126315 11.1214 0.922489 11.7668L5.09118 15.1268L3.69971 20.3118C3.43362 21.301 3.81188 22.3711 4.64145 22.9737C5.4611 23.5701 6.61466 23.5993 7.46353 23.0483L11.9474 20.123L16.4484 23.0483C16.8538 23.3118 17.3228 23.4506 17.8065 23.4506C18.3366 23.4506 18.8427 23.2863 19.27 22.9748C20.0995 22.3743 20.4788 21.3037 20.2133 20.3129L18.8161 15.1445L22.9905 11.7663C23.7856 11.1214 24.1081 10.0336 23.7914 9.06ZM16.8606 12.7299C15.9131 13.4974 15.5046 14.7548 15.8208 15.9318L16.5387 18.6089C16.5799 18.7607 16.523 18.9235 16.3952 19.0153C16.2674 19.1082 16.0957 19.1134 15.9632 19.0263L13.6399 17.5158C13.1745 17.2132 12.6334 17.0572 12.0867 17.0348V5.63948C12.0867 5.58365 12.1268 5.53513 12.1816 5.5247C12.2369 5.51426 12.2912 5.54505 12.3115 5.59774L13.3039 8.18505C13.7406 9.324 14.8096 10.1009 16.0284 10.165L18.7957 10.3085C18.9533 10.3169 19.09 10.4212 19.1385 10.5715C19.1875 10.7217 19.1385 10.8866 19.0159 10.9857L16.8606 12.7299Z" fill="#87859A"/>
</svg>
