<svg width="24" height="24" viewBox="0 0 24 24" fill="none" xmlns="http://www.w3.org/2000/svg">
<path fill-rule="evenodd" clip-rule="evenodd" d="M1.78688 23.9265C1.81804 23.9506 1.84924 23.9747 1.87799 24.0005H22.127C22.1559 23.9743 22.1876 23.9497 22.2193 23.9252C22.287 23.8728 22.3547 23.8203 22.3953 23.7513C22.5849 23.4341 22.344 23.0669 21.9517 23.0657C21.1315 23.0631 20.3119 23.0636 19.4925 23.0641C19.1647 23.0643 18.837 23.0645 18.5093 23.0645H18.247V19.1964C18.3635 19.2247 18.4794 19.2553 18.5952 19.286C18.8456 19.3522 19.0955 19.4183 19.3499 19.4599C21.4366 19.8057 23.6246 18.2198 23.9537 16.1356C23.9594 16.1005 23.9724 16.0666 23.9853 16.0327C23.9913 16.0169 23.9973 16.0012 24.0026 15.9853V15.0481C23.9982 15.0399 23.9929 15.0319 23.9876 15.0238C23.9759 15.006 23.9642 14.9879 23.9609 14.9682C23.7176 13.6137 22.9569 12.6419 21.7574 11.998C21.6741 11.9534 21.5777 11.9227 21.4826 11.8923C21.3284 11.8432 21.1774 11.795 21.0896 11.6904C20.987 11.5678 20.9573 11.3843 20.9276 11.2006C20.9145 11.1197 20.9015 11.0388 20.8822 10.963C20.8808 10.9584 20.8788 10.9546 20.8769 10.9509C20.8753 10.9478 20.8737 10.9448 20.8726 10.9415C20.5984 10.1486 20.0856 9.55123 19.3774 9.13151C19.3762 9.12433 19.375 9.11861 19.374 9.11396C19.3721 9.10473 19.371 9.0997 19.3726 9.09574C19.3905 9.03621 19.4095 8.97669 19.4285 8.91717L19.4286 8.91688C19.685 8.09414 19.7184 7.26186 19.5169 6.42361C19.4429 6.11121 19.2057 5.94905 18.941 6.01224C18.6739 6.07663 18.5344 6.32465 18.6023 6.63347C18.7478 7.2869 18.7299 7.93198 18.5475 8.57705C18.4974 8.75591 18.4127 8.76664 18.247 8.76187C18.1898 8.76032 18.1323 8.75836 18.0747 8.7564C17.7347 8.74483 17.3894 8.73308 17.0641 8.80241C15.7215 9.08858 14.7557 10.1343 14.5303 11.4888C14.5041 11.6427 14.4361 11.7142 14.2883 11.7786C13.9473 11.9276 13.6062 12.0898 13.2962 12.2937C13.097 12.4246 12.9164 12.5846 12.7347 12.7456C12.6532 12.8178 12.5715 12.8901 12.4878 12.9602C12.4865 12.9559 12.4847 12.9512 12.4828 12.9463C12.4779 12.9335 12.4723 12.9188 12.4723 12.9042C12.4721 12.7215 12.4719 12.5387 12.4716 12.356C12.4703 11.3511 12.469 10.3462 12.4771 9.34137C12.4783 9.27102 12.5653 9.17086 12.638 9.13509C13.1364 8.89142 13.6376 8.65233 14.1387 8.41327C14.4467 8.26629 14.7548 8.11933 15.0621 7.97132C15.1516 7.9284 15.2434 7.87474 15.3113 7.8032C15.4604 7.64461 15.4616 7.39779 15.3316 7.22012C15.1933 7.03173 14.9656 6.97569 14.7235 7.08896C14.2861 7.29442 13.8503 7.50292 13.4143 7.71149C13.1823 7.82248 12.9502 7.93349 12.7179 8.04406C12.6604 8.07188 12.6015 8.09682 12.5321 8.12616C12.5123 8.13455 12.4916 8.14329 12.4699 8.15257C12.4699 7.76364 12.47 7.3786 12.4702 6.99616C12.4704 6.23892 12.4707 5.49183 12.4699 4.74474C12.4687 4.42161 12.2863 4.22009 12.0013 4.22129C11.7163 4.22248 11.5363 4.4228 11.5351 4.74713C11.5337 5.08647 11.5339 5.42582 11.5341 5.76517C11.5343 6.01963 11.5344 6.27408 11.5339 6.52854C11.5339 6.57356 11.53 6.61802 11.5256 6.6677C11.5236 6.69039 11.5214 6.71417 11.5196 6.73959C11.4944 6.72858 11.471 6.7184 11.4489 6.70878C11.3871 6.68196 11.3356 6.65955 11.2847 6.63586C11.0641 6.53092 10.8436 6.42558 10.6231 6.32024C10.1822 6.1096 9.74132 5.89895 9.29937 5.69149C8.99769 5.5496 8.70556 5.66049 8.6054 5.9407C8.51836 6.18275 8.62567 6.41527 8.9023 6.54762C9.71789 6.93991 10.5335 7.33102 11.3526 7.71138C11.4969 7.77816 11.5387 7.85566 11.5387 8.00948C11.5345 9.12467 11.5344 10.2404 11.5343 11.356C11.5343 11.834 11.5342 12.3119 11.5339 12.7897C11.5339 12.8287 11.5318 12.8676 11.5296 12.9066C11.5286 12.9261 11.5275 12.9455 11.5267 12.965C11.5147 12.964 11.506 12.9639 11.4997 12.9637C11.4911 12.9636 11.4871 12.9635 11.485 12.9614C11.4349 12.9125 11.3848 12.8637 11.336 12.8136C10.8924 12.3605 10.3785 12.0099 9.77989 11.8001C9.57719 11.7297 9.45795 11.6379 9.46749 11.4149C9.46855 11.3885 9.46212 11.3612 9.45566 11.3337C9.45483 11.3302 9.454 11.3266 9.45318 11.3231C9.07758 9.60846 7.47264 8.50193 5.73176 8.76187C5.58033 8.78453 5.50879 8.75233 5.46467 8.59613C5.29416 7.99994 5.24646 7.40017 5.37405 6.79206C5.70076 5.22885 6.82398 4.1247 8.38481 3.83853C8.67575 3.78488 8.8403 3.63463 8.90111 3.34608C9.04539 2.66046 9.41741 2.11316 9.95875 1.68152C11.8678 0.160038 14.3706 1.17237 14.993 3.00387C15.2445 3.74408 15.2554 3.74651 15.7188 3.8506C15.8287 3.87529 15.964 3.90569 16.1341 3.953C16.136 3.95354 16.1378 3.95409 16.1396 3.95462C16.1457 3.95641 16.1512 3.95804 16.1567 3.95896C16.4382 4.00427 16.6874 3.7968 16.6957 3.51301C16.7041 3.25188 16.561 3.09568 16.2426 3.00387C16.2208 2.99754 16.1985 2.99257 16.1764 2.98762C16.0776 2.96556 15.9812 2.94404 15.9373 2.80474C15.3781 1.00663 13.4226 -0.273989 11.4123 0.0503388C9.81448 0.307893 8.69006 1.18787 8.10102 2.70935C8.03306 2.88463 7.94244 2.95975 7.77193 3.00864C5.71865 3.5929 4.34502 5.4089 4.37245 7.54803C4.37732 7.90852 4.43748 8.2679 4.49909 8.63597C4.52796 8.80845 4.55715 8.98283 4.58112 9.16013C3.7071 9.68954 3.1431 10.492 2.98452 11.564C2.96449 11.701 2.88107 11.729 2.7862 11.7609C2.77376 11.765 2.76114 11.7693 2.74843 11.7738C0.983703 12.4117 -0.280221 14.2134 0.053646 16.1439C0.414937 18.2413 2.49206 19.7556 4.62285 19.4647C4.88371 19.4295 5.14065 19.3601 5.3975 19.2908C5.51518 19.259 5.63283 19.2273 5.75084 19.1988V23.0645H5.4754C5.14975 23.0645 4.82401 23.0643 4.49822 23.0641C3.6836 23.0636 2.86873 23.0631 2.05446 23.0657C1.65978 23.0669 1.42011 23.4329 1.60851 23.7513C1.65028 23.8209 1.7185 23.8737 1.78688 23.9265ZM6.70475 16.417C6.71309 16.4229 6.72173 16.4289 6.73038 16.4348L6.73061 16.435C6.73918 16.4409 6.74775 16.4468 6.75602 16.4527C6.80689 16.4004 6.85698 16.3473 6.90704 16.2942L6.90707 16.2942C7.02129 16.1732 7.13532 16.0523 7.25801 15.9412C7.34744 15.8613 7.46071 15.785 7.57518 15.7611C7.78623 15.717 7.95913 15.8112 8.05929 16.0068C8.16422 16.2119 8.12249 16.4038 7.96509 16.5648C7.73253 16.801 7.49817 17.0355 7.26366 17.27L7.26358 17.2701C7.11696 17.4168 6.9703 17.5635 6.82398 17.7107C6.62605 17.9098 6.64632 18.0446 6.89553 18.1769C7.83631 18.6813 8.7926 18.6861 9.74889 18.233C11.0772 17.6046 11.7998 16.1809 11.4325 14.8323C11.1022 13.622 10.2664 12.8923 9.07043 12.5644C8.67337 12.4559 8.59348 12.3688 8.57917 11.9503C8.53624 10.6733 7.49529 9.65616 6.23376 9.65735C4.97102 9.65973 3.93127 10.6816 3.8943 11.9563C3.88238 12.3688 3.80368 12.4642 3.39708 12.5644C1.81837 12.9495 0.780998 14.3923 0.978933 15.9245C1.2508 18.0112 3.81799 19.2441 5.61968 18.1459C5.69361 18.1006 5.75919 17.9826 5.76276 17.8955C5.77065 17.7008 5.76959 17.5061 5.76852 17.3113V17.3113C5.7675 17.1233 5.76647 16.9353 5.7735 16.7472C5.77946 16.5767 5.72938 16.4861 5.57198 16.4098C5.04127 16.1531 4.51433 15.8882 3.98751 15.6234C3.78996 15.5241 3.59242 15.4248 3.3947 15.3259L3.36552 15.3117L3.3655 15.3117C3.32604 15.2926 3.28627 15.2733 3.24803 15.2532C2.97856 15.1053 2.88317 14.8537 3.0036 14.6081C3.12522 14.3613 3.38993 14.2719 3.6606 14.4042C4.08367 14.6113 4.504 14.8222 4.92456 15.0333L4.92478 15.0334L4.92493 15.0335C5.12416 15.1334 5.32344 15.2334 5.5231 15.3331C5.56529 15.3538 5.60829 15.373 5.65606 15.3943C5.69062 15.4096 5.72768 15.4261 5.76873 15.4452C5.76873 15.2652 5.76815 15.0879 5.76759 14.9126V14.9124V14.9124C5.76599 14.4188 5.76444 13.9411 5.77588 13.4634C5.77946 13.3287 5.83908 13.1713 5.92493 13.0664C6.04774 12.9173 6.23733 12.8982 6.41857 12.9769C6.62009 13.064 6.70594 13.2238 6.70594 13.442C6.70415 14.1861 6.70437 14.9302 6.7046 15.6738L6.70475 16.417ZM18.4147 15.3663C18.3617 15.392 18.3038 15.4201 18.2363 15.4535C18.2363 14.2874 18.2363 13.1713 18.2351 12.054C18.2351 11.781 18.1027 11.595 17.8797 11.5425C17.5781 11.471 17.305 11.688 17.3014 12.0159C17.2981 12.3835 17.2988 12.7505 17.2996 13.1387V13.1389V13.139C17.2999 13.3111 17.3002 13.4874 17.3002 13.6697C17.2286 13.5989 17.161 13.5316 17.096 13.4668C16.962 13.3333 16.8389 13.2107 16.7136 13.0902C16.5431 12.9269 16.3451 12.8827 16.1341 12.9984C15.9421 13.1021 15.8551 13.281 15.9052 13.4909C15.9314 13.6041 16.0101 13.7162 16.0936 13.8033C16.2653 13.9813 16.4403 14.156 16.6153 14.3307C16.8048 14.5199 16.9944 14.7092 17.1798 14.9026C17.2454 14.9718 17.2943 15.0886 17.2943 15.184C17.2994 15.6679 17.2997 16.1514 17.3 16.6348V16.6348V16.6354C17.3003 17.05 17.3005 17.4644 17.3038 17.8788C17.305 18.0255 17.2514 18.0994 17.1297 18.1698C15.1897 19.2858 12.588 17.8729 12.4735 15.6383C12.4091 14.3732 13.3308 13.0914 14.6222 12.6574C14.7047 12.6294 14.7885 12.6073 14.8724 12.5852L14.8724 12.5852L14.8724 12.5852C14.9243 12.5716 14.9761 12.5579 15.0276 12.5429C15.3137 12.4618 15.4199 12.3211 15.4246 12.0195C15.4461 10.8807 16.2104 9.9316 17.2847 9.70982C18.7216 9.4141 20.0666 10.4837 20.1107 11.9586C20.1226 12.3688 20.2013 12.4642 20.6091 12.5644C21.9064 12.8815 22.871 13.907 23.0332 15.2293C23.1668 16.3108 22.7136 17.1777 21.8849 17.8514C20.8869 18.6634 19.5109 18.7826 18.4175 18.1757C18.2899 18.1054 18.2243 18.0291 18.2315 17.8681C18.2458 17.4865 18.2446 17.1026 18.2315 16.721C18.2267 16.5648 18.2768 16.4873 18.4163 16.4193C19.1794 16.0461 19.9414 15.6717 20.6926 15.2758C20.8356 15.2007 20.9907 15.0433 21.024 14.8979C21.055 14.7643 20.962 14.5652 20.8607 14.4507C20.7271 14.2969 20.5221 14.3136 20.3408 14.4042C19.8661 14.6406 19.3929 14.8778 18.9195 15.1151L18.9191 15.1153L18.9188 15.1154L18.563 15.2937C18.5154 15.3175 18.4676 15.3407 18.4148 15.3662L18.4148 15.3663L18.4147 15.3663ZM11.522 23.0561V18.0601C10.1436 19.4551 8.55532 19.8665 6.71905 19.1725V23.0561H11.522ZM17.2931 19.1678C15.4401 19.8653 13.859 19.4504 12.4854 18.0624V23.0478H17.2931V19.1678Z" fill="#0C1E3C"/>
</svg>
