<svg width="24" height="24" viewBox="0 0 24 24" fill="none" xmlns="http://www.w3.org/2000/svg">
<path fill-rule="evenodd" clip-rule="evenodd" d="M10.2793 23.9957C10.3081 23.9974 10.337 23.999 10.3658 24.0002H13.8351C13.8641 23.999 13.893 23.9973 13.9219 23.9956L13.9221 23.9956C13.9831 23.992 14.044 23.9884 14.1047 23.9895C14.7847 24.0023 15.3121 23.4686 15.3983 22.8673C15.4107 22.7784 15.4101 22.6862 15.4021 22.5967C15.3844 22.4048 15.2461 22.2837 15.0339 22.2655C14.8662 22.2516 14.699 22.2328 14.5393 22.1749C14.0264 21.9874 13.7194 21.6219 13.6101 21.0898C13.5886 20.9847 13.5784 20.8754 13.5774 20.7682C13.5762 20.5643 13.5791 20.3606 13.582 20.1537C13.5832 20.0675 13.5845 19.9807 13.5854 19.8931L13.6163 19.8901C13.6491 19.887 13.681 19.8839 13.713 19.8802C13.7911 19.8712 13.8693 19.8629 13.9476 19.8545C14.1162 19.8365 14.285 19.8185 14.453 19.794C14.7713 19.7473 15.08 19.6573 15.3865 19.5635C16.118 19.339 16.8099 19.0287 17.4487 18.6059C18.4342 17.9537 19.1919 17.0968 19.7476 16.0566C19.9979 15.5883 20.1983 15.0985 20.3602 14.5926C20.3702 14.5609 20.3779 14.5285 20.3856 14.4961L20.3856 14.496C20.3893 14.4802 20.3931 14.4643 20.3972 14.4484V14.2673C20.3941 14.2576 20.3913 14.2477 20.3885 14.2378L20.3871 14.233L20.3871 14.2329L20.3871 14.2329C20.3803 14.2083 20.3734 14.1838 20.3629 14.1612C20.3119 14.0513 20.2214 13.9881 20.1088 13.9517C20.0167 13.9222 19.9218 13.9195 19.8259 13.9206L19.5156 13.9232C19.1037 13.9268 18.6919 13.9304 18.2798 13.9313C17.889 13.9321 17.4982 13.9307 17.1072 13.9293L16.7713 13.9281C16.588 13.9275 16.4047 13.9265 16.2209 13.9249C16.2069 13.9249 16.1928 13.9231 16.1786 13.9213L16.1785 13.9213L16.1785 13.9213C16.1721 13.9204 16.1657 13.9196 16.1593 13.919C16.1577 13.9136 16.1556 13.9082 16.1534 13.9029C16.1617 13.8957 16.1701 13.8887 16.1785 13.8817L16.1786 13.8816C16.1951 13.8678 16.2116 13.854 16.2268 13.8391L16.3765 13.693C16.5066 13.5662 16.6367 13.4393 16.7649 13.3107C17.2777 12.7963 17.6662 12.2004 17.9294 11.523C18.014 11.3054 18.0933 11.0852 18.1416 10.8563C18.2 10.5798 18.0655 10.3874 17.79 10.3488C17.7289 10.3402 17.6665 10.3404 17.6043 10.3407L17.5719 10.3408C16.4722 10.3404 15.3725 10.3406 14.273 10.3407L12.624 10.3408H12.5201V10.2502L12.5194 10.0541C12.5189 9.92334 12.5184 9.79259 12.5184 9.66183V9.66102V9.66022V9.65942V9.65861V9.65781V9.657V9.6562C12.519 7.85265 12.5195 6.04856 12.5211 4.24501C12.5211 4.16249 12.5302 4.07889 12.5463 3.99797C12.6701 3.38223 13.2842 2.85008 14.0334 2.99477C14.527 3.09016 14.8646 3.37687 15.0414 3.84899C15.0923 3.98457 15.1041 4.12765 15.1154 4.27074C15.1229 4.3597 15.1508 4.44276 15.2038 4.51564C15.2949 4.64158 15.4208 4.68873 15.5725 4.67105C15.714 4.65497 15.8142 4.57995 15.8737 4.45133C15.9074 4.37899 15.9224 4.30236 15.9171 4.22358L15.9171 4.22355C15.9096 4.11584 15.9021 4.00814 15.8849 3.90151C15.8329 3.57622 15.7161 3.27665 15.5184 3.01139C15.2606 2.66627 14.9171 2.43798 14.5189 2.28793C14.1556 2.15074 13.7837 2.11323 13.4016 2.19683C13.1106 2.26006 12.8464 2.38386 12.5999 2.54838C12.581 2.56098 12.5621 2.57321 12.5349 2.59077L12.5349 2.59079L12.5348 2.59087L12.5184 2.60143L12.5186 2.56074C12.5187 2.53877 12.5188 2.5201 12.5184 2.50122C12.5175 2.42803 12.5167 2.35482 12.5159 2.28157L12.5159 2.2808L12.5158 2.28059V2.28052C12.5136 2.07521 12.5114 1.86968 12.505 1.66415C12.4992 1.4782 12.4804 1.29331 12.4225 1.11432C12.1669 0.319593 11.287 -0.160032 10.4327 0.0489668C9.8229 0.198481 9.27253 0.752595 9.19429 1.4723C9.1809 1.59502 9.17875 1.71828 9.23127 1.83564C9.30737 2.00605 9.47885 2.09769 9.66213 2.06339C9.82986 2.03231 9.92418 1.92245 9.9692 1.76704C9.9839 1.71664 9.99004 1.66328 9.99613 1.61031C9.99782 1.59569 9.9995 1.58111 10.0014 1.56662C10.0298 1.33029 10.1337 1.1363 10.3245 0.99214C10.5083 0.853879 10.713 0.778854 10.9445 0.810472C11.3936 0.8721 11.6937 1.21722 11.6969 1.66844C11.6991 1.92995 11.7001 2.19147 11.7001 2.45299C11.6996 3.30077 11.6985 4.14802 11.6969 4.9958C11.6969 5.01104 11.696 5.0265 11.695 5.04494L11.6932 5.07833C11.6724 5.06414 11.6554 5.05292 11.6396 5.04248L11.6176 5.02796C11.0747 4.65551 10.4794 4.54083 9.84541 4.71231C9.17393 4.89398 8.71574 5.33341 8.44351 5.96845C8.33686 6.21657 8.28971 6.47808 8.29989 6.74817C8.31007 7.03273 8.53943 7.20208 8.81327 7.13027C8.96815 7.08954 9.07533 6.96146 9.09837 6.78676C9.10357 6.74877 9.10735 6.71049 9.11113 6.67218C9.11749 6.60781 9.12385 6.54339 9.13695 6.48023C9.287 5.76588 9.95312 5.33074 10.6889 5.47918C11.2709 5.596 11.6889 6.11689 11.6948 6.71066C11.6996 7.12544 11.7001 7.54076 11.7001 7.95554C11.7001 8.72161 11.6985 9.48768 11.6969 10.2543V10.2545V10.2548V10.255V10.2553V10.2555V10.2557L11.6969 10.2567C11.6969 10.2761 11.6955 10.2955 11.6938 10.3171L11.6921 10.3408H11.5871L11.5783 10.3408C9.93926 10.3413 8.30019 10.3419 6.66166 10.3429C6.5936 10.3429 6.52608 10.3429 6.45802 10.3456C6.2592 10.3542 6.10647 10.4742 6.07164 10.6543C6.05289 10.7492 6.06521 10.844 6.09201 10.9373C6.19168 11.2861 6.31922 11.6237 6.48053 11.9485C6.85619 12.7036 7.3819 13.337 8.03355 13.8691C8.04324 13.8772 8.05273 13.8857 8.06227 13.8942L8.06235 13.8942L8.08124 13.9109L8.07935 13.9172C8.07859 13.9199 8.07786 13.9225 8.07696 13.9249H7.98961C6.76562 13.9249 5.54111 13.9249 4.31659 13.9254C4.25925 13.9254 4.20084 13.9297 4.14403 13.9377C3.89163 13.9726 3.75229 14.2105 3.81499 14.4115C3.82561 14.4454 3.83486 14.4798 3.84409 14.514L3.8441 14.5141C3.85117 14.5403 3.85823 14.5666 3.8659 14.5926C4.0047 15.0502 4.16815 15.4972 4.39108 15.9221C4.82998 16.7603 5.39534 17.4971 6.11934 18.1086C6.9773 18.8331 7.9612 19.3208 9.03299 19.637C9.46484 19.7641 9.91061 19.8161 10.3561 19.868L10.3561 19.8681L10.4558 19.8797C10.5036 19.8854 10.5514 19.8917 10.6024 19.8985L10.6385 19.9033V19.9906C10.6385 20.0595 10.6388 20.1284 10.6391 20.1973V20.1974V20.1974C10.6397 20.3698 10.6404 20.5424 10.6369 20.7146C10.6348 20.8374 10.6283 20.9617 10.6053 21.0817C10.5035 21.6096 10.2066 21.9767 9.69589 22.1626C9.52441 22.2248 9.34595 22.2484 9.16536 22.2655C8.96332 22.2848 8.82935 22.4123 8.81113 22.6122C8.80309 22.6991 8.80363 22.7885 8.81649 22.8748C8.9033 23.46 9.42794 23.9959 10.0957 23.9895C10.1569 23.9888 10.2181 23.9922 10.2793 23.9957ZM7.03331 11.1923L7.02178 11.1613H17.1941C17.1878 11.1783 17.1819 11.1948 17.1762 11.2108L17.1762 11.2109C17.1645 11.2437 17.1535 11.2747 17.1405 11.3049C16.7788 12.1366 16.2408 12.8284 15.5082 13.3659C15.2397 13.5626 14.9552 13.7314 14.6567 13.8782C14.5586 13.9265 14.4541 13.934 14.3485 13.934C13.8335 13.934 13.318 13.9329 12.803 13.9318L12.3563 13.9311C11.9093 13.9304 11.4624 13.9297 11.0158 13.9281C10.7788 13.9275 10.5417 13.9262 10.3047 13.9248C10.1269 13.9239 9.9492 13.9229 9.77145 13.9222C9.68142 13.9222 9.59675 13.9029 9.51744 13.8622C8.38724 13.2861 7.54964 12.434 7.05769 11.2556C7.04931 11.2358 7.04202 11.216 7.03332 11.1924L7.03331 11.1923ZM11.4515 19.9874V19.9006H12.7575L12.7592 19.9172C12.7609 19.9322 12.7624 19.9464 12.7628 19.9606C12.765 20.0594 12.7669 20.1582 12.7689 20.257V20.257V20.257V20.257V20.2571V20.2571V20.2571V20.2571V20.2571C12.7728 20.4546 12.7767 20.6522 12.7821 20.8497C12.7917 21.2162 12.8689 21.5667 13.0393 21.8936C13.296 22.3877 13.6953 22.7173 14.2103 22.9145C14.2521 22.9306 14.2949 22.945 14.3378 22.9595L14.3782 22.9729L14.3966 22.9789L14.397 22.9791C14.4187 22.9862 14.4414 22.9936 14.4659 23.0018C14.4618 23.0075 14.4583 23.0128 14.455 23.0178C14.4482 23.0281 14.4424 23.037 14.4348 23.0442C14.3373 23.1428 14.2167 23.1846 14.0806 23.1851C13.7392 23.1862 13.3973 23.1867 13.0554 23.1867C12.5718 23.1867 12.088 23.1864 11.6042 23.1862C11.1204 23.1859 10.6367 23.1856 10.153 23.1856C10.0147 23.1856 9.88988 23.1503 9.78753 23.0527C9.78102 23.047 9.77561 23.0402 9.76856 23.0313L9.75913 23.0195L9.78992 23.0052C9.80374 22.9988 9.81662 22.9928 9.82986 22.9868C9.86726 22.9703 9.9049 22.9542 9.94255 22.9382L9.94262 22.9381L9.94267 22.9381C10.0296 22.901 10.1166 22.8639 10.2007 22.8212C10.8341 22.5013 11.2457 22.0035 11.3979 21.3036C11.4375 21.1208 11.452 20.936 11.4515 20.7495C11.4511 20.5801 11.4512 20.4108 11.4514 20.2414L11.4515 19.9874ZM4.75174 14.7389L4.77004 14.7861C4.78034 14.8125 4.79005 14.8373 4.79889 14.8621C5.03469 15.5143 5.3857 16.1006 5.81924 16.6386C6.52179 17.51 7.40012 18.1472 8.42689 18.5834C9.0839 18.8626 9.76931 19.0292 10.481 19.0775C10.8266 19.1005 11.1739 19.1059 11.5206 19.1053C12.0608 19.1048 12.6015 19.0946 13.1417 19.0834C13.3978 19.078 13.6545 19.0694 13.9091 19.0464C14.2167 19.018 14.5195 18.958 14.8201 18.8862C15.4959 18.7243 16.1373 18.4757 16.7295 18.1102C17.8468 17.4194 18.6684 16.4645 19.2348 15.2839C19.2899 15.1683 19.342 15.051 19.394 14.9338C19.4143 14.8881 19.4346 14.8423 19.4551 14.7968C19.4607 14.7842 19.4651 14.7712 19.4698 14.757L19.476 14.7389H4.75174ZM15.917 5.68457V5.68463C15.9182 5.74339 15.9193 5.80224 15.9149 5.86084C15.9031 6.02482 15.7991 6.1513 15.6464 6.19845C15.409 6.27241 15.1502 6.12932 15.1223 5.89835C15.1101 5.79477 15.1097 5.68975 15.1094 5.58477C15.1092 5.54636 15.1091 5.50796 15.1084 5.46964C15.108 5.43762 15.1111 5.4059 15.1144 5.37403L15.1144 5.37402L15.1175 5.34156C15.1341 5.14703 15.2986 4.99644 15.4931 4.9868C15.7343 4.97447 15.9111 5.15025 15.9176 5.37854C15.9194 5.43083 15.919 5.48286 15.9185 5.535C15.9183 5.5582 15.9181 5.58141 15.9181 5.60468H15.916C15.916 5.63119 15.9165 5.65775 15.917 5.68433V5.68439V5.68445V5.68451V5.68457ZM9.0987 8.15979C9.09829 8.13423 9.09789 8.10866 9.09789 8.08309H9.10217L9.10206 8.0102C9.10194 7.96162 9.10182 7.91303 9.10217 7.86444C9.10271 7.619 8.88889 7.45073 8.68579 7.46038C8.48322 7.47056 8.30744 7.62007 8.30262 7.82157C8.29833 7.99949 8.30423 8.17847 8.3187 8.35585C8.33102 8.50376 8.40283 8.61844 8.55717 8.66024C8.65149 8.68597 8.74688 8.68329 8.84012 8.6581C8.98803 8.61791 9.0861 8.49412 9.09682 8.33174C9.10052 8.27462 9.09961 8.21725 9.0987 8.15979ZM15.1138 6.93397C15.1138 6.91201 15.1135 6.89005 15.1133 6.86811V6.86807C15.1127 6.81987 15.1121 6.77176 15.1143 6.7239C15.125 6.50686 15.3024 6.33913 15.5189 6.33913C15.7386 6.33859 15.9053 6.49293 15.9155 6.718C15.9224 6.86805 15.9219 7.01918 15.9144 7.16869C15.9042 7.3793 15.7397 7.53042 15.5286 7.53363C15.3137 7.53685 15.1341 7.38305 15.117 7.17458C15.1122 7.12021 15.1135 7.06508 15.1148 7.00989C15.1153 6.98458 15.1159 6.95925 15.1159 6.93397H15.1138ZM9.10241 9.48127L9.10217 9.41585H9.09842C9.09842 9.39028 9.09903 9.36471 9.09964 9.33917V9.33914V9.33912C9.10101 9.28171 9.10238 9.22447 9.09682 9.16773C9.07967 8.99303 8.92908 8.80869 8.68739 8.8119C8.47732 8.81512 8.30905 8.98017 8.30101 9.18863C8.29565 9.3344 8.2978 9.48016 8.29994 9.62539C8.30369 9.86761 8.51591 10.0203 8.70561 10.0134C8.92319 10.0059 9.09682 9.83492 9.10217 9.61145C9.10289 9.56824 9.10265 9.5248 9.10241 9.48127ZM10.0046 2.77763C10.0046 2.80424 10.0051 2.8309 10.0056 2.85758C10.0068 2.91634 10.0079 2.97519 10.0035 3.03379C9.9917 3.19777 9.88774 3.32424 9.73501 3.3714C9.49761 3.44535 9.23877 3.30227 9.21091 3.0713C9.19874 2.96772 9.19836 2.8627 9.19797 2.75772V2.75763C9.19783 2.71925 9.19769 2.68088 9.19697 2.64259C9.19657 2.61056 9.19976 2.57884 9.20296 2.54697L9.20608 2.51451C9.2227 2.31998 9.38722 2.16939 9.58175 2.15974C9.8229 2.14742 9.99974 2.32319 10.0062 2.55148C10.008 2.60377 10.0076 2.65579 10.0071 2.70792V2.70795C10.0069 2.73114 10.0067 2.75436 10.0067 2.77763H10.0046ZM9.20186 3.99402C9.20212 4.01595 9.20239 4.03791 9.20239 4.05986H9.20453C9.20453 4.08514 9.20395 4.11047 9.20336 4.13579C9.20209 4.19098 9.20083 4.24611 9.2056 4.30048C9.22275 4.50894 9.40227 4.66274 9.61717 4.65953C9.82831 4.65631 9.99283 4.50519 10.003 4.29458C10.0105 4.14507 10.0111 3.99395 10.0041 3.8439C9.9939 3.61882 9.82724 3.46449 9.60752 3.46502C9.39102 3.46502 9.21364 3.63276 9.20292 3.84979C9.20071 3.89767 9.20129 3.94581 9.20186 3.99402Z" fill="#0C1E3C"/>
</svg>
