<svg width="24" height="24" viewBox="0 0 24 24" fill="none" xmlns="http://www.w3.org/2000/svg">
<path d="M5.26623 9.765C6.22596 6.86141 8.94215 4.90272 12.0002 4.909C13.6902 4.909 15.2182 5.509 16.4182 6.491L19.9102 3C17.7822 1.145 15.0552 0 12.0002 0C7.27023 0 3.19823 2.698 1.24023 6.65L5.26623 9.765Z" fill="#EA4335"/>
<path d="M16.0401 18.0129C14.9501 18.7159 13.5661 19.0909 12.0001 19.0909C8.95479 19.0972 6.24697 17.1546 5.27706 14.2679L1.23706 17.3349C3.25934 21.4281 7.43464 24.0136 12.0001 23.9999C14.9331 23.9999 17.7351 22.9569 19.8341 20.9999L16.0411 18.0129H16.0401Z" fill="#34A853"/>
<path d="M19.834 21C22.029 18.952 23.454 15.904 23.454 12C23.454 11.29 23.345 10.527 23.182 9.81799H12V14.455H18.436C18.119 16.014 17.266 17.221 16.041 18.013L19.834 21Z" fill="#4A90E2"/>
<path d="M5.27712 14.268C5.03247 13.5369 4.90819 12.771 4.90912 12C4.90912 11.218 5.03412 10.467 5.26612 9.76502L1.24012 6.65002C0.416494 8.31271 -0.00807994 10.1445 0.000116455 12C0.000116455 13.92 0.445116 15.73 1.23712 17.335L5.27712 14.268V14.268Z" fill="#FBBC05"/>
</svg>
