<svg width="24" height="24" viewBox="0 0 24 24" fill="none" xmlns="http://www.w3.org/2000/svg">
<path fill-rule="evenodd" clip-rule="evenodd" d="M23.9999 9.14762L24.0001 9.14643V8.62157L23.9676 8.33094C23.9181 7.87788 23.7998 7.44307 23.6195 7.02592C23.0865 5.79157 22.1712 4.95214 20.9447 4.43868C20.4828 4.24492 20.0004 4.12069 19.5055 4.04718C19.416 4.03388 19.3255 4.02666 19.235 4.01944C19.1897 4.01583 19.1445 4.01223 19.0993 4.00786C19.0922 4.00706 19.0854 4.00489 19.0784 4.00268L19.0692 3.99988H18.3382L18.3275 4.00275C18.3191 4.0051 18.3107 4.00746 18.3024 4.00786C17.9446 4.0221 17.5885 4.05858 17.2397 4.14064C16.8006 4.24322 16.3631 4.35662 15.9268 4.4706C14.8696 4.74686 13.813 5.02451 12.7563 5.30219L11.872 5.53455L11.2683 5.69322L11.2682 5.69324C10.7634 5.82602 10.2585 5.95883 9.75301 6.08961C9.70351 6.10215 9.64378 6.09645 9.59486 6.08164C8.70517 5.81094 7.81661 5.53854 6.92862 5.26443C6.75683 5.212 6.59243 5.21371 6.42405 5.28495C6.14132 5.40462 5.90696 5.58527 5.71753 5.82519C5.4348 6.18307 5.25959 6.59395 5.14013 7.03048C5.03319 7.42255 4.97915 7.82375 4.95298 8.22893L4.94758 8.3107C4.9246 8.65715 4.90166 9.0029 4.92909 9.35158C4.96038 9.74879 5.0002 10.1443 5.08552 10.5335C5.18052 10.9678 5.32501 11.3826 5.5628 11.761C5.78351 12.1121 6.0742 12.3828 6.46387 12.5378C6.58902 12.5873 6.71587 12.6033 6.84671 12.5628C6.90469 12.5452 6.96278 12.5279 7.02084 12.5106C7.10176 12.4865 7.18263 12.4623 7.26311 12.4375C8.02026 12.205 8.77684 11.9719 9.53343 11.7388C9.63411 11.7075 9.73537 11.7 9.8389 11.728L10.1128 11.8012C10.6183 11.9365 11.1239 12.0717 11.6302 12.205C12.6405 12.471 13.651 12.7363 14.6616 13.0016L14.6631 13.002L14.6633 13.002L14.6653 13.0026C15.3764 13.1893 16.0877 13.376 16.7989 13.563C16.8158 13.5674 16.8306 13.571 16.8436 13.5741C16.8886 13.585 16.9118 13.5907 16.9226 13.6054C16.934 13.621 16.9314 13.6468 16.9261 13.7001L16.9229 13.7334L16.9212 13.755C16.8979 14.1055 16.8324 14.4486 16.6823 14.7671C16.5486 15.0509 16.4012 15.329 16.2477 15.6031C15.8893 16.2425 15.6805 16.9258 15.6367 17.6581C15.6071 18.1499 15.6492 18.636 15.7823 19.1113C15.8465 19.3397 15.9157 19.5663 15.9849 19.793L15.9849 19.793L15.9849 19.793L15.9849 19.793L15.9849 19.793L15.9849 19.7931L15.9849 19.7931L15.985 19.7935C16.0201 19.9083 16.0551 20.0231 16.0895 20.1382C16.2812 20.7799 16.7926 21.1777 17.4582 21.1959C17.6943 21.2022 17.9309 21.201 18.167 21.1953C18.2751 21.1925 18.3854 21.1816 18.4907 21.1566C18.9731 21.0432 19.3531 20.7679 19.6597 20.3861C19.9856 19.9809 20.1916 19.5142 20.3451 19.0212C20.4874 18.5634 20.5634 18.0922 20.6394 17.6208L20.6394 17.6208C20.6576 17.5078 20.6759 17.3948 20.695 17.282L20.7082 17.2037C20.7662 16.8592 20.8244 16.5138 20.9106 16.1758C21.1489 15.2407 21.4874 14.3414 21.9266 13.4815C22.1905 12.964 22.4852 12.4648 22.8527 12.0129C23.1172 11.6875 23.3572 11.3467 23.5387 10.966C23.7674 10.4885 23.9096 9.98643 23.9671 9.45986C23.9784 9.35567 23.9891 9.25204 23.9999 9.14841L23.9999 9.14817L23.9999 9.14796L23.9999 9.14777L23.9999 9.14762ZM10.1341 8.90594H10.1347L10.1348 9.37287V9.37292V9.37297V9.37302V9.37308V9.37313V9.37318V9.37324C10.1349 9.84016 10.135 10.3069 10.1341 10.774C10.1336 10.8259 10.1506 10.8515 10.2035 10.8652C10.7506 11.007 11.2971 11.1512 11.8436 11.2953L11.8441 11.2954C12.1583 11.3784 12.4725 11.4617 12.7867 11.545L12.7879 11.5453C13.2351 11.6638 13.6824 11.7823 14.1298 11.9001C14.4507 11.9846 14.7719 12.0683 15.0931 12.1521L15.0932 12.1521L15.0934 12.1522L15.0935 12.1522L15.0937 12.1522L15.0938 12.1523L15.0939 12.1523L15.0941 12.1524L15.0943 12.1524L15.0944 12.1524L15.0945 12.1525C15.6757 12.304 16.2569 12.4556 16.837 12.6118C17.51 12.7936 18.1892 12.911 18.8894 12.8757C19.2882 12.8563 19.6801 12.7971 20.063 12.6859C20.6859 12.5047 21.265 12.2323 21.7491 11.7958C22.8595 10.7939 23.2696 9.54477 22.9784 8.0819C22.7833 7.10114 22.2468 6.32383 21.4248 5.75681C20.5448 5.14932 19.5567 4.90541 18.4958 4.92479C18.0265 4.93333 17.5674 5.00343 17.1146 5.12082C16.4058 5.30432 15.6976 5.4901 14.9893 5.67588C14.4933 5.80639 13.9975 5.93717 13.5018 6.06796C13.006 6.19874 12.5103 6.32953 12.0142 6.46003C11.6815 6.54733 11.3486 6.63445 11.0156 6.7216L11.0154 6.72164L11.0152 6.72169L11.0151 6.72173L11.0149 6.72178L11.0147 6.72182L11.0146 6.72187L11.0144 6.72191L10.2212 6.92961C10.1449 6.95013 10.1341 6.9638 10.1341 7.03789V8.90594ZM9.20856 8.5286L9.20861 8.90765L9.20856 9.2833C9.20847 9.78438 9.20838 10.2855 9.20975 10.7865C9.20975 10.8407 9.19552 10.8669 9.14205 10.8834C8.36215 11.121 7.58281 11.3598 6.80404 11.6009C6.73976 11.6208 6.6897 11.6111 6.6368 11.573C6.45533 11.4402 6.33587 11.2601 6.24144 11.0601C6.09923 10.7575 6.01561 10.4366 5.95758 10.1084C5.88705 9.71004 5.85121 9.30827 5.85519 8.90366C5.86031 8.38621 5.8933 7.87162 6.02243 7.36785C6.0924 7.0926 6.18456 6.82532 6.32848 6.57857C6.40926 6.44066 6.51279 6.32212 6.64135 6.22581C6.69027 6.18934 6.73692 6.18022 6.79779 6.19903C7.57883 6.44066 8.35987 6.68057 9.14148 6.91935C9.19154 6.93474 9.20975 6.95924 9.20975 7.01224C9.20838 7.51776 9.20847 8.02291 9.20856 8.52828V8.52832V8.52836V8.5284V8.52844V8.52848V8.52852V8.52856V8.5286ZM20.763 13.4282C20.8202 13.4079 20.878 13.3873 20.9368 13.3669C20.8892 13.4789 20.8424 13.5901 20.7957 13.701L20.7934 13.7063L20.7931 13.7071L20.7929 13.7075L20.7926 13.7083L20.7921 13.7094L20.7917 13.7105L20.791 13.7121C20.723 13.8735 20.6554 14.0338 20.5869 14.1938C20.2701 14.9324 20.0465 15.6989 19.8855 16.4853C19.7979 16.9144 19.7285 17.3458 19.6671 17.7795C19.5965 18.2781 19.489 18.7699 19.2768 19.231C19.1528 19.4999 19.0049 19.7547 18.7893 19.9615C18.6135 20.1302 18.4099 20.2545 18.1607 20.2641C17.9973 20.2705 17.8335 20.2668 17.6699 20.263L17.6697 20.263C17.6136 20.2617 17.5575 20.2605 17.5014 20.2596C17.444 20.2584 17.3848 20.2545 17.3285 20.2419C17.1658 20.2049 17.06 20.0977 17.0094 19.9433L16.9777 19.8476L16.9777 19.8476L16.9777 19.8476L16.9777 19.8476L16.9777 19.8475L16.9777 19.8475L16.9777 19.8475L16.9777 19.8475L16.9777 19.8475C16.836 19.4195 16.6941 18.991 16.6089 18.5471C16.5474 18.2291 16.5469 17.9071 16.5753 17.5852C16.6322 16.9326 16.8831 16.3497 17.2073 15.7923C17.4411 15.39 17.6374 14.9723 17.7432 14.5164C17.7967 14.2856 17.837 14.0536 17.8456 13.8166C17.8478 13.7636 17.876 13.7656 17.9089 13.7678L17.9133 13.7681C17.9744 13.7718 18.0355 13.7762 18.0966 13.7805L18.0967 13.7805C18.2332 13.7902 18.3696 13.8 18.506 13.8023C18.7364 13.8057 18.9674 13.8052 19.1972 13.7892C19.6107 13.7596 20.0152 13.6741 20.4106 13.5487C20.5281 13.5118 20.6443 13.4704 20.763 13.4282ZM1.18185 8.30489C1.53454 8.30546 1.87813 8.36701 2.21717 8.45933C2.6569 8.579 3.10004 8.59553 3.54773 8.50492C3.83387 8.44679 4.06027 8.58584 4.12853 8.85482C4.19168 9.105 4.01419 9.3717 3.75991 9.4076L3.59374 9.43128L3.59371 9.43128C3.39595 9.45953 3.19811 9.48778 2.99992 9.5136C2.98074 9.51608 2.96071 9.5108 2.94049 9.50548C2.92353 9.50101 2.90643 9.4965 2.88956 9.4965C2.54938 9.49479 2.21945 9.42698 1.89292 9.33922C1.45547 9.22068 1.01517 9.21157 0.572602 9.30275C0.313203 9.35631 0.0611983 9.20416 0.0117077 8.96139C-0.0451781 8.68443 0.109551 8.44508 0.382034 8.39151C0.645984 8.33966 0.91221 8.30546 1.18185 8.30489ZM0.426519 6.46482C0.160293 6.50642 0.001582 6.68935 0.001582 6.93611C0.001582 7.23073 0.26155 7.44957 0.551668 7.38859C0.953851 7.30311 1.3549 7.29798 1.75594 7.38745C1.83561 7.40517 1.91497 7.42461 1.99435 7.44406C2.20349 7.49529 2.41276 7.54656 2.628 7.56639L2.68736 7.57199H2.68736H2.68737H2.68737H2.68737C2.78717 7.58158 2.88717 7.59119 2.98638 7.58691C3.15249 7.58007 3.31916 7.56069 3.4847 7.5379C3.60757 7.5208 3.73329 7.50313 3.85048 7.46324C4.04616 7.39714 4.17245 7.17261 4.13889 6.98284C4.08712 6.68935 3.83625 6.52124 3.54557 6.58392C3.20653 6.65744 2.86635 6.66998 2.5239 6.60387L2.34985 6.56997C2.08429 6.51811 1.81877 6.46625 1.55172 6.42322C1.3913 6.39757 1.22576 6.38561 1.06421 6.39359C0.850887 6.40327 0.638134 6.43177 0.426519 6.46482ZM2.9374 11.4102C2.5904 11.4245 2.23543 11.343 1.8816 11.2518C1.43675 11.1378 0.989632 11.1241 0.539665 11.2278C0.245565 11.2957 -0.0434147 11.0096 0.00550712 10.7047C0.041914 10.4745 0.185266 10.3417 0.444097 10.2955C0.738196 10.2431 1.03343 10.2157 1.33265 10.2271C1.63017 10.2391 1.91915 10.2989 2.20528 10.3747C2.55115 10.4659 2.901 10.5035 3.2571 10.4671C3.32159 10.4604 3.38559 10.4491 3.44974 10.4378C3.48405 10.4317 3.51841 10.4257 3.55291 10.4203C3.70707 10.3958 3.85554 10.4072 3.97727 10.5183C4.11096 10.6409 4.16443 10.7953 4.12632 10.9725C4.0865 11.1543 3.975 11.2757 3.79069 11.3207C3.51764 11.3868 3.24003 11.4148 2.9374 11.4102ZM19.658 8.43692L19.2326 8.43705H18.9544C18.8543 8.43722 18.7542 8.43698 18.654 8.43675H18.654H18.654H18.6539H18.6539C18.416 8.4362 18.1779 8.43565 17.9401 8.44047C17.6443 8.44673 17.4447 8.71059 17.5067 9.00065C17.555 9.22576 17.7319 9.36708 17.9686 9.36765H19.8981C19.961 9.36765 20.0237 9.36781 20.0865 9.36796C20.2328 9.36832 20.3791 9.36868 20.5256 9.36708C20.8146 9.36481 21.0319 9.09013 20.971 8.80747C20.9226 8.58465 20.74 8.43762 20.5085 8.43705C20.2252 8.43667 19.9421 8.43679 19.6589 8.43692H19.6589H19.658ZM18.8793 10.9953H18.8792C18.5845 10.9948 18.2896 10.9944 17.995 10.9968C17.7174 10.9991 17.5746 10.8435 17.5205 10.6925C17.4107 10.3831 17.6286 10.0696 17.9625 10.0679C18.817 10.0645 19.6714 10.0651 20.5252 10.0656C20.779 10.0662 20.9781 10.2731 20.9781 10.5284C20.9781 10.7882 20.7812 10.994 20.5247 10.9951C20.2855 10.9958 20.0463 10.9949 19.8069 10.9941C19.67 10.9935 19.5331 10.993 19.3961 10.9928C19.3601 10.9924 19.3238 10.9926 19.2875 10.9927H19.2875L19.2328 10.9928V10.9957C19.115 10.9957 18.9972 10.9955 18.8793 10.9953ZM18.8168 7.73577C18.9585 7.73571 19.1003 7.73564 19.2422 7.73564C19.3494 7.73564 19.4567 7.73568 19.5639 7.73571C19.8856 7.73582 20.2073 7.73593 20.5289 7.73507C20.7713 7.7345 20.9715 7.53391 20.9795 7.29969C20.9886 7.02672 20.7935 6.81016 20.5335 6.80959C19.6705 6.80675 18.807 6.80675 17.944 6.81016C17.6528 6.81073 17.4423 7.08314 17.5049 7.36693C17.5544 7.59317 17.7302 7.73507 17.9662 7.73564C18.2499 7.73602 18.5333 7.7359 18.8168 7.73577Z" fill="#0C1E3C"/>
</svg>
