<svg width="24" height="24" viewBox="0 0 24 24" fill="none" xmlns="http://www.w3.org/2000/svg">
<path fill-rule="evenodd" clip-rule="evenodd" d="M22.0614 2.95886C20.8047 1.70214 19.1409 1.01526 17.3652 1.01526C15.5896 1.01526 13.9207 1.70723 12.664 2.96395L12.0076 3.6203L11.3411 2.95378C10.0844 1.69705 8.41045 1 6.63475 1C4.86414 1 3.19529 1.69196 1.94365 2.9436C0.686929 4.20032 -0.00503254 5.86917 5.54172e-05 7.64487C5.54172e-05 9.42057 0.697105 11.0843 1.95383 12.3411L11.509 21.8962C11.6413 22.0285 11.8194 22.0998 11.9924 22.0998C12.1654 22.0998 12.3434 22.0336 12.4757 21.9013L22.0513 12.3614C23.308 11.1047 23.9999 9.43583 23.9999 7.66013C24.005 5.88444 23.3182 4.21559 22.0614 2.95886ZM21.0845 11.3896L11.9924 20.4462L2.92054 11.3743C1.9233 10.3771 1.3738 9.05423 1.3738 7.64487C1.3738 6.23551 1.91821 4.91264 2.91545 3.92049C3.90761 2.92834 5.23047 2.37884 6.63475 2.37884C8.04411 2.37884 9.37207 2.92834 10.3693 3.92557L11.5192 5.07545C11.7888 5.34511 12.2213 5.34511 12.491 5.07545L13.6307 3.93575C14.6279 2.93851 15.9559 2.38901 17.3602 2.38901C18.7644 2.38901 20.0873 2.93851 21.0845 3.93066C22.0818 4.9279 22.6262 6.25077 22.6262 7.66013C22.6313 9.0695 22.0818 10.3924 21.0845 11.3896Z" fill="#0092C9"/>
<mask id="mask0_0_2545" style="mask-type:luminance" maskUnits="userSpaceOnUse" x="0" y="1" width="24" height="22">
<path fill-rule="evenodd" clip-rule="evenodd" d="M22.0614 2.95886C20.8047 1.70214 19.1409 1.01526 17.3652 1.01526C15.5896 1.01526 13.9207 1.70723 12.664 2.96395L12.0076 3.6203L11.3411 2.95378C10.0844 1.69705 8.41045 1 6.63475 1C4.86414 1 3.19529 1.69196 1.94365 2.9436C0.686929 4.20032 -0.00503254 5.86917 5.54172e-05 7.64487C5.54172e-05 9.42057 0.697105 11.0843 1.95383 12.3411L11.509 21.8962C11.6413 22.0285 11.8194 22.0998 11.9924 22.0998C12.1654 22.0998 12.3434 22.0336 12.4757 21.9013L22.0513 12.3614C23.308 11.1047 23.9999 9.43583 23.9999 7.66013C24.005 5.88444 23.3182 4.21559 22.0614 2.95886ZM21.0845 11.3896L11.9924 20.4462L2.92054 11.3743C1.9233 10.3771 1.3738 9.05423 1.3738 7.64487C1.3738 6.23551 1.91821 4.91264 2.91545 3.92049C3.90761 2.92834 5.23047 2.37884 6.63475 2.37884C8.04411 2.37884 9.37207 2.92834 10.3693 3.92557L11.5192 5.07545C11.7888 5.34511 12.2213 5.34511 12.491 5.07545L13.6307 3.93575C14.6279 2.93851 15.9559 2.38901 17.3602 2.38901C18.7644 2.38901 20.0873 2.93851 21.0845 3.93066C22.0818 4.9279 22.6262 6.25077 22.6262 7.66013C22.6313 9.0695 22.0818 10.3924 21.0845 11.3896Z" fill="white"/>
</mask>
<g mask="url(#mask0_0_2545)">
</g>
</svg>
