<svg width="24" height="24" viewBox="0 0 24 24" fill="none" xmlns="http://www.w3.org/2000/svg">
<path fill-rule="evenodd" clip-rule="evenodd" d="M12.0001 4C14.4962 2.15582 17.9659 2.4152 20.1601 4.61C21.3368 5.78597 21.9979 7.38139 21.9979 9.045C21.9979 10.7086 21.3368 12.304 20.1601 13.48L12.7101 20.93C12.5223 21.1193 12.2667 21.2258 12.0001 21.2258C11.7334 21.2258 11.4778 21.1193 11.2901 20.93L3.84005 13.48C1.5057 11.1619 1.35988 7.4339 3.50603 4.94058C5.65217 2.44727 9.36039 2.03664 12.0001 4ZM12.0001 18.81L18.7501 12.07H18.6701C20.1556 10.3842 20.0804 7.83558 18.4982 6.24019C16.916 4.6448 14.3681 4.54854 12.6701 6.02C12.4823 6.20931 12.2267 6.3158 11.9601 6.3158C11.6934 6.3158 11.4378 6.20931 11.2501 6.02C10.4551 5.22234 9.37616 4.77276 8.25005 4.77C6.52657 4.78317 4.97914 5.82883 4.324 7.42299C3.66887 9.01716 4.03386 10.8488 5.25005 12.07L12.0001 18.81Z" fill="#090710"/>
</svg>
