<svg width="24" height="24" viewBox="0 0 24 24" fill="none" xmlns="http://www.w3.org/2000/svg">
<path fill-rule="evenodd" clip-rule="evenodd" d="M23.5907 9.94658L12.4735 0.202708C12.165 -0.0675695 11.7042 -0.0675695 11.3958 0.202708L0.278618 9.94658C-0.0608476 10.2441 -0.0948531 10.7606 0.202695 11.1002C0.500242 11.4396 1.0168 11.4737 1.35626 11.1761L2.21706 10.4217V22.5795C2.21706 23.031 2.58301 23.397 3.0345 23.397H9.22957H14.6397H20.8347C21.2862 23.397 21.6522 23.031 21.6522 22.5795V10.4217L22.513 11.1762C22.6681 11.3121 22.8603 11.3789 23.0514 11.3789C23.2787 11.3789 23.5049 11.2847 23.6665 11.1003C23.9642 10.7606 23.9302 10.2442 23.5907 9.94658ZM10.047 21.7621V15.0282H13.8222V21.7622L10.047 21.7621V21.7621ZM20.0174 8.99508V21.7621H15.4573V14.2108C15.4573 13.7594 15.0912 13.3934 14.6398 13.3934H9.2297C8.77828 13.3934 8.41226 13.7594 8.41226 14.2108V21.7622H3.852V8.99508C3.852 8.99299 3.85174 8.99102 3.85174 8.989L11.9346 1.90442L20.0177 8.98893C20.0177 8.99109 20.0174 8.99299 20.0174 8.99508Z" fill="#0092C9"/>
</svg>
