<svg width="24" height="24" viewBox="0 0 24 24" fill="none" xmlns="http://www.w3.org/2000/svg">
<path fill-rule="evenodd" clip-rule="evenodd" d="M1 8.72727C1 8.39063 1.15672 8.07284 1.42467 7.86616L11.3247 0.229798C11.7219 -0.0765992 12.2781 -0.0765992 12.6753 0.229798L22.5753 7.86616C22.8433 8.07284 23 8.39063 23 8.72727V20.7273C23 22.5347 21.5225 24 19.7 24L15.2999 24H8.69992L4.3 24C2.47746 24 1 22.5347 1 20.7273V8.72727ZM9.79992 21.8182H14.1999V13.0909H9.79992V21.8182ZM16.3999 21.8182V12C16.3999 11.3975 15.9074 10.9091 15.2999 10.9091H8.69992C8.09241 10.9091 7.59992 11.3975 7.59992 12V21.8182H4.29997C3.69246 21.8182 3.19997 21.3298 3.19997 20.7273V9.26082L12 2.47294L20.8 9.26082V20.7273C20.8 21.3298 20.3075 21.8182 19.7 21.8182H16.3999Z" fill="#999999"/>
</svg>
