<svg width="24" height="24" viewBox="0 0 24 24" fill="none" xmlns="http://www.w3.org/2000/svg">
<path fill-rule="evenodd" clip-rule="evenodd" d="M18.375 24H5.625C2.52338 24 0 21.4766 0 18.375V5.625C0 2.52338 2.52338 0 5.625 0H18.375C21.4766 0 24 2.52338 24 5.625V18.375C24 21.4766 21.4766 24 18.375 24ZM5.625 1.875C3.55725 1.875 1.875 3.55725 1.875 5.625V18.375C1.875 20.4427 3.55725 22.125 5.625 22.125H18.375C20.4427 22.125 22.125 20.4427 22.125 18.375V5.625C22.125 3.55725 20.4427 1.875 18.375 1.875H5.625ZM5.625 17.25C4.9778 17.25 4.45312 17.7747 4.45312 18.4219C4.45312 19.0691 4.9778 19.5938 5.625 19.5938C6.2722 19.5938 6.79688 19.0691 6.79688 18.4219C6.79688 17.7747 6.2722 17.25 5.625 17.25ZM13.2656 18.6562C13.2656 14.3139 9.73294 10.7812 5.39062 10.7812C4.87284 10.7812 4.45312 11.201 4.45312 11.7188C4.45312 12.2365 4.87284 12.6562 5.39062 12.6562C8.69902 12.6562 11.3906 15.3478 11.3906 18.6562C11.3906 19.174 11.8103 19.5938 12.3281 19.5938C12.8459 19.5938 13.2656 19.174 13.2656 18.6562ZM19.4062 18.6562C19.4062 14.9125 17.9483 11.3929 15.3012 8.7457C12.654 6.09848 9.1343 4.64062 5.39062 4.64062C4.87284 4.64062 4.45312 5.06034 4.45312 5.57812C4.45312 6.09591 4.87284 6.51562 5.39062 6.51562C12.085 6.51562 17.5312 11.9619 17.5312 18.6562C17.5312 19.174 17.951 19.5938 18.4688 19.5938C18.9865 19.5938 19.4062 19.174 19.4062 18.6562Z" fill="#87859A"/>
</svg>
