<svg width="24" height="24" viewBox="0 0 24 24" fill="none" xmlns="http://www.w3.org/2000/svg">
<path fill-rule="evenodd" clip-rule="evenodd" d="M12.0018 5.00155C12.7822 5.00155 13.5626 5.00186 14.3429 5.00218C16.2582 5.00296 18.1735 5.00373 20.0889 4.99983C21.2014 4.99777 22.063 5.4366 22.6381 6.39941C22.9049 6.84579 22.9976 7.33853 22.9976 7.8529C22.9975 8.72323 22.9982 9.59356 22.9988 10.4639V10.4639V10.4639V10.464V10.464V10.464V10.464V10.4641V10.4641V10.4641V10.4641V10.4642V10.4642V10.4642C23.0003 12.4585 23.0018 14.4527 22.9942 16.4468C22.9883 17.9322 22.0836 18.9946 20.6407 19.2528C20.4904 19.2794 20.3339 19.2794 20.18 19.2793L20.1535 19.2793C14.7193 19.2806 9.28475 19.2806 3.85057 19.2799C2.2635 19.2799 1.05038 18.2038 1.02771 16.6267C0.984105 13.5917 0.996123 10.5549 1.03492 7.51949C1.05175 6.20575 2.21372 5.08842 3.52917 5.02455C4.09944 4.9967 4.67151 4.99901 5.24325 5.00132C5.41854 5.00203 5.59381 5.00274 5.76898 5.00258C7.29264 5.00082 8.81612 5.00108 10.3397 5.00135L12.0018 5.00155ZM14.3264 18.1753H14.3265C16.227 18.1712 18.1277 18.167 20.0278 18.1877C21.2605 18.2014 21.9139 17.3378 21.9043 16.3232C21.8858 14.3787 21.889 12.4339 21.8921 10.4892V10.4892V10.4891V10.4891V10.489V10.4889V10.4889V10.4888V10.4888V10.4887V10.4887V10.4886V10.4885V10.4885C21.8935 9.61954 21.8949 8.75061 21.8944 7.88174C21.894 6.80356 21.199 6.10411 20.1274 6.10377C14.7093 6.1024 9.29093 6.1024 3.87254 6.10377C2.8129 6.10411 2.11002 6.80356 2.10933 7.85942C2.10727 10.7159 2.10693 13.5728 2.11242 16.4296C2.11277 16.6319 2.14161 16.8424 2.20101 17.0353C2.42592 17.7677 3.0409 18.1774 3.90173 18.1781C5.82748 18.1795 7.75341 18.1793 9.67927 18.179L11.9905 18.1788C12.7689 18.1788 13.5474 18.177 14.3259 18.1753H14.3259H14.326H14.326H14.3261H14.3261H14.3261H14.3262H14.3262H14.3263H14.3263H14.3264H14.3264ZM10.9424 15.9863C11.2866 15.9861 11.6308 15.9859 11.975 15.9859H14.3696C14.5119 15.9859 14.6541 15.9864 14.7964 15.9868C15.152 15.988 15.5077 15.9891 15.8633 15.9832C16.1658 15.9781 16.3818 15.7566 16.3945 15.4647C16.4072 15.166 16.2183 14.9387 15.9162 14.8981C15.817 14.8851 15.7159 14.8851 15.6154 14.8851H15.6078C13.2046 14.8844 10.8013 14.8841 8.39772 14.8854C8.36841 14.8854 8.33783 14.8839 8.30698 14.8824H8.30698C8.2117 14.8776 8.11392 14.8726 8.04336 14.9126C7.89022 14.9991 7.70892 15.1152 7.64471 15.2638C7.48745 15.6264 7.77176 15.9835 8.18964 15.9846C9.1069 15.9871 10.024 15.9867 10.9411 15.9863H10.9412H10.9412H10.9412H10.9413H10.9413H10.9413H10.9414H10.9414H10.9414H10.9415H10.9415H10.9424ZM5.23015 9.39785H5.2301C5.09891 9.39916 4.96764 9.40047 4.83686 9.39498C4.53744 9.38262 4.32112 9.16217 4.31116 8.87065C4.30086 8.57398 4.49143 8.32881 4.79463 8.31302C5.20461 8.29173 5.61769 8.29173 6.02767 8.31439C6.3295 8.33122 6.51629 8.5805 6.50187 8.87924C6.48779 9.17076 6.27147 9.38433 5.96861 9.39567C5.83944 9.40037 5.7101 9.39911 5.58082 9.39785H5.58078H5.58074H5.58071H5.58067H5.58063H5.58059H5.58055H5.58051H5.58047H5.58043H5.5804C5.52116 9.39727 5.46193 9.3967 5.40274 9.3967C5.3454 9.3967 5.28801 9.39727 5.23059 9.39785H5.23055H5.2305H5.23046H5.23041H5.23037H5.23033H5.23028H5.23024H5.23019H5.23015ZM8.51887 9.39766H8.51891H8.51895H8.519H8.51904H8.51909H8.51913H8.51918H8.51922H8.51926H8.51931C8.57814 9.39699 8.63695 9.39632 8.6957 9.39632C8.75591 9.39632 8.81618 9.39702 8.87647 9.39773C9.01353 9.39933 9.15068 9.40094 9.28733 9.39426C9.57404 9.38052 9.78316 9.16523 9.79895 8.88367C9.81543 8.58459 9.63001 8.33187 9.32956 8.31539C8.91099 8.29238 8.48933 8.29238 8.07111 8.31676C7.77375 8.33427 7.59005 8.59317 7.61031 8.89191C7.62953 9.17244 7.84105 9.38224 8.12983 9.39494C8.2592 9.40061 8.38907 9.39913 8.51887 9.39766ZM11.8255 9.39792H11.8254C11.6952 9.39924 11.565 9.40057 11.4352 9.39536C11.1347 9.38334 10.9177 9.1653 10.906 8.87412C10.8944 8.5771 11.0839 8.32953 11.3861 8.31374C11.7961 8.29176 12.2091 8.29176 12.6191 8.31374C12.9216 8.33022 13.1098 8.57745 13.0971 8.87549C13.0847 9.16736 12.8688 9.38368 12.5669 9.39536C12.4369 9.40034 12.3064 9.39909 12.176 9.39784H12.1759H12.1759H12.1758H12.1758H12.1757H12.1757H12.1756H12.1756H12.1756C12.1174 9.39729 12.0592 9.39673 12.0011 9.39673C11.9427 9.39673 11.8843 9.39733 11.8258 9.39792H11.8258H11.8257H11.8257H11.8257H11.8256H11.8256H11.8255H11.8255ZM15.1084 9.39769H15.1085H15.1085H15.1086H15.1086H15.1087H15.1087H15.1088H15.1088C15.167 9.39701 15.2251 9.39632 15.2832 9.39632C15.3448 9.39632 15.4066 9.39703 15.4683 9.39773H15.4683H15.4684H15.4684H15.4685H15.4685H15.4686H15.4686H15.4686C15.6041 9.39929 15.7397 9.40084 15.8748 9.39494C16.1639 9.38224 16.3741 9.1721 16.393 8.89088C16.4129 8.59146 16.2299 8.33393 15.9315 8.31676C15.5133 8.29238 15.0916 8.29238 14.673 8.31539C14.3736 8.33187 14.1875 8.58631 14.2047 8.8847C14.2205 9.16523 14.431 9.38052 14.7173 9.3946C14.8474 9.40077 14.978 9.39923 15.1084 9.39769ZM18.4059 9.39769H18.4059C18.2754 9.39923 18.1448 9.40077 18.0148 9.3946C17.7284 9.38052 17.5179 9.16523 17.5021 8.8847C17.4849 8.58631 17.671 8.33187 17.9705 8.31539C18.389 8.29238 18.8107 8.29238 19.2289 8.31676C19.5273 8.33393 19.7103 8.59146 19.6904 8.89088C19.6715 9.1721 19.4614 9.38224 19.1723 9.39494C19.0372 9.40084 18.9016 9.39929 18.7661 9.39773H18.766H18.766H18.7659H18.7659H18.7659C18.7041 9.39703 18.6423 9.39632 18.5806 9.39632C18.5225 9.39632 18.4644 9.39701 18.4062 9.39769H18.4061H18.4061H18.4061H18.406H18.406H18.4059ZM5.22084 12.6919H5.22088H5.22093H5.22097H5.22102H5.22107H5.22111C5.27909 12.6913 5.33705 12.6906 5.39494 12.6906V12.6916C5.57487 12.6916 5.75514 12.6916 5.93507 12.6913L5.94365 12.6913C5.95796 12.6914 5.97226 12.6914 5.98657 12.6903C6.27432 12.6704 6.48412 12.4626 6.50129 12.1811C6.51914 11.882 6.33475 11.6272 6.03533 11.61C5.61711 11.5867 5.1951 11.5867 4.77688 11.6104C4.47849 11.6275 4.29375 11.8844 4.31264 12.1828C4.33049 12.4633 4.54132 12.6759 4.82907 12.6889C4.95934 12.6948 5.09011 12.6934 5.2208 12.6919H5.22081H5.22081H5.22082H5.22083H5.22083H5.22084ZM8.52953 12.6921H8.52948C8.39905 12.6934 8.26853 12.6946 8.13851 12.6896C7.83806 12.6779 7.62071 12.4599 7.60869 12.1691C7.59667 11.8721 7.78587 11.6241 8.08769 11.608C8.49802 11.586 8.91075 11.586 9.32074 11.608C9.62359 11.6241 9.8121 11.8714 9.79974 12.1691C9.78772 12.4609 9.57174 12.6776 9.27026 12.6896C9.14048 12.6948 9.0102 12.6935 8.88 12.6922H8.87996H8.87991H8.87987H8.87982H8.87977C8.82128 12.6916 8.7628 12.691 8.70439 12.691C8.64621 12.691 8.58796 12.6916 8.52971 12.6921H8.52966H8.52962H8.52957H8.52953ZM11.8059 12.6919C11.864 12.6911 11.922 12.6903 11.98 12.6903V12.6913H12.5459C12.5631 12.6913 12.5802 12.6913 12.5974 12.69C12.8796 12.6652 13.0877 12.4469 13.0977 12.1653C13.1076 11.8779 12.9263 11.6279 12.64 11.6118C12.2128 11.5881 11.7829 11.5881 11.3561 11.6132C11.0721 11.63 10.8929 11.8854 10.9066 12.1732C10.92 12.4541 11.1295 12.6731 11.4141 12.6882C11.5444 12.6954 11.6752 12.6936 11.8059 12.6919ZM15.1204 12.6922H15.1204C14.9902 12.6935 14.8599 12.6948 14.7301 12.6896C14.4303 12.6772 14.214 12.4571 14.2034 12.1659C14.1927 11.8689 14.383 11.6234 14.6858 11.6073C15.0958 11.586 15.5089 11.5857 15.9189 11.6087C16.221 11.6251 16.4082 11.8741 16.3941 12.1725C16.3807 12.464 16.1644 12.6783 15.8619 12.6896C15.7318 12.6946 15.6013 12.6933 15.4709 12.6921H15.4708H15.4708H15.4707C15.4125 12.6915 15.3542 12.691 15.296 12.691C15.2375 12.691 15.179 12.6916 15.1205 12.6922H15.1204H15.1204ZM18.4081 12.692C18.4664 12.6913 18.5246 12.6906 18.5828 12.6906C18.6437 12.6906 18.7046 12.6913 18.7655 12.692H18.7655H18.7656C18.902 12.6935 19.0385 12.695 19.1745 12.6889C19.4629 12.6758 19.6727 12.4643 19.6905 12.1827C19.7098 11.8837 19.5257 11.6275 19.2266 11.6103C18.8084 11.5866 18.3868 11.5866 17.9685 11.61C17.6691 11.6268 17.484 11.8826 17.5022 12.181C17.5191 12.4616 17.7299 12.6755 18.017 12.6889C18.147 12.695 18.2776 12.6935 18.408 12.692H18.4081H18.4081ZM5.23874 15.9862H5.2387H5.23869C5.103 15.9877 4.96723 15.9892 4.83195 15.9835C4.54318 15.9711 4.33201 15.7603 4.31312 15.4801C4.29252 15.1814 4.47656 14.9225 4.77427 14.9053C5.19249 14.8809 5.61415 14.8809 6.03238 14.904C6.33283 14.9204 6.51825 15.1735 6.50142 15.4726C6.48563 15.7541 6.27652 15.9687 5.98946 15.9828C5.85877 15.9895 5.72759 15.9879 5.59648 15.9863C5.53882 15.9856 5.48117 15.9849 5.42358 15.9849C5.36202 15.9849 5.30039 15.9856 5.23874 15.9862ZM18.4216 15.9864C18.48 15.9858 18.5383 15.9853 18.5965 15.9853C18.655 15.9853 18.7136 15.9859 18.7721 15.9865C18.9023 15.9878 19.0326 15.9891 19.1624 15.9839C19.4639 15.9719 19.6799 15.7555 19.6919 15.4637C19.7042 15.1656 19.5157 14.9184 19.2132 14.9023C18.8032 14.8803 18.3902 14.8803 17.9802 14.9023C17.678 14.9184 17.4888 15.1663 17.5012 15.4633C17.5132 15.7542 17.7302 15.9722 18.0306 15.9839C18.1607 15.9889 18.2912 15.9876 18.4216 15.9864Z" fill="#0C1E3C"/>
</svg>
