<svg width="24" height="24" viewBox="0 0 24 24" fill="none" xmlns="http://www.w3.org/2000/svg">
<path fill-rule="evenodd" clip-rule="evenodd" d="M24 2.10938C24 2.49774 23.6852 2.8125 23.2969 2.8125H22.5938V15.5625H23.2969C23.6852 15.5625 24 15.8773 24 16.2656C24 16.654 23.6852 16.9688 23.2969 16.9688H13.463L17.963 22.5938H19.0312C19.4196 22.5938 19.7344 22.9085 19.7344 23.2969C19.7344 23.6852 19.4196 24 19.0312 24H17.625C17.4113 24 17.2094 23.903 17.0759 23.7361L12.7031 18.2701V23.2969C12.7031 23.6852 12.3884 24 12 24C11.6116 24 11.2969 23.6852 11.2969 23.2969V18.2701L6.92413 23.7361C6.79065 23.903 6.58868 24 6.375 24H4.96875C4.58038 24 4.26562 23.6852 4.26562 23.2969C4.26562 22.9085 4.58038 22.5938 4.96875 22.5938H6.03699L10.537 16.9688H0.703125C0.314758 16.9688 0 16.654 0 16.2656C0 15.8773 0.314758 15.5625 0.703125 15.5625H1.40625V2.8125H0.703125C0.314758 2.8125 0 2.49774 0 2.10938C0 1.72101 0.314758 1.40625 0.703125 1.40625H11.2969V0.703125C11.2969 0.314758 11.6116 0 12 0C12.3884 0 12.7031 0.314758 12.7031 0.703125V1.40625H23.2969C23.6852 1.40625 24 1.72101 24 2.10938ZM2.8125 2.8125V15.5625H21.1875V2.8125H2.8125ZM9.89062 4.92188C9.89062 4.6615 10.0344 4.42255 10.2643 4.3006C10.4943 4.17865 10.7728 4.19385 10.9882 4.33978L15.2069 7.19916C15.4001 7.33008 15.5156 7.54797 15.5156 7.78125C15.5156 8.01453 15.4001 8.23242 15.2069 8.36334L10.9882 11.2227C10.7737 11.3681 10.4952 11.3842 10.2643 11.2619C10.0344 11.14 9.89062 10.901 9.89062 10.6406V4.92188ZM13.5593 7.78125L11.2969 6.24792V9.31458L13.5593 7.78125ZM7.78125 14.1562C7.39288 14.1562 7.07812 13.8415 7.07812 13.4531C7.07812 13.0648 7.39288 12.75 7.78125 12.75H19.0781C19.4665 12.75 19.7812 13.0648 19.7812 13.4531C19.7812 13.8415 19.4665 14.1562 19.0781 14.1562H7.78125Z" fill="#0092C9"/>
</svg>
