<svg width="24" height="24" viewBox="0 0 24 24" fill="none" xmlns="http://www.w3.org/2000/svg">
<path fill-rule="evenodd" clip-rule="evenodd" d="M2.65625 8.71875C3.96289 5.37012 7.16504 3 11 3C12.4434 3 12.1209 4.5 11 4.5C7.7832 4.5 5.13184 6.48047 4.03906 9.28125L2.65625 8.71875ZM11 19.5C14.2168 19.5 16.8682 17.5195 17.9609 14.7188L19.3438 15.2812C18.0371 18.6299 14.835 21 11 21C8.2959 21 5.89062 19.79 4.25 17.9297V20.25H2.75V15H8V16.5H5.02344C6.38281 18.29 8.54199 19.5 11 19.5Z" fill="#0C1E3C"/>
<path fill-rule="evenodd" clip-rule="evenodd" d="M17.1562 12C20.1938 12 22.6562 9.53757 22.6562 6.5C22.6562 3.46243 20.1938 1 17.1562 1C14.1187 1 11.6562 3.46243 11.6562 6.5C11.6562 9.53757 14.1187 12 17.1562 12ZM17.5925 10V3.34H17.0975L17.0165 3.439C16.8485 3.649 16.667 3.814 16.472 3.934C16.277 4.054 16.0205 4.165 15.7025 4.267L15.4775 4.339V4.843L16.7285 4.834V10H17.5925Z" fill="#0C1E3C"/>
</svg>
