<svg width="24" height="24" viewBox="0 0 24 24" fill="none" xmlns="http://www.w3.org/2000/svg">
<path fill-rule="evenodd" clip-rule="evenodd" d="M13.5943 22.7205C13.0224 23.3342 12.2769 23.496 11.4628 23.4684C11.492 23.4504 11.5214 23.4327 11.5509 23.4149C11.6041 23.3828 11.6574 23.3507 11.7098 23.3173C12.5376 22.7899 12.7858 21.7113 12.2721 20.8754C11.7668 20.0533 10.6623 19.7873 9.83212 20.2917C9.25789 20.6406 8.96365 21.175 8.97553 21.8271C8.98948 22.61 9.37339 23.2145 10.0708 23.5907C10.7793 23.9728 11.5498 24.0488 12.3348 23.9749C14.0578 23.8122 14.681 22.7427 14.5646 21.156C14.5187 20.5321 14.3952 19.9132 14.2719 19.2954C14.2333 19.1017 14.1946 18.9081 14.1584 18.7145C14.1127 18.4705 14.1543 18.3297 14.3909 18.2107C14.6341 18.0883 14.8562 17.914 15.067 17.738C16.0221 16.9396 16.4743 15.9238 16.2882 14.6783C16.08 13.2855 15.067 12.6465 13.863 12.2454C13.6114 12.1615 13.3381 12.1424 13.0541 12.1226C12.9208 12.1133 12.7852 12.1038 12.6483 12.0874C12.6164 11.9165 12.5884 11.7417 12.5601 11.5652C12.4954 11.1609 12.4292 10.7476 12.3107 10.3499C12.1204 9.70977 12.2552 9.27628 12.7704 8.82586C13.534 8.15841 14.2107 7.38614 14.5919 6.41731C15.4271 4.2938 15.1611 2.29736 13.866 0.428596C13.4933 -0.108815 12.8764 -0.153648 12.4853 0.366839C11.4681 1.72076 11.0331 3.27064 11.102 4.94582C11.1212 5.41144 11.2008 5.87419 11.2805 6.33725C11.3264 6.60383 11.3723 6.87052 11.4066 7.13792C11.4236 7.26915 11.3989 7.45324 11.3167 7.54113C10.9743 7.90692 10.6195 8.2647 10.2395 8.59012C8.64684 9.95383 7.28313 11.4532 7.04085 13.6679C6.93455 14.6385 7.01264 15.5646 7.55243 16.4149C8.31965 17.624 9.4586 18.3143 10.7906 18.7065C11.7445 18.9874 12.7142 18.9945 13.7065 18.5877C13.7522 18.8527 13.798 19.1134 13.8432 19.3711C13.9465 19.9592 14.0471 20.5321 14.1379 21.1064C14.2368 21.7326 14.0174 22.2662 13.5943 22.7205ZM12.2456 6.54185C12.1041 6.67388 11.9621 6.80632 11.8205 6.94047C11.3351 5.44908 11.6091 3.22224 12.8517 1.8998C13.295 1.4283 13.9592 1.57052 14.2312 2.17296C14.4449 2.64623 14.3948 3.13109 14.2778 3.61031C14.0907 4.37782 13.7469 5.07141 13.1887 5.63733C12.8838 5.94658 12.5658 6.24313 12.2456 6.54183L12.2456 6.54185ZM15.2525 15.2959C15.5204 16.1608 14.9651 17.2938 13.9948 17.9102L12.9726 13.648C14.3289 13.6409 14.9634 14.3627 15.2525 15.2959ZM11.8021 9.76025C11.7778 9.7738 11.7543 9.78618 11.7317 9.79812C11.6843 9.82307 11.6405 9.84615 11.5999 9.87426C10.3571 10.7335 9.27214 11.7502 8.61329 13.132C8.18722 14.0254 7.92594 14.9755 8.3143 15.9619C8.80213 17.2006 9.78105 17.893 11.0076 18.2772C11.8663 18.5462 12.7226 18.5857 13.5955 18.167L12.6186 13.6358C11.955 13.6991 11.4559 13.9577 11.151 14.36C10.9568 14.6165 10.8826 15.3455 10.8339 15.8556C10.8137 16.0661 10.7733 16.2564 10.6638 16.289C10.502 16.3371 10.2499 16.0111 10.1264 15.7665C9.83182 15.1848 10.0031 14.5521 10.0622 14.3455C10.4163 13.1052 11.6181 12.5224 11.8598 12.4052L11.8618 12.4042C11.9585 12.3571 12.0596 12.319 12.1639 12.2797L12.1639 12.2797C12.2134 12.2611 12.2636 12.2422 12.3143 12.2219L11.8021 9.76025Z" fill="#0C1E3C"/>
</svg>
