<svg width="24" height="24" viewBox="0 0 24 24" fill="none" xmlns="http://www.w3.org/2000/svg">
<path fill-rule="evenodd" clip-rule="evenodd" d="M2.80005 10.5315C2.80324 10.5097 2.80686 10.488 2.81048 10.4662C2.81884 10.4159 2.82721 10.3655 2.83044 10.3148C2.90245 9.13092 3.17398 7.99525 3.66088 6.91442C4.62213 4.77985 6.14825 3.17776 8.23327 2.11344C9.01285 1.71507 9.8347 1.43495 10.6936 1.26318C10.8248 1.23685 10.9559 1.21032 11.0869 1.18381L11.4137 1.11784C11.4225 1.11616 11.431 1.11369 11.4411 1.11076C11.447 1.10906 11.4533 1.10722 11.4606 1.10528V1.03922C11.4607 1.00666 11.4604 0.974065 11.4602 0.941454V0.94143V0.941405V0.941381V0.941357V0.941333V0.941308V0.941284V0.941258C11.4591 0.79327 11.4579 0.645037 11.491 0.499464C11.5465 0.254361 11.6859 0.0819302 11.9389 0.023132C12.0836 -0.0105614 12.2309 -0.00924011 12.3729 0.0389877C12.6161 0.12157 12.7363 0.305892 12.7746 0.548352C12.7882 0.631504 12.7901 0.716594 12.7921 0.801132L12.7931 0.843665C12.795 0.927996 12.7945 1.01265 12.7941 1.09897C12.794 1.1364 12.7938 1.17414 12.7938 1.21231C12.8016 1.21455 12.8092 1.21694 12.8165 1.21928L12.8166 1.21931L12.8166 1.21932C12.8309 1.22386 12.8446 1.2282 12.8585 1.23081C12.9529 1.24854 13.0476 1.26535 13.1422 1.28216L13.1422 1.28216C13.4388 1.33484 13.7352 1.3875 14.0252 1.46864C15.2838 1.82209 16.4644 2.34269 17.5274 3.11235C18.8407 4.06237 19.8139 5.28855 20.4831 6.76115C21.0718 8.05735 21.2726 9.13488 21.3261 9.48503C21.4384 10.2217 21.4371 10.8004 21.4351 11.1684C21.4279 12.3665 21.2398 13.5147 21.1952 13.7872L21.1947 13.7905L21.1842 13.8534L21.1841 13.8535C21.1599 13.9973 21.1161 14.2578 21.0738 14.6018C21.0335 14.9242 20.9998 15.2466 20.9733 15.5697C20.937 16.0116 20.935 16.4556 20.9463 16.8989C20.9614 17.469 20.9965 18.0379 21.0738 18.6034C21.1355 19.0504 21.201 19.4967 21.2666 19.9431L21.2667 19.9437L21.3268 20.3535C21.3378 20.4279 21.3495 20.5022 21.3613 20.5766C21.3848 20.7253 21.4083 20.874 21.4259 21.0234C21.4404 21.1456 21.449 21.2718 21.408 21.3927C21.3268 21.6338 21.1484 21.7679 20.9093 21.8287C20.8419 21.8459 20.7705 21.8538 20.7005 21.8604C20.5506 21.8736 20.4006 21.8861 20.2506 21.8986L20.2502 21.8986C19.9872 21.9205 19.7242 21.9424 19.4618 21.9681C18.9795 22.0157 18.4985 22.0745 18.0275 22.1967C17.5578 22.3182 17.0999 22.4761 16.6487 22.6519C15.6095 23.0575 14.5709 23.4651 13.533 23.8728C13.4194 23.917 13.3045 23.9514 13.1803 23.9494C12.8691 23.9461 12.6022 23.699 12.5718 23.3885C12.5381 23.0522 12.7541 22.8223 12.9622 22.7259C13.0442 22.6879 13.1286 22.6552 13.2129 22.6225L13.2595 22.6043C13.5812 22.4784 13.9029 22.3522 14.2246 22.226L14.2247 22.226C15.0722 21.8936 15.9199 21.5611 16.7689 21.2321C17.2684 21.0392 17.7791 20.878 18.3063 20.7763C18.5606 20.7274 18.8163 20.6864 19.0726 20.6488C19.2886 20.6166 19.505 20.5877 19.7214 20.5589L19.7216 20.5589L19.7217 20.5589C19.8071 20.5475 19.8924 20.5361 19.9777 20.5246C19.9868 20.5233 19.9956 20.5203 20.0055 20.5169C20.0108 20.5151 20.0165 20.5132 20.0227 20.5114C20.0222 20.505 20.022 20.4986 20.0218 20.4923C20.0213 20.4795 20.0209 20.4669 20.0187 20.4545C19.9897 20.2939 19.9599 20.1335 19.9302 19.9731L19.9302 19.973L19.9301 19.973L19.9301 19.973L19.9301 19.9729L19.9301 19.9729L19.9301 19.9729L19.9301 19.9728L19.9301 19.9726C19.8662 19.6285 19.8024 19.2845 19.7465 18.939C19.6917 18.6027 19.6547 18.2625 19.6197 17.9236C19.5628 17.3805 19.5529 16.8355 19.5734 16.2904C19.5873 15.9106 19.6183 15.53 19.6507 15.1508C19.6838 14.7599 19.7478 14.3731 19.8118 13.9862L19.8118 13.9861L19.8118 13.986L19.8118 13.986L19.8118 13.9859L19.8118 13.9858L19.8119 13.9857L19.8119 13.9857C19.8372 13.8326 19.8625 13.6796 19.8859 13.5263C19.9407 13.1642 19.987 12.8002 20.0299 12.4362C20.0993 11.8574 20.1284 11.2774 20.1079 10.6947C20.0643 9.4771 19.8112 8.30774 19.2821 7.20445C18.881 6.36674 18.3459 5.62284 17.6991 4.95822C17.1746 4.41979 16.5965 3.94874 15.9504 3.56226C15.1741 3.09914 14.343 2.77608 13.4597 2.58449C13.3155 2.55321 13.1699 2.527 13.0242 2.50076L13.0241 2.50074C12.9729 2.49152 12.9216 2.48229 12.8704 2.47284C12.8569 2.47038 12.8431 2.46945 12.8262 2.4683C12.8159 2.4676 12.8044 2.46683 12.7911 2.46557V2.57656V7.30289L12.7913 7.75816C12.7915 8.21354 12.7918 8.66893 12.7898 9.12431C12.7891 9.24257 12.7806 9.36215 12.7581 9.47776C12.7039 9.76316 12.474 9.95013 12.182 9.95409C12.1067 9.95541 12.0294 9.95211 11.9554 9.93824C11.7229 9.89265 11.5768 9.74929 11.5075 9.52533C11.4698 9.40311 11.4612 9.2756 11.4612 9.14876C11.4602 7.74634 11.4604 6.34429 11.4605 4.94234L11.4606 3.54112C11.4606 3.30575 11.4617 3.07076 11.4628 2.83586L11.4639 2.60101V2.50125C11.4567 2.50125 11.4505 2.50095 11.4448 2.50067C11.4339 2.50014 11.4253 2.49972 11.417 2.50191C11.3037 2.52843 11.19 2.55391 11.0764 2.57939C10.8164 2.63771 10.5563 2.69603 10.2998 2.76683C9.79902 2.90557 9.32401 3.11632 8.85891 3.34556C8.15928 3.69043 7.51184 4.11391 6.9265 4.6312C6.04981 5.40681 5.38651 6.33635 4.91679 7.40661C4.62147 8.08114 4.41535 8.78341 4.27397 9.50551C4.14316 10.1734 4.09956 10.848 4.12532 11.5271C4.14316 11.9955 4.19073 12.4613 4.26868 12.9244C4.29037 13.0533 4.31268 13.182 4.33498 13.3107L4.33498 13.3107C4.38198 13.5819 4.42897 13.8531 4.47018 14.1255C4.51089 14.3984 4.54074 14.673 4.57056 14.9472L4.57985 15.0325C4.63931 15.5802 4.66508 16.1299 4.67565 16.6809C4.68622 17.22 4.67168 17.7591 4.63337 18.2968L4.62456 18.4216C4.60815 18.6561 4.59176 18.8904 4.56201 19.1233C4.53223 19.36 4.49127 19.5956 4.45031 19.8311L4.45031 19.8311C4.43857 19.8986 4.42683 19.9662 4.41535 20.0337C4.39865 20.1334 4.37933 20.2326 4.35951 20.3343C4.34953 20.3855 4.33942 20.4373 4.32946 20.4902C4.34314 20.4908 4.35586 20.4914 4.368 20.4921C4.3846 20.493 4.40008 20.4938 4.41535 20.4942C4.77409 20.5074 5.12952 20.5464 5.48363 20.6052C6.39665 20.7584 7.27004 21.0465 8.12823 21.3841C8.57923 21.5611 9.02848 21.7429 9.47772 21.9246C9.70234 22.0155 9.92697 22.1064 10.1518 22.1967C10.211 22.2204 10.2707 22.2428 10.3336 22.2663L10.3338 22.2664L10.3339 22.2664L10.3342 22.2665L10.3347 22.2667C10.3677 22.279 10.4015 22.2917 10.4366 22.305V22.2099L10.4366 20.7406C10.4368 19.2708 10.4369 17.801 10.4359 16.3307L10.4359 16.2759C10.436 16.0656 10.4361 15.8553 10.4233 15.6456C10.3863 15.0504 10.1016 14.6144 9.55855 14.362C9.37954 14.2791 9.19037 14.2159 9.00241 14.1531L8.97321 14.1433C8.40164 13.9515 7.82936 13.761 7.25707 13.5706L7.25487 13.5699L7.25285 13.5692C6.87268 13.4427 6.49252 13.3162 6.11257 13.1893C6.04056 13.1649 5.96987 13.1365 5.9005 13.1061C5.66465 13.0037 5.54639 12.8187 5.52855 12.5657C5.52261 12.4811 5.51864 12.3965 5.51864 12.312L5.51833 12.0784C5.51769 11.6112 5.51704 11.144 5.5193 10.6768C5.51996 10.5335 5.52261 10.3881 5.54441 10.2468C5.59198 9.93559 5.79348 9.77109 6.10993 9.73674C6.32466 9.71318 6.54031 9.7246 6.75498 9.73597L6.7551 9.73598L6.75522 9.73598L6.75534 9.73599L6.75546 9.73599L6.75558 9.736L6.7557 9.736C6.79969 9.73834 6.84363 9.74066 6.88752 9.74268C7.1498 9.75392 7.41208 9.77506 7.67172 9.80809C7.97892 9.84773 8.28547 9.89662 8.59003 9.95409C9.52155 10.1305 10.4148 10.4284 11.2756 10.8235C11.4376 10.8981 11.5971 10.9788 11.7568 11.0595C11.8262 11.0946 11.8956 11.1298 11.9653 11.1644C11.9851 11.1743 12.0056 11.1849 12.0248 11.1961C12.1292 11.2562 12.2316 11.2556 12.3386 11.1988C12.4575 11.1353 12.5791 11.0759 12.7013 11.0164C13.5965 10.5804 14.5306 10.2547 15.5044 10.0459C15.9094 9.95872 16.3184 9.89464 16.7313 9.85169C17.1752 9.80479 17.6199 9.78034 18.0658 9.78761C18.1444 9.78827 18.2244 9.79488 18.301 9.81139C18.5765 9.87151 18.7337 10.0466 18.7714 10.3293C18.7819 10.4073 18.7879 10.4866 18.7879 10.5659C18.7892 11.1955 18.7899 11.8251 18.7872 12.4547C18.7866 12.5524 18.7747 12.6515 18.7562 12.748C18.7251 12.9125 18.63 13.038 18.484 13.1173C18.3955 13.1655 18.3017 13.2065 18.2059 13.2382C17.3756 13.5167 16.5446 13.7935 15.7137 14.0703L15.7129 14.0706L15.001 14.3078C14.8319 14.364 14.6694 14.4347 14.5174 14.5291C14.1845 14.7359 13.9869 15.0352 13.9116 15.4177C13.866 15.6489 13.8627 15.8828 13.8667 16.1173L13.8678 16.1471C13.8689 16.1768 13.87 16.2065 13.87 16.2363V20.1414L13.8698 20.2516C13.8693 20.5452 13.8687 20.8387 13.864 21.1317C13.8621 21.2242 13.8508 21.3187 13.827 21.4072C13.7656 21.6358 13.5938 21.8214 13.278 21.8446C13.1888 21.8512 13.0964 21.8426 13.0098 21.8221C12.7409 21.7587 12.5711 21.542 12.5579 21.2486C12.5516 21.0996 12.552 20.9506 12.5524 20.8015L12.5526 20.6897C12.5526 19.56 12.5533 18.4303 12.554 17.2999V17.2979V17.2959V17.294V17.292V17.29V17.288V17.286V17.2841C12.554 17.076 12.5536 16.8678 12.5532 16.6597C12.5527 16.3823 12.5523 16.1048 12.5526 15.8273C12.5533 15.2314 12.7019 14.6771 13.0362 14.1796C13.4055 13.63 13.9195 13.2686 14.5412 13.0559C15.1226 12.8567 15.7043 12.6589 16.2861 12.4611L16.2868 12.4608L16.29 12.4597C16.6159 12.3489 16.9418 12.2381 17.2677 12.127C17.2968 12.1171 17.3252 12.1045 17.3523 12.0907C17.3847 12.0735 17.3999 12.0464 17.3999 12.0081C17.3999 11.8528 17.4004 11.6974 17.4008 11.542C17.4013 11.3866 17.4018 11.2311 17.4018 11.0759C17.4018 11.069 17.3999 11.0621 17.3976 11.0541L17.3948 11.0441L17.3939 11.0402C17.2887 11.051 17.184 11.0616 17.0795 11.0721C16.9226 11.0878 16.7663 11.1035 16.6097 11.1201C15.8526 11.2014 15.118 11.3811 14.4005 11.6322C13.7682 11.8535 13.1644 12.1369 12.5843 12.4718C12.4998 12.5207 12.4093 12.5643 12.3155 12.5921C12.1543 12.6403 11.9917 12.6231 11.8358 12.5584C11.7757 12.5339 11.7176 12.5042 11.6621 12.4718C10.7946 11.9711 9.87764 11.5965 8.90582 11.354C8.53916 11.2629 8.16985 11.1869 7.79526 11.1393C7.57989 11.1116 7.36385 11.0871 7.14782 11.0673C7.08312 11.0614 7.0178 11.063 6.95208 11.0645C6.92183 11.0653 6.89149 11.066 6.86109 11.066C6.85955 11.0721 6.85801 11.0774 6.85664 11.0821C6.8539 11.0915 6.85184 11.0986 6.85184 11.1056C6.85226 11.1962 6.85315 11.2868 6.85404 11.3774C6.85595 11.5718 6.85785 11.7663 6.85515 11.9605C6.85383 12.0563 6.89941 12.0979 6.97869 12.1243C7.03886 12.1439 7.09879 12.1643 7.15863 12.1848L7.159 12.1849L7.15902 12.1849L7.15903 12.1849L7.15905 12.1849L7.15906 12.1849C7.20027 12.199 7.24143 12.213 7.28259 12.2267L8.13946 12.5143C8.71071 12.706 9.28195 12.8978 9.8532 13.0889C10.3394 13.2521 10.7623 13.5117 11.1018 13.8982C11.4394 14.282 11.6416 14.7286 11.7103 15.234C11.7288 15.3734 11.7374 15.5148 11.7413 15.6555C11.7701 16.6913 11.7659 17.727 11.7617 18.7626V18.7626V18.7627V18.7628V18.7629V18.763V18.763V18.7631C11.7597 19.2519 11.7577 19.7406 11.7592 20.2293C11.7603 20.6381 11.7611 21.0468 11.7619 21.4555V21.4556V21.4557V21.4559V21.456V21.4561V21.4562V21.4563C11.7629 22.0017 11.7639 22.547 11.7658 23.0925C11.7659 23.1137 11.7663 23.1349 11.7667 23.1561C11.7684 23.2533 11.7701 23.3506 11.7473 23.4466C11.6832 23.7155 11.5273 23.8985 11.2544 23.9725C11.2391 23.9768 11.2243 23.9833 11.2093 23.9898C11.2011 23.9934 11.1929 23.997 11.1844 24.0003H10.9816C10.9602 23.9931 10.9387 23.9862 10.9173 23.9793L10.9172 23.9793L10.9172 23.9792L10.9172 23.9792L10.9172 23.9792L10.9171 23.9792L10.9171 23.9792L10.9171 23.9792C10.8612 23.9611 10.8054 23.9431 10.751 23.9217C10.4379 23.7983 10.1249 23.6743 9.8118 23.5503L9.80974 23.5495L9.80769 23.5487C9.46495 23.4129 9.12214 23.2771 8.77897 23.1421L8.48578 23.0268L8.48566 23.0268L8.48557 23.0267L8.48548 23.0267L8.48539 23.0267L8.4853 23.0266L8.48521 23.0266L8.48512 23.0266C8.06142 22.8598 7.63786 22.6931 7.21124 22.5343C6.5605 22.2925 5.89323 22.1088 5.20681 21.9991C4.92339 21.9536 4.63799 21.9139 4.35193 21.8862C4.21262 21.873 4.07246 21.8675 3.93229 21.8621C3.82717 21.858 3.72204 21.8539 3.61728 21.8465C3.51157 21.8386 3.40323 21.8221 3.30281 21.7897C3.0947 21.723 2.95002 21.5829 2.88197 21.3715C2.84629 21.2599 2.82978 21.1449 2.84365 21.0286C2.86083 20.8807 2.88131 20.7327 2.90641 20.5854C2.93174 20.4323 2.9574 20.2794 2.98305 20.1264L2.98307 20.1263C3.08989 19.4894 3.19671 18.8524 3.28034 18.2116C3.3332 17.8086 3.36359 17.4036 3.37284 16.9967C3.38935 16.2442 3.32329 15.497 3.22023 14.7524L3.16711 14.3695C3.10539 13.9248 3.04362 13.4798 2.98305 13.0347C2.91632 12.5392 2.86017 12.0431 2.82912 11.5443C2.82643 11.4991 2.81859 11.4542 2.81073 11.4092L2.81073 11.4092C2.80699 11.3877 2.80324 11.3663 2.80005 11.3448V10.5315ZM8.76345 8.75765C8.76609 8.39297 9.06471 8.10558 9.43533 8.10954C9.802 8.11417 10.0848 8.4042 10.0808 8.77284C10.0775 9.1362 9.77954 9.4335 9.42344 9.42887C9.06933 9.42359 8.76081 9.11044 8.76345 8.75765ZM14.8265 8.10796C14.4757 8.10334 14.1718 8.38676 14.1784 8.75606C14.1645 9.07053 14.4076 9.41936 14.8285 9.42663C15.1799 9.43257 15.4885 9.12074 15.4898 8.76795C15.4918 8.40525 15.1945 8.11325 14.8265 8.10796ZM15.4883 17.4108C15.4883 17.7682 15.1877 18.0681 14.8303 18.0681C14.4663 18.0681 14.1677 17.7675 14.171 17.4042C14.1743 17.0408 14.463 16.7541 14.823 16.7547C15.1943 16.7554 15.4883 17.0461 15.4883 17.4108ZM14.8212 19.456C14.4426 19.456 14.1665 19.7738 14.1784 20.1094C14.1685 20.4708 14.4598 20.7687 14.8265 20.7654C15.1931 20.7615 15.4878 20.4767 15.4898 20.1167C15.4918 19.748 15.1945 19.456 14.8212 19.456ZM8.76272 17.4073C8.76272 17.0446 9.05539 16.7573 9.42272 16.7586C9.79665 16.7599 10.0794 17.0407 10.0787 17.4093C10.0781 17.7766 9.78806 18.0706 9.42734 18.0693C9.06596 18.068 8.76272 17.7661 8.76272 17.4073ZM10.0809 20.1113C10.0802 19.7393 9.7981 19.4585 9.42549 19.4585C9.09252 19.4486 8.7655 19.7281 8.76417 20.1113C8.76285 20.4693 9.05618 20.7627 9.41624 20.764C9.79348 20.7653 10.0815 20.4832 10.0809 20.1113ZM17.5149 8.87617C17.1397 8.87022 16.8715 8.58614 16.8774 8.19966C16.8834 7.8363 17.178 7.56147 17.5546 7.56807C17.908 7.57468 18.1948 7.8733 18.1882 8.22873C18.1815 8.60002 17.8882 8.88212 17.5149 8.87617ZM6.06778 8.22516C6.0658 8.60173 6.37102 8.88581 6.72513 8.87326C7.07462 8.88383 7.38116 8.59975 7.3772 8.21988C7.37257 7.84661 7.0951 7.56715 6.72183 7.56781C6.35715 7.56781 6.0691 7.85916 6.06778 8.22516Z" fill="#0C1E3C"/>
</svg>
