<svg width="24" height="24" viewBox="0 0 24 24" fill="none" xmlns="http://www.w3.org/2000/svg">
<path fill-rule="evenodd" clip-rule="evenodd" d="M21.1239 14.1048C24.2061 10.7932 23.956 5.55583 23.9435 5.32977C23.9238 4.97268 23.6385 4.68759 23.2814 4.66786C23.1745 4.66183 21.6605 4.588 19.7659 4.97359C19.3922 3.05437 18.7374 1.67553 18.7063 1.61065C18.5515 1.28829 18.1791 1.13405 17.8414 1.25247C17.7736 1.27622 16.3364 1.78792 14.7158 2.88021C13.6528 1.27513 12.5334 0.258498 12.4446 0.179002C12.1784 -0.0596674 11.775 -0.0596674 11.5086 0.179002C11.4198 0.258498 10.3004 1.27513 9.23739 2.88039C7.61677 1.7881 6.17946 1.27622 6.11184 1.25247C5.7743 1.13423 5.40168 1.28829 5.24689 1.61065C5.21582 1.67553 4.56085 3.05437 4.18731 4.97378C2.29276 4.58818 0.778504 4.66201 0.671596 4.66786C0.314506 4.68759 0.0294179 4.97268 0.00968101 5.32995C-0.00292863 5.55583 -0.252929 10.7932 2.82931 14.1048C1.25895 14.9741 0.230807 16.1099 0.180003 16.1666C-0.0584842 16.433 -0.0584842 16.8364 0.180003 17.1028C0.291662 17.2274 2.95175 20.1549 6.33954 20.1549C7.21984 20.1549 8.05062 19.957 8.8008 19.6622C9.58059 22.0244 11.4218 23.6944 11.5084 23.7722C11.6416 23.8914 11.8092 23.9511 11.9766 23.9511C12.144 23.9511 12.3114 23.8914 12.4446 23.7722C12.5314 23.6945 14.3723 22.0244 15.1522 19.6624C15.9024 19.957 16.7332 20.1549 17.6135 20.1549C21.0013 20.1549 23.6616 17.2274 23.7732 17.1028C24.0117 16.8364 24.0117 16.433 23.7732 16.1666C23.7222 16.1097 22.6939 14.974 21.1239 14.1048ZM19.93 13.3221C18.1047 15.1474 15.386 15.7068 13.657 15.8727C14.9044 14.3831 16.6616 11.7397 16.6616 8.66822C16.6616 8.32447 16.6389 7.98639 16.5981 7.65433C18.7279 6.33836 21.3423 6.10243 22.5437 6.06862C22.5038 7.53116 22.1661 11.086 19.93 13.3221ZM17.6954 2.82831C17.907 3.38149 18.2047 4.26946 18.4037 5.32137C17.7047 5.53865 16.9885 5.82593 16.2977 6.20514C16.0777 5.44801 15.7743 4.73803 15.4333 4.08964C16.3173 3.48712 17.155 3.06954 17.6954 2.82831ZM11.9773 1.69125C12.8527 2.61577 14.6879 4.81936 15.1502 7.45879C15.1504 7.45916 15.1504 7.45952 15.1506 7.46007C15.2195 7.8539 15.258 8.25759 15.258 8.66822C15.258 11.8195 12.9828 14.5785 11.9766 15.6443C10.9704 14.5785 8.69499 11.8195 8.69499 8.66822C8.69499 5.51581 10.972 2.75594 11.9773 1.69125ZM6.25767 2.82831C6.79806 3.06972 7.63596 3.4873 8.51974 4.08982C8.17873 4.73803 7.87536 5.44801 7.65533 6.20514C6.96455 5.82593 6.24835 5.53865 5.54934 5.32137C5.74835 4.26946 6.04623 3.38131 6.25767 2.82831ZM7.3549 7.65433C7.31414 7.98639 7.29166 8.32447 7.29166 8.66822C7.29166 11.7415 9.05062 14.3861 10.2981 15.8753C8.57145 15.7115 5.85471 15.1538 4.02284 13.3221C1.79367 11.0929 1.45248 7.53134 1.41045 6.06753C2.61092 6.10006 5.21984 6.33398 7.3549 7.65433ZM1.70449 16.6337C2.17726 16.2053 2.97076 15.5706 3.94938 15.1065C5.99159 16.6278 8.51425 17.1244 10.1908 17.279C9.84338 17.5365 9.43622 17.8036 8.98465 18.0387C8.95943 18.0496 8.93512 18.0624 8.91173 18.0761C8.15168 18.4615 7.27083 18.7516 6.33954 18.7516C4.32273 18.7516 2.52887 17.3784 1.70449 16.6337ZM11.9755 22.2477C11.4123 21.6264 10.4921 20.4524 10.0755 19.0376C10.8986 18.5536 11.5548 18.0107 11.9764 17.6227C12.398 18.0107 13.0543 18.5536 13.8772 19.0374C13.4611 20.4469 12.5387 21.6246 11.9755 22.2477ZM17.6135 18.7516C16.1007 18.7516 14.7136 17.9791 13.7666 17.2784C15.4432 17.1235 17.9633 16.6264 20.0035 15.1066C20.9784 15.5695 21.7745 16.2064 22.2489 16.6353C21.4269 17.3806 19.6393 18.7516 17.6135 18.7516Z" fill="#0092C9"/>
</svg>
