<svg width="24" height="24" viewBox="0 0 24 24" fill="none" xmlns="http://www.w3.org/2000/svg">
<path fill-rule="evenodd" clip-rule="evenodd" d="M0.907029 6H19.1293C19.6372 6 20 5.55102 20 4.97959C20 4.40816 19.6372 4 19.1293 4H0.907029C0.399093 4 0 4.40816 0 4.97959C0 5.55102 0.399093 6 0.907029 6ZM0.907029 20H9.86426H11.1293C11.6372 20 12 19.551 12 18.9796C12 18.4082 11.6372 18 11.1293 18H0.907029C0.399093 18 0 18.4082 0 18.9796C0 19.551 0.399093 20 0.907029 20ZM23.1293 13H0.907029C0.399093 13 0 12.551 0 11.9796C0 11.4082 0.399093 11 0.907029 11H23.1293C23.6372 11 24 11.4082 24 11.9796C24 12.551 23.6372 13 23.1293 13Z" fill="#0092C9"/>
</svg>
