<svg width="24" height="24" viewBox="0 0 24 24" fill="none" xmlns="http://www.w3.org/2000/svg">
<path fill-rule="evenodd" clip-rule="evenodd" d="M1.2 5.57143H22.8C23.4627 5.57143 24 4.99579 24 4.28571C24 3.57563 23.4627 3 22.8 3H1.2C0.537258 3 0 3.57563 0 4.28571C0 4.99579 0.537258 5.57143 1.2 5.57143ZM1.2 13.2857H22.8C23.4627 13.2857 24 12.7101 24 12C24 11.2899 23.4627 10.7143 22.8 10.7143H1.2C0.537258 10.7143 0 11.2899 0 12C0 12.7101 0.537258 13.2857 1.2 13.2857ZM22.8 21H1.2C0.537258 21 0 20.4244 0 19.7143C0 19.0042 0.537258 18.4286 1.2 18.4286H22.8C23.4627 18.4286 24 19.0042 24 19.7143C24 20.4244 23.4627 21 22.8 21Z" fill="#999999"/>
</svg>
