<svg width="24" height="24" viewBox="0 0 24 24" fill="none" xmlns="http://www.w3.org/2000/svg">
<path fill-rule="evenodd" clip-rule="evenodd" d="M11.1402 0H0.856937C0.383908 0 0 0.413538 0 0.923077C0 1.43262 0.383908 1.84616 0.856937 1.84616H11.1402C11.6132 1.84616 11.9971 1.43262 11.9971 0.923077C11.9971 0.413538 11.6132 0 11.1402 0ZM23.391 7.83324C22.6871 6.27797 21.4783 5.40671 20.3084 4.56354L20.3061 4.56184C19.4337 3.9323 18.6111 3.33784 18.0283 2.48676L17.9204 2.32984L17.9122 2.31796C17.5714 1.82427 17.1863 1.26639 17.1268 0.797538C17.1238 0.774982 17.1156 0.754925 17.1073 0.734458L17.1073 0.734442C17.1012 0.719738 17.0951 0.704822 17.0908 0.688616C17.0754 0.624 17.0583 0.563076 17.0308 0.504C17.0103 0.456 16.9811 0.413538 16.9503 0.36923L16.9473 0.365074C16.9124 0.316719 16.8788 0.270254 16.8355 0.23077C16.7988 0.196 16.7596 0.170702 16.719 0.14445L16.6983 0.131077L16.6951 0.129098C16.6518 0.102155 16.6115 0.0770978 16.563 0.059077C16.503 0.035077 16.4413 0.0258462 16.3762 0.0184615C16.361 0.017601 16.3469 0.0135318 16.3328 0.00943204C16.3165 0.00473606 16.3002 0 16.2819 0C16.2704 0 16.2601 0.00341554 16.2499 0.0067695C16.2418 0.00945556 16.2337 0.0121021 16.2254 0.0129231C16.2158 0.0137774 16.2067 0.0122601 16.1975 0.0107488C16.187 0.00899382 16.1764 0.00724687 16.1654 0.00923076C16.1431 0.0125035 16.1238 0.021578 16.1043 0.0307403L16.1043 0.0307468C16.0908 0.0370877 16.0773 0.0434701 16.0625 0.048C16.0043 0.0646154 15.9494 0.0812308 15.898 0.11077C15.85 0.136616 15.8089 0.169846 15.7677 0.20677C15.7232 0.243692 15.6803 0.280616 15.6443 0.32677C15.6103 0.368737 15.5854 0.414017 15.5595 0.461042L15.5595 0.461053L15.5595 0.461062L15.5552 0.468924C15.5278 0.520616 15.5021 0.570462 15.4832 0.627692C15.4644 0.684924 15.4575 0.744 15.4506 0.80677C15.448 0.818318 15.4444 0.829866 15.4409 0.841584L15.4409 0.841592C15.433 0.867337 15.425 0.8939 15.425 0.923077V17.3724C14.7068 16.9034 13.8225 16.6154 12.8542 16.6154C10.4907 16.6154 8.56946 18.2714 8.56946 20.3076C8.56946 22.344 10.4907 24 12.8542 24C15.2176 24 17.1389 22.344 17.1389 20.3076V9.5483C18.426 10.0782 20.5323 11.4276 21.1116 14.579C21.0844 14.6224 21.0575 14.6666 21.0305 14.7109L21.0305 14.7109C20.9506 14.8423 20.8705 14.974 20.7808 15.083C20.4672 15.4652 20.5032 16.0486 20.8579 16.3846C21.0207 16.5396 21.223 16.6154 21.4236 16.6154C21.6618 16.6154 21.8965 16.5084 22.0662 16.3016C22.2942 16.0228 22.4981 15.6924 22.6935 15.3526C22.7158 15.323 22.7329 15.2954 22.7517 15.264C23.4442 14.016 23.9034 12.4376 23.9909 10.8776C24.0475 9.87504 23.8401 8.82277 23.391 7.83324ZM12.8542 22.1538C11.4608 22.1538 10.2834 21.3084 10.2834 20.3076C10.2834 19.307 11.4608 18.4616 12.8542 18.4616C14.2475 18.4616 15.425 19.307 15.425 20.3076C15.425 21.3084 14.2475 22.1538 12.8542 22.1538ZM22.2821 10.7612C22.2582 11.1932 22.1965 11.6252 22.1091 12.048C20.9042 9.44308 18.719 8.08616 17.1389 7.584V4.19262C17.8107 4.9643 18.5905 5.54216 19.3549 6.0923C20.3815 6.83262 21.3515 7.5323 21.8537 8.64184C22.1691 9.33416 22.3198 10.0892 22.2821 10.7612ZM0.856937 5.53858H11.1402C11.6132 5.53858 11.9971 5.95212 11.9971 6.46165C11.9971 6.97119 11.6132 7.38472 11.1402 7.38472H0.856937C0.383908 7.38472 0 6.97119 0 6.46165C0 5.95212 0.383908 5.53858 0.856937 5.53858ZM5.99856 11.0772H0.856937C0.383908 11.0772 0 11.4907 0 12.0002C0 12.5098 0.383908 12.9233 0.856937 12.9233H5.99856C6.47159 12.9233 6.8555 12.5098 6.8555 12.0002C6.8555 11.4907 6.47159 11.0772 5.99856 11.0772ZM0.856937 16.6154H5.99856C6.47159 16.6154 6.8555 17.029 6.8555 17.5385C6.8555 18.048 6.47159 18.4616 5.99856 18.4616H0.856937C0.383908 18.4616 0 18.048 0 17.5385C0 17.029 0.383908 16.6154 0.856937 16.6154Z" fill="#999999"/>
</svg>
