<svg width="24" height="24" viewBox="0 0 24 24" fill="none" xmlns="http://www.w3.org/2000/svg">
<path fill-rule="evenodd" clip-rule="evenodd" d="M12.2726 0C12.4232 0.0289903 12.5747 0.054722 12.7262 0.0804521C13.0592 0.136988 13.3921 0.193515 13.7151 0.284585C15.3842 0.754548 16.6876 1.73937 17.6413 3.18185C18.4408 4.39043 18.7804 5.73587 18.7789 7.17545C18.7778 7.93169 18.778 8.68752 18.7781 9.44355V9.44362V9.44369V9.44376V9.44383V9.44389L18.7782 10.2009C18.7782 11.3747 18.3379 11.9743 17.217 12.3458C17.1489 12.3682 17.0787 12.4674 17.0591 12.5442C16.7448 13.76 16.0873 14.7485 15.1018 15.5211C15.0854 15.534 15.069 15.5471 15.0526 15.5603L15.0526 15.5603L15.0526 15.5603L15.0526 15.5603C14.9706 15.6261 14.8877 15.6926 14.7947 15.7354C14.542 15.852 14.4522 16.0323 14.5435 16.3292C14.6965 16.353 14.8511 16.3782 15.0069 16.4036C15.3555 16.4605 15.71 16.5184 16.0663 16.5624C17.0301 16.6826 17.9194 16.9773 18.6935 17.5842C19.4712 18.1946 20.0324 18.9564 20.3329 19.8992C20.6505 20.8962 20.962 21.8949 21.2734 22.8937L21.2735 22.8938L21.2756 22.9006C21.3767 23.2248 21.4778 23.5491 21.5792 23.8733C21.5865 23.8964 21.5907 23.9204 21.5956 23.9484C21.5983 23.9643 21.6013 23.9816 21.6052 24.0007H2C2.00637 23.9755 2.01233 23.9506 2.01822 23.9261C2.03176 23.8697 2.0449 23.815 2.06155 23.761C2.17615 23.3939 2.28942 23.0264 2.40269 22.6589L2.40269 22.6589L2.40271 22.6588L2.40285 22.6584C2.67316 21.7812 2.94347 20.9042 3.23175 20.0332C3.88203 18.0708 5.24412 16.931 7.28691 16.608C7.65841 16.5491 8.02992 16.491 8.40053 16.433L8.40056 16.433L8.40069 16.433L8.40082 16.4329L8.40124 16.4329L8.40196 16.4327L8.403 16.4326L8.40433 16.4324L8.40592 16.4321L8.40861 16.4317C8.62694 16.3976 8.84496 16.3634 9.06249 16.3292C9.14793 16.062 9.0719 15.9006 8.83438 15.7456C7.68229 14.9932 6.92919 13.9396 6.57146 12.6108C6.52584 12.4406 6.46284 12.3559 6.27819 12.3117C5.41864 12.1075 4.83426 11.3407 4.83282 10.3884C4.83238 10.1845 4.8316 9.98056 4.83081 9.77657L4.83081 9.7764L4.83081 9.77623L4.83081 9.77606L4.83081 9.77589L4.83081 9.77572C4.8264 8.62754 4.82199 7.47859 4.87916 6.33328C4.94071 5.10877 5.38823 3.98998 6.09571 2.98706C6.9835 1.72923 8.15732 0.838548 9.62369 0.364964C9.95049 0.259043 10.2912 0.196274 10.6321 0.133473C10.7829 0.105684 10.9338 0.0778882 11.0835 0.0463446C11.1407 0.0338174 11.1988 0.0237174 11.2568 0.0136453L11.2568 0.0136439L11.2569 0.0136426C11.2827 0.00916011 11.3085 0.00468307 11.3341 0H12.2726ZM17.9903 8.87789C17.9915 8.85448 17.9929 8.83115 17.9943 8.80786C17.9974 8.75622 18.0005 8.70481 18.0005 8.65341C18.0008 8.44718 18.0006 8.24083 18.0004 8.03446V8.03443V8.03441V8.03438V8.03436V8.03433V8.0343V8.03428C18.0002 7.72478 17.9999 7.41523 18.0012 7.10594C18.0092 5.61567 17.5841 4.2666 16.6369 3.11088C15.2263 1.39034 13.3841 0.622756 11.1762 0.811031C9.74535 0.93341 8.50345 1.53734 7.47591 2.54678C6.51208 3.49323 5.86181 4.63012 5.71119 5.97846C5.63698 6.64081 5.63245 7.31126 5.62793 7.98146C5.62597 8.27258 5.624 8.56365 5.61633 8.854C5.61633 8.86122 5.63082 8.86843 5.63531 8.87067L5.63614 8.87109C5.63651 8.87128 5.63668 8.87138 5.63661 8.87138C5.69828 8.8443 5.75972 8.81809 5.82077 8.79205L5.82088 8.792C5.97701 8.7254 6.13058 8.65988 6.27891 8.58389C6.32888 8.55855 6.37015 8.46803 6.37305 8.40576C6.37948 8.27162 6.37855 8.13748 6.37762 8.00333C6.37699 7.91082 6.37635 7.81831 6.37812 7.72579C6.3955 6.85032 7.01753 6.35863 7.87708 6.51721L7.92449 6.52599L7.92452 6.52599L7.92452 6.526C8.63656 6.6578 9.35072 6.78999 10.069 6.87783C11.1024 7.00456 12.1451 7.01831 13.1792 6.90607C13.9366 6.82406 14.6887 6.69405 15.4405 6.5641C15.5649 6.54261 15.6892 6.52111 15.8136 6.49983C16.508 6.3818 17.1134 6.79094 17.1989 7.48538C17.2221 7.6746 17.2235 7.8661 17.225 8.05774V8.05777V8.0578V8.05783V8.05785V8.05788V8.05791V8.05794C17.2259 8.17133 17.2268 8.28476 17.2322 8.39779C17.2351 8.45934 17.2553 8.55493 17.2966 8.57593C17.4593 8.65594 17.6267 8.72573 17.8008 8.79832L17.8009 8.79835L17.801 8.79838L17.801 8.79838L17.801 8.79839C17.8632 8.82433 17.9263 8.85064 17.9903 8.87789ZM6.36581 9.3942V11.5239C5.92119 11.3805 5.61416 10.9598 5.60692 10.4855C5.59967 9.99234 5.88788 9.56582 6.36581 9.3942ZM17.9998 10.4963C17.9882 10.9735 17.6594 11.4116 17.222 11.5217L17.2198 11.4863C17.218 11.46 17.2162 11.4344 17.2162 11.4087V9.39565C17.7029 9.53758 18.0113 9.98944 17.9998 10.4963ZM6.03415 23.2295L6.04957 23.1288C6.06344 23.0388 6.0764 22.9548 6.08702 22.8703L6.13612 22.4826C6.22279 21.7988 6.30943 21.1153 6.39043 20.4307C6.40708 20.2859 6.46646 20.2171 6.6055 20.1758C6.81273 20.1142 7.01775 20.0446 7.22278 19.975L7.2228 19.975L7.22281 19.975L7.22282 19.975L7.22284 19.975L7.22285 19.9749L7.22287 19.9749L7.22288 19.9749L7.2229 19.9749L7.22291 19.9749C7.35027 19.9317 7.47763 19.8884 7.60553 19.8471C9.80617 19.1374 11.8113 18.0693 13.5977 16.5957C13.606 16.5889 13.6144 16.5822 13.6228 16.5755C13.7044 16.5102 13.7845 16.4461 13.6926 16.3075C12.4275 16.7739 11.1596 16.7623 9.87062 16.2967V16.973C9.84433 16.9793 9.82003 16.9856 9.79701 16.9916L9.79696 16.9916C9.75341 17.003 9.71441 17.0132 9.67511 17.0193C9.40995 17.0606 9.14449 17.1002 8.87904 17.1399L8.87895 17.1399C8.33395 17.2213 7.78904 17.3026 7.24708 17.3981C5.72929 17.6645 4.63585 18.5002 4.09203 19.9477C3.81875 20.6746 3.5934 21.4195 3.36804 22.1643C3.27033 22.4873 3.17262 22.8103 3.071 23.1318C3.06577 23.1493 3.06709 23.1688 3.06861 23.1913C3.06941 23.2031 3.07027 23.2158 3.07027 23.2295H6.03415ZM15.4537 19.7052C14.9338 20.3569 14.3132 20.8978 13.5992 21.3576L13.6424 21.4292C13.753 21.6122 13.8526 21.7771 13.9533 21.942C14.0288 22.0663 14.1089 22.0148 14.1936 21.9603L14.2075 21.9514C14.9519 21.4749 15.5891 20.8819 16.1366 20.1896C16.6297 19.5661 16.9845 18.8623 17.3336 18.1541C17.3659 18.089 17.3996 18.0245 17.4395 17.9485L17.4396 17.9482L17.4397 17.948L17.4399 17.9476L17.44 17.9475L17.4402 17.9471L17.4404 17.9468C17.4682 17.8937 17.4989 17.835 17.5341 17.7666C17.6277 17.8322 17.7211 17.8947 17.8133 17.9564L17.8134 17.9565L17.8134 17.9565L17.8135 17.9566L17.8135 17.9566L17.8136 17.9566L17.8136 17.9567L17.8136 17.9567L17.8137 17.9567L17.8137 17.9568C18.0105 18.0884 18.2018 18.2165 18.3778 18.3633C18.9484 18.8405 19.3438 19.4466 19.5704 20.1541C19.8028 20.8786 20.0279 21.6054 20.253 22.3323C20.3281 22.5747 20.4031 22.8171 20.4785 23.0593C20.4843 23.0767 20.4876 23.0949 20.4923 23.1209C20.4953 23.1371 20.4988 23.1563 20.5038 23.1803C20.4761 23.1832 20.4495 23.1867 20.4238 23.1901L20.4237 23.1902C20.3722 23.197 20.324 23.2035 20.2757 23.2035C20.0049 23.2039 19.7339 23.2037 19.4629 23.2035C18.921 23.203 18.3789 23.2025 17.8368 23.2078C17.6623 23.21 17.587 23.1593 17.5667 22.9797C17.5056 22.4466 17.4372 21.914 17.3687 21.3815L17.3687 21.3814L17.3687 21.3813C17.3487 21.2259 17.3287 21.0706 17.3089 20.9152C17.2975 20.8282 17.2844 20.7412 17.27 20.6452L17.27 20.6452L17.2699 20.645L17.2699 20.6447C17.2614 20.5883 17.2524 20.5286 17.243 20.4641C17.1773 20.471 17.1122 20.4768 17.0476 20.4826L17.0475 20.4826L17.0474 20.4826C16.8766 20.4978 16.71 20.5127 16.5471 20.5473C16.4979 20.5575 16.4385 20.7037 16.4472 20.7805C16.5117 21.358 16.5841 21.935 16.6565 22.512L16.6565 22.512L16.6566 22.5121L16.6566 22.5121L16.6566 22.5122L16.6566 22.5122L16.6566 22.5122L16.6566 22.5123L16.6566 22.5125L16.6567 22.5136L16.6569 22.5146L16.657 22.5157L16.6571 22.5167L16.6573 22.5178C16.6798 22.6971 16.7023 22.8764 16.7246 23.0557C16.7281 23.0818 16.7288 23.1085 16.7297 23.1415V23.1416C16.73 23.1554 16.7304 23.1703 16.7311 23.1868H6.86401C6.92991 22.6444 6.99363 22.1201 7.05808 21.5959C7.06526 21.5396 7.07506 21.4834 7.08484 21.4271C7.10467 21.3133 7.12447 21.1995 7.12253 21.0861C7.11819 20.8848 7.22536 20.8182 7.38974 20.7653C8.71635 20.3431 10.0111 19.8442 11.2313 19.165C12.2241 18.6124 13.1669 17.9875 14.0409 17.2626C14.1879 17.1403 14.3233 17.0947 14.5058 17.1388C14.6096 17.1639 14.716 17.1794 14.8357 17.1968C14.8955 17.2054 14.9586 17.2146 15.0265 17.2257C14.9875 17.2798 14.9509 17.3313 14.9158 17.3807L14.9156 17.381C14.8274 17.5052 14.7483 17.6166 14.6629 17.7232C14.5811 17.826 14.5876 17.8955 14.6941 17.9745C14.8057 18.0576 14.9141 18.1456 15.0311 18.2405L15.0312 18.2406C15.0895 18.2879 15.15 18.3369 15.214 18.388C15.2779 18.3019 15.3417 18.2188 15.4045 18.137C15.5431 17.9565 15.6767 17.7825 15.7948 17.5986C15.9135 17.4133 16.0366 17.3358 16.2553 17.4111C16.3463 17.4429 16.4432 17.4575 16.5505 17.4737H16.5506L16.5506 17.4737L16.5506 17.4737L16.5507 17.4737C16.6023 17.4815 16.6562 17.4896 16.713 17.5002L16.664 17.6019C16.3014 18.3563 15.9562 19.0745 15.4537 19.7052ZM16.4523 9.6643H16.4074C16.4074 9.89212 16.4136 10.1206 16.4198 10.3492V10.3492V10.3492V10.3493V10.3493V10.3493V10.3493C16.4334 10.8487 16.447 11.3483 16.3958 11.8411C16.1851 13.8628 14.5297 15.5305 12.5181 15.8209C9.65773 16.2337 7.17974 14.1105 7.15584 11.219C7.14844 10.3105 7.15088 9.4019 7.15332 8.49299C7.15398 8.24501 7.15465 7.99701 7.15512 7.74897C7.15584 7.34345 7.34556 7.18269 7.73587 7.27538C9.21818 7.62804 10.7215 7.77069 12.2436 7.73666C13.4413 7.70986 14.6246 7.56431 15.7926 7.29566C16.2807 7.18342 16.4523 7.31738 16.4523 7.81124C16.4528 8.22303 16.4526 8.63482 16.4524 9.04662L16.4523 9.6643ZM11.8162 14.7198C12.8633 14.7038 13.7526 13.8168 13.7113 12.7856C13.6517 12.7856 13.5935 12.7864 13.5362 12.7871H13.5362H13.5362H13.5362H13.5361H13.5361C13.4088 12.7888 13.2862 12.7904 13.1638 12.7834C13.0154 12.7748 12.9828 12.8457 12.935 12.9753C12.851 13.2034 12.7533 13.4496 12.5911 13.6205C12.2826 13.9464 11.8749 14.0232 11.4462 13.8841C11.0182 13.7451 10.7626 13.4402 10.6634 13C10.6467 12.9261 10.599 12.8044 10.557 12.8008C10.3931 12.7858 10.2281 12.7879 10.0639 12.79H10.0638H10.0637H10.0636C10.0066 12.7907 9.94966 12.7914 9.89292 12.7914C9.86323 13.8363 10.78 14.7357 11.8162 14.7198ZM8.33546 10.4427H9.85831V9.69899H8.33546V10.4427ZM13.7435 10.3681C13.7448 10.3919 13.7462 10.4164 13.7474 10.4421H15.271V9.69986H13.7373L13.7372 9.83992C13.7371 9.97375 13.7369 10.1002 13.738 10.227C13.738 10.2729 13.7406 10.3188 13.7435 10.368L13.7435 10.3681ZM8.8695 22.8422C8.75895 22.7456 8.71415 22.6048 8.66916 22.4634C8.64873 22.3992 8.62826 22.3348 8.60157 22.2745C8.57551 22.2165 8.60157 22.1217 8.63271 22.0572C8.64615 22.0293 8.69071 22.0157 8.73381 22.0025C8.74877 21.998 8.76356 21.9935 8.77682 21.9884C10.2932 21.412 11.6842 20.6191 12.9073 19.5495C13.2476 19.2524 13.5657 18.9287 13.8832 18.6057L14.0311 18.4554C14.1477 18.3366 14.2216 18.3214 14.3563 18.438L14.3728 18.4523C14.8235 18.8435 14.8278 18.8472 14.4149 19.278C12.8913 20.8653 11.0825 22.0167 9.02881 22.7908C9.00717 22.7988 8.98528 22.8057 8.9538 22.8155C8.93158 22.8224 8.90457 22.8308 8.8695 22.8422ZM12.0598 22.1106C12.0497 22.1218 12.0402 22.1325 12.0309 22.1411C12.0391 22.1633 12.0465 22.1836 12.0534 22.2023C12.0751 22.2614 12.0915 22.3057 12.1091 22.3497C12.2111 22.6116 12.2624 22.743 12.3534 22.7824C12.4452 22.8221 12.5773 22.7683 12.8426 22.6604C13.0885 22.5604 13.2105 22.5108 13.2433 22.4265C13.2756 22.3434 13.2213 22.2267 13.1134 21.9949C13.1053 21.9772 13.0986 21.9578 13.0918 21.9384C13.077 21.8957 13.0622 21.8529 13.0323 21.829C12.9788 21.7863 12.8868 21.7393 12.8332 21.7581C12.5979 21.8392 12.3698 21.9398 12.1424 22.0405C12.1094 22.0552 12.0832 22.0844 12.0598 22.1106Z" fill="#0C1E3C"/>
</svg>
