<svg width="24" height="24" viewBox="0 0 24 24" fill="none" xmlns="http://www.w3.org/2000/svg">
<path fill-rule="evenodd" clip-rule="evenodd" d="M22.0827 12.0061C22.9179 11.3888 24.0901 12.0494 23.9945 13.0835C23.4099 19.4099 18.0039 24.1894 11.6536 23.9942C5.30324 23.7991 0.200891 18.6968 0.00576632 12.3464C-0.189358 5.99611 4.59011 0.590129 10.9165 0.00549209C11.9506 -0.0900748 12.6112 1.08215 11.9939 1.9173C9.87143 4.78879 10.1691 8.78102 12.6941 11.3059C15.219 13.8309 19.2112 14.1286 22.0827 12.0061ZM10.9938 13.0062C8.29902 10.3114 7.50696 6.36315 8.74956 2.93112C4.92491 4.31291 2.27879 8.02921 2.40917 12.2726C2.56527 17.3528 6.64715 21.4347 11.7274 21.5908C15.9708 21.7212 19.6871 19.0751 21.0689 15.2504C17.6368 16.493 13.6886 15.701 10.9938 13.0062Z" fill="#999999"/>
</svg>
