<svg width="24" height="24" viewBox="0 0 24 24" fill="none" xmlns="http://www.w3.org/2000/svg">
<path fill-rule="evenodd" clip-rule="evenodd" d="M3.75 3.75V5.25H2.25V6.75H3.75V8.25H5.25V6.75H6.75V5.25H5.25V3.75H3.75ZM15.2109 5.95312L13.9688 6C9.96094 6.14355 6.75 9.43359 6.75 13.4766C6.75 17.6104 10.1162 20.9766 14.25 20.9766C18.293 20.9766 21.583 17.7656 21.7266 13.7578L21.7734 12.5391L20.6719 13.0547C20.0859 13.333 19.4355 13.4766 18.75 13.4766C16.2568 13.4766 14.25 11.4697 14.25 8.97656C14.25 8.29102 14.417 7.66406 14.6953 7.07812L15.2109 5.95312ZM12.9159 8.14471C12.9578 8.00938 12.9998 7.87385 13.0312 7.73438C10.3184 8.31152 8.25 10.5879 8.25 13.4766C8.25 16.7988 10.9277 19.4766 14.25 19.4766C17.1445 19.4766 19.4443 17.4141 20.0156 14.6953C19.8769 14.7269 19.7422 14.7678 19.6079 14.8087C19.331 14.8929 19.0558 14.9766 18.75 14.9766C15.4453 14.9766 12.75 12.2812 12.75 8.97656C12.75 8.68055 12.8328 8.41302 12.9159 8.14471Z" fill="#0C1E3C"/>
</svg>
