<svg width="24" height="24" viewBox="0 0 24 24" fill="none" xmlns="http://www.w3.org/2000/svg">
<path fill-rule="evenodd" clip-rule="evenodd" d="M0 11.9998C0 10.3431 1.34313 9 2.99975 9C4.65637 9 5.9995 10.3431 5.9995 11.9998C5.9995 13.6564 4.65637 14.9995 2.99975 14.9995C1.34313 14.9995 0 13.6564 0 11.9998ZM1.49984 11.9997C1.49984 12.8284 2.1711 13.4996 2.99975 13.4996C3.82847 13.4996 4.49966 12.8284 4.49966 11.9997C4.49966 11.1717 3.82847 10.4998 2.99975 10.4998C2.17103 10.4998 1.49984 11.171 1.49984 11.9997ZM17.9986 11.9998C17.9986 10.3431 19.3417 9 20.9983 9C22.6549 9 23.9981 10.3431 23.9981 11.9998C23.9981 13.6564 22.6549 14.9995 20.9983 14.9995C19.3417 14.9995 17.9986 13.6564 17.9986 11.9998ZM19.4984 11.9997C19.4984 12.8284 20.1697 13.4996 20.9983 13.4996C21.8263 13.4996 22.4982 12.8284 22.4982 11.9997C22.4982 11.1717 21.8262 10.4998 20.9983 10.4998C20.1696 10.4998 19.4984 11.171 19.4984 11.9997ZM11.9991 9C10.3424 9 8.99931 10.3431 8.99931 11.9998C8.99931 13.6564 10.3424 14.9995 11.9991 14.9995C13.6557 14.9995 14.9988 13.6564 14.9988 11.9998C14.9988 10.3431 13.6557 9 11.9991 9ZM11.9991 13.4996C11.1704 13.4996 10.4992 12.8284 10.4992 11.9997C10.4992 11.171 11.1703 10.4998 11.9991 10.4998C12.827 10.4998 13.499 11.1717 13.499 11.9997C13.4989 12.8284 12.827 13.4996 11.9991 13.4996Z" fill="#0092C9"/>
</svg>
