<svg width="24" height="24" viewBox="0 0 24 24" fill="none" xmlns="http://www.w3.org/2000/svg">
<path fill-rule="evenodd" clip-rule="evenodd" d="M12.2766 7.52104L12.6849 6.95337C12.1849 6.43433 11.6982 5.92886 11.2118 5.42372L11.1444 5.3538C10.9481 5.14985 10.7519 4.94574 10.5558 4.74162L10.5556 4.74141C10.051 4.21635 9.54641 3.69128 9.03887 3.16917C8.80168 2.92534 8.52655 2.94495 8.41681 3.22767C8.19797 3.79176 7.9905 4.36006 7.78054 4.93514L7.78053 4.93517L7.78046 4.93537C7.69735 5.16302 7.61385 5.39173 7.52911 5.62166L7.55468 5.63284C7.76033 5.72269 7.94885 5.80506 8.15749 5.89648L8.41378 5.20851L8.81022 4.14416C8.98225 4.30094 9.15766 4.45836 9.33455 4.6171L9.33456 4.61711L9.33458 4.61713C9.74853 4.98862 10.1706 5.36744 10.5768 5.7627C10.9776 6.15283 11.3627 6.55924 11.7537 6.97191L11.7537 6.97191C11.9262 7.15402 12.0999 7.33735 12.2766 7.52104ZM6.38313 12.4539C5.55835 11.5608 4.97488 10.5909 4.75382 9.43154C4.53561 8.28736 4.66085 7.17101 5.06469 6.08534C5.2263 5.65145 5.61907 5.52084 6.07795 5.72608C7.38532 6.31012 8.69229 6.89497 9.9993 7.47984L12.0784 8.41007C12.144 8.4395 12.2101 8.46818 12.2847 8.50057L12.3915 8.547L12.6317 8.20964L12.6343 8.20593L12.6393 8.1989C12.9149 7.81187 13.1907 7.42456 13.4661 7.03724C13.9275 6.38862 14.4958 5.8608 15.2153 5.50977C16.1798 5.0392 17.1134 5.10592 18.0254 5.70395L18.1863 5.57217L18.1865 5.57196L18.1875 5.57119L18.1878 5.57094C18.3247 5.45868 18.461 5.34697 18.5978 5.23559C18.8268 5.049 19.0814 5.00599 19.3458 5.13755C19.607 5.26753 19.7369 5.4908 19.7351 5.78649C19.7342 5.89012 19.7344 5.9939 19.7346 6.10784L19.7347 6.26971C19.7781 6.26971 19.8184 6.26935 19.8568 6.26901L19.8568 6.269C19.9319 6.26833 19.9994 6.26773 20.0668 6.27003C20.6107 6.28932 20.9842 6.84528 20.6699 7.27284C20.1599 7.96674 20.0667 8.74777 19.9711 9.54821L19.9571 9.66525C19.9142 10.0199 19.8356 10.3702 19.7548 10.7298L19.7548 10.73L19.7548 10.7302C19.7182 10.8932 19.6811 11.0581 19.6468 11.2262C19.3998 11.1611 19.2019 11.1089 18.9745 11.0491C19.002 10.9193 19.0305 10.7905 19.059 10.6623L19.0591 10.662L19.0591 10.6617L19.0592 10.6614C19.1236 10.3713 19.1872 10.0842 19.2363 9.79491C19.3046 9.39138 19.3704 8.98342 19.3837 8.57578C19.3951 8.23835 19.4694 7.94329 19.6579 7.66531C19.7551 7.52173 19.8401 7.36978 19.9331 7.20364C19.9765 7.12606 20.0217 7.04539 20.0706 6.96103H19.0545V5.75581C18.6892 6.05656 18.3701 6.31936 18.0403 6.59133C18.0075 6.56546 17.9751 6.53963 17.9429 6.51394L17.9429 6.51392C17.8708 6.4564 17.7997 6.39963 17.7269 6.34498C17.0267 5.82032 16.282 5.74601 15.4973 6.13436C14.93 6.4155 14.4714 6.82978 14.1014 7.33831C13.7547 7.81448 13.4144 8.29533 13.0688 8.78371L13.0687 8.78382L13.0687 8.78383L13.0687 8.7839L13.0684 8.7843L13.0678 8.78518L13.0665 8.787C12.9207 8.99295 12.774 9.20024 12.6255 9.40909L11.4284 8.87424L11.4257 8.87303L11.4206 8.87076L11.419 8.87002C10.6723 8.53644 9.92782 8.20385 9.18349 7.87087C8.27827 7.4658 7.37324 7.06015 6.435 6.6396L5.67537 6.29912C5.64116 6.45636 5.60244 6.61059 5.56416 6.76309L5.56416 6.76309L5.56416 6.7631L5.56416 6.7631L5.56416 6.76311L5.56416 6.76311L5.56416 6.76312L5.56415 6.76312C5.4821 7.09 5.40204 7.4089 5.37272 7.73235C5.18708 9.77024 5.93342 11.4078 7.64716 12.5266C8.12027 12.8353 8.74106 12.9609 9.31346 13.0608C9.70457 13.129 10.1127 13.1086 10.5183 13.0884L10.5185 13.0884C10.6281 13.0829 10.7375 13.0775 10.8463 13.0738C11.0949 13.0655 11.2622 13.1342 11.3052 13.3865C11.3431 13.6092 11.2043 13.7505 10.9254 13.7834C9.59492 13.9403 8.32836 13.7568 7.15097 13.0804C7.06052 13.0285 6.90841 13.0099 6.8148 13.0485C5.34236 13.6547 3.7937 13.9469 2.22986 14.179C2.17388 14.1873 2.11791 14.1986 2.06351 14.2138C2.0541 14.2167 2.04726 14.2291 2.04048 14.2414C2.03747 14.2468 2.03447 14.2523 2.03126 14.2568C3.17733 14.4978 3.48979 14.9165 3.59067 16.3814L3.6692 16.3452C3.73118 16.3168 3.78869 16.2904 3.84525 16.2621C4.05379 16.1577 4.26241 16.0534 4.47103 15.9492C5.16627 15.6017 5.86145 15.2543 6.55327 14.9001C6.71993 14.8147 6.85496 14.7992 7.03238 14.8802C8.4868 15.5443 9.99339 16.0392 11.5847 16.2511C11.6032 16.2535 11.6205 16.2634 11.6362 16.2724L11.6362 16.2724C11.6429 16.2762 11.6492 16.2799 11.6553 16.2827C11.6591 16.2908 11.6636 16.2981 11.6676 16.3049C11.6756 16.3181 11.6824 16.3293 11.6815 16.3399C11.672 16.4985 11.6607 16.6566 11.6467 16.8524L11.6467 16.8527L11.6467 16.8529L11.6382 16.9715C11.4707 16.9394 11.3034 16.9119 11.1372 16.8847L11.1372 16.8847L11.1372 16.8847L11.1372 16.8847L11.1371 16.8847L11.1371 16.8847L11.1371 16.8847L11.1371 16.8847C10.7732 16.825 10.4146 16.7662 10.0702 16.6609C9.43939 16.4679 8.8151 16.2535 8.19078 16.039L8.19076 16.039L8.19073 16.039L8.19071 16.039L8.19068 16.039L8.19065 16.039L8.19063 16.0389L8.1906 16.0389C7.79813 15.9041 7.40564 15.7693 7.01151 15.6398C6.89386 15.6012 6.73036 15.5974 6.62284 15.6496C6.01615 15.9436 5.41348 16.2464 4.81085 16.5492L4.81058 16.5493L4.81038 16.5494L4.81037 16.5494L4.81035 16.5494L4.81034 16.5494L4.81033 16.5495L4.81032 16.5495L4.81031 16.5495C4.53607 16.6873 4.26184 16.825 3.98724 16.962C3.32597 17.2918 2.84622 16.9734 2.88449 16.2327C2.9294 15.3643 2.58406 14.9788 1.71564 14.9292C1.2827 14.9045 1.01105 14.6537 1.00029 14.2688C0.989858 13.8913 1.25772 13.5987 1.6739 13.5538C3.10713 13.3989 4.5081 13.0927 5.88124 12.6579C5.9889 12.6238 6.09288 12.5786 6.20624 12.5293L6.20627 12.5293C6.2624 12.5049 6.32082 12.4795 6.38313 12.4539ZM17.6673 21.5667C20.2157 21.5673 22.3045 19.4915 22.3143 16.9577C22.3241 14.3983 20.2644 12.2836 17.6787 12.2905C15.0577 12.2975 13.0331 14.411 13.0315 16.9198C13.0299 19.481 15.1111 21.566 17.6673 21.5667ZM17.6651 22.2533C14.707 22.2495 12.3402 19.8589 12.3449 16.8796C12.3493 13.9704 14.7576 11.5919 17.6917 11.5983C20.6309 11.6043 23.0094 14.0027 23.0002 16.9504C22.991 19.8798 20.5993 22.2574 17.6651 22.2533ZM18.5171 17.2987C18.6502 17.4179 18.7641 17.5312 18.9146 17.7089C19.0515 17.8699 19.0506 18.0454 18.8925 18.1918C18.7445 18.3287 18.5705 18.3237 18.4304 18.1858C18.0908 17.8518 17.7568 17.5115 17.4352 17.1605C17.3672 17.0862 17.3337 16.9553 17.3321 16.8496C17.3285 16.5812 17.3324 16.3125 17.3363 16.0438V16.0438V16.0438V16.0437V16.0437V16.0437C17.3389 15.8645 17.3415 15.6853 17.3419 15.5062C17.3426 15.2709 17.4403 15.1169 17.6813 15.0954C17.7372 15.0904 17.7881 15.0992 17.8327 15.1201C17.9431 15.172 17.9946 15.3108 18.0288 15.522C18.0579 15.701 18.0554 15.8122 18.0518 15.9694V15.9694V15.9695V15.9696V15.9697V15.9697V15.9698C18.0502 16.0397 18.0484 16.1187 18.049 16.2168C18.0516 16.5707 18.0544 16.7503 18.1268 16.8898C18.1836 16.9998 18.2941 17.0989 18.5151 17.2969L18.5171 17.2987ZM14.2952 17.2698C14.3343 17.2689 14.3734 17.268 14.4124 17.2681C14.4466 17.2682 14.4808 17.2689 14.515 17.2695C14.5947 17.2712 14.6743 17.2728 14.7533 17.2668C14.9643 17.251 15.0889 17.1318 15.0879 16.9202C15.0873 16.721 14.9639 16.5995 14.7691 16.5881C14.5237 16.5736 14.2758 16.5717 14.0307 16.5897C13.8365 16.6039 13.7192 16.732 13.7239 16.9319C13.7287 17.1296 13.8476 17.2456 14.043 17.2655C14.1264 17.2737 14.2109 17.2718 14.2952 17.2698ZM20.8266 17.2695H20.8266C20.7404 17.2721 20.6541 17.2748 20.5694 17.2646C20.3759 17.2415 20.2554 17.1261 20.2557 16.9266C20.256 16.7276 20.374 16.6021 20.5688 16.5891C20.8139 16.573 21.0618 16.5739 21.3072 16.5888C21.5039 16.6005 21.6193 16.7283 21.6197 16.9256C21.6203 17.1236 21.5036 17.2428 21.3075 17.2646C21.2246 17.2737 21.1404 17.2714 21.0563 17.2692H21.0563H21.0563H21.0562C21.0169 17.2681 20.9776 17.267 20.9385 17.2671C20.9013 17.2672 20.864 17.2684 20.8267 17.2695H20.8267H20.8266ZM17.3291 20.0811L17.3292 20.0813C17.3301 20.1194 17.3311 20.1574 17.3311 20.1954C17.3311 20.2335 17.33 20.2717 17.3288 20.3098L17.3288 20.31C17.3263 20.3955 17.3237 20.4809 17.334 20.5648C17.3574 20.7593 17.476 20.8763 17.6755 20.8741C17.8741 20.8722 17.9984 20.7549 18.0101 20.5588C18.0247 20.3134 18.0259 20.0655 18.0089 19.82C17.9956 19.6252 17.8678 19.5079 17.6692 19.5098C17.4709 19.5114 17.3542 19.6309 17.3337 19.8261C17.3247 19.9103 17.3269 19.9957 17.3291 20.0811ZM17.3311 13.6505C17.3311 13.6125 17.3301 13.5743 17.3291 13.5362C17.3269 13.4507 17.3247 13.3653 17.3337 13.2811C17.3542 13.086 17.4709 12.9665 17.6692 12.9649C17.8678 12.963 17.9956 13.0803 18.0089 13.2751C18.0259 13.5205 18.0247 13.7685 18.0101 14.0139C17.9984 14.21 17.8741 14.3273 17.6755 14.3292C17.476 14.3314 17.3574 14.2144 17.334 14.0199C17.3237 13.936 17.3263 13.8506 17.3288 13.7651L17.3288 13.7649C17.33 13.7268 17.3311 13.6886 17.3311 13.6505ZM16.5911 7.74902C16.8649 7.74902 17.0869 7.52701 17.0869 7.25314C17.0869 6.97927 16.8649 6.75727 16.5911 6.75727C16.3169 6.75727 16.0949 6.97927 16.0949 7.25314C16.0949 7.52701 16.3169 7.74902 16.5911 7.74902Z" fill="#0C1E3C"/>
</svg>
