<svg width="24" height="24" viewBox="0 0 24 24" fill="none" xmlns="http://www.w3.org/2000/svg">
<path fill-rule="evenodd" clip-rule="evenodd" d="M22.6151 5.27779V0.678627C22.6151 0.462728 22.5096 0.25687 22.3389 0.131347C22.1632 0.00582379 21.9372 -0.0343436 21.7314 0.0309284L8.02929 4.38407C7.74812 4.47444 7.55732 4.73553 7.55732 5.03177V9.63595V9.64097V18.4426C6.83933 17.9456 5.9205 17.6744 4.95649 17.6744C3.93724 17.6744 2.9682 17.9807 2.23013 18.533C1.43682 19.1305 1 19.9389 1 20.8175C1 21.6962 1.43682 22.5046 2.23013 23.1021C2.9682 23.6544 3.93222 23.9606 4.95649 23.9606C5.98075 23.9606 6.94477 23.6544 7.68285 23.1021C8.47615 22.5046 8.91297 21.6962 8.91297 20.8175V10.133L21.2594 6.20666V14.0694C20.5414 13.5724 19.6226 13.3012 18.6586 13.3012C17.6393 13.3012 16.6703 13.6075 15.9322 14.1598C15.1389 14.7573 14.7021 15.5657 14.7021 16.4443C14.7021 17.323 15.1389 18.1313 15.9322 18.7288C16.6703 19.2811 17.6343 19.5874 18.6586 19.5874C19.6828 19.5874 20.6469 19.2811 21.3849 18.7288C22.1782 18.1313 22.6151 17.323 22.6151 16.4443V5.28281C22.6151 5.27779 22.6151 5.27779 22.6151 5.27779ZM4.95649 22.605C3.54561 22.605 2.35565 21.7866 2.35565 20.8175C2.35565 19.8485 3.54561 19.0301 4.95649 19.0301C6.36736 19.0301 7.55732 19.8485 7.55732 20.8175C7.55732 21.7916 6.36736 22.605 4.95649 22.605ZM8.91297 8.70708V5.52382L21.2594 1.60248V4.78574L8.91297 8.70708ZM18.6636 18.2318C17.2527 18.2318 16.0628 17.4134 16.0628 16.4443C16.0628 15.4753 17.2527 14.6569 18.6636 14.6569C20.0745 14.6569 21.2644 15.4753 21.2644 16.4443C21.2594 17.4134 20.0695 18.2318 18.6636 18.2318Z" fill="#0092C9"/>
</svg>
