<svg width="24" height="24" viewBox="0 0 24 24" fill="none" xmlns="http://www.w3.org/2000/svg">
<path fill-rule="evenodd" clip-rule="evenodd" d="M16.5781 4.57031L18.1953 2.25L18.1719 5.10938L20.75 6L18.1719 6.89062V9.75L16.5781 7.42969L14 8.29688L15.5938 6L14.0234 3.65625L16.5781 4.57031ZM11.2109 5.95312L9.96875 6C5.96094 6.14355 2.75 9.43359 2.75 13.4766C2.75 17.6104 6.11621 20.9766 10.25 20.9766C14.293 20.9766 17.583 17.7656 17.7266 13.7578L17.7734 12.5391L16.6719 13.0547C16.0859 13.333 15.4355 13.4766 14.75 13.4766C12.2568 13.4766 10.25 11.4697 10.25 8.97656C10.25 8.29102 10.417 7.66406 10.6953 7.07812L11.2109 5.95312ZM9.03125 7.73438C8.99982 7.87385 8.95785 8.00938 8.91594 8.14471C8.83285 8.41302 8.75 8.68055 8.75 8.97656C8.75 12.2812 11.4453 14.9766 14.75 14.9766C15.0558 14.9766 15.331 14.8929 15.6079 14.8087C15.7422 14.7678 15.8769 14.7269 16.0156 14.6953C15.4443 17.4141 13.1445 19.4766 10.25 19.4766C6.92773 19.4766 4.25 16.7988 4.25 13.4766C4.25 10.5879 6.31836 8.31152 9.03125 7.73438Z" fill="#0C1E3C"/>
</svg>
