<svg width="24" height="24" viewBox="0 0 24 24" fill="none" xmlns="http://www.w3.org/2000/svg">
<path fill-rule="evenodd" clip-rule="evenodd" d="M2 12C2 6.48568 6.48568 2 12 2C17.5143 2 22 6.48568 22 12C22 17.5143 17.5143 22 12 22C6.48568 22 2 17.5143 2 12ZM20.3333 12C20.3333 7.38737 16.6126 3.66667 12 3.66667C7.38737 3.66667 3.66667 7.38737 3.66667 12C3.66667 16.6126 7.38737 20.3333 12 20.3333C16.6126 20.3333 20.3333 16.6126 20.3333 12ZM8.66667 16.1667H10.3333V7.83333H8.66667V16.1667ZM15.3333 16.1667H13.6667V7.83333H15.3333V16.1667Z" fill="#0C1E3C"/>
</svg>
