<svg width="24" height="24" viewBox="0 0 24 24" fill="none" xmlns="http://www.w3.org/2000/svg">
<path fill-rule="evenodd" clip-rule="evenodd" d="M2.67579 19.4265H21.3674L21.376 19.422L21.3914 19.4133C21.4083 19.4036 21.4254 19.3938 21.4435 19.3892C21.7198 19.3189 21.8643 19.1361 21.8361 18.8908C21.81 18.6586 21.6243 18.4943 21.3572 18.4875C21.1343 18.4817 20.9115 18.4829 20.6886 18.4841C20.5964 18.4846 20.5042 18.4851 20.4119 18.4851C20.0413 18.4848 19.6707 18.4849 19.2819 18.485H19.2814H19.2809H19.2804H19.2798H19.2765L18.6518 18.4851C18.6889 18.4557 18.7204 18.4302 18.7484 18.4075C18.7983 18.367 18.8373 18.3354 18.8777 18.3062C19.6964 17.7114 20.4633 17.0604 21.1347 16.2989C21.7334 15.6197 22.1609 14.8412 22.4973 14.0084C22.6035 13.7457 22.5085 13.4931 22.2821 13.3894C22.0412 13.2784 21.8008 13.3739 21.6636 13.6439C21.5916 13.7854 21.5234 13.9291 21.4552 14.0728C21.3274 14.3421 21.1996 14.6113 21.047 14.8654C20.4507 15.8577 19.5917 16.6047 18.6862 17.3013C18.4434 17.4882 18.1925 17.6648 17.9267 17.8518L17.9265 17.852L17.9261 17.8522L17.9251 17.8529C17.7971 17.943 17.6657 18.0354 17.5301 18.1327C17.546 17.9404 17.5598 17.7538 17.5732 17.5712C17.6031 17.165 17.6316 16.7788 17.6794 16.3948C17.7797 15.5868 17.9193 14.7816 18.2344 14.0263C18.7754 12.7291 19.5568 11.6069 20.7474 10.8187C20.9602 10.6781 21.2254 10.5933 21.4784 10.5429C21.7416 10.4901 21.9069 10.619 22.0097 10.872C22.0333 10.9308 22.0502 10.9924 22.0671 11.054L22.0671 11.054L22.0671 11.054L22.0671 11.0541L22.0671 11.0541L22.0671 11.0541C22.0805 11.1027 22.0938 11.1513 22.1105 11.1988C22.1963 11.4407 22.4232 11.572 22.6481 11.5158C22.8779 11.4581 23.034 11.2409 22.9942 10.9947C22.8372 10.0247 22.1013 9.411 21.1095 9.66792C20.2718 9.8846 19.6431 10.4212 19.0701 11.032C18.4652 11.6767 17.9785 12.4068 17.5771 13.2003C17.4768 12.8838 17.5315 12.5537 17.7128 12.3069C18.1709 11.683 18.3808 10.968 18.4356 10.2089C18.457 9.91082 18.4613 9.61172 18.4655 9.31251V9.3124V9.31231C18.4685 9.10408 18.4714 8.89579 18.4802 8.68775C18.4836 8.60873 18.5326 8.51178 18.5917 8.45749C19.3838 7.73278 19.6698 6.84035 19.3721 5.81753C19.0842 4.82863 18.3866 4.20766 17.3677 4.03994C16.3526 3.8727 15.5091 4.23384 14.8901 5.0647C14.7873 5.20286 14.7049 5.23243 14.5392 5.19219C12.8551 4.78161 11.1687 4.78064 9.4856 5.19704C9.32321 5.23728 9.24468 5.19801 9.15452 5.06713C8.54567 4.18391 7.3808 3.79174 6.34246 4.10974C5.31333 4.42483 4.58475 5.39191 4.56536 6.46516C4.5513 7.26451 4.85476 7.92038 5.44422 8.45604C5.51063 8.51663 5.55765 8.63491 5.55813 8.72653L5.55883 8.89388V8.89389C5.56139 9.59576 5.56396 10.2971 5.72877 10.9864C5.84414 11.4707 6.0201 11.937 6.3444 12.3156C6.52345 12.5244 6.50332 12.7454 6.48257 12.9731C6.47557 13.0499 6.46849 13.1275 6.46898 13.2056L6.43933 13.1492C6.41245 13.0979 6.38549 13.0464 6.35749 12.9957C5.76512 11.9123 5.0472 10.9317 4.03262 10.1992C3.64772 9.92096 3.23277 9.69991 2.75141 9.63496C1.96757 9.52928 1.36066 9.91708 1.12894 10.6752C1.09617 10.7827 1.06716 10.8913 1.03815 11L1.03815 11L1.03813 11L1.03813 11C1.02553 11.0472 1.01292 11.0944 1 11.1416V12.0432C1.02938 12.1722 1.05654 12.3019 1.0837 12.4316C1.14259 12.7127 1.20149 12.994 1.2831 13.2687C1.79887 15.0075 2.79165 16.4273 4.20373 17.5592C4.46159 17.7659 4.72246 17.9689 4.99985 18.1848L5.00026 18.1851L5.00076 18.1855C5.12513 18.2823 5.25283 18.3816 5.38508 18.4851H5.14706C4.90047 18.4851 4.65382 18.4849 4.40716 18.4847H4.40711H4.40706H4.407H4.40695H4.4069H4.40684C3.85162 18.4843 3.29631 18.4839 2.74123 18.4856C2.36846 18.487 2.14547 18.7255 2.20994 19.045C2.26133 19.2975 2.46783 19.363 2.67579 19.4265ZM12.4243 9.86488L12.4243 9.86488L12.4243 9.86489C12.7139 9.92044 13.0057 9.97641 13.2895 10.0601C13.7471 10.1948 14.2018 10.2831 14.6807 10.2506C15.6696 10.1842 16.5737 9.84631 17.4472 9.40761C17.4961 9.38288 17.5446 9.30338 17.5461 9.24812C17.5469 9.21427 17.5479 9.18029 17.549 9.14625L17.549 9.14614L17.549 9.14601L17.549 9.14588V9.14585C17.5551 8.9436 17.5613 8.73888 17.5281 8.54232C17.4758 8.23693 17.5815 8.04448 17.8292 7.87579C18.3634 7.51222 18.613 7.0042 18.5418 6.35172C18.4642 5.64108 17.9373 5.07198 17.2402 4.94885C16.5203 4.82184 15.8257 5.16456 15.5038 5.80589C15.2711 6.2698 15.165 6.31488 14.656 6.17236C12.9002 5.68083 11.1444 5.68034 9.38865 6.1714C8.87191 6.31585 8.77447 6.27368 8.52773 5.79086C8.16707 5.08409 7.35075 4.75543 6.57611 5.00508C5.85674 5.23728 5.38508 6.00173 5.49657 6.7531C5.5688 7.24076 5.81311 7.61935 6.22467 7.88791C6.41663 8.01297 6.54654 8.16228 6.52764 8.41047C6.5168 8.55408 6.51115 8.69812 6.5055 8.8422L6.5055 8.84223V8.84224C6.50079 8.96223 6.49608 9.08225 6.48837 9.20207C6.4811 9.31599 6.51358 9.38531 6.6275 9.42942C6.80714 9.49893 6.98521 9.5732 7.16321 9.64745C7.49919 9.78758 7.83495 9.92763 8.18065 10.0354C9.06435 10.3112 9.95436 10.3548 10.8521 10.031C11.1045 9.9397 11.375 9.89829 11.6536 9.85562C11.7833 9.83576 11.9148 9.81563 12.047 9.79008C12.1718 9.81644 12.2977 9.8406 12.4241 9.86484L12.4241 9.86485L12.4242 9.86486L12.4242 9.86486L12.4242 9.86487L12.4243 9.86487L12.4243 9.86488ZM6.6174 10.7441L6.6174 10.7441L6.61741 10.7441L6.61741 10.7441L6.61742 10.7442L6.61742 10.7442C6.6837 10.9592 6.74438 11.1561 6.8277 11.3427C7.20193 12.1833 7.92179 12.6181 8.75023 12.8998C9.86226 13.2779 11.0169 13.3443 12.1803 13.3346C13.271 13.3249 14.352 13.2386 15.3884 12.8654C16.1863 12.5779 16.8616 12.1339 17.2252 11.3282C17.3488 11.0538 17.4559 10.7712 17.4627 10.4532C17.3237 10.5024 17.1878 10.5524 17.0538 10.6017L17.0537 10.6017L17.0535 10.6018C16.7677 10.707 16.4901 10.8091 16.2077 10.8939C15.1989 11.1973 14.177 11.3326 13.1547 10.9671C12.3796 10.6903 11.6268 10.7164 10.8478 10.97C10.4406 11.1028 9.99556 11.1532 9.5651 11.1692C8.88112 11.1944 8.217 11.0335 7.57083 10.8153C7.34848 10.7402 7.12921 10.6563 6.88695 10.5637L6.88693 10.5636L6.88677 10.5636L6.88663 10.5635C6.76931 10.5186 6.64659 10.4717 6.51552 10.4227C6.55281 10.5345 6.58574 10.6414 6.6174 10.7441L6.6174 10.7441ZM6.46245 17.4788L6.46246 17.4789L6.46246 17.4789C6.4813 17.6918 6.50053 17.909 6.52231 18.1322C5.14512 17.1908 3.85132 16.2615 3.00203 14.8727C2.3893 13.8712 1.95109 12.7931 1.92976 11.5943C1.92539 11.3427 1.97629 11.0819 2.05143 10.8405C2.12608 10.6001 2.30011 10.5177 2.55654 10.5361C2.93659 10.5633 3.24683 10.7586 3.54156 10.9753C4.19598 11.4567 4.69333 12.0805 5.14609 12.7476C5.84608 13.7791 6.16311 14.942 6.3255 16.1549C6.38362 16.5881 6.42216 17.0236 6.46244 17.4787L6.46244 17.4787L6.46244 17.4787L6.46244 17.4787L6.46244 17.4787L6.46245 17.4788L6.46245 17.4788L6.46245 17.4788L6.46245 17.4788L6.46245 17.4788L6.46245 17.4788ZM16.3268 13.458L16.3267 13.4581C16.1141 13.5527 15.909 13.644 15.6992 13.7224C15.5508 13.7777 15.513 13.8557 15.5135 14.005C15.5176 15.0891 15.5171 16.1731 15.5167 17.2569L15.5164 18.2728V18.4701H16.6013V13.337C16.5084 13.3772 16.4177 13.4176 16.3284 13.4574L16.3281 13.4575L16.3278 13.4576L16.3272 13.4579L16.3268 13.458ZM7.44915 13.3457V18.4725H8.58687C8.59043 18.4632 8.59392 18.4557 8.59692 18.4492C8.60209 18.438 8.60578 18.4301 8.60578 18.4221C8.60771 16.9286 8.60965 15.4345 8.60626 13.9405C8.60626 13.8925 8.56166 13.8189 8.519 13.7995C8.25388 13.6821 7.98627 13.5703 7.71384 13.4565L7.71382 13.4565L7.71374 13.4565L7.71367 13.4565C7.62602 13.4198 7.53788 13.383 7.44915 13.3457ZM14.5736 18.471H9.55104V14.0622C11.2307 14.3298 12.8958 14.323 14.5736 14.0486V18.471ZM15.5648 6.41081C15.5576 6.12723 15.703 5.9343 15.9454 5.90522C16.2236 5.87128 16.4083 6.01865 16.4665 6.31968L16.4704 6.33978C16.4802 6.38929 16.4898 6.43861 16.5048 6.48644C16.5712 6.69391 16.7171 6.80201 16.9328 6.81074C17.148 6.81898 17.3201 6.69682 17.3861 6.48983C17.3999 6.44651 17.4085 6.40153 17.4171 6.35645L17.4171 6.3564L17.4171 6.35636C17.4233 6.32429 17.4294 6.29216 17.4374 6.26054C17.5068 5.99684 17.7041 5.86547 17.9644 5.90716C18.1854 5.94206 18.3391 6.14178 18.3338 6.38609C18.3182 7.12292 17.6881 7.73904 16.9478 7.74195C16.2159 7.74437 15.5837 7.13552 15.5648 6.41081ZM7.08763 7.7417C7.81427 7.75091 8.45996 7.13528 8.47741 6.41687C8.48468 6.12311 8.33247 5.92679 8.07992 5.90352C7.81185 5.8788 7.63249 6.02519 7.57626 6.31411C7.56656 6.36307 7.5559 6.41154 7.54232 6.45953C7.48028 6.68543 7.31691 6.81243 7.09296 6.81146C6.87482 6.81098 6.69837 6.67331 6.64068 6.45565C6.63204 6.42271 6.62599 6.38899 6.61992 6.35518C6.61339 6.31883 6.60685 6.28239 6.59706 6.24673C6.52919 5.99999 6.35226 5.87831 6.10406 5.90401C5.87817 5.92776 5.7119 6.11681 5.70463 6.3587C5.6833 7.07759 6.33868 7.73249 7.08763 7.7417ZM13.0292 7.13174C13.2925 7.13222 13.4907 7.34891 13.4941 7.63928C13.4975 7.93207 13.2818 8.16766 13.0181 8.1599C12.7578 8.15214 12.5624 7.92722 12.5653 7.63928C12.5687 7.34697 12.766 7.13125 13.0292 7.13174ZM10.8411 8.15908C11.1072 8.15084 11.2963 7.93027 11.2904 7.63409C11.2846 7.33645 11.0864 7.12413 10.8202 7.12995C10.5555 7.13625 10.366 7.35778 10.3709 7.65493C10.3752 7.94821 10.5793 8.16683 10.8411 8.15908Z" fill="#0C1E3C"/>
</svg>
