<svg width="24" height="24" viewBox="0 0 24 24" fill="none" xmlns="http://www.w3.org/2000/svg">
<path fill-rule="evenodd" clip-rule="evenodd" d="M12 2C6.48568 2 2 6.48568 2 12C2 17.5143 6.48568 22 12 22C17.5143 22 22 17.5143 22 12C22 6.48568 17.5143 2 12 2ZM12 3.66667C16.6126 3.66667 20.3333 7.38737 20.3333 12C20.3333 16.6126 16.6126 20.3333 12 20.3333C7.38737 20.3333 3.66667 16.6126 3.66667 12C3.66667 7.38737 7.38737 3.66667 12 3.66667ZM11.3412 7.84218C10.6887 7.30537 9.70584 7.76951 9.70584 8.61441V15.3856C9.70584 16.2305 10.6887 16.6946 11.3412 16.1578L15.4562 12.7722C15.9424 12.3722 15.9424 11.6278 15.4562 11.2278L11.3412 7.84218ZM10.7058 8.61441L14.8208 12L10.7058 15.3856V8.61441Z" fill="#0C1E3C"/>
</svg>
