<svg width="24" height="24" viewBox="0 0 24 24" fill="none" xmlns="http://www.w3.org/2000/svg">
<path fill-rule="evenodd" clip-rule="evenodd" d="M11.9872 16.7649V16.4182C12.8982 16.2763 13.6305 16.5733 14.2295 17.1751C14.5672 17.5149 14.883 17.8763 15.1988 18.2378C15.3756 18.4401 15.5523 18.6424 15.7328 18.8409C15.9426 19.0711 16.149 19.305 16.3555 19.5389C16.8669 20.1184 17.3785 20.6981 17.941 21.2228C19.1784 22.3778 20.6698 22.9928 22.3854 22.9982C22.8098 22.9994 22.9963 22.8132 22.9981 22.3838C23.0005 21.7042 23.0005 21.024 22.9981 20.3438C22.9963 19.9546 22.8391 19.7953 22.4464 19.7414C22.3799 19.7324 22.3132 19.7239 22.2464 19.7154C21.9635 19.6794 21.6794 19.6433 21.4087 19.5648C20.4761 19.2947 19.7576 18.6882 19.121 17.9888C18.2971 17.0838 17.4933 16.1602 16.6898 15.2369C16.6177 15.154 16.5456 15.0712 16.4735 14.9883C16.4101 14.9153 16.3898 14.7853 16.3892 14.6811C16.3855 14.3333 16.3857 13.9854 16.386 13.6376C16.3862 13.2537 16.3864 12.8699 16.3814 12.486C16.3719 11.7549 16.0927 11.1298 15.5774 10.6154C14.9958 10.0346 14.2797 9.8005 13.4667 9.82265C13.0788 9.83341 13.0788 9.82567 13.0788 9.43167V9.42985C13.0788 8.99925 13.0786 8.56866 13.0785 8.13814C13.0783 7.70776 13.0782 7.27747 13.0782 6.84732C13.0782 6.6578 13.0782 6.56364 13.1252 6.51634C13.1723 6.46904 13.2665 6.46859 13.4548 6.4665C13.4852 6.46607 13.5172 6.46723 13.5496 6.46841C13.6535 6.47218 13.7612 6.4761 13.8314 6.42817C13.9676 6.33476 14.1075 6.19046 14.1565 6.03837C14.2408 5.7779 14.0794 5.58928 13.8672 5.4354C12.5271 4.46399 11.1887 3.4906 9.85023 2.51717C9.23997 2.07335 8.6297 1.62952 8.01926 1.18587C7.67554 0.935576 7.51056 0.937971 7.15967 1.19365C5.63476 2.30139 4.11105 3.40973 2.58674 4.51867C2.51797 4.56863 2.44917 4.61858 2.38038 4.66853C1.99656 4.94723 1.61271 5.22595 1.23101 5.50725C1.0194 5.66353 0.948263 5.8773 1.03733 6.1228C1.12221 6.35632 1.30334 6.47368 1.55739 6.46769C1.58884 6.46704 1.62045 6.46822 1.65202 6.4694C1.70685 6.47145 1.76154 6.4735 1.81503 6.4659C2.04636 6.43236 2.10255 6.52937 2.10136 6.75391C2.09418 8.03243 2.09508 9.31061 2.09598 10.589C2.09628 11.0151 2.09657 11.4413 2.09657 11.8675C2.09657 12.1925 2.0965 12.5175 2.09642 12.8424C2.0962 13.8174 2.09598 14.7924 2.09777 15.7673C2.09837 16.1841 2.29982 16.3805 2.71586 16.3871C2.73706 16.3874 2.75831 16.3882 2.77955 16.3891C2.83616 16.3914 2.89275 16.3937 2.94839 16.3859C3.1594 16.3571 3.21679 16.4577 3.21261 16.6523C3.20609 16.965 3.20715 17.278 3.20822 17.591C3.20862 17.7084 3.20902 17.8259 3.20902 17.9433C3.20902 18.3401 3.20889 18.7369 3.20875 19.1337C3.2084 20.1919 3.20804 21.25 3.21022 22.3078C3.21022 22.4353 3.21619 22.5701 3.25684 22.688C3.33336 22.909 3.58262 23.0305 3.82472 22.9934C4.05008 22.9593 4.23718 22.7802 4.24615 22.5395C4.26348 22.0581 4.27065 21.5755 4.25631 21.0941C4.24854 20.8492 4.33641 20.7845 4.56775 20.7923C4.86793 20.8027 5.1687 20.8003 5.46943 20.7979C5.59929 20.7969 5.72913 20.7959 5.85892 20.7959C6.22866 20.7959 6.59836 20.7961 6.96803 20.7963C8.18279 20.7971 9.39728 20.7978 10.6118 20.7905C10.8581 20.7893 10.9411 20.8629 10.931 21.1132C10.913 21.5773 10.9208 22.0431 10.931 22.5078C10.9364 22.7676 11.1318 22.9658 11.3781 22.9946C11.6393 23.0257 11.8641 22.8952 11.9418 22.6467C11.9771 22.5347 11.9848 22.4102 11.9848 22.2916C11.9869 21.002 11.987 19.7127 11.987 18.4232C11.987 17.8705 11.9871 17.3177 11.9872 16.7649ZM3.19946 5.38929H11.9544C11.9291 5.36614 11.9088 5.34676 11.8913 5.33013L11.8913 5.33011C11.8596 5.29986 11.8374 5.27871 11.8127 5.26055C11.4588 5.00302 11.1048 4.74565 10.7507 4.48826L10.7504 4.48806L10.7503 4.48799C9.74865 3.75984 8.74679 3.03154 7.74787 2.29899C7.60979 2.1972 7.52371 2.23972 7.41013 2.32295C6.85749 2.72764 6.30316 3.13036 5.74888 3.53304C5.49617 3.71662 5.24348 3.9002 4.99096 4.08395C4.62586 4.34979 4.26076 4.61587 3.87919 4.89396L3.19946 5.38929ZM15.3253 13.6692V13.6691V13.669V13.669V13.6689V13.6689V13.6688V13.6688V13.6687C15.3268 13.4237 15.3282 13.1944 15.3216 12.965C15.3198 12.8993 15.3196 12.8328 15.3194 12.7662C15.3188 12.5465 15.3181 12.3249 15.2594 12.1214C14.9534 11.0621 14.0705 10.8076 13.2079 10.8915C13.1589 10.8963 13.0853 11.0226 13.0847 11.0933C13.0793 11.4238 13.0793 11.7543 13.0794 12.0849C13.0794 12.3741 13.0794 12.6633 13.0758 12.9525C13.0734 13.1285 13.1499 13.1656 13.3089 13.2141C13.8397 13.3752 14.3622 13.5662 14.8834 13.7584C14.9765 13.7927 15.0624 13.8466 15.1616 13.9088C15.2115 13.9401 15.2648 13.9735 15.324 14.0075C15.324 13.8909 15.3247 13.7787 15.3253 13.6696V13.6695V13.6695V13.6694V13.6693V13.6692ZM4.26238 18.8809V18.8809C4.26511 19.0822 4.26768 19.2712 4.25571 19.4594C4.24077 19.6929 4.33342 19.751 4.55459 19.748C5.12613 19.7408 5.69826 19.7423 6.27036 19.7438H6.27072H6.27074H6.27076H6.27078H6.2708H6.27082H6.27084H6.27086C6.50757 19.7444 6.74428 19.745 6.98093 19.745L7.89652 19.7449C8.81279 19.7446 9.72932 19.7444 10.6458 19.7462C10.8216 19.7462 10.9507 19.7265 10.9286 19.4959C10.9113 19.3085 10.9107 19.1163 10.9292 18.9289C10.9543 18.675 10.8766 18.593 10.6058 18.5948C9.05716 18.6044 7.50852 18.6035 5.95988 18.6025C5.49523 18.6022 5.03059 18.6019 4.56595 18.6019H4.2599C4.2599 18.6981 4.26115 18.7907 4.26238 18.8808V18.8808V18.8808V18.8809V18.8809V18.8809V18.8809ZM6.83717 16.3875C7.09511 16.3873 7.35304 16.3871 7.61098 16.3871C7.87343 16.3871 8.13588 16.3876 8.39832 16.388H8.39854H8.39858H8.39861H8.39864H8.39867H8.3987C9.14214 16.3894 9.88549 16.3908 10.6285 16.3811C10.8724 16.3781 10.9471 16.4583 10.9286 16.6906C10.9119 16.8954 10.916 17.1032 10.928 17.3092C10.9388 17.4936 10.8598 17.5433 10.6859 17.5433C8.6224 17.5391 6.55891 17.5385 4.49542 17.5439C4.3113 17.5439 4.25272 17.4738 4.2587 17.3014C4.26647 17.0787 4.26826 16.8541 4.2575 16.6314C4.24914 16.4392 4.32685 16.3817 4.51574 16.3835C5.28955 16.3889 6.06336 16.3882 6.83717 16.3875ZM3.15881 15.3111H12.0022V14.2003C11.9562 14.1983 11.9111 14.1956 11.8667 14.193L11.8667 14.193L11.8667 14.193L11.8667 14.193L11.8666 14.193L11.8666 14.193C11.7807 14.1879 11.6972 14.183 11.6136 14.183C9.30804 14.1818 7.00245 14.1818 4.69686 14.1818C4.2581 14.1818 3.81934 14.1824 3.38058 14.183C3.26282 14.1836 3.15462 14.1901 3.15761 14.3566C3.16132 14.5693 3.16048 14.782 3.1596 15.0043V15.0043V15.0044V15.0044V15.0044V15.0044L3.1596 15.0045C3.15921 15.1045 3.15881 15.2064 3.15881 15.3111ZM13.0779 14.5309L13.0779 14.5306C13.0786 14.4394 13.0794 14.3459 13.0794 14.2494C13.5677 14.2853 13.9676 14.4566 14.352 14.6692C15.101 15.0841 15.6982 15.6787 16.2583 16.3134C16.5175 16.6075 16.7742 16.904 17.0309 17.2006C17.5514 17.802 18.072 18.4035 18.6141 18.9846C19.3015 19.7229 20.1175 20.2959 21.099 20.5935C21.2807 20.649 21.4669 20.6908 21.6548 20.7331L21.655 20.7331C21.7446 20.7532 21.8345 20.7734 21.9245 20.7953V21.9048C21.1516 21.8587 20.4528 21.627 19.7929 21.2635C18.7002 20.6611 17.8782 19.7606 17.0892 18.8211C16.9885 18.7011 16.888 18.5808 16.7875 18.4606C16.292 17.8676 15.7964 17.2745 15.2756 16.705C14.7178 16.0955 14.0615 15.6128 13.236 15.4057C13.1714 15.3895 13.0895 15.2823 13.0859 15.2135C13.0743 14.9915 13.076 14.7687 13.0779 14.5309ZM5.42697 13.1092L5.42695 13.1092C5.40814 13.1024 5.3833 13.0935 5.34843 13.0824C5.35655 12.8074 5.35732 12.5314 5.35809 12.2555C5.35982 11.6372 5.36156 11.0189 5.44587 10.4124C5.5971 9.32626 6.64439 8.61731 7.7927 8.68677C8.82684 8.74904 9.73306 9.63942 9.79343 10.7035C9.82159 11.1992 9.82132 11.6968 9.82105 12.1945C9.82092 12.4362 9.82079 12.678 9.82392 12.9195C9.82571 13.0507 9.79044 13.1327 9.63741 13.1321C8.86866 13.1301 8.09973 13.129 7.33081 13.128H7.33074H7.33067C6.7155 13.1271 6.10035 13.1262 5.48532 13.1249C5.47048 13.1249 5.45585 13.1196 5.42697 13.1092ZM11.992 13.1267C11.9974 13.0975 12.0021 13.0758 12.0058 13.0588C12.0114 13.0326 12.0147 13.0174 12.0147 13.0022L12.0154 11.2755V11.2738C12.016 9.74043 12.0165 8.20705 12.0195 6.67367C12.0201 6.515 11.9657 6.4665 11.8103 6.4665C9.00258 6.46949 6.19547 6.46949 3.38835 6.4665C3.22815 6.4665 3.15582 6.50781 3.15642 6.68325C3.1606 8.75862 3.1606 10.8334 3.15642 12.9088C3.15582 13.0806 3.22337 13.1381 3.38476 13.1333C3.60833 13.1267 3.83309 13.1207 4.05606 13.1327C4.26348 13.1441 4.31788 13.0567 4.31489 12.8597C4.30533 12.1884 4.30712 11.5166 4.3131 10.8448C4.33282 8.75143 6.32996 7.20599 8.36237 7.70896C9.80837 8.06643 10.815 9.28794 10.8646 10.7753C10.8779 11.172 10.8768 11.5691 10.8758 11.9662V11.9663V11.9663C10.875 12.2668 10.8742 12.5672 10.8796 12.8674C10.8808 12.9549 10.9585 13.1117 11.0093 13.1153C11.2515 13.1324 11.4953 13.1303 11.7424 13.1281H11.7424C11.8252 13.1274 11.9084 13.1267 11.992 13.1267Z" fill="#0C1E3C"/>
</svg>
