<svg width="24" height="24" viewBox="0 0 24 24" fill="none" xmlns="http://www.w3.org/2000/svg">
<path fill-rule="evenodd" clip-rule="evenodd" d="M11.8779 0.000518799C5.31861 0.000518799 0 5.31808 0 11.8779C0 18.4377 5.31809 23.7553 11.8779 23.7553C18.4383 23.7553 23.7558 18.4377 23.7558 11.8779C23.7558 5.31808 18.4383 0.000518799 11.8779 0.000518799ZM11.8779 3.552C14.0483 3.552 15.8071 5.3113 15.8071 7.48069C15.8071 9.65061 14.0483 11.4094 11.8779 11.4094C9.70852 11.4094 7.94974 9.65061 7.94974 7.48069C7.94974 5.3113 9.70852 3.552 11.8779 3.552ZM11.8753 20.6499C9.71061 20.6499 7.728 19.8616 6.19878 18.5567C5.82626 18.239 5.6113 17.773 5.6113 17.2842C5.6113 15.084 7.392 13.3231 9.5927 13.3231H14.1642C16.3654 13.3231 18.1393 15.084 18.1393 17.2842C18.1393 17.7736 17.9254 18.2384 17.5523 18.5562C16.0237 19.8616 14.0405 20.6499 11.8753 20.6499Z" fill="#87859A"/>
</svg>
