<svg width="24" height="24" viewBox="0 0 24 24" fill="none" xmlns="http://www.w3.org/2000/svg">
<path d="M12.3344 0.125122C12.4584 0.125122 12.5823 0.125122 12.7059 0.125122C12.7375 0.129567 12.7691 0.1356 12.8007 0.138775C13.0334 0.160684 13.2666 0.179736 13.499 0.204502C13.67 0.222601 13.8401 0.248955 14.0108 0.270546C14.2668 0.303251 14.5232 0.331828 14.7786 0.367708C15.2565 0.434705 15.7199 0.560443 16.1704 0.733809C17.1241 1.10118 17.9539 1.65875 18.6727 2.38555C18.7046 2.41794 18.7369 2.45318 18.7757 2.47509C19.3406 2.79356 19.8641 3.17205 20.3639 3.58419C21.5 4.52119 22.2709 5.69761 22.6626 7.12264C22.6781 7.17884 22.7031 7.23409 22.7321 7.28489C22.9825 7.71831 23.1962 8.16823 23.3545 8.64388C23.6318 9.4761 23.7892 10.3309 23.8227 11.2082C23.8246 11.2561 23.8325 11.3037 23.8376 11.3514C23.8376 11.6162 23.8376 11.8813 23.8376 12.1461C23.8322 12.1941 23.8233 12.242 23.8224 12.29C23.8145 12.6504 23.7661 13.006 23.6966 13.3591C23.6457 13.6185 23.5802 13.8747 23.548 14.1383C23.4829 14.6701 23.3628 15.1902 23.2066 15.7027C22.8368 16.9159 22.2213 17.9828 21.3375 18.8918C21.3119 18.9182 21.2901 18.9509 21.2746 18.9842C20.7678 20.0953 20.0424 21.0361 19.0922 21.7987C17.9975 22.6773 16.7523 23.2073 15.3618 23.3898C15.3062 23.3971 15.2483 23.4035 15.1971 23.4245C14.3762 23.7632 13.5233 23.9522 12.636 23.9925C12.0901 24.0176 11.5495 23.9792 11.0125 23.8852C10.4467 23.7861 9.89979 23.6204 9.37189 23.3921C9.34281 23.3794 9.31088 23.3714 9.27927 23.3679C9.13513 23.3508 8.99004 23.3397 8.84621 23.3194C8.39038 23.2546 7.94246 23.1536 7.50655 23.0041C5.72623 22.3938 4.3537 21.2767 3.38325 19.6593C3.35322 19.6094 3.31497 19.5621 3.27198 19.5228C3.02068 19.2932 2.78328 19.05 2.56549 18.788C1.55394 17.5719 0.959348 16.178 0.794656 14.6006C0.788967 14.5475 0.782012 14.492 0.762098 14.4434C0.323974 13.3752 0.124195 12.2662 0.180778 11.111C0.198163 10.7567 0.236412 10.4055 0.302163 10.0572C0.492459 9.04649 0.86989 8.1114 1.43414 7.25282C1.46891 7.20011 1.49262 7.14486 1.51032 7.08485C1.9927 5.44327 2.90562 4.09826 4.26329 3.05996C4.64294 2.76975 5.05798 2.53383 5.45628 2.2722C5.75753 2.07406 6.07237 1.89657 6.37899 1.70637C6.60311 1.5673 6.81965 1.41521 7.04693 1.28153C7.91021 0.772864 8.83293 0.421686 9.8195 0.243875C10.1109 0.191484 10.4049 0.154016 10.7008 0.144173C11.0425 0.132743 11.3842 0.13052 11.725 0.172433C11.7857 0.180053 11.8483 0.174655 11.9096 0.17021C12.0089 0.162589 12.1075 0.151159 12.2064 0.140681C12.2497 0.136235 12.2921 0.13052 12.3344 0.125122ZM8.93725 11.9229C8.93503 12.1096 8.95842 12.3265 9.00268 12.5414C9.31373 14.0528 10.7153 15.1454 12.2933 14.9892C12.6474 14.9543 12.985 14.8631 13.3055 14.7098C14.5763 14.1021 15.2995 12.6935 15.0059 11.2523C14.734 9.9184 13.6216 8.92742 12.3256 8.79914C11.9194 8.75882 11.5208 8.79248 11.1291 8.91028C9.83878 9.29829 8.93187 10.5166 8.93725 11.9229ZM21.0122 19.2271C21.009 19.2246 21.0056 19.2218 21.0024 19.2192C20.9907 19.2278 20.9784 19.2354 20.967 19.2446C20.8108 19.3729 20.6591 19.5072 20.4979 19.6288C19.3134 20.5236 17.9804 21.0278 16.5036 21.145C16.0601 21.1802 15.6166 21.1685 15.1737 21.1199C14.7963 21.0783 14.4239 21.0119 14.0575 20.9122C12.3702 20.4525 10.9923 19.5269 9.94626 18.1203C8.96569 16.8016 8.46182 15.3115 8.42231 13.6651C8.41093 13.1993 8.44191 12.7361 8.51967 12.2763C8.53958 12.1588 8.56045 12.0417 8.58099 11.9242C8.56234 11.9397 8.55033 11.9575 8.54085 11.9766C8.12928 12.7866 7.87766 13.6445 7.78156 14.5479C7.73667 14.9705 7.73098 15.3944 7.7588 15.8192C7.78851 16.2733 7.85648 16.7213 7.97249 17.161C8.45834 18.9982 9.49264 20.442 11.0767 21.4812C12.1204 22.1661 13.2745 22.5306 14.5178 22.6072C14.894 22.6303 15.2708 22.6211 15.6469 22.5824C16.006 22.5456 16.361 22.4871 16.7094 22.3941C18.5222 21.9092 19.9368 20.8694 20.9695 19.3005C20.9847 19.2767 20.998 19.2516 21.0122 19.2271ZM11.0333 8.79279C7.22584 8.49909 3.61053 11.3403 3.31308 15.5785C3.05134 19.3116 5.60991 22.4906 8.93756 23.192C7.40033 22.3798 6.24971 21.2113 5.51508 19.6482C4.77981 18.0847 4.58888 16.4466 4.94071 14.7549C5.57988 11.681 8.02117 9.3202 11.0333 8.79279ZM11.5104 15.1883C11.51 15.1915 11.5094 15.195 11.5091 15.1981C11.5325 15.2105 11.5559 15.2232 11.5796 15.2353C12.4966 15.6973 13.4693 15.9456 14.4928 15.9884C15.0375 16.0113 15.5786 15.9691 16.1151 15.8659C17.1007 15.6766 18.0063 15.2966 18.833 14.7263C19.5941 14.2011 20.2257 13.5454 20.752 12.7862C21.518 11.6813 21.9852 10.4661 22.0816 9.11603C22.1164 8.62895 22.099 8.14347 22.0244 7.66083C21.9229 7.00484 21.7247 6.37964 21.4333 5.78365C21.3722 5.65855 21.3027 5.5417 21.2003 5.44676C21.1851 5.43279 21.1721 5.41692 21.1582 5.40199C21.1605 5.39945 21.163 5.39691 21.1652 5.39437C21.1914 5.41501 21.2174 5.43533 21.2436 5.45597C20.8124 4.65709 20.2188 3.99887 19.5325 3.41876C19.5404 3.44131 19.5518 3.46099 19.5644 3.48004C20.3142 4.60915 20.7517 5.84716 20.8526 7.20297C20.8895 7.70084 20.876 8.19713 20.8112 8.69182C20.7277 9.32686 20.5652 9.94127 20.3221 10.5338C19.8208 11.7553 19.0599 12.7866 18.043 13.6223C16.6695 14.7507 15.1001 15.3667 13.3163 15.3979C12.9012 15.4052 12.4884 15.3718 12.0793 15.2972C11.8897 15.2623 11.7 15.2245 11.5104 15.1883ZM13.187 8.75914C13.1731 8.74707 13.1598 8.73405 13.1453 8.72262C11.8868 7.71799 10.452 7.19122 8.84684 7.13534C8.28006 7.11565 7.71865 7.17217 7.16389 7.29251C5.94719 7.55637 4.86642 8.09806 3.93739 8.92679C2.4068 10.2921 1.59693 12.0156 1.46702 14.0624C1.4294 14.6549 1.4746 15.2448 1.58714 15.829C1.79671 16.9185 2.23168 17.9082 2.88444 18.802C2.92237 18.8541 2.96251 18.9046 3.0014 18.9557C3.00108 18.9182 2.98875 18.8868 2.97516 18.856C2.57908 17.9561 2.36223 17.014 2.3224 16.0316C2.29711 15.4052 2.34832 14.7844 2.47761 14.1703C2.75989 12.831 3.339 11.6371 4.25191 10.6192C5.65258 9.05761 7.40761 8.21523 9.49549 8.0806C10.0256 8.0463 10.5548 8.08028 11.0801 8.16887C11.6336 8.2619 12.1716 8.40859 12.6891 8.6261C12.8491 8.69341 13.0175 8.72072 13.187 8.75914ZM15.3833 11.239C15.3893 11.2161 15.3966 11.1932 15.401 11.1701C15.475 10.7792 15.5198 10.3848 15.5306 9.98699C15.5473 9.3764 15.4942 8.77184 15.3571 8.17649C14.912 6.24469 13.8742 4.7206 12.2219 3.63055C11.1443 2.9193 9.9529 2.54304 8.66539 2.48049C8.2023 2.45794 7.74047 2.48398 7.28116 2.55447C6.74505 2.63671 6.22347 2.77197 5.72054 2.97582C3.94877 3.69373 2.65937 4.92794 1.83054 6.65239C1.82042 6.67335 1.81189 6.69526 1.80272 6.71653C2.86326 5.41342 4.18711 4.5123 5.80747 4.07603C7.42689 3.64007 9.02575 3.72993 10.5857 4.35195C11.9184 4.88317 13.0144 5.73412 13.8698 6.88926C14.8244 8.17839 15.3141 9.63359 15.3833 11.239ZM14.3265 9.17509C13.9349 8.27333 13.3779 7.48969 12.6591 6.82512C11.5015 5.75476 10.1403 5.11813 8.57657 4.9346C5.94972 4.62597 3.13953 5.78619 1.54446 8.40478C1.19991 8.97029 0.94133 9.57389 0.763046 10.2121C0.583813 10.8532 0.493091 11.5066 0.492143 12.1725C0.491194 12.8082 0.651776 13.9652 0.763678 14.1176C0.763678 13.9134 0.759253 13.7134 0.764626 13.5137C0.777903 13.0095 0.845234 12.5116 0.966935 12.0229C1.4863 9.93396 2.65621 8.32032 4.49247 7.20551C5.52298 6.57968 6.64769 6.24215 7.84889 6.16404C8.25509 6.13769 8.66097 6.14817 9.06653 6.1904C9.43353 6.2285 9.79579 6.2901 10.1527 6.38313C11.8397 6.82322 13.2142 7.73926 14.282 9.12111C14.2965 9.13953 14.3117 9.15731 14.3265 9.17509ZM14.7817 14.4339C14.7833 14.4383 14.7846 14.4428 14.7862 14.4472C14.8111 14.4386 14.8358 14.4304 14.8608 14.4215C16.0907 13.9846 17.1333 13.2705 17.9728 12.2684C19.0681 10.9608 19.6204 9.44339 19.6659 7.73894C19.6798 7.21853 19.6295 6.70288 19.5262 6.1923C19.2825 4.98763 18.7688 3.91187 17.9848 2.96883C17.1506 1.96579 16.1192 1.24152 14.8952 0.795725C14.4087 0.618549 13.9087 0.494398 13.3947 0.431847C13.1892 0.406763 12.9828 0.383901 12.7764 0.374693C12.556 0.36485 12.3351 0.372471 12.1144 0.373423C12.0917 0.373423 12.0689 0.380408 12.0462 0.384219C12.5437 0.486778 12.9859 0.609023 13.407 0.767466C16.2194 1.82417 18.1337 4.47896 18.3082 7.48525C18.3512 8.22602 18.2924 8.95981 18.1201 9.68217C17.6706 11.5667 16.6673 13.0796 15.0997 14.2132C14.9954 14.2888 14.8879 14.3602 14.7817 14.4339ZM6.91511 1.76988C6.91606 1.77274 6.91669 1.77528 6.91764 1.77813C6.92997 1.77718 6.9423 1.7775 6.95399 1.77464C7.38801 1.66605 7.82771 1.59524 8.27437 1.56635C8.70775 1.53809 9.14082 1.54349 9.57262 1.58953C9.9687 1.63207 10.3594 1.70479 10.7432 1.81274C12.2728 2.24298 13.5518 3.06758 14.5639 4.29544C15.6232 5.58044 16.1903 7.06707 16.3044 8.72865C16.3455 9.32972 16.3101 9.92825 16.2071 10.5217C16.0534 11.4054 15.7576 12.2382 15.3125 13.0165C15.1867 13.2365 15.0504 13.4508 14.9196 13.668C14.8968 13.7061 14.8769 13.7458 14.8503 13.7944C14.8684 13.7874 14.8737 13.7868 14.8775 13.7836C14.894 13.7696 14.9104 13.7556 14.9262 13.741C16.4328 12.3538 17.2271 10.6287 17.3384 8.5845C17.3729 7.95264 17.3169 7.32522 17.1772 6.70796C16.7912 5.00128 15.9238 3.59181 14.5516 2.51065C13.2916 1.51777 11.8476 1.0218 10.2481 0.98592C9.77082 0.975124 9.29729 1.0218 8.82787 1.11039C8.18207 1.23232 7.56597 1.44188 6.97738 1.73432C6.95557 1.74543 6.93566 1.75813 6.91511 1.76988ZM9.14935 13.895C9.14398 13.8966 9.13892 13.8982 9.13355 13.8998C9.13544 13.9236 9.13481 13.9481 9.13955 13.9716C9.18033 14.1779 9.21257 14.3869 9.26473 14.5904C9.78599 16.6235 10.9385 18.1819 12.7568 19.2271C13.7443 19.7949 14.8159 20.0895 15.9523 20.1413C16.3234 20.1584 16.6945 20.1435 17.0647 20.0994C17.4418 20.0543 17.8145 19.987 18.178 19.8784C20.1843 19.2799 21.6782 18.0511 22.6493 16.1888C23.0305 15.4575 23.2657 14.6764 23.3827 13.8595C23.3922 13.7928 23.3975 13.7255 23.4048 13.6582C23.3994 13.6572 23.3941 13.6563 23.3887 13.6553C23.3798 13.6798 23.3707 13.7045 23.3621 13.729C22.8412 15.2032 21.9694 16.4222 20.7182 17.3576C19.5388 18.2393 18.2102 18.7293 16.7444 18.841C16.2896 18.8757 15.835 18.861 15.3823 18.8087C14.9761 18.7617 14.575 18.6842 14.1824 18.5677C12.3158 18.0126 10.8636 16.9077 9.8274 15.2521C9.58748 14.8689 9.39655 14.4612 9.2189 14.0462C9.19677 13.996 9.17243 13.9458 9.14935 13.895ZM14.5219 23.4692C14.5216 23.4648 14.521 23.4603 14.5206 23.4559C14.5032 23.4549 14.4859 23.4527 14.4685 23.4527C14.1236 23.4562 13.7803 23.4337 13.438 23.3898C13.0346 23.3381 12.6379 23.2546 12.2491 23.1361C10.8649 22.7142 9.694 21.9556 8.74505 20.8614C7.54985 19.4834 6.93503 17.8704 6.86201 16.0481C6.84114 15.5284 6.88129 15.0114 6.96853 14.498C7.13765 13.5032 7.4879 12.578 8.01769 11.721C8.33727 11.204 8.7204 10.7379 9.14366 10.3039C9.17749 10.2693 9.20752 10.2308 9.23533 10.1912C9.24734 10.1743 9.24924 10.1502 9.25778 10.1229C9.24039 10.1283 9.2347 10.1286 9.23028 10.1315C9.20056 10.1499 9.17085 10.1683 9.14145 10.1873C8.3221 10.7259 7.63647 11.4015 7.08992 12.2169C6.3262 13.3556 5.91305 14.6129 5.84446 15.983C5.82486 16.3777 5.83972 16.7718 5.88492 17.1649C5.93961 17.6411 6.03665 18.1082 6.18174 18.5648C6.8737 20.7427 8.51682 22.4519 10.6547 23.2171C11.186 23.4073 11.7323 23.5305 12.294 23.587C12.5943 23.6172 12.8952 23.6296 13.1971 23.6226C13.4854 23.6159 13.7721 23.5921 14.0572 23.5502C14.2121 23.527 14.367 23.4965 14.5219 23.4692ZM10.4694 15.1559C10.4669 15.1584 10.4644 15.161 10.4615 15.1635C10.4773 15.1838 10.4922 15.2051 10.5086 15.2248C10.9227 15.7243 11.3953 16.1602 11.9276 16.5298C13.0239 17.2903 14.238 17.7145 15.5666 17.8059C15.9621 17.8332 16.3572 17.8218 16.752 17.7799C17.1029 17.7424 17.45 17.6843 17.7901 17.5919C19.646 17.0867 21.095 16.0224 22.116 14.3846C22.7758 13.3267 23.1301 12.1664 23.2034 10.9211C23.2287 10.4915 23.2155 10.0622 23.1627 9.63422C23.1127 9.23129 23.0334 8.83502 22.919 8.44574C22.9123 8.42288 22.9035 8.40097 22.8956 8.37843C22.8962 8.54894 22.9092 8.71627 22.9123 8.88329C22.9227 9.47737 22.8681 10.0654 22.741 10.6458C22.3655 12.3592 21.5357 13.8122 20.2314 14.979C18.899 16.1707 17.3277 16.793 15.5473 16.8785C14.9297 16.908 14.3167 16.8521 13.7108 16.7238C12.5788 16.4838 11.5571 16.0062 10.6439 15.294C10.5854 15.248 10.5276 15.2016 10.4694 15.1559Z" fill="#F4F4F5"/>
<path d="M10.8388 0.041287C11.1439 0.0463673 11.4467 0.0673236 11.7499 0.096218C11.8339 0.104156 11.9215 0.0920902 12.0059 0.0797069C12.4222 0.0184255 12.8407 -0.00761122 13.2612 0.00191439C14.1953 0.0225532 15.0958 0.208303 15.9623 0.560433C16.3495 0.717923 16.7178 0.911928 17.0785 1.12276C17.4385 1.33328 17.8065 1.53014 18.1697 1.73558C18.329 1.82575 18.4845 1.92228 18.6419 2.01595C18.6697 2.03246 18.6976 2.04865 18.726 2.06421C20.5499 3.04789 21.7913 4.52753 22.4646 6.49171C22.4817 6.54188 22.5079 6.59078 22.5386 6.63365C23.186 7.53413 23.6225 8.52734 23.8454 9.61516C23.9737 10.2404 24.0208 10.8732 23.9917 11.5104C23.955 12.3125 23.7976 13.0907 23.5198 13.8445C23.4951 13.9112 23.4888 13.9865 23.484 14.0585C23.4448 14.6599 23.3371 15.2486 23.1581 15.8236C22.7662 17.0851 22.097 18.1755 21.1572 19.0995C21.1215 19.1347 21.0905 19.1773 21.0661 19.2214C20.0255 21.1046 18.475 22.3515 16.4238 22.9704C16.048 23.0837 15.6629 23.1606 15.2725 23.2069C15.2229 23.213 15.1717 23.2269 15.1265 23.2482C14.5003 23.5432 13.8475 23.7521 13.166 23.8731C12.6097 23.9715 12.0492 24.0046 11.4862 23.9782C10.719 23.9423 9.97207 23.795 9.25008 23.5286C9.14829 23.4911 9.04335 23.494 8.93998 23.4835C8.55433 23.4438 8.17374 23.3768 7.79852 23.2793C6.66591 22.9844 5.65216 22.4573 4.75979 21.6968C3.97837 21.031 3.35375 20.2391 2.88559 19.323C2.85809 19.2691 2.82332 19.224 2.7797 19.1824C1.59619 18.0539 0.846388 16.6825 0.512579 15.0803C0.41427 14.6082 0.36559 14.13 0.360848 13.6474C0.360532 13.6023 0.353262 13.5556 0.339985 13.5124C0.169604 12.952 0.0611792 12.3801 0.0200853 11.7953C-0.0839138 10.3121 0.216704 8.91535 0.904552 7.60081C0.946278 7.52112 0.976624 7.43983 0.997803 7.35219C1.32023 6.01321 1.979 4.86791 2.97505 3.9217C3.51591 3.40796 4.10102 2.94914 4.73513 2.5551C4.77085 2.53287 4.80246 2.50144 4.83123 2.47C5.53235 1.70287 6.35296 1.10276 7.30634 0.690299C7.84435 0.457556 8.40292 0.293081 8.98329 0.211478C9.32121 0.16385 9.66007 0.120032 9.99989 0.08828C10.279 0.0619258 10.5594 0.0558929 10.8388 0.041287ZM11.9996 8.73849C10.34 8.74008 8.99783 10.0921 8.99941 11.76C9.00099 13.4353 10.3425 14.7838 12.0065 14.7825C13.6576 14.7812 14.9991 13.4267 14.9988 11.7613C14.9982 10.0905 13.655 8.73658 11.9996 8.73849ZM3.1546 19.524C4.5442 21.5882 7.14987 23.0352 10.1437 22.6329C13.0016 22.249 15.2887 20.2165 16.1229 17.5789C16.3293 16.9261 16.4428 16.2567 16.4646 15.5722C16.4864 14.8876 16.415 14.2119 16.249 13.5473C16.09 12.9107 15.6455 11.8232 15.4828 11.6727C15.8716 13.3048 15.771 14.9009 15.1436 16.4542C14.5158 18.0079 13.4929 19.2363 12.0729 20.1203C10.7257 20.9592 9.25293 21.3466 7.66923 21.2691C5.97743 21.1862 4.47656 20.5871 3.1546 19.524ZM12.8935 8.5937C14.5509 8.84581 15.9929 9.53959 17.1929 10.7166C18.3928 11.8937 19.1379 13.3184 19.4161 14.9806C19.6535 16.399 19.5084 17.7837 18.9764 19.1198C18.3012 20.8157 17.1543 22.1036 15.5766 23.0183C19.0427 22.1277 21.521 18.642 20.9229 14.7723C20.3192 10.8665 16.7927 8.16314 12.8935 8.5937ZM3.99829 3.56513C3.99513 3.56259 3.99196 3.56005 3.98849 3.55751C3.97869 3.56449 3.96794 3.57021 3.95972 3.57846C3.58735 3.93536 3.23141 4.30749 2.927 4.7263C1.91135 6.12466 1.47702 7.68273 1.66099 9.40751C1.7239 9.99873 1.86931 10.5715 2.08553 11.125C2.58055 12.3922 3.35691 13.4594 4.39626 14.3272C5.69072 15.4083 7.19065 15.9586 8.87107 16.0132C9.41319 16.031 9.95089 15.9789 10.4832 15.8722C11.208 15.7271 11.8943 15.4769 12.5423 15.1203C12.5619 15.1095 12.5799 15.0965 12.5986 15.0845C12.5098 15.0918 12.4266 15.1108 12.3438 15.1318C11.8788 15.2508 11.4066 15.3245 10.9273 15.3458C10.5319 15.3632 10.1368 15.3528 9.74289 15.3058C9.37937 15.2623 9.01964 15.1991 8.6675 15.1006C6.82365 14.5866 5.33731 13.5502 4.22241 11.9896C3.34458 10.7608 2.87769 9.38369 2.82395 7.86944C2.80562 7.35442 2.84639 6.84289 2.93648 6.33581C3.10781 5.37309 3.45111 4.47514 3.95624 3.63943C3.9711 3.61498 3.98438 3.58958 3.99829 3.56513ZM10.6947 8.64101C10.6969 8.64577 10.6994 8.65085 10.7016 8.65562C10.8309 8.61339 10.9659 8.58354 11.0889 8.5267C11.955 8.12599 12.8629 7.89103 13.8137 7.82435C14.3119 7.78942 14.8088 7.80879 15.3038 7.87356C15.7442 7.93135 16.1769 8.02597 16.6002 8.16124C18.1121 8.64419 19.3683 9.50403 20.347 10.7589C21.2903 11.9686 21.8276 13.3444 21.9642 14.8768C22.0145 15.442 21.9993 16.0059 21.9241 16.5676C21.8387 17.2049 21.6756 17.8224 21.4385 18.42C21.4303 18.441 21.424 18.4626 21.4107 18.5016C23.5346 15.6315 23.3127 11.2352 20.2661 8.60132C17.2103 5.96019 13.0579 6.4787 10.6947 8.64101ZM22.1346 6.1145C20.604 2.97041 16.6795 1.16118 12.959 2.61765C8.958 4.2551 7.76817 8.39239 8.5499 11.231C8.54801 9.68502 8.94946 8.25872 9.78873 6.96418C10.6289 5.66807 11.7574 4.70503 13.167 4.083C14.5518 3.47178 15.998 3.2873 17.4897 3.52639C19.3415 3.82296 20.8796 4.7028 22.1346 6.1145ZM9.52794 9.11856C10.5256 7.7129 11.821 6.72668 13.4445 6.19483C15.0661 5.66362 16.6925 5.66997 18.3068 6.22532C19.766 6.72731 20.9719 7.59637 21.9098 8.82708C22.9615 10.2073 23.4761 11.7775 23.5087 13.513C23.6007 13.1555 23.6528 12.7913 23.68 12.4233C23.7436 11.5606 23.6598 10.7119 23.4259 9.87934C23.1768 8.99314 22.7747 8.18219 22.2206 7.44872C20.4712 5.13368 17.5928 4.07475 14.7857 4.67963C11.8987 5.30197 10.1731 7.42141 9.52794 9.11856ZM11.4821 0.152419C11.4451 0.152419 11.4081 0.152102 11.3715 0.152419C10.8512 0.158452 10.3362 0.210843 9.82698 0.322928C8.52335 0.609966 7.3781 1.20278 6.39564 2.11057C4.81258 3.57307 3.90883 5.72046 4.06056 7.95326C4.09185 8.41303 4.16393 8.86582 4.27962 9.3113C4.91563 11.7613 6.79646 13.7115 9.21499 14.43C9.22953 14.4342 9.24439 14.4364 9.25925 14.4396C7.82412 13.5734 6.7462 12.3878 6.07447 10.8456C5.4037 9.30526 5.2428 7.70591 5.60063 6.06274C6.21672 3.23364 8.41556 0.841756 11.4821 0.152419ZM9.17169 13.7744C9.1524 13.7429 9.13407 13.7105 9.11352 13.6801C9.02659 13.5499 8.93903 13.42 8.85147 13.2905C8.016 12.0572 7.56839 10.6951 7.5077 9.20524C7.48083 8.54321 7.53963 7.8869 7.68662 7.24075C8.0846 5.49089 8.96653 4.03633 10.3571 2.90659C11.7182 1.80067 13.283 1.23358 15.0329 1.18912C15.5368 1.17642 16.0378 1.21992 16.5341 1.31073C16.6018 1.32312 16.6697 1.33455 16.7374 1.34661C14.0495 0.0419221 10.0078 0.557892 7.73435 3.85248C5.45301 7.15755 6.29259 11.4971 9.17169 13.7744ZM14.9849 13.6524C14.9767 13.6689 14.9675 13.6848 14.9609 13.7017C14.9033 13.8442 14.8467 13.9874 14.7892 14.13C14.2765 15.3997 13.4913 16.4673 12.4165 17.3119C11.1363 18.3178 9.68125 18.8655 8.05615 18.9566C7.63288 18.9804 7.21151 18.9633 6.7914 18.9163C6.4282 18.8756 6.06942 18.8055 5.71601 18.7099C4.46107 18.3702 3.35564 17.7589 2.41017 16.8616C1.57976 16.0735 0.958922 15.1419 0.537236 14.0757C0.528069 14.0525 0.516689 14.03 0.506257 14.0071C1.02056 17.5649 4.09185 20.3207 7.8355 20.261C11.6484 20.1991 14.6252 17.2772 14.9849 13.6524ZM9.95184 23.5207C9.95215 23.5286 9.95215 23.5365 9.95247 23.5448C10.2006 23.5708 10.4481 23.6051 10.6969 23.6213C11.092 23.647 11.4875 23.6375 11.882 23.5965C12.2382 23.5594 12.591 23.5022 12.9365 23.4086C14.9185 22.8716 16.438 21.7168 17.4701 19.9349C18.2085 18.6597 18.5111 17.2744 18.4257 15.8027C18.3982 15.3289 18.3239 14.8628 18.2035 14.4043C17.8921 13.2184 17.3215 12.1744 16.4959 11.2713C15.999 10.7281 15.4315 10.2712 14.7965 9.9003C14.7753 9.88791 14.7525 9.87839 14.7232 9.8641C14.7415 9.93237 14.7551 9.95459 14.8113 10.0098C14.8961 10.093 14.9824 10.1746 15.0661 10.2585C16.5474 11.7413 17.3181 13.5346 17.3848 15.6322C17.4037 16.2342 17.343 16.8308 17.215 17.4198C16.8499 19.0998 16.0242 20.5109 14.7329 21.6365C13.3835 22.8132 11.8064 23.4333 10.0204 23.514C9.99736 23.5149 9.9746 23.5184 9.95184 23.5207ZM13.6455 15.0263C13.6272 15.041 13.6082 15.0552 13.5905 15.0705C12.1475 16.3012 10.4772 16.9185 8.58689 16.9359C8.1671 16.9397 7.74921 16.9 7.33416 16.8308C6.68646 16.7229 6.06278 16.5362 5.46439 16.2666C4.22936 15.7103 3.21245 14.8784 2.40732 13.7893C1.34362 12.3506 0.79992 10.7347 0.801501 8.93821C0.801501 8.85248 0.801501 8.76675 0.801501 8.70483C0.0450577 11.2856 0.941536 15.1403 4.40606 17.022C7.83329 18.8829 11.7331 17.6335 13.6455 15.0263Z" fill="url(#paint0_radial_60_8895)"/>
<defs>
<radialGradient id="paint0_radial_60_8895" cx="0" cy="0" r="1" gradientUnits="userSpaceOnUse" gradientTransform="translate(12.0002 11.993) scale(11.9698 12.0233)">
<stop stop-color="white"/>
<stop offset="1" stop-color="#EDEFEF"/>
</radialGradient>
</defs>
</svg>
