<svg width="24" height="24" viewBox="0 0 24 24" fill="none" xmlns="http://www.w3.org/2000/svg">
<path fill-rule="evenodd" clip-rule="evenodd" d="M20.3416 3.48991C15.6882 -1.16296 8.14337 -1.16348 3.48946 3.48991C-1.16341 8.1433 -1.16289 15.6882 3.48946 20.3416C8.14337 24.995 15.6882 24.995 20.3416 20.3416C24.9955 15.6882 24.9945 8.1433 20.3416 3.48991ZM11.4225 18.791C10.5199 18.791 9.90633 18.1273 9.90633 17.2409C9.90633 16.3383 10.5371 15.6903 11.4225 15.6903C12.3428 15.6903 12.9387 16.3377 12.9554 17.2409C12.9554 18.1263 12.3423 18.791 11.4225 18.791ZM13.6775 11.4683C12.9888 12.2332 12.7091 12.961 12.7279 13.7995C12.7279 14.4219 12.2223 14.9275 11.5994 14.9275H11.3583C10.7416 14.9275 10.2392 14.4323 10.2308 13.8156L10.2282 13.6503C10.1724 12.6991 10.4896 11.7297 11.3286 10.7228C11.926 10.0137 12.4096 9.41739 12.4096 8.78295C12.4096 8.13078 11.9808 7.70139 11.0495 7.6633C10.763 7.6633 10.4495 7.71182 10.1463 7.79687C9.59537 7.95182 9.02146 7.64139 8.85137 7.09513L8.84824 7.08469C8.67659 6.53478 8.97711 5.94991 9.52337 5.76834C10.127 5.56747 10.8663 5.42556 11.6834 5.42556C14.146 5.42556 15.2646 6.78678 15.2646 8.33478C15.2641 9.75234 14.387 10.6847 13.6775 11.4683Z" fill="#87859A"/>
</svg>
