<svg width="24" height="24" viewBox="0 0 24 24" fill="none" xmlns="http://www.w3.org/2000/svg">
<path fill-rule="evenodd" clip-rule="evenodd" d="M0 12.2454V13.3372C0.00421879 13.3515 0.00871215 13.3657 0.0131986 13.3799L0.0132004 13.3799C0.021844 13.4072 0.030462 13.4344 0.0370417 13.4619C0.122296 13.807 0.341607 14.0134 0.683214 14.0945C0.694789 14.0972 0.706618 14.0994 0.720196 14.102L0.743186 14.1063C0.744543 14.1141 0.746347 14.1218 0.748156 14.1296C0.751835 14.1454 0.755533 14.1613 0.755533 14.1774C0.754828 14.2588 0.753558 14.3402 0.752288 14.4216C0.750383 14.5436 0.748478 14.6657 0.748478 14.7877C0.74789 17.5 0.74789 20.2123 0.74789 22.9246C0.74789 22.9518 0.746234 22.9793 0.744572 23.0068C0.743614 23.0227 0.742655 23.0386 0.74201 23.0545H23.0382L23.0367 23.018C23.0357 22.9939 23.0347 22.97 23.0347 22.9457V14.3897V14.2298L23.0771 14.2257C23.1219 14.2213 23.1625 14.2173 23.2034 14.2151C23.5485 14.1968 23.8484 13.9769 23.9619 13.6524C23.9807 13.5983 23.9954 13.5395 23.996 13.4825L23.9971 13.3417V13.3415V13.3414V13.3414V13.3414V13.3414V13.3414V13.3414V13.3413V13.3413V13.3413V13.3413V13.3413V13.3413V13.3412V13.3412V13.3412C23.9999 12.9959 24.0026 12.6499 23.9954 12.3048C23.9877 11.9549 23.6638 11.6198 23.3004 11.5686C23.2473 11.5614 23.1937 11.5569 23.1365 11.5521C23.105 11.5494 23.0724 11.5467 23.0382 11.5434L23.0369 11.5119L23.0369 11.5119C23.0358 11.4865 23.0347 11.4596 23.0347 11.4328C23.0343 11.2533 23.0344 11.0738 23.0345 10.8943L23.0347 10.625V3.20428L23.0345 2.51292C23.0344 2.05215 23.0343 1.59147 23.0347 1.13053C23.0347 1.10151 23.0357 1.07248 23.0367 1.04346L23.0382 1H0.74201C0.743093 1.01451 0.744735 1.02903 0.746377 1.04354C0.749191 1.06842 0.752006 1.0933 0.752006 1.11818V11.3323V11.4552C0.731766 11.461 0.713766 11.466 0.696836 11.4708L0.652052 11.4834C0.331612 11.5792 0.112889 11.7744 0.0364537 12.1102C0.0292507 12.1428 0.0199104 12.1754 0.010633 12.2078L0 12.2454ZM12.2585 1.70497C12.2595 1.71905 12.26 1.73189 12.2604 1.74389V1.7439C12.2611 1.76496 12.2618 1.78342 12.2655 1.80139C12.2753 1.85116 12.2846 1.90109 12.294 1.95104L12.294 1.9512L12.2941 1.95136L12.2941 1.95154L12.2941 1.95172L12.2942 1.9519L12.2942 1.95208L12.2942 1.95226C12.3203 2.09135 12.3464 2.23061 12.3813 2.36702C12.5495 3.01672 12.8511 3.60409 13.2486 4.13914C13.9771 5.11927 14.8526 5.94066 15.9115 6.55802C16.3619 6.82025 16.7875 7.11717 17.1838 7.45643C17.8412 8.01852 18.3568 8.68586 18.6843 9.49078C18.9295 10.0923 19.0583 10.7202 19.0924 11.3682C19.0944 11.4089 19.098 11.4497 19.1016 11.49L19.1016 11.4901L19.1016 11.4907L19.1044 11.5216L19.1065 11.5469H22.3291V1.70497H12.2585ZM4.6786 11.4309L4.67666 11.4458H1.47638L1.46913 11.4387C1.46645 11.4361 1.46484 11.4346 1.46344 11.4328L1.46085 11.43C1.45906 11.4283 1.45737 11.4266 1.45697 11.4246L1.45577 11.412C1.45372 11.3909 1.45168 11.3698 1.45168 11.3487L1.45168 11.3468C1.45345 8.1454 1.45521 4.944 1.45756 1.74319C1.45756 1.73636 1.46001 1.72978 1.463 1.72172C1.46465 1.71727 1.46647 1.71237 1.46815 1.70673H11.5012C11.4979 1.7333 11.4949 1.75959 11.4919 1.78566C11.484 1.85365 11.4763 1.92014 11.4653 1.98602C11.36 2.61514 11.1155 3.19075 10.7844 3.73227C10.3464 4.45017 9.78842 5.064 9.15812 5.61493C8.81769 5.91244 8.45492 6.1782 8.0698 6.41573C7.60237 6.70325 7.14082 6.99958 6.71043 7.34236C6.03368 7.88153 5.49393 8.52829 5.13998 9.32263C4.92655 9.80123 4.79543 10.3022 4.73311 10.8213C4.71883 10.9398 4.70987 11.0588 4.70091 11.1778L4.70091 11.1778L4.7009 11.1778L4.7009 11.1779L4.7009 11.1779L4.7009 11.1779L4.70089 11.178L4.70089 11.178L4.70089 11.1781L4.70088 11.1781L4.70088 11.1781L4.70088 11.1782L4.70088 11.1782L4.70087 11.1782L4.70087 11.1783L4.70087 11.1783L4.70086 11.1783L4.70086 11.1784L4.70086 11.1784C4.69618 11.2405 4.69151 11.3026 4.68607 11.3646C4.68459 11.3853 4.68187 11.406 4.6786 11.4309ZM12.279 22.3525V21.995L12.2798 18.9218C12.2803 16.8747 12.2808 14.8276 12.2808 12.7804C12.2808 9.88002 12.2802 6.97959 12.2767 4.07917C12.2767 3.9945 12.2561 3.90513 12.2238 3.82693C12.1536 3.65629 12.0775 3.48826 12.0014 3.32017L12.0013 3.32002C11.9754 3.26286 11.9496 3.2057 11.9239 3.14842C11.9164 3.13225 11.9074 3.11657 11.8979 3.09998L11.8979 3.09996L11.8979 3.09988L11.8979 3.09986C11.8925 3.09054 11.8871 3.08094 11.8816 3.07081C11.8779 3.07597 11.8744 3.08033 11.8714 3.08423C11.8657 3.09143 11.8613 3.09704 11.8586 3.10315C11.8338 3.15892 11.8089 3.2146 11.7839 3.27025L11.7839 3.2703L11.7839 3.27035C11.7047 3.44699 11.6256 3.62342 11.5523 3.80223C11.5211 3.87749 11.5094 3.96392 11.5053 4.04624C11.5012 4.12592 11.5034 4.20583 11.5056 4.28569V4.2857V4.28571V4.28572V4.28573V4.28574V4.28575V4.28576V4.28577V4.28578V4.28579V4.2858V4.28581V4.28582V4.28583V4.28584V4.28585V4.28586V4.28587V4.28588V4.28589V4.2859V4.28591V4.28592V4.28593V4.28594L11.5056 4.286C11.5069 4.33332 11.5082 4.38061 11.5082 4.42783C11.5088 10.2216 11.5088 16.0154 11.5082 21.8086C11.5082 21.8891 11.507 21.9696 11.5058 22.05V22.05V22.0501V22.0501V22.0501V22.0501V22.0501V22.0502V22.0502V22.0502V22.0502V22.0502V22.0502V22.0503V22.0503V22.0503V22.0503V22.0503V22.0503V22.0504V22.0504V22.0504V22.0504V22.0504V22.0504V22.0505C11.5048 22.1191 11.5038 22.1876 11.5035 22.2561C11.5035 22.277 11.5059 22.2981 11.5083 22.3199L11.5084 22.32L11.5084 22.32C11.5096 22.3307 11.5108 22.3415 11.5117 22.3525H12.279ZM3.06564 13.4137C3.74886 13.4137 4.43207 13.4137 5.11528 13.4131C5.17349 13.4131 5.2317 13.4119 5.28932 13.4054C5.36223 13.3966 5.3928 13.3666 5.40515 13.2961C5.41054 13.267 5.41049 13.2364 5.41045 13.2066L5.41044 13.1985C5.41074 13.1056 5.41074 13.0128 5.41074 12.9201C5.41074 12.8273 5.41074 12.7346 5.41103 12.6417L5.41122 12.5484V12.5484C5.41146 12.4705 5.4117 12.3923 5.41044 12.3142C5.40927 12.2225 5.38516 12.1889 5.29579 12.169C5.2364 12.156 5.17349 12.1525 5.11234 12.1525C3.73122 12.1519 2.35009 12.1519 0.968964 12.1525L0.958034 12.1525C0.925229 12.1524 0.892472 12.1524 0.860191 12.1566C0.771408 12.1672 0.732015 12.2078 0.720843 12.2965C0.717758 12.3187 0.717821 12.3408 0.717885 12.3633L0.717904 12.373V13.202C0.717904 13.2314 0.717904 13.2608 0.722019 13.289C0.733779 13.3678 0.762001 13.3966 0.841964 13.4054C0.903112 13.4113 0.964848 13.4131 1.02658 13.4131C1.70627 13.4137 2.38596 13.4137 3.06564 13.4137ZM18.4039 14.9888H12.9869V14.2221H18.4039V14.9888ZM10.798 14.9865H5.38222V14.2233H10.798V14.9865ZM22.3397 13.516H20.8463H18.6337C18.4062 13.5154 18.3733 13.4831 18.3733 13.259C18.3727 13.0086 18.3727 12.7575 18.3733 12.5064C18.3733 12.2913 18.4091 12.2572 18.629 12.2572C19.6574 12.2566 20.6852 12.2566 21.7135 12.2566C22.1604 12.2566 22.6072 12.2566 23.0541 12.2572C23.2804 12.2572 23.3157 12.2918 23.3157 12.5135V13.2549L23.3158 13.2745V13.2746V13.2746V13.2746V13.2746V13.2746V13.2747V13.2747V13.2747V13.2747V13.2747V13.2748V13.2748V13.2748V13.2748V13.2748V13.2749V13.2749V13.2749V13.2749V13.2749V13.275V13.275V13.275V13.275V13.275V13.2751C23.316 13.2977 23.3162 13.3203 23.3139 13.3425C23.301 13.4707 23.2557 13.5142 23.124 13.5154C22.9377 13.5167 22.7517 13.5164 22.5655 13.5162H22.5654H22.5654H22.5653H22.5652H22.5652H22.5651H22.5651H22.565H22.5649H22.5649H22.5648H22.5647H22.5647H22.5646H22.5646H22.5645H22.5644H22.5644H22.5643H22.5642H22.5642H22.5641H22.5641H22.564H22.5639H22.5639L22.3397 13.516ZM22.3297 22.349H19.1129V14.2239H22.3297V22.349ZM4.66314 22.3525C4.68489 22.2078 4.67843 14.1945 4.65726 14.1139C3.59481 14.1039 2.53118 14.1034 1.46991 14.1163C1.44521 14.2533 1.45109 22.2713 1.4752 22.3525H4.66314ZM10.805 5.01814V13.5107H6.08307C6.11459 13.2493 6.11244 12.9897 6.11029 12.7308V12.7308C6.10915 12.5937 6.10802 12.4568 6.11188 12.3201C6.12129 11.9849 5.9155 11.6075 5.48746 11.4863L5.38516 11.4558L5.3849 11.427C5.38463 11.408 5.38438 11.3893 5.38516 11.3705C5.41162 10.7584 5.52039 10.164 5.76557 9.60014C6.07072 8.89635 6.53404 8.31603 7.16081 7.87447C7.55827 7.59401 7.96514 7.32531 8.37672 7.06543C8.76477 6.81966 9.13872 6.55684 9.48679 6.25757C9.50338 6.24341 9.52053 6.22981 9.53842 6.21561L9.53846 6.21558L9.53848 6.21556L9.56323 6.19583C9.61342 6.46624 9.74785 6.69205 9.88145 6.91648L9.88145 6.91649L9.91718 6.97665C9.98186 7.08542 10.0977 7.12247 10.2217 7.10483C10.3682 7.08425 10.4646 6.99488 10.5122 6.85671C10.5404 6.77439 10.5351 6.6909 10.4969 6.61211L10.4519 6.51993L10.4519 6.51983L10.4517 6.5196C10.3841 6.38084 10.3162 6.24178 10.2441 6.1047C10.1735 5.97182 10.0606 5.90126 9.88543 5.91185C9.93447 5.8454 9.98857 5.79386 10.0407 5.74415L10.0408 5.74414C10.0661 5.71995 10.0911 5.6962 10.1147 5.67137C10.1535 5.63024 10.1929 5.58999 10.2323 5.54974L10.2323 5.54966L10.2324 5.54958C10.2718 5.50933 10.3111 5.46908 10.3499 5.42795C10.4246 5.34858 10.4981 5.26803 10.5704 5.1863C10.6177 5.13196 10.6642 5.07659 10.7103 5.02173L10.7103 5.0217L10.7104 5.02167L10.7104 5.02164C10.7336 4.99401 10.7567 4.96652 10.7797 4.93936L10.7845 4.94103C10.7896 4.94283 10.7926 4.94385 10.7944 4.94524C10.7974 4.947 10.8003 4.95053 10.8003 4.95347L10.802 4.97236L10.802 4.97238C10.8035 4.98762 10.805 5.00273 10.805 5.01814ZM12.9858 4.9517V13.5095H13.8936C13.8856 13.492 13.8778 13.4755 13.8704 13.4597L13.8704 13.4597C13.8545 13.4257 13.84 13.3948 13.8271 13.3631C13.8222 13.3511 13.8171 13.3391 13.812 13.3272L13.812 13.3272C13.7928 13.2822 13.7736 13.2371 13.7625 13.1903C13.7278 13.0474 13.7795 12.9327 13.8965 12.8481C14.0135 12.7628 14.1382 12.7569 14.2652 12.8263C14.341 12.868 14.3934 12.9327 14.4316 13.0092C14.4516 13.0498 14.4722 13.0901 14.4927 13.1305L14.4927 13.1306L14.4927 13.1306C14.5415 13.2264 14.5903 13.3223 14.6321 13.4207C14.665 13.4978 14.7085 13.5177 14.7879 13.5177C15.437 13.5157 16.0861 13.5156 16.7353 13.5156H16.7402C17.0167 13.5156 17.2931 13.5156 17.5695 13.5154C17.5943 13.5154 17.6191 13.5139 17.6443 13.5125L17.6765 13.5107L17.6783 13.5013L17.6799 13.494C17.6816 13.4861 17.683 13.4799 17.683 13.4736C17.682 13.3563 17.6806 13.2389 17.6792 13.1215V13.1213V13.1211V13.1209V13.1207V13.1205V13.1203V13.1201V13.1199V13.1197V13.1195V13.1193V13.1191V13.1189V13.1187V13.1185V13.1183V13.1181V13.1179V13.1177V13.1175V13.1173C17.6763 12.8796 17.6734 12.6417 17.6742 12.4041C17.676 12.0214 17.9294 11.6945 18.2974 11.5886C18.3161 11.5832 18.3345 11.5775 18.3526 11.572L18.3968 11.5587C18.4162 10.9325 18.1451 9.783 17.8947 9.42787C17.8929 9.4365 17.8912 9.44506 17.8896 9.45355L17.8873 9.466C17.8815 9.49703 17.8759 9.52699 17.8659 9.55546C17.8206 9.68893 17.7353 9.78183 17.5895 9.80182C17.4308 9.82298 17.3155 9.76948 17.2426 9.63248C17.1491 9.45609 17.0574 9.27794 16.9739 9.09626C16.8775 8.88812 16.9898 8.67057 17.215 8.61707C17.2438 8.61024 17.2732 8.60659 17.3074 8.60233L17.3075 8.60233L17.3076 8.60231L17.3078 8.60229L17.3079 8.60227L17.308 8.60227L17.3081 8.60225C17.3267 8.59994 17.3468 8.59743 17.369 8.59414C17.3396 8.56261 17.311 8.53163 17.2829 8.50118C17.214 8.42656 17.1481 8.35511 17.0792 8.28663C16.7211 7.93092 16.3142 7.63929 15.8874 7.37235C15.8085 7.32299 15.7295 7.27401 15.6505 7.22503L15.6505 7.22502C15.433 7.09023 15.2157 6.95551 15.0031 6.8132C14.2693 6.32166 13.6378 5.71664 13.0687 5.0446C13.0556 5.02919 13.0422 5.01435 13.0264 4.99694L13.0263 4.9969C13.0144 4.98375 13.0012 4.96914 12.9858 4.9517ZM12.9869 15.7014H18.408V22.3513L18.3682 22.3531C18.3384 22.3546 18.3094 22.356 18.2804 22.356L15.6845 22.3543L15.4502 22.354C15.1573 22.3537 14.8645 22.3533 14.5721 22.3584C14.4715 22.3601 14.4163 22.3348 14.3769 22.2361C14.3324 22.1232 14.2752 22.0156 14.2182 21.9081C14.2036 21.8807 14.189 21.8532 14.1746 21.8257C14.1276 21.7351 14.0559 21.6705 13.9588 21.6358C13.8336 21.5905 13.7219 21.6193 13.6243 21.704C13.5255 21.7898 13.4855 21.8998 13.5173 22.0279C13.5297 22.0782 13.5506 22.1264 13.5714 22.1743L13.5825 22.2002C13.5959 22.2321 13.6112 22.2632 13.6282 22.2979L13.6283 22.298L13.6283 22.298L13.6283 22.2981C13.636 22.3138 13.6441 22.3302 13.6525 22.3478H12.9869V15.7014ZM8.72773 15.6997H5.37399C5.38139 16.8643 5.37828 18.0266 5.37517 19.1883V19.1885C5.37236 20.2425 5.36954 21.296 5.37458 22.3501H10.798V15.6991H9.52795L9.53019 15.7143L9.53345 15.7381L9.53346 15.7382C9.53596 15.7568 9.53829 15.7741 9.54147 15.7914C9.55558 15.8702 9.53853 15.9437 9.49973 16.0113C9.36979 16.2371 9.06934 16.253 8.92 16.0366C8.87089 15.9647 8.82934 15.8873 8.78666 15.8077C8.76751 15.772 8.74813 15.7359 8.72773 15.6997ZM6.0027 21.0926C5.86923 21.0961 5.77163 21.0315 5.70872 20.9197C5.65239 20.8187 5.60083 20.7153 5.54912 20.6116L5.54903 20.6114L5.549 20.6114C5.53273 20.5787 5.51644 20.5461 5.49999 20.5135C5.47529 20.4652 5.4506 20.4164 5.43237 20.3653C5.37064 20.193 5.45178 20.0096 5.6217 19.9296C5.78456 19.8538 5.9586 19.9061 6.04973 20.0713C6.14792 20.2489 6.23788 20.4311 6.32666 20.6134C6.44543 20.8568 6.24259 21.1032 6.0027 21.0926ZM8.49249 21.2821C8.43428 21.1721 8.3355 21.1263 8.21321 21.1275C7.97038 21.1292 7.79516 21.3756 7.89041 21.6002C7.97096 21.7901 8.06504 21.9747 8.16734 22.154C8.26495 22.3246 8.45839 22.3687 8.63007 22.2781C8.77353 22.2029 8.87114 22.0182 8.77706 21.8324C8.68358 21.6478 8.59009 21.4638 8.49249 21.2821ZM7.09602 18.0429C7.08778 18.2087 7.01546 18.3092 6.88259 18.3639C6.74794 18.4192 6.61918 18.4098 6.50982 18.3034C6.47924 18.2734 6.4522 18.2369 6.43279 18.1993L6.38404 18.1059C6.31278 17.9698 6.2416 17.8339 6.17938 17.6936C6.07002 17.4461 6.25993 17.1821 6.52863 17.1998C6.63388 17.2068 6.72031 17.2533 6.7697 17.345C6.87435 17.5396 6.97254 17.7377 7.07015 17.9359C7.08345 17.9633 7.08829 17.9952 7.092 18.0195C7.09337 18.0286 7.09459 18.0365 7.09602 18.0429ZM9.16406 19.4676C9.22168 19.5782 9.31987 19.6246 9.39572 19.6258C9.67324 19.6264 9.86256 19.3847 9.77319 19.1884C9.67559 18.9738 9.56329 18.765 9.44981 18.5587C9.42453 18.5116 9.37161 18.4716 9.32163 18.4481C9.19875 18.3905 9.05 18.4299 8.94357 18.5363C8.8395 18.6404 8.81128 18.7603 8.87419 18.8944C8.96056 19.0765 9.05369 19.2555 9.14674 19.4343L9.16406 19.4676ZM13.6313 18.8874C13.4919 18.8891 13.3896 18.8403 13.3297 18.728C13.2309 18.5428 13.1327 18.3565 13.0451 18.1654C12.971 18.0037 13.0322 17.8332 13.1827 17.742C13.3308 17.6515 13.5113 17.6797 13.6248 17.8132C13.646 17.8379 13.6654 17.8649 13.6801 17.8937L13.734 17.9987L13.734 17.9987C13.8006 18.1281 13.8671 18.2575 13.9282 18.3894C13.9988 18.5422 13.9558 18.7069 13.8283 18.8115C13.7677 18.8615 13.6989 18.8903 13.6313 18.8874ZM17.2576 18.7355C17.3141 18.8396 17.4111 18.886 17.5287 18.8872C17.775 18.8896 17.9596 18.6356 17.8591 18.4227C17.7662 18.2263 17.6633 18.0341 17.5592 17.843C17.5345 17.7971 17.4928 17.7548 17.4487 17.7277C17.3276 17.6542 17.1694 17.6795 17.0559 17.7812C16.9407 17.8847 16.899 18.0223 16.9607 18.154C17.0536 18.351 17.1541 18.5438 17.2576 18.7355ZM15.085 15.9689C15.1944 15.9689 15.2861 16.0077 15.339 16.1071L15.392 16.2064L15.392 16.2064C15.4836 16.3778 15.5752 16.5492 15.6565 16.7256C15.7518 16.9326 15.5378 17.193 15.3002 17.1701C15.1838 17.1584 15.0933 17.1049 15.0392 16.9996C14.9987 16.9216 14.9593 16.843 14.9198 16.7644C14.8683 16.6616 14.8168 16.5588 14.7628 16.4575C14.6423 16.2317 14.8504 15.9689 15.085 15.9689ZM17.6971 21.1347C17.5519 21.17 17.4319 21.3123 17.4184 21.4563C17.423 21.4725 17.427 21.4891 17.4309 21.5056C17.4394 21.5417 17.448 21.5777 17.4637 21.6104C17.5187 21.7235 17.5759 21.8354 17.6331 21.9473C17.6683 22.0161 17.7036 22.085 17.7383 22.1542C17.7924 22.2618 17.8829 22.3153 17.9982 22.3253C18.1228 22.3359 18.228 22.2912 18.301 22.1889C18.3692 22.0925 18.4039 21.9837 18.3503 21.8714C18.2563 21.675 18.1575 21.481 18.054 21.2899C17.9758 21.1441 17.8553 21.0971 17.6971 21.1347ZM16.0822 20.8527C15.9375 20.8498 15.8376 20.8004 15.7782 20.6863C15.6812 20.4999 15.5847 20.313 15.4942 20.123C15.4313 19.9902 15.4642 19.8585 15.5718 19.7562C15.6835 19.6503 15.8417 19.6162 15.9622 19.6821C16.0075 19.7068 16.0522 19.7479 16.0769 19.7932C16.1856 19.9937 16.2915 20.1965 16.3903 20.4023C16.4708 20.5705 16.3256 20.8615 16.0822 20.8527ZM17.1003 11.2433C17.0344 11.1193 16.9198 11.0705 16.7792 11.0528C16.7613 11.0587 16.7429 11.0636 16.7245 11.0686C16.6839 11.0795 16.6434 11.0904 16.6082 11.111C16.4676 11.1933 16.4041 11.3686 16.4717 11.5185C16.5501 11.6914 16.6384 11.8603 16.7267 12.0291L16.7698 12.1117C16.8045 12.1788 16.8639 12.2217 16.9362 12.2446C17.075 12.2887 17.1961 12.2564 17.2949 12.1529C17.3966 12.0453 17.4272 11.9154 17.3666 11.7801C17.2855 11.5979 17.1938 11.4203 17.1003 11.2433ZM14.394 7.13434C14.4598 7.13493 14.5604 7.17903 14.6168 7.28133C14.7244 7.4783 14.8291 7.67762 14.9208 7.88223C14.9855 8.02511 14.922 8.18503 14.7897 8.27146C14.6521 8.36142 14.4793 8.35378 14.367 8.24736C14.3305 8.21267 14.2976 8.17151 14.2746 8.12741L14.2497 8.07897C14.1732 7.93055 14.0968 7.78219 14.0295 7.63C13.9248 7.39246 14.09 7.13669 14.394 7.13434ZM14.3677 10.2259C14.313 10.123 14.2213 10.0795 14.1067 10.0807C13.8873 10.0672 13.6569 10.33 13.7821 10.564C13.8459 10.6828 13.9065 10.8036 13.967 10.9244L13.9672 10.9247C13.9992 10.9886 14.0312 11.0525 14.0637 11.1161C14.112 11.2108 14.1931 11.2619 14.2954 11.2766C14.4236 11.2942 14.5335 11.2554 14.6129 11.1514C14.6864 11.0544 14.7299 10.9438 14.674 10.8262C14.577 10.624 14.4724 10.4246 14.3677 10.2259ZM10.5373 10.445L10.5331 10.467C10.5292 10.4878 10.5257 10.5064 10.5208 10.5244C10.4785 10.6867 10.3497 10.7643 10.2069 10.7943C10.0834 10.8208 9.97639 10.7478 9.89996 10.6438C9.88526 10.6232 9.87056 10.602 9.85939 10.5791C9.83938 10.5394 9.8192 10.4997 9.79902 10.4601L9.799 10.46C9.73673 10.3377 9.67442 10.2153 9.61714 10.0905C9.53189 9.90471 9.60597 9.71245 9.78824 9.62308C9.93935 9.54899 10.1169 9.5878 10.1998 9.73244C10.2927 9.89393 10.3752 10.0615 10.4575 10.2287L10.5091 10.3333C10.5215 10.3577 10.5263 10.3855 10.531 10.4122C10.5329 10.4235 10.5349 10.4345 10.5373 10.445ZM7.20497 9.41035C7.26141 9.51266 7.3596 9.55969 7.47719 9.56146C7.73354 9.56322 7.90288 9.30275 7.79587 9.06169C7.73226 8.91907 7.66025 8.78023 7.58837 8.64161L7.54892 8.56545C7.52952 8.52723 7.50189 8.49195 7.47131 8.46138C7.3549 8.34555 7.18203 8.33085 7.04151 8.42139C6.90216 8.51194 6.84102 8.67775 6.90981 8.82944C7.00035 9.027 7.1009 9.21985 7.20497 9.41035ZM6.49271 11.0651C6.62265 11.0656 6.73024 11.1174 6.79198 11.2309C6.89193 11.4155 6.98895 11.603 7.07244 11.7959C7.14358 11.9593 7.0501 12.1575 6.88547 12.2322C6.72378 12.3057 6.54562 12.251 6.45684 12.0887C6.35806 11.907 6.26046 11.7242 6.17756 11.5354C6.07643 11.3049 6.24341 11.0639 6.49271 11.0651ZM8.91612 13.3285C8.97432 13.4397 9.0731 13.4844 9.17306 13.4891C9.44234 13.4914 9.61579 13.2439 9.51525 13.0157C9.43058 12.8229 9.33416 12.6353 9.23127 12.4513C9.14131 12.2914 8.95492 12.2437 8.79735 12.3255C8.62566 12.4137 8.5504 12.5977 8.62919 12.7653C8.70413 12.924 8.78561 13.0794 8.86715 13.235C8.88348 13.2662 8.89983 13.2973 8.91612 13.3285Z" fill="#0C1E3C"/>
</svg>
