<svg width="24" height="24" viewBox="0 0 24 24" fill="none" xmlns="http://www.w3.org/2000/svg">
<path fill-rule="evenodd" clip-rule="evenodd" d="M23.6129 1.26493C23.7895 1.13638 23.942 0.986736 24 0.768298V0.575972C23.996 0.561972 23.9923 0.547814 23.9886 0.533617C23.9808 0.504021 23.973 0.474258 23.9625 0.445412C23.905 0.288237 23.7977 0.170733 23.6396 0.109972C23.5638 0.0806191 23.4838 0.062749 23.404 0.0449019C23.3718 0.0377129 23.3397 0.0305276 23.3078 0.022597C23.2823 0.0161888 23.2566 0.0115928 23.2307 0.00698325C23.2181 0.00472985 23.2055 0.0024732 23.1928 0H22.6911C22.6806 0.00189256 22.6702 0.00393068 22.6597 0.00596742C22.6313 0.0114964 22.603 0.0170153 22.5741 0.0195841C22.5292 0.0241607 22.4842 0.0277031 22.4392 0.0312468C22.3756 0.0362571 22.312 0.0412698 22.2485 0.0492112C21.6868 0.117504 21.1291 0.213918 20.5761 0.329916C19.7709 0.49864 18.9668 0.67088 18.1642 0.848141C17.8485 0.917978 17.5339 0.993649 17.2195 1.06927C17.0728 1.10457 16.9261 1.13986 16.7793 1.17454C15.9896 1.36134 15.2009 1.54865 14.4265 1.79119C13.2799 2.15073 12.1692 2.59213 11.114 3.16207C10.563 3.46035 10.0398 3.79931 9.55659 4.19601C9.25312 4.44458 9.15401 4.75592 9.22436 5.13052C9.23644 5.19488 9.2488 5.25918 9.26116 5.32348C9.32391 5.65 9.38664 5.97639 9.41281 6.30908C9.47443 7.1045 9.39792 7.88434 9.14528 8.64511C8.81254 9.64591 8.1409 10.3409 7.14884 10.7406C6.8279 10.8697 6.49208 10.9154 6.14548 10.8616C5.94265 10.83 5.75163 10.7662 5.5678 10.6793C5.18166 10.4971 4.7724 10.4132 4.34518 10.4142C4.03503 10.4147 3.73053 10.4589 3.43014 10.5342C2.92179 10.6618 2.54181 10.942 2.32665 11.419C2.29071 11.4979 2.27941 11.5019 2.18031 11.4888C1.76284 11.4341 1.34743 11.4396 0.936636 11.543C0.700431 11.6023 0.473468 11.6862 0.258316 11.7991C0.0904046 11.8875 -0.0184553 12.0342 0.00259783 12.2134C0.045731 12.585 0.39131 12.7397 0.67681 12.5946C1.11636 12.3706 1.58466 12.3093 2.07299 12.3736C2.18544 12.3887 2.19879 12.4088 2.21266 12.5012C2.26093 12.8185 2.38057 13.1098 2.56748 13.3744C2.7128 13.5803 2.88533 13.7626 3.07481 13.9298C3.08948 13.9425 3.10286 13.9567 3.1179 13.9727C3.126 13.9813 3.13459 13.9904 3.14413 14.0001C3.13709 14.0025 3.13102 14.0046 3.12564 14.0064C3.11062 14.0116 3.10107 14.015 3.09124 14.0172C3.00772 14.0363 2.92412 14.0551 2.84051 14.0739C2.6414 14.1187 2.44231 14.1635 2.24449 14.213C2.11509 14.2457 1.98416 14.2838 1.86605 14.3426C1.64833 14.4515 1.51893 14.6383 1.44448 14.8633C1.2853 15.3414 1.18619 15.8315 1.13382 16.3311C1.0876 16.768 1.08401 17.2044 1.12355 17.6407C1.16719 18.1258 1.2473 18.6059 1.33048 19.0859C1.52664 20.2213 1.77927 21.3441 2.09866 22.4524C2.17312 22.7112 2.25115 22.9692 2.32922 23.2272C2.36959 23.3607 2.40998 23.4942 2.44989 23.6279C2.49148 23.7675 2.57518 23.874 2.70561 23.9458C2.95568 24.0839 3.29047 23.9458 3.34388 23.6766C3.36031 23.5938 3.3675 23.5079 3.36801 23.4235C3.36904 22.9113 3.38341 22.4002 3.44657 21.891C3.51281 21.3642 3.62321 20.8475 3.79985 20.3448C4.08227 19.5424 4.5172 18.8313 5.1452 18.2408C6.23842 17.2129 7.5509 16.7077 9.06261 16.6826C9.67058 16.6726 10.275 16.7107 10.8752 16.8071C11.457 16.901 12.0275 17.0381 12.5754 17.2505C13.5772 17.6392 14.5267 18.1293 15.4309 18.7023C15.5469 18.7759 15.6612 18.8521 15.7755 18.9283C15.8024 18.9462 15.8292 18.9641 15.8561 18.982C15.9819 19.0653 16.1174 19.103 16.2689 19.0714C16.2946 19.0659 16.3206 19.0621 16.3467 19.0583C16.3639 19.0558 16.3812 19.0533 16.3983 19.0503C16.4838 19.0359 16.5697 19.0235 16.6556 19.0111C16.8429 18.9841 17.0301 18.9572 17.2117 18.9097C18.4359 18.5888 19.2256 17.8135 19.6328 16.653C19.7201 16.4034 19.7643 16.1428 19.7704 15.8782C19.7755 15.6647 19.6492 15.4935 19.4479 15.4358C19.3894 15.4192 19.3268 15.4107 19.2657 15.4086C18.7491 15.3901 18.2371 15.3318 17.7278 15.2505C17.0725 15.1455 16.424 15.0079 15.7811 14.8462C15.3657 14.7418 14.959 14.6117 14.576 14.4199C13.8422 14.0538 13.3251 13.5015 13.0807 12.7256C13.0377 12.5904 13.0096 12.4507 12.9814 12.3108C12.9604 12.2066 12.9394 12.1022 12.9122 11.9995C12.866 11.8238 12.8671 11.6485 12.8789 11.4707C12.8809 11.4406 12.8841 11.4106 12.8873 11.3806C12.8905 11.3506 12.8938 11.3206 12.8958 11.2905C12.9225 10.9239 12.9898 10.5649 13.1033 10.2143C13.303 9.5987 13.6193 9.04131 13.9947 8.51405C14.4584 7.86376 15.0063 7.28577 15.5901 6.73843C16.1791 6.18706 16.8091 5.6834 17.4438 5.18375C18.6207 4.25778 19.85 3.40612 21.1553 2.66142C21.5975 2.40915 22.0432 2.16235 22.4888 1.91553C22.7573 1.76686 23.0257 1.61818 23.2935 1.4683C23.4039 1.40654 23.5117 1.33925 23.6129 1.26493ZM18.7363 16.2784C18.7544 16.2804 18.7731 16.2826 18.7927 16.2849C18.7746 16.3327 18.7563 16.3796 18.7382 16.4259C18.698 16.5288 18.6588 16.629 18.6248 16.7308C18.5108 17.0728 18.2854 17.3279 17.9963 17.5403C17.6733 17.7783 17.3288 17.9696 16.9318 18.058C16.7942 18.0881 16.6546 18.1138 16.5144 18.1313C16.3382 18.1534 16.1765 18.1052 16.0281 18.0123C15.9944 17.9913 15.9608 17.9703 15.9271 17.9492C15.8047 17.8726 15.682 17.7959 15.5588 17.7211C14.6463 17.1677 13.6948 16.6911 12.6837 16.3326C12.1333 16.1378 11.5674 16.0012 10.9887 15.9133C10.3042 15.8094 9.61564 15.7742 8.92397 15.7923C7.19505 15.838 5.70798 16.4531 4.46893 17.6322C3.73618 18.3292 3.22937 19.1678 2.91049 20.1153C2.85261 20.2879 2.80551 20.4637 2.7584 20.6396C2.73654 20.7212 2.71468 20.8028 2.69174 20.8841C2.68661 20.9027 2.68096 20.9213 2.65683 20.9409C2.65278 20.9247 2.64844 20.9086 2.64411 20.8926C2.63691 20.8659 2.62974 20.8393 2.62396 20.8123C2.43705 19.9506 2.2753 19.0844 2.12331 18.2167C2.04321 17.7597 1.9898 17.3023 2.01188 16.8383C2.03858 16.2894 2.12947 15.7511 2.28917 15.2239C2.31484 15.1405 2.3626 15.1023 2.44527 15.0837C3.0214 14.9552 3.59754 14.8256 4.17265 14.6926C4.2584 14.6725 4.33542 14.678 4.41656 14.7066C4.88729 14.8705 5.35803 15.0337 5.82876 15.1969C6.18167 15.3193 6.53457 15.4417 6.88747 15.5643C6.99119 15.6005 7.09492 15.6271 7.20635 15.6195C7.40147 15.6065 7.54628 15.494 7.60225 15.3077C7.65616 15.1279 7.59763 14.9386 7.44615 14.8327C7.39069 14.794 7.32599 14.7654 7.2618 14.7433C6.87958 14.611 6.49701 14.4796 6.11443 14.3482C5.68955 14.2023 5.26466 14.0564 4.84019 13.9092C4.51771 13.7977 4.21013 13.6546 3.92874 13.4603C3.63348 13.2559 3.39471 13.0028 3.22269 12.689C3.09945 12.4635 3.06711 12.225 3.10613 11.9759C3.15132 11.6872 3.32077 11.4948 3.60678 11.4175C4.16135 11.2674 4.70771 11.2613 5.24071 11.5169C5.68025 11.7278 6.14958 11.8107 6.6374 11.7725C7.06308 11.7394 7.46104 11.6098 7.83948 11.4205C9.07185 10.8039 9.82514 9.82267 10.1445 8.51355C10.3207 7.79345 10.3807 7.06181 10.3386 6.32314C10.3145 5.88978 10.2498 5.46044 10.142 5.03913C10.1168 4.9397 10.144 4.88045 10.221 4.81969C10.6524 4.48023 11.1145 4.18547 11.5993 3.92485C12.5276 3.4252 13.5022 3.03252 14.5077 2.70913C15.321 2.447 16.1498 2.23811 16.9832 2.04679C17.208 1.99505 17.4321 1.93996 17.6562 1.88487C17.9454 1.81376 18.2347 1.74265 18.5257 1.67871C19.0365 1.56663 19.5495 1.46459 20.0625 1.36252C20.1678 1.34157 20.2731 1.32062 20.3784 1.29958C20.9042 1.19413 21.4305 1.09269 21.9574 0.992762C22.0909 0.967654 22.2269 0.954598 22.3676 0.954598C22.3561 0.961645 22.3447 0.968878 22.3333 0.976101C22.3123 0.989465 22.2912 1.0028 22.2696 1.01486C22.0402 1.1446 21.8106 1.27394 21.581 1.40325C21.0963 1.67633 20.6116 1.94934 20.1293 2.22606C19.1398 2.79349 18.214 3.45131 17.3123 4.14178C16.6535 4.64544 15.9999 5.15513 15.3791 5.70348C14.6684 6.33168 13.9978 6.99653 13.4247 7.75027C12.9872 8.32574 12.6103 8.93485 12.3454 9.60674C12.1482 10.1079 12.0357 10.6261 11.9977 11.1619C11.9762 11.4602 11.9695 11.7585 12.0029 12.0563C12.1035 12.9641 12.4193 13.7812 13.0766 14.4495C13.4838 14.8633 13.9721 15.1591 14.5107 15.3795C14.9708 15.5678 15.4489 15.6999 15.9346 15.8048C16.4548 15.9178 16.9765 16.0253 17.5008 16.1177C17.7436 16.1606 17.989 16.1892 18.2344 16.2178C18.3423 16.2304 18.4503 16.243 18.5581 16.2568C18.6144 16.2643 18.671 16.2708 18.7363 16.2784Z" fill="#0C1E3C"/>
</svg>
