<svg width="24" height="24" viewBox="0 0 24 24" fill="none" xmlns="http://www.w3.org/2000/svg">
<path d="M12.1656 13.4408C11.9129 13.7932 11.7039 14.0782 11.5015 14.3676C9.81759 16.7753 7.46161 17.5703 4.63846 17.2088C3.97462 17.1237 3.32233 16.9504 2.66145 16.8373C2.15853 16.7513 1.93509 16.4991 2.01629 15.9728C2.05649 15.7117 2.02328 15.4393 2.02328 15.0819C2.54167 15.2042 3.00144 15.3382 3.47048 15.4176C4.19684 15.5404 4.92696 15.686 5.6599 15.7164C7.93617 15.8109 10.2147 14.3262 11.0778 12.2029C11.1468 12.0335 11.0377 11.7368 10.9228 11.5556C9.02845 8.56617 7.02415 7.75472 3.56324 8.56106C3.08694 8.67211 2.6148 8.8017 2.02812 8.95133C2.02812 8.46965 2.0093 8.03623 2.04103 7.60644C2.04923 7.49647 2.19966 7.33784 2.31474 7.30396C3.91788 6.83303 5.54859 6.57827 7.21868 6.83464C9.05669 7.11696 10.4117 8.15937 11.4824 9.62526C11.6918 9.91174 11.8957 10.2021 12.1556 10.5654C13.8161 7.9549 16.1296 6.70411 19.2751 7.04813C19.1649 6.33145 19.0692 5.70888 18.9735 5.08631C19.0146 5.05754 19.0557 5.02877 19.0969 5C20.0448 6.06607 20.9926 7.13201 21.9703 8.2317C21.122 8.92404 20.0912 9.76534 18.9429 10.7025C19.0174 9.91107 19.0785 9.26174 19.1449 8.55649C17.0126 8.41668 15.2511 8.99247 13.992 10.6814C12.7979 12.283 12.7882 11.7247 13.9885 13.3326C15.248 15.0198 17.0065 15.6033 19.1453 15.4603C19.0782 14.7549 19.0162 14.1045 18.9412 13.3155C20.087 14.2497 21.1209 15.0926 22 15.8094C21.0345 16.8942 20.0852 17.9605 19.1361 19.027C19.082 18.9938 19.0278 18.9607 18.9736 18.9277C19.0703 18.3101 19.1671 17.6925 19.2788 16.9794C16.1576 17.2995 13.8168 16.0973 12.1656 13.4408" fill="#0C1E3C"/>
</svg>
