<svg width="24" height="24" viewBox="0 0 24 24" fill="none" xmlns="http://www.w3.org/2000/svg">
<path fill-rule="evenodd" clip-rule="evenodd" d="M1.00512 13.7588C1.00332 13.7748 1.00152 13.7907 0.999756 13.8068V14.3069C1.00194 14.3272 1.00425 14.3475 1.00657 14.3678C1.01134 14.4098 1.01613 14.4518 1.01981 14.4935C1.06114 15.0016 1.18512 15.489 1.37534 15.9606C1.68346 16.7251 2.13804 17.3942 2.70567 17.9892C3.13716 18.4413 3.61788 18.8364 4.12595 19.1986C4.18915 19.2436 4.25904 19.2667 4.3344 19.2739C4.40065 19.28 4.4675 19.2825 4.53374 19.2825C8.32844 19.2825 12.1225 19.2825 15.9166 19.2831C16.0819 19.2831 16.2284 19.2387 16.3639 19.1402C16.8228 18.806 17.2585 18.4456 17.6511 18.0354C18.2199 17.4416 18.6928 16.7828 19.0094 16.0183C19.1923 15.5765 19.3127 15.1182 19.3655 14.6436C19.4658 13.7429 19.337 12.8727 19.0124 12.0297C18.8101 11.504 18.5439 11.0124 18.2364 10.542C18.1896 10.4703 18.133 10.4028 18.0729 10.3414C17.9288 10.195 17.7508 10.1506 17.5508 10.1828C17.5399 10.1846 17.5283 10.1865 17.5119 10.181C17.5292 10.167 17.5464 10.1532 17.5637 10.1393C17.5983 10.1117 17.6329 10.084 17.6669 10.0552C17.6713 10.0516 17.6756 10.0479 17.68 10.0443C17.7242 10.0073 17.7682 9.97045 17.8097 9.93062C17.9039 9.84067 18.0182 9.81211 18.1434 9.81028C18.429 9.80603 18.6818 9.71669 18.8933 9.51979C19.0222 9.40006 19.1091 9.25117 19.1881 9.09619L19.1882 9.09597C19.3535 8.77152 19.5187 8.44706 19.6895 8.12625C19.7508 8.01017 19.8232 7.89956 19.9009 7.79382C20.0413 7.60116 20.2455 7.5094 20.4722 7.46929C20.6235 7.44269 20.7758 7.42095 20.928 7.39921C21.0227 7.38568 21.1174 7.37215 21.2118 7.35746C21.5789 7.29973 21.9435 7.23166 22.2778 7.06089C22.6236 6.88464 22.8667 6.61906 22.9615 6.23497C23.0308 5.95542 23.0016 5.6795 22.9165 5.40845C22.6364 4.51387 22.104 3.80342 21.3382 3.2674C21.1389 3.12701 20.9165 3.03585 20.6709 3.0079C20.6656 3.00748 20.6604 3.00508 20.6552 3.00264C20.6528 3.0015 20.6504 3.00035 20.6479 2.99939H20.4084C20.4061 3.0003 20.4038 3.00129 20.4016 3.00228C20.3947 3.00524 20.3879 3.0082 20.3811 3.00911C20.22 3.02856 20.0711 3.08265 19.9313 3.16348C19.6943 3.30083 19.5114 3.49469 19.3552 3.7153C19.1882 3.95158 19.062 4.21039 18.9361 4.46894C18.9172 4.50765 18.8983 4.54635 18.8793 4.58497C18.7888 4.76851 18.6964 4.95083 18.5955 5.12829C18.5269 5.24923 18.4241 5.34403 18.288 5.38536C17.9507 5.48746 17.611 5.58044 17.2628 5.63879C17.1722 5.65379 17.0808 5.66473 16.9895 5.67567C16.881 5.68866 16.7726 5.70165 16.6654 5.72144C16.1852 5.81078 15.8492 6.07636 15.6918 6.54857C15.6693 6.61724 15.6298 6.67133 15.569 6.71266C15.4789 6.7747 15.3892 6.83729 15.2995 6.89983C15.224 6.95245 15.1486 7.00504 15.0731 7.05724C14.349 7.55832 13.625 8.0594 12.901 8.56048C12.1771 9.06155 11.4531 9.56263 10.729 10.0637C10.6117 10.1445 10.4823 10.1846 10.34 10.1853L10.3382 10.1853C10.0569 10.1865 9.77607 10.1877 9.49529 10.1877C7.95894 10.1883 6.42258 10.1889 4.88623 10.1889H4.88581C4.17794 10.1883 3.47006 10.1877 2.76158 10.1846C2.50512 10.1834 2.31186 10.2801 2.19213 10.5134C2.14473 10.6046 2.09003 10.6927 2.03534 10.7802C1.77097 11.2044 1.53578 11.6426 1.3644 12.1136C1.18694 12.6034 1.06114 13.1042 1.0192 13.625C1.01517 13.6698 1.01016 13.7142 1.00512 13.7588ZM18.8988 7.90017C18.5226 7.38299 18.1531 6.87492 17.7769 6.35713C17.8192 6.34808 17.8604 6.33903 17.9009 6.33014L17.901 6.33013C17.9774 6.31333 18.0515 6.29708 18.1257 6.28238C18.7669 6.15475 19.2142 5.78525 19.4786 5.19271L19.5243 5.08974C19.6329 4.84436 19.7414 4.5994 19.8785 4.36801C19.9581 4.23309 20.0389 4.09939 20.1519 3.98818C20.3531 3.79005 20.5749 3.75663 20.8265 3.88608C20.9645 3.95718 21.0775 4.0605 21.1893 4.16503C21.5765 4.52663 21.8834 4.94475 22.0821 5.43763C22.1429 5.58713 22.2 5.73785 22.2012 5.90315C22.2024 6.08547 22.1247 6.22282 21.9733 6.32127C21.8466 6.40299 21.7041 6.44412 21.5614 6.48532L21.5151 6.49873C21.2307 6.58138 20.939 6.61116 20.6448 6.63C19.9058 6.67801 19.3582 7.02807 19.0112 7.68503C18.9884 7.72796 18.9661 7.77089 18.9426 7.81604L18.8988 7.90017ZM18.2193 8.999L18.2194 8.99898L18.2194 8.99895C18.2723 8.95462 18.326 8.9097 18.3761 8.86161C18.4946 8.74918 18.4965 8.70907 18.4004 8.57658C18.3521 8.51002 18.3035 8.44347 18.2549 8.37691L18.254 8.37567C18.2057 8.30955 18.1573 8.24342 18.1093 8.1773C17.7313 7.65768 17.3539 7.13807 16.9765 6.61785C16.9413 6.56984 16.8987 6.53216 16.8392 6.51696C16.7346 6.49083 16.6502 6.53216 16.5724 6.59475C16.4508 6.6926 16.4332 6.82083 16.5238 6.94603C16.6542 7.12568 16.7847 7.30518 16.9152 7.48466L16.917 7.4871C17.242 7.934 17.5669 8.38077 17.8899 8.8294C17.9592 8.92542 18.0431 8.99896 18.1482 9.05912C18.1715 9.03907 18.1953 9.01913 18.2192 8.99908L18.2193 8.99906L18.2193 8.99904L18.2193 8.99902L18.2193 8.999ZM15.8856 7.43282L14.4593 8.42498C13.6177 9.01038 12.7775 9.59491 11.9372 10.1792C11.9548 10.1889 11.9676 10.1889 11.9809 10.1889L13.0133 10.1886H13.0133H13.0134H13.0135H13.0136H13.0137C14.0456 10.1884 15.0777 10.1881 16.1099 10.1859C16.1591 10.1859 16.2162 10.1658 16.2557 10.136C16.4495 9.98977 16.6404 9.84065 16.8315 9.69141L17.0063 9.55504C17.0577 9.5149 17.1089 9.47436 17.1606 9.43342L17.1615 9.43269L17.1624 9.43201L17.1627 9.43174L17.1628 9.43166L17.1634 9.43122L17.1645 9.43031C17.2008 9.40159 17.2373 9.37267 17.2743 9.34354C16.998 8.96371 16.7228 8.58496 16.4473 8.20574L16.4433 8.20018L16.4431 8.19991L15.8856 7.43282ZM3.44285 17.6081C3.44103 17.6112 3.43981 17.6142 3.4386 17.6173C3.45521 17.6298 3.47203 17.6422 3.48884 17.6545C3.52247 17.6792 3.5561 17.704 3.5881 17.7303L3.72139 17.8409L3.7216 17.8411C3.92167 18.0071 4.12196 18.1733 4.31982 18.3423C4.43954 18.445 4.57263 18.49 4.73125 18.49C6.85142 18.4894 8.97159 18.4912 11.0918 18.493L11.0942 18.493C11.3799 18.4933 11.6657 18.4939 11.9515 18.4945L11.9541 18.4945C12.239 18.4951 12.5239 18.4957 12.8087 18.496C13.0627 18.4963 13.3167 18.4963 13.5708 18.4963C13.825 18.4963 14.0791 18.4963 14.3335 18.4967C14.4168 18.4967 14.5001 18.4972 14.5834 18.4977C14.7001 18.4984 14.8167 18.4992 14.9333 18.4985C14.9815 18.4981 15.0297 18.4979 15.0779 18.4978H15.0779H15.0779H15.0779C15.2493 18.4973 15.4208 18.4968 15.5915 18.4845C15.871 18.4644 16.1208 18.3605 16.3305 18.1703C16.4795 18.0354 16.6274 17.8996 16.7754 17.7637L16.7756 17.7635L16.9236 17.6276C16.9265 17.6251 16.9287 17.6216 16.9313 17.6175C16.9331 17.6146 16.9351 17.6114 16.9376 17.6081H3.44285ZM18.0502 11.8022L18.0583 11.817H2.34589C2.34674 11.8143 2.34736 11.8117 2.34795 11.8092C2.34904 11.8047 2.34999 11.8007 2.35197 11.7976C2.39682 11.7231 2.44192 11.6487 2.48703 11.5743C2.58251 11.4169 2.67803 11.2594 2.77131 11.1005C2.81506 11.0258 2.87644 10.9978 2.95606 10.9972C3.20888 10.9954 3.4623 10.9948 3.71573 10.9948C7.76325 10.9935 11.8108 10.9917 15.8583 10.9899C16.3651 10.9899 16.8714 10.9893 17.3782 10.9856C17.5211 10.985 17.6195 11.0403 17.6888 11.168C17.7636 11.3071 17.843 11.4434 17.9224 11.5797L17.9224 11.5797L17.9224 11.5798L17.9225 11.5799L17.9226 11.58C17.9586 11.6419 17.9947 11.7038 18.0303 11.766C18.0366 11.7772 18.0429 11.7887 18.0501 11.802L18.0502 11.8022ZM10.2179 16.8065V16.8071H17.4621H17.5217C17.6122 16.8071 17.6791 16.7707 17.7313 16.6947C17.9064 16.4407 18.0632 16.1769 18.1944 15.8974C18.4497 15.354 18.5955 14.7828 18.6156 14.1811C18.6277 13.8171 18.5907 13.4567 18.5153 13.1006C18.4928 12.9954 18.4661 12.8903 18.4369 12.7864C18.415 12.7086 18.3719 12.6472 18.2825 12.6375C18.2461 12.6332 18.2096 12.6302 18.1725 12.6302C17.845 12.6308 17.5173 12.6315 17.1897 12.6323C16.8625 12.6331 16.5354 12.6338 16.2083 12.6344C15.2949 12.6356 14.3821 12.6363 13.4687 12.6363L11.3268 12.6358C9.90094 12.6355 8.47522 12.6352 7.04977 12.6344C6.35229 12.6338 5.65482 12.6331 4.95741 12.6323L4.94546 12.6323H4.94432C4.24297 12.6315 3.5417 12.6308 2.84059 12.6302C2.62363 12.6296 2.40727 12.6296 2.19031 12.6302C2.04749 12.6302 2.0013 12.6654 1.9618 12.8028L1.96028 12.8101L1.95876 12.8174C1.88401 13.0927 1.83296 13.371 1.80683 13.6548C1.77158 14.0322 1.78556 14.4066 1.8518 14.7791C1.97274 15.4598 2.25048 16.0754 2.6376 16.6443C2.716 16.7585 2.81992 16.8114 2.95849 16.8102C3.24566 16.807 3.53329 16.8071 3.82058 16.8071L3.94363 16.8071C4.84308 16.8065 5.74313 16.8065 6.64319 16.8065H10.2179Z" fill="#0C1E3C"/>
</svg>
