<svg width="24" height="24" viewBox="0 0 24 24" fill="none" xmlns="http://www.w3.org/2000/svg">
<path fill-rule="evenodd" clip-rule="evenodd" d="M23.5545 7.44526C23.2578 7.14834 22.9062 7 22.4998 7H1.50011C1.0936 7 0.742176 7.14834 0.445256 7.44526C0.148337 7.7425 0 8.09393 0 8.50019C0 8.90638 0.148337 9.2578 0.445256 9.55481L10.9451 20.0547C11.2424 20.3516 11.5938 20.5003 12 20.5003C12.4062 20.5003 12.7579 20.3516 13.0546 20.0547L23.5545 9.55472C23.8511 9.2578 24 8.90638 24 8.50011C24 8.09393 23.8511 7.7425 23.5545 7.44526Z" fill="#0092C9"/>
<mask id="mask0_0_2656" style="mask-type:luminance" maskUnits="userSpaceOnUse" x="0" y="7" width="24" height="14">
<path fill-rule="evenodd" clip-rule="evenodd" d="M23.5545 7.44526C23.2578 7.14834 22.9062 7 22.4998 7H1.50011C1.0936 7 0.742176 7.14834 0.445256 7.44526C0.148337 7.7425 0 8.09393 0 8.50019C0 8.90638 0.148337 9.2578 0.445256 9.55481L10.9451 20.0547C11.2424 20.3516 11.5938 20.5003 12 20.5003C12.4062 20.5003 12.7579 20.3516 13.0546 20.0547L23.5545 9.55472C23.8511 9.2578 24 8.90638 24 8.50011C24 8.09393 23.8511 7.7425 23.5545 7.44526Z" fill="white"/>
</mask>
<g mask="url(#mask0_0_2656)">
</g>
</svg>
