<svg width="24" height="24" viewBox="0 0 24 24" fill="none" xmlns="http://www.w3.org/2000/svg">
<path fill-rule="evenodd" clip-rule="evenodd" d="M12.0828 0C12.0874 0.00295359 12.0918 0.00640746 12.0962 0.00983436L12.0962 0.00983868V0.00983964C12.103 0.0150818 12.1096 0.0202603 12.1167 0.0234876C12.4155 0.158007 12.5469 0.368328 12.5373 0.698222L12.5246 1.24698C12.5243 1.28091 12.5246 1.31484 12.5248 1.34878C12.5254 1.40986 12.5259 1.47095 12.5225 1.53203C12.5045 1.80961 12.2968 2.02527 12.0436 2.04449C11.7087 2.07118 11.5 1.8331 11.4703 1.59182C11.4583 1.49465 11.4567 1.39667 11.4552 1.2986L11.4544 1.25338C11.4512 1.07402 11.4491 0.894663 11.4491 0.715304C11.4491 0.645908 11.4491 0.575446 11.4607 0.507118C11.4978 0.288257 11.625 0.137723 11.8221 0.0437723C11.8507 0.0298933 11.8793 0.0149466 11.9079 0H12.0828ZM9.96357 20.802V20.945H9.81416L2.35634 20.9483C2.34889 20.9483 2.34143 20.948 2.33401 20.9478C2.31929 20.9473 2.30473 20.9468 2.29064 20.9483C2.25896 20.9518 2.22717 20.9547 2.19544 20.9575L2.19535 20.9575H2.19532C2.12203 20.9641 2.04901 20.9707 1.97805 20.9856C1.71419 21.0422 1.57432 21.2184 1.56478 21.4895C1.55737 21.7511 1.69724 21.9475 1.95156 22.0159C2.03845 22.0394 2.13064 22.049 2.22071 22.0511C2.50898 22.0545 2.79658 22.0552 3.08458 22.0559L3.30049 22.0564H6.2442C7.61645 22.0554 8.98764 22.0532 10.3599 22.0511L10.3662 22.0511C10.4351 22.0511 10.504 22.0468 10.5729 22.0372C10.8049 22.0063 10.9671 21.8579 11.0105 21.6262C11.0306 21.5226 11.0359 21.4159 11.0359 21.3102C11.0372 20.737 11.0373 20.1635 11.0375 19.59V19.59V19.5899V19.5899V19.5899V19.5899V19.5898V19.5898V19.5898V19.5898V19.5897V19.5897V19.5897V19.5897V19.5897V19.5896V19.5896V19.5896V19.5896V19.5895V19.5895V19.5895V19.5895C11.0375 19.2071 11.0376 18.8247 11.0381 18.4426C11.0381 18.4026 11.0399 18.3637 11.0419 18.3221L11.0423 18.3134H12.9497V18.4479V21.3038C12.9497 21.3806 12.9507 21.4586 12.9581 21.5344C12.9889 21.8248 13.1362 21.9881 13.4095 22.033C13.4986 22.0479 13.5897 22.0554 13.6808 22.0554C16.8608 22.0564 20.0419 22.0564 23.2219 22.0543C23.3406 22.0543 23.4614 22.0383 23.579 22.018C23.8407 21.9732 24.0007 21.7201 23.9923 21.5002C23.9827 21.2376 23.8344 21.039 23.5737 20.9867C23.4571 20.9632 23.3363 20.9504 23.2177 20.9493C22.3593 20.9461 21.5021 20.945 20.6438 20.945H14.1672H14.022V20.7999C14.022 19.855 14.022 18.9102 14.021 17.9653C14.021 17.8822 14.0153 17.799 14.0096 17.7159L14.0072 17.6803C13.9945 17.4625 13.8779 17.3226 13.6766 17.249L13.593 17.2184C13.5499 17.2027 13.5059 17.1867 13.4604 17.17V17.0461V15.6614C13.4604 15.5995 13.4593 15.5365 13.4551 15.4746C13.4339 15.166 13.2665 14.9835 12.9624 14.9418C12.8896 14.9318 12.8163 14.929 12.7428 14.9262C12.7147 14.9252 12.6865 14.9241 12.6583 14.9226C12.6329 14.9219 12.608 14.9221 12.5798 14.9224L12.53 14.9226L12.5303 14.8713V14.8713V14.8713V14.8712C12.5305 14.8423 12.5307 14.8168 12.53 14.7913C12.5295 14.7685 12.5291 14.7456 12.5288 14.7227V14.7227V14.7227V14.7227V14.7227V14.7226V14.7226V14.7226V14.7226V14.7226V14.7226V14.7226V14.7225V14.7225V14.7225V14.7225V14.7225V14.7225V14.7225V14.7224V14.7224V14.7224V14.7224C12.5279 14.6616 12.5269 14.6005 12.5216 14.5393C12.4972 14.2692 12.2874 14.0621 12.0225 14.045C11.7629 14.0269 11.5255 14.2116 11.4725 14.4796C11.4596 14.5472 11.4571 14.6172 11.4546 14.6876L11.4534 14.7198C11.4512 14.7651 11.4516 14.8109 11.452 14.8588V14.8589V14.8589V14.8589V14.8589V14.8589V14.859V14.859V14.859V14.859V14.859V14.859V14.8591V14.8591V14.8591V14.8591V14.8591V14.8591V14.8592V14.8592V14.8592V14.8592V14.8592C11.4522 14.8789 11.4524 14.8989 11.4524 14.9194L11.4119 14.9213L11.4117 14.9213L11.4115 14.9213C11.3872 14.9224 11.3663 14.9233 11.3453 14.9248C11.3182 14.9261 11.2911 14.9272 11.2641 14.9283L11.2638 14.9283C11.1819 14.9318 11.1001 14.9352 11.019 14.944C10.7488 14.9717 10.5983 15.1084 10.5474 15.3796C10.5284 15.4788 10.5241 15.5824 10.5241 15.6849C10.5225 16.0252 10.5227 16.3662 10.5229 16.7068L10.5231 17.0472V17.17C10.4914 17.1818 10.4611 17.1929 10.4318 17.2035C10.3692 17.2263 10.3113 17.2474 10.255 17.2714C10.1034 17.3376 10.006 17.4507 9.98688 17.6184C9.97204 17.7443 9.96463 17.8735 9.96463 18.0006C9.96304 18.7012 9.96323 19.4019 9.96343 20.1021L9.96357 20.802ZM12.3647 17.1539C12.2895 17.1774 11.7787 17.1838 11.6198 17.1614V16.0639C11.6972 16.0393 12.1931 16.0329 12.3552 16.0532C12.3764 16.1312 12.3838 16.9789 12.3647 17.1539ZM0.0151449 21.3774C0.0100013 21.3858 0.00485251 21.3942 0 21.4026V21.6226C0.00589639 21.6344 0.0123761 21.646 0.018844 21.6576L0.0188476 21.6576C0.0298139 21.6772 0.0407461 21.6968 0.0487439 21.7176C0.143053 21.9546 0.379355 22.0827 0.619895 22.0293C0.93779 21.9589 1.06813 21.6994 1.05965 21.4795C1.05011 21.2222 0.854077 21.0055 0.612477 20.967C0.376176 20.9297 0.139874 21.077 0.0466246 21.3194C0.0385269 21.3394 0.0268494 21.3584 0.0151449 21.3774ZM11.9627 22.8332C15.7393 22.8332 19.5148 22.8332 23.2914 22.8354C23.3953 22.8354 23.5012 22.8493 23.6019 22.8749C23.8223 22.9325 24.0215 23.1258 23.9982 23.4557C23.9781 23.7386 23.7587 23.9489 23.4747 23.951C22.9989 23.9542 22.5232 23.9564 22.0474 23.9585C21.1806 23.9612 20.3138 23.9636 19.447 23.966C18.5802 23.9684 17.7134 23.9708 16.8466 23.9735L14.9827 23.9799L14.2162 23.9833C13.7082 23.9857 13.2005 23.988 12.6928 23.9895C11.8864 23.9927 11.079 23.9959 10.2726 23.9969C8.84839 23.9991 7.42316 24.0012 5.99899 24.0001C5.21379 24.0001 4.42859 23.998 3.64339 23.9927C2.79673 23.9873 1.95007 23.9788 1.10341 23.966C0.915855 23.9638 0.726178 23.9532 0.539679 23.9254C0.32775 23.8923 0.159265 23.7856 0.0819109 23.5678C0.036346 23.4354 0.033167 23.3019 0.0744934 23.1685C0.135953 22.9688 0.302318 22.8439 0.524844 22.8332C0.592854 22.8295 0.660864 22.8305 0.728527 22.8314H0.728573H0.728618H0.728664H0.728709H0.728755H0.7288H0.728845H0.72889H0.728935H0.72898H0.729025H0.72907H0.729114H0.729159H0.729203H0.729247H0.729291H0.729336H0.72938C0.759475 22.8318 0.789501 22.8322 0.819427 22.8322H2.34638H11.9627V22.8332ZM16.6075 6.76816C16.5015 7.07243 16.6774 7.47706 17.1235 7.50375C17.1412 7.49952 17.1592 7.49571 17.1772 7.4919C17.2227 7.48225 17.2685 7.47254 17.3111 7.45571C17.4086 7.41834 17.4838 7.34894 17.54 7.26033L17.6178 7.13891C17.7636 6.91184 17.909 6.68537 18.0475 6.45428C18.0931 6.37848 18.1185 6.28453 18.1312 6.19592C18.1832 5.85001 17.843 5.5404 17.505 5.61834C17.3429 5.65463 17.221 5.74858 17.133 5.88524C16.9752 6.13079 16.8215 6.37955 16.6689 6.6283C16.6424 6.67101 16.6244 6.72012 16.6075 6.76816ZM18.8102 4.08481C18.807 3.93534 18.8642 3.80937 18.9564 3.70154C19.145 3.4784 19.3368 3.25847 19.5318 3.04175C19.6452 2.91684 19.785 2.8357 19.9609 2.83463C20.3276 2.8325 20.5851 3.19121 20.4632 3.54139C20.4378 3.61186 20.4017 3.68445 20.353 3.74104L20.3317 3.76612L20.3316 3.7662C20.1311 4.00235 19.93 4.23902 19.7162 4.46275C19.4322 4.75741 18.9585 4.64211 18.8398 4.2567C18.8282 4.21861 18.823 4.17902 18.8179 4.1393L18.8179 4.13916C18.8155 4.12103 18.8131 4.10287 18.8102 4.08481ZM16.0195 9.38094C16.1265 9.01688 15.8775 8.67311 15.4886 8.67524C15.2904 8.67951 15.1357 8.79375 15.0308 8.97311C14.8814 9.22827 14.7394 9.48877 14.6006 9.74927C14.5275 9.88592 14.5095 10.0311 14.5487 10.1849C14.6165 10.455 14.9121 10.6375 15.1802 10.5745C15.3201 10.5425 15.4271 10.4624 15.4971 10.3418C15.6265 10.1194 15.7514 9.8944 15.8763 9.66934L15.9803 9.48236C15.997 9.45351 16.0074 9.42002 16.0173 9.38794L16.0173 9.38792L16.0195 9.38094ZM13.5274 13.9095C13.1851 13.9084 12.9393 13.5988 13.0156 13.2497L13.018 13.2377C13.0223 13.2161 13.0266 13.1948 13.0346 13.1749C13.0678 13.0934 13.1006 13.0116 13.1334 12.9297L13.1335 12.9295L13.1336 12.9291C13.2253 12.7002 13.3171 12.4708 13.4193 12.2461C13.5136 12.0358 13.6948 11.9397 13.9237 11.9568C14.2543 11.9813 14.48 12.3123 14.4111 12.5963L14.4042 12.6245C14.3952 12.6613 14.3863 12.6981 14.3719 12.7329L14.3341 12.829L14.3341 12.8291L14.3341 12.8291L14.3341 12.8291L14.3341 12.8291L14.3341 12.8291L14.3341 12.8291L14.3341 12.8291L14.3341 12.8291L14.334 12.8292L14.334 12.8292L14.334 12.8292L14.334 12.8292L14.334 12.8292L14.334 12.8292L14.334 12.8292C14.2387 13.0717 14.1432 13.3145 14.0402 13.5539C14.0053 13.6351 13.9449 13.7098 13.8834 13.7739C13.7912 13.8689 13.6726 13.9137 13.5274 13.9095ZM12.5231 4.86663C12.5223 4.81265 12.5215 4.75872 12.5215 4.70488C12.5215 4.65021 12.5225 4.59533 12.5235 4.54041V4.54039C12.5258 4.41942 12.5281 4.29823 12.5193 4.17855C12.4897 3.78566 12.0467 3.56467 11.714 3.77179C11.5413 3.87855 11.4597 4.04082 11.4576 4.24047C11.4533 4.55115 11.4544 4.86182 11.4576 5.17357C11.4586 5.23442 11.4703 5.29741 11.4883 5.35613C11.5688 5.60168 11.8009 5.74261 12.0711 5.71165C12.3032 5.68602 12.5045 5.47784 12.5193 5.23122C12.5267 5.10998 12.5249 4.98822 12.5231 4.86666V4.86663ZM22.631 0.372171C22.9956 0.373239 23.2509 0.760784 23.1111 1.10349C23.0729 1.19637 23.0178 1.27858 22.9394 1.3405L22.8532 1.41053C22.6362 1.58695 22.4193 1.76332 22.1966 1.93303C22.1298 1.98427 22.044 2.02484 21.9624 2.03979C21.6064 2.10278 21.2969 1.76968 21.3648 1.41096C21.3923 1.26683 21.4612 1.15046 21.5703 1.05972C21.7939 0.872884 22.0196 0.689254 22.2496 0.508826C22.3788 0.406335 22.4933 0.371104 22.631 0.372171ZM2.56983 12.3613L2.56991 12.3613C2.65275 12.3679 2.73559 12.3745 2.81835 12.382C2.81835 12.3799 2.81861 12.378 2.81888 12.3761C2.81914 12.3743 2.81941 12.3724 2.81941 12.3703C2.84339 12.3703 2.86749 12.3709 2.89162 12.3715C2.94001 12.3726 2.98856 12.3738 3.03664 12.3703C3.28142 12.3521 3.48275 12.1578 3.51454 11.9187C3.55904 11.5866 3.30897 11.3261 2.99743 11.2962C2.86391 11.2824 2.7304 11.2685 2.59582 11.2589C2.55962 11.2564 2.52342 11.2538 2.48721 11.2511C2.34963 11.2409 2.21205 11.2307 2.07448 11.2333C1.71525 11.2397 1.50332 11.4735 1.52452 11.8236C1.53829 12.066 1.70996 12.2635 1.97381 12.3009C2.17139 12.3295 2.37056 12.3454 2.56982 12.3613H2.56983ZM6.93721 12.8674C6.93615 13.2912 6.5801 13.5346 6.21559 13.4076C6.09728 13.3669 5.98334 13.3156 5.86901 13.2642L5.86899 13.2642L5.83411 13.2485C5.6794 13.1791 5.52363 13.1076 5.37105 13.0318C5.20574 12.9496 5.07858 12.83 5.03196 12.641C4.93977 12.2641 5.26296 11.9161 5.6402 11.993C5.75252 12.0165 5.86272 12.057 5.96763 12.104C6.19015 12.2033 6.41056 12.3047 6.62567 12.4168C6.82488 12.5204 6.92873 12.6923 6.93721 12.8674ZM9.07293 13.9721C8.96697 13.8739 8.83663 13.8162 8.70629 13.8184C8.36826 13.8162 8.10865 14.1397 8.17329 14.4536C8.20084 14.5881 8.26972 14.6992 8.36508 14.7921C8.57066 14.9938 8.77835 15.1935 8.98816 15.3899C9.03796 15.4358 9.09836 15.4753 9.16088 15.5031C9.47454 15.644 9.82422 15.4636 9.89098 15.1251C9.92913 14.9362 9.8772 14.7632 9.74581 14.6287C9.52752 14.4034 9.30181 14.1856 9.07293 13.9721ZM14.0836 15.0188C14.0783 14.8747 14.1323 14.7434 14.2351 14.6377C14.4513 14.4167 14.6717 14.1989 14.8963 13.9854C15.0097 13.8775 15.1485 13.8177 15.3107 13.8209C15.6603 13.8295 15.9168 14.2 15.7896 14.5266C15.7547 14.6163 15.7006 14.706 15.6339 14.7743C15.4283 14.9857 15.2164 15.1918 15.0002 15.3925C14.8656 15.5174 14.7014 15.5686 14.517 15.5387C14.2637 15.4971 14.0846 15.2857 14.0836 15.0188ZM12.5248 8.52578V8.52578V8.52577V8.52576C12.5242 8.47453 12.5235 8.42323 12.5235 8.37183H12.5213C12.5213 8.31999 12.5221 8.26806 12.5228 8.21609C12.5246 8.09252 12.5264 7.96874 12.5182 7.84549C12.5023 7.60101 12.3094 7.40563 12.0657 7.3672C11.8294 7.32983 11.5846 7.46969 11.4998 7.7003C11.4712 7.77716 11.4575 7.86471 11.4564 7.94692C11.4525 8.15417 11.4532 8.36142 11.4538 8.56908C11.454 8.64703 11.4543 8.72505 11.4543 8.80315C11.4543 8.83306 11.4579 8.86358 11.4615 8.89379L11.4615 8.8938V8.89381V8.89382V8.89383V8.89384V8.89386V8.89387L11.4649 8.92272C11.4903 9.16507 11.7107 9.40742 12.0307 9.38606C12.2946 9.36791 12.5065 9.15866 12.5213 8.87574C12.528 8.75921 12.5264 8.64268 12.5248 8.52578ZM11.4542 12.0393L11.4539 11.8964C11.4537 11.8014 11.4535 11.7065 11.4542 11.6112C11.4552 11.5119 11.4711 11.4137 11.5188 11.3251C11.6258 11.1254 11.7943 11.0261 12.0168 11.0347C12.2298 11.0432 12.3782 11.1553 12.4598 11.3539C12.5085 11.4724 12.5414 11.5952 12.5414 11.7254C12.5403 11.9411 12.5414 12.1578 12.5424 12.3735C12.5424 12.4994 12.5128 12.6201 12.4661 12.7354C12.3729 12.9681 12.179 13.0781 11.9162 13.0525C11.7032 13.0322 11.5125 12.8518 11.4711 12.6308C11.4605 12.5731 11.4552 12.5144 11.4552 12.4567C11.453 12.3568 11.4534 12.2574 11.4538 12.1582C11.454 12.1186 11.4542 12.0789 11.4542 12.0393ZM17.0413 13.0486C17.1155 13.2622 17.3168 13.402 17.5552 13.4148C17.5788 13.4093 17.6029 13.4048 17.6271 13.4003C17.6778 13.3908 17.7286 13.3813 17.7746 13.3625C18.049 13.2472 18.3224 13.1308 18.5915 13.0059C18.6689 12.9696 18.741 12.9141 18.8014 12.8522C18.937 12.7145 18.9826 12.5458 18.9232 12.359C18.8607 12.1614 18.7388 12.0227 18.5301 11.9735C18.3966 11.9415 18.2694 11.965 18.1476 12.0173C17.8997 12.1235 17.6528 12.2351 17.4067 12.3463L17.4067 12.3463L17.4067 12.3463L17.4064 12.3464L17.3433 12.375C17.3041 12.3931 17.267 12.4177 17.232 12.4433C17.0392 12.5906 16.965 12.8276 17.0413 13.0486ZM21.1954 12.3674L21.1238 12.3671C21.0787 12.3669 21.0356 12.3667 20.993 12.3674C20.7334 12.3727 20.5395 12.2222 20.4802 11.9692C20.4039 11.6478 20.6296 11.3297 20.9655 11.2987C21.2178 11.2748 21.4709 11.2586 21.7233 11.2425L21.8121 11.2368C21.8551 11.2339 21.8986 11.2377 21.9422 11.2415C21.9642 11.2434 21.9862 11.2453 22.0082 11.2464C22.2561 11.2603 22.52 11.4941 22.4532 11.8784C22.4108 12.125 22.2667 12.2574 22.022 12.283C21.8488 12.301 21.6757 12.3186 21.5041 12.336L21.1954 12.3674ZM7.18993 7.25211C7.38809 7.1699 7.54492 6.94784 7.55763 6.74926C7.5498 6.72525 7.54383 6.69992 7.53786 6.67458C7.52524 6.62104 7.5126 6.56744 7.4824 6.52613C7.29491 6.26562 7.10072 6.01035 6.90669 5.75531L6.79468 5.60798C6.74276 5.53965 6.67176 5.49588 6.58911 5.47239C6.31572 5.39552 6.01796 5.56528 5.93107 5.85033C5.88974 5.98592 5.8961 6.11937 5.97557 6.24001C6.17903 6.55175 6.39202 6.85602 6.64527 7.12933C6.79892 7.29482 6.9886 7.33645 7.18993 7.25211ZM4.12511 2.82951C4.20988 2.82737 4.30843 2.8594 4.3879 2.93734L4.49474 3.04278L4.4948 3.04284C4.72869 3.27361 4.96323 3.50502 5.19218 3.74125C5.28649 3.83734 5.30768 3.96545 5.28543 4.09784C5.26105 4.23983 5.19324 4.36047 5.08621 4.45442C4.90289 4.61563 4.65599 4.62631 4.46632 4.4747C4.16644 4.23556 3.90258 3.95691 3.65462 3.66438C3.5529 3.54588 3.53806 3.40068 3.57621 3.25015C3.63873 3.00566 3.85384 2.83271 4.12511 2.82951ZM1.64977 0.453737C1.57771 0.393951 1.49188 0.366193 1.39757 0.370463C1.30326 0.36726 1.21849 0.395018 1.13796 0.440926C0.830659 0.619218 0.753305 1.07082 1.03411 1.29716C1.08704 1.34014 1.13694 1.38756 1.18689 1.43504L1.18689 1.43504C1.23496 1.48072 1.28307 1.52645 1.33399 1.56833C1.50354 1.70605 1.6752 1.84164 1.8511 1.97189C1.95601 2.04983 2.07787 2.08185 2.21138 2.05089C2.44239 1.99751 2.61087 1.80214 2.64054 1.55445C2.65749 1.41673 2.63312 1.28328 2.52822 1.19253C2.28627 0.981026 2.0391 0.776294 1.79171 0.571386L1.64977 0.453737ZM8.6194 8.66297C8.76245 8.67364 8.87901 8.72382 8.96485 8.83592C9.19055 9.13272 9.4152 9.42845 9.63666 9.72845C9.71932 9.84162 9.72673 9.974 9.68223 10.1053C9.59958 10.353 9.38871 10.511 9.15558 10.5099C9.01253 10.5099 8.89173 10.4544 8.80272 10.3434C8.63 10.1267 8.46045 9.90781 8.29091 9.68788C8.26866 9.65905 8.24879 9.62836 8.22892 9.59767C8.20905 9.56697 8.18918 9.53628 8.16693 9.50745C7.955 9.23094 8.11077 8.8498 8.39158 8.72702C8.43908 8.70631 8.49086 8.69419 8.54279 8.68205L8.5428 8.68204L8.54284 8.68204C8.56849 8.67603 8.59418 8.67003 8.6194 8.66297ZM9.84753 13.2407C9.9376 13.3944 10.0722 13.4734 10.2523 13.4692C10.2598 13.4692 10.2671 13.4693 10.2744 13.4694C10.2889 13.4696 10.3032 13.4699 10.318 13.4692C10.5405 13.4532 10.7122 13.325 10.762 13.1265C10.78 13.0539 10.7885 12.9738 10.78 12.8991C10.7514 12.6364 10.637 12.4026 10.5088 12.1774C10.4081 11.9991 10.2449 11.9361 10.0467 11.9553C9.73415 11.9841 9.49891 12.2991 9.5805 12.5937C9.64302 12.819 9.72991 13.0368 9.84753 13.2407Z" fill="#0C1E3C"/>
</svg>
