<svg width="24" height="24" viewBox="0 0 24 24" fill="none" xmlns="http://www.w3.org/2000/svg">
<path fill-rule="evenodd" clip-rule="evenodd" d="M11.3203 3.14062L12 1.59375L12.6797 3.14062L15.1172 8.60156L21.0703 9.23438L22.7578 9.42188L21.4922 10.5469L17.0625 14.5547L18.3047 20.4141L18.6562 22.0547L17.1797 21.2109L12 18.2109L6.82031 21.2109L5.34375 22.0547L5.69531 20.4141L6.9375 14.5547L2.50781 10.5469L1.24219 9.42188L2.92969 9.23438L8.88281 8.60156L11.3203 3.14062ZM13.9219 9.60938L12 5.27344L10.0781 9.60938L9.89062 10.0078L9.46875 10.0547L4.75781 10.5469L8.27344 13.7109L8.60156 14.0156L8.50781 14.4375L7.52344 19.0547L11.625 16.7109L12 16.4766L12.375 16.7109L16.4766 19.0547L15.4922 14.4375L15.3984 14.0156L15.7266 13.7109L19.2422 10.5469L14.5312 10.0547L14.1094 10.0078L13.9219 9.60938Z" fill="#0C1E3C"/>
</svg>
