<svg width="24" height="24" viewBox="0 0 24 24" fill="none" xmlns="http://www.w3.org/2000/svg">
<path fill-rule="evenodd" clip-rule="evenodd" d="M13.8543 11.1675L13.8541 11.1673L13.8541 11.1672C13.6806 10.9982 13.5131 10.8349 13.3489 10.6677C13.0868 10.4004 13.1634 9.97107 13.4955 9.81862C13.698 9.7251 13.9212 9.7656 14.0905 9.93277C14.242 10.0829 14.392 10.2344 14.5393 10.3832L14.5393 10.3832L14.5394 10.3833C14.6255 10.4703 14.7106 10.5563 14.7946 10.6405C15.288 10.1463 15.7755 9.65882 16.2726 9.16172C16.1983 9.08795 16.122 9.01308 16.0445 8.93713C15.8846 8.78034 15.72 8.61898 15.5597 8.45327C15.2688 8.15207 15.4007 7.6756 15.802 7.57471C15.9935 7.52684 16.1643 7.57913 16.305 7.72126C16.5429 7.9606 16.7807 8.20068 17.0083 8.43044C17.2544 8.18398 17.4988 7.93953 17.7462 7.69215L17.7472 7.6912C17.9947 7.44365 18.2452 7.19315 18.5033 6.93475C18.4864 6.92089 18.4673 6.90595 18.447 6.89L18.4469 6.88998C18.3981 6.85169 18.3419 6.8076 18.2904 6.75874C18.1203 6.59451 17.9539 6.42661 17.7882 6.25796C17.565 6.03114 17.5599 5.70269 17.7734 5.49502C17.987 5.2866 18.3015 5.29544 18.5268 5.51858C18.7905 5.77928 19.0534 6.04071 19.3133 6.30509C19.3664 6.35885 19.4113 6.37064 19.4842 6.34486C19.6503 6.28635 19.8175 6.23126 19.9848 6.17616C20.1186 6.13208 20.2524 6.08801 20.3856 6.04219C20.9055 5.86323 21.3628 5.58118 21.7568 5.19676C22.0153 4.94564 22.0234 4.59509 21.7686 4.33955C21.0705 3.63773 20.3701 2.93811 19.6683 2.23924C19.412 1.9837 19.0637 1.99106 18.8111 2.24881C18.4083 2.66048 18.1225 3.14358 17.9414 3.68854C17.8951 3.8282 17.8497 3.96812 17.8043 4.10803C17.718 4.37389 17.6317 4.63972 17.54 4.90366C17.5091 4.99277 17.4546 5.08188 17.3883 5.14889C16.1551 6.38423 14.9207 7.61762 13.6863 8.85105L13.6852 8.85222L12.2966 10.2399C12.1839 10.3525 12.0639 10.4431 11.896 10.4468C11.6662 10.4512 11.4732 10.3363 11.3893 10.1338C11.3009 9.92025 11.3385 9.72289 11.499 9.5594C11.7245 9.32853 11.9536 9.10039 12.1824 8.87243L12.1828 8.87198C12.2685 8.78668 12.3541 8.70141 12.4395 8.61603L13.1727 7.88286L13.1728 7.88281C14.2715 6.7843 15.3699 5.68614 16.4663 4.58552C16.5318 4.51924 16.5856 4.43087 16.6172 4.34323C16.6808 4.16704 16.7406 3.9893 16.8003 3.81156C16.9 3.51531 16.9996 3.21907 17.1165 2.93001C17.3507 2.3497 17.7042 1.83935 18.1696 1.41885C18.7868 0.860633 19.7235 0.85695 20.3259 1.42842C20.8185 1.89639 21.297 2.3796 21.7754 2.86263C21.9279 3.01661 22.0804 3.17057 22.2333 3.32401C22.2576 3.34835 22.2822 3.37262 22.3067 3.39692L22.3069 3.39713L22.3069 3.39714C22.439 3.52787 22.5719 3.65938 22.6818 3.80711C23.1752 4.46916 23.0831 5.37571 22.4866 5.95013C21.9122 6.50393 21.2384 6.88172 20.4806 7.11812C20.1934 7.20723 19.9084 7.3037 19.6241 7.40238C19.5652 7.423 19.5055 7.45761 19.4614 7.5018C18.2775 8.68446 17.0951 9.86815 15.9126 11.052L15.911 11.0536L15.2011 11.7643C14.9566 12.0095 14.7114 12.254 14.4632 12.4956C14.2378 12.7165 13.9182 12.7194 13.7098 12.5066C13.5021 12.296 13.5088 11.9756 13.7297 11.7532C13.8096 11.6718 13.8931 11.594 13.9818 11.5114L13.9819 11.5113C14.0191 11.4767 14.0573 11.4412 14.0964 11.4042C14.0143 11.3235 13.9337 11.2449 13.8543 11.1675ZM2.92265 20.9696C4.25339 22.3202 5.88091 22.9837 7.76987 23.0176C8.31188 23.0228 8.8458 22.9616 9.36719 22.8254C11.5323 22.2605 13.084 20.9593 13.9986 18.9164C14.4213 17.973 14.5966 16.9774 14.5458 15.9441C14.5416 15.8655 14.5836 15.8407 14.6334 15.8114L14.6393 15.8079C15.3824 15.3653 15.9539 14.7607 16.3537 13.9941C16.6491 13.4277 16.8251 12.8268 16.8634 12.1883C16.8788 11.9269 16.7286 11.7155 16.4959 11.6485C16.1542 11.5491 15.8493 11.7818 15.8154 12.1648C15.7477 12.9432 15.4531 13.6266 14.9413 14.2165C14.6217 14.5847 14.2336 14.8623 13.7946 15.0729C13.5678 15.1819 13.4485 15.3844 13.4736 15.6127C13.5443 16.2417 13.5037 16.8632 13.3705 17.4811C12.757 20.3208 10.0204 22.2767 7.1299 21.9336C5.90595 21.7885 4.8175 21.3201 3.91905 20.4732C2.32835 18.9738 1.72447 17.1239 2.18327 14.9927C2.79451 12.15 5.40444 10.2729 8.29126 10.521C8.66979 10.5534 8.79719 10.4791 8.96952 10.1425C9.36498 9.36999 9.95929 8.80956 10.7561 8.46344C11.1332 8.29995 11.5301 8.22557 11.9359 8.17623C12.2297 8.14014 12.4131 7.89049 12.3866 7.60696C12.3601 7.33006 12.1207 7.11871 11.8254 7.14743C11.5397 7.17541 11.2503 7.21444 10.9734 7.28882C9.77076 7.61138 8.84506 8.31247 8.197 9.37662C8.16312 9.43332 8.13219 9.46572 8.0556 9.46057C7.57397 9.42669 7.09456 9.46646 6.62103 9.54968C5.46924 9.75293 4.41909 10.2022 3.52285 10.9555C1.54184 12.6206 0.72145 14.7548 1.08304 17.3139C1.28261 18.7271 1.91889 19.9511 2.92265 20.9696ZM9.99243 16.6297C8.55932 16.6312 7.37956 15.4602 7.37808 14.0345C7.37735 12.5793 8.55122 11.401 9.99758 11.4054C11.4277 11.4098 12.5987 12.583 12.6016 14.0153C12.6053 15.4499 11.4292 16.6282 9.99243 16.6297ZM8.42677 14.0161C8.42603 14.8777 9.12417 15.5795 9.98359 15.5817C10.8489 15.5832 11.5566 14.8777 11.5544 14.0153C11.5515 13.1581 10.8445 12.4526 9.98874 12.4541C9.12859 12.4548 8.4275 13.1559 8.42677 14.0161ZM7.98527 18.9234C8.19074 18.8335 8.28942 18.6634 8.30341 18.4491C8.29384 18.2886 8.23492 18.1604 8.1252 18.0522C7.84996 17.779 7.57617 17.5048 7.3023 17.2304C7.18487 17.1128 7.06742 16.9951 6.94985 16.8776C6.83742 16.7654 6.72515 16.653 6.61289 16.5405C6.38836 16.3157 6.16383 16.0908 5.93798 15.8679C5.78333 15.7147 5.59628 15.6639 5.3886 15.7398C5.1824 15.8142 5.06531 15.9688 5.04174 16.1861C5.0226 16.3643 5.09771 16.5086 5.22291 16.6338C5.54929 16.9588 5.8751 17.2847 6.20088 17.6105C6.39626 17.8059 6.59162 18.0013 6.78709 18.1965C6.83956 18.2492 6.89183 18.302 6.94411 18.3548C7.10098 18.5134 7.25785 18.6719 7.41969 18.8254C7.58244 18.9794 7.77907 19.0132 7.98527 18.9234Z" fill="#0C1E3C"/>
</svg>
