<svg width="24" height="24" viewBox="0 0 24 24" fill="none" xmlns="http://www.w3.org/2000/svg">
<path fill-rule="evenodd" clip-rule="evenodd" d="M12 2.25C9.58008 2.25 7.46777 3.94336 6.90234 6.25781C5.96777 6.62109 5.21191 7.34766 4.81348 8.26172C2.19141 8.06836 0 10.166 0 12.75C0 15.2314 2.01855 17.25 4.5 17.25V15.75C2.84473 15.75 1.5 14.4053 1.5 12.75C1.5 11.0947 2.84473 9.75 4.5 9.75C4.70801 9.75 4.9248 9.77637 5.16211 9.8291L5.89453 9.99609L6.05859 9.26074C6.24023 8.43164 6.89941 7.7666 7.72852 7.57031L8.22363 7.45312L8.29688 6.94922C8.56348 5.12402 10.1572 3.75 12 3.75C13.4209 3.75 14.7041 4.54102 15.3457 5.8125L15.6416 6.39844L16.2627 6.18164C16.6143 6.06152 16.9365 6 17.25 6C18.9053 6 20.25 7.34473 20.25 9C20.25 9.0293 20.2441 9.05566 20.2383 9.08203C20.2324 9.13477 20.2266 9.1875 20.2236 9.2373L20.1768 9.77637L20.6748 9.99023C21.7852 10.4619 22.5 11.5459 22.5 12.75C22.5 14.4053 21.1553 15.75 19.5 15.75H17.5928C17.7891 15.9668 17.9619 16.2012 18.1113 16.4531C18.2607 16.7051 18.3867 16.9717 18.4863 17.25H19.5C21.9814 17.25 24 15.2344 24 12.75C24 11.127 23.1299 9.65039 21.7471 8.85059C21.668 6.43945 19.6816 4.5 17.25 4.5C16.957 4.5 16.667 4.53223 16.3711 4.59375C15.4014 3.13477 13.7783 2.25 12 2.25ZM8.24023 12.7881C8.48224 12.5197 8.86486 12.4289 9.20215 12.5586C9.53932 12.6883 9.76173 13.0118 9.76172 13.373V15.2031H10.2617C10.5482 15.2031 10.9623 15.2915 11.1387 15.6787C11.3153 16.0671 11.1076 16.4359 10.917 16.6523L8.46777 19.4434L8.46289 19.4482C8.22096 19.7163 7.83902 19.8081 7.50195 19.6787C7.16475 19.549 6.94233 19.2245 6.94238 18.8633V17.0332H6.44238C6.1559 17.0332 5.74182 16.9448 5.56543 16.5576C5.38852 16.1687 5.59627 15.7983 5.78711 15.582L8.23633 12.793L8.24023 12.7881ZM6.72266 16.0332H7.44238C7.71834 16.0334 7.94238 16.2572 7.94238 16.5332V18.5244L9.98145 16.2031H9.26172C8.9857 16.203 8.76172 15.9792 8.76172 15.7031V13.71L6.72266 16.0332ZM15.2021 13.5586C14.8649 13.4289 14.4822 13.5197 14.2402 13.7881L14.2363 13.793L11.7871 16.582C11.5963 16.7983 11.3885 17.1687 11.5654 17.5576C11.7418 17.9448 12.1559 18.0332 12.4424 18.0332H12.9424V19.8633C12.9423 20.2245 13.1648 20.549 13.502 20.6787C13.839 20.8081 14.221 20.7163 14.4629 20.4482L14.4678 20.4434L16.917 17.6523C17.1076 17.4359 17.3153 17.0671 17.1387 16.6787C16.9623 16.2915 16.5482 16.2031 16.2617 16.2031H15.7617V14.373C15.7617 14.0118 15.5393 13.6883 15.2021 13.5586ZM13.4424 17.0332H12.7227L14.7617 14.71V16.7031C14.7617 16.9792 14.9857 17.203 15.2617 17.2031H15.9814L13.9424 19.5244V17.5332C13.9424 17.2572 13.7183 17.0334 13.4424 17.0332Z" fill="#0C1E3C"/>
</svg>
