<svg width="24" height="24" viewBox="0 0 24 24" fill="none" xmlns="http://www.w3.org/2000/svg">
<path fill-rule="evenodd" clip-rule="evenodd" d="M22.5859 6.369L21.9912 7.09566C23.2501 8.73244 24 10.7802 24 13C24 18.3503 19.6472 22.7032 14.2969 22.7032C10.7971 22.7032 7.72448 20.8405 6.01744 18.0547H2.50003V16.6485H5.30634C5.09817 16.1373 4.93242 15.6046 4.81341 15.0547H0V13.6485H4.61592C4.60172 13.434 4.59375 13.218 4.59375 13C4.59375 12.6811 4.60969 12.3659 4.63987 12.0547H2.50003V10.6485H4.88245C5.20959 9.33919 5.80331 8.13464 6.60253 7.09561L6.00787 6.36895C5.64028 5.9198 5.46961 5.35434 5.52727 4.7768C5.58497 4.19925 5.86416 3.6787 6.31331 3.31111C6.76252 2.94352 7.32806 2.7728 7.90552 2.83055C8.48311 2.88825 9.00361 3.16739 9.3712 3.61655L9.95175 4.32595C10.3973 4.1018 10.8624 3.91106 11.3438 3.75694V1.40625H10.0469V0H18.5468V1.40625H17.25V3.75694C17.7314 3.91106 18.1964 4.1018 18.642 4.32595L19.2225 3.61655C19.5901 3.16739 20.1107 2.8882 20.6882 2.83055C21.2661 2.7728 21.8313 2.94356 22.2804 3.31116C22.7295 3.6787 23.0087 4.19925 23.0664 4.7768C23.1241 5.35439 22.9535 5.91984 22.5859 6.369ZM14.2969 4.70316C9.72192 4.70316 6 8.42513 6 13C6 17.5749 9.72192 21.2969 14.2969 21.2969C18.8718 21.2969 22.5938 17.5749 22.5938 13C22.5938 8.42513 18.8718 4.70316 14.2969 4.70316ZM15.8438 1.40625V3.4207C15.3398 3.33966 14.8233 3.29686 14.2969 3.29686C13.7705 3.29686 13.2539 3.33961 12.75 3.4207V1.40625H15.8438ZM20.828 4.22986C20.6243 4.2502 20.4406 4.34869 20.3109 4.50717L19.8618 5.05589C20.2812 5.35059 20.6762 5.67764 21.0434 6.03333L21.4976 5.47837C21.7653 5.15123 21.717 4.66716 21.3898 4.39941C21.2314 4.26975 21.0319 4.20928 20.828 4.22986ZM6.92662 4.91653C6.94702 4.71277 7.0455 4.52911 7.20398 4.39941C7.36247 4.26966 7.56225 4.20947 7.76578 4.22981C7.96959 4.25016 8.15325 4.34864 8.28291 4.50712L8.73197 5.05584C8.31258 5.35055 7.91756 5.67755 7.55034 6.03323L7.09622 5.47828C6.96647 5.31984 6.90628 5.12034 6.92662 4.91653ZM20.2031 12.2969H15V7.09378H14.2969C11.0401 7.09378 8.39062 9.7433 8.39062 13C8.39062 16.2568 11.0401 18.9063 14.2969 18.9063C17.5536 18.9063 20.2031 16.2568 20.2031 13V12.2969ZM9.79688 13C9.79688 10.7579 11.4452 8.89345 13.5938 8.55488V13.7032H18.742C18.4035 15.8517 16.539 17.5 14.2969 17.5C11.8155 17.5 9.79688 15.4813 9.79688 13Z" fill="#0092C9"/>
</svg>
