<svg width="24" height="24" viewBox="0 0 24 24" fill="none" xmlns="http://www.w3.org/2000/svg">
<path fill-rule="evenodd" clip-rule="evenodd" d="M16.2841 19.222L17.2273 20.7315C17.6267 21.3708 18.0191 21.9989 18.4117 22.627C18.4447 22.6797 18.4774 22.7326 18.51 22.7854L18.5101 22.7855L18.5102 22.7857L18.5102 22.7858L18.5103 22.7858C18.5739 22.889 18.6375 22.992 18.704 23.0932C18.8903 23.3766 19.0459 23.6867 18.6762 23.915C18.304 24.1452 18.1052 23.8547 17.9289 23.5695C17.8585 23.4557 17.7886 23.3416 17.7187 23.2275C17.4487 22.7868 17.1786 22.3459 16.8834 21.9229C16.7817 21.7774 16.5545 21.6354 16.3835 21.6342C13.6121 21.6164 10.8402 21.617 8.06888 21.6342C7.8973 21.6354 7.66773 21.772 7.56538 21.9164C7.35063 22.2195 7.15563 22.5362 6.96056 22.853C6.84068 23.0476 6.72077 23.2424 6.59624 23.434C6.56716 23.4788 6.53888 23.5275 6.51017 23.5769C6.35016 23.8525 6.17678 24.1511 5.77797 23.9139C5.36167 23.6659 5.56379 23.3584 5.74654 23.0804L5.74656 23.0803L5.74657 23.0803L5.74659 23.0803C5.77005 23.0446 5.79319 23.0094 5.81465 22.9749C6.39486 22.0413 6.97848 21.11 7.57974 20.1506L7.57995 20.1503L8.15822 19.2273L7.87527 19.1989C7.69925 19.1812 7.54136 19.1653 7.38374 19.1492C5.48214 18.9581 4.02962 17.45 4.01542 15.5525C3.99216 12.3589 4.00005 9.16529 4.00794 5.97168L4.01128 4.58315C4.01305 3.82879 4.35976 3.20103 4.86031 2.65907C6.06433 1.35506 7.61744 0.690623 9.30722 0.332077C12.2135 -0.28384 15.0481 -0.0856345 17.7289 1.28702C18.2715 1.5651 18.7755 1.94317 19.2418 2.34017C20.0719 3.0472 20.4594 3.94357 20.4464 5.07186C20.4073 8.42657 20.3831 11.7836 20.4505 15.1378C20.4955 17.3589 18.8957 19.222 16.5734 19.1835C16.5326 19.1828 16.4919 19.1895 16.428 19.2L16.4279 19.2C16.3898 19.2062 16.3435 19.2138 16.2841 19.222ZM4.93072 10.0459H4.91001C4.91001 9.55452 4.91257 9.06305 4.91513 8.57158V8.57157V8.57156V8.57156V8.57155C4.92127 7.39203 4.92741 6.21257 4.89817 5.034C4.87687 4.16899 5.21175 3.51935 5.8259 2.9697C6.9962 1.92246 8.4079 1.3947 9.92314 1.12963C12.3975 0.697723 14.8114 0.875812 17.1047 1.98162C17.5076 2.17628 17.8946 2.41827 18.2549 2.68452C19.1027 3.31227 19.5743 4.08912 19.5536 5.22924C19.5121 7.57056 19.5196 9.91248 19.5271 12.2544V12.2544V12.2544V12.2544V12.2544C19.5301 13.2195 19.5332 14.1846 19.5329 15.1496C19.5317 17.1228 18.3951 18.2706 16.4344 18.273C13.6281 18.2759 10.8219 18.2759 8.01563 18.2724C6.04777 18.2694 4.9106 17.1263 4.91178 15.1549C4.91178 14.6713 4.91655 14.1876 4.92133 13.7039L4.92133 13.7039L4.92133 13.7038L4.92133 13.7038L4.92133 13.7038C4.92496 13.336 4.92859 12.9681 4.93012 12.6001C4.93256 12.0148 4.93193 11.4295 4.93129 10.8441C4.931 10.5781 4.93072 10.312 4.93072 10.0459ZM16.119 20.6875H8.32329C8.40707 20.5525 8.48723 20.421 8.56551 20.2926L8.56553 20.2926C8.77194 19.954 8.96531 19.6368 9.17765 19.3326C9.24391 19.238 9.43443 19.1895 9.56814 19.1889C11.3378 19.18 13.1075 19.18 14.8771 19.1895C15.0108 19.19 15.2007 19.2386 15.2664 19.3332C15.48 19.6398 15.6746 19.9596 15.8824 20.3009L15.8825 20.3011C15.959 20.4269 16.0373 20.5555 16.119 20.6875ZM10.4554 4.53753H10.4561H10.4568C10.9018 4.53733 11.3497 4.53712 11.8014 4.53712V9.6106H10.201C9.89878 9.6106 9.59653 9.60985 9.29427 9.60909H9.29424H9.29422C8.49404 9.60709 7.69381 9.60509 6.8942 9.61711C6.53388 9.62243 6.38714 9.51712 6.39247 9.13491C6.40963 7.76522 6.40371 6.39552 6.39602 5.02583C6.39424 4.73888 6.43448 4.53357 6.78947 4.53475C8.00391 4.53867 9.21866 4.53811 10.4554 4.53753ZM14.019 9.61059C13.5609 9.61089 13.1001 9.61119 12.6357 9.61119V4.53239L13.0914 4.53225H13.0927H13.0931C13.3912 4.53212 13.6856 4.53199 13.9799 4.53239C14.3182 4.53239 14.6564 4.53316 14.9947 4.53393C15.8403 4.53586 16.686 4.5378 17.5316 4.52765C17.9168 4.52292 18.0576 4.65664 18.0517 5.05305C18.0369 6.07574 18.0401 7.09844 18.0433 8.12139C18.0443 8.44954 18.0454 8.77771 18.0458 9.10592L18.0459 9.14093C18.0467 9.38764 18.0474 9.61528 17.6807 9.61415C16.4668 9.60897 15.2529 9.60977 14.0196 9.61059H14.0193H14.019ZM10.524 10.4062C11.073 10.406 11.6221 10.4058 12.1712 10.4058V10.4082C12.6808 10.4082 13.1904 10.4084 13.7 10.4086H13.7009C15.0257 10.4092 16.3506 10.4098 17.6754 10.4064C18.4505 10.4046 18.8374 10.0123 18.8398 9.23312C18.8439 7.79776 18.8439 6.36239 18.8398 4.92702C18.8374 4.13716 18.4677 3.75495 17.679 3.75435C14.0414 3.74962 10.4039 3.75021 6.76581 3.75495C5.9789 3.75613 5.60556 4.13775 5.6032 4.92643C5.59905 6.34464 5.60024 7.76344 5.6026 9.18224C5.60379 10.0265 5.97831 10.404 6.81906 10.4052C8.05396 10.4072 9.28886 10.4067 10.524 10.4062ZM8.56919 15.4395C8.55854 15.0052 8.19407 14.6567 7.75979 14.6644C7.3196 14.6721 6.98295 15.0235 6.99064 15.4679C6.99833 15.9151 7.33617 16.2382 7.78997 16.2317C8.23667 16.2252 8.57983 15.8761 8.56919 15.4395ZM7.76512 13.8763C8.65143 13.8686 9.35018 14.5579 9.35668 15.446C9.36319 16.3323 8.66977 17.0298 7.78169 17.0304C6.88118 17.031 6.20018 16.3571 6.19604 15.4625C6.19249 14.5673 6.86816 13.8834 7.76512 13.8763ZM17.4515 15.4625C17.4467 15.9109 17.1095 16.2387 16.6592 16.2328C16.2119 16.2269 15.8676 15.882 15.8723 15.4441C15.8771 15.0134 16.2403 14.662 16.6776 14.6649C17.119 14.6679 17.4568 15.0158 17.4515 15.4625ZM16.6811 17.0298C17.5745 17.0262 18.2514 16.3405 18.2467 15.4435C18.2413 14.5489 17.5562 13.8721 16.6592 13.8762C15.7718 13.8804 15.0801 14.5797 15.0878 15.4648C15.0961 16.3571 15.7848 17.0333 16.6811 17.0298Z" fill="#0C1E3C"/>
</svg>
