<svg width="24" height="24" viewBox="0 0 24 24" fill="none" xmlns="http://www.w3.org/2000/svg">
<path fill-rule="evenodd" clip-rule="evenodd" d="M17.954 3.001C15.918 3 13.881 3 11.845 3C9.77702 3 7.70902 3 5.64202 3.001C5.17602 3.001 5.00402 3.175 5.00402 3.639C5.00402 4.3725 5.00427 5.106 5.00452 5.8395C5.00527 8.04 5.00602 10.2405 5.00002 12.441C4.99802 13.073 5.14302 13.653 5.43902 14.208C5.87379 15.0254 6.30352 15.8456 6.73318 16.6657C7.02 17.2132 7.30679 17.7606 7.59502 18.307C7.78902 18.676 7.89702 19.062 7.88802 19.48C7.88358 19.6978 7.88545 19.9156 7.88733 20.1333C7.88756 20.1606 7.8878 20.1878 7.88802 20.215C7.89102 20.661 8.07502 20.85 8.51602 20.85C10.728 20.851 12.941 20.851 15.153 20.85C15.585 20.85 15.767 20.663 15.772 20.227C15.774 20.007 15.776 19.787 15.772 19.567C15.762 19.099 15.871 18.666 16.093 18.249C16.5383 17.4118 16.9784 16.5719 17.4185 15.732C17.6949 15.2045 17.9713 14.677 18.249 14.15C18.49 13.694 18.653 13.216 18.653 12.697C18.657 9.644 18.656 6.59 18.655 3.536C18.655 3.234 18.479 3.043 18.18 3.008C18.1165 3.00038 18.0523 3.00065 17.9887 3.00091C17.9771 3.00095 17.9655 3.001 17.954 3.001ZM17.594 6.139H6.06202V4.06H17.594V6.139ZM6.06902 7.22H17.598V10.263L17.344 10.0527C17.2523 9.97673 17.1641 9.90373 17.076 9.831C16.639 9.472 16.473 9.472 16.045 9.83C15.7511 10.0761 15.4559 10.3216 15.1551 10.5716L14.979 10.718C14.6049 10.4036 14.2329 10.0912 13.8608 9.77882L13.8595 9.77772L13.855 9.774C13.523 9.496 13.302 9.494 12.972 9.768C12.7427 9.95831 12.5133 10.149 12.2808 10.3423L11.83 10.717L11.5127 10.4512C11.2748 10.2519 11.0387 10.0542 10.803 9.856C10.338 9.465 10.176 9.463 9.71502 9.85C9.46038 10.0643 9.20518 10.2781 8.94567 10.4954L8.94565 10.4955L8.94563 10.4955L8.68002 10.718L8.23389 10.346L8.23339 10.3456C8.01131 10.1604 7.78967 9.97551 7.56802 9.791C7.20502 9.489 7.00402 9.488 6.63902 9.787C6.5208 9.8839 6.403 9.98122 6.27915 10.0835L6.06902 10.257V7.22ZM7.10602 10.777C7.0455 10.8269 6.98791 10.878 6.93129 10.9282L6.93128 10.9282C6.80639 11.039 6.68625 11.1455 6.55002 11.226C6.13702 11.472 6.02302 11.809 6.04002 12.283C6.06102 12.844 6.17202 13.353 6.43702 13.848C6.93697 14.7849 7.42688 15.7272 7.91671 16.6695L7.91673 16.6695C8.11861 17.0578 8.32048 17.4461 8.52302 17.834C8.70402 18.181 8.85802 18.537 8.89702 18.931C8.91659 19.1302 8.93128 19.3299 8.9462 19.5328L8.9462 19.5328C8.95263 19.6202 8.9591 19.7082 8.96602 19.797H14.688C14.6916 19.7891 14.6951 19.7827 14.6982 19.7773C14.7029 19.7689 14.7064 19.7626 14.707 19.756L14.7072 19.7541C14.7112 19.7167 14.715 19.6804 14.713 19.643C14.692 18.942 14.88 18.3 15.211 17.681C15.8028 16.5762 16.3787 15.4632 16.9548 14.35L16.9552 14.3492C17.0741 14.1194 17.193 13.8897 17.312 13.66C17.3226 13.6395 17.3335 13.6189 17.3444 13.5982C17.4221 13.4508 17.5032 13.2969 17.519 13.14C17.5585 12.7704 17.5734 12.3978 17.5883 12.0254V12.0254C17.5927 11.9162 17.597 11.8071 17.602 11.698C17.603 11.666 17.582 11.623 17.557 11.603C17.3029 11.3918 17.0477 11.1829 16.7903 10.9723L16.7902 10.9722L16.553 10.778L16.1272 11.1317C15.9053 11.316 15.6867 11.4977 15.468 11.679C15.072 12.009 14.896 12.008 14.498 11.68C14.2533 11.4772 14.0082 11.2749 13.7614 11.0712L13.7609 11.0708L13.405 10.777C13.023 11.095 12.651 11.404 12.279 11.712C11.934 11.997 11.726 11.997 11.381 11.712C11.0288 11.4211 10.6783 11.1294 10.3187 10.83L10.255 10.777C10.0677 10.9315 9.88185 11.0851 9.69671 11.2381L9.69617 11.2385C9.50292 11.3982 9.31047 11.5572 9.11802 11.716C8.77802 11.996 8.57202 11.995 8.23502 11.716C7.97643 11.5006 7.71734 11.2852 7.45338 11.0658L7.45333 11.0658L7.10602 10.777Z" fill="#0C1E3C"/>
</svg>
