<svg width="24" height="24" viewBox="0 0 24 24" fill="none" xmlns="http://www.w3.org/2000/svg">
<path fill-rule="evenodd" clip-rule="evenodd" d="M24 12.0779V17.0405C23.8303 17.2915 23.5878 17.3511 23.2968 17.3449C22.9571 17.338 22.6173 17.339 22.2775 17.34C21.9689 17.3409 21.6603 17.3417 21.3518 17.3367C21.1624 17.3338 21.0708 17.3784 21.0095 17.5766C20.698 18.5833 19.7914 19.2415 18.7435 19.2474C17.6889 19.2533 16.7674 18.5918 16.4553 17.5766C16.3933 17.3749 16.3002 17.3373 16.1132 17.3376C13.6527 17.3414 11.1923 17.3412 8.73181 17.3409H8.73179L6.9737 17.3408H6.72972C6.27436 18.5381 5.56915 19.1796 4.62672 19.2351C3.24302 19.3161 2.39777 18.625 1.98527 17.3408L1.56479 17.341C1.25372 17.3413 0.946363 17.3415 0.639151 17.3405C0.147383 17.3385 0 17.189 0 16.6964V5.64968C0 5.13707 0.13652 5.00025 0.651775 4.99996C1.98509 4.99976 3.31827 4.99983 4.65141 4.99989L6.65104 4.99996L8.75435 4.99992C10.8576 4.99987 12.9609 4.99981 15.0639 5.00025C15.5234 5.00055 15.6866 5.16378 15.6896 5.61738C15.6904 5.72347 15.6902 5.82942 15.69 5.94214L15.6899 6.09711H15.9976C16.3537 6.09711 16.7099 6.09688 17.0661 6.09664H17.0662C17.8973 6.09608 18.7283 6.09553 19.5594 6.09799C20.6219 6.10122 21.3694 6.69956 21.6102 7.72596L21.6781 8.01522L21.6781 8.0154C21.899 8.9565 22.12 9.8976 22.3503 10.8363C22.3741 10.9335 22.4578 11.0397 22.5441 11.0938C22.7187 11.2033 22.8976 11.3062 23.0764 11.4091C23.2625 11.5162 23.4486 11.6234 23.6301 11.7379C23.7257 11.7984 23.8067 11.882 23.8878 11.9657C23.9247 12.0038 23.9617 12.0419 24 12.0779ZM14.7084 12.9408H0.977956V5.97263H14.7084V12.9408ZM18.4743 10.8037H21.345C21.2779 10.5202 21.2118 10.2392 21.1461 9.96017L21.1443 9.95284L21.1429 9.94657L21.1423 9.94406L21.1408 9.93788L21.1402 9.93543L21.1402 9.9352C20.9725 9.22289 20.8076 8.52271 20.6375 7.82373C20.5371 7.41241 20.2549 7.13937 19.846 7.09445C19.5319 7.05989 19.2129 7.06792 18.8929 7.07597C18.7535 7.07948 18.6138 7.083 18.4743 7.083V10.8037ZM22.1527 14.0896H23.0218V13.6298H22.1527V14.0896ZM4.37042 15.4342C3.57331 15.4289 2.94062 16.0481 2.93123 16.8426C2.92154 17.6394 3.56773 18.2947 4.36131 18.2926C5.14521 18.2906 5.78641 17.6503 5.79228 16.8634C5.79786 16.0772 5.16312 15.4392 4.37042 15.4342ZM17.302 16.8822C17.2988 16.0684 17.9194 15.4369 18.725 15.4342C19.5224 15.4319 20.1575 16.0564 20.1607 16.8467C20.1636 17.6447 19.5148 18.2988 18.7253 18.2935C17.9496 18.2882 17.3052 17.6494 17.302 16.8822ZM4.25944 14.4801C3.05131 14.5217 2.33259 15.2434 1.99437 16.3702H0.979131V13.926H14.7057V14.6594H14.4359L13.4578 14.6594C12.4796 14.6593 11.5013 14.6591 10.5229 14.66C10.1847 14.6603 9.9701 14.8165 9.93898 15.0772C9.90111 15.3984 10.1198 15.6289 10.4783 15.6298C11.2038 15.6321 11.9292 15.6317 12.6546 15.6313C12.9368 15.6311 13.219 15.6309 13.5011 15.6309H14.706V16.3711H6.72855C6.35422 15.1632 5.5671 14.4345 4.25944 14.4801ZM15.7066 7.0783V16.3831C15.7607 16.3831 15.8135 16.3843 15.8655 16.3854C15.9926 16.3882 16.114 16.3909 16.233 16.3761C16.2988 16.3679 16.3901 16.2924 16.4103 16.229C16.7518 15.1494 17.6496 14.4657 18.7379 14.4671C19.8131 14.4686 20.7209 15.1559 21.0382 16.2231C21.0791 16.3602 21.1425 16.3866 21.2681 16.3855C21.6071 16.3821 21.9461 16.3823 22.2851 16.3825C22.4773 16.3826 22.6695 16.3828 22.8617 16.3822C22.8973 16.382 22.9329 16.3765 22.9698 16.3708C22.9872 16.3681 23.0048 16.3654 23.0229 16.3632V15.0725C22.888 15.0725 22.7542 15.0727 22.6213 15.0729C22.3204 15.0733 22.0238 15.0738 21.727 15.0719C21.3594 15.0699 21.1839 14.8967 21.1798 14.5264C21.1757 14.1402 21.1771 13.7539 21.1785 13.3676L21.1789 13.2625C21.1806 12.8054 21.3412 12.6472 21.8025 12.6466C22.1055 12.6461 22.4085 12.6462 22.7115 12.6462L23.0144 12.6463L23.0535 12.5817C23.0358 12.5637 23.019 12.5443 23.0022 12.5249L23.0022 12.5249L23.0022 12.5248C22.9661 12.483 22.93 12.4413 22.8849 12.414C22.5913 12.2364 22.2966 12.0603 21.9933 11.9003C21.882 11.8418 21.7464 11.8013 21.6216 11.8004C20.7431 11.7949 19.8643 11.7954 18.9855 11.7958H18.9853C18.6923 11.796 18.3994 11.7961 18.1064 11.796C17.6514 11.796 17.4896 11.6334 17.4893 11.1739C17.4891 10.327 17.4892 9.48013 17.4892 8.63333V8.61498L17.4893 7.33578V7.0783H15.7066ZM7.92203 15.1024C7.8962 15.4497 8.12079 15.6309 8.57557 15.6279C8.60244 15.6279 8.62943 15.6288 8.65642 15.6296C8.71525 15.6313 8.77412 15.6331 8.83187 15.6265C9.15776 15.5886 9.3574 15.2771 9.24731 14.985C9.16363 14.7636 8.98983 14.6638 8.68655 14.6591C8.67405 14.6589 8.66155 14.6587 8.64904 14.6585C8.37033 14.6536 8.09187 14.6487 7.9511 14.9677C7.93289 15.0091 7.92555 15.0569 7.92203 15.1024Z" fill="#0C1E3C"/>
</svg>
