<svg width="25" height="24" viewBox="0 0 25 24" fill="none" xmlns="http://www.w3.org/2000/svg">
<path fill-rule="evenodd" clip-rule="evenodd" d="M20.7133 0.0130077L20.7132 0.0129987C20.6764 0.00860666 20.6397 0.00421641 20.6029 0H20.1439L20.0346 0.0127126C19.9595 0.0214947 19.8844 0.0302836 19.8091 0.0383489C18.9531 0.129028 18.1438 0.373502 17.3824 0.776565C17.064 0.94514 16.7452 1.11252 16.4037 1.23076C15.8193 1.43369 15.2205 1.49001 14.6069 1.4277C13.9558 1.36138 13.3442 1.15766 12.7434 0.909587L12.5817 0.842751L12.5817 0.842743C12.2426 0.702352 11.9032 0.561854 11.5581 0.437417C10.9709 0.225699 10.3629 0.0970706 9.74057 0.0395473C9.66386 0.0323808 9.58733 0.0230979 9.51074 0.013808L9.51072 0.013805C9.47205 0.00911456 9.43336 0.0044224 9.39463 0H8.60808C8.59863 0.00186423 8.58922 0.0039948 8.57981 0.00612535L8.5798 0.00612642C8.56098 0.010387 8.54217 0.0146473 8.523 0.0167776C8.46536 0.0225691 8.40768 0.0278111 8.35002 0.0330512L8.35001 0.0330519L8.35 0.033053C8.2446 0.0426313 8.13927 0.0522034 8.03445 0.0651132C7.53471 0.125832 7.04497 0.230093 6.5724 0.407856C6.12499 0.576431 5.70236 0.79534 5.27972 1.01625C5.07719 1.1221 4.86947 1.22157 4.65575 1.30186C4.07732 1.51917 3.4961 1.51678 2.91687 1.29667C2.68478 1.20839 2.46627 1.09374 2.25176 0.969907C1.94816 0.79494 1.62499 0.70506 1.26987 0.744607C0.986245 0.776165 0.721798 0.855659 0.48771 1.02304C0.176525 1.24554 0.0355126 1.56152 0.0227297 1.93182C0.0143409 2.16751 0.100626 2.38442 0.261212 2.56019C0.356285 2.66445 0.463742 2.76032 0.576791 2.84381C0.808482 3.01518 1.06015 3.15499 1.3206 3.27803C1.86467 3.53609 2.43671 3.69308 3.03431 3.76338C3.50289 3.81851 3.97146 3.8249 4.44004 3.77457C5.1447 3.69907 5.81541 3.49973 6.44976 3.18495C6.65743 3.08179 6.86005 2.96879 7.06255 2.85586L7.06256 2.85585L7.06257 2.85585L7.17959 2.79068C7.68052 2.51265 8.2214 2.38762 8.78904 2.36285C9.53245 2.33049 10.2435 2.47111 10.925 2.76831C11.195 2.88615 11.4675 2.9984 11.7399 3.11025C13.0761 3.65912 14.4643 3.88083 15.9048 3.75979C16.345 3.72304 16.776 3.63835 17.1974 3.50613C17.6784 3.35473 18.131 3.13862 18.5812 2.91611C18.6244 2.8947 18.6675 2.8731 18.7106 2.8515C18.97 2.72156 19.2291 2.59172 19.5079 2.50506C19.9062 2.38123 20.3101 2.33249 20.7247 2.4024C21.101 2.46591 21.4402 2.61771 21.755 2.82903C22.3573 3.23329 23.0301 3.16138 23.5769 2.75153C24.095 2.36285 24.139 1.64141 23.688 1.17683C23.5526 1.03742 23.396 0.925166 23.2302 0.8253C22.5227 0.398668 21.7633 0.121838 20.9376 0.0383489C20.8627 0.0308566 20.788 0.0219304 20.7133 0.0130111L20.7133 0.0130077ZM10.8954 1.8727C10.2862 1.647 9.65349 1.53835 8.98837 1.53356C8.4431 1.54274 7.89663 1.62264 7.36654 1.81558C6.7949 2.0237 6.23445 2.25379 5.70116 2.5494C5.22379 2.81425 4.70609 2.95846 4.16241 2.998C3.00955 3.08149 1.95855 2.78189 1.00142 2.13955L0.97466 2.12037C0.808881 1.99494 0.808083 1.80879 0.978256 1.68535C1.12286 1.58029 1.29064 1.54993 1.46561 1.56152C1.6214 1.5723 1.76121 1.63182 1.89423 1.71172C2.21341 1.90386 2.54976 2.05885 2.90888 2.16112C3.62792 2.36565 4.33498 2.31611 5.02646 2.04328C5.23578 1.96059 5.43911 1.86112 5.63884 1.75686L5.64605 1.75311C6.07306 1.53106 6.49945 1.30933 6.95389 1.14607C7.35655 1.00107 7.7736 0.921571 8.19743 0.871638C8.53059 0.832091 8.86494 0.820107 9.20009 0.829694C10.0749 0.85526 10.9158 1.04381 11.7263 1.36937C11.9124 1.44403 12.0968 1.52242 12.2812 1.60082L12.2812 1.60083L12.2812 1.60084L12.2813 1.60088C12.4215 1.66048 12.5617 1.72007 12.7026 1.77803C13.2295 1.99534 13.7744 2.15193 14.3404 2.22144C15.3531 2.34527 16.3286 2.22823 17.2486 1.75726C17.6013 1.5767 17.9584 1.40413 18.3187 1.23915C18.7322 1.0502 19.1728 0.955127 19.6214 0.894008C19.9506 0.848868 20.2801 0.831292 20.6121 0.846471C21.3922 0.881625 22.1129 1.10732 22.7784 1.51398C22.8651 1.56671 22.9494 1.62423 23.0333 1.68216C23.2593 1.83715 23.1731 2.06724 23.0005 2.15632C22.7237 2.29893 22.4492 2.30812 22.1832 2.13116C21.9551 1.97976 21.717 1.84794 21.4613 1.74927C20.7946 1.49281 20.1183 1.49041 19.4352 1.67177C19.0997 1.76085 18.7833 1.89827 18.4693 2.04328L18.2968 2.12282C17.9051 2.30352 17.5134 2.48417 17.1163 2.65206C16.6981 2.82863 16.2551 2.91771 15.8025 2.95206C14.4443 3.05473 13.1436 2.81625 11.8925 2.28695C11.7996 2.24776 11.7069 2.20782 11.6142 2.16788L11.6142 2.16787C11.3762 2.0653 11.1381 1.96269 10.8954 1.8727ZM10.261 11.1251C10.1997 11.1653 10.1378 11.2058 10.0748 11.2465C10.0597 11.235 10.0458 11.2242 10.0326 11.2139C10.0153 11.2003 9.99914 11.1877 9.98257 11.1754C9.94553 11.1478 9.9088 11.1197 9.87205 11.0915C9.7903 11.0289 9.70848 10.9663 9.62305 10.909C8.85647 10.3953 8.02198 10.1596 7.09682 10.2938C6.25474 10.4164 5.54249 10.7839 4.97085 11.4175C4.7108 11.7059 4.49708 12.0267 4.32212 12.3726C4.16872 12.6762 4.13876 12.9878 4.30294 13.2946C4.42278 13.5187 4.55061 13.7412 4.69802 13.9481C5.57724 15.1809 7.09961 15.7218 8.54688 15.3223C9.05301 15.1829 9.50201 14.9344 9.90587 14.6013C9.94427 14.5697 9.98318 14.5387 10.0222 14.5076L10.0828 14.459L10.1007 14.47L10.1247 14.4847C10.1457 14.4975 10.1648 14.509 10.1835 14.5214C10.2475 14.5628 10.3112 14.6045 10.3749 14.6463L10.375 14.6464C10.5122 14.7363 10.6493 14.8262 10.7887 14.9124C10.8838 14.9716 10.9848 15.0263 11.0899 15.0638C11.5321 15.2216 11.9591 14.9708 12.039 14.5082C12.0574 14.4011 12.0626 14.2909 12.0626 14.1822C12.0638 13.275 12.063 12.3678 12.0606 11.461C12.0602 11.3668 12.0522 11.2709 12.0334 11.179C11.9759 10.8978 11.8269 10.6905 11.5369 10.615C11.3771 10.5734 11.2161 10.5902 11.0659 10.6553C10.9365 10.7116 10.8099 10.7776 10.6892 10.8511C10.5456 10.9387 10.4049 11.0309 10.261 11.1251L10.261 11.1251ZM11.2352 11.3917C11.257 11.3795 11.2802 11.3665 11.3052 11.352V14.3484C11.2794 14.3333 11.2548 14.3195 11.2313 14.3063C11.1874 14.2816 11.1471 14.2589 11.1087 14.2337C10.9658 14.1399 10.8232 14.0454 10.6807 13.951L10.6806 13.9508L10.6796 13.9502L10.6791 13.9499C10.5704 13.8778 10.4617 13.8058 10.3529 13.734C10.3045 13.7021 10.2554 13.6697 10.2031 13.6445C10.0709 13.5802 9.94182 13.589 9.82318 13.6785C9.77684 13.7136 9.7337 13.7532 9.69176 13.7935C9.36379 14.1095 9.00547 14.3847 8.57125 14.5341C7.49469 14.9048 6.53037 14.6883 5.67831 13.9465C5.47658 13.7708 5.31559 13.559 5.17937 13.3285C5.16569 13.3054 5.15232 13.2819 5.13894 13.2585L5.13891 13.2585L5.13888 13.2584L5.13884 13.2584L5.13881 13.2583L5.13878 13.2582L5.13874 13.2582C5.10336 13.1963 5.068 13.1344 5.02718 13.0765C4.92691 12.9343 4.93011 12.7941 5.0132 12.6471C5.17858 12.3542 5.36912 12.0798 5.60321 11.8373C5.97112 11.4562 6.40734 11.1918 6.92864 11.0799C7.75714 10.9022 8.52611 11.04 9.22198 11.5333C9.31991 11.6028 9.41295 11.6789 9.50597 11.755L9.50601 11.755L9.50606 11.755C9.55113 11.7919 9.5962 11.8288 9.64182 11.8649C9.65902 11.8785 9.67614 11.8922 9.69328 11.9059L9.69328 11.906L9.69329 11.906L9.69353 11.9061L9.69355 11.9062C9.74439 11.9469 9.79534 11.9878 9.84875 12.0251C9.9558 12.1002 10.0717 12.1082 10.1891 12.0499C10.2542 12.0175 10.3181 11.9819 10.3792 11.9428C10.5023 11.8631 10.625 11.7827 10.7477 11.7024L10.7479 11.7023L10.748 11.7022L10.7481 11.7021L10.7485 11.7018L10.7489 11.7016L10.7494 11.7013C10.8726 11.6206 10.9958 11.5399 11.1195 11.4598C11.1554 11.4366 11.1927 11.4156 11.2352 11.3917L11.2352 11.3917ZM24.0328 16.1012L24.0328 16.1051C24.0334 16.5239 24.034 16.9427 24.0296 17.3615C24.0284 17.4681 24.0044 17.5792 23.9684 17.6802C23.8258 18.0785 23.4447 18.2698 23.0389 18.152C22.9626 18.13 22.8863 18.1001 22.818 18.0601C22.6134 17.939 22.4115 17.8132 22.2095 17.6873L22.1577 17.6551C22.1146 17.6283 22.0729 17.5993 22.0312 17.5702L22.0311 17.5701C21.9981 17.5472 21.9652 17.5243 21.9316 17.5025C21.8429 17.4445 21.8193 17.4477 21.7382 17.5136C21.7056 17.5403 21.6733 17.5673 21.6409 17.5944L21.6406 17.5947L21.6406 17.5947C21.5528 17.6681 21.465 17.7415 21.3723 17.8077C20.8258 18.1975 20.219 18.4396 19.5519 18.5171C18.2992 18.6629 17.1971 18.3194 16.2591 17.4725C15.8253 17.0806 15.5113 16.6021 15.2968 16.0588C15.1977 15.8079 15.2025 15.5535 15.2852 15.2994C15.3032 15.2443 15.3224 15.1887 15.3487 15.1368C15.7386 14.3678 16.2683 13.7231 17.0185 13.2785C17.4983 12.9945 18.0192 12.8307 18.5712 12.7656C19.5144 12.6545 20.3756 12.893 21.1718 13.3899C21.3261 13.4861 21.4716 13.5966 21.6169 13.7071L21.6172 13.7073C21.6572 13.7377 21.6972 13.7681 21.7374 13.7982L21.7429 13.8023C21.8246 13.8635 21.828 13.866 21.9172 13.8074C21.9882 13.7606 22.0589 13.7134 22.1296 13.6662L22.1296 13.6661C22.298 13.5536 22.4664 13.4412 22.6386 13.3348C22.7549 13.2629 22.8811 13.1986 23.0109 13.1583C23.4951 13.0069 23.9233 13.2701 24.008 13.769C24.0304 13.9015 24.0335 14.038 24.0366 14.173L24.0375 14.2148C24.0417 14.41 24.0418 14.6052 24.0418 14.8003V14.8006L24.0419 14.9471C24.0425 15.1065 24.0423 15.2658 24.0421 15.4251L24.0421 15.4277L24.0419 15.6681H24.0324C24.0324 15.8125 24.0326 15.9569 24.0328 16.1012ZM23.1939 17.3319C23.2178 17.2029 23.213 14.0555 23.1891 13.9676C23.1741 13.9763 23.1591 13.9846 23.1443 13.9929C23.1147 14.0093 23.0856 14.0255 23.0577 14.0439C22.9287 14.1286 22.7999 14.2137 22.6712 14.2988L22.6707 14.2991C22.5719 14.3644 22.4731 14.4297 22.3742 14.4949L22.301 14.5432C22.207 14.6053 22.1129 14.6675 22.0158 14.725C21.8644 14.8144 21.7099 14.8109 21.5632 14.711C21.5074 14.6729 21.4545 14.6303 21.4015 14.5878L21.4015 14.5878L21.4014 14.5877C21.3778 14.5688 21.3542 14.5498 21.3304 14.5312C21.2804 14.4921 21.231 14.4522 21.1816 14.4123C21.0695 14.3217 20.9573 14.2311 20.8386 14.1501C20.1579 13.6848 19.4117 13.4758 18.5848 13.5929C18.0855 13.6632 17.6273 13.8342 17.2182 14.1306C16.7425 14.4753 16.3933 14.9275 16.1153 15.4388C16.0366 15.5834 16.0382 15.7352 16.1069 15.8806C16.1752 16.0252 16.2467 16.1698 16.3334 16.3037C17.1324 17.5376 18.7989 18.0613 20.1911 17.5196C20.6321 17.3483 21.0116 17.0838 21.3527 16.7595C21.4214 16.6943 21.4925 16.6312 21.5684 16.5753C21.6831 16.4902 21.8105 16.4774 21.9391 16.5405C22.0238 16.5821 22.1061 16.6296 22.1848 16.6812C22.3363 16.7799 22.487 16.8797 22.6378 16.9795L22.638 16.9796C22.7695 17.0666 22.901 17.1537 23.0329 17.24C23.0668 17.2624 23.1025 17.2818 23.1394 17.3019L23.1395 17.3019L23.1396 17.302L23.1397 17.302L23.1397 17.302L23.1398 17.302L23.1398 17.302L23.1398 17.3021L23.1399 17.3021C23.1576 17.3118 23.1756 17.3215 23.1939 17.3319ZM0 20.9402C0.00489714 20.929 0.0100722 20.918 0.0152413 20.907L0.0152507 20.907C0.0252579 20.8857 0.0352419 20.8644 0.0431425 20.8423C0.0541721 20.8122 0.0638002 20.7814 0.0734266 20.7506L0.0734307 20.7506C0.0909971 20.6945 0.108558 20.6384 0.134621 20.5862C0.456192 19.9423 0.879228 19.379 1.45965 18.9436C1.96458 18.5653 2.53262 18.3368 3.1526 18.2298C4.25273 18.0396 5.24381 18.3125 6.1526 18.9356C6.23049 18.9892 6.30679 19.0455 6.38229 19.1026C6.43197 19.1407 6.48042 19.1799 6.53123 19.2211L6.53133 19.2212L6.53149 19.2213C6.55741 19.2423 6.58395 19.2639 6.61158 19.286L6.63908 19.2686C6.66281 19.2536 6.68664 19.2385 6.71025 19.2232C6.78032 19.1781 6.85005 19.1323 6.91979 19.0866C7.07827 18.9826 7.23678 18.8785 7.39933 18.7814C7.52637 18.7055 7.66498 18.646 7.8036 18.5933C7.94541 18.5394 8.0972 18.5334 8.24501 18.5701C8.56258 18.6488 8.73116 18.8701 8.80386 19.1769C8.84461 19.3502 8.84461 19.5274 8.84461 19.7039V19.709L8.84483 20.1577C8.84527 20.9808 8.84571 21.804 8.84301 22.6271C8.84261 22.7462 8.83023 22.8676 8.80506 22.9842C8.702 23.46 8.2518 23.7213 7.78921 23.5703C7.66298 23.5287 7.54154 23.4648 7.4277 23.3949C7.2588 23.2915 7.0931 23.1826 6.92749 23.0736L6.92745 23.0736L6.9274 23.0736L6.92733 23.0735L6.92714 23.0734L6.92696 23.0733L6.92677 23.0732L6.9267 23.0731C6.85834 23.0282 6.78999 22.9832 6.72144 22.9387C6.69861 22.924 6.67556 22.9097 6.64939 22.8935L6.64932 22.8935L6.62237 22.8768L6.57091 22.9179L6.57082 22.918C6.53676 22.9451 6.503 22.9719 6.46977 22.9998C6.05872 23.3446 5.60613 23.6166 5.09561 23.788C4.79401 23.889 4.48602 23.9561 4.16884 23.9813C4.14982 23.9827 4.13098 23.9879 4.1122 23.9931C4.10338 23.9956 4.09456 23.998 4.08575 24.0001H3.58322L3.56603 23.9966L3.55069 23.9934C3.52635 23.9883 3.50195 23.9831 3.47736 23.9801C3.44289 23.9757 3.40829 23.9722 3.37372 23.9688L3.37366 23.9688L3.3736 23.9688L3.37354 23.9688L3.37348 23.9688L3.37343 23.9688L3.37337 23.9688L3.37328 23.9687C3.32106 23.9636 3.2689 23.9584 3.21731 23.9497C2.16631 23.7708 1.31465 23.2579 0.655925 22.4202C0.47257 22.1877 0.325965 21.932 0.185752 21.6728C0.146577 21.6003 0.116594 21.523 0.0866015 21.4457L0.0865993 21.4457L0.086573 21.4456L0.0865684 21.4456C0.0719207 21.4078 0.05727 21.3701 0.0415446 21.3328C0.0323142 21.3115 0.0220423 21.2908 0.0117818 21.2701L0.0117781 21.2701L0 21.2462V20.9402ZM7.99214 22.7553C8.01451 22.6463 8.01172 19.4869 7.98735 19.3942C7.96873 19.4044 7.95016 19.4141 7.93175 19.4237L7.93161 19.4238C7.89517 19.4428 7.85937 19.4614 7.82517 19.4829C7.75602 19.5264 7.68769 19.5713 7.61945 19.6161L7.61942 19.6161C7.58123 19.6412 7.54306 19.6662 7.50479 19.691L7.3588 19.7855L7.3578 19.7861C7.18069 19.9007 7.00351 20.0153 6.8261 20.1292C6.63675 20.2511 6.45659 20.2391 6.28482 20.0921C6.2363 20.0504 6.18718 20.0094 6.13806 19.9684L6.13776 19.9682C6.09759 19.9346 6.05742 19.9011 6.01758 19.8672C5.44314 19.3786 4.8004 19.0483 4.03262 19.0051C3.50493 18.9756 2.99521 19.0503 2.51065 19.2696C2.05366 19.4765 1.68176 19.7909 1.36738 20.1784C1.19521 20.3909 1.04541 20.619 0.912783 20.8579C0.822903 21.0193 0.821305 21.1738 0.930759 21.3288C0.97565 21.3931 1.01457 21.4615 1.05344 21.5298L1.05347 21.5299L1.05357 21.5301C1.06689 21.5535 1.0802 21.5769 1.09374 21.6001C1.31185 21.9732 1.59228 22.2908 1.94221 22.5436C2.66644 23.0665 3.47097 23.2687 4.35659 23.1308C4.87909 23.0497 5.34248 22.8312 5.75832 22.5105C5.86823 22.4258 5.97178 22.3331 6.07539 22.2403L6.0756 22.2401C6.12104 22.1994 6.1665 22.1586 6.21252 22.1186C6.22573 22.1071 6.23857 22.0953 6.25138 22.0835L6.25139 22.0835L6.25144 22.0834C6.27347 22.0631 6.29545 22.0429 6.31917 22.0247C6.45979 21.9165 6.61158 21.8989 6.76778 21.9848C6.85185 22.0311 6.93215 22.0843 7.01214 22.1374L7.05379 22.1649C7.14982 22.2282 7.2456 22.2919 7.34137 22.3555L7.34181 22.3558C7.48533 22.4512 7.62885 22.5466 7.77324 22.6407L7.80073 22.6588C7.86016 22.6982 7.92015 22.738 7.99214 22.7553ZM2.53202 20.6555C2.53043 20.3986 2.3235 20.1937 2.06545 20.1937C1.80859 20.1937 1.60007 20.4002 1.59887 20.6559C1.59727 20.9111 1.80379 21.1204 2.06065 21.124C2.32071 21.1276 2.53402 20.9159 2.53202 20.6555ZM17.8291 15.3614C17.8315 15.6143 17.6214 15.8276 17.3677 15.83C17.1157 15.8328 16.9003 15.623 16.8956 15.3698C16.8904 15.1193 17.1025 14.9052 17.3589 14.902C17.6122 14.8992 17.8271 15.1089 17.8291 15.3614ZM5.61164 12.4788C5.61244 12.6926 5.77901 12.8567 5.99353 12.8547C6.20525 12.8527 6.37302 12.6806 6.36823 12.4697C6.36344 12.2619 6.19806 12.0993 5.98993 12.0985C5.77702 12.0977 5.61084 12.2647 5.61164 12.4788ZM20.6029 5C20.6397 5.00422 20.6765 5.00861 20.7133 5.01301C20.788 5.02193 20.8627 5.03086 20.9376 5.03835C21.7633 5.12184 22.5227 5.39867 23.2302 5.8253C23.396 5.92517 23.5526 6.03742 23.688 6.17683C24.139 6.64141 24.095 7.36285 23.5769 7.75153C23.0301 8.16138 22.3573 8.23329 21.755 7.82903C21.4402 7.61771 21.101 7.46591 20.7247 7.4024C20.3101 7.33249 19.9062 7.38123 19.5079 7.50506C19.2291 7.59172 18.97 7.72156 18.7106 7.8515C18.6675 7.8731 18.6244 7.8947 18.5812 7.91611C18.131 8.13862 17.6784 8.35473 17.1974 8.50613C16.776 8.63835 16.345 8.72304 15.9048 8.75979C14.4643 8.88083 13.0761 8.65912 11.7399 8.11025C11.4675 7.9984 11.195 7.88615 10.925 7.76831C10.2435 7.47111 9.53245 7.33049 8.78904 7.36285C8.2214 7.38762 7.68052 7.51265 7.17959 7.79068L7.06257 7.85585L7.06256 7.85585C6.86005 7.96879 6.65743 8.08179 6.44976 8.18495C5.81541 8.49973 5.1447 8.69907 4.44004 8.77457C3.97146 8.8249 3.50289 8.81851 3.03431 8.76338C2.43671 8.69308 1.86467 8.53609 1.3206 8.27803C1.06015 8.15499 0.808482 8.01518 0.576791 7.84381C0.463742 7.76032 0.356285 7.66445 0.261212 7.56019C0.100626 7.38442 0.0143409 7.16751 0.0227297 6.93182C0.0355126 6.56152 0.176525 6.24554 0.48771 6.02304C0.721798 5.85566 0.986245 5.77617 1.26987 5.74461C1.62499 5.70506 1.94816 5.79494 2.25176 5.96991C2.46627 6.09374 2.68478 6.20839 2.91687 6.29667C3.4961 6.51678 4.07732 6.51917 4.65575 6.30186C4.86947 6.22157 5.07719 6.1221 5.27972 6.01624C5.70236 5.79534 6.12499 5.57643 6.5724 5.40786C7.04497 5.23009 7.53471 5.12583 8.03445 5.06511C8.13926 5.0522 8.24458 5.04263 8.34996 5.03306L8.35001 5.03305C8.40768 5.02781 8.46536 5.02257 8.523 5.01678C8.54217 5.01465 8.56099 5.01039 8.57981 5.00613C8.58922 5.00399 8.59863 5.00186 8.60808 5H9.39463C9.43335 5.00442 9.47202 5.00911 9.51067 5.0138L9.51074 5.01381C9.58733 5.0231 9.66386 5.03238 9.74057 5.03955C10.3629 5.09707 10.9709 5.2257 11.5581 5.43742C11.9032 5.56185 12.2426 5.70235 12.5817 5.84274L12.5817 5.84275L12.7434 5.90959C13.3442 6.15766 13.9558 6.36138 14.6069 6.4277C15.2205 6.49001 15.8193 6.43369 16.4037 6.23076C16.7452 6.11252 17.064 5.94514 17.3824 5.77656C18.1438 5.3735 18.9531 5.12903 19.8091 5.03835C19.8844 5.03028 19.9595 5.02149 20.0346 5.01271L20.1439 5H20.6029ZM8.98837 6.53356C9.65349 6.53835 10.2862 6.647 10.8954 6.8727C11.1381 6.96269 11.3762 7.06529 11.6142 7.16786L11.6142 7.16788C11.7069 7.20782 11.7996 7.24776 11.8925 7.28695C13.1436 7.81625 14.4443 8.05473 15.8025 7.95206C16.2551 7.91771 16.6981 7.82863 17.1163 7.65206C17.5134 7.48417 17.9051 7.30352 18.2968 7.12282L18.4693 7.04328C18.7833 6.89827 19.0997 6.76085 19.4352 6.67177C20.1183 6.49041 20.7946 6.49281 21.4613 6.74927C21.717 6.84794 21.9551 6.97976 22.1832 7.13116C22.4492 7.30812 22.7237 7.29893 23.0005 7.15632C23.1731 7.06724 23.2593 6.83715 23.0333 6.68216C22.9494 6.62423 22.8651 6.56671 22.7784 6.51398C22.1129 6.10732 21.3922 5.88162 20.6121 5.84647C20.2801 5.83129 19.9506 5.84887 19.6214 5.89401C19.1728 5.95513 18.7322 6.0502 18.3187 6.23915C17.9584 6.40413 17.6013 6.5767 17.2486 6.75726C16.3286 7.22823 15.3531 7.34527 14.3404 7.22144C13.7744 7.15193 13.2295 6.99534 12.7026 6.77803C12.5617 6.72007 12.4215 6.66046 12.2813 6.60086L12.2812 6.60084L12.2811 6.6008C12.0968 6.52241 11.9124 6.44402 11.7263 6.36937C10.9158 6.04381 10.0749 5.85526 9.20009 5.82969C8.86494 5.82011 8.53059 5.83209 8.19743 5.87164C7.7736 5.92157 7.35655 6.00107 6.95389 6.14607C6.49945 6.30933 6.07306 6.53106 5.64605 6.75311L5.63884 6.75686C5.43911 6.86112 5.23578 6.96059 5.02646 7.04328C4.33498 7.31611 3.62792 7.36565 2.90888 7.16112C2.54976 7.05886 2.21341 6.90386 1.89423 6.71172C1.76121 6.63182 1.6214 6.5723 1.46561 6.56152C1.29064 6.54993 1.12286 6.58029 0.978256 6.68535C0.808083 6.80879 0.808881 6.99494 0.97466 7.12037L1.00142 7.13955C1.95855 7.78189 3.00955 8.08149 4.16241 7.998C4.70609 7.95846 5.22379 7.81425 5.70116 7.5494C6.23445 7.25379 6.7949 7.0237 7.36654 6.81558C7.89663 6.62264 8.4431 6.54274 8.98837 6.53356Z" fill="#0C1E3C"/>
</svg>
