<svg width="24" height="24" viewBox="0 0 24 24" fill="none" xmlns="http://www.w3.org/2000/svg">
<path fill-rule="evenodd" clip-rule="evenodd" d="M2.25 12C2.25 6.62402 6.62402 2.25 12 2.25C17.376 2.25 21.75 6.62402 21.75 12C21.75 17.376 17.376 21.75 12 21.75C6.62402 21.75 2.25 17.376 2.25 12ZM20.25 12C20.25 7.43555 16.5645 3.75 12 3.75C7.43555 3.75 3.75 7.43555 3.75 12C3.75 16.5645 7.43555 20.25 12 20.25C16.5645 20.25 20.25 16.5645 20.25 12ZM12 6C9.9375 6 8.25 7.6875 8.25 9.75C8.25 10.8867 8.78027 11.8975 9.58594 12.5859C7.89844 13.4619 6.75 15.2256 6.75 17.25H8.25C8.25 15.1699 9.91992 13.5 12 13.5C14.0801 13.5 15.75 15.1699 15.75 17.25H17.25C17.25 15.2256 16.1016 13.4619 14.4141 12.5859C15.2197 11.8975 15.75 10.8867 15.75 9.75C15.75 7.6875 14.0625 6 12 6ZM14.25 9.75C14.25 8.49902 13.251 7.5 12 7.5C10.749 7.5 9.75 8.49902 9.75 9.75C9.75 11.001 10.749 12 12 12C13.251 12 14.25 11.001 14.25 9.75Z" fill="#0C1E3C"/>
</svg>
