<svg width="24" height="24" viewBox="0 0 24 24" fill="none" xmlns="http://www.w3.org/2000/svg">
<path fill-rule="evenodd" clip-rule="evenodd" d="M11.4609 3.96094L12.75 2.69531V21.3047L11.4609 20.0391L7.17188 15.75H3.75V8.25H7.17188L11.4609 3.96094ZM16.8047 7.19531L17.8594 6.14062C21.0703 9.35156 21.0703 14.5781 17.8594 17.7891L16.8047 16.7109C19.4443 14.0713 19.4443 9.83496 16.8047 7.19531ZM11.25 6.32812V17.6719L8.03906 14.4609L7.80469 14.25H5.25V9.75H7.80469L8.03906 9.53906L11.25 6.32812ZM14.625 9.375L15.6797 8.32031C17.6953 10.3359 17.7012 13.6641 15.7031 15.75L14.6016 14.6953C16.0518 13.1807 16.0576 10.8076 14.625 9.375Z" fill="#0C1E3C"/>
</svg>
