<svg width="24" height="24" viewBox="0 0 24 24" fill="none" xmlns="http://www.w3.org/2000/svg">
<path fill-rule="evenodd" clip-rule="evenodd" d="M1 11.6076C1.59607 10.914 2.25566 10.3074 2.94908 9.73663C4.31891 8.60938 5.80016 7.66209 7.44139 6.97595C8.97695 6.3339 10.5693 5.9674 12.2414 6.00228C13.5586 6.0297 14.8244 6.32071 16.0543 6.77848C17.6636 7.3775 19.1227 8.24341 20.4814 9.28562C21.3615 9.96083 22.1905 10.6921 22.9252 11.5259C22.9458 11.5491 22.9661 11.5725 22.9952 11.6061L23 11.6116C22.9466 11.6697 22.8938 11.7283 22.8411 11.7868L22.8411 11.7868C22.7293 11.911 22.6177 12.0349 22.5006 12.1532C21.2432 13.4239 19.84 14.5059 18.2857 15.3899C17.024 16.1076 15.6948 16.6556 14.2731 16.9674C12.4061 17.3769 10.564 17.2702 8.74147 16.7102C6.9281 16.1529 5.29311 15.254 3.77629 14.1285C2.80279 13.4059 1.88795 12.6165 1.08399 11.7048C1.06423 11.6825 1.04475 11.6598 1.02339 11.6349L1 11.6076ZM12.0805 7.59858C14.2647 7.63502 16.0214 9.45655 16.0082 11.6062C16.0101 13.8331 14.1917 15.6602 11.9099 15.6184C9.72295 15.5785 7.97847 13.7504 7.9868 11.6047C7.99565 9.39044 9.79722 7.5604 12.0805 7.59858ZM8.13013 15.1788C6.24127 13.1283 6.33411 9.92768 8.16623 8.01296C6.08839 8.85944 4.31197 10.0988 2.70076 11.6076C4.31301 13.1253 6.08475 14.3607 8.13013 15.1788ZM15.836 8.01713C17.7478 10.0722 17.6692 13.2879 15.8353 15.1995C17.912 14.3594 19.6879 13.1208 21.2958 11.6094C19.6832 10.0917 17.9118 8.85597 15.836 8.01713ZM13.5935 9.94169C12.8493 9.22657 11.6271 9.08914 10.8139 9.6387C11.5506 9.94169 11.6706 10.6622 11.4379 11.1269C11.3066 11.3894 11.1062 11.5756 10.8273 11.6688C10.4087 11.8085 10.0384 11.7063 9.70751 11.4144C9.61294 12.3386 10.1368 13.3847 11.2099 13.7762C12.2313 14.1489 13.3728 13.7559 13.9505 12.8361C14.5333 11.9081 14.3846 10.7017 13.5935 9.94169Z" fill="#0C1E3C"/>
</svg>
