<svg width="24" height="24" viewBox="0 0 24 24" fill="none" xmlns="http://www.w3.org/2000/svg">
<path fill-rule="evenodd" clip-rule="evenodd" d="M10.011 1.97694C9.98976 3.00139 9.99027 3.89064 9.9928 3.98027C9.99571 4.09087 9.99682 4.19834 9.99792 4.30424C10.0001 4.51208 10.0022 4.71385 10.0176 4.92118C10.0176 4.92118 10.0207 5.1131 10.0095 5.32022C9.99229 5.63926 9.91785 5.74459 9.86569 5.80738C9.84139 5.83625 9.78112 5.90715 9.67731 5.94968C9.52843 6.01146 9.33194 5.99982 9.21851 5.89854C9.08534 5.77972 9.09107 5.57379 9.09328 5.49413C9.09333 5.4923 9.09338 5.49055 9.09343 5.48885C9.10651 5.02437 9.0968 4.57991 9.08673 4.11955C9.06993 3.35073 9.05215 2.53754 9.13799 1.51256C9.21699 0.564068 10.1402 -0.0689376 11.0426 0.00601033C11.6173 0.0541188 12.102 0.322007 12.4078 0.734727C12.6656 1.08182 12.7134 1.42791 12.7553 1.73193L12.7557 1.73538L12.7559 1.73617C12.7888 1.97516 12.8679 2.54784 12.5988 2.71578C12.5 2.77756 12.3532 2.78516 12.3405 2.78567C12.2184 2.79124 12.0767 2.76744 12.0022 2.7011C11.8657 2.58035 11.8676 2.35075 11.8694 2.12898C11.8702 2.02988 11.871 1.93235 11.8594 1.84679C11.7804 1.25936 11.3748 0.84411 10.8689 0.926654C10.5848 0.973243 10.364 1.08516 10.2171 1.26291C10.0212 1.50092 10.0146 1.7845 10.011 1.97694ZM7.60758 3.98027C7.61012 3.89064 7.61062 3.00139 7.58935 1.97694C7.58581 1.7845 7.57923 1.50092 7.38325 1.26291C7.23639 1.08516 7.0156 0.973243 6.7315 0.926654C6.22561 0.84411 5.81998 1.25936 5.74098 1.84679C5.7294 1.93234 5.73019 2.02988 5.731 2.12898V2.12898C5.7328 2.35075 5.73467 2.58035 5.59817 2.7011C5.52373 2.76744 5.38194 2.79124 5.25939 2.78567C5.24723 2.78516 5.10037 2.77756 5.00163 2.71578C4.73252 2.54784 4.81155 1.97517 4.84453 1.73617L4.84464 1.73538L4.84511 1.73193C4.88703 1.42791 4.93474 1.08182 5.19254 0.734727C5.49841 0.322007 5.98304 0.0541188 6.55781 0.00601033C7.46022 -0.0689376 8.3834 0.564068 8.4624 1.51256C8.54823 2.53753 8.53046 3.35072 8.51365 4.11954V4.11954C8.50359 4.57991 8.49387 5.02437 8.50696 5.48885L8.5071 5.49413C8.50932 5.57379 8.51505 5.77972 8.38188 5.89854C8.26844 5.99982 8.07196 6.01146 7.92307 5.94968C7.81926 5.90715 7.759 5.83625 7.73469 5.80738C7.68253 5.74459 7.60809 5.63926 7.59087 5.32022C7.57973 5.1131 7.58277 4.92118 7.58277 4.92118C7.5982 4.71386 7.6003 4.51209 7.60246 4.30426V4.30424V4.30421C7.60356 4.19832 7.60468 4.09086 7.60758 3.98027ZM19.3492 11.9135L19.3492 11.9137L19.3492 11.9138L19.3492 11.9138C19.3202 12.0844 19.2915 12.2532 19.2578 12.4209C18.9033 14.1705 18.2166 15.7647 17.0296 17.1193C16.0365 18.2527 14.8186 19.0482 13.384 19.508C13.2701 19.545 13.2351 19.5951 13.2316 19.7136C13.2052 20.6287 13.0331 21.5099 12.5824 22.3181C12.196 23.0108 11.6556 23.5527 10.9522 23.9269C10.8089 24.0029 10.6636 24.0292 10.5127 23.9593C10.3734 23.8955 10.2904 23.7846 10.2544 23.6337C10.1472 23.1808 10.0395 22.7279 9.93186 22.2751C9.75378 21.5261 9.5757 20.7772 9.3996 20.0276C9.38086 19.9486 9.35352 19.9192 9.27097 19.9091C8.51491 19.8185 7.77303 19.6615 7.05039 19.4169C7.01291 19.4042 6.94151 19.425 6.91568 19.4554C6.27103 20.2054 5.46433 20.6662 4.48646 20.8191C4.29149 20.8495 4.09248 20.8617 3.89498 20.8612C3.59823 20.8601 3.39263 20.5933 3.46909 20.3071C3.67925 19.5172 3.89548 18.7282 4.11628 17.9412C4.14818 17.8258 4.13046 17.7599 4.03981 17.6774C2.76164 16.5132 1.98685 15.0542 1.5564 13.3983C1.28547 12.3551 1.16546 11.2921 1.2085 10.216C1.24749 9.25436 1.48297 8.34739 2.08002 7.56702C2.69531 6.76285 3.52784 6.29949 4.51178 6.13845C6.43713 5.82296 8.19942 6.26657 9.80219 7.36547C10.7623 8.02329 11.5473 8.86595 12.2866 9.75519C12.3718 9.85758 12.4568 9.96011 12.5419 10.0627L12.542 10.0629L12.5422 10.0631L12.5424 10.0633L12.5424 10.0634C12.9228 10.522 13.3033 10.9809 13.698 11.4268C13.8635 11.614 14.0606 11.7742 14.2566 11.9336C14.295 11.9649 14.3334 11.9961 14.3715 12.0274C15.1392 12.662 16.8159 12.31 17.0929 10.9837C17.1138 10.8827 17.1302 10.7808 17.1465 10.6789L17.1466 10.6788L17.1466 10.6788L17.1466 10.6787C17.1551 10.6254 17.1637 10.5721 17.1729 10.5189C17.1927 10.4039 17.1547 10.3193 17.0726 10.2307C16.3262 9.42603 15.7266 8.53121 15.437 7.45763C15.2886 6.90565 15.2825 6.35468 15.5205 5.81992C15.6912 5.43708 15.9727 5.38036 16.3049 5.63002C16.5814 5.83795 16.8641 6.0376 17.1468 6.23723L17.1468 6.23725C17.3385 6.3726 17.5301 6.50795 17.7198 6.64587C18.1888 6.98668 18.6167 7.37104 18.9291 7.86681C18.9697 7.93083 19.0047 7.9983 19.0397 8.0658L19.0397 8.06582L19.0397 8.06585C19.069 8.1222 19.0982 8.17857 19.1307 8.23294C19.1524 8.2694 19.1975 8.31498 19.2335 8.31599C19.6006 8.32713 19.9303 8.46082 20.2362 8.64414C20.5122 8.80958 20.7827 8.98418 21.0533 9.1588L21.0533 9.15882L21.0533 9.15885L21.0534 9.15887L21.0535 9.15897C21.2326 9.27453 21.4116 9.39009 21.5923 9.503C21.9048 9.69797 22.2202 9.88838 22.5413 10.0687C22.8001 10.214 22.8776 10.4864 22.7099 10.7457C22.3939 11.2354 21.9367 11.5256 21.3811 11.674C20.7426 11.8441 20.1055 11.7844 19.469 11.6593C19.4543 11.6564 19.4391 11.6543 19.4204 11.6517L19.395 11.6481C19.3793 11.7364 19.3644 11.8242 19.3496 11.9114L19.3492 11.9135ZM16.5181 7.82275C16.3672 7.47587 16.2806 7.02111 16.307 6.71828C16.4331 6.81194 16.5583 6.90248 16.6819 6.99189L16.6819 6.9919C16.9627 7.19496 17.2354 7.3922 17.4935 7.60702C17.7543 7.82427 17.9918 8.07697 18.2045 8.34182C18.329 8.49678 18.4035 8.70136 18.4673 8.89431C18.5478 9.13586 18.7752 9.27968 19.0208 9.22803C19.1256 9.20574 19.2431 9.20878 19.3479 9.23208C19.4644 9.2579 19.5804 9.30702 19.6832 9.36881C20.1666 9.65843 20.6478 9.9514 21.1349 10.2479C21.3044 10.3511 21.4747 10.4548 21.646 10.5589C21.411 10.7457 21.1512 10.8278 20.8722 10.8622C20.3076 10.9321 19.7571 10.8399 19.2198 10.685C18.8623 10.5822 18.6091 10.8293 18.5736 11.1438C18.3331 13.26 17.6185 15.1793 16.1439 16.7628C15.3595 17.605 14.411 18.2025 13.3283 18.5889C13.3065 18.5966 13.2841 18.6021 13.2618 18.6076L13.2618 18.6076L13.2617 18.6076L13.2617 18.6076C13.2502 18.6104 13.2388 18.6132 13.2275 18.6163L13.032 17.2702C13.105 17.2541 13.1786 17.2386 13.2526 17.2229C13.4249 17.1866 13.5991 17.1498 13.7709 17.1041C14.1097 17.0145 14.4459 16.9153 14.7801 16.8114C15.0359 16.7314 15.1569 16.5116 15.0967 16.266C15.0394 16.0346 14.8222 15.8888 14.5664 15.947C14.4417 15.9755 14.3203 16.018 14.1988 16.0605L14.1988 16.0605L14.1987 16.0605L14.1987 16.0605L14.1987 16.0605C14.0825 16.1012 13.9662 16.1419 13.8468 16.1703C13.3977 16.2777 12.946 16.3759 12.4912 16.4559C12.1874 16.5091 12.0177 16.7375 12.0765 17.0469C12.1001 17.1722 12.1248 17.2974 12.1496 17.4226L12.1496 17.4226C12.2277 17.8179 12.306 18.2134 12.3494 18.6122C12.4714 19.7359 12.3783 20.8328 11.8212 21.8492C11.6171 22.2209 11.3472 22.5374 10.9927 22.8113C10.9694 22.7152 10.9463 22.6211 10.9236 22.5283L10.9235 22.528L10.9229 22.5254L10.9226 22.5242L10.9225 22.5239C10.89 22.391 10.8581 22.2606 10.8266 22.1302C10.6584 21.431 10.4904 20.7317 10.3224 20.0325C10.0423 18.8666 9.76222 17.7008 9.48113 16.5349C9.4001 16.1992 9.04714 16.0604 8.77773 16.2534C8.62277 16.3643 8.5615 16.5456 8.61265 16.7578C8.73166 17.2536 8.85147 17.7491 8.9713 18.2448L9.10892 18.8143C9.117 18.8488 9.12427 18.8833 9.13325 18.9258L9.14437 18.9783C7.62111 18.7636 6.21127 18.2987 5.00552 17.329C3.36325 16.0073 2.57782 14.2192 2.23195 12.1976C2.24511 12.1854 2.25828 12.1738 2.27144 12.1621C2.29585 12.1902 2.31945 12.2191 2.34306 12.2481L2.34307 12.2481L2.34307 12.2481L2.34308 12.2481L2.3431 12.2481C2.392 12.3081 2.44097 12.3682 2.4973 12.4204C3.43466 13.2904 4.54925 13.8343 5.76665 14.1857C6.46853 14.3883 7.18509 14.5134 7.91178 14.5802C8.14371 14.6015 8.35691 14.4399 8.39388 14.2186C8.43591 13.9705 8.30121 13.7431 8.05864 13.6986C7.89145 13.6681 7.72268 13.647 7.55393 13.6258L7.55391 13.6258L7.55389 13.6258L7.55386 13.6258L7.55384 13.6258C7.40573 13.6073 7.25764 13.5887 7.11065 13.5639C5.82185 13.3461 4.61205 12.9273 3.5567 12.1307C3.09739 11.7844 2.69632 11.3802 2.36412 10.9078C2.17979 10.646 2.07192 10.3821 2.11497 10.0443C2.18637 9.48579 2.2917 8.94343 2.57022 8.44816C3.02548 7.63994 3.73495 7.17506 4.6323 7.02922C6.43966 6.73398 8.07636 7.1705 9.53785 8.26788C10.3364 8.86696 10.9907 9.61036 11.6313 10.3684L11.7136 10.4659C12.2377 11.0863 12.7626 11.7078 13.3126 12.3049C13.6838 12.7091 14.138 13.0164 14.6809 13.1603C16.1626 13.5522 17.693 12.6012 18.011 11.0815C18.0519 10.8852 18.0668 10.6831 18.0817 10.4813V10.4813L18.0818 10.4811L18.0818 10.481L18.0818 10.4809L18.0818 10.4808C18.0881 10.3954 18.0944 10.31 18.1027 10.2251C18.1168 10.0752 18.0515 9.95927 17.9472 9.85344C17.3577 9.25689 16.8554 8.59704 16.5181 7.82275ZM6.06796 19.0487C5.65575 19.503 5.16605 19.8205 4.50823 19.9041L4.92399 18.3929L5.11793 18.5041C5.43517 18.6859 5.74807 18.8652 6.06796 19.0487ZM7.95391 12.7812C8.20104 12.7807 8.39702 12.5857 8.39904 12.3381C8.40107 12.0874 8.21218 11.8909 7.96404 11.8874C7.70932 11.8828 7.50473 12.0783 7.5022 12.3279C7.49967 12.5766 7.70426 12.7817 7.95391 12.7812Z" fill="#0C1E3C"/>
</svg>
