<svg width="24" height="24" viewBox="0 0 24 24" fill="none" xmlns="http://www.w3.org/2000/svg">
<path fill-rule="evenodd" clip-rule="evenodd" d="M17.5467 19.8312C17.5444 20.4804 17.3448 20.7102 16.8528 20.7095C16.3622 20.7087 16.0969 20.3973 16.0969 19.8055C16.0939 15.0079 16.0924 10.2104 16.0931 5.41286C16.0931 5.18081 16.0992 4.94649 16.1249 4.71595C16.1808 4.19893 16.4401 3.9699 16.9087 4.00316C17.3569 4.0349 17.5573 4.26847 17.558 4.787C17.5596 6.59455 17.5593 8.4021 17.559 10.2097L17.5588 12.379H17.5497C17.5497 13.0562 17.55 13.7335 17.5504 14.4108V14.4109V14.4109V14.411V14.4111V14.4112V14.4113V14.4113C17.5513 16.218 17.5522 18.0248 17.5467 19.8312ZM6.44598 12.3844C6.44598 11.7628 6.44557 11.1412 6.44515 10.5197C6.44408 8.92125 6.44302 7.32284 6.449 5.72443C6.45127 5.06758 6.72263 4.74482 7.19656 4.76901C7.6327 4.79168 7.91011 5.16433 7.90784 5.73955C7.89575 10.0707 7.88214 14.4019 7.86854 18.733C7.86793 18.8449 7.86152 18.9567 7.85511 19.0686L7.85511 19.0686L7.85039 19.1525C7.82394 19.6476 7.58584 19.9197 7.17615 19.925C6.74606 19.9311 6.45505 19.6325 6.45354 19.1374C6.44917 17.5117 6.44993 15.886 6.45069 14.2602L6.45069 14.2572C6.45098 13.6329 6.45127 13.0087 6.45127 12.3844H6.44598ZM15.1302 13.6016V13.6016V13.6015V13.6014V13.6013V13.6012V13.6011C15.1294 13.1894 15.1286 12.7777 15.1286 12.366L15.143 8.03862C15.1422 7.53672 14.8437 7.19053 14.4279 7.19204C14.0009 7.1943 13.6978 7.52991 13.697 8.03559C13.6932 10.9208 13.6932 13.8059 13.6962 16.6911C13.697 17.1597 13.9948 17.4991 14.3947 17.5127C14.8119 17.5271 15.118 17.2346 15.1233 16.7387C15.1342 15.6932 15.1322 14.6473 15.1302 13.6016ZM5.42918 12.4027C5.42918 12.7418 5.42963 13.0809 5.43008 13.42C5.43117 14.2434 5.43227 15.0669 5.42691 15.8903C5.42313 16.4361 5.19788 16.6825 4.73982 16.6825C4.27723 16.6825 4.02325 16.396 4.0225 15.8609C4.01872 13.6456 4.01721 11.4295 4.0157 9.21419V9.21408V9.21397V9.21386V9.21375V9.21364L4.01569 9.21143C4.01569 9.02548 4.01721 8.83803 4.0361 8.65359C4.07692 8.26054 4.377 7.99523 4.74965 8.00959C5.14421 8.02395 5.41935 8.2749 5.42313 8.68307C5.43187 9.57837 5.43035 10.4741 5.42883 11.3696V11.3696V11.3697V11.3698V11.3699V11.3699V11.37C5.42825 11.7143 5.42767 12.0585 5.42767 12.4027H5.42918ZM8.85836 11.5598C8.85934 11.829 8.86032 12.0982 8.86032 12.3674H8.85578C8.85578 12.6572 8.85561 12.9469 8.85545 13.2366C8.85511 13.8158 8.85477 14.395 8.85578 14.9744C8.85729 15.5361 9.11807 15.8875 9.54212 15.9057C9.98279 15.9246 10.2942 15.5655 10.332 14.9933C10.3373 14.9162 10.3388 14.8384 10.338 14.7605L10.3341 13.7366C10.3289 12.3711 10.3237 11.0057 10.3146 9.64024C10.3108 9.11415 10.0508 8.83825 9.57311 8.82616C9.14604 8.81558 8.87317 9.09752 8.86485 9.62134C8.85365 10.2675 8.856 10.9136 8.85836 11.5598ZM18.5759 12.3285C18.5759 12.0559 18.5752 11.7833 18.5745 11.5108V11.5107V11.5107V11.5106C18.5727 10.8666 18.571 10.2228 18.579 9.57863C18.585 9.08051 18.8413 8.81067 19.2577 8.81596C19.706 8.82125 19.9736 9.10621 19.9758 9.60207C19.9824 11.1103 19.985 12.6191 19.9876 14.1274V14.1283L19.9887 14.7753C19.9887 14.9302 19.9856 15.0867 19.969 15.2409C19.9252 15.6468 19.6508 15.8932 19.257 15.8894C18.8586 15.8849 18.5873 15.64 18.5805 15.2182C18.5703 14.5335 18.5723 13.8484 18.5743 13.1634V13.1632V13.1631V13.163V13.1629C18.5751 12.8847 18.5759 12.6066 18.5759 12.3285ZM11.9478 14.2649C12.3824 14.2876 12.684 14.0321 12.7324 13.5279C12.759 13.2513 12.7524 12.9717 12.7458 12.6925V12.6925V12.6925L12.7458 12.6924C12.7429 12.5681 12.7399 12.4439 12.7399 12.32C12.7399 11.9322 12.7384 11.5415 12.715 11.1552C12.6862 10.6964 12.433 10.4523 12.0241 10.4372C11.6023 10.4213 11.3234 10.6382 11.3022 11.1053C11.2667 11.8945 11.2713 12.6866 11.2909 13.4765C11.3038 14.0124 11.5222 14.243 11.9478 14.2649ZM3.02074 12.3546C3.02074 12.4304 3.02094 12.5065 3.02114 12.5829C3.02204 12.9276 3.02295 13.2768 3.00562 13.6184C2.9837 14.0515 2.73729 14.2654 2.31702 14.2632C1.89978 14.2616 1.61255 13.9971 1.60801 13.5799C1.59894 12.79 1.59667 11.9993 1.6065 11.2094C1.61255 10.7302 1.87332 10.452 2.28981 10.4392C2.75014 10.4248 2.98521 10.6697 3.02074 11.2019C3.02527 11.2639 3.02679 11.3258 3.02754 11.3878C3.02754 11.7128 3.02074 12.3546 3.02074 12.3546ZM22.3945 12.7111C22.3932 12.5833 22.392 12.4554 22.392 12.3277H22.3965C22.3965 12.2011 22.3974 12.0745 22.3983 11.9479C22.4004 11.6557 22.4024 11.3636 22.3935 11.0714C22.3821 10.7229 22.0435 10.4312 21.6746 10.4259C21.3103 10.4206 21.0057 10.6753 20.9981 11.0457C20.9815 11.8983 20.9755 12.7517 20.9944 13.6036C21.0034 14.0382 21.2975 14.2756 21.7268 14.2665C22.1199 14.2582 22.37 14.0155 22.3882 13.5832C22.4003 13.2932 22.3974 13.0022 22.3945 12.7111Z" fill="#0C1E3C"/>
<mask id="mask0_0_2859" style="mask-type:luminance" maskUnits="userSpaceOnUse" x="1" y="4" width="22" height="17">
<path fill-rule="evenodd" clip-rule="evenodd" d="M17.5467 19.8312C17.5444 20.4804 17.3448 20.7102 16.8528 20.7095C16.3622 20.7087 16.0969 20.3973 16.0969 19.8055C16.0939 15.0079 16.0924 10.2104 16.0931 5.41286C16.0931 5.18081 16.0992 4.94649 16.1249 4.71595C16.1808 4.19893 16.4401 3.9699 16.9087 4.00316C17.3569 4.0349 17.5573 4.26847 17.558 4.787C17.5596 6.59455 17.5593 8.4021 17.559 10.2097L17.5588 12.379H17.5497C17.5497 13.0562 17.55 13.7335 17.5504 14.4108V14.4109V14.4109V14.411V14.4111V14.4112V14.4113V14.4113C17.5513 16.218 17.5522 18.0248 17.5467 19.8312ZM6.44598 12.3844C6.44598 11.7628 6.44557 11.1412 6.44515 10.5197C6.44408 8.92125 6.44302 7.32284 6.449 5.72443C6.45127 5.06758 6.72263 4.74482 7.19656 4.76901C7.6327 4.79168 7.91011 5.16433 7.90784 5.73955C7.89575 10.0707 7.88214 14.4019 7.86854 18.733C7.86793 18.8449 7.86152 18.9567 7.85511 19.0686L7.85511 19.0686L7.85039 19.1525C7.82394 19.6476 7.58584 19.9197 7.17615 19.925C6.74606 19.9311 6.45505 19.6325 6.45354 19.1374C6.44917 17.5117 6.44993 15.886 6.45069 14.2602L6.45069 14.2572C6.45098 13.6329 6.45127 13.0087 6.45127 12.3844H6.44598ZM15.1302 13.6016V13.6016V13.6015V13.6014V13.6013V13.6012V13.6011C15.1294 13.1894 15.1286 12.7777 15.1286 12.366L15.143 8.03862C15.1422 7.53672 14.8437 7.19053 14.4279 7.19204C14.0009 7.1943 13.6978 7.52991 13.697 8.03559C13.6932 10.9208 13.6932 13.8059 13.6962 16.6911C13.697 17.1597 13.9948 17.4991 14.3947 17.5127C14.8119 17.5271 15.118 17.2346 15.1233 16.7387C15.1342 15.6932 15.1322 14.6473 15.1302 13.6016ZM5.42918 12.4027C5.42918 12.7418 5.42963 13.0809 5.43008 13.42C5.43117 14.2434 5.43227 15.0669 5.42691 15.8903C5.42313 16.4361 5.19788 16.6825 4.73982 16.6825C4.27723 16.6825 4.02325 16.396 4.0225 15.8609C4.01872 13.6456 4.01721 11.4295 4.0157 9.21419V9.21408V9.21397V9.21386V9.21375V9.21364L4.01569 9.21143C4.01569 9.02548 4.01721 8.83803 4.0361 8.65359C4.07692 8.26054 4.377 7.99523 4.74965 8.00959C5.14421 8.02395 5.41935 8.2749 5.42313 8.68307C5.43187 9.57837 5.43035 10.4741 5.42883 11.3696V11.3696V11.3697V11.3698V11.3699V11.3699V11.37C5.42825 11.7143 5.42767 12.0585 5.42767 12.4027H5.42918ZM8.85836 11.5598C8.85934 11.829 8.86032 12.0982 8.86032 12.3674H8.85578C8.85578 12.6572 8.85561 12.9469 8.85545 13.2366C8.85511 13.8158 8.85477 14.395 8.85578 14.9744C8.85729 15.5361 9.11807 15.8875 9.54212 15.9057C9.98279 15.9246 10.2942 15.5655 10.332 14.9933C10.3373 14.9162 10.3388 14.8384 10.338 14.7605L10.3341 13.7366C10.3289 12.3711 10.3237 11.0057 10.3146 9.64024C10.3108 9.11415 10.0508 8.83825 9.57311 8.82616C9.14604 8.81558 8.87317 9.09752 8.86485 9.62134C8.85365 10.2675 8.856 10.9136 8.85836 11.5598ZM18.5759 12.3285C18.5759 12.0559 18.5752 11.7833 18.5745 11.5108V11.5107V11.5107V11.5106C18.5727 10.8666 18.571 10.2228 18.579 9.57863C18.585 9.08051 18.8413 8.81067 19.2577 8.81596C19.706 8.82125 19.9736 9.10621 19.9758 9.60207C19.9824 11.1103 19.985 12.6191 19.9876 14.1274V14.1283L19.9887 14.7753C19.9887 14.9302 19.9856 15.0867 19.969 15.2409C19.9252 15.6468 19.6508 15.8932 19.257 15.8894C18.8586 15.8849 18.5873 15.64 18.5805 15.2182C18.5703 14.5335 18.5723 13.8484 18.5743 13.1634V13.1632V13.1631V13.163V13.1629C18.5751 12.8847 18.5759 12.6066 18.5759 12.3285ZM11.9478 14.2649C12.3824 14.2876 12.684 14.0321 12.7324 13.5279C12.759 13.2513 12.7524 12.9717 12.7458 12.6925V12.6925V12.6925L12.7458 12.6924C12.7429 12.5681 12.7399 12.4439 12.7399 12.32C12.7399 11.9322 12.7384 11.5415 12.715 11.1552C12.6862 10.6964 12.433 10.4523 12.0241 10.4372C11.6023 10.4213 11.3234 10.6382 11.3022 11.1053C11.2667 11.8945 11.2713 12.6866 11.2909 13.4765C11.3038 14.0124 11.5222 14.243 11.9478 14.2649ZM3.02074 12.3546C3.02074 12.4304 3.02094 12.5065 3.02114 12.5829C3.02204 12.9276 3.02295 13.2768 3.00562 13.6184C2.9837 14.0515 2.73729 14.2654 2.31702 14.2632C1.89978 14.2616 1.61255 13.9971 1.60801 13.5799C1.59894 12.79 1.59667 11.9993 1.6065 11.2094C1.61255 10.7302 1.87332 10.452 2.28981 10.4392C2.75014 10.4248 2.98521 10.6697 3.02074 11.2019C3.02527 11.2639 3.02679 11.3258 3.02754 11.3878C3.02754 11.7128 3.02074 12.3546 3.02074 12.3546ZM22.3945 12.7111C22.3932 12.5833 22.392 12.4554 22.392 12.3277H22.3965C22.3965 12.2011 22.3974 12.0745 22.3983 11.9479C22.4004 11.6557 22.4024 11.3636 22.3935 11.0714C22.3821 10.7229 22.0435 10.4312 21.6746 10.4259C21.3103 10.4206 21.0057 10.6753 20.9981 11.0457C20.9815 11.8983 20.9755 12.7517 20.9944 13.6036C21.0034 14.0382 21.2975 14.2756 21.7268 14.2665C22.1199 14.2582 22.37 14.0155 22.3882 13.5832C22.4003 13.2932 22.3974 13.0022 22.3945 12.7111Z" fill="white"/>
</mask>
<g mask="url(#mask0_0_2859)">
</g>
</svg>
