<svg width="24" height="24" viewBox="0 0 24 24" fill="none" xmlns="http://www.w3.org/2000/svg">
<path fill-rule="evenodd" clip-rule="evenodd" d="M23.2512 5.00208V2.65581C23.2494 2.65049 23.247 2.64495 23.2445 2.63936C23.2402 2.6294 23.2358 2.61925 23.2347 2.60977C23.2068 2.28587 22.9569 2.10336 22.7069 2.06719C22.6412 2.05897 22.5738 2.05075 22.5063 2.05075C21.274 2.04992 20.0417 2.04951 18.8094 2.0491C17.577 2.04869 16.3447 2.04828 15.1124 2.04746H14.971C14.9646 2.03535 14.9591 2.02416 14.9539 2.0135C14.947 1.99956 14.9406 1.98652 14.9332 1.97347C14.4596 1.02312 13.705 0.422992 12.6576 0.248707C11.6842 0.0859318 10.8046 0.330917 10.0548 0.988596C9.74574 1.26153 9.51226 1.59695 9.33304 1.96689C9.29687 2.04253 9.25576 2.0639 9.17191 2.06226C8.61946 2.05568 8.06701 2.05075 7.51456 2.05075C5.57934 2.0491 3.64412 2.0491 1.7089 2.05075C1.61847 2.05075 1.5264 2.06061 1.4409 2.08527C1.19098 2.15762 1.03149 2.35821 1.0167 2.61799C1.00519 2.78899 1.0019 2.96163 1.0019 3.13263C0.998614 3.58095 1.00025 4.02763 1.00189 4.47594L1.0019 4.47758C1.0019 4.54889 1.004 4.62054 1.0061 4.69222C1.00855 4.77591 1.01101 4.85964 1.01012 4.94289C1.00683 5.26022 1.18934 5.55288 1.62176 5.58577C1.66122 5.58906 1.70233 5.58906 1.74343 5.58906H3.02755H3.141V6.37827C3.10318 6.37827 3.06865 6.37827 3.03248 6.37992C2.97884 6.38143 2.92489 6.38171 2.87086 6.38198C2.74936 6.38259 2.62749 6.38321 2.50798 6.398C2.2186 6.43253 2.02623 6.63312 1.98677 6.92086C1.97526 6.9932 1.97197 7.06719 1.97197 7.14118V13.9498C1.97197 16.9833 1.97362 20.0185 1.97526 23.0537C1.97526 23.1491 1.98513 23.2494 2.00815 23.3431C2.06076 23.5618 2.20545 23.6966 2.42084 23.7591C2.44004 23.7648 2.45924 23.7708 2.47858 23.7768C2.50394 23.7847 2.52954 23.7927 2.55566 23.8002H5.0236C5.02977 23.7977 5.03594 23.7951 5.04211 23.7926C5.0606 23.7849 5.0791 23.7772 5.09759 23.7722C5.40835 23.6982 5.57276 23.4681 5.58592 23.1359C5.58701 23.1207 5.58665 23.1055 5.58629 23.0898C5.58611 23.0817 5.58592 23.0736 5.58592 23.0652V7.10172C5.58592 7.02115 5.58099 6.93894 5.5629 6.86002C5.51029 6.6101 5.31956 6.42924 5.06142 6.39965C4.93906 6.38592 4.81432 6.38493 4.68996 6.38393C4.63551 6.3835 4.58113 6.38306 4.52706 6.38156C4.50557 6.38049 4.48409 6.38082 4.46077 6.38117C4.4484 6.38136 4.43551 6.38156 4.42183 6.38156V5.60714C4.49417 5.58741 7.13146 5.57919 7.29917 5.59892C7.32055 5.67291 7.32712 6.14973 7.30904 6.37498C7.29992 6.37549 7.29048 6.37615 7.28088 6.37683C7.25933 6.37834 7.23693 6.37992 7.21532 6.37992C7.1479 6.38074 7.08049 6.38115 7.01308 6.38156C6.94567 6.38197 6.87826 6.38238 6.81084 6.3832C6.42775 6.38814 6.17454 6.62326 6.15152 7.00471C6.14474 7.10644 6.14651 7.20818 6.14827 7.30991C6.14907 7.35616 6.14988 7.4024 6.14988 7.44864C6.14988 11.883 6.14988 16.3191 6.15152 20.7535C6.15152 20.8472 6.15645 20.9426 6.17618 21.033C6.23209 21.2813 6.39157 21.4325 6.6382 21.4884C6.7089 21.5049 6.78454 21.5115 6.85853 21.5115C7.58362 21.5131 8.30871 21.5131 9.03215 21.5115C9.09299 21.5115 9.15382 21.5065 9.21466 21.4967C9.54021 21.4457 9.73423 21.2319 9.75724 20.9015C9.76053 20.8423 9.76053 20.7814 9.76053 20.7206V9.63214C9.76053 8.90747 9.76218 8.1828 9.76382 7.45812L9.76382 7.45686C9.76382 7.42152 9.76413 7.38617 9.76444 7.35082C9.76536 7.24477 9.76629 7.13872 9.75889 7.03266C9.73258 6.62326 9.46787 6.37827 9.06011 6.37992C9.00071 6.37992 8.94131 6.38116 8.88212 6.38239C8.82334 6.38362 8.76477 6.38485 8.7066 6.38485C8.67918 6.38609 8.65177 6.38356 8.6222 6.38083C8.61276 6.37996 8.6031 6.37907 8.59315 6.37827V5.61536L8.59973 5.60879C8.60302 5.60714 8.60631 5.60385 8.60795 5.60221C8.61211 5.60169 8.61626 5.60101 8.62047 5.60031C8.62958 5.59882 8.63893 5.59728 8.64906 5.59728H11.4294C11.4442 5.59728 11.4573 5.59892 11.4705 5.60057C11.4751 5.60171 11.4789 5.60447 11.4841 5.60826C11.4864 5.6099 11.4889 5.61174 11.4919 5.61372V6.37827C11.4508 6.37827 11.4113 6.37827 11.3718 6.37992C11.3188 6.38145 11.2656 6.38155 11.2123 6.38166C11.094 6.38189 10.9757 6.38213 10.8589 6.398C10.5448 6.44075 10.3426 6.67423 10.3245 6.98991C10.3228 7.04088 10.3228 7.09185 10.3228 7.14282C10.3228 8.38687 10.3227 9.6311 10.3225 10.8754C10.3221 13.3642 10.3218 15.8532 10.3228 18.3414C10.3228 18.4598 10.3278 18.5782 10.3442 18.6949C10.387 18.9893 10.5662 19.1652 10.8605 19.2063C10.9509 19.2178 11.0414 19.2244 11.1334 19.226C11.5937 19.2271 12.0539 19.2268 12.5147 19.2264C12.7452 19.2262 12.9759 19.226 13.2068 19.226C13.2775 19.226 13.3482 19.2194 13.4172 19.2079C13.6984 19.1619 13.8842 18.9728 13.9236 18.6917C13.9335 18.6226 13.9384 18.5503 13.9384 18.4796C13.9384 17.2206 13.9386 15.9617 13.9388 14.7028C13.9392 12.185 13.9395 9.66721 13.9384 7.1494C13.9384 7.0491 13.9286 6.94716 13.9056 6.84851C13.8464 6.59037 13.6754 6.44404 13.4189 6.39965C13.3272 6.38491 13.2306 6.38322 13.1373 6.38158L13.1361 6.38156C13.0464 6.3791 12.9568 6.3794 12.8637 6.37971C12.8322 6.37981 12.8002 6.37992 12.7678 6.37992V5.60221H15.6533C15.6747 5.6762 15.6813 6.20892 15.6632 6.37498C15.6535 6.37563 15.6434 6.3768 15.6334 6.37796C15.618 6.37976 15.6025 6.38156 15.5876 6.38156C15.5499 6.38156 15.5122 6.38119 15.4746 6.38083C15.3741 6.37985 15.2737 6.37887 15.1732 6.38485C15.0795 6.38978 14.9809 6.398 14.8954 6.43089C14.6356 6.53118 14.5123 6.73671 14.4975 7.00964C14.4953 7.0502 14.496 7.09076 14.4967 7.13131C14.4971 7.15159 14.4975 7.17187 14.4975 7.19215C14.4975 10.2027 14.4975 13.2148 14.4991 16.2254C14.4991 16.3125 14.5057 16.4013 14.5287 16.4851C14.5945 16.7466 14.8033 16.9176 15.0713 16.9406C15.1288 16.9439 15.1864 16.9455 15.2439 16.9455C15.6048 16.9447 15.9653 16.9443 16.3258 16.9439C16.6863 16.9435 17.0468 16.9431 17.4077 16.9422C17.4652 16.9422 17.5228 16.9422 17.5787 16.9324C17.8944 16.8748 18.09 16.6545 18.1114 16.3339C18.1131 16.2895 18.1131 16.2467 18.1131 16.2023V7.22832C18.1131 7.20758 18.1133 7.18676 18.1135 7.16589C18.1143 7.0892 18.1152 7.01192 18.1048 6.93565C18.0588 6.60681 17.8072 6.38814 17.4735 6.38156C17.3583 6.37937 17.2439 6.3801 17.1297 6.38083C17.0727 6.3812 17.0158 6.38156 16.9588 6.38156C16.9375 6.30593 16.9325 5.72224 16.9522 5.59728H19.8197C19.8395 5.66962 19.8444 6.23851 19.8247 6.37992C19.7803 6.37992 19.7342 6.37992 19.6882 6.38156C19.6439 6.38245 19.5994 6.3825 19.5549 6.38255C19.4339 6.38269 19.3127 6.38282 19.1949 6.39965C18.899 6.44239 18.6951 6.67752 18.6787 6.97511C18.6754 7.01622 18.6754 7.05732 18.6754 7.09679C18.6754 9.37729 18.6754 11.6561 18.677 13.9366C18.677 14.0156 18.6803 14.0978 18.6967 14.1767C18.7559 14.4513 18.9615 14.6288 19.241 14.6535C19.2804 14.6568 19.3215 14.6584 19.3626 14.6584H21.5774C21.6448 14.6584 21.7122 14.6552 21.778 14.642C22.0805 14.5812 22.2597 14.374 22.2794 14.0665C22.2827 14.0189 22.2827 13.9712 22.2827 13.9251C22.2844 11.6677 22.2844 9.41181 22.2827 7.15598C22.2827 7.06555 22.2778 6.97347 22.2614 6.88468C22.212 6.60517 22.0361 6.43417 21.7549 6.40129C21.641 6.38824 21.5262 6.38632 21.4118 6.38441C21.3677 6.38367 21.3237 6.38293 21.2798 6.38156C21.2304 6.37992 21.1795 6.37992 21.1236 6.37992V5.58741C21.1387 5.58741 21.1532 5.58722 21.1675 5.58704C21.195 5.58667 21.2214 5.58633 21.2485 5.58741C21.6793 5.58741 22.1101 5.58741 22.5425 5.5907C22.6477 5.5907 22.7513 5.58084 22.85 5.53973C23.067 5.44766 23.2018 5.28817 23.2347 5.04812C23.2357 5.03935 23.2396 5.03058 23.2436 5.02148C23.2463 5.01521 23.2492 5.00878 23.2512 5.00208ZM21.9753 3.31513H21.852L16.4705 3.3102H14.6504C14.5862 3.3102 14.5221 3.30856 14.458 3.30198C14.2295 3.27732 14.0601 3.16551 13.9631 2.95341C13.9335 2.88929 13.9088 2.82352 13.8891 2.75446C13.6112 1.79754 12.5244 1.25496 11.6103 1.53611C10.9887 1.72684 10.5695 2.13789 10.3656 2.76104L10.3557 2.79136C10.3329 2.86175 10.3103 2.93166 10.2801 2.9978C10.1979 3.17209 10.0565 3.27567 9.86741 3.30362C9.76711 3.31678 9.66517 3.32335 9.56487 3.32335C7.8993 3.32335 6.23373 3.32171 4.56816 3.32007C4.20562 3.32007 3.84348 3.31965 3.48135 3.31924C3.11921 3.31883 2.75708 3.31842 2.39453 3.31842C2.36798 3.31842 2.34217 3.31991 2.3166 3.32139C2.30418 3.3221 2.29181 3.32282 2.27944 3.32335V4.32303H21.9753V3.31513ZM12.6527 7.6591V17.9485H11.6135C11.5922 17.8712 11.5823 7.87942 11.6037 7.66568C11.6744 7.6443 12.5211 7.63937 12.6527 7.6591ZM19.9611 7.65088C19.9398 7.7594 19.943 13.3086 19.9644 13.3891H21.0035V7.65088H19.9611ZM15.7849 15.6778H16.8306V7.65417H15.7849V15.6778ZM7.43235 7.65252V20.2372H8.47313C8.49615 20.0909 8.48793 7.72322 8.46655 7.65252H7.43235ZM4.30509 7.65252V22.5144H3.26102C3.23965 22.4404 3.23307 7.78735 3.25445 7.65252H4.30509Z" fill="#0C1E3C"/>
</svg>
