<svg width="24" height="24" viewBox="0 0 24 24" fill="none" xmlns="http://www.w3.org/2000/svg">
<path fill-rule="evenodd" clip-rule="evenodd" d="M17.4391 5.90403C17.4298 5.89183 17.4207 5.87938 17.4116 5.8669C17.3904 5.83771 17.369 5.80838 17.3449 5.78181C16.5968 4.95784 15.6731 4.44646 14.5829 4.2273C13.9458 4.09875 13.3003 4.07909 12.6575 4.12826C10.8719 4.26594 9.43752 5.0906 8.27217 6.42173C7.83806 6.91766 7.51213 7.48453 7.20797 8.06475C6.7577 8.92384 6.28496 9.76958 5.68648 10.5352C4.93065 11.5025 4.07999 12.3714 3.00174 12.9903C2.28174 13.4033 1.51818 13.7004 0.702645 13.8627C0.512283 13.9006 0.338077 13.881 0.183539 13.7412C-0.100248 13.4841 -0.0496718 13.0409 0.29874 12.8659C0.391023 12.8195 0.494064 12.7927 0.596412 12.7661L0.596514 12.7661C0.61956 12.7601 0.642571 12.7541 0.665415 12.7479C1.48025 12.5267 2.25996 12.2239 2.95187 11.7273C3.74774 11.1569 4.40452 10.4495 4.9749 9.65929C5.47364 8.96879 5.87965 8.2235 6.27653 7.47259C6.62354 6.81861 7.00356 6.18571 7.49668 5.62797C8.66905 4.30036 10.121 3.45742 11.8588 3.10971C12.4868 2.98468 13.1211 2.98468 13.7576 3.0205C14.3975 3.05633 15.0248 3.1624 15.6331 3.36892C17.0731 3.85852 18.1689 4.75765 18.8798 6.10915C18.9774 6.296 19.0617 6.499 19.1038 6.70482C19.1994 7.17405 18.8222 7.63134 18.3445 7.66436C18.1008 7.68192 17.8844 7.62151 17.694 7.46767C17.657 7.4376 17.6203 7.4071 17.5837 7.37663L17.5837 7.3766L17.5836 7.37656C17.5065 7.31237 17.4296 7.24833 17.3491 7.1888C16.9164 6.86849 16.4275 6.75469 15.8972 6.81159C15.7026 6.83266 15.5396 6.93381 15.3935 7.05393C14.9089 7.45432 14.6391 7.96922 14.5914 8.5979C14.4558 10.3681 15.6162 11.9436 17.3639 12.4824C18.2124 12.7437 19.0807 12.828 19.9643 12.7718C20.5621 12.7332 21.1522 12.6517 21.7247 12.4677C22.177 12.3216 22.5957 12.1073 22.9898 11.8446C23.1359 11.7477 23.2862 11.676 23.4695 11.6718C23.714 11.6662 23.8566 11.7975 23.9535 11.9963C24.0434 12.1804 23.9992 12.4276 23.8531 12.5751C23.7898 12.6391 23.7154 12.6946 23.6402 12.7458C22.9301 13.2256 22.1475 13.5361 21.3109 13.7089C19.8611 14.0088 18.4218 13.9653 17.0078 13.5122C15.9365 13.1694 15.0332 12.5744 14.3743 11.6479C13.7667 10.793 13.445 9.83912 13.4724 8.78545C13.4955 7.89405 13.7716 7.08905 14.4031 6.43929C14.9117 5.91597 15.5347 5.64272 16.2765 5.69049C16.6067 5.71227 16.9305 5.77478 17.2431 5.88928C17.2815 5.90305 17.3213 5.91328 17.3607 5.92346L17.3608 5.92347C17.3797 5.92835 17.3986 5.93322 17.4173 5.93845C17.4229 5.93034 17.4281 5.92187 17.4332 5.91355L17.4332 5.91346L17.4391 5.90403ZM2.95735 18.7347C3.55232 18.7087 4.06159 18.9124 4.49289 19.3163C4.60627 19.4222 4.71861 19.529 4.83092 19.6357L4.83102 19.6358C4.98101 19.7783 5.13092 19.9208 5.28314 20.0609C5.60626 20.3581 5.98628 20.4044 6.39089 20.2759C6.49836 20.2415 6.60513 20.1789 6.69083 20.1052C6.83367 19.9812 6.97105 19.8515 7.10849 19.7217L7.10854 19.7217L7.10865 19.7216C7.18609 19.6485 7.26354 19.5753 7.342 19.5032C7.41897 19.432 7.49823 19.3633 7.57755 19.2946L7.57768 19.2945C7.61485 19.2623 7.65203 19.2301 7.689 19.1976C8.12241 18.8148 8.6359 18.7115 9.19855 18.7361C9.72539 18.7586 10.1658 18.9616 10.543 19.317C10.6473 19.4153 10.7495 19.5156 10.8515 19.6157C10.9537 19.7159 11.0558 19.8161 11.1598 19.9141C11.3298 20.0743 11.5033 20.2365 11.7372 20.2934C12.1074 20.3834 12.46 20.3447 12.7606 20.0904C12.8868 19.9832 13.0063 19.8683 13.1257 19.7533L13.1258 19.7532C13.1785 19.7025 13.2313 19.6517 13.2847 19.6015C13.3275 19.5615 13.3701 19.5211 13.4128 19.4808C13.498 19.4001 13.5832 19.3194 13.6703 19.2412C14.1255 18.8345 14.6671 18.7122 15.2627 18.7354C15.7538 18.7544 16.1647 18.9426 16.5215 19.2644C16.6553 19.3854 16.7871 19.5089 16.9189 19.6324L16.9191 19.6326C17.0764 19.78 17.2338 19.9275 17.3947 20.0708C17.7375 20.3763 18.1322 20.4058 18.5509 20.2576C18.6141 20.2351 18.6759 20.1965 18.7265 20.1515C18.8524 20.0405 18.9757 19.9269 19.099 19.8133L19.0992 19.8131C19.1678 19.7499 19.2363 19.6867 19.3053 19.624C19.3414 19.5911 19.3773 19.558 19.4133 19.5248L19.4134 19.5247L19.4135 19.5247C19.5324 19.4152 19.6516 19.3056 19.7745 19.2004C20.2009 18.8338 20.7053 18.7087 21.2567 18.7361C21.5229 18.7495 21.7807 18.7916 22.0273 18.8984C22.2261 18.9841 22.4101 19.0909 22.5639 19.2433C22.9559 19.6338 23.3451 20.0272 23.7335 20.422C23.7925 20.4817 23.8438 20.5512 23.8916 20.6208C24.0391 20.8392 23.9997 21.0942 23.7918 21.2923C23.5979 21.4771 23.3598 21.5009 23.154 21.3324C22.9974 21.2054 22.8519 21.065 22.7067 20.925L22.6265 20.8477L22.5028 20.7293C22.2894 20.5253 22.076 20.3213 21.8699 20.1094C21.6121 19.8446 21.2953 19.8116 20.9553 19.8453C20.7404 19.8664 20.5571 19.9577 20.4025 20.1052L20.3051 20.1975C20.116 20.3766 19.9267 20.5559 19.745 20.7423C19.3812 21.116 18.9435 21.3478 18.4294 21.4223C17.7691 21.5185 17.1811 21.3387 16.6768 20.9074C16.5199 20.7737 16.3715 20.63 16.2233 20.4864L16.2231 20.4862C16.1432 20.4087 16.0633 20.3313 15.982 20.2555C15.919 20.1969 15.8527 20.1424 15.7866 20.088L15.7376 20.0476C15.4629 19.8207 15.1454 19.7898 14.8104 19.8537C14.6509 19.8839 14.521 19.9759 14.4037 20.082C14.1445 20.3159 13.8895 20.554 13.6345 20.7922C13.3233 21.083 12.9763 21.3057 12.5499 21.3885C11.8425 21.5269 11.1977 21.4033 10.6456 20.92C10.489 20.7827 10.3371 20.64 10.1851 20.4972C10.0712 20.3901 9.9572 20.283 9.84129 20.1782C9.67481 20.0279 9.4985 19.8867 9.2688 19.8474C8.95972 19.794 8.66329 19.8235 8.41252 20.0328C8.26853 20.1527 8.13039 20.2793 7.99199 20.4061C7.94473 20.4494 7.89743 20.4927 7.84986 20.5358C7.80029 20.5809 7.75162 20.6271 7.7029 20.6735L7.70288 20.6735C7.62181 20.7505 7.54064 20.8277 7.45509 20.8996C6.7393 21.503 5.94765 21.5944 5.09207 21.2445C4.86167 21.1497 4.66218 21.0099 4.48305 20.8385C4.28543 20.6493 4.08663 20.4613 3.88782 20.2733L3.68929 20.0855C3.41042 19.8214 3.06552 19.801 2.71711 19.8516C2.58365 19.8713 2.44527 19.9577 2.3406 20.0497C2.15348 20.2142 1.97568 20.3892 1.79798 20.564L1.79795 20.564C1.72683 20.634 1.65574 20.7039 1.58407 20.7732C1.52721 20.8282 1.47095 20.8839 1.4147 20.9396L1.41445 20.9399C1.29845 21.0547 1.1825 21.1695 1.06145 21.2783C0.833861 21.4827 0.584494 21.4799 0.349175 21.2832C0.149682 21.116 0.0991057 20.7571 0.278931 20.5688C0.345163 20.4994 0.411282 20.4298 0.477422 20.3602L0.477443 20.3602C0.879177 19.9373 1.28167 19.5137 1.71472 19.1253C2.0245 18.8471 2.43684 18.7396 2.86322 18.7347H2.95735ZM4.51024 15.9566C4.067 15.5345 3.55351 15.2893 2.89813 15.3336C2.8784 15.3336 2.85613 15.3329 2.83212 15.3322C2.77321 15.3305 2.70378 15.3285 2.63542 15.335C2.27577 15.368 1.92665 15.4762 1.66605 15.715C1.19457 16.147 0.751738 16.6121 0.310284 17.0758C0.288053 17.0992 0.265826 17.1225 0.243598 17.1459C0.0441044 17.3559 0.10311 17.7331 0.34194 17.8961C0.589903 18.0654 0.801338 18.0731 1.00926 17.875C1.12342 17.7664 1.23627 17.6563 1.34909 17.5461C1.42092 17.476 1.49275 17.4059 1.56489 17.3362C1.64084 17.2631 1.71584 17.1888 1.79087 17.1144C1.9573 16.9495 2.12384 16.7844 2.30105 16.6324C2.65438 16.3296 3.25357 16.3359 3.60549 16.6422C3.86217 16.8661 4.10658 17.104 4.35076 17.3418C4.36786 17.3584 4.38496 17.3751 4.40206 17.3917C4.61982 17.6032 4.86427 17.7689 5.15016 17.8729C5.97132 18.1707 6.72645 18.064 7.40149 17.4957C7.4923 17.4195 7.57864 17.338 7.66482 17.2566C7.70664 17.2171 7.74842 17.1776 7.79065 17.1388C7.90324 17.0348 8.01615 16.9311 8.12895 16.8275C8.18294 16.7779 8.2369 16.7283 8.29079 16.6787C8.67854 16.3226 9.29809 16.3226 9.68795 16.671C9.72278 16.7025 9.7586 16.7329 9.79437 16.7634C9.83289 16.7962 9.87136 16.8289 9.90851 16.8628C9.99191 16.9397 10.0747 17.0173 10.1574 17.0949C10.3179 17.2454 10.4783 17.3958 10.6433 17.5413C11.4279 18.2332 12.712 18.1511 13.394 17.547C13.5136 17.4408 13.6324 17.3336 13.7511 17.2266C13.8004 17.1821 13.8498 17.1376 13.8991 17.0932C13.959 17.0391 14.019 16.9851 14.079 16.9311C14.1991 16.8231 14.3191 16.7151 14.4386 16.6064C14.7217 16.3472 15.3286 16.3577 15.5983 16.5692C15.7514 16.6893 15.9018 16.8129 16.0465 16.9436C16.1334 17.0221 16.2176 17.1039 16.3018 17.1857C16.4231 17.3034 16.5444 17.4212 16.6737 17.5294C17.0987 17.8841 17.5968 18.0583 18.1482 18.0338C18.7242 18.0085 19.2292 17.7949 19.6444 17.3833C19.813 17.2157 19.9846 17.0511 20.1561 16.8865C20.2205 16.8248 20.2848 16.7631 20.3489 16.7012C20.5161 16.5404 20.7142 16.4469 20.946 16.428C21.2733 16.4013 21.5782 16.4406 21.8241 16.6942C21.9589 16.8335 22.0997 16.9668 22.2405 17.1002C22.2985 17.1551 22.3565 17.21 22.4141 17.2653C22.4692 17.3181 22.5241 17.3711 22.579 17.4242C22.7433 17.583 22.9079 17.742 23.0779 17.8947C23.1446 17.9544 23.2367 18.0064 23.3245 18.0211C23.5598 18.0611 23.7326 17.9424 23.8534 17.7514C23.9672 17.5715 23.9756 17.384 23.8457 17.2042C23.793 17.1304 23.7382 17.0559 23.6743 16.9913L23.6277 16.9439C23.2667 16.5761 22.9054 16.2081 22.537 15.8477C22.4303 15.7431 22.3052 15.6518 22.1739 15.5794C21.6203 15.276 21.0317 15.2605 20.4339 15.4059C20.0623 15.4965 19.7722 15.7347 19.4976 15.9875C19.3622 16.1118 19.2287 16.2379 19.0952 16.3641C18.9841 16.469 18.873 16.574 18.7607 16.678C18.5015 16.9183 18.191 16.9618 17.8553 16.9084C17.6171 16.8712 17.4324 16.7413 17.2617 16.5818C17.2228 16.5452 17.1839 16.5086 17.145 16.472C16.9045 16.2456 16.6638 16.0191 16.4159 15.8014C16.1315 15.552 15.8062 15.375 15.4213 15.3434C15.2274 15.3279 15.0314 15.3272 14.8369 15.3329C14.4828 15.3427 14.1499 15.4396 13.8668 15.6532C13.6865 15.7894 13.5188 15.942 13.3511 16.0948C13.3025 16.139 13.254 16.1832 13.2051 16.2271C13.1223 16.3015 13.0417 16.3786 12.9611 16.4558C12.894 16.52 12.8269 16.5843 12.7583 16.6471C12.3643 17.0089 11.6857 17.0257 11.2748 16.6422C11.238 16.6077 11.2003 16.5739 11.1625 16.5402C11.1158 16.4985 11.069 16.4567 11.024 16.4132C10.8498 16.2453 10.6763 16.076 10.5035 15.906C9.9324 15.3441 9.23487 15.2458 8.48185 15.3645C8.13133 15.42 7.84333 15.6082 7.58413 15.8379C7.28981 16.0985 7.0004 16.3647 6.71942 16.6394C6.32886 17.0215 5.61729 17.0236 5.23446 16.6457C5.08032 16.4939 4.92264 16.3456 4.76505 16.1974C4.67989 16.1173 4.59476 16.0372 4.51024 15.9566Z" fill="#0C1E3C"/>
</svg>
