<svg width="24" height="24" viewBox="0 0 24 24" fill="none" xmlns="http://www.w3.org/2000/svg">
<path fill-rule="evenodd" clip-rule="evenodd" d="M6.44905 4.00003L6.49846 4.0118L6.49847 4.0118L6.4985 4.01181C6.56485 4.02756 6.65173 4.04819 6.7382 4.07084L6.93954 4.12474C7.40838 4.25056 7.87671 4.37623 8.35508 4.46227C8.74717 4.53308 9.14057 4.60259 9.53594 4.65242C9.97655 4.70815 10.4204 4.74552 10.863 4.78158C11.0574 4.79742 11.2528 4.80189 11.4479 4.80635L11.5652 4.80912L11.6177 4.81046C11.7838 4.81472 11.9499 4.81899 12.1153 4.81306L12.1798 4.81085C12.6173 4.79588 13.0554 4.78089 13.4922 4.75339C14.1499 4.71143 14.8023 4.61898 15.4507 4.50096C16.1215 4.37835 16.7837 4.21836 17.4387 4.03019C17.5154 4.00789 17.6013 3.9974 17.6793 4.00658C17.8282 4.02363 17.9174 4.12329 17.9501 4.27934C17.9777 4.41047 17.9233 4.54292 17.8006 4.6216C17.7515 4.65373 17.6951 4.67864 17.638 4.69503C16.8958 4.91665 16.1438 5.09893 15.3799 5.22744C14.9832 5.29366 14.5839 5.34939 14.184 5.39267C13.8072 5.43382 13.4293 5.45786 13.0513 5.4819L13.011 5.48446C12.6904 5.50479 12.3691 5.52249 12.0485 5.52708C11.7528 5.53036 11.4564 5.52118 11.1613 5.50544C10.7915 5.48577 10.4217 5.46151 10.0533 5.42348C9.67494 5.3848 9.29728 5.33169 8.92027 5.27596C8.31181 5.18613 7.71056 5.05893 7.11587 4.90419C6.91966 4.85316 6.72495 4.79726 6.53004 4.7413L6.53004 4.7413C6.46702 4.72321 6.40398 4.70511 6.34087 4.68717C6.30677 4.67733 6.27202 4.66422 6.23989 4.64783C6.08974 4.57374 6.015 4.41572 6.05303 4.2577C6.09171 4.09641 6.22416 3.99871 6.44905 4.00003ZM6.68601 13.4618C6.65466 13.4573 6.62316 13.4525 6.59153 13.4478L6.59152 13.4478L6.59148 13.4478L6.59144 13.4478L6.59141 13.4478L6.59138 13.4478L6.59135 13.4477L6.59133 13.4477L6.5913 13.4477L6.59128 13.4477L6.59125 13.4477L6.59122 13.4477L6.5912 13.4477L6.59118 13.4477L6.59117 13.4477L6.59115 13.4477C6.53095 13.4387 6.47027 13.4295 6.40932 13.4218C6.22245 13.3982 6.04083 13.3582 5.88281 13.2474C5.58842 13.0402 5.44483 12.7537 5.48023 12.397C5.49534 12.2464 5.53652 12.0984 5.57748 11.9511L5.57748 11.9511C5.58807 11.913 5.59864 11.875 5.60875 11.837L5.62643 11.7711C5.73459 11.3675 5.8427 10.9642 5.96084 10.5637C6.07296 10.1841 6.31621 9.92249 6.7142 9.84315C7.2925 9.72841 7.81048 10.0936 7.87802 10.6824C7.88588 10.7506 7.88785 10.8201 7.88457 10.8883C7.88186 10.9358 7.87447 10.9826 7.8667 11.0319L7.8667 11.0319C7.8632 11.054 7.85963 11.0767 7.85638 11.1001L7.94605 11.0875L7.9461 11.0875L7.94615 11.0875L7.9462 11.0875L7.94628 11.0875C8.00277 11.0797 8.05869 11.0719 8.11406 11.0634L9.25885 10.8824C9.32036 10.8726 9.38186 10.8626 9.44338 10.8526C9.59304 10.8282 9.7428 10.8038 9.89289 10.7834C10.222 10.7395 10.5276 10.8149 10.8121 10.9794C11.0849 11.1381 11.2927 11.3584 11.4265 11.6456C11.4283 11.65 11.4309 11.6541 11.4346 11.6598L11.4409 11.6698C11.517 11.6443 11.593 11.618 11.6691 11.5918C11.7034 11.5798 11.7375 11.5671 11.7716 11.5545L11.7717 11.5545C11.8414 11.5286 11.9112 11.5028 11.9825 11.4817C12.0566 11.46 12.0841 11.4115 12.1005 11.3427L12.1196 11.2621C12.1502 11.132 12.1808 11.0017 12.2205 10.8745C12.3812 10.3533 12.6395 9.88774 13.025 9.49696C13.3581 9.15929 13.7522 8.91604 14.1928 8.74491C14.5114 8.62098 14.8399 8.52591 15.1809 8.49772C16.3611 8.40134 17.3111 8.82031 18.0015 9.78939C18.2986 10.2064 18.4651 10.6785 18.5248 11.186C18.5923 11.7564 18.5674 12.3222 18.3871 12.871C18.1137 13.7031 17.5636 14.2932 16.7748 14.6636C16.6839 14.7066 16.5902 14.7434 16.4965 14.7801C16.413 14.8128 16.3295 14.8456 16.2483 14.8826C15.8909 15.0452 15.6208 15.3016 15.4366 15.6504C15.1087 16.2707 14.6183 16.729 13.998 17.0476C13.444 17.3329 12.8552 17.525 12.2487 17.6627C11.6547 17.7977 11.0528 17.8561 10.4436 17.8358C9.767 17.8128 9.1074 17.6915 8.46287 17.4856C8.03669 17.3493 7.63214 17.1696 7.2748 16.8962C6.8932 16.6031 6.58635 16.251 6.41325 15.7953C6.28605 15.4596 6.25458 15.1128 6.29326 14.7567C6.33523 14.3666 6.4657 14.0027 6.61979 13.6454C6.63799 13.6029 6.65501 13.5601 6.67208 13.5171L6.67208 13.5171L6.67209 13.5171L6.67209 13.5171L6.6721 13.5171L6.67211 13.517L6.67211 13.517L6.67212 13.517L6.67212 13.517L6.67213 13.517L6.67213 13.517L6.67214 13.517L6.67215 13.5169L6.67215 13.5169L6.67216 13.5169L6.67218 13.5169L6.68732 13.4788C6.68825 13.477 6.68786 13.4745 6.6871 13.4695L6.68601 13.4618ZM12.0395 12.1826L12.0307 12.177L12.0218 12.1714C11.9913 12.1924 11.9601 12.2127 11.929 12.2329C11.8646 12.2748 11.8002 12.3167 11.7406 12.3649C11.614 12.4671 11.5498 12.6061 11.5301 12.7687L11.5227 12.8295L11.5227 12.8295C11.5024 12.9963 11.482 13.1637 11.4481 13.328C11.4121 13.5051 11.4547 13.6447 11.5871 13.7641C11.9904 14.1279 12.3923 14.4932 12.7936 14.859L12.8401 14.901L12.8401 14.901C12.9207 14.9734 13.0022 15.0465 13.067 15.1311C13.2053 15.3134 13.1076 15.5881 12.8893 15.6517C12.7385 15.6957 12.6113 15.6406 12.5005 15.5389C12.2263 15.2887 11.9525 15.0377 11.6785 14.7865L11.678 14.7861L11.4193 14.5489L11.3629 14.4979L11.3026 14.4433L11.2862 14.5676C11.277 14.6378 11.2682 14.705 11.2586 14.7725C11.2531 14.8129 11.2479 14.8535 11.2428 14.894C11.2282 15.008 11.2135 15.1222 11.1918 15.2354C11.161 15.3993 11.0265 15.5147 10.877 15.5193C10.6456 15.5258 10.483 15.3481 10.5099 15.1082C10.5314 14.9121 10.5573 14.7164 10.5832 14.5205L10.5832 14.5204L10.5832 14.5203C10.592 14.4536 10.6009 14.3868 10.6095 14.3201C10.6476 14.025 10.6862 13.73 10.7256 13.4356C10.7613 13.1631 10.7983 12.8912 10.8352 12.6188L10.8423 12.5668L10.8449 12.5472L10.8449 12.5471C10.8612 12.4246 10.8774 12.3024 10.8593 12.1773C10.7971 11.7511 10.4089 11.4115 9.90075 11.4863C9.7942 11.502 9.6879 11.5196 9.58154 11.5372L9.58153 11.5372L9.58151 11.5372C9.51968 11.5474 9.45783 11.5577 9.39589 11.5676L9.13729 11.6089C8.84562 11.6556 8.55373 11.7023 8.26224 11.7479C8.21497 11.7554 8.1677 11.7633 8.12041 11.7713C7.98141 11.7947 7.84222 11.8181 7.7023 11.8298C7.3325 11.8606 7.04269 11.5551 7.09252 11.1892C7.10186 11.1202 7.12414 11.0524 7.14638 10.9848L7.14639 10.9848C7.15539 10.9575 7.16439 10.9301 7.17252 10.9027C7.22563 10.7276 7.15416 10.5821 6.98827 10.5316C6.83026 10.4837 6.69322 10.565 6.64077 10.7388C6.62503 10.7906 6.60995 10.843 6.59553 10.8955C6.45718 11.4004 6.31883 11.9052 6.18246 12.4101C6.14246 12.5576 6.21131 12.6783 6.35424 12.7006L6.48705 12.7218C6.7241 12.76 6.96138 12.7982 7.20005 12.8192C7.48404 12.8444 7.76967 12.852 8.05494 12.8597L8.13569 12.8619C8.38682 12.8687 8.63837 12.8705 8.88966 12.8722H8.88979L9.07855 12.8737C9.19329 12.875 9.30344 12.8881 9.39917 12.9582C9.57751 13.0887 9.58013 13.3647 9.4031 13.4933C9.32377 13.551 9.23197 13.5726 9.13559 13.5713C8.80513 13.566 8.47467 13.5595 8.14422 13.5523L8.02497 13.5498C7.88683 13.5469 7.74847 13.5441 7.6105 13.5385C7.51346 13.5346 7.44462 13.5654 7.41118 13.6611C7.40419 13.6817 7.39428 13.701 7.38437 13.7204C7.37942 13.7301 7.37446 13.7398 7.36987 13.7496C7.33955 13.8187 7.30799 13.8874 7.27642 13.9561L7.2764 13.9561L7.27638 13.9561L7.27637 13.9562L7.27635 13.9562L7.27633 13.9563L7.27631 13.9563L7.27629 13.9563L7.27627 13.9564L7.27625 13.9564L7.27624 13.9565L7.27622 13.9565L7.2762 13.9565L7.27618 13.9566L7.27616 13.9566L7.27614 13.9567C7.20476 14.1119 7.13337 14.2672 7.07613 14.4276C6.97516 14.7089 6.94238 15.0026 6.99876 15.3016C7.06695 15.6648 7.25906 15.9546 7.53182 16.1959C7.84589 16.472 8.20716 16.6667 8.59991 16.8024C9.14346 16.9893 9.70405 17.0883 10.2778 17.1217C10.7144 17.1466 11.1491 17.1257 11.5819 17.0634C12.1359 16.9834 12.6742 16.8378 13.1981 16.6385C13.9351 16.3579 14.5173 15.893 14.9074 15.2C14.9431 15.1367 14.976 15.0718 15.0094 15.0058L15.0094 15.0058L15.0097 15.0053L15.0101 15.0044C15.0225 14.9799 15.035 14.9552 15.0478 14.9305C15.0379 14.9266 15.0293 14.923 15.0214 14.9196C15.0077 14.9138 14.9962 14.9089 14.9842 14.9056C14.6858 14.8223 14.4229 14.6722 14.1783 14.4853C14.0859 14.4151 14.0144 14.326 14.0367 14.204C14.0616 14.0643 14.137 13.9522 14.2708 13.8899C14.2839 13.884 14.299 13.8821 14.3134 13.8808C14.4386 13.869 14.5514 13.9057 14.6511 13.9778C14.9973 14.2289 15.3828 14.3122 15.8011 14.2492C16.346 14.1666 16.8063 13.9168 17.1938 13.53C17.595 13.1307 17.7937 12.6376 17.8468 12.0816C17.8829 11.702 17.8619 11.323 17.7708 10.9512C17.597 10.2431 17.1826 9.72513 16.5224 9.41369C15.9847 9.1606 15.4208 9.12519 14.8471 9.26092C14.2544 9.40189 13.7528 9.70022 13.3712 10.1769C12.8965 10.7703 12.7077 11.4561 12.7503 12.2108C12.7555 12.3065 12.7608 12.4029 12.7509 12.498C12.7385 12.6225 12.6769 12.7228 12.5523 12.7674C12.427 12.812 12.3044 12.8074 12.1995 12.715C12.113 12.6389 12.0822 12.5347 12.0677 12.4245C12.0598 12.3669 12.0535 12.3093 12.0472 12.2517L12.0395 12.1826ZM11.9545 20.6853C12.0247 20.6886 12.0948 20.6925 12.165 20.6964H12.3289L12.386 20.6906L12.3861 20.6906L12.3861 20.6905L12.3862 20.6905L12.3863 20.6905L12.3863 20.6905L12.3864 20.6905L12.3865 20.6905L12.3865 20.6905L12.3866 20.6905L12.3867 20.6905L12.3867 20.6905L12.3868 20.6905L12.3869 20.6905L12.3869 20.6905C12.4336 20.6856 12.4803 20.6807 12.5276 20.6774C12.6334 20.6709 12.7393 20.6647 12.8453 20.6586L12.8458 20.6585C13.0042 20.6494 13.1627 20.6402 13.3209 20.6296C13.8861 20.5922 14.45 20.5502 15.0106 20.4604C16.0216 20.2985 17.0169 20.0703 17.9926 19.7588C18.8659 19.4795 19.715 19.1386 20.5398 18.7386C21.6768 18.1872 22.7455 17.5243 23.7572 16.7677C23.7598 16.7657 23.7625 16.7631 23.7657 16.7611C23.8726 16.6942 23.9592 16.6097 24.0005 16.487V16.3559C23.9944 16.3422 23.9887 16.3281 23.9831 16.3142L23.983 16.3141L23.983 16.3141L23.9782 16.3021C23.9139 16.1369 23.771 16.0438 23.6012 16.0766C23.5266 16.091 23.4547 16.1347 23.388 16.1752L23.3874 16.1756C23.3399 16.2047 23.2959 16.2392 23.252 16.2736L23.252 16.2737L23.252 16.2737L23.252 16.2737L23.252 16.2737L23.2519 16.2737L23.2519 16.2737L23.2519 16.2737C23.2286 16.292 23.2054 16.3102 23.1815 16.3277C22.2072 17.0398 21.1785 17.6607 20.0894 18.18C18.9833 18.7078 17.8359 19.1202 16.6471 19.4179C16.021 19.5752 15.3876 19.7011 14.7483 19.789C14.3851 19.8395 14.0205 19.8821 13.6553 19.9116C13.2252 19.9464 12.7931 19.9726 12.3617 19.985C11.866 19.9995 11.3696 19.9949 10.8746 19.9562L10.7143 19.9436L10.7143 19.9436C10.3532 19.9154 9.99201 19.8872 9.63278 19.8421C9.20856 19.7877 8.78631 19.7162 8.36603 19.6382C7.58841 19.4939 6.82455 19.2907 6.07316 19.0435C5.15719 18.7419 4.27007 18.3721 3.41179 17.9308C2.5568 17.4909 1.73656 16.9939 0.959592 16.4254L0.916564 16.3939C0.799096 16.308 0.681458 16.2219 0.562257 16.1389C0.371457 16.0064 0.138695 16.0628 0.0390329 16.2622C-0.040303 16.4202 0.0016598 16.5874 0.161643 16.708C1.10712 17.424 2.10832 18.0528 3.16723 18.5891C4.26023 19.1432 5.39716 19.5851 6.57671 19.9175C7.56415 20.1962 8.56798 20.3955 9.58689 20.5188C9.97963 20.566 10.3737 20.6027 10.7684 20.6302C11.0412 20.6493 11.3147 20.6598 11.5881 20.6704L11.5882 20.6704L11.5883 20.6704L11.5884 20.6704L11.5885 20.6704L11.5886 20.6704L11.5886 20.6704L11.5887 20.6704L11.5888 20.6704L11.5889 20.6704L11.589 20.6704L11.5891 20.6704L11.5892 20.6704L11.5893 20.6704L11.5894 20.6704L11.5902 20.6705C11.7117 20.6752 11.8331 20.6799 11.9545 20.6853ZM14.3517 17.3159C14.1642 17.3494 14.0389 17.4845 14.0383 17.6575C14.0376 17.8805 14.235 18.0457 14.454 18.0064C14.5048 17.9975 14.5559 17.99 14.6071 17.9824C14.6582 17.9749 14.7094 17.9674 14.7602 17.9585C14.8887 17.9364 15.0175 17.9152 15.1462 17.8939L15.1463 17.8939L15.1463 17.8939L15.1463 17.8939L15.1463 17.8939L15.1463 17.8939L15.1464 17.8939L15.1464 17.8939L15.1464 17.8939L15.1464 17.8939L15.1464 17.8939L15.1464 17.8939L15.1465 17.8939C15.4453 17.8447 15.7443 17.7954 16.0407 17.7349C16.8282 17.5749 17.6005 17.3599 18.3611 17.0996C19.9557 16.5547 21.4513 15.8092 22.8564 14.8808C22.9075 14.8473 22.9554 14.8047 22.9934 14.7575C23.1757 14.5294 22.9947 14.2415 22.7849 14.212C22.663 14.1943 22.5574 14.2402 22.4584 14.3058C21.0382 15.2467 19.5236 15.9921 17.9015 16.5173C17.2307 16.735 16.5502 16.9173 15.8558 17.0452C15.4516 17.1192 15.047 17.1916 14.6423 17.2639L14.3517 17.3159ZM6.16423 16.7881C6.16423 17.0425 5.94851 17.2038 5.70133 17.1192C5.36038 17.0025 5.02074 16.8799 4.68569 16.7461C3.46025 16.2576 2.29906 15.6446 1.19819 14.9174C1.18775 14.9105 1.17721 14.9037 1.16668 14.8968C1.13754 14.878 1.10845 14.8591 1.08148 14.8374C0.964772 14.743 0.905106 14.625 0.943791 14.4736C0.982475 14.3214 1.08935 14.2434 1.23753 14.208C1.34254 14.1832 1.42346 14.2331 1.50307 14.2822L1.51029 14.2867C1.61842 14.3537 1.72557 14.4224 1.83274 14.4911L1.83283 14.4911C1.97323 14.5812 2.11368 14.6712 2.25644 14.7575C3.25961 15.3646 4.31262 15.8695 5.41152 16.2799C5.50134 16.3132 5.59175 16.3451 5.68221 16.377C5.7575 16.4036 5.83281 16.4302 5.90786 16.4576C6.02982 16.5015 6.12489 16.5737 6.15833 16.7068L6.15896 16.709C6.16136 16.7173 6.16362 16.7252 6.16423 16.7336C6.16466 16.7458 6.16452 16.7578 6.16437 16.7698V16.7698V16.7698L6.16423 16.7881ZM9.43875 7.88045L9.43881 7.88046L9.43887 7.88047L9.43892 7.88048L9.43898 7.88048L9.43904 7.88049L9.4391 7.8805L9.43937 7.88053C9.48515 7.88602 9.53097 7.89151 9.57679 7.89745L9.57708 7.89465L9.57708 7.89464C9.57726 7.89351 9.57744 7.8923 9.57744 7.8909L9.59585 7.89119C9.60802 7.89148 9.62009 7.89177 9.63186 7.8909C9.74726 7.88041 9.85545 7.85352 9.92692 7.7519C10.062 7.55978 9.9774 7.3067 9.74923 7.23064C9.6906 7.21073 9.62824 7.20108 9.56608 7.19146L9.53155 7.18605C9.40103 7.16471 9.27037 7.1443 9.1397 7.12388L9.13969 7.12388C8.88898 7.0847 8.63828 7.04553 8.38872 6.99984C7.60126 6.85625 6.83085 6.6484 6.07093 6.39859C5.97514 6.36706 5.88001 6.33344 5.78489 6.29982L5.78486 6.29981L5.78485 6.29981C5.66641 6.25795 5.548 6.2161 5.42837 6.17829C5.15365 6.09109 4.91498 6.29959 4.96678 6.57825C4.99169 6.71332 5.08611 6.78937 5.20872 6.83527C6.0742 7.15786 6.95739 7.41947 7.86156 7.60765C8.20829 7.67975 8.55779 7.73983 8.90735 7.79993L9.10798 7.83451C9.21774 7.85396 9.32815 7.8672 9.43875 7.88045ZM18.5117 14.4994C18.3596 14.4902 18.2481 14.4161 18.1957 14.2817C18.1393 14.1375 18.1649 14.0044 18.2829 13.9073C18.3458 13.8555 18.4212 13.8116 18.4986 13.7854C19.2056 13.5422 19.8686 13.2041 20.5313 12.8661L20.741 12.7592C20.8875 12.6849 21.0337 12.6102 21.1797 12.5355L21.1806 12.5351C21.3022 12.4729 21.4238 12.4107 21.5455 12.3488C21.6307 12.3055 21.7212 12.2786 21.8183 12.2931C21.9619 12.314 22.0477 12.4039 22.0877 12.5383C22.129 12.676 22.0845 12.7927 21.9828 12.8878C21.9461 12.9225 21.9022 12.95 21.8583 12.975C20.8564 13.5585 19.8106 14.0496 18.7215 14.4463C18.6764 14.4625 18.6292 14.4729 18.5818 14.4832L18.5818 14.4832C18.5584 14.4884 18.5349 14.4935 18.5117 14.4994ZM11.1325 10.5655L11.1328 10.5655L11.133 10.5655L11.1332 10.5655L11.1334 10.5655C11.2515 10.5731 11.3696 10.5808 11.4877 10.589C11.488 10.585 11.4882 10.5809 11.4883 10.5768C11.4885 10.5727 11.4887 10.5686 11.489 10.5647C11.5272 10.5647 11.5656 10.5659 11.604 10.567C11.6893 10.5695 11.7745 10.572 11.8581 10.5621C12.0463 10.5398 12.1656 10.3805 12.1525 10.193C12.1414 10.0205 11.9912 9.88413 11.8076 9.87823C11.7429 9.87604 11.6782 9.87415 11.6135 9.87226C11.4842 9.86847 11.3548 9.86468 11.2254 9.85856L11.1486 9.85503H11.1486C10.9479 9.84586 10.7467 9.83666 10.5461 9.81922C10.2373 9.79299 9.92849 9.76349 9.62033 9.7248C9.38039 9.69443 9.14126 9.65677 8.90231 9.61913L8.90228 9.61913L8.90225 9.61912L8.90222 9.61912L8.90219 9.61912L8.90215 9.61911L8.90212 9.61911L8.90209 9.6191L8.90206 9.6191L8.70632 9.58842C8.6524 9.58001 8.59857 9.57002 8.54473 9.56002C8.45585 9.54351 8.36694 9.527 8.27751 9.51761C8.08606 9.49729 7.9464 9.60285 7.90378 9.78447C7.86379 9.95822 7.94443 10.1044 8.12278 10.1772C8.15163 10.189 8.18113 10.1995 8.21129 10.2048C8.32166 10.2234 8.43198 10.2426 8.54231 10.2618L8.54254 10.2619C8.81948 10.3101 9.09646 10.3583 9.37445 10.3982C9.71015 10.446 10.0478 10.4814 10.3855 10.5116C10.6343 10.5334 10.8835 10.5494 11.1325 10.5655ZM15.2709 7.35305C15.2703 7.19241 15.3745 7.06062 15.5411 7.02194C15.6676 6.99207 15.7947 6.96436 15.9219 6.93665C16.1381 6.88953 16.3544 6.84239 16.5679 6.78459C16.9358 6.68521 17.3007 6.57432 17.6651 6.46361C17.7526 6.437 17.8402 6.4104 17.9277 6.38397C18.0521 6.34645 18.1753 6.30536 18.2985 6.26429L18.2985 6.26428L18.2986 6.26427C18.3799 6.23716 18.4612 6.21006 18.5427 6.18399C18.7604 6.11449 18.9374 6.18793 19.0174 6.37873C19.0935 6.561 18.9978 6.75902 18.7906 6.83311C18.4785 6.94457 18.1657 7.05603 17.8503 7.15701C17.1455 7.38256 16.4275 7.55631 15.7004 7.69466C15.4637 7.7399 15.269 7.56877 15.2709 7.35305ZM2.25762 12.2823C2.036 12.2856 1.90159 12.4266 1.89766 12.6364C1.89635 12.7242 1.92388 12.8016 1.98814 12.8619C2.02748 12.8986 2.07075 12.9334 2.11731 12.9609C2.85756 13.3924 3.62141 13.7779 4.41346 14.107C4.55508 14.1654 4.69868 14.2231 4.8462 14.2644C4.98324 14.3031 5.12158 14.2316 5.19371 14.109C5.27173 13.9759 5.26255 13.8297 5.1701 13.7176C5.11437 13.6494 5.04028 13.6087 4.96029 13.5766C4.34003 13.3274 3.7355 13.0468 3.14605 12.7334C3.03317 12.6734 2.92167 12.611 2.81014 12.5486L2.81008 12.5486L2.81003 12.5485L2.81 12.5485L2.80998 12.5485L2.80996 12.5485L2.80995 12.5485C2.70452 12.4895 2.59905 12.4305 2.49235 12.3734C2.4815 12.3677 2.47049 12.3616 2.45934 12.3555C2.39434 12.3199 2.32478 12.2817 2.25762 12.2823ZM4.25748 8.25466C4.27088 8.2578 4.28448 8.26048 4.29808 8.26315C4.32709 8.26885 4.35614 8.27456 4.38337 8.28482C5.03296 8.52801 5.68255 8.77185 6.33214 9.01569L6.33267 9.01589C6.47692 9.07097 6.56609 9.20866 6.55494 9.35553C6.54248 9.51617 6.43561 9.63681 6.27694 9.6696C6.19891 9.68599 6.12482 9.67943 6.04745 9.65452C5.5541 9.49768 5.07428 9.30552 4.59433 9.11331L4.5943 9.1133C4.44023 9.0516 4.28614 8.98989 4.13159 8.92935C3.8903 8.83493 3.82867 8.52283 4.01094 8.3517C4.07979 8.28745 4.16503 8.26646 4.25748 8.25466ZM4.98277 11.7944C5.00184 11.7987 5.0209 11.803 5.03956 11.8079C5.04021 11.806 5.04087 11.804 5.04218 11.802C5.0517 11.8007 5.06137 11.7997 5.07108 11.7988C5.09015 11.7969 5.1094 11.795 5.12807 11.7902C5.2697 11.7522 5.34641 11.6512 5.37592 11.5148C5.40411 11.3863 5.36018 11.2775 5.2579 11.1955C5.21987 11.1654 5.17791 11.1378 5.13398 11.1182C4.56682 10.8631 3.99967 10.6087 3.43186 10.3563C3.3794 10.3327 3.32236 10.311 3.26663 10.3064C3.09419 10.2914 2.93748 10.4022 2.89814 10.5589C2.85487 10.7287 2.9283 10.89 3.09222 10.9641C3.68101 11.2309 4.27177 11.4958 4.86253 11.7594C4.90019 11.776 4.94152 11.7852 4.98277 11.7944ZM12.0862 7.36217C12.2257 7.35489 12.3652 7.34747 12.5047 7.34004L12.5047 7.34004C12.78 7.32539 13.0551 7.31075 13.3306 7.29725L13.3713 7.29511C13.4739 7.28963 13.5768 7.28413 13.6781 7.29398C13.8617 7.31233 13.9765 7.43691 13.9876 7.59624C14.002 7.81851 13.8434 7.93915 13.7037 7.96735C13.6356 7.98096 13.5647 7.98406 13.4946 7.98712L13.4821 7.98767C13.2119 7.99816 12.9418 8.00734 12.6717 8.01587L12.4814 8.02182C12.2275 8.02979 11.9735 8.03777 11.7196 8.04406C11.6619 8.04537 11.6023 8.04078 11.5472 8.02701C11.3676 7.98177 11.2705 7.83097 11.2948 7.64345C11.3171 7.4697 11.4548 7.35364 11.6442 7.34905C11.6475 7.3484 11.6515 7.3484 11.6547 7.3484H12.0855L12.0857 7.3537L12.0858 7.35528C12.086 7.35758 12.0862 7.35987 12.0862 7.36217ZM20.9563 10.9337C21.0625 10.874 21.1136 10.777 21.1123 10.6537C21.1071 10.4635 21.0061 10.3475 20.8199 10.3095C20.7202 10.2898 20.6337 10.3259 20.5484 10.3645C20.098 10.5691 19.6475 10.7743 19.1997 10.9835C19.1309 11.0156 19.0633 11.0628 19.0109 11.1179C18.8483 11.2897 18.927 11.5808 19.1512 11.6549C19.2627 11.6916 19.3702 11.6713 19.4738 11.6254L19.6042 11.5671C19.9233 11.4247 20.2422 11.2823 20.5596 11.1369C20.6946 11.0753 20.8264 11.0064 20.9563 10.9337ZM18.1724 9.09595C18.1724 8.93859 18.2491 8.82647 18.3986 8.76681C18.5355 8.71199 18.6729 8.65854 18.8105 8.60507L18.8107 8.60499C18.9247 8.56064 19.0388 8.51627 19.1526 8.4711C19.3041 8.41143 19.4549 8.34914 19.605 8.28554C19.868 8.17474 20.1066 8.38193 20.0935 8.63633C20.0876 8.75435 20.0378 8.84549 19.9237 8.89138C19.4765 9.07169 19.0294 9.25135 18.5822 9.43034C18.4858 9.46903 18.3331 9.41723 18.2544 9.32281C18.1967 9.25462 18.1691 9.17594 18.1724 9.09595ZM16.8541 12.5219C16.8464 12.5663 16.8394 12.6065 16.8339 12.6385C16.8333 12.9041 17.0188 13.0595 17.2457 13.0188C17.3847 12.9946 17.4903 12.8798 17.5198 12.7166C17.5466 12.5664 17.5716 12.4163 17.5939 12.2661C17.5983 12.237 17.6033 12.2079 17.6084 12.1787C17.6237 12.091 17.6389 12.0031 17.6365 11.916C17.6293 11.638 17.5906 11.3633 17.5191 11.0938C17.4135 10.6958 17.2359 10.3339 16.9638 10.0218C16.8759 9.92078 16.7657 9.85784 16.6267 9.88472C16.3946 9.92996 16.2851 10.149 16.3841 10.3745C16.4215 10.4604 16.4733 10.5404 16.5264 10.6184C16.8916 11.1534 16.9893 11.7422 16.8798 12.373C16.8711 12.424 16.8622 12.4752 16.8541 12.5219Z" fill="#0C1E3C"/>
</svg>
