<svg width="24" height="24" viewBox="0 0 24 24" fill="none" xmlns="http://www.w3.org/2000/svg">
<path fill-rule="evenodd" clip-rule="evenodd" d="M12.4536 0.0494698C12.5535 0.0937254 12.6489 0.210857 12.7409 0.401925C12.7915 0.488846 12.8448 0.576563 12.901 0.664544V0.804825C12.901 0.804922 12.9011 0.80502 12.9012 0.805117C13.4208 1.57283 14.1289 2.38428 14.9398 3.19519C14.9916 3.25145 15.0434 3.30772 15.0953 3.36399C16.7851 5.19821 18.4888 7.04751 18.3422 9.39549C18.3033 9.78663 18.2084 10.1725 18.0552 10.5533C18.0552 10.5533 18.0552 10.5534 18.0552 10.5534C18.274 11.1568 18.3842 11.7895 18.3421 12.4631C18.1905 13.9752 17.2081 15.4115 15.2413 16.7731L15.2381 16.7747C15.0886 16.8491 14.9386 16.9239 14.7886 16.9239C14.5613 16.9239 14.3344 16.8481 14.1834 16.6221C13.8807 16.2436 13.9565 15.7899 14.3344 15.5631C15.8121 14.4546 16.7126 13.4187 16.8233 12.3844C16.8257 12.3603 16.8278 12.3356 16.8297 12.3115C16.9047 11.7587 16.7713 11.2054 16.504 10.6525C16.4919 10.6275 16.4796 10.6026 16.467 10.5777C16.4453 10.5347 16.4228 10.4916 16.3995 10.4486C16.3995 10.4486 16.3995 10.4486 16.3995 10.4486C15.9027 9.53045 15.0618 8.61211 14.2208 7.69356L14.2207 7.69341C14.1071 7.56935 13.9935 7.44528 13.8807 7.32121C13.6917 7.0944 13.5029 6.88694 13.3139 6.67935C13.1757 6.52748 13.0374 6.37553 12.8989 6.21587L12.8988 6.21581V19.4713C12.8988 22.0135 10.9124 24 8.44942 24C5.98647 24 4 21.9343 4 19.4713C4 16.9292 5.98647 14.9422 8.44995 14.9422C9.56243 14.9422 10.5157 15.3397 11.3104 15.9754V0.481161C11.3104 0.445121 11.401 0.0160793 11.8492 0.0046841C12.1552 -0.0085661 12.3572 0.00627412 12.4536 0.0494698ZM16.7861 8.3735C16.7861 8.37345 16.7861 8.37341 16.7861 8.37337C16.5081 7.1235 15.3646 5.87473 14.2204 4.62526C14.1069 4.50138 13.9935 4.3775 13.8809 4.25361C13.6925 4.02748 13.504 3.82033 13.3154 3.61311C13.1773 3.46141 13.0392 3.30967 12.9012 3.1504C12.9011 3.15033 12.901 3.15025 12.901 3.15018V3.18606C12.9007 3.18532 12.9002 3.18483 12.8998 3.18436L12.8988 3.18314V3.86919L12.8989 3.86926C13.4191 4.63831 14.1277 5.45081 14.9397 6.26278L15.0831 6.4185C15.6754 7.06112 16.2696 7.70585 16.786 8.37327C16.786 8.37335 16.7861 8.37342 16.7861 8.3735ZM8.37018 22.3313V22.3318C9.95914 22.3318 11.2306 21.0603 11.2306 19.3916C11.2306 17.7234 9.95914 16.4519 8.37018 16.4519C6.78122 16.4519 5.50973 17.7234 5.50973 19.3916C5.50973 21.0603 6.78122 22.3313 8.37018 22.3313Z" fill="#0C1E3C"/>
</svg>
